<svg xmlns="http://www.w3.org/2000/svg" viewBox="0 0 56.03 78.25"><defs><style>.cls-1{fill:#fff;}</style></defs><title>Blad</title><g id="Laag_2" data-name="Laag 2"><g id="Laag_1-2" data-name="Laag 1"><path d="M408.56,461.93c2.34-2.36,2.9-2.48,5.62-1.4,1,.38,2,.65,2.9,1.11,6.44,3.17,12.86,6.38,19.3,9.56a12.86,12.86,0,0,0,1.62.53c-.2-1.21-.43-2-1.58-2.08a4.27,4.27,0,0,1-2-.65,42.27,42.27,0,0,0-9.62-5.27c-4.86-2-9.76-4-14.66-5.9-1.17-.46-2.4-.74-3.46-1.06-1.19,1-.45,1.79-.17,2.54,1.21,3.22,2.54,6.38,3.68,9.61a2.29,2.29,0,0,0,2.39,1.77c-1.16,3.18-.66,6.06.51,9h1.19a9.94,9.94,0,0,1,5.6,1.64c4.1,2.76,8.35,5.29,12.55,7.9.33.21.72.34,1.05.55a32.77,32.77,0,0,1,3,1.94,21.66,21.66,0,0,0,5.29,3.55v-2.64c-10.05-4.85-18.79-11.81-29.12-16.26l1.67-2-.62-1.08c2.19-2.28,2.19-2.28,6.7-1.49a24.27,24.27,0,0,0-9.5-4.19,5.51,5.51,0,0,1,3.93-2.95Zm20.95,15c3.22,3.29,7.22,4.47,10.38,7l.42-.27c-.11-1.05-.23-2.1-.31-2.88Zm-.8-6.21-.25.5c3.51,2.13,6.66,4.89,10.78,6.16-.09-.64-.27-1.31-.68-1.54C435.3,474.12,432,472.45,428.71,470.75Zm-25.8,11.09c1.34-.4,3.21-3.24,4.95-7.2a6.19,6.19,0,0,0,.23-1.64l-.64-.2C405.68,475.66,404.41,478.79,402.91,481.84Zm-13.15-57.68c0-4.09-1.19-6.4-4.07-7.11a6.25,6.25,0,0,0,.47,1.79C387.35,420.7,388.62,422.49,389.76,424.16Zm27.75,61.33.24-.46-4.06-2.22.62,3.07Zm-14.52-47-.09.47c2.63.71,5.17,1.78,8,1.82Zm-5.19,2c.74,1.11.75,1.12,1.55,1,.08,0,.12-.24.27-.56Zm0-2.92,0,.4,1.58.33.07-.36Z" transform="translate(-385.69 -417.05)"/><path class="cls-1" d="M408.56,461.93l6.22,2.73a5.51,5.51,0,0,0-3.93,2.95,24.27,24.27,0,0,1,9.5,4.19c-4.51-.79-4.51-.79-6.7,1.49l.62,1.08-1.67,2c10.33,4.45,19.07,11.41,29.12,16.26v2.64a21.66,21.66,0,0,1-5.29-3.55,32.77,32.77,0,0,0-3-1.94c-.33-.21-.72-.34-1.05-.55-4.2-2.61-8.45-5.14-12.55-7.9a9.94,9.94,0,0,0-5.6-1.64h-1.19c-1.17-3-1.67-5.85-.51-9a2.29,2.29,0,0,1-2.39-1.77c-1.14-3.23-2.47-6.39-3.68-9.61-.28-.75-1-1.57.17-2.54,1.06.32,2.29.6,3.46,1.06,4.9,1.94,9.8,3.88,14.66,5.9a42.27,42.27,0,0,1,9.62,5.27,4.27,4.27,0,0,0,2,.65c1.15.13,1.38.87,1.58,2.08a12.86,12.86,0,0,1-1.62-.53c-6.44-3.18-12.86-6.39-19.3-9.56-.93-.46-1.94-.73-2.9-1.11C411.46,459.45,410.9,459.57,408.56,461.93Z" transform="translate(-385.69 -417.05)"/><path class="cls-1" d="M429.51,477l10.49,3.8c.08.78.2,1.83.31,2.88l-.42.27C436.73,481.43,432.73,480.25,429.51,477Z" transform="translate(-385.69 -417.05)"/><path class="cls-1" d="M428.71,470.75c3.29,1.7,6.59,3.37,9.85,5.12.41.23.59.9.68,1.54-4.12-1.27-7.27-4-10.78-6.16Z" transform="translate(-385.69 -417.05)"/><path class="cls-1" d="M402.91,481.84c1.5-3,2.77-6.18,4.54-9l.64.2a6.19,6.19,0,0,1-.23,1.64C406.12,478.6,404.25,481.44,402.91,481.84Z" transform="translate(-385.69 -417.05)"/><path class="cls-1" d="M389.76,424.16c-1.14-1.67-2.41-3.46-3.6-5.32a6.25,6.25,0,0,1-.47-1.79C388.57,417.76,389.75,420.07,389.76,424.16Z" transform="translate(-385.69 -417.05)"/><path class="cls-1" d="M417.51,485.49l-3.2.39-.62-3.07,4.06,2.22Z" transform="translate(-385.69 -417.05)"/><path class="cls-1" d="M403,438.49l7.89,2.29c-2.81,0-5.35-1.11-8-1.82Z" transform="translate(-385.69 -417.05)"/><path class="cls-1" d="M397.8,440.49l1.82.42c-.15.32-.19.55-.27.56C398.55,441.61,398.54,441.6,397.8,440.49Z" transform="translate(-385.69 -417.05)"/><path class="cls-1" d="M397.76,437.57l1.63.37-.07.36-1.58-.33Z" transform="translate(-385.69 -417.05)"/></g></g></svg>