<svg xmlns="http://www.w3.org/2000/svg" viewBox="0 0 43.29 90.12"><defs><style>.cls-1{fill:#fff;}</style></defs><title>Bloem</title><g id="Laag_2" data-name="Laag 2"><g id="Laag_1-2" data-name="Laag 1"><path d="M21.6,10.39a7.72,7.72,0,0,1,1.29-3.05,1.32,1.32,0,0,1,.78-.5c.62-.15,1.27-.17,1.89-.3a2,2,0,0,0,.86-.37A7.67,7.67,0,0,0,28.51,3.6a1.83,1.83,0,0,0,.18-.92A17,17,0,0,0,28.36.81a.62.62,0,0,1,.35-.8.51.51,0,0,1,.42.17A18,18,0,0,1,32,4c.32.59,1.16.44,1.54-.16A6.79,6.79,0,0,0,34.13,2a4.71,4.71,0,0,1,.42-.84A1.25,1.25,0,0,1,35.83.83,6.3,6.3,0,0,1,37,1.58a5.25,5.25,0,0,1,.84,1.14c.5.81.85,1.76,2.07,1.7a.6.6,0,0,1,.42.18c.82,1,1.91,1.67,2.78,2.58a.65.65,0,0,1,0,.86c-.68.7-1.7.85-2.44,1.46a1.09,1.09,0,0,0-.41.82,1.83,1.83,0,0,0,0,.47,10.86,10.86,0,0,1,.63,2.29,11.44,11.44,0,0,1-.43,2.34,1.84,1.84,0,0,0,.56,1.73c.23.22.46.44.67.68a1.25,1.25,0,0,1,.22.41c0,.13.08.31,0,.39a.64.64,0,0,1-.39.25,4.41,4.41,0,0,1-1.86-.3c-1.42-.41-2,.05-2.07,1.59,0,1.28,0,2.55,0,3.83q-.06,8.37-.13,16.74a1.5,1.5,0,0,1-.2.43c-.07-.11-.19-.21-.19-.32,0-1.27-.09-2.54-.09-3.82,0-5.26.08-10.52-.27-15.78a6.09,6.09,0,0,0-.33-1.87,1.15,1.15,0,0,0-1.57-.56L32.5,20.49c-.38.28-.72.61-1.11.89a.65.65,0,0,1-.87-.09.75.75,0,0,1-.22-.36,12.17,12.17,0,0,1,.05-3.81,9.08,9.08,0,0,0-.08-2.85.85.85,0,0,0-.56-.67c-.14,0-.36-.07-.45,0a3.86,3.86,0,0,0-1.1,1.54A13.29,13.29,0,0,1,26,18.31a2.06,2.06,0,0,1-2.6.39c-.5-.32-.85-1.29-.58-1.67l2.49-3.5a.88.88,0,0,0-.73-1.35,13.81,13.81,0,0,0-1.43-.13c-.63,0-1.27.08-1.91.11a.8.8,0,0,1-.79-1.26,1.07,1.07,0,0,1,.68-.62c.13,0,.3.06.45.1a1.66,1.66,0,0,1,1.33-.08,5.42,5.42,0,0,0,3.64.14.81.81,0,0,0,.62-.59A.79.79,0,0,0,27,9a4.68,4.68,0,0,0-1.18-.69,2,2,0,0,0-2.5.54A4.74,4.74,0,0,1,21.6,10.39Zm4,7.05c-.35,0-.4-.05-.15-.17l0,.29q-.21-.58.27-.48C25.69,17.21,25.66,17.34,25.63,17.44Zm6.19-1.23c0,.61,0,.93,0,1.24a2.37,2.37,0,0,0,.11.46.57.57,0,0,0,.72.46,2.16,2.16,0,0,0,1.65-2.47,3,3,0,0,0-.77-1.16,1.46,1.46,0,0,0-.88-.22.63.63,0,0,0-.66.57C31.91,15.55,31.85,16,31.82,16.21ZM35.68,10a1,1,0,0,0-.56,1.11,1.1,1.1,0,0,0,.57.68,3.18,3.18,0,0,0,1.76.33c.38,0,.6-.17.61-.42a.81.81,0,0,0-.14-.42A3.72,3.72,0,0,0,36.13,9.9C36,9.86,35.83,9.94,35.68,10ZM36.13,3a.79.79,0,0,0-.82.34,6,6,0,0,0-.86,2.14.59.59,0,0,0,.34.76.7.7,0,0,0,.45,0A2.59,2.59,0,0,0,36.78,4.1,1.12,1.12,0,0,0,36.13,3ZM28.38,6.6c-.09.39,0,.65.4.74a2.58,2.58,0,0,0,.87.12,1,1,0,0,0,.82-1.33.9.9,0,0,0-1.39-.57A1.47,1.47,0,0,0,28.38,6.6Zm11-.12c-.27.09-.56.16-.83.27-.43.19-.48.71-.14,1.13a1.17,1.17,0,0,0,1.88-.2.66.66,0,0,0,0-.44A1,1,0,0,0,39.37,6.48Z"/><path d="M9.85,26.83a2.81,2.81,0,0,1,.38,2.63c-.43,1.12-.19,1.5.71,1.83.29.11.6.16.9.26a2,2,0,0,1,.41.21,1,1,0,0,1,.46.76l.1-.1c-.44.16-.89.3-1.32.49a.49.49,0,0,0-.24.33.64.64,0,0,0,.43.76,1.46,1.46,0,0,0,.89.09,7.87,7.87,0,0,0,1.25-.66l-.11.09a2,2,0,0,1,1.6.84,1.89,1.89,0,0,1,.51,1.29.6.6,0,0,1-.58.59c-.78,0-1.56-.06-2.34-.08a.54.54,0,0,0-.38.23.6.6,0,0,0,0,.82c1.4,1.49,3,2.75,4.29,4.37a1.75,1.75,0,0,1,.26,1.77l.13-.08c-.94-1.07-1.86-2.16-2.83-3.2a1.6,1.6,0,0,0-2.13-.36,2.65,2.65,0,0,1-2.26.34.77.77,0,0,0-.87.21c-.54.57-1.07,1.17-1.64,1.71a3.78,3.78,0,0,1-.81.46c.22-.6.46-1.17.64-1.77a1.91,1.91,0,0,0,.1-.91,4.12,4.12,0,0,0-1.27-2.43A1.35,1.35,0,0,0,4.88,37a6.41,6.41,0,0,0-.87.31,1.45,1.45,0,0,0-.66,1.58,11.24,11.24,0,0,0,.82,1.67A2.82,2.82,0,0,0,6,41.94a5.09,5.09,0,0,1,.85.35c0,.7-.27,1-.71.92a2.65,2.65,0,0,1-2.26-1.4,28.93,28.93,0,0,1-1.31-3A2.38,2.38,0,0,1,2.65,37,6.46,6.46,0,0,0,3.59,35l.23.1-.15-.16a3.75,3.75,0,0,1-3.17.18A.69.69,0,0,1,.16,34a1.83,1.83,0,0,1,.76-.51c2.18-.63,2.4-1.19,1.29-2.87-.09-.13-.15-.28-.23-.41A1.9,1.9,0,0,1,2.17,28a6.92,6.92,0,0,1,.57-.74A1.29,1.29,0,0,1,4,27c.56.28,1.1.6,1.65.89A1,1,0,0,0,7,27.66c.32-.32.54-.77,1.06-.86l-.12-.13c.11.74-.12,1.52.3,2.23A.46.46,0,0,0,9,29a2.33,2.33,0,0,0,1-2.38ZM8.41,38l.17-.27-.27,0Z"/><path d="M27.73,62.66a1.1,1.1,0,0,1,1.05.7c.15.42.2.88.32,1.32s.43.6,1,.31a2.2,2.2,0,0,1,1.29-.3l-.05-.09c-.61,1.75-1.2,3.51-1.71,5.3s-1.22,3.5-1.84,5.25c-.36.29-.71.58-1.05.89l.05.12A8.32,8.32,0,0,0,27.44,72a13.44,13.44,0,0,1,.35-4.69,10.85,10.85,0,0,0,0-4.71S27.73,62.66,27.73,62.66Z"/><path d="M19.63,44.88c1.18.59,1.82,1.72,2.7,2.61a12.73,12.73,0,0,1,2,2.66,27.93,27.93,0,0,1,2.82,6.49c.12.45.31.89.46,1.33l.07-.09a1.82,1.82,0,0,1-1.41-1.13c-.18-.45-.42-.87-.57-1.32a22.21,22.21,0,0,0-4.79-8.21,11.91,11.91,0,0,1-.92-1.1,1.45,1.45,0,0,1-.19-1.35Z"/><path d="M23.92,84.81a31.41,31.41,0,0,0,2.92-8.63.91.91,0,0,1-.07-.14,6.18,6.18,0,0,1,.09,2.74,18.61,18.61,0,0,1-1.61,4.82,2.21,2.21,0,0,1-1.39,1.12Z"/><path d="M34.11,56.78A12.13,12.13,0,0,1,32.62,60a5.56,5.56,0,0,1-1,.86l.09.12a17.14,17.14,0,0,1,1.19-2.88A3.55,3.55,0,0,1,34.2,56.9Z"/><path d="M35.39,48.06c.71-.51.55-1.31.67-2a2,2,0,0,1,.13-.42c.09.06.25.11.26.18A1.67,1.67,0,0,1,36,47.43c-.22.19-.42.41-.63.61Z"/><path d="M35.31,53.23a2.68,2.68,0,0,0-.56,1.28,5.56,5.56,0,0,1-.65,2.25l.1.14a5.42,5.42,0,0,1-.09-1.8A1.86,1.86,0,0,1,35,53.6a2.45,2.45,0,0,0,.35-.29Z"/><path d="M35.35,53.31a5.15,5.15,0,0,1-.23-2.61,11.17,11.17,0,0,0,.27-2.64v0a15,15,0,0,1-.1,5.17Z"/><path d="M27.56,58c.17.78.37,1.56.51,2.34a3.48,3.48,0,0,1-.33,2.34s.07-.08.06-.06a21.61,21.61,0,0,1-.51-2.11,4.2,4.2,0,0,1,.33-2.58Z"/><path d="M8,26.8a2,2,0,0,1,.32-1.32.79.79,0,0,1,.33-.3.55.55,0,0,1,.77.32c.16.43.27.88.4,1.33l.11-.17H7.91Z"/><path d="M20.67,20.94c.12,0,.29.06.34.14a.4.4,0,0,1,0,.37c-.3.24-.52.15-.56-.21C20.42,21.15,20.58,21,20.67,20.94Z"/><path d="M22,89.79c.2-.43.4-.86.59-1.29a2.06,2.06,0,0,1,.92-1l-.12-.12c-.05.3-.1.59-.13.89-.08.82-.42,1.41-1.33,1.5Z"/><path d="M31.42,64.69A5.16,5.16,0,0,1,31.73,61l-.1-.13a6.93,6.93,0,0,1-.27,3.74Z"/><path d="M23.86,84.72a7.33,7.33,0,0,1,.2.93,1.84,1.84,0,0,1-.7,1.68l.13.12a6.53,6.53,0,0,1,.45-2.61Z"/><path d="M21.91,89.72a1.89,1.89,0,0,1,.27.2s0,.13,0,.2a2.16,2.16,0,0,0-.19-.31Z"/><polygon points="18.2 24.61 18.53 24.57 18.3 24.47 18.2 24.61"/><path d="M19.75,44.77a.88.88,0,0,1-1.2-.68l-.1.11c.6-.13.93.21,1.18.68Z"/><path d="M18.3,24.47l.11.31a1.63,1.63,0,0,0-.2-.17A1.1,1.1,0,0,1,18.3,24.47Z"/><path d="M17.11,43.35c.68-.09,1.2.08,1.34.85l.1-.11c-.43-.28-.85-.56-1.29-.83Z"/><path d="M12.71,32.52a.89.89,0,0,1,1,1l.11-.09a.9.9,0,0,1-1-1Z"/><path class="cls-1" d="M31.82,16.21c0-.18.09-.66.18-1.12a.63.63,0,0,1,.66-.57,1.46,1.46,0,0,1,.88.22,3,3,0,0,1,.77,1.16,2.16,2.16,0,0,1-1.65,2.47.57.57,0,0,1-.72-.46,2.37,2.37,0,0,1-.11-.46C31.81,17.14,31.82,16.82,31.82,16.21Z"/><path class="cls-1" d="M21.6,10.39a4.74,4.74,0,0,0,1.7-1.54,2,2,0,0,1,2.5-.54A4.68,4.68,0,0,1,27,9a.79.79,0,0,1,.22.85.81.81,0,0,1-.62.59,5.42,5.42,0,0,1-3.64-.14,1.66,1.66,0,0,0-1.33.08Z"/><path class="cls-1" d="M35.68,10c.15,0,.32-.1.45-.06a3.72,3.72,0,0,1,1.79,1.34.81.81,0,0,1,.14.42c0,.25-.23.4-.61.42a3.18,3.18,0,0,1-1.76-.33,1.1,1.1,0,0,1-.57-.68A1,1,0,0,1,35.68,10Z"/><path class="cls-1" d="M36.13,3a1.12,1.12,0,0,1,.65,1.08,2.59,2.59,0,0,1-1.54,2.15.7.7,0,0,1-.45,0,.59.59,0,0,1-.34-.76,6,6,0,0,1,.86-2.14A.79.79,0,0,1,36.13,3Z"/><path class="cls-1" d="M28.38,6.6a1.47,1.47,0,0,1,.7-1,.9.9,0,0,1,1.39.57,1,1,0,0,1-.82,1.33,2.58,2.58,0,0,1-.87-.12C28.42,7.25,28.29,7,28.38,6.6Z"/><path class="cls-1" d="M39.37,6.48a1,1,0,0,1,1,.76.66.66,0,0,1,0,.44,1.17,1.17,0,0,1-1.88.2c-.34-.42-.29-.94.14-1.13C38.81,6.64,39.1,6.57,39.37,6.48Z"/><path class="cls-1" d="M25.63,17.46l.1-.38q-.48-.1-.27.48Z"/><path class="cls-1" d="M25.46,17.56l0-.29c-.25.12-.2.17.15.18A1.63,1.63,0,0,1,25.46,17.56Z"/><path class="cls-1" d="M6.83,42.29A5.09,5.09,0,0,0,6,41.94a2.82,2.82,0,0,1-1.81-1.36,11.24,11.24,0,0,1-.82-1.67A1.45,1.45,0,0,1,4,37.33,6.41,6.41,0,0,1,4.88,37a1.35,1.35,0,0,1,1.29.3,4.12,4.12,0,0,1,1.27,2.43,1.91,1.91,0,0,1-.1.91c-.18.6-.42,1.17-.64,1.77A1.66,1.66,0,0,1,6.83,42.29Z"/><path class="cls-1" d="M7.91,26.67H10A2.33,2.33,0,0,1,9,29a.46.46,0,0,1-.74-.14C7.79,28.19,8,27.41,7.91,26.67Z"/><path class="cls-1" d="M12.81,32.42a.9.9,0,0,0,1,1,7.87,7.87,0,0,1-1.25.66,1.46,1.46,0,0,1-.89-.09.64.64,0,0,1-.43-.76.49.49,0,0,1,.24-.33C11.92,32.72,12.37,32.58,12.81,32.42Z"/><polygon class="cls-1" points="8.41 37.99 8.31 37.69 8.58 37.72 8.41 37.99"/><path class="cls-1" d="M3.67,34.89l.15.16L3.59,35Z"/></g></g></svg>