<svg xmlns="http://www.w3.org/2000/svg" xmlns:xlink="http://www.w3.org/1999/xlink" viewBox="0 0 83 99.29"><defs><style>.cls-1{fill:none;}.cls-2{clip-path:url(#clip-path);}.cls-3{fill:#fff;}</style><clipPath id="clip-path" transform="translate(-2.91 -120.49)"><rect class="cls-1" width="612.48" height="821.76"/></clipPath></defs><title>Boek</title><g id="Laag_2" data-name="Laag 2"><g id="Laag_1-2" data-name="Laag 1"><g class="cls-2"><path d="M70.83,203.28c-.89,1.52-2.38,1.81-3.74,2.11-2.8.62-5.64,1.12-8.48,1.53-7.1,1-14.22,2-21.33,3-1.26.18-2.51.46-3.76.71-1.8.34-3.55.84-5.44.38-1.27-.3-1.46.06-1.43,2a13.41,13.41,0,0,0,6.22-1.23A25.11,25.11,0,0,1,41,210.13c3.66-.24,7.31-.73,11-1.1,2.62-.27,5.25-.5,7.87-.8,1.6-.18,3-.09,3.93,1.52.09.18.39.25.92.55,1.53-1,3.21-2,4.85-3s3.07-2.9,5.66-2.49a7,7,0,0,0-.21-1.7,27.9,27.9,0,0,1-2.15-10c-.12-3-.91-6-1.32-9-.48-3.56-.66-7.17-1.35-10.68-.92-4.7-2.27-9.31-3.31-14-.69-3.12-1.29-6.27-1.68-9.44-.36-2.91-.36-5.86-.56-8.8a15.89,15.89,0,0,0-.37-2.84,28.3,28.3,0,0,1-1.22-6.8,4.78,4.78,0,0,0-1.94-4.36c-.93.24-2,.44-3.06.81a85.78,85.78,0,0,1-17.2,4.16c-3.64.52-7.31.73-10.95,1.2-4.2.54-8.37,1.25-12.57,1.78-1.85.24-3.75.68-5.59-.06.09-2.28.4-2.73,2.24-3.11,1-.22,2-.33,3.08-.48,3-.45,6-.92,9-1.33,5.14-.7,10.3-1.31,15.43-2.06a34.57,34.57,0,0,0,6.07-1.33c3.25-1.09,6.6-1.09,9.94-1.32,2.05-.15,3.8-.58,4.57-2.72,1.21,0,2.06,0,2.87-1.2,1.28-2,4.68-1,5.6,1.39,1.17,3,2.33,6.09,3.42,9.17a14.18,14.18,0,0,1,.91,3.71c.25,3.74.25,7.5.49,11.24.22,3.58.64,7.15.94,10.73a23.27,23.27,0,0,1,.12,3.82,17.09,17.09,0,0,0,.6,6.64c1,3.28,2.06,6.53,3.1,9.79a15.42,15.42,0,0,1,.54,1.84c1,5.57,2,11.16,3,16.72.43,2.27,1.1,4.5,1.65,6.75,0,.15.07.31.11.47,1.15,5.21.49,7.23-6.19,8.53l-.61,1.17c-.24.06-.42.17-.54.13a7.26,7.26,0,0,0-4,.16c-1.16.28-2.34.51-3.52.68-1.39.21-2.8.33-4.52.52,1.84-2.76,5-2.95,7.08-4.62-.75-1.58-.85-1.63-1.92-1a2.82,2.82,0,0,0-.39.29c-4,3.66-9,4.59-14.14,5a20.91,20.91,0,0,0-5.17,1c-3.7,1.3-7.56,1.17-11.35,1.72-4.88.72-9.77,1.39-14.67,2a22.06,22.06,0,0,1-4.5.33,18.3,18.3,0,0,1-3.83-1c-.45-.14-.88-.52-1.31-.52-1.85,0-2.61-1.15-3.29-2.62-1.26-2.75-3.17-5.21-3.34-8.39-.08-1.6-.23-3.19-.43-4.78s-.51-3.31-.78-5a9.58,9.58,0,0,1-.31-1.88c.24-5.27-1.1-10.31-2-15.41a87.24,87.24,0,0,1-1.3-9.49C4,165.24,4,159.8,3.69,154.37c-.16-3.18-.42-6.35-.73-9.52-.15-1.46,0-2.65,1.35-3.54a2.5,2.5,0,0,0,.9-1.54A13.21,13.21,0,0,0,5.56,136c-.31-2.71,1-5.12,1.23-7.72.11-1.25,1.17-1.49,2-.51a3.35,3.35,0,0,1,.83,1.88c.26,4.86,1.78,9.6,1.38,14.53a6.4,6.4,0,0,0,.16,2.14c1.57,5.6,1.42,11.4,2.16,17.1,1.11,8.48,2.2,16.95,3.42,25.42C17.65,194.9,18.72,201,19.7,207A2.08,2.08,0,0,0,22.15,209a10.4,10.4,0,0,0,1.83-.56c1.47-.49,2.93-.91,3.87.59,7.34-1.15,14.5-2.26,21.65-3.4,1-.16,2-.51,3-.69,2.82-.51,5.66-.93,8.48-1.47a45.29,45.29,0,0,0,5.78-1.34C69.08,201.36,69.54,201.37,70.83,203.28Zm3.06-33.22.41-.09c-.08-.63-.18-1.25-.23-1.87-.18-2-.41-4-.5-6-.13-2.94.21-6-.3-8.83-.8-4.47-.3-8.92-.29-13.36a17.84,17.84,0,0,0-.94-7.23c-.28-.66-.33-1.4-.59-2.07-.64-1.63-1.35-3.24-2.18-5.23-1,1.83-2.24,3.23-2.37,4.73-.2,2.17.42,4.42.71,6.63.35,2.76.72,5.52,1.08,8.29.31,2.45.57,4.9,1,7.34.27,1.73.67,3.45,1.09,5.16C71.76,161.73,72.83,165.89,73.89,170.06ZM80,206.61c1.53,0,2.22-.72,2-2.1-.32-1.88-.78-3.73-1.19-5.6-.45-2.09-1-4.18-1.36-6.29-.21-1.09-.13-2.25-.38-3.32-1.17-5-1.58-10.1-3.26-15-.29-.83-.3-1.81-1.34-2.5.43,4.12.78,8,1.25,11.88.51,4.2,1.53,8.39,1.6,12.59C77.39,200.09,78.84,203.26,80,206.61Zm-61.73,5.51c-2.9-2.66-4.23-6-5.15-9.6-.7-2.7-1.46-5.39-2.06-8.11a19.18,19.18,0,0,1-.45-4.27,78.44,78.44,0,0,0-1.55-14,5.51,5.51,0,0,0-.6-1.34,25.26,25.26,0,0,0,.41,10.47c.47,2.26.94,4.52,1.26,6.8.41,2.91.33,5.87,1.27,8.73a17.2,17.2,0,0,1,.63,4.49,15.77,15.77,0,0,0,3.49,9.24,10.36,10.36,0,0,0,1.28,1.13Zm33.75,1-.11-.69c-3.16.18-6.35.15-9.47.59-4.5.63-9,1.59-13.42,2.41a4.8,4.8,0,0,1-3.46-.28,1.71,1.71,0,0,0-2.62.72,4.27,4.27,0,0,1,1.44.47,3.56,3.56,0,0,0,3.33.64c2.26-.44,4.52-.9,6.8-1.17,3.47-.41,7-.65,10.44-1a11.19,11.19,0,0,0,1.4-.28c1.48-.33,3-.64,4.43-1A11.44,11.44,0,0,0,52,213.12ZM8.69,144.51l-.58,0a8.79,8.79,0,0,0-.56,2.65c.24,2.33-.27,4.81,1.26,6.93.3.41.25,1.07.41,1.6.31,1.06.66,2.11,1,3.33C11.08,153.82,9.3,149.25,8.69,144.51Zm2.85,23.89h-.68c.53,2-.39,4.16,1.25,6Z" transform="translate(-2.91 -120.49)"/><path d="M48.57,176.22c-1.38,3.74-4.53,4.16-8,4.33-.19-3.08-1.4-5.91-.58-8.83A42.39,42.39,0,0,1,42,166.14c.4-.91,1.24-1.13,2.22-.58,1.86,1.05,3.79,2,5.64,3.07a12.54,12.54,0,0,1,2.34,1.91c.68.66,1.22,1.47,1.86,2.18,1.14,1.25,1.37,2.16.76,3.16a3.53,3.53,0,0,1-3.55,1.49A20.76,20.76,0,0,1,48.57,176.22Z" transform="translate(-2.91 -120.49)"/><path d="M39.78,165.92c-1.09,1.23-2.28,1.92-4,1.46-.34-1.33.62-1.76,1.44-2.11A1.86,1.86,0,0,1,39.78,165.92Z" transform="translate(-2.91 -120.49)"/><path d="M60.53,176.22,57.87,176l.64-2.07C59.92,174.07,60.18,174.91,60.53,176.22Z" transform="translate(-2.91 -120.49)"/><path class="cls-3" d="M73.89,170.06c-1.06-4.17-2.13-8.33-3.15-12.5-.42-1.71-.82-3.43-1.09-5.16-.39-2.44-.65-4.89-1-7.34-.36-2.77-.73-5.53-1.08-8.29-.29-2.21-.91-4.46-.71-6.63.13-1.5,1.4-2.9,2.37-4.73.83,2,1.54,3.6,2.18,5.23.26.67.31,1.41.59,2.07a17.84,17.84,0,0,1,.94,7.23c0,4.44-.51,8.89.29,13.36.51,2.87.17,5.89.3,8.83.09,2,.32,4,.5,6,.05.62.15,1.24.23,1.87Z" transform="translate(-2.91 -120.49)"/><path class="cls-3" d="M80,206.61c-1.18-3.35-2.63-6.52-2.7-10.29-.07-4.2-1.09-8.39-1.6-12.59-.47-3.87-.82-7.76-1.25-11.88,1,.69,1,1.67,1.34,2.5,1.68,4.85,2.09,10,3.26,15,.25,1.07.17,2.23.38,3.32.4,2.11.91,4.2,1.36,6.29.41,1.87.87,3.72,1.19,5.6C82.24,205.89,81.55,206.61,80,206.61Z" transform="translate(-2.91 -120.49)"/><path class="cls-3" d="M18.29,212.12l-1.47,3.54a10.36,10.36,0,0,1-1.28-1.13,15.77,15.77,0,0,1-3.49-9.24,17.2,17.2,0,0,0-.63-4.49c-.94-2.86-.86-5.82-1.27-8.73-.32-2.28-.79-4.54-1.26-6.8a25.26,25.26,0,0,1-.41-10.47,5.51,5.51,0,0,1,.6,1.34,78.44,78.44,0,0,1,1.55,14,19.18,19.18,0,0,0,.45,4.27c.6,2.72,1.36,5.41,2.06,8.11C14.06,206.09,15.39,209.46,18.29,212.12Z" transform="translate(-2.91 -120.49)"/><path class="cls-3" d="M52,213.12a11.44,11.44,0,0,1-1.24.44c-1.47.35-2.95.66-4.43,1a11.19,11.19,0,0,1-1.4.28c-3.48.33-7,.57-10.44,1-2.28.27-4.54.73-6.8,1.17a3.56,3.56,0,0,1-3.33-.64,4.27,4.27,0,0,0-1.44-.47,1.71,1.71,0,0,1,2.62-.72,4.8,4.8,0,0,0,3.46.28c4.47-.82,8.92-1.78,13.42-2.41,3.12-.44,6.31-.41,9.47-.59Z" transform="translate(-2.91 -120.49)"/><path class="cls-3" d="M8.69,144.51c.61,4.74,2.39,9.31,1.57,14.47-.38-1.22-.73-2.27-1-3.33-.16-.53-.11-1.19-.41-1.6-1.53-2.12-1-4.6-1.26-6.93a8.79,8.79,0,0,1,.56-2.65Z" transform="translate(-2.91 -120.49)"/><path class="cls-3" d="M11.54,168.4l.57,6c-1.64-1.87-.72-4-1.25-6Z" transform="translate(-2.91 -120.49)"/></g></g></g></svg>