<svg xmlns="http://www.w3.org/2000/svg" viewBox="0 0 301.2 379.62"><defs><style>.cls-1{fill:#fff;}</style></defs><title>Boom</title><g id="Laag_2" data-name="Laag 2"><g id="Laag_1-2" data-name="Laag 1"><path d="M120.32,43.17A45.73,45.73,0,0,0,120,32.78a25.2,25.2,0,0,1,.08-8.31,13.88,13.88,0,0,0,.3-4.15c-.77-6,.11-12-.48-18.06A4.29,4.29,0,0,1,120.61.4a.78.78,0,0,1,.54-.4c.17,0,.41.22.52.4a2.84,2.84,0,0,1,.53,1.2c.19,5.09.32,10.18.46,15.28a5.78,5.78,0,0,1,0,1.38c-1,4.86-.28,9.68.18,14.54.4,4.14.39,8.33.55,12.49a37.4,37.4,0,0,0,.11,4.86c1.29,7.77,1.78,15.65,3.32,23.38.73,3.64,1.34,7.29,2,10.94,1.33,7.33,1.42,14.75,1.75,22.16.3,6.72,1.06,13.37,2,20a10.47,10.47,0,0,1,.15,3.43c-.63,3-.15,6,.15,9a139.62,139.62,0,0,1,.69,20.14c-.11,2.54.05,5.09.17,7.64,0,.37.42.76.71,1.08s1.32-.24,1.63-.9c.59-1.26,1.19-2.51,1.72-3.79.7-1.72,1.42-3.43,2-5.19a14,14,0,0,1,3.05-5.39c.91-1,1.55-2.3,2.42-3.38a4.67,4.67,0,0,0,1.1-4.53c-1.09-3.38-.95-6.87-1.08-10.32-.16-4.2-1.24-8.24-1.81-12.36,0-.31.4-.82.74-1a1.73,1.73,0,0,1,1.3-.1,6.8,6.8,0,0,1,1.74,1.07,2.74,2.74,0,0,1,.85,1.09c2,5.16,4.7,10.08,4.93,15.81a17.06,17.06,0,0,0,.85,3.34c.15.56,1.31.95,1.69.58A198.59,198.59,0,0,0,168.92,127,6.55,6.55,0,0,0,170,125.2a13.58,13.58,0,0,1,4.66-6.76c1.66-1.4,2.07-3.58,3.21-5.32a3.53,3.53,0,0,0,.35-3.33,12.81,12.81,0,0,1-.61-6.16,2.74,2.74,0,0,1,5-1.3c.5,1,.87,2.14,1.41,3.16a41.56,41.56,0,0,0,2.12,3.58c1.18,1.79,2.2,2.08,4,1.22s3.74-1.81,5.63-2.69c.71-.33,1.9.57,2,1.43a5.54,5.54,0,0,1,.12.69c-.12,1.38-.21,2.77-.41,4.14a2.6,2.6,0,0,1-1.55,2.15c-1.69.74-3.35,1.61-5.09,2.22a13.34,13.34,0,0,0-5.72,3.83c-2.27,2.62-4.72,5.07-6.79,7.88-3.58,4.85-7.5,9.44-11.25,14.16a24.31,24.31,0,0,0-2.46,3.36c-4.54,8.1-10.28,15.39-15.47,23-1.55,2.29-3.33,4.44-5.1,6.58a32.2,32.2,0,0,0-5.75,9.44,16.81,16.81,0,0,1-1.77,3.76c-3.25,4.75-4.26,10.21-5.13,15.72a11.59,11.59,0,0,0-.1,2.76c.79,8.56.16,17.16.75,25.72.18,2.54.42,5.07.61,7.61a86.42,86.42,0,0,1,.67,10.39,48.12,48.12,0,0,0,.68,11.06,45.88,45.88,0,0,1,.51,4.84c.05.58.21,1,.67.95s1-.16,1.15-.44c1.12-1.76,2.16-3.56,3.19-5.36a7.43,7.43,0,0,1,3.09-2.71,2.18,2.18,0,0,1,3.16,1.61,13.14,13.14,0,0,1-1.19,8.09c-3.31,6.16-4.92,13-7,19.56-1.74,5.38-1.76,11-1.2,16.53a16.23,16.23,0,0,0,.74,2.66,1.43,1.43,0,0,0,1.49,1.16,8.32,8.32,0,0,1,4.76.41,8.09,8.09,0,0,0,2.7.52,31.59,31.59,0,0,1,6.82,1.09,50.15,50.15,0,0,0,7.59.65c1.38.1,2.94-.22,4.12.31,3.47,1.58,7.22,1.48,10.81,2.25s7.23,1.67,10.84,2.51a11.91,11.91,0,0,0,2.05.37,21.22,21.22,0,0,1,10.5,2.94c.45.29.9,0,1.1-.5a4,4,0,0,0,.33-.61c1-4.5,2.39-8.94,2.34-13.63a17.93,17.93,0,0,1,.15-4.15,24,24,0,0,0-.6-11.68,13.77,13.77,0,0,1-.59-5.47,12.74,12.74,0,0,0-2.46-9.81c-2.53-5.86-6.65-10.56-11.15-14.92-2.31-2.23-5-4.08-7.47-6.14-.7-.58-1.33-1.26-2-1.9l.93-1.12a5,5,0,0,1,3,1.58c2.79,3,6.28,5.15,9.43,7.72a.7.7,0,0,0,1.12-.3c.11-.2.36-.42.32-.56a15.54,15.54,0,0,0-.84-2.55c-.67-1.4-2.19-2.35-2.25-4.09a1.66,1.66,0,0,0,.89-2.19l1.12-1.08,7.79,5.77c.29.22,1.61-.41,1.74-.78.08-.21.26-.39.32-.61a7,7,0,0,0,.28-1.35c.47-6.71.49-13.37-1.08-20A45.52,45.52,0,0,0,194,216.64a7.88,7.88,0,0,1-1.68-4.48c-.1-4.21-2.14-7.46-4.86-10.46A52.84,52.84,0,0,1,179.82,191a17.21,17.21,0,0,1-1-2.56c-.24-.73.81-1.94,1.6-1.89a2.64,2.64,0,0,1,.69,0,24,24,0,0,1,8,4A53.26,53.26,0,0,1,196,197.4,45.67,45.67,0,0,1,202.61,208c1.21,2.75,2.56,5.44,3.85,8.16a73.76,73.76,0,0,1,4.31,13.17,15.34,15.34,0,0,1,.22,4.84,73.48,73.48,0,0,0,.37,11.1,16,16,0,0,0,.66,2.67,33.79,33.79,0,0,0,.7,6.07,13.84,13.84,0,0,1,.36,8,15.94,15.94,0,0,0-.15,4.74c0,.21.6.48,1,.56a5.93,5.93,0,0,0,1.33,0c-.06,3-.43,6,0,9a35.43,35.43,0,0,1,.09,4.84,1.25,1.25,0,0,1-1.17,1.39,1.27,1.27,0,0,0-1.36,1.22,34,34,0,0,0,0,5.53,4.45,4.45,0,0,0,2,3.1c0-1,.06-1.89.08-2.73a23.07,23.07,0,0,1,.08-2.76c.05-.36.53-.66.82-1,.12.19.33.37.36.58.2,1.36.35,2.72.51,4.09.08.68.14,1.37.83,1.76l.09-.63c.06-.46.11-.92.18-1.38a28.64,28.64,0,0,0-.38-11.69,15.27,15.27,0,0,1-.07-8.19,17.35,17.35,0,0,0,.16-5.49c0-.62-.61-1.2-.95-1.8a9.15,9.15,0,0,1,.64-4.71c.74-2.4,1.91-4.77,2.07-7.21.21-3.28,1.45-6.24,2-9.38.07-.37.58-.65.89-1-.12,2.18-.23,4.38-.38,6.57a6.12,6.12,0,0,0,.43,3.22c-.78-.1-1.13.37-1.16,1a3.1,3.1,0,0,0,.39,1.1c.1-.13.25-.25.29-.4.15-.6.26-1.22.38-1.83a9.73,9.73,0,0,0,2.8-7.54,13.27,13.27,0,0,1,1-5.43,4.45,4.45,0,0,0,.06-1.37s-.37-.11-.44,0a10.61,10.61,0,0,0-1.39,1.46c-.76,1.07-.38,2.84-2.05,3.37.15-1.79.31-3.58.47-5.37l2.3-3.85a1.39,1.39,0,0,1,1.55-.77c.11.41.21.82.34,1.22s-.15,1.43.64.33c.08-.11,0-.44-.15-.58a10.85,10.85,0,0,0-.92-.87,23.69,23.69,0,0,1,.54-3.88c.93-3.17,2-6.28,3.05-9.42a11.24,11.24,0,0,0,.54-1.92c0-.36-.24-.77-.38-1.15a4.66,4.66,0,0,0-.91.79,6.83,6.83,0,0,0-.54,1.23c-3.3,5.58-5.32,11.69-7.29,17.82a40.94,40.94,0,0,0-4.62,11.22c-.56,1.93-1.29,3.81-2,5.71a.49.49,0,0,1-.44.14c-.18-.11-.43-.31-.44-.49-.08-1.11-.09-2.23-.12-3.34,2.56-6.65,5-13.34,7.74-19.92,1.41-3.38,2.7-6.83,4.26-10.15s3.35-6.55,5.14-9.77a52.65,52.65,0,0,1,6.55-8.8,30,30,0,0,0,2.56-3.19c.25-.39.39-.84.63-1.24,7-11.48,3.93-8.25,15.83-14.32,1.84-.94,3.77-1.7,5.67-2.53.2-.09.48-.22.66-.15a6.26,6.26,0,0,1,1.73.82c.14.11,0,.9-.23,1.13-2.67,2.55-5.36,5.06-8.1,7.53a8,8,0,0,1-1.76.95l-.28-.26c.1-.84.19-1.67.29-2.51.55-.27,1.29-.49.8-1.3-.11-.17-.76-.07-1.14,0-.19,0-.35.27-.52.42-2.7,2.17-4.57,5-6.54,7.83-.16.23.15.81.24,1.22-1.5-.15-1.5-.15-1.35,1.45-.45-.33-.87-.31-1,.13-.06.19.21.51.33.76l.59-1a1.33,1.33,0,0,0,1.42-1.36l1.45.07-.07-.08c0,.44.24.94.1,1.31a21.91,21.91,0,0,1-5.89,8.42,23.13,23.13,0,0,0-6.4,10.44c-.79,2.4-1.79,4.73-2.61,7.13q-2.35,6.84-4.58,13.73a4.62,4.62,0,0,0-.1,2,1.46,1.46,0,0,0,.79.95,1.36,1.36,0,0,0,1.22-.08,20.55,20.55,0,0,0,4.66-6.78c1.79-3.81,4.51-6.92,7.3-10a4.58,4.58,0,0,1,1.71-1.12c.3-.11.77.25,1.17.39a8.09,8.09,0,0,1-1,1.73A46.54,46.54,0,0,0,236.39,234c-2.52,5.11-5.33,10.09-7.14,15.54a20.23,20.23,0,0,1-1.84,3.66c-.13.22-.77.16-1.17.23,0-1.43,0-2.85,0-4.28.35-.18.95-.31,1-.56a11.88,11.88,0,0,0,.16-2.46c0-.14-.3-.28-.47-.42-.1.13-.27.25-.29.39-.11,1-.19,2.1-.28,3.15-.35.23-.89.39-1,.71-.93,2.28-1.77,4.58-2.64,6.88-.69,1.66-1.35,3.33-2.07,5a13,13,0,0,0,.14,11.05,11.34,11.34,0,0,1,.32,2c0,2.07-.16,4.13-.22,6.19,0,.13.19.38.3.38s.55-.08.62-.23c1.33-2.86,3.47-5.45,3.09-8.91a3.81,3.81,0,0,1,.41-1.31c1.3-4.16,2.49-8.36,3.94-12.47.51-1.43,1-3.09,2.67-3.81l.67,1.66.66-1.66a2.17,2.17,0,0,0,1.92-1.64c.55-1.48.52-3.32,1.42-4.48,2.81-3.64,3.73-8.28,6.55-11.89.5-.64-.22-1.11-.93-1.25a4.88,4.88,0,0,1-.64-.23l.11.09c.25-.38.47-.77.74-1.13,3.2-4.32,7.78-7.12,11.86-10.39,4.69-3.76,8.52-8.36,13.08-12.2a1.79,1.79,0,0,0-.18-1.91,6.68,6.68,0,0,0-5.23-1.07,11.39,11.39,0,0,0-4.81,2.59c-2.79,2.41-5.57,4.83-8.39,7.2-.86.73-1.66,1.62-2.93,1.66-.12-.39-.4-.82-.32-1.17a2.48,2.48,0,0,1,.79-1.1A110.21,110.21,0,0,1,258,208.19a14.22,14.22,0,0,1,3.72-1.74,6.24,6.24,0,0,1,2.69-.11,8.43,8.43,0,0,1,2.64.81,10.17,10.17,0,0,0,7.32,1.07,7.74,7.74,0,0,1,3.35.53,1.42,1.42,0,0,1,.87.9c.09.37-.09,1.11-.34,1.2-3.46,1.36-6.25,3.83-9.44,5.6-5.7,3.17-10.5,7.48-15.42,11.64a34,34,0,0,0-6.31,7.3c-3.94,6-7.64,12.05-9.77,19a25.66,25.66,0,0,1-1.06,2.54,2.26,2.26,0,0,0-.37.52c-.37,1.2,0,1.66,1.08,1.43a5.33,5.33,0,0,0,1.14-.53c2-1.06,4-2.17,6-3.17,1.41-.7,2.89-1.25,4.33-1.87l.12.11a2.41,2.41,0,0,1-1.45,2.11c-3.28,2-6.61,4-9.92,6a26.64,26.64,0,0,0-2.87,1.81,6.56,6.56,0,0,0-2.18,3.38c-.23.77-.18,1.59.34,1.71a2.44,2.44,0,0,0,1.26,0c.87-.31,1.69-.59,2.36.33a7.75,7.75,0,0,1-.74,1.12c-2.13,2.35-4.28,4.68-6.42,7a54.7,54.7,0,0,0-2.8,10.53,6.86,6.86,0,0,1-.69,1.84c-.08.17-.37.25-.56.38-.14-1.89-.28-3.78-.48-6.36-.74,1.86-.74,3.44-2.5,3.75a1.45,1.45,0,0,0-.91.87,32.15,32.15,0,0,0-1.69,12.87c0,.19.17.49.28.5a.79.79,0,0,0,.62-.23c.6-.95,1.66-1.95,1.62-2.89-.15-2.91,1-5.37,2.09-7.91.14-.33.71-.49,1.08-.74a13.79,13.79,0,0,1-1.17,8,2.55,2.55,0,0,0,.07,2.61c.32.44,1.55-.79,2.16-2.14a22.39,22.39,0,0,0,1.6-5.22,27.84,27.84,0,0,1,1.94-6.54c.64-1.39,2.22-2.31,3-3.67s.45-3.15,1.64-4.44c.77-.83,1.31-1.89,2.11-2.7a2.43,2.43,0,0,1,2.56-.39,39.86,39.86,0,0,0-2,3.59,34.81,34.81,0,0,1-4.36,7.81,10.22,10.22,0,0,0-2.17,6.44,3.3,3.3,0,0,0,.41,1.29c.16.34,1.4.27,1.88,0a7.73,7.73,0,0,0,1.17-.74,12.29,12.29,0,0,0,1.89-2c1.31-2,3.29-3.2,5-4.72a8.93,8.93,0,0,1,3.66-1.84c2.21-.62,4.51-.9,6.54-2.14a5.14,5.14,0,0,1,4-.24,10.86,10.86,0,0,1,2,.62,12.07,12.07,0,0,0,10,.26c2.64-1,5.47-.62,8.18,0a8.09,8.09,0,0,1,2.45,1.24c1.32.9,2.58,1.91,3.86,2.87l-1.24,1.17c-1.8-.92-3.56-1.93-5.41-2.72a8.32,8.32,0,0,0-7.65.47c-.12.07-.18.58-.1.63a4.28,4.28,0,0,0,1.65.88,8.11,8.11,0,0,1,4.9,2c.22.21.07.81.08,1.22a24.45,24.45,0,0,1-3.33-.62,17.14,17.14,0,0,0-7.42-.72,2.6,2.6,0,0,0-.62.23c.29.33.51.83.86,1,2.57,1,5.19,1.76,7.75,2.73,4,1.52,7,4.11,8.43,8.32l-.61.58a2.45,2.45,0,0,1-.63-.3c-1.65-1.59-2.68-3.84-4.84-4.84-2.51-1.17-5.1-2.19-7.69-3.15-1.29-.48-2.8-.47-4-1.07-4.65-2.31-8.49-.35-12.27,2.08-1.36.87-2.59,1.94-4,2.76A45.63,45.63,0,0,0,230,312.8a91.34,91.34,0,0,0-4.8,9.21c-.86,1.78-.32,2.79,1.65,3.65a30.61,30.61,0,0,1,12.51,9.6,42,42,0,0,0,4.43,5.33c4.21,4,7.22,9,10.64,13.64a6.59,6.59,0,0,1,.7,1.2,84,84,0,0,0,7.35,12.51c2.21,3.18,3.62,6.92,5.31,10.45a1.3,1.3,0,0,1-.46,1.17,1.27,1.27,0,0,1-1.24-.26c-1.4-2.35-2.72-4.76-4.07-7.15a26.23,26.23,0,0,0-2.83-4.76A28.93,28.93,0,0,1,254.3,359a24.56,24.56,0,0,0-4.35-7c-2.3-2.58-4.14-5.53-6.29-8.24-2.31-2.91-5-5.49-7.28-8.36-2.06-2.56-4.88-4.25-7.57-6-2-1.32-4.35-1.48-6.64-1.85-.86-.14-1.19.48-1.5,1.08a2.46,2.46,0,0,1-2.85,1.41,12.35,12.35,0,0,1,.77-6.05A21.14,21.14,0,0,0,220,311.37c-2.08,6.93-3.66,12.56-3.16,18.6a4.68,4.68,0,0,1-.85,1.09,1.29,1.29,0,0,1-2.1-.77,22.25,22.25,0,0,1,.1-6.91c.69-3.63,1.42-7.26,1.86-10.92a37.29,37.29,0,0,0-.16-6.24,1.46,1.46,0,0,0-1.3-1.32,2.14,2.14,0,0,0-2.13,1.36,2.78,2.78,0,0,0-.09.69c.68,4.18,0,8.29-.51,12.43-.34,2.74-.12,5.54-.24,8.32a6.16,6.16,0,0,1-.62,1.89.65.65,0,0,1-.49.32.84.84,0,0,1-.58-.36,2.86,2.86,0,0,1-.44-1.22c0-3.48.09-6.95.12-10.42a4,4,0,0,0-.22-2c-2.25-3.5-.84-7.19-.66-10.8a30.18,30.18,0,0,0-2.18-13.49c-.07-.17-.47-.38-.57-.32-.32.18-.81.48-.81.73,0,1.14.12,2.28.21,3.42.25,3.47.56,6.94-.66,10.32a7.41,7.41,0,0,0-.36,2.05,94.43,94.43,0,0,1-2.59,15.75,24,24,0,0,0-.3,3.42c0,.16-.4.44-.51.4-.35-.13-.86-.33-.93-.6-.22-.89-.2-1.84-.41-2.73a1.55,1.55,0,0,0-1.24-1.41c-6.07-1.36-12.2-2.37-18.29-3.6-3.16-.64-6.21-1.76-9.51-1.52a1.57,1.57,0,0,1-.68-.1c-4.31-2.11-9.06-1.53-13.6-2.22s-9.14-1.39-13.72-2a14.23,14.23,0,0,0-3.45.05,1.38,1.38,0,0,0-.93.92c-.18,3.69-.65,7.42-.3,11.07a67.16,67.16,0,0,0,2.16,11.59,70.1,70.1,0,0,1,2.53,20.54c0,.19-.25.56-.34.55a4.75,4.75,0,0,1-1.28-.34.81.81,0,0,1-.46-.5,11.16,11.16,0,0,1-.38-2.73A39.14,39.14,0,0,0,138.23,340c-.86-2.87-1.07-5.93-2.54-8.62a61.42,61.42,0,0,1-.32-11.1,21.46,21.46,0,0,0-.12-4.16c-.34-3.46-.62-6.92-1.19-10.34a20.81,20.81,0,0,0-2.51-7.87c-.12-.2-.24-.4-.37-.59a3.54,3.54,0,0,0-.81.78c-.32.61-.48,1.3-.78,1.93a3.74,3.74,0,0,0,.21,3.94,11.17,11.17,0,0,0,.83,1.12,2.64,2.64,0,0,1,.16,3.2,2.76,2.76,0,0,0,.28,2.63,28.67,28.67,0,0,1,2.31,12.87c0,2.55.19,5.1.29,7.64a5.13,5.13,0,0,0-.38,1.93c.81,3.64,1.13,7.39,2.17,11L133,344a16.52,16.52,0,0,0-.49-4.08,17,17,0,0,1-.92-6.81c.11-2.54.19-5.08.13-7.62-.07-2.29-1-4.49-.58-6.87a7.42,7.42,0,0,0-.53-2.68c-.8-3.61-1.51-7.25-2.44-10.82a10,10,0,0,1,.19-6.78,5.4,5.4,0,0,0,.4-2c0-.64-.08-1.58-.49-1.88-2.26-1.66-2.42-3.83-1.73-6.2a13.22,13.22,0,0,0,.28-5.49c-.53-4.11-.44-8.28-1-12.41a18.13,18.13,0,0,1,.18-3.44,19.29,19.29,0,0,1,2.51,3.2,12.46,12.46,0,0,1,1.34,4.62c.16,2.82,1.29,5.34,2,8,.17.65.39.84.93.5.19-.12.46-.19.55-.36a42.17,42.17,0,0,0,2.2-4.28,1.78,1.78,0,0,0-.8-2.37,3.44,3.44,0,0,1-1.93-2.68,103.9,103.9,0,0,1-1.38-12.35,103.21,103.21,0,0,0-1-14.47,68.9,68.9,0,0,1-.46-6.9c-.14-2.54-.06-5.1-.43-7.6a104.39,104.39,0,0,1-.84-13.1c0-1.3.45-2.72-.69-4.11-.08,3-.16,5.73-.2,8.5-.12,7.84-.11,15.68-.38,23.51a36,36,0,0,0,.31,7.56c.23,1.36.53,2.71.68,4.07a1.64,1.64,0,0,1-1.05,1.6,3.16,3.16,0,0,1-2.65.25,49.58,49.58,0,0,0-.5-11.08,17,17,0,0,1,0-4.15,61.37,61.37,0,0,0-.23-11.09c-.47-3.67-.43-7.4-.59-11.1a10.32,10.32,0,0,1,.07-2.08,128,128,0,0,0,1.42-16.6c.07-2.71,1.19-5.39,1.81-8.09a18.8,18.8,0,0,0,.79-4.06c0-4.16.34-8.32.1-12.48a17.08,17.08,0,0,1,0-2.77,55.19,55.19,0,0,0-.35-12.45c-.8-6.2-1.13-12.45-2.24-18.6a9.24,9.24,0,0,1-.26-2.07c.45-7.18-.37-14.35-.11-21.52a6.43,6.43,0,0,1,1.44,3.81c.1,1.37.08,2.76.11,4.14a162.93,162.93,0,0,0,1.51,20.58c.4,2.72.61,5.48.9,8.22.32,3,.08,6,1.48,8.79a5.89,5.89,0,0,1,.26,2.7,37.92,37.92,0,0,1-.36,4.13c-.34,2.28-.67,4.49.18,6.78.38,1,.08,2.29.28,3.4s.93.44,1.51.28a5.19,5.19,0,0,1,1.25,0l-.48,2.48a4.16,4.16,0,0,0-.88,4.62c-.57-.1-1,.09-1,.6s0,1.28.06,1.92c.93-.05.47-.84.65-1.28a4.87,4.87,0,0,0,.16-1.34c1.55-.58,1.66-2.14,2.29-3.36a6.26,6.26,0,0,0,.8-1.13,60.23,60.23,0,0,1,8.12-12.7c4-5.05,7.55-10.42,11.17-15.74a20.87,20.87,0,0,0,1.52-3.07,1,1,0,0,0-.91-1.41c-.63-.08-1.56-.12-1.88.24-2.71,3.08-5.31,6.25-8,9.37-.1.12-.45,0-.68,0a6,6,0,0,1,1.61-4.45c1.13-1.16,2.31-2.27,3.36-3.5a3.17,3.17,0,0,0,.74-1.86,21.76,21.76,0,0,0-.41-3.4c0-.18-.25-.44-.41-.45-.43,0-1.09-.14-1.28.1-1,1.22-1.82,2.63-2.89,3.81a14.71,14.71,0,0,0-3.52,6.67,32,32,0,0,1-3.2,7.64,10.66,10.66,0,0,0-.74,2.6.67.67,0,0,0,.21.59,1,1,0,0,0,.67-.08c.61-.26,1.22-.56,1.82-.84a3.63,3.63,0,0,1,.39,1.24,4.41,4.41,0,0,1-.46,2c-1.61,2.66-3.3,5.26-5,7.87-.1.14-.41.15-.63.22l-.36-2c-.12-.66-.06-1.39-.76-1.82a3.31,3.31,0,0,1-1.62-2.84c-.37-6.93-.86-13.85-.41-20.8a35.31,35.31,0,0,0-.66-11,24.2,24.2,0,0,1-.48-4.83c-.18-3.68-.78-7.36-.27-11.06a163.79,163.79,0,0,1-1.54-18.64c-.2-4.61-.95-9.2-1-13.81a74.72,74.72,0,0,0-1.43-11.67c0-.19-.27-.34-.41-.51-.6-.71-.64.77-.41-.13a3.11,3.11,0,0,0-.16.67c-.18,3.47-.34,7,.7,10.32a13.82,13.82,0,0,1,.51,6.15,195,195,0,0,0-1.44,22.15,7.86,7.86,0,0,1-1.39-5.25,132.73,132.73,0,0,1,.4-13.82,40,40,0,0,0-.09-7.58c-.4-5.75-1.13-11.47-1.68-17.21a10.92,10.92,0,0,1,0-3.42,10.12,10.12,0,0,0-.59-6.08c-.66-1.71-1.12-3.51-1.79-5.21a10,10,0,0,1-.39-5.45l.06,0c.36.21,1,.36,1,.65.38,1.31.58,2.67.91,4,.23.9,1.53,2.35,1.61,2.06a7,7,0,0,0,.28-1.79,14.21,14.21,0,0,0-.23-3.4,50.62,50.62,0,0,1-1.42-11.49A12,12,0,0,0,120.32,43.17ZM227.86,242.22c.07.4.07,1.12.22,1.15.9.21.88-.55,1-1.13.36-.63.3-1.21-.38-1.52-.1-.05-.55.53-.77.86C227.83,241.74,227.88,242,227.86,242.22ZM163.47,137.67c0-.93-.26.43.57,0l-.49.07a2.49,2.49,0,0,0-1.14,3c-.68-.1-1.36-.2-.86.86l.77-1A2.07,2.07,0,0,0,163.47,137.67Zm60.79,177.71c-.2.34-.53.66-.57,1s.23.66.36,1a6,6,0,0,0,.81-.68c.12-.14.11-.38.16-.58a1.56,1.56,0,0,0,1-1.47.93.93,0,0,0-.16-.58c-.22-.32-.56-.23-.91.24S224.49,315,224.26,315.38ZM169.88,135.77c.48-.47,1-1,1.42-1.43.86-.72,1.84-1.38,2-2.61,0-.35-.26-.75-.47-1.09,0,0-.39,0-.57.12a3.73,3.73,0,0,0-1.86,2.65,1.7,1.7,0,0,0-1.3,1.48,2.26,2.26,0,0,0-1.19,3c-.48-.19-.85-.07-.88.36,0,.19.31.41.48.61l.34-1C169.18,137.83,169.26,136.53,169.88,135.77Zm14.72-17.38a2.31,2.31,0,0,0-.61.21c-.1.06-.11.26-.15.4.4.11.62-.13.67-.7,1.34.06,1.75-1.11,2.42-1.9.26-.31-.08-.56-.68-.64s-1.35-.18-1.53.68A14,14,0,0,0,184.6,118.39Zm-27.69,29.39c.59-.29,1.05-.8.57-1.35s-1,.1-1.45.37c-2.44,1.45-2.55,1.67-1.77,3.65.19.47.56.54,1.09.23A3.29,3.29,0,0,0,156.91,147.78Zm1,3.86c-.87.23-1.18.63-.39,1.36.23-.36.47-.71.7-1.06,2.8-1.36,3.6-3.94,4.09-6.7,0-.19-.16-.42-.25-.63a1.42,1.42,0,0,0,.61.14c.13,0,.22-.27.33-.42l-.86.39C159.49,146.24,158.34,148.71,158,151.64Zm37.58,106.05c1.67,6.13,5.53,11.13,8.51,16.59.08.15.4.23.62.24a.49.49,0,0,0,.37-.3,7.48,7.48,0,0,0-.68-5.36c-1.39-2.4-2.69-4.85-3.95-7.32a11.23,11.23,0,0,0-4.11-4.58c-.38-.39-.82-1.07-1.35-.53S194.94,257.44,195.53,257.69Zm9.42-.39c-1.06,4.72.62,8.48,2.73,12.12.1.17.41.39.51.34.38-.17,1-.4,1-.7a34.76,34.76,0,0,0,.66-9.61,33.92,33.92,0,0,1-.11-7.6,16.48,16.48,0,0,0-.34-6.16,34.33,34.33,0,0,1-.75-11.68,22.19,22.19,0,0,0-1-8.89c-1.13-3.49-1.93-7.13-4.2-10.17a15.39,15.39,0,0,1-1.07-2.52c-1.43-2.89-2.85-5.78-4.34-8.64a23.12,23.12,0,0,0-5.54-7,56.27,56.27,0,0,1-5-4.72,4.09,4.09,0,0,0-1.72-1.08,4.74,4.74,0,0,0-1.95,0c-.55.07-.64,1-.13,1.76q1.77,2.55,3.62,5.07c1.77,2.42,3.57,4.82,5.37,7.22a7.51,7.51,0,0,1,1.81,5.11,10.8,10.8,0,0,0,1.7,5.91A24,24,0,0,0,198,219a24.31,24.31,0,0,1,4.24,9.39c.34,1.58.91,3.11,1.23,4.69a40.37,40.37,0,0,1,.8,5.46c.14,2.29-.52,4.69.44,6.86,1.18,2.63-.32,5-.34,7.46a16.14,16.14,0,0,0,.27,2.06C204.79,255.8,204.88,256.71,205,257.3ZM257.69,287c-.21-.38-.34-1-.63-1.1-4.36-1.27-10.57-.24-13.88,2.38-4,3.16-7.9,6.41-11.84,9.64a21.42,21.42,0,0,0-2,1.92,15.79,15.79,0,0,0-4.1,7.88.94.94,0,0,0,.22.64.47.47,0,0,0,.46.09c2.06-1.85,4.13-3.68,6.14-5.59,4-3.83,8.08-7.65,13.41-9.69,1.29-.5,2.56-1.05,3.87-1.5a34.79,34.79,0,0,0,8-4.09C257.49,287.43,257.56,287.17,257.69,287ZM211,283.59h0c0-2.52,0-5,0-7.57a.73.73,0,0,0-.28-.51c-.18-.13-.51-.28-.63-.21-2.13,1.36-2.77,2.52-2.26,4.4a78.68,78.68,0,0,1,2.26,12.18c0,.2.65,1.44.88,0a4,4,0,0,0,0-.69Zm-68.06-17.2c0,.17.07-.1,0-.28a3,3,0,0,0-.69-.91.7.7,0,0,0-.64.17c-1.13,1.46-2.31,2.94-2.58,4.82a3.37,3.37,0,0,0,.63,1.85,1,1,0,0,0,1.64-.07A8.91,8.91,0,0,0,142.92,266.39Zm50.56-152.32a3.55,3.55,0,0,0,1.67-.85c.16-.15,0-.89-.26-1.21a1.4,1.4,0,0,0-1.81-.27,1.12,1.12,0,0,0-.63,1.61C192.68,113.69,193.18,114.12,193.48,114.07ZM128.72,285c0,1.47-.05,2.36,0,3.24,0,.22.48.42.78.57a.87.87,0,0,0,.38-.5c.06-1.76.1-3.53.08-5.3,0-.21-.45-.42-.68-.62-.14.17-.36.34-.39.53C128.81,283.77,128.75,284.66,128.72,285Zm53-169.14c-.11-.4-.09-1-.35-1.2-.81-.7-.93.32-1.23.67a5.14,5.14,0,0,0-1,1.66,1.19,1.19,0,0,0,.31,1.06,1.35,1.35,0,0,0,1.16,0A2.18,2.18,0,0,0,181.69,115.83Zm-57.41-36.1c0-1.37,0-2.46,0-3.54a2.17,2.17,0,0,0-.19-.63c-.13.24-.38.49-.36.72C123.78,77.34,123.43,78.47,124.28,79.73Zm50,50.12a2.16,2.16,0,0,0,1.71-2.53c0-.29-.56-.77-.77-.72a2.15,2.15,0,0,0-1.72,2.49C173.53,129.37,174,129.61,174.28,129.85ZM203.84,284.4c.11,1.36-.18,2.56.79,3.46.17.16.45.46.51.42a4.73,4.73,0,0,0,1.05-.84.89.89,0,0,0,0-.67,27.34,27.34,0,0,0-.69-2.66,5.77,5.77,0,0,0-.72-1.17Zm8.87,15.48c.14.42.31.95.48,1.48.11-.19.31-.38.3-.56-.05-.62-.17-1.23-.26-1.84ZM181.3,121.74c-.36-.2-.85-.64-1.06-.54a7.84,7.84,0,0,0-1.51,1.26c-.49.46-.42.83.2,1.07a1.1,1.1,0,0,0,.58.12C180.54,123.43,180.91,122.56,181.3,121.74Zm40.3,188a1.71,1.71,0,0,0,.31-.53,5.81,5.81,0,0,0,0-1.25c0-.18-.22-.35-.33-.53-.15.15-.41.3-.42.46a15.62,15.62,0,0,0,0,1.81A2.05,2.05,0,0,0,221.6,309.77ZM166,141.13l-.4-.42-.39.43.59.43Zm28.29,121.21c-.17-.15-.34-.41-.46-.39a4.22,4.22,0,0,0-.88.37c.13.14.3.42.41.4A4.35,4.35,0,0,0,194.32,262.34Z"/><path d="M93.76,12.59c.47-.48.91-1,1.42-1.41a.66.66,0,0,1,.64,0c.28.28.75.79.67,1-1.94,4-1.37,8.2-.58,12.26.67,3.41,1.69,6.72,1.63,10.25A9.34,9.34,0,0,0,98.38,38a19.13,19.13,0,0,1,.82,9.58c-.41,3-.6,6-.85,9a15.85,15.85,0,0,0,1.21,8.15,40.47,40.47,0,0,1,1.54,3.87,9.34,9.34,0,0,1,.84,3.34c-.27,4.42.84,8.75.51,13.18a59.58,59.58,0,0,0,.24,8.33,71.74,71.74,0,0,1-.22,15.91,7.18,7.18,0,0,0-.14,1.38c.14,7.4-.34,14.78-.64,22.17a1.16,1.16,0,0,0,.17.67c.27.34.58.8,1,.88a1.5,1.5,0,0,0,1.23-.42,3.74,3.74,0,0,0,1-1.77c.79-6,1.47-11.94,2.22-17.91.38-3-.62-6,.25-9-.19-5.79.51-11.55.64-17.32a24.42,24.42,0,0,0-1.36-9.55,16.54,16.54,0,0,1-1.06-5.44c-.17-5.58-1.84-10.94-2.26-16.46S102.8,45.55,102.5,40a15.8,15.8,0,0,0-.19-3.46c-1.48-5-1.27-10.07-1.37-15.14-.06-3.22,0-6.46,1.18-9.55.21-.53.55-.76,1.1-.57a.56.56,0,0,1,.27.42c0,.93-.1,1.85-.18,2.77-.18,2.08-.44,4.15-.57,6.23a41.49,41.49,0,0,0,.68,10.36,117.92,117.92,0,0,1,1.76,20,56.34,56.34,0,0,0,1.19,11.71c.85,3.83,1.79,7.69,1.58,11.68a10.1,10.1,0,0,0,1.56,5.26,2.35,2.35,0,0,0,1,.78c.37.19,1-.66,1.1-1.38s.2-1.38.21-2.07c.06-3.94,0-7.87.15-11.8a77.16,77.16,0,0,0-2.72-20.52c-.4-1.33-.76-2.67-1.14-4a13,13,0,0,1-.37-5.48,16.5,16.5,0,0,0,0-5.52,18.16,18.16,0,0,1-.12-8.85,6.69,6.69,0,0,0-.48-4.09,13.52,13.52,0,0,1-.94-6.77,1.06,1.06,0,0,1,.35-.57c.5-.41.89-.37,1,.11.39,1.32.67,2.68,1.14,4a16.83,16.83,0,0,1,1,8.19,19.41,19.41,0,0,0,.23,7.59,7.3,7.3,0,0,1,.17,2.75c-.67,4.71.33,9.21,1.51,13.71a27.53,27.53,0,0,1,.7,3.39A170.35,170.35,0,0,1,114,74.81a118.74,118.74,0,0,0,1.51,18.67c1,7.33,2.35,14.63,3.08,22,.67,6.66.72,13.39,1,20.1a15.71,15.71,0,0,0,0,2.06c1.23,7.12,1,14.33,1.41,21.49a13.16,13.16,0,0,1,0,2.08c-.66,7.45.49,14.8,1.3,22.15a28.69,28.69,0,0,1,0,6.93c-1,7.57-1.87,15.16-2.8,22.74a29.65,29.65,0,0,0-.11,6.92,38.42,38.42,0,0,1-.24,11.07,32,32,0,0,0-.16,9c.56,5.53.94,11.08,1.38,16.62a148.19,148.19,0,0,1,.41,18.73,27.72,27.72,0,0,0,.44,5.52c.55,3.42,1.07,6.87,1.89,10.24,1.78,7.23,1.76,14.69,2.94,22,.37,2.28,1.37,4.58.89,6.83-.6,2.85.45,5.45.49,8.18,0,2.54.31,5.07.47,7.6l-1.82-.35a22.44,22.44,0,0,0,0-4.85,37.06,37.06,0,0,1-.33-10.35,11,11,0,0,0-.36-4.11A71.14,71.14,0,0,1,123,301.77a119.07,119.07,0,0,0-3.07-18.44,34.2,34.2,0,0,1-.86-9c.07-6,.09-12-.09-18a56.26,56.26,0,0,0-1.06-8.25,18.86,18.86,0,0,1-.37-6.21,43.55,43.55,0,0,0,.28-8.31c-.09-2.75.55-5.52.57-8.29,0-2.53-.44-5.07-.5-7.61a44.61,44.61,0,0,1,.34-5.53c.3-3,.8-6,1-9,.26-4.84,1.07-9.63,1.08-14.49s0-9.71-.45-14.57c-.42-4.36-.4-8.76-.44-13.15-.06-6.23-.06-12.51-1.1-18.7a21.11,21.11,0,0,1-.24-3.46c0-5.55,0-11.1.06-16.65a17.73,17.73,0,0,0-.88-6.15,17.06,17.06,0,0,1-1.11-7.48,3.73,3.73,0,0,0-.16-2c-1.53-2.56-1-5.4-1.36-8.13-.36-3.21-.87-6.41-1.44-9.59-.36-2-.92-4-1.42-6,0-.17-.39-.44-.52-.4a1.93,1.93,0,0,0-1,.56,2.57,2.57,0,0,0-.35,1.29q-.47,11.1-.9,22.22c0,.23,0,.46,0,.69a68.4,68.4,0,0,1-.68,15.9c-.94,5-1.21,10.09-2.47,15a16.93,16.93,0,0,0-.3,4.83c.27,6.47.58,12.94,1,19.4.18,2.77.74,5.51.92,8.27.35,5.32.72,10.64.79,16,.07,5.09.59,10.18.07,15.27a12.33,12.33,0,0,0,.11,4.16c1,4.11.74,8.28.87,12.44a32.78,32.78,0,0,0,.79,6.88,27.77,27.77,0,0,1,.58,6.19c.13,8.34.16,16.67.27,25a16,16,0,0,0,.5,2.7,3.33,3.33,0,0,1-1.77-2.8c0-3.46-.35-6.9-.19-10.38.25-5.3,0-10.62,0-15.93a9.23,9.23,0,0,0-.31-3.43c-1.16-2.67-.84-5.43-1-8.19-.16-3.67.4-7.41-1.11-10.95a3.7,3.7,0,0,1-.1-1.38c0-8.32-.67-16.62-.46-25a25.62,25.62,0,0,0-.55-7.55,30.23,30.23,0,0,1-.83-6.83,36.75,36.75,0,0,1,.12-5.55c.2-2.18-1.14-4-1.28-6.06-.08-1.16-.22-2.31-.28-3.46-.06-1.39,0-2.78-.11-4.16-.05-.92-.23-1.83-.32-2.74-.06-.64-.39-.9-1-.6-.34.19-.83.55-.83.84,0,4.38,0,8.76,0,13.15a12.61,12.61,0,0,1-.36,2,2.17,2.17,0,0,1-1.51-2.06c-.08-3.9-.17-7.8-.1-11.69a4.79,4.79,0,0,0-1.79-4.19,2.7,2.7,0,0,1-.86-3.09c2.24-.21,2.71-.54,2.79-2.07s.12-2.77.13-4.16a51.52,51.52,0,0,1,.94-10.29,26.18,26.18,0,0,0,.31-3.43,315.31,315.31,0,0,0,0-31.79,50.37,50.37,0,0,1,.14-9.67A13.94,13.94,0,0,0,98.6,67.27a3.87,3.87,0,0,1-.81-1.86c-.3-4.33-2-8.61-.5-13a3.44,3.44,0,0,0,.08-2c-.66-2.07-.14-4.14-.21-6.2-.07-2.51.3-5.09-1.2-7.41a3.48,3.48,0,0,1-.36-2c.22-4-1-7.75-1.95-11.51-.58-2.29-1.2-4.25-.05-6.58C94.15,15.54,93.74,14,93.76,12.59Z"/><path d="M53,105.21c-2.25-1-2.85-3.64-4.82-4.91-1.74-1.12-3.75-1.92-5.3-3.26-2.29-2-4.69-3.75-7.13-5.5a16.22,16.22,0,0,1-3.4-3.47c-3-3.92-7.29-5.61-11.6-7.25A4.59,4.59,0,0,0,16.2,82c-.74.64-1.53,1.13-2.48.66a5.63,5.63,0,0,0-4.06-.12c-2,.49-4,1-6.09,1.42a15.61,15.61,0,0,1-2.06.18C1,84.16-.14,83.3,0,82.9a3.31,3.31,0,0,1,1-1.7,36,36,0,0,1,3.8-1.69,18.55,18.55,0,0,1,8-2.05,3.28,3.28,0,0,0,2-.47c2.53-2.08,5.56-2.06,8.55-2.31a4.32,4.32,0,0,0,.66-.23c.7-.18,1.58-1.6,1.25-2.21a17.31,17.31,0,0,1-1.9-11.38,16.44,16.44,0,0,0-.28-2.75c0-2.74-1.43-5.37-.5-8.22.24-.72-.42-1.74-.68-2.62-.65-2.27-1.06-4.68-.14-6.83,1.29-3,1-5.86.26-8.82a3.94,3.94,0,0,1,0-.69c-.05-.78,1.16-1.67,2-1.45,1.12.29,2.22.64,3.34.93a3.47,3.47,0,0,1,2.74,2.81C31,38,32.85,42.55,33.26,47.44a15.57,15.57,0,0,0,1,3.32,21.63,21.63,0,0,1,.71,11c-.13.68-.31,1.36-.38,2.05a14.33,14.33,0,0,0,1.49,8,23.55,23.55,0,0,0,7.28,9.11c5,3.54,8.83,8.17,13.09,12.41a24.14,24.14,0,0,0,4.25,3.5A77.09,77.09,0,0,1,71.9,105c3.78,3.4,8.07,6.24,11.72,9.76a102.37,102.37,0,0,0,8,6.6,2.82,2.82,0,0,0,1.21.63,1.86,1.86,0,0,0,1.3-.21,2.49,2.49,0,0,0,.64-1.15,1,1,0,0,0-.07-.68c-1.76-3.28-1.86-7.12-3.51-10.45a9.09,9.09,0,0,0-1.71-5.18,7.29,7.29,0,0,1-1.12-4c-.16-3.23-.58-6.45-.68-9.68-.11-3.43-.16-6.86-.45-10.29-.27-3.21.06-6.46-.1-9.69a138.28,138.28,0,0,1-.39-14.54c.19-3.23.27-6.46.44-9.68.15-2.77.56-5.54.46-8.3a51.28,51.28,0,0,0-1.09-10.29,35.77,35.77,0,0,1-.93-9.6c.09-2.77-.15-5.55-.11-8.32,0-1,.63-1.63,1.84-1.26.26.08.77-.28,1-.57.5-.67.61-2,1.86-1.33.94.5.76,1.58.48,2.46A6.37,6.37,0,0,0,91.2,14,12,12,0,0,0,91.05,16a108.92,108.92,0,0,1,.48,13.15,9.59,9.59,0,0,0,.11,2.07c1.13,6.37,1.59,12.82,2.2,19.25a13.59,13.59,0,0,0,.84,4A6.62,6.62,0,0,1,95,59.25a33,33,0,0,0-1.15,11c.17,5.08.22,10.16.35,15.24a16.82,16.82,0,0,0,.33,2.73c.59,2.94,1.31,5.86,1.83,8.81a15.9,15.9,0,0,1,.36,4.8,36.06,36.06,0,0,0,1.11,13.68,13.35,13.35,0,0,1,.52,4.1c-.25,3.68-.15,7.35-.1,11a1.48,1.48,0,0,1-1.17,1.52,7.7,7.7,0,0,1-2-.11,1.14,1.14,0,0,1-.58-.35c-3.37-3.47-6.83-6.86-10-10.47a7.6,7.6,0,0,0-3.88-2.67,4.19,4.19,0,0,1-2.59-2.1c-1.54-2.47-4-3.72-6.54-4.88a2.16,2.16,0,0,0-1.35-.14,1.47,1.47,0,0,0-1,.8,10,10,0,0,0-.13,2.06c-2.61-2.92-6.35-4.39-9.13-7.1-.12-.11-.45,0-.68,0l.08.09c.13-1.13-.42-1.57-1.5-1.49l.12.11a9,9,0,0,0-.71-1.9c-.87-1.36-1.87-2.64-2.8-4a1,1,0,0,1,.79-1.47,10.25,10.25,0,0,1,1.37-.15c-.25-.6-.35-1.36-.79-1.76-.62-.6-1.46-1.17-2.37-.34a1.61,1.61,0,0,0,.23-1.88c-1.43-2.46-3.69-4-6-5.63-.09-.06-.38.09-.51.21s-.36.38-.34.55a4.44,4.44,0,0,0,1.71,2.93c1.61,1.3,3.32,2.49,5,3.73.23.61.69,1.21,0,1.83a1.41,1.41,0,0,1-1.82.09c-1.17-.69-2.27-1.52-3.4-2.29a1.76,1.76,0,0,0-1.49-1.27c-1.71-2.43-3.46-4.71-6.61-5.55-1.72-.45-2.59-2.6-4.6-2.75-.25-.33-.43-.79-.76-1a1.44,1.44,0,0,0-1.15,0c-.35.16-.19.57.3.89l1.09.69a8.44,8.44,0,0,0,1.52,2.16A77,77,0,0,0,46,95.56l1.62,1.08c2.56,2.11,5.13,4.21,6.66,7.27C53.83,104.34,53.39,104.77,53,105.21ZM37.87,81.3l1.37,1.49,1.32,1.45,1,1.45c.89.6,1.75,1.26,2.69,1.79a1.5,1.5,0,0,0,1.12-.12c.47-.2.4-1.18-.2-1.59A23.3,23.3,0,0,0,43,84.52c-.57-.36-1.13-.73-1.69-1.1a1.56,1.56,0,0,0-1.41-1.37,1.59,1.59,0,0,0-1.35-1.45c-.25-.66-.79-1.26-1.36-.67S37.41,80.94,37.87,81.3Zm29.25,25.06c.45.5,1.13,1,1.6.43s-.37-.94-.88-1.21a1.74,1.74,0,0,0-1.46-1.3l-2.1-2.08a18.24,18.24,0,0,0-2-1.66,1.27,1.27,0,0,0-1.16.2,1.08,1.08,0,0,0-.05,1.06,17.76,17.76,0,0,0,2.08,1.54l2.31,1.9ZM33.06,80.52c0-.86-1-1.63-.26-2.57a5.63,5.63,0,0,0,.68.17c.62.07,1.26.53,1.84-.08a1.74,1.74,0,0,0,.22-2,37.44,37.44,0,0,0-1.76-3.74,11.56,11.56,0,0,1-1.32-8c.33-1.58.5-3.2.71-4.8a11.56,11.56,0,0,0-.55-6.15,31.16,31.16,0,0,1-1.83-7.35,28.4,28.4,0,0,0-1.22-3.94c-.18-.54-.57-.62-1.09-.27-.18.12-.48.2-.52.36a16.36,16.36,0,0,0-.6,2.65c-.15,1.35.78,2.7,0,4.05-.43-.49-1.08-.91-1.26-1.48-.86-2.68-.24-5.44-.27-8.17,0-.12-.25-.36-.32-.34s-.53.19-.57.35c-.61,2.62-2,5.17-.48,8a4.55,4.55,0,0,1,.14,2c0,3.2-.16,6.41,1.22,9.46a4.91,4.91,0,0,1,.19,2c0,1.14-.12,2.29-.14,3.44a13.16,13.16,0,0,0,.1,2.74,5.68,5.68,0,0,0,.9,1.57,5.47,5.47,0,0,0,.63-1.89c-.09-2.06-.66-4.14-.46-6.16.4-3.9,0-7.8.22-11.7.34.29.94.54,1,.86a58.2,58.2,0,0,1,.56,6.17c.06,3,0,6-.1,9-.07,3.48,1.6,6.68,1.63,10.15,0,.37.44.78.74,1.11.6.69,1.24,1.34,1.86,2a4.27,4.27,0,0,1-4.3-1c-.37-.32-.65-.59-1.16-.39s-1,.25-1.14.55a1.31,1.31,0,0,0,.21,1.21,9,9,0,0,0,5.92,2.69c.32.57.89,1.13,1.39.56S33.57,80.76,33.06,80.52Zm57.41-43.1c-.46,5.31-.93,10.6-1.36,15.9-.38,4.84-.74,9.66.25,14.51a35.67,35.67,0,0,1,.36,6.22c.21,7.16.29,14.33.64,21.49a21.23,21.23,0,0,0,2.5,10c.09.16.36.24.57.31.42.14.57-.15.74-.74a18.19,18.19,0,0,0,.34-6.89,37.12,37.12,0,0,0-1.14-6.81,26.75,26.75,0,0,1-.85-8.9c.21-4.14.7-8.29-.59-12.37a7.06,7.06,0,0,1,0-2.75c.19-1.84.4-3.68.74-5.49.81-4.38.29-8.76.15-13.14C91,45.58,91.44,42,91,38.62A5.1,5.1,0,0,0,90.47,37.42ZM89.8,21.1h0c0-1.82,0-3.63,0-5.45,0-.32-.48-.64-.74-1-.13.18-.36.34-.4.54A29.76,29.76,0,0,0,88.7,26c0,.2.26.37.39.55.24-.23.67-.46.68-.7C89.83,24.27,89.8,22.69,89.8,21.1Z"/><path d="M96.13,363.5C95,363.47,94,363,94,362.4c-.09-4.17-.21-8.34-.21-12.5s.51-8.3.3-12.46a8.16,8.16,0,0,1,.4-2.72,27,27,0,0,0,.66-9c-.2-4.84-.26-9.68-.12-14.51a24.18,24.18,0,0,1,1.4-8.18,10,10,0,0,0,.25-5.48c-.86-4.78-2-9.52-2-14.42-.94-2.7-.44-5.51-.62-8.27a10.08,10.08,0,0,0-4.62-8.12,119.15,119.15,0,0,1-12-9.39,104.83,104.83,0,0,0-8.83-6.68C65,248.2,61.42,245.73,58,243a2.61,2.61,0,0,1-.57-1.22c-.15-.45.58-1.2,1.31-1.34a9.62,9.62,0,0,1,5.42,0c3.06,1.11,6.16,2,8.76,4.09a8.56,8.56,0,0,0,3.77,1.63c1.35.26,2.63.87,4,1.18a14.62,14.62,0,0,1,7,4.32c1.79,1.79,3.7,3.48,5.6,5.16a1.68,1.68,0,0,0,1.26.28c.91-.18.75-1,.69-1.62a12.83,12.83,0,0,0-.64-3.34,8.35,8.35,0,0,1-.8-3.33,23.51,23.51,0,0,0-1.15-8.88,11.54,11.54,0,0,1-.45-3.43,151.1,151.1,0,0,1,.35-16.62c.17-2.32.2-4.6.14-6.92a53.54,53.54,0,0,1,.79-13.11c.68-3.12.39-6.45.54-9.69.09-1.85.32-3.71.23-5.55a20.13,20.13,0,0,0-.87-6.14,17.56,17.56,0,0,1-1-6.09,36,36,0,0,0-.79-8.25c-.6-2.41-.31-5-.35-7.59,0-1.15.16-2.3.18-3.46a16.86,16.86,0,0,0-3.32-10.33c-1.6-2.26-3.3-4.46-4.75-6.82s-3-4.65-5.89-5.57a2.58,2.58,0,0,1-1.16-.74c-2.14-2.56-5-4.09-7.88-5.53a8.6,8.6,0,0,1-2.11-1.76c-.8-.82-1.35-2-2.3-2.56-3.5-1.88-4.79-5.49-6.92-8.43a48.42,48.42,0,0,1-2.75-4.8l1.29-1.32,2.32.65-.12-.11c.08,1.72.08,1.72,1.5,1.49l-.08-.09c-.45.53-.79,1.12-.38,1.8a50.83,50.83,0,0,0,4.33,6.91,67.46,67.46,0,0,0,6.51,6c3.66,1.45,6.38,4.29,9.58,6.42a11.69,11.69,0,0,0,2.43,1.2,3.34,3.34,0,0,0,1.32-.08,3.38,3.38,0,0,0,0,1.14c.08.26.45.42.7.63,0-.34.25-.76.12-1s-.6-.46-.92-.68c-.14-1-1-1.37-1.68-1.91a11.09,11.09,0,0,1-3.92-5.12c.41-.14.87-.46,1.23-.37a4.73,4.73,0,0,1,2.89,1.73A44.91,44.91,0,0,0,92,134.6a4.06,4.06,0,0,1,2.16,3.29c-1.32.94-1.68,1.62-1.23,2.48.71,1.35,1.55,2.63,2.18,4,.42.92,0,1.65-1,1.86l-.41-1c-.14.21-.42.45-.39.65.06.43.43.51.89.26.25.62.32,1.45.77,1.81A5.54,5.54,0,0,1,97,153.27c-.83.1-1.19-.48-1.55-1.07a4.61,4.61,0,0,0-.4-.5c-.28.31-.79.61-.8.93-.25,5.33.08,10.64.31,16a43,43,0,0,0,1.43,8.85c0,.17.36.27.55.4.08-.16.22-.33.21-.49-.08-2.77-.39-5.55-.22-8.3a66.79,66.79,0,0,0,.16-7.62c-.14-2.75.12-5.52.2-8.28.61.29,1.32.51,1.38,1.33a19,19,0,0,1,.16,3.44,90.47,90.47,0,0,0-.11,13.17c.08,2.07.54,4.13.56,6.19,0,2.29-.33,4.59-.38,6.88a20,20,0,0,0,.4,3.43c1.08,7.31,2.2,14.58,2.05,22-.08,4.37.11,8.76-.16,13.15a34.15,34.15,0,0,0,.21,4.84,4.72,4.72,0,0,0,.5,1.28c.35.86-.3-.07.6.15.35.09,1.07-.06,1.14-.25a11.89,11.89,0,0,0,.72-3.34c0-3.69-.1-7.39-.18-11.09,1.32,1.26,1.29,2.95,1.29,4.54,0,6,.3,12,.1,18-.27,8.09,0,16.21,0,24.32a11.88,11.88,0,0,1-.27,2.73c-.08.3-.72.47-1.11.7q-.11-12.93-.22-25.85c1.1-2.25.25-4.53,0-6.79-.12-1.36-1-1.94-2.29-2.1-.4-.06-1.06-.21-1.12-.44-.63-2.42-1.63-4.77-1.08-7.39a25.05,25.05,0,0,0,.37-10.3,18.83,18.83,0,0,1,0-6.78,10.67,10.67,0,0,0-.14-4.78,30,30,0,0,1-1.25-8.85c0-.29-.31-.57-.48-.85a4.64,4.64,0,0,0-.69,1.13,22.29,22.29,0,0,0-1.07,4.68c-.23,5.75-.41,11.51-.36,17.26A70.2,70.2,0,0,1,94.64,226a30.61,30.61,0,0,0-.33,9c.37,3,.94,5.91,1.42,8.87.13.83.71,1.15,1.37.76s1.57-1,2.35-1.45c-1.61,4-1.27,8.11-1.18,12.24,0,1.83.49,3.73.13,5.47a12.32,12.32,0,0,0,1.21,9.27c.2.33,0,.89,0,1.35l.08-.08a4.45,4.45,0,0,1-1.18-.31A15.4,15.4,0,0,1,97,270c-.16-.44,0-1.2-.87-.88-.14.05-.11.66-.06,1,0,.15.27.27.42.4.14,2.77.33,5.55.4,8.32a56.19,56.19,0,0,0,1.24,11.71c.32,1.35.32,2.77.62,4.12.88,3.9,1.22,7.74-.55,11.52a9.45,9.45,0,0,0-.36,2c-1.1,4.8-.83,9.68-.56,14.5.46,8.13-.6,16.16-1,24.23A108.23,108.23,0,0,0,96.13,363.5ZM90,139.11c-.45-1.7-1.06-3.3-2.71-4.23-.3-.3-.65-.89-.9-.85-.54.09-.64.61-.34,1.11.12.19.27.37.4.55a5.09,5.09,0,0,0,1.93,3.11A1.46,1.46,0,0,0,90,139a5.8,5.8,0,0,0,.19.59c.08.2.19.39.28.58ZM66,245.27c.89,1.92,2.56,2.4,4.46,2.33.31,0,.62-.41.86-.68,0-.06-.16-.4-.31-.57a6,6,0,0,0-4.14-2,1.69,1.69,0,0,0-.53-.28c-.53-.1-1.17-.25-1.23.52C65,244.78,65.64,245,66,245.27Zm22.47,15.12c-.29-.59-.43-1.42-.9-1.71-1.36-.84-2.85-1.46-4.28-2.16-.51-.25-1-.18-1.17.31a1.32,1.32,0,0,0,.19,1.15c1.8,1.52,3.79,2.63,6.28,2.29l.36,1,.55-.51ZM86.2,254.1c-2.08-3.47-5.4-4.68-9.17-5.06a1.31,1.31,0,0,0-.63.21c-.17.09-.42.21-.45.36a.89.89,0,0,0,.16.65c1.64,2,4,2.89,6.22,4a12.21,12.21,0,0,0,3.32.59,5.77,5.77,0,0,0,.93.92.77.77,0,0,0,1.15-.4c0-.09-.24-.36-.41-.49C87,254.59,86.58,254.35,86.2,254.1Zm6.88,11.5c0,.88.64,1.19,1.24,1.48a.68.68,0,0,0,.53-.09.71.71,0,0,0,.08-1.13c-.4-.51-.86-1-1.58-.66C93.2,265.26,93.13,265.52,93.08,265.6ZM73.84,248.89c.58-.15.62-.38.06-.62-.09,0-.3.17-.45.26Z"/><path class="cls-1" d="M103.73,264.7c.39-.23,1-.4,1.11-.7a11.88,11.88,0,0,0,.27-2.73c0-8.11-.26-16.23,0-24.32.2-6-.1-12-.1-18,0-1.59,0-3.28-1.29-4.54l.1.12c0-2.71.06-5.41.06-8.12,0-3.38,0-6.76-.06-10.14l-.07.16c.35-.56,1-1.09,1-1.67q.36-4,.45-8.13c0-2.48-.09-5-.08-7.46,0-3.31-.35-4.88-2.21-9-.08-.17-.38-.25-.57-.36l.07.15c0-2.23.09-4.46.06-6.69a9.69,9.69,0,0,0-.42-2.62c-.09-.28-.72-.4-1.1-.59l.1.15a12.61,12.61,0,0,0,.36-2c0-4.39,0-8.77,0-13.15,0-.29.49-.65.83-.84.57-.3.9,0,1,.6.09.91.27,1.82.32,2.74.07,1.38,0,2.77.11,4.16.06,1.15.2,2.3.28,3.46.14,2.08,1.48,3.88,1.28,6.06a36.75,36.75,0,0,0-.12,5.55,30.23,30.23,0,0,0,.83,6.83,25.62,25.62,0,0,1,.55,7.55c-.21,8.33.48,16.63.46,25a3.7,3.7,0,0,0,.1,1.38c1.51,3.54,1,7.28,1.11,10.95.12,2.76-.2,5.52,1,8.19a9.23,9.23,0,0,1,.31,3.43c0,5.31.25,10.63,0,15.93-.16,3.48.18,6.92.19,10.38a3.33,3.33,0,0,0,1.77,2.8c1,.13,1.91.53,1.95,1.58.12,2.75.07,5.51.08,8.27-.41.5-1.1,1-1.19,1.53a102.89,102.89,0,0,0-1.34,25.4,58.76,58.76,0,0,1-.09,6.89c0,1.6-.3,3.22-.21,4.82a113,113,0,0,1-.86,20.64,81.32,81.32,0,0,0-.32,8.27c-.07,3.44-.08,6.89-.12,10.33l-3.52-.44c.23-3.91.45-7.81.71-11.72.13-1.83.22-3.67.52-5.47,1.16-7.09,1.6-14.14-.24-21.21a16.92,16.92,0,0,1-.23-4.1c0-4.37,0-8.75,0-13.12,0-.83-.77-1-1.38-1.3l.62-1.31c1-.05,1.8-.37,1.83-1.47a17.59,17.59,0,0,0-.21-3.32c-.06-.33-.6-.58-.92-.86a3.2,3.2,0,0,1-1.31-2.3c-.12-2,.19-4.24-.43-6.12A29.52,29.52,0,0,1,103.73,264.7Z"/><path class="cls-1" d="M94.11,137.89A4.06,4.06,0,0,0,92,134.6,44.91,44.91,0,0,1,81.4,123.84a4.73,4.73,0,0,0-2.89-1.73c-.36-.09-.82.23-1.23.37l.11.11c.6-1.53-1-2.26-1.28-3.47a3.87,3.87,0,0,0-2.67-2.69c-1-.37-2.07-.62-3.11-.92l.12.12c-.09-.92-.41-1.61-1.52-1.5l.1.14a10,10,0,0,1,.13-2.06,1.47,1.47,0,0,1,1-.8,2.16,2.16,0,0,1,1.35.14c2.53,1.16,5,2.41,6.54,4.88a4.19,4.19,0,0,0,2.59,2.1,7.6,7.6,0,0,1,3.88,2.67c3.21,3.61,6.67,7,10,10.47a1.14,1.14,0,0,0,.58.35,7.7,7.7,0,0,0,2,.11,1.48,1.48,0,0,0,1.17-1.52c0-3.68-.15-7.35.1-11a13.35,13.35,0,0,0-.52-4.1,36.06,36.06,0,0,1-1.11-13.68,15.9,15.9,0,0,0-.36-4.8c-.52-3-1.24-5.87-1.83-8.81a16.82,16.82,0,0,1-.33-2.73c-.13-5.08-.18-10.16-.35-15.24a33,33,0,0,1,1.15-11,6.62,6.62,0,0,0-.31-4.72,13.59,13.59,0,0,1-.84-4c-.61-6.43-1.07-12.88-2.2-19.25a9.59,9.59,0,0,1-.11-2.07A108.92,108.92,0,0,0,91.05,16,12,12,0,0,1,91.2,14l2.56-1.39c0,1.37.39,2.95-.16,4.06-1.15,2.33-.53,4.29.05,6.58,1,3.76,2.17,7.53,1.95,11.51a3.48,3.48,0,0,0,.36,2c1.5,2.32,1.13,4.9,1.2,7.41.07,2.06-.45,4.13.21,6.2a3.44,3.44,0,0,1-.08,2c-1.48,4.41.2,8.69.5,13a3.87,3.87,0,0,0,.81,1.86,13.94,13.94,0,0,1,2.47,10.48,50.37,50.37,0,0,0-.14,9.67,315.31,315.31,0,0,1,0,31.79,26.18,26.18,0,0,1-.31,3.43,51.52,51.52,0,0,0-.94,10.29c0,1.39,0,2.77-.13,4.16s-.55,1.86-2.79,2.07l.1.11c-.66-1.13-1.43-2-2.93-1.46Z"/><path d="M248.46,253.26a4.6,4.6,0,0,1,2.65-3,24.43,24.43,0,0,1,8-2.15c.69-.09,1.41.09,2.08-.05,8.17-1.64,16.14-.07,24.09,1.54,4.79,1,9.39,2.49,13.11,5.93.82.76,2.2.83,2.76,2,.14.3,0,1.08-.18,1.16a14.62,14.62,0,0,1-3.89,1.26,37.79,37.79,0,0,0-9.38,2.38,41,41,0,0,1-10.15,2.14,24.06,24.06,0,0,1-8.26-.84,31.12,31.12,0,0,0-9.64-.78c-5.27.35-9.81,2.6-14.26,5.05-2.89,1.58-4.73,4.36-6.49,7.1a2.8,2.8,0,0,1-.18-3.06c.7-1.33,1.5-2.61,2.26-3.92a3.88,3.88,0,0,0,.83-1.06c.1-.3-.17-.72-.28-1.08a1.42,1.42,0,0,0,1.75.35c.59-.28,1.18-.59,1.77-.89.79-.32,1.59-.63,2.37-1,.18-.08.31-.3.46-.45-.27-.22-.52-.6-.8-.62a3.15,3.15,0,0,0-2.93,1l-2.58.34a3.21,3.21,0,0,1,1.93-2.66,23.35,23.35,0,0,1,5.91-2c4.52-1,9.08-1.87,13.33-3.86a12.11,12.11,0,0,1,6.13-.84c3.23.22,6.48.15,9.72.26,1.62,0,3.24.14,4.85.34a4.4,4.4,0,0,1,1.87.78,1.34,1.34,0,0,1,.38,1.17c-.08.34-.62.86-.88.81-2-.34-4.05-1.1-6.09-1.15-4.39-.12-8.8.09-13.21.18a8,8,0,0,0-5.56,2.19c4.11.71,8.23,1.34,12.31,2.17a25.51,25.51,0,0,0,11.7-.59A114.49,114.49,0,0,0,295,257.32c.56-.21.46-1.19-.18-1.62a13.2,13.2,0,0,0-2.32-1.48c-8.25-3.42-17-4.3-25.79-4.81a17.71,17.71,0,0,0-3.45.39c-1.61.24-3.2.65-4.81.73a16.8,16.8,0,0,0-6.64,1.87c-1,.51-2,1.21-3.23,1Z"/><path d="M105.18,289.54c.61.28,1.38.47,1.38,1.3,0,4.37,0,8.75,0,13.12a16.92,16.92,0,0,0,.23,4.1c1.84,7.07,1.4,14.12.24,21.21-.3,1.8-.39,3.64-.52,5.47-.26,3.91-.48,7.81-.71,11.72-.26,2.73-.5,5.46-.79,8.18-.06.54-.51.74-1,.52a.74.74,0,0,1-.39-.54c0-3.66-.29-7.32.73-10.92a11,11,0,0,0,.28-3.43,3.8,3.8,0,0,0-.78-1.76c-.22-.33-1.12.33-1.37,1a16.64,16.64,0,0,0-1.3,6,22.27,22.27,0,0,1-1.07,6.76,50.06,50.06,0,0,0-1.55,12.26,1.2,1.2,0,0,1-.81.86c-.35,0-.71-.44-1-.74a1.93,1.93,0,0,1-.33-.6c-.1-.21-.19-.42-.28-.63a16.59,16.59,0,0,0,.74-6.14,6.35,6.35,0,0,1,.5-3.35,21.14,21.14,0,0,0,2.18-10,12.88,12.88,0,0,1,.53-3.4,10.82,10.82,0,0,0,.07-5.45,10.18,10.18,0,0,1,.27-6.12,5.15,5.15,0,0,0,.24-2.69,15.52,15.52,0,0,1,.08-5.48,15.34,15.34,0,0,0,.29-4.8c-.58-3.25-.16-6.4.17-9.6a43,43,0,0,0,0-4.82c0-2.07-.13-4.14-.09-6.2.12-6.89.34-13.77-1.14-20.57a21.78,21.78,0,0,1-.19-3.44l-.08.08c.77.05,1.44.49,1.44,1.18a40.56,40.56,0,0,0,1.08,7.53,12.18,12.18,0,0,1,.36,3.43c-.41,4.16,1,8.32-.08,12.47a3.23,3.23,0,0,0,.06,1.38c.87,4.15.51,8.28,0,12.43a36.2,36.2,0,0,0-.07,4.17c-.07,6,.27,12-.33,18.05a10.78,10.78,0,0,0,.3,2.75c0,.18.3.34.46.5s.38.44.49.41c.43-.14,1.15-.33,1.19-.59.44-3.2.85-6.41,1.15-9.63.52-5.53,1.44-11.05,0-16.59a12.09,12.09,0,0,1,0-2.76Q105.39,297.88,105.18,289.54Z"/><path class="cls-1" d="M133.11,185.12a5.19,5.19,0,0,0-1.25,0c-.58.16-1.3.88-1.51-.28s.1-2.37-.28-3.4c-.85-2.29-.52-4.5-.18-6.78a37.92,37.92,0,0,0,.36-4.13,5.89,5.89,0,0,0-.26-2.7c-1.4-2.81-1.16-5.83-1.48-8.79-.29-2.74-.5-5.5-.9-8.22a162.93,162.93,0,0,1-1.51-20.58c0-1.38,0-2.77-.11-4.14a6.43,6.43,0,0,0-1.44-3.81l0,.26A195,195,0,0,1,126,100.43a13.82,13.82,0,0,0-.51-6.15c-1-3.35-.88-6.85-.7-10.32a3.11,3.11,0,0,1,.16-.67c-.23.9-.19-.58.41.13.14.17.38.32.41.51a74.72,74.72,0,0,1,1.43,11.67c.07,4.61.82,9.2,1,13.81a163.79,163.79,0,0,0,1.54,18.64c-.51,3.7.09,7.38.27,11.06a24.2,24.2,0,0,0,.48,4.83,35.31,35.31,0,0,1,.66,11c-.45,6.95,0,13.87.41,20.8a3.31,3.31,0,0,0,1.62,2.84c.7.43.64,1.16.76,1.82l.36,2,.11-.14c-1.83.69-1.89.81-1.47,2.93Z"/><path class="cls-1" d="M99.68,271.41a21.78,21.78,0,0,0,.19,3.44c1.48,6.8,1.26,13.68,1.14,20.57,0,2.06.06,4.13.09,6.2a43,43,0,0,1,0,4.82c-.33,3.2-.75,6.35-.17,9.6a15.34,15.34,0,0,1-.29,4.8,15.52,15.52,0,0,0-.08,5.48,5.15,5.15,0,0,1-.24,2.69,10.18,10.18,0,0,0-.27,6.12,10.82,10.82,0,0,1-.07,5.45,12.88,12.88,0,0,0-.53,3.4,21.14,21.14,0,0,1-2.18,10,6.35,6.35,0,0,0-.5,3.35,16.59,16.59,0,0,1-.74,6.14l.11,0a108.23,108.23,0,0,1,.06-16.6c.45-8.07,1.51-16.1,1-24.23-.27-4.82-.54-9.7.56-14.5a9.45,9.45,0,0,1,.36-2c1.77-3.78,1.43-7.62.55-11.52-.3-1.35-.3-2.77-.62-4.12a56.19,56.19,0,0,1-1.24-11.71c-.07-2.77-.26-5.55-.4-8.32L97,270a15.4,15.4,0,0,0,1.54,1.15A4.45,4.45,0,0,0,99.68,271.41Z"/><path d="M176,250.75a3.28,3.28,0,0,1-1.35-.1c-3.37-2-7.06-3.31-10.2-5.7a44.68,44.68,0,0,0-4.17-2.39c-2.74-1.65-5.48-3.32-8.18-5.05-.26-.17-.35-.86-.25-1.23s.52-.85.83-.87c2.74-.14,5.47-.31,8.21-.67a9,9,0,0,1,7.61,2.25,15.19,15.19,0,0,0,8.63,3.89,17.27,17.27,0,0,1,9.88,4.53l5,4.68-1.12,1.08-2.27-.52a11,11,0,0,0-5.91-5.35c-1.64-.69-3.19-1.9-5.16-1.53-.2,0-.53.12-.54.23a.76.76,0,0,0,.2.63c.65.56,1.67.76,1.79,1.85-1.5.71-3,.07-4.49,0-.6,0-.87,0-.83.6,0,.2,0,.46.06.59.8,1,2.13,1.54,2.38,3Zm-5.47-5.68a1.66,1.66,0,0,0-1.45-1.25c-.2,0-.5-.07-.6,0-.45.48-.33.81.23,1a2.07,2.07,0,0,0,1.95,0c-.3.52-.22,1,.27,1,.22,0,.5-.27.76-.43Zm-5.77-6.94a16.58,16.58,0,0,0-2.15-1c-.31-.1-.76.28-1.15.44.24.35.42.91.75,1a13.13,13.13,0,0,0,2.51.5c.18,0,.4-.17.6-.26Zm9.33,5c0-.13-.06-.34-.15-.37a1.31,1.31,0,0,0-.62-.07c-.15,0-.28.18-.42.28Z"/><path d="M109.27,346.9c0-3.44,0-6.89.12-10.33a81.32,81.32,0,0,1,.32-8.27,113,113,0,0,0,.86-20.64c-.09-1.6.16-3.22.21-4.82a58.76,58.76,0,0,0,.09-6.89,102.89,102.89,0,0,1,1.34-25.4c.09-.56.78-1,1.19-1.53,0,1.85.1,3.7.12,5.56a30.85,30.85,0,0,1-.54,6.91,45.66,45.66,0,0,0-.73,12.46c.16,2.77,0,5.56,0,8.33,0,1.63-.2,3.26-.06,4.86.34,3.71.13,7.41.1,11.11a113.4,113.4,0,0,1-.85,13.15c-.53,4.35-.26,8.79-.3,13.19a15.38,15.38,0,0,1,.17,2.76c-1.15,5.77-.42,11.53-.1,17.29a.7.7,0,0,1-.33.54c-.53.29-.92.17-1.05-.31a10.1,10.1,0,0,1-.28-1.35,59.35,59.35,0,0,1-.4-13.84C109.23,348.76,109.23,347.83,109.27,346.9Z"/><path class="cls-1" d="M124.63,260.46a3.16,3.16,0,0,0,2.65-.25,1.64,1.64,0,0,0,1.05-1.6c-.15-1.36-.45-2.71-.68-4.07a36,36,0,0,1-.31-7.56c.27-7.83.26-15.67.38-23.51,0-2.77.12-5.53.2-8.5,1.14,1.39.65,2.81.69,4.11a104.39,104.39,0,0,0,.84,13.1c.37,2.5.29,5.06.43,7.6a68.9,68.9,0,0,0,.46,6.9,103.21,103.21,0,0,1,1,14.47,103.9,103.9,0,0,0,1.38,12.35,3.44,3.44,0,0,0,1.93,2.68,1.78,1.78,0,0,1,.8,2.37,42.17,42.17,0,0,1-2.2,4.28c-.09.17-.36.24-.55.36-.54.34-.76.15-.93-.5-.67-2.66-1.8-5.18-2-8a12.46,12.46,0,0,0-1.34-4.62,19.29,19.29,0,0,0-2.51-3.2l.13-.19c-.13-.9-.29-1.77-1.37-2C124.71,263.25,124.67,261.86,124.63,260.46Z"/><path d="M119,58.56a2.94,2.94,0,0,1-1.16-2.38c-.08-2.77-.11-5.54-.19-8.31a16.3,16.3,0,0,0-1-5.4,39.37,39.37,0,0,1-1.33-6.06c-.36-1.81-.61-3.65-1.08-5.44a16,16,0,0,1-.5-4.78c.11-3-.1-6,0-9,.19-3.67.6-7.34.93-11,.09-1,.78-1.59,1.15-1.11s.68.73.67,1.09c-.06,5.08,0,10.16-.36,15.23a41.9,41.9,0,0,0,.46,9,80.29,80.29,0,0,1,1.25,8.2c.08,1.55.94,3.06,1.45,4.59.06,4.26.11,8.51.2,12.77a4.91,4.91,0,0,1-.49,2.59Z"/><path d="M281.45,287.39c.79,1.14,1.62,2.24,2.34,3.41.84,1.38,1.5,2.88,2.4,4.22,2.66,4,3.76,8.43,4.39,13.06a4.77,4.77,0,0,1-1.73,4.32,1.23,1.23,0,0,1-1.75-.36,5,5,0,0,1-.66-1.21,8,8,0,0,0-5-6.18,14.5,14.5,0,0,1-2.69-2.12l.61-.57a16.56,16.56,0,0,1,2.65.66c1.26.54,2.43,1.28,3.69,1.84a1.18,1.18,0,0,0,1.11-.26A1.57,1.57,0,0,0,287,303c-.27-.87-.76-1.66-1-2.53a2,2,0,0,0-1.9-1.63,3.51,3.51,0,0,1-2.92-1.55c-.74-1.12-1.34-2.34-2-3.52a10.33,10.33,0,0,1,1.21-.45c1.31-.3,1.7-.75,1.3-1.61-.47-1-1-2.07-1.45-3.1Z"/><path class="cls-1" d="M241,268c-.76,1.31-1.56,2.59-2.26,3.92a2.8,2.8,0,0,0,.18,3.06h.05a2.43,2.43,0,0,0-2.56.39c-.8.81-1.34,1.87-2.11,2.7-1.19,1.29-.86,3.1-1.64,4.44s-2.37,2.28-3,3.67a27.84,27.84,0,0,0-1.94,6.54,22.39,22.39,0,0,1-1.6,5.22c-.61,1.35-1.84,2.58-2.16,2.14a2.55,2.55,0,0,1-.07-2.61,13.79,13.79,0,0,0,1.17-8l-.11.14c.19-.13.48-.21.56-.38a6.86,6.86,0,0,0,.69-1.84,54.7,54.7,0,0,1,2.8-10.53c2.14-2.34,4.29-4.67,6.42-7a7.75,7.75,0,0,0,.74-1.12l-.1.07a14.22,14.22,0,0,0,1.75-.54c.77-.33,1.49-.75,2.23-1.14A10.48,10.48,0,0,0,241,268Z"/><path class="cls-1" d="M215.23,267.26a5.93,5.93,0,0,1-1.33,0c-.37-.08-1-.35-1-.56a15.94,15.94,0,0,1,.15-4.74,13.84,13.84,0,0,0-.36-8,33.79,33.79,0,0,1-.7-6.07l1.67-.09c0,1.11,0,2.23.12,3.34,0,.18.26.38.44.49a.49.49,0,0,0,.44-.14c.68-1.9,1.41-3.78,2-5.71a40.94,40.94,0,0,1,4.62-11.22l1.23,1.05c-.16,1.79-.32,3.58-.47,5.36l.1-.12c-.31.31-.82.59-.89,1-.59,3.14-1.83,6.1-2,9.38-.16,2.44-1.33,4.81-2.07,7.21a9.15,9.15,0,0,0-.64,4.71l.1-.06c-.63.17-1.15.46-1.22,1.18-.1,1-.17,2.1-.25,3.14Z"/><path class="cls-1" d="M133.67,331.39c-.1-2.54-.33-5.09-.29-7.64a28.67,28.67,0,0,0-2.31-12.87,2.76,2.76,0,0,1-.28-2.63,2.64,2.64,0,0,0-.16-3.2,11.17,11.17,0,0,1-.83-1.12,3.74,3.74,0,0,1-.21-3.94c.3-.63.46-1.32.78-1.93a3.54,3.54,0,0,1,.81-.78c.13.19.25.39.37.59a20.81,20.81,0,0,1,2.51,7.87c.57,3.42.85,6.88,1.19,10.34a21.46,21.46,0,0,1,.12,4.16,61.42,61.42,0,0,0,.32,11.1Z"/><path class="cls-1" d="M119.08,58.52a4.91,4.91,0,0,0,.49-2.59c-.09-4.26-.14-8.51-.2-12.77.32,0,.63,0,.95,0a12,12,0,0,1,.94,5.37A50.62,50.62,0,0,0,122.68,60a14.21,14.21,0,0,1,.23,3.4,7,7,0,0,1-.28,1.79c-.08.29-1.38-1.16-1.61-2.06-.33-1.32-.53-2.68-.91-4C120,58.88,119.44,58.73,119.08,58.52Z"/><path class="cls-1" d="M126.12,335.39l1.82.35c.26.38.71.74.73,1.13a37.59,37.59,0,0,0,2.4,10,5.65,5.65,0,0,1,.3,2,1.52,1.52,0,0,1-.66,1.1,1.3,1.3,0,0,1-1.23-.16,5.8,5.8,0,0,1-1.48-2.27C127.07,343.56,125.52,339.63,126.12,335.39Z"/><path class="cls-1" d="M216.88,330c-.5-6,1.08-11.67,3.16-18.6a21.14,21.14,0,0,1-1.45,12.56,12.35,12.35,0,0,0-.77,6.05A5.9,5.9,0,0,1,216.88,330Z"/><path class="cls-1" d="M133,344l2.48.33.3,2.46a1.51,1.51,0,0,0-1.36,1c-.26,1-.48,2-.72,3C132.53,348.64,133,346.29,133,344Z"/><path d="M133.68,350.83c.24-1,.46-2,.72-3a1.51,1.51,0,0,1,1.36-1c0,1.36.09,2.72.1,4.09,0,.67-.19,1.35-1,1.36S133.9,351.46,133.68,350.83Z"/><path d="M178.39,252.68c-.91-.49-2.16-.56-2.35-1.93l.13-.13a2.62,2.62,0,0,1,3.15.94Z"/><path d="M252.74,189.33c.21,1-.32,1.41-1.17,1.6l-.29-.28a1.18,1.18,0,0,1,1.54-1.24Z"/><path d="M124.74,264.65c1.08.26,1.24,1.13,1.37,2C125.66,266,125.2,265.32,124.74,264.65Z"/><path d="M254.37,188.16c-.2.87-.66,1.37-1.63,1.17l.08.08c-.14-1,.32-1.45,1.26-1.51Z"/><path d="M251.57,190.93a1.48,1.48,0,0,1-1.2,1.57l-.69-.65c.19-.86.67-1.34,1.6-1.2Z"/><path d="M250.37,192.5c-.37.76-.68,1.62-1.81,1l.07.08a1.53,1.53,0,0,1,1.05-1.73Z"/><path d="M54.31,106.55,53,105.2l1.31-1.29,1.33,1.32Z"/><path class="cls-1" d="M241.55,235.21a4.88,4.88,0,0,0,.64.23c.71.14,1.43.61.93,1.25-2.82,3.61-3.74,8.25-6.55,11.89-.9,1.16-.87,3-1.42,4.48a2.17,2.17,0,0,1-1.92,1.64l.09.11.87-4.91c.5-1.87,1-3.73,1.51-5.6.6-1,1.23-2,1.77-3a1.78,1.78,0,0,0-.07-1.93l1.1-.1-.38-.77-.66.93c-2,.45-2.9,1.89-3.22,3.79a3.52,3.52,0,0,0-1.06,2.4c-.05,1.13-.08,2.25-.12,3.37a2.8,2.8,0,0,0-1.15,2.35c0,1.15-.06,2.29-.09,3.43l.08-.11c-1.66.72-2.16,2.38-2.67,3.81-1.45,4.11-2.64,8.31-3.94,12.47a3.81,3.81,0,0,0-.41,1.31c.38,3.46-1.76,6-3.09,8.91-.07.15-.41.23-.62.23s-.31-.25-.3-.38c.06-2.06.19-4.12.22-6.19a11.34,11.34,0,0,0-.32-2l-.06,0c.4-.14,1-.18,1.15-.45a3.82,3.82,0,0,0,.3-3.85l-.07.14c.37-.21,1-.35,1.08-.65a27.94,27.94,0,0,0,.94-3.92c.06-.34-.36-.76-.57-1.14l-.06.14c.38-.18,1-.26,1.1-.53a8,8,0,0,0,.37-5.18l-.08.14c1.89-.62,2.09-2.1,1.87-3.77,0-.19-.27-.36-.41-.54l-.09.12c.4-.06,1,0,1.17-.22a20.23,20.23,0,0,0,1.84-3.66c1.81-5.45,4.62-10.43,7.14-15.54A46.54,46.54,0,0,1,245,221.66a8.09,8.09,0,0,0,1-1.73l-.13.12c1.27,0,2.07-.93,2.93-1.66,2.82-2.37,5.6-4.79,8.39-7.2a11.39,11.39,0,0,1,4.81-2.59,6.68,6.68,0,0,1,5.23,1.07,1.79,1.79,0,0,1,.18,1.91c-4.56,3.84-8.39,8.44-13.08,12.2-4.08,3.27-8.66,6.07-11.86,10.39-.27.36-.49.75-.74,1.13s-.77.43-.95.76.14.52.53.3A.76.76,0,0,0,241.55,235.21Z"/><path class="cls-1" d="M205,257.3c-.07-.59-.16-1.5-.28-2.41a16.14,16.14,0,0,1-.27-2.06c0-2.48,1.52-4.83.34-7.46-1-2.17-.3-4.57-.44-6.86a40.37,40.37,0,0,0-.8-5.46c-.32-1.58-.89-3.11-1.23-4.69A24.31,24.31,0,0,0,198,219a24,24,0,0,1-1.85-2.92,10.8,10.8,0,0,1-1.7-5.91,7.51,7.51,0,0,0-1.81-5.11c-1.8-2.4-3.6-4.8-5.37-7.22q-1.85-2.52-3.62-5.07c-.51-.73-.42-1.69.13-1.76a4.74,4.74,0,0,1,1.95,0,4.09,4.09,0,0,1,1.72,1.08,56.27,56.27,0,0,0,5,4.72,23.12,23.12,0,0,1,5.54,7c1.49,2.86,2.91,5.75,4.34,8.64a15.39,15.39,0,0,0,1.07,2.52c2.27,3,3.07,6.68,4.2,10.17a22.19,22.19,0,0,1,1,8.89,34.33,34.33,0,0,0,.75,11.68,16.48,16.48,0,0,1,.34,6.16,33.92,33.92,0,0,0,.11,7.6,34.76,34.76,0,0,1-.66,9.61c-.05.3-.65.53-1,.7-.1.05-.41-.17-.51-.34C205.57,265.78,203.89,262,205,257.3Z"/><path class="cls-1" d="M248.58,253.37c1.24.24,2.19-.46,3.23-1a16.8,16.8,0,0,1,6.64-1.87c1.61-.08,3.2-.49,4.81-.73a17.71,17.71,0,0,1,3.45-.39c8.79.51,17.54,1.39,25.79,4.81a13.2,13.2,0,0,1,2.32,1.48c.64.43.74,1.41.18,1.62A114.49,114.49,0,0,1,284,261.39a25.51,25.51,0,0,1-11.7.59c-4.08-.83-8.2-1.46-12.31-2.17a8,8,0,0,1,5.56-2.19c4.41-.09,8.82-.3,13.21-.18,2,.05,4.05.81,6.09,1.15.26.05.8-.47.88-.81a1.34,1.34,0,0,0-.38-1.17,4.4,4.4,0,0,0-1.87-.78c-1.61-.2-3.23-.29-4.85-.34-3.24-.11-6.49,0-9.72-.26a12.11,12.11,0,0,0-6.13.84c-4.25,2-8.81,2.84-13.33,3.86a23.35,23.35,0,0,0-5.91,2,3.21,3.21,0,0,0-1.93,2.66l.12-.11c-2.79-.32-4.49,1.44-6.13,3.26-.1.11.3.68.47,1l.1-.07c-.67-.92-1.49-.64-2.36-.33a2.44,2.44,0,0,1-1.26,0c-.52-.12-.57-.94-.34-1.71a6.56,6.56,0,0,1,2.18-3.38,26.64,26.64,0,0,1,2.87-1.81c3.31-2,6.64-3.94,9.92-6A2.41,2.41,0,0,0,248.58,253.37Z"/><path class="cls-1" d="M257.69,287c-.13.2-.2.46-.38.58a34.79,34.79,0,0,1-8,4.09c-1.31.45-2.58,1-3.87,1.5-5.33,2-9.37,5.86-13.41,9.69-2,1.91-4.08,3.74-6.14,5.59a.47.47,0,0,1-.46-.09.94.94,0,0,1-.22-.64,15.79,15.79,0,0,1,4.1-7.88,21.42,21.42,0,0,1,2-1.92c3.94-3.23,7.86-6.48,11.84-9.64,3.31-2.62,9.52-3.65,13.88-2.38C257.35,286,257.48,286.59,257.69,287Z"/><path class="cls-1" d="M134.36,182.46c.22-.07.53-.08.63-.22,1.69-2.61,3.38-5.21,5-7.87a4.41,4.41,0,0,0,.46-2,3.63,3.63,0,0,0-.39-1.24l-.11.13a1.12,1.12,0,0,0,1.34-1c.1-.64.1-1.3.15-2l-.1.13c1,.06,1.5-.5,1.51-1.49l-.09.11c1.8-.85,1.8-.85,1.45-2.93l-.11.14c.23,0,.58.09.68,0,2.65-3.12,5.25-6.29,8-9.37.32-.36,1.25-.32,1.88-.24a1,1,0,0,1,.91,1.41,20.87,20.87,0,0,1-1.52,3.07c-3.62,5.32-7.18,10.69-11.17,15.74a60.23,60.23,0,0,0-8.12,12.7,6.26,6.26,0,0,1-.8,1.13l-1.28-1.16.48-2.48-.11.13a2.27,2.27,0,0,0,1.47-2.93Z"/><path class="cls-1" d="M279.15,293.72c.66,1.18,1.26,2.4,2,3.52a3.51,3.51,0,0,0,2.92,1.55,2,2,0,0,1,1.9,1.63c.29.87.78,1.66,1,2.53a1.57,1.57,0,0,1-.22,1.25,1.18,1.18,0,0,1-1.11.26c-1.26-.56-2.43-1.3-3.69-1.84a16.56,16.56,0,0,0-2.65-.66c-1.39-4.22-4.41-6.81-8.43-8.33-2.56-1-5.18-1.78-7.75-2.73-.35-.13-.57-.63-.86-1a2.6,2.6,0,0,1,.62-.23,17.14,17.14,0,0,1,7.42.72,24.45,24.45,0,0,0,3.33.62l-.11-.11c.55,1.5,2,1.67,3.23,2,.29.08.71-.37,1.07-.58l-.09-.07c-.33,1.32-.33,1.33.86,1.52a3.11,3.11,0,0,0,.61,0Z"/><path class="cls-1" d="M216.5,263.11c.34.6.92,1.18.95,1.8a17.35,17.35,0,0,1-.16,5.49,15.27,15.27,0,0,0,.07,8.19,28.64,28.64,0,0,1,.38,11.69c-.07.46-.12.92-.18,1.38l-.09.63c-.69-.39-.75-1.08-.83-1.76-.16-1.37-.31-2.73-.51-4.09,0-.21-.24-.39-.36-.58-.29.33-.77.63-.82,1a23.07,23.07,0,0,0-.08,2.76c0,.84-.05,1.68-.08,2.73a4.45,4.45,0,0,1-2-3.1,34,34,0,0,1,0-5.53,1.27,1.27,0,0,1,1.36-1.22,1.25,1.25,0,0,0,1.17-1.39,35.43,35.43,0,0,0-.09-4.84c-.47-3-.1-6,0-9l-.1.11a3.93,3.93,0,0,0,1.47-4.32Z"/><path class="cls-1" d="M179.32,251.56a2.62,2.62,0,0,0-3.15-.94c-.25-1.43-1.58-2-2.38-3-.1-.13,0-.39-.06-.59,0-.55.23-.64.83-.6,1.5.09,3,.73,4.49,0l-.14-.12c.71,2.06,1.76,2.77,4.3,2.89l-.12-.1c.46,1.76,1,2.06,2.92,1.47l-.13-.08c.6,2,1.78,2.78,4.28,2.89l-.11-.07c.06,1.74,1.58,2.69,2.25,4.09a15.54,15.54,0,0,1,.84,2.55c0,.14-.21.36-.32.56a.7.7,0,0,1-1.12.3c-3.15-2.57-6.64-4.71-9.43-7.72A5,5,0,0,0,179.32,251.56Z"/><path class="cls-1" d="M140.05,171.18c-.6.28-1.21.58-1.82.84a1,1,0,0,1-.67.08.67.67,0,0,1-.21-.59,10.66,10.66,0,0,1,.74-2.6,32,32,0,0,0,3.2-7.64,14.71,14.71,0,0,1,3.52-6.67c1.07-1.18,1.87-2.59,2.89-3.81.19-.24.85-.14,1.28-.1.16,0,.38.27.41.45a21.76,21.76,0,0,1,.41,3.4,3.17,3.17,0,0,1-.74,1.86c-1.05,1.23-2.23,2.34-3.36,3.5a6,6,0,0,0-1.61,4.45l.11-.14c-1.86,1.23-1.86,1.23-1.45,2.93l.09-.11c-1.35-.36-1.33.66-1.51,1.49l.1-.13a2.93,2.93,0,0,0-1.49,2.92Z"/><path class="cls-1" d="M196.3,257a11.37,11.37,0,0,1,4.1,4.59c1.26,2.47,2.56,4.92,3.95,7.32a7.48,7.48,0,0,1,.68,5.36.49.49,0,0,1-.37.3c-.22,0-.54-.09-.62-.24-3-5.46-6.84-10.46-8.51-16.59Z"/><path class="cls-1" d="M280.21,288.56c.49,1,1,2.06,1.45,3.1.4.86,0,1.31-1.3,1.61a10.33,10.33,0,0,0-1.21.45l.1.08c.25-1.48.25-1.48-1.47-1.5l.09.07c-.9-1.66-2.33-2.35-3.83-1.82-.18.06-.32.26-.47.39l.11.11c0-.41.14-1-.08-1.22a8.11,8.11,0,0,0-4.9-2,4.28,4.28,0,0,1-1.65-.88c-.08-.05,0-.56.1-.63a8.32,8.32,0,0,1,7.65-.47C276.65,286.63,278.41,287.64,280.21,288.56Z"/><path class="cls-1" d="M225,289.42c-.37.25-.94.41-1.08.74-1.05,2.54-2.24,5-2.09,7.91,0,.94-1,1.94-1.62,2.89a.79.79,0,0,1-.62.23c-.11,0-.26-.31-.28-.5A32.15,32.15,0,0,1,221,287.82a1.45,1.45,0,0,1,.91-.87c1.76-.31,1.76-1.89,2.5-3.75.2,2.58.34,4.47.48,6.36Z"/><path class="cls-1" d="M229.87,217.79c-1,3.14-2.13,6.25-3.06,9.42a23.69,23.69,0,0,0-.54,3.88l.09-.1a1.39,1.39,0,0,0-1.55.77l-2.3,3.85-1.23-1.05c2-6.13,4-12.24,7.29-17.82Z"/><path class="cls-1" d="M211,283.59v7.56a4,4,0,0,1,0,.69c-.23,1.48-.86.24-.88,0a78.68,78.68,0,0,0-2.26-12.18c-.51-1.88.13-3,2.26-4.4.12-.07.45.08.63.21a.73.73,0,0,1,.28.51c0,2.52,0,5.05,0,7.57Z"/><path class="cls-1" d="M222.19,250.64a6.12,6.12,0,0,1-.43-3.22c.15-2.19.26-4.39.38-6.57l-.1.12c1.67-.52,1.29-2.29,2.05-3.36a10.61,10.61,0,0,1,1.39-1.46c.07-.06.44,0,.44,0a4.45,4.45,0,0,1-.06,1.37,13.27,13.27,0,0,0-1,5.43,9.73,9.73,0,0,1-2.8,7.54Z"/><path class="cls-1" d="M220.77,272.88a13,13,0,0,1-.14-11.05c.72-1.65,1.38-3.32,2.07-5l1,.89c-.07,1.82-.83,3.6-.24,5.45l.06-.14c-.6.23-1.16.51-1.3,1.24a9.26,9.26,0,0,0-.15,4.47l.07-.14c-1.94,1.2-2.16,1.85-1.45,4.3Z"/><path class="cls-1" d="M142.92,266.39a8.91,8.91,0,0,1-1.66,5.58,1,1,0,0,1-1.64.07,3.37,3.37,0,0,1-.63-1.85c.27-1.88,1.45-3.36,2.58-4.82a.7.7,0,0,1,.64-.17,3,3,0,0,1,.69.91C143,266.29,142.92,266.56,142.92,266.39Z"/><path class="cls-1" d="M249.68,191.85a1.53,1.53,0,0,0-1.05,1.73l-1.45-.07,0,.05c-.09-.42-.4-1-.24-1.23,2-2.79,3.84-5.66,6.54-7.83a12,12,0,0,0,.86.89c-.1.84-.19,1.67-.29,2.51-1,.06-1.41.53-1.27,1.51a1.18,1.18,0,0,0-1.54,1.24C250.35,190.51,249.87,191,249.68,191.85Z"/><path class="cls-1" d="M162.1,144.61c.09.21.28.44.25.63-.49,2.76-1.29,5.34-4.09,6.7l-.31-.31c.39-2.92,1.54-5.39,4.23-6.91Z"/><path class="cls-1" d="M226.25,249.16c0,1.43,0,2.85,0,4.28l.09-.13a1.73,1.73,0,0,0-1.46,1.77c0,.85,0,1.69,0,2.54l.08-.14a3.43,3.43,0,0,1-1.23.26l-1-.89c.87-2.3,1.71-4.6,2.64-6.88.14-.32.68-.48,1-.71Z"/><path class="cls-1" d="M193.48,114.07c-.3.05-.8-.38-1-.72a1.12,1.12,0,0,1,.63-1.61,1.4,1.4,0,0,1,1.81.27c.24.32.42,1.06.26,1.21A3.55,3.55,0,0,1,193.48,114.07Z"/><path class="cls-1" d="M128.72,285c0-.31.09-1.2.21-2.08,0-.19.25-.36.39-.53.23.2.67.41.68.62,0,1.77,0,3.54-.08,5.3a.87.87,0,0,1-.38.5c-.3-.15-.76-.35-.78-.57C128.67,287.33,128.72,286.44,128.72,285Z"/><path class="cls-1" d="M181.69,115.83a2.18,2.18,0,0,1-1.08,2.2,1.35,1.35,0,0,1-1.16,0,1.19,1.19,0,0,1-.31-1.06,5.14,5.14,0,0,1,1-1.66c.3-.35.42-1.37,1.23-.67C181.6,114.86,181.58,115.43,181.69,115.83Z"/><path class="cls-1" d="M156.91,147.78a3.29,3.29,0,0,1-1.56,2.9c-.53.31-.9.24-1.09-.23-.78-2-.67-2.2,1.77-3.65A6.29,6.29,0,0,0,156.91,147.78Z"/><path class="cls-1" d="M124.28,79.73c-.85-1.26-.5-2.39-.56-3.45,0-.23.23-.48.36-.72a2.17,2.17,0,0,1,.19.63C124.29,77.27,124.28,78.36,124.28,79.73Z"/><path class="cls-1" d="M170.36,133.41a3.73,3.73,0,0,1,1.86-2.65c.18-.08.53-.17.57-.12.21.34.51.74.47,1.09-.12,1.23-1.1,1.89-2,2.61C171,134,170.68,133.71,170.36,133.41Z"/><path class="cls-1" d="M174.28,129.85c-.26-.24-.75-.48-.78-.76a2.15,2.15,0,0,1,1.72-2.49c.21,0,.73.43.77.72A2.16,2.16,0,0,1,174.28,129.85Z"/><path class="cls-1" d="M184.6,118.39a14,14,0,0,1,.12-2c.18-.86.84-.78,1.53-.68s.94.33.68.64c-.67.79-1.08,2-2.42,1.9Z"/><path class="cls-1" d="M203.84,284.4l1-1.46a5.77,5.77,0,0,1,.72,1.17,27.34,27.34,0,0,1,.69,2.66.89.89,0,0,1,0,.67,4.73,4.73,0,0,1-1.05.84c-.06,0-.34-.26-.51-.42C203.66,287,204,285.76,203.84,284.4Z"/><path class="cls-1" d="M131.62,192.12a4.87,4.87,0,0,1-.16,1.34c-.18.44.28,1.23-.65,1.28,0-.64-.1-1.28-.06-1.92s.43-.7,1-.6Z"/><path class="cls-1" d="M131.75,192.22a4.16,4.16,0,0,1,.88-4.62l1.28,1.16c-.63,1.22-.74,2.78-2.29,3.36Z"/><path class="cls-1" d="M188.67,250.65l2.27.52a1.66,1.66,0,0,1-.89,2.19l.11.07a1.7,1.7,0,0,0-.64-1.8,7.11,7.11,0,0,1-.77-1.09Z"/><path class="cls-1" d="M212.71,299.88l.52-.92c.09.61.21,1.22.26,1.84,0,.18-.19.37-.3.56C213,300.83,212.85,300.3,212.71,299.88Z"/><path class="cls-1" d="M181.3,121.74c-.39.82-.76,1.69-1.79,1.91a1.1,1.1,0,0,1-.58-.12c-.62-.24-.69-.61-.2-1.07a7.84,7.84,0,0,1,1.51-1.26C180.45,121.1,180.94,121.54,181.3,121.74Z"/><path class="cls-1" d="M226.37,249.26c.09-1,.17-2.1.28-3.15,0-.14.19-.26.29-.39.17.14.47.28.47.42a11.88,11.88,0,0,1-.16,2.46c-.05.25-.65.38-1,.56Z"/><path class="cls-1" d="M221.6,309.77a2.05,2.05,0,0,1-.38,0,15.62,15.62,0,0,1,0-1.81c0-.16.27-.31.42-.46.11.18.31.35.33.53a5.81,5.81,0,0,1,0,1.25A1.71,1.71,0,0,1,221.6,309.77Z"/><path class="cls-1" d="M222.09,250.54c-.12.61-.23,1.23-.38,1.83,0,.15-.19.27-.29.4a3.1,3.1,0,0,1-.39-1.1c0-.66.38-1.13,1.16-1Z"/><path class="cls-1" d="M169.89,135.78c-.63.75-.71,2.05-2.08,2l.06.06a2.26,2.26,0,0,1,1.19-3C169.33,135.19,169.61,135.49,169.89,135.78Z"/><path class="cls-1" d="M224.25,315.37c.24-.35.49-.71.75-1.05s.69-.56.91-.24a.93.93,0,0,1,.16.58,1.56,1.56,0,0,1-1,1.47A9.2,9.2,0,0,0,224.25,315.37Z"/><path class="cls-1" d="M162.41,140.77a2.5,2.5,0,0,1,1.14-3l-.09-.09a2.07,2.07,0,0,1-1.14,3Z"/><path class="cls-1" d="M226.27,231.09a10.85,10.85,0,0,1,.92.87c.12.14.23.47.15.58-.79,1.1-.54,0-.64-.33s-.23-.81-.34-1.22Z"/><path class="cls-1" d="M233.23,254.7l-.66,1.66-.67-1.66-.08.11h1.5Z"/><path class="cls-1" d="M228.57,216.74a6.83,6.83,0,0,1,.54-1.23,4.66,4.66,0,0,1,.91-.79c.14.38.43.79.38,1.15a11.24,11.24,0,0,1-.54,1.92Z"/><path class="cls-1" d="M253.52,184.5c.17-.15.33-.39.52-.42.38-.06,1-.16,1.14,0,.49.81-.25,1-.8,1.3A12,12,0,0,1,253.52,184.5Z"/><path class="cls-1" d="M158.26,151.94c-.23.35-.47.7-.7,1.06-.79-.73-.48-1.13.39-1.37Z"/><path class="cls-1" d="M156,146.8c.46-.27.95-1,1.45-.37s0,1.06-.57,1.35A6.29,6.29,0,0,1,156,146.8Z"/><path class="cls-1" d="M162.32,140.66l-.77,1c-.5-1.06.18-1,.86-.85Z"/><path class="cls-1" d="M162.18,144.72l.86-.39c-.11.15-.2.39-.33.42a1.42,1.42,0,0,1-.61-.14Z"/><path class="cls-1" d="M163.55,137.75l.49-.07c-.83.42-.57-.94-.58,0Z"/><path class="cls-1" d="M166,141.13l-.2.44-.59-.43.39-.43Z"/><path class="cls-1" d="M167.81,137.82c-.11.34-.23.68-.34,1-.17-.2-.49-.42-.48-.61,0-.43.4-.55.88-.36Z"/><path class="cls-1" d="M171.3,134.34l-1.41,1.44c-.28-.29-.56-.59-.83-.89a1.7,1.7,0,0,1,1.3-1.48C170.68,133.71,171,134,171.3,134.34Z"/><path class="cls-1" d="M247.18,193.51a1.33,1.33,0,0,1-1.42,1.36l.11.13c-.15-1.6-.15-1.6,1.35-1.45Z"/><path class="cls-1" d="M245.76,194.87l-.59,1c-.12-.25-.39-.57-.33-.76.16-.44.58-.46,1-.13Z"/><path class="cls-1" d="M184.51,118.3c0,.57-.27.81-.67.7,0-.14,0-.34.15-.4a2.31,2.31,0,0,1,.61-.21Z"/><path class="cls-1" d="M194.32,262.34a4.35,4.35,0,0,1-.93.38c-.11,0-.28-.26-.41-.4a4.22,4.22,0,0,1,.88-.37C194,261.93,194.15,262.19,194.32,262.34Z"/><path class="cls-1" d="M195.53,257.69c-.59-.25-1.11-.72-.59-1.26s1,.14,1.35.52C196.05,257.2,195.79,257.45,195.53,257.69Z"/><path class="cls-1" d="M238.12,258.3a5.33,5.33,0,0,1-1.14.53c-1.11.23-1.45-.23-1.08-1.43a2.26,2.26,0,0,1,.37-.52Z"/><path class="cls-1" d="M225,316.13c-.05.2,0,.44-.16.58a6,6,0,0,1-.81.68c-.13-.33-.4-.68-.36-1s.37-.68.56-1A9.2,9.2,0,0,1,225,316.13Z"/><path class="cls-1" d="M229.08,242.24c-.12.58-.1,1.34-1,1.13-.15,0-.15-.75-.22-1.15C228.26,242.22,228.67,242.22,229.08,242.24Z"/><path class="cls-1" d="M229.08,242.24c-.41,0-.82,0-1.22,0,0-.21,0-.48.07-.64.22-.33.67-.91.77-.86C229.38,241,229.44,241.61,229.08,242.24Z"/><path class="cls-1" d="M94,146.24c1.08-.21,1.46-.94,1-1.86-.63-1.38-1.47-2.66-2.18-4-.45-.86-.09-1.54,1.23-2.48l-.13-.08a2.18,2.18,0,0,0,2.93,1.46l-.1-.11a2.7,2.7,0,0,0,.86,3.09,4.79,4.79,0,0,1,1.79,4.19c-.07,3.89,0,7.79.1,11.69a2.17,2.17,0,0,0,1.51,2.06L101,160a29.42,29.42,0,0,0,.56,8.11,6.84,6.84,0,0,0,.9,1.79l-.07-.15c.55,8.86,1.74,17.69,1.4,26.6l.07-.16c-.38.52-1,1-1.11,1.58a69.92,69.92,0,0,0,.11,15c0,.6.66,1.15,1,1.72l-.1-.12c.08,3.7.21,7.4.18,11.09a11.89,11.89,0,0,1-.72,3.34c-.07.19-.79.34-1.14.25-.9-.22-.25.71-.6-.15a4.72,4.72,0,0,1-.5-1.28,34.15,34.15,0,0,1-.21-4.84c.27-4.39.08-8.78.16-13.15.15-7.46-1-14.73-2.05-22a20,20,0,0,1-.4-3.43c0-2.29.4-4.59.38-6.88,0-2.06-.48-4.12-.56-6.19a90.47,90.47,0,0,1,.11-13.17,19,19,0,0,0-.16-3.44c-.06-.82-.77-1-1.38-1.33l.11.12a5.54,5.54,0,0,0-2.07-5.33c-.45-.36-.52-1.19-.77-1.81Z"/><path class="cls-1" d="M90.47,37.42a5.1,5.1,0,0,1,.5,1.2c.47,3.4,0,7,1.83,10.13.14,4.38.66,8.76-.15,13.14-.34,1.81-.55,3.65-.74,5.49a7.06,7.06,0,0,0,0,2.75c1.29,4.08.8,8.23.59,12.37a26.75,26.75,0,0,0,.85,8.9,37.12,37.12,0,0,1,1.14,6.81,18.19,18.19,0,0,1-.34,6.89c-.17.59-.32.88-.74.74-.21-.07-.48-.15-.57-.31a21.23,21.23,0,0,1-2.5-10c-.35-7.16-.43-14.33-.64-21.49a35.67,35.67,0,0,0-.36-6.22c-1-4.85-.63-9.67-.25-14.51C89.54,48,90,42.73,90.47,37.42Z"/><path class="cls-1" d="M32.9,78.06c-.62-.67-1.26-1.32-1.86-2-.3-.33-.74-.74-.74-1.11,0-3.47-1.7-6.67-1.63-10.15.06-3,.16-6,.1-9a58.2,58.2,0,0,0-.56-6.17c0-.32-.64-.57-1-.86l.1.14c.81-1.35-.12-2.7,0-4.05a16.36,16.36,0,0,1,.6-2.65c0-.16.34-.24.52-.36.52-.35.91-.27,1.09.27a28.4,28.4,0,0,1,1.22,3.94,31.16,31.16,0,0,0,1.83,7.35,11.56,11.56,0,0,1,.55,6.15c-.21,1.6-.38,3.22-.71,4.8a11.56,11.56,0,0,0,1.32,8,37.44,37.44,0,0,1,1.76,3.74,1.74,1.74,0,0,1-.22,2c-.58.61-1.22.15-1.84.08A5.63,5.63,0,0,1,32.8,78Z"/><path class="cls-1" d="M83,129.41a3.34,3.34,0,0,1-1.32.08,11.69,11.69,0,0,1-2.43-1.2c-3.2-2.13-5.92-5-9.58-6.42a67.46,67.46,0,0,1-6.51-6A50.83,50.83,0,0,1,58.84,109c-.41-.68-.07-1.27.38-1.8.23,0,.56-.11.68,0,2.78,2.71,6.52,4.18,9.13,7.1l-.1-.14c.15.86.41,1.6,1.52,1.5l-.12-.12c.08.41,0,1,.28,1.2a16.8,16.8,0,0,1,4.56,4.68,2.4,2.4,0,0,0,2.22,1.2l-.11-.11a11.09,11.09,0,0,0,3.92,5.12c.68.54,1.54.9,1.68,1.91Z"/><path class="cls-1" d="M27.23,48.78c-.17,3.9.18,7.8-.22,11.7-.2,2,.37,4.1.46,6.16a5.47,5.47,0,0,1-.63,1.89,5.68,5.68,0,0,1-.9-1.57,13.16,13.16,0,0,1-.1-2.74c0-1.15.13-2.3.14-3.44a4.91,4.91,0,0,0-.19-2c-1.38-3.05-1.19-6.26-1.22-9.46a4.55,4.55,0,0,0-.14-2c-1.56-2.79-.13-5.34.48-8,0-.16.36-.29.57-.35s.31.22.32.34c0,2.73-.59,5.49.27,8.17.18.57.83,1,1.26,1.48Z"/><path class="cls-1" d="M55.6,105.23l-1.33-1.32c-1.53-3.06-4.1-5.16-6.66-7.28.24-.27.49-.53.73-.79,1.13.77,2.23,1.6,3.4,2.29A1.41,1.41,0,0,0,53.56,98c.66-.62.2-1.22,0-1.83l-.13.09c.92-.83,1.76-.26,2.38.34.44.4.54,1.16.79,1.76a10.25,10.25,0,0,0-1.37.15,1,1,0,0,0-.79,1.47c.93,1.32,1.93,2.6,2.8,4a9,9,0,0,1,.71,1.9Z"/><path class="cls-1" d="M46,95.57a78.93,78.93,0,0,1-9.34-6.48,8.44,8.44,0,0,1-1.52-2.16c.17-.23.34-.45.52-.66,2,.15,2.88,2.3,4.6,2.75,3.15.84,4.9,3.12,6.61,5.55A4.64,4.64,0,0,0,46,95.57Z"/><path class="cls-1" d="M53.53,96.21c-1.67-1.24-3.38-2.43-5-3.73a4.44,4.44,0,0,1-1.71-2.93c0-.17.18-.4.34-.55s.42-.27.51-.21c2.27,1.58,4.53,3.17,6,5.63a1.61,1.61,0,0,1-.23,1.88Z"/><path class="cls-1" d="M89.8,21.1c0,1.59,0,3.17,0,4.76,0,.24-.44.47-.68.7-.13-.18-.36-.35-.39-.55a29.76,29.76,0,0,1,0-10.77c0-.2.27-.36.4-.54.26.31.72.63.74,1,.07,1.82,0,3.63,0,5.45Z"/><path class="cls-1" d="M32.42,81.15a9,9,0,0,1-5.91-2.7,1.31,1.31,0,0,1-.21-1.21c.17-.3.74-.39,1.14-.55s.79.07,1.16.39a4.27,4.27,0,0,0,4.3,1L32.8,78c-.75.94.22,1.71.26,2.57Z"/><path class="cls-1" d="M63.15,103.34a18.52,18.52,0,0,1-2.07-1.54,1.08,1.08,0,0,1,.05-1.06,1.27,1.27,0,0,1,1.16-.2,18.24,18.24,0,0,1,2,1.66Z"/><path class="cls-1" d="M43,84.52a23.3,23.3,0,0,1,2.24,1.25c.6.41.67,1.39.2,1.59a1.5,1.5,0,0,1-1.12.12c-.94-.53-1.8-1.19-2.69-1.79Z"/><path class="cls-1" d="M65.47,105.25l-2.32-1.91,1.13-1.14,2.1,2.08A6,6,0,0,0,65.47,105.25Z"/><path class="cls-1" d="M35.12,86.93,34,86.24c-.49-.32-.65-.73-.3-.89a1.44,1.44,0,0,1,1.15,0c.33.17.51.63.76,1C35.46,86.48,35.29,86.7,35.12,86.93Z"/><path class="cls-1" d="M67.84,105.58c.51.27,1.43.48.88,1.21s-1.15.07-1.6-.43C67.35,106.1,67.6,105.84,67.84,105.58Z"/><path class="cls-1" d="M67.12,106.36l-1.65-1.12a6.35,6.35,0,0,1,.91-1,1.74,1.74,0,0,1,1.46,1.3C67.6,105.84,67.35,106.1,67.12,106.36Z"/><path class="cls-1" d="M59.3,107.26c-1.42.23-1.42.23-1.5-1.49C58.88,105.69,59.43,106.13,59.3,107.26Z"/><path class="cls-1" d="M46.85,94.57a1.76,1.76,0,0,1,1.49,1.27c-.24.26-.49.52-.73.79L46,95.56A4.5,4.5,0,0,1,46.85,94.57Z"/><path class="cls-1" d="M41.6,85.69l-1-1.45.72-.82c.56.37,1.12.74,1.69,1.1Z"/><path class="cls-1" d="M40.56,84.24l-1.32-1.45c.21-.26.42-.5.63-.74a1.56,1.56,0,0,1,1.41,1.37Z"/><path class="cls-1" d="M38.53,80.6a1.59,1.59,0,0,1,1.34,1.45c-.21.24-.42.48-.63.74L37.87,81.3Z"/><path class="cls-1" d="M37.87,81.3c-.46-.36-1.32-.75-.71-1.37s1.11,0,1.36.67Z"/><path class="cls-1" d="M33.06,80.52c.51.24,1.32.53.76,1.18s-1.07,0-1.4-.55Z"/><path class="cls-1" d="M105.18,289.54q.21,8.34.41,16.68a12.09,12.09,0,0,0,0,2.76c1.46,5.54.54,11.06,0,16.59-.3,3.22-.71,6.43-1.15,9.63,0,.26-.76.45-1.19.59-.11,0-.33-.26-.49-.41s-.43-.32-.46-.5a10.78,10.78,0,0,1-.3-2.75c.6-6,.26-12,.33-18.05a36.2,36.2,0,0,1,.07-4.17c.52-4.15.88-8.28,0-12.43a3.23,3.23,0,0,1-.06-1.38c1-4.15-.33-8.31.08-12.47a12.18,12.18,0,0,0-.36-3.43,40.56,40.56,0,0,1-1.08-7.53c0-.69-.67-1.13-1.44-1.18,0-.46.21-1,0-1.35a12.32,12.32,0,0,1-1.21-9.27c.36-1.74-.08-3.64-.13-5.47-.09-4.13-.43-8.28,1.18-12.24A20.46,20.46,0,0,0,101,241a5.11,5.11,0,0,1,2.48-2.16q.12,12.93.22,25.85a29.52,29.52,0,0,0,1,9.46c.62,1.88.31,4.07.43,6.12a3.2,3.2,0,0,0,1.31,2.3c.24,1.94.52,3.89-.7,5.65Z"/><path class="cls-1" d="M103.51,238.85A5.11,5.11,0,0,0,101,241a20.46,20.46,0,0,1-1.58,2.15c-.78.48-1.56,1-2.35,1.45s-1.24.07-1.37-.76c-.48-3-1-5.9-1.42-8.87a30.61,30.61,0,0,1,.33-9,70.2,70.2,0,0,0,.82-12.38c0-5.75.13-11.51.36-17.26a22.29,22.29,0,0,1,1.07-4.68,4.64,4.64,0,0,1,.69-1.13c.17.28.47.56.48.85a30,30,0,0,0,1.25,8.85,10.67,10.67,0,0,1,.14,4.78,18.83,18.83,0,0,0,0,6.78,25.05,25.05,0,0,1-.37,10.3c-.55,2.62.45,5,1.08,7.39.06.23.72.38,1.12.44,1.28.16,2.17.74,2.29,2.1C103.76,234.32,104.61,236.6,103.51,238.85Z"/><path class="cls-1" d="M96.84,153.15c-.08,2.76-.34,5.53-.2,8.28a66.79,66.79,0,0,1-.16,7.62c-.17,2.75.14,5.53.22,8.3,0,.16-.13.33-.21.49-.19-.13-.51-.23-.55-.4a43,43,0,0,1-1.43-8.85c-.23-5.32-.56-10.63-.31-16,0-.32.52-.62.8-.93a4.61,4.61,0,0,1,.4.5c.36.59.72,1.17,1.55,1.07Z"/><path class="cls-1" d="M85.65,254.83a12.21,12.21,0,0,1-3.32-.59c-2.2-1.09-4.58-2-6.22-4a.89.89,0,0,1-.16-.65c0-.15.28-.27.45-.36A1.31,1.31,0,0,1,77,249c3.77.38,7.09,1.59,9.17,5.06C86,254.35,85.84,254.59,85.65,254.83Z"/><path class="cls-1" d="M88.54,260.27c-2.49.34-4.48-.77-6.28-2.29a1.32,1.32,0,0,1-.19-1.15c.15-.49.66-.56,1.17-.31,1.43.7,2.92,1.32,4.28,2.16.47.29.61,1.12.9,1.71Z"/><path class="cls-1" d="M66.83,244.33a6.08,6.08,0,0,1,4.13,2c.15.17.36.51.31.57-.24.27-.55.66-.86.68-1.9.07-3.57-.41-4.46-2.33A11.13,11.13,0,0,0,66.83,244.33Z"/><path class="cls-1" d="M90,139a1.45,1.45,0,0,1-1.69-.22,5.09,5.09,0,0,1-1.93-3.11c.3-.26.57-.53.84-.81,1.65.93,2.26,2.53,2.71,4.23Z"/><path class="cls-1" d="M93.08,265.6c0-.08.12-.34.27-.4.72-.31,1.18.15,1.58.66a.71.71,0,0,1-.08,1.13.68.68,0,0,1-.53.09C93.72,266.79,93.11,266.48,93.08,265.6Z"/><path class="cls-1" d="M82.88,129.51c.32.22.75.37.92.68s-.07.65-.12,1c-.25-.21-.62-.37-.7-.63a3.38,3.38,0,0,1,0-1.14Z"/><path class="cls-1" d="M86.2,254.1c.38.25.76.49,1.12.76.17.13.45.4.41.49a.77.77,0,0,1-1.15.4,5.77,5.77,0,0,1-.93-.92C85.84,254.59,86,254.35,86.2,254.1Z"/><path class="cls-1" d="M90,139.11l.53,1.09c-.09-.19-.2-.38-.28-.58A3.8,3.8,0,0,1,90,139Z"/><path class="cls-1" d="M96.45,270.46c-.15-.13-.4-.25-.42-.4,0-.33-.08-.94.06-1,.83-.32.71.44.87.88Z"/><path class="cls-1" d="M94.11,146.13c-.46.25-.83.17-.89-.26,0-.2.25-.44.39-.65l.41,1Z"/><path class="cls-1" d="M88.42,260.39l1,.32-.55.51-.36-1Z"/><path class="cls-1" d="M86.42,135.69c-.13-.18-.28-.36-.4-.55-.3-.5-.2-1,.34-1.11.25,0,.6.55.9.85C87,135.16,86.72,135.43,86.42,135.69Z"/><path class="cls-1" d="M73.84,248.89l-.39-.36c.15-.09.36-.3.45-.26C74.46,248.51,74.42,248.74,73.84,248.89Z"/><path class="cls-1" d="M66,245.27c-.31-.23-.91-.49-.89-.69.06-.77.7-.62,1.23-.52a1.86,1.86,0,0,1,.54.28A12.77,12.77,0,0,1,66,245.27Z"/><path d="M103.76,196.39c.34-8.91-.85-17.74-1.4-26.6.19.11.49.19.57.36,1.86,4.1,2.21,5.67,2.21,9,0,2.49.13,5,.08,7.46q-.09,4.08-.45,8.13C104.72,195.3,104.11,195.83,103.76,196.39Z"/><path d="M103.83,214.49c-.34-.57-1-1.12-1-1.72a69.92,69.92,0,0,1-.11-15c.07-.56.73-1.06,1.11-1.58,0,3.38,0,6.76.06,10.14C103.89,209.08,103.85,211.78,103.83,214.49Z"/><path d="M102.43,169.94a6.84,6.84,0,0,1-.9-1.79A29.42,29.42,0,0,1,101,160c.38.19,1,.31,1.1.59a9.69,9.69,0,0,1,.42,2.62C102.52,165.48,102.46,167.71,102.43,169.94Z"/><path d="M105.8,288.23c1.22-1.76.94-3.71.7-5.65.32.28.86.53.92.86a17.59,17.59,0,0,1,.21,3.32C107.6,287.86,106.77,288.18,105.8,288.23Z"/><path d="M77.39,122.59a2.4,2.4,0,0,1-2.22-1.2,16.8,16.8,0,0,0-4.56-4.68c-.25-.21-.2-.79-.28-1.2,1,.3,2.1.55,3.11.92a3.87,3.87,0,0,1,2.67,2.69C76.41,120.33,78,121.06,77.39,122.59Z"/><path d="M96.91,139.27A2.18,2.18,0,0,1,94,137.81C95.48,137.24,96.25,138.14,96.91,139.27Z"/><path d="M70.45,115.63c-1.11.1-1.37-.64-1.52-1.5C70,114,70.36,114.71,70.45,115.63Z"/><path class="cls-1" d="M244.14,264.22a3.15,3.15,0,0,1,2.93-1c.28,0,.53.4.8.62-.15.15-.28.37-.46.45-.78.34-1.58.65-2.37,1Z"/><path class="cls-1" d="M245,265.3c-.59.3-1.18.61-1.77.89a1.42,1.42,0,0,1-1.75-.35l.14.1,0-1.49-.12.11,2.58-.34Z"/><path class="cls-1" d="M241.52,265.84c.11.36.38.78.28,1.08A3.88,3.88,0,0,1,241,268a10.48,10.48,0,0,1-1-.92,1.61,1.61,0,0,1,1.66-1.12Z"/><path d="M134.47,182.32a2.27,2.27,0,0,1-1.47,2.93C132.58,183.13,132.64,183,134.47,182.32Z"/><path class="cls-1" d="M179.05,246.48c-.12-1.09-1.14-1.29-1.79-1.85a.76.76,0,0,1-.2-.63c0-.11.34-.2.54-.23,2-.37,3.52.84,5.16,1.53a11,11,0,0,1,5.91,5.35l.08-.11h-2.87l.13.08a2.24,2.24,0,0,0-2.92-1.47l.12.1c-.72-2-2-3.17-4.3-2.89Z"/><path class="cls-1" d="M164.8,238.13l.56.74c-.2.09-.42.28-.6.26a13.13,13.13,0,0,1-2.51-.5c-.33-.11-.51-.67-.75-1,.39-.16.84-.54,1.15-.44A16.58,16.58,0,0,1,164.8,238.13Z"/><path class="cls-1" d="M174.13,243.1l-1.19-.16c.14-.1.27-.26.42-.28a1.31,1.31,0,0,1,.62.07C174.07,242.76,174.09,243,174.13,243.1Z"/><path class="cls-1" d="M170.7,245a2.07,2.07,0,0,1-1.95,0c-.56-.23-.68-.56-.23-1,.1-.11.4-.08.6,0a1.66,1.66,0,0,1,1.45,1.25Z"/><path class="cls-1" d="M170.57,245.07l1.16.49c-.26.16-.54.48-.76.43-.49-.09-.57-.52-.27-1Z"/><path d="M241.66,265.94a1.61,1.61,0,0,0-1.66,1.12c-.74.39-1.46.81-2.23,1.14a14.22,14.22,0,0,1-1.75.54c-.17-.35-.57-.92-.47-1,1.64-1.82,3.34-3.58,6.13-3.26C241.67,265,241.66,265.45,241.66,265.94Z"/><path d="M216.6,263.05a3.93,3.93,0,0,1-1.47,4.32c.08-1,.15-2.09.25-3.14C215.45,263.51,216,263.22,216.6,263.05Z"/><path d="M233.06,249c0-1.12.07-2.24.12-3.37a3.52,3.52,0,0,1,1.06-2.4l1.47,1-1.53,5.6Z"/><path d="M223.72,257.74a3.43,3.43,0,0,0,1.23-.26,8,8,0,0,1-.37,5.18c-.1.27-.72.35-1.1.53C222.89,261.34,223.65,259.56,223.72,257.74Z"/><path d="M222.09,268.76a9.26,9.26,0,0,1,.15-4.47c.14-.73.7-1,1.3-1.24.21.38.63.8.57,1.14a27.94,27.94,0,0,1-.94,3.92C223.07,268.41,222.46,268.55,222.09,268.76Z"/><path d="M234.24,243.26c.32-1.9,1.19-3.34,3.22-3.79l-.06-.06a1.78,1.78,0,0,1,.07,1.93c-.54,1-1.17,2-1.77,3Z"/><path d="M233.32,254.81h-1.5c0-1.14.05-2.28.09-3.43a2.8,2.8,0,0,1,1.15-2.35l1.12.87C233.9,251.54,233.61,253.17,233.32,254.81Z"/><path d="M224.87,257.62c0-.85,0-1.69,0-2.54a1.73,1.73,0,0,1,1.46-1.77c.14.18.39.35.41.54C227,255.52,226.76,257,224.87,257.62Z"/><path d="M220.71,272.92c-.71-2.45-.49-3.1,1.45-4.3a3.82,3.82,0,0,1-.3,3.85C221.71,272.74,221.11,272.78,220.71,272.92Z"/><path d="M241.55,235.21a.76.76,0,0,1-.31,1.15c-.39.22-.71,0-.53-.3s.62-.51.95-.76Z"/><path d="M237.46,239.47l.66-.93.38.77-1.1.1Z"/><path d="M142.75,167.14c-.41-1.7-.41-1.7,1.45-2.93C144.55,166.29,144.55,166.29,142.75,167.14Z"/><path d="M139.94,171.31a2.93,2.93,0,0,1,1.49-2.92c-.05.65-.05,1.31-.15,2A1.12,1.12,0,0,1,139.94,171.31Z"/><path d="M141.33,168.52c.18-.83.16-1.85,1.51-1.49C142.83,168,142.38,168.58,141.33,168.52Z"/><path d="M273.57,290.94c.15-.13.29-.33.47-.39,1.5-.53,2.93.16,3.83,1.82-.36.21-.78.66-1.07.58C275.55,292.61,274.12,292.44,273.57,290.94Z"/><path d="M277.78,292.3c1.72,0,1.72,0,1.47,1.5a3.11,3.11,0,0,1-.61,0C277.45,293.63,277.45,293.62,277.78,292.3Z"/><path d="M178.91,246.36c2.27-.28,3.58.86,4.3,2.89C180.67,249.13,179.62,248.42,178.91,246.36Z"/><path d="M185.88,250.54h2.87a7.11,7.11,0,0,0,.77,1.09,1.7,1.7,0,0,1,.64,1.8C187.66,253.32,186.48,252.52,185.88,250.54Z"/><path d="M183.09,249.15a2.24,2.24,0,0,1,2.92,1.47C184.14,251.21,183.55,250.91,183.09,249.15Z"/></g></g></svg>