<svg xmlns="http://www.w3.org/2000/svg" viewBox="0 0 72.04 172.73"><defs><style>.cls-1{fill:#fff;}</style></defs><title>Camera_1</title><g id="Laag_2" data-name="Laag 2"><g id="Laag_1-2" data-name="Laag 1"><path d="M288.9,264.92c.46.31.94.58,1.36.92a3.83,3.83,0,0,1,1.75,3.23c-.14,2.46-.28,4.92-.4,7.38-.08,1.57-.12,3.14-.16,4.71-.1,3,0,6-.33,9a60.14,60.14,0,0,1-1.92,9.37c-.56,1.92-1,4-2.78,5.43a4.68,4.68,0,0,0-1.37,1.94c-1.28,3.46-4.23,3.19-6.92,2.95-4.21-.37-8.39-1.14-12.59-1.64-1.9-.23-3.83-.23-5.74-.28-8.74-.24-17.31-1.8-25.93-3a10.54,10.54,0,0,0-3.07-.05,5.19,5.19,0,0,1-4.2-1.3,3.15,3.15,0,0,1-1.32-3.13c.85-5,.46-10,.8-15,.14-2,.89-3.9,1.19-5.87s.41-3.93.6-5.94c-1.28-.23-2.27-.44-3.26-.56-1.32-.17-1.86-1-2.16-2.2a10.86,10.86,0,0,0-1.08-3.1,10.32,10.32,0,0,1-1-8.1c1-4.35,2.14-8.69,3-13.07,1.77-8.53,3.13-17.12,4.16-25.78.92-7.85,2.18-15.67,3.33-23.5.79-5.37,1.69-10.73,2.47-16.11a53.69,53.69,0,0,1,4.17-14c1.25-2.85,2.41-5.75,3.55-8.65a45.16,45.16,0,0,1,11.31-16.75c3.1-2.88,6.64-4.85,11-4.49a16.32,16.32,0,0,1,11.81,6c1.31,1.61,2.6,3.25,4,4.77,2.89,3.08,4.29,6.88,5.42,10.81A48.93,48.93,0,0,0,287,166.2a18.48,18.48,0,0,1,1.14,5.6,88.7,88.7,0,0,1,.18,17.7c-.86,10.25-2.06,20.52-1.47,30.85.26,4.54.59,9.09,1,13.62.14,1.66.85,3.33.72,4.94a38.67,38.67,0,0,0,.64,9.73,26.64,26.64,0,0,1,.14,5.51c-.11,3.26-.34,6.51-.52,9.76A9.52,9.52,0,0,0,288.9,264.92Zm-8.31-3-.07-.06c1.44.63,2.88,1.26,4.7.76.19-1.53.49-3,.54-4.5.06-2.22-.1-4.45-.1-6.67a32.65,32.65,0,0,0-.78-7.82,39.33,39.33,0,0,1-.58-4.74c-.21-1.8-.43-3.6-.6-5l-3.57-1.28c-.05.92-.42,1.91-.08,2.35a6.62,6.62,0,0,1,1.19,4.65c-.05,2.47.16,2.47-2.1,3-.08,0-.1.27-.2.56,1.34.85,2.85,1.67,3,3.49-.78,1.62-1.94.38-2.93.38l-.73,6.67c2.43.65,2.43.65,1.89,2.54l-1.91-1.14c0,1.64-.06,3.05,0,4.45C278.36,261.16,278.7,261.46,280.59,261.91Zm-26-109.1c-1.79,0-1.89-.05-2.56,1.23-1.07,2.05-1.89,4.23-3,6.27a83,83,0,0,0-8.37,25.6c-1,5.91-1.89,11.82-2.9,17.72-.85,5-1.93,10.05-2.66,15.11a135.85,135.85,0,0,1-5.42,23.3c-1.86,5.6-3.85,11.15-5.79,16.72a5.08,5.08,0,0,0-.14,3.82c.87-.19,1.71-.43,2.56-.54,1.15-.15,2.83.23,3.36-.4.67-.81.61-2.39.56-3.63-.11-2.44,1-3.58,3.55-3.94a26.84,26.84,0,0,1,6.2.12c1.51.14,1.81.81,1.51,2.31-.11.51-.16,1-.23,1.56,3.77.36,4.6-.07,6.05-3,.25-.5.44-1,.72-1.51.95-1.71,3.89-2.38,5.35-1.14a3.67,3.67,0,0,0,3,1c.85-.12,1.74.05,2.62,0,1.1-.06,1.59.62,1.85,1.51a9.51,9.51,0,0,1,.08,1.42c.26,2,.92,2.54,3,2.24a8.18,8.18,0,0,1,5.07.57c1.65.81,3.58,1,5.77,1.63,0-3.18-.4-6.11.1-8.88.66-3.64.82-7.29,1.19-10.94.22-2.15.56-4.28.81-6.42.39-3.33.78-6.65,1.13-10,.12-1.19,0-2.41.19-3.59a81.19,81.19,0,0,0,.69-17.69A167.69,167.69,0,0,0,275,175.79c-.94-4.28-1.85-8.58-2.81-12.86-.69-3-1.44-6.05-2.16-9.08-.84-3.48-3.14-5.22-6.62-5.54-.32,0-.63-.13-.95-.15-2.25-.16-4.18.75-6.12,1.76C255.17,150.54,255.13,151.68,254.6,152.81Zm-20.74,111.6a11.77,11.77,0,0,0-2.3,6.23c-.35,2.84-.18,5.73-.39,8.59-.15,2.13-.57,4.24-.83,6.37-.16,1.25-.3,2.52-.36,3.78a53.2,53.2,0,0,1-.34,7.38,14.38,14.38,0,0,0,.2,5L232,302l8.31,1c3.64.44,7.27,1,10.92,1.3,4.93.41,9.87.56,14.8,1,3.56.28,7.1.79,10.95,1.23-.08-2,1.4-2,2.69-2.41.31-2,.52-4,.92-6a44,44,0,0,0,1.1-12.58,7.82,7.82,0,0,1,.11-1.67c.47-3.16,1-6.3,1.41-9.47.25-2,.88-4,.5-6.13-1.05-.22-1.9-.49-2.76.36a2.36,2.36,0,0,1-1.74.38,14.1,14.1,0,0,1-3.49-.75,13.18,13.18,0,0,0-7.37-.66,3.07,3.07,0,0,1-3-.94,3.28,3.28,0,0,0-1.75-1c-2.85-.37-5.71-.65-8.57-.87s-6-.44-9-.5c-2.33-.05-4.8-.32-6.55,1.87-.9-.3-1.79-.62-2.69-.9S234.83,264.69,233.86,264.41ZM260,145.12c1.75.13,3.15.53,4.39.24a4.35,4.35,0,0,1,3.83.63c1.12.83,2.5,1.6,3.11,2.75.75,1.39,1.36,2.64,2.92,3.24.84.32.91,1.07.47,1.8a6.93,6.93,0,0,1-.89,1c1.61,2.1,1.61,2.1,1.05,4.29l4.79,4.47L278.27,165l-2.66-1.48c1.41,7,2.89,13.5,4,20.07s1.94,13.38,2.78,19.3c1.08-4.59,1.8-15.06,1.06-17.73-.72.45-.23,2.14-1.75,1.72a17.5,17.5,0,0,1-.91-7.67c1.69,0,2,1.81,3.32,2.78a19.6,19.6,0,0,0,.22-2.6c-.18-3.34-.39-6.69-.65-10a13,13,0,0,0-1.7-5.69,9.5,9.5,0,0,1-.94-2.7,27,27,0,0,0-5.44-11.06c-1.25-1.55-2.7-2.92-4.06-4.39C268.53,142.21,264.09,141.94,260,145.12Zm24.4,155.24c1.87-1.29,2.86-2.66,2.78-4.54a13.38,13.38,0,0,1,1-5.35c1.07-2.85-.27-5.27-1.32-7.8a43.09,43.09,0,0,0-1.06,5.85,21.07,21.07,0,0,1-.56,4C284.45,295,284.74,297.5,284.44,300.36Zm-33.63-38.65,8.73.39a15.66,15.66,0,0,1-1.48-2.73,17.39,17.39,0,0,1-.4-3.2l-5.69.47C251.59,258.32,251.21,260,250.81,261.71ZM281.19,224a2.12,2.12,0,0,0,1.68-2.54c-.23-2.85-.42-5.7-.63-8.55l-.26,0c-.47,5.38-.93,10.77-1.38,16l2.15,1.94A5.74,5.74,0,0,0,281.19,224Zm-44.13,38.27c0-1.23-.29-2.19.06-2.79a4.5,4.5,0,0,0,.38-3.35c-2.06-.2-2.38-.09-2.67,1.46a41.69,41.69,0,0,0-.4,4.16ZM225.79,267c0,1.37.07,1.46.76,1.51,1.11.07,1.52-.47,1.4-1.51Zm37.36-5.38-.15.67c1.16.64,2.44.26,3.71,0ZM242.27,261l-.05.13h2.38v-.27Zm40-54.36h-.11v2.26h.11Z" transform="translate(-219.98 -137.28)"/><path class="cls-1" d="M233.86,264.41c1,.28,2,.55,2.94.85s1.79.6,2.69.9c1.75-2.19,4.22-1.92,6.55-1.87,3,.06,6,.27,9,.5s5.72.5,8.57.87a3.28,3.28,0,0,1,1.75,1,3.07,3.07,0,0,0,3,.94,13.18,13.18,0,0,1,7.37.66,14.1,14.1,0,0,0,3.49.75,2.36,2.36,0,0,0,1.74-.38c.86-.85,1.71-.58,2.76-.36.38,2.1-.25,4.11-.5,6.13-.4,3.17-.94,6.31-1.41,9.47a7.82,7.82,0,0,0-.11,1.67,44,44,0,0,1-1.1,12.58c-.4,1.95-.61,3.93-.92,6-1.29.38-2.77.39-2.69,2.41-3.85-.44-7.39-.95-10.95-1.23-4.93-.4-9.87-.55-14.8-1-3.65-.3-7.28-.86-10.92-1.3L232,302l-2.18-.26a14.38,14.38,0,0,1-.2-5,53.2,53.2,0,0,0,.34-7.38c.06-1.26.2-2.53.36-3.78.26-2.13.68-4.24.83-6.37.21-2.86,0-5.75.39-8.59A11.77,11.77,0,0,1,233.86,264.41Zm14.41,29.35a15.05,15.05,0,0,0,5.64,2.49,17.29,17.29,0,0,0,4.44.72c1.42-.1,2.29,1.88,3.85.71v-1c4.12-1.28,4.66-1.72,6-5,2.05-.05,2.53-1.49,2.79-3.35a21.07,21.07,0,0,1,1.39-5,13.71,13.71,0,0,0,1-5.35c0-.38,0-.9-.25-1.1-1.84-1.61-3.54-3.55-5.66-4.62a13.16,13.16,0,0,0-11.22-.67A76.74,76.74,0,0,0,244.89,277c-.17.1-.27.34-.41.51l1,1.13-.8,1.2a8.71,8.71,0,0,0,.19,9.35c1.07,1.5,2.15,3,3.22,4.46l-.63,0,.59,1,.33-.14Z" transform="translate(-219.98 -137.28)"/><path class="cls-1" d="M260,145.12c4-3.18,8.49-2.91,11.51.35,1.36,1.47,2.81,2.84,4.06,4.39a27,27,0,0,1,5.44,11.06,9.5,9.5,0,0,0,.94,2.7,13,13,0,0,1,1.7,5.69c.26,3.34.47,6.69.65,10a19.6,19.6,0,0,1-.22,2.6c-1.34-1-1.63-2.77-3.32-2.78a17.5,17.5,0,0,0,.91,7.67c1.52.42,1-1.27,1.75-1.72.74,2.67,0,13.14-1.06,17.73-.84-5.92-1.64-12.64-2.78-19.3s-2.6-13.08-4-20.07l2.66,1.48,1.44-1.42-4.79-4.47c.56-2.19.56-2.19-1.05-4.29a6.93,6.93,0,0,0,.89-1c.44-.73.37-1.48-.47-1.8-1.56-.6-2.17-1.85-2.92-3.24-.61-1.15-2-1.92-3.11-2.75a4.35,4.35,0,0,0-3.83-.63C263.19,145.65,261.79,145.25,260,145.12Zm19.55,26.52c-.28,2.09-.25,2.39.65,4,.37.66.68,1.62,1.73,1.2s.95-1.14.36-1.92a.85.85,0,0,1-.14-.44C281.92,172.22,281.92,172.22,279.59,171.64Zm-.33-1.58c1.11-.31,1.29-.93.78-1.79a2.08,2.08,0,0,0-3.05-.78Z" transform="translate(-219.98 -137.28)"/><path class="cls-1" d="M280.59,261.91c-1.89-.45-2.23-.75-2.32-2.4-.07-1.4,0-2.81,0-4.45l1.91,1.14c.54-1.89.54-1.89-1.89-2.54L279,247c1,0,2.15,1.24,2.93-.38-.15-1.82-1.66-2.64-3-3.49.1-.29.12-.54.2-.56,2.26-.54,2.05-.54,2.1-3a6.62,6.62,0,0,0-1.19-4.65c-.34-.44,0-1.43.08-2.35l3.57,1.28c.17,1.45.39,3.25.6,5a39.33,39.33,0,0,0,.58,4.74,32.65,32.65,0,0,1,.78,7.82c0,2.22.16,4.45.1,6.67-.05,1.49-.35,3-.54,4.5-1.82.5-3.26-.13-4.7-.77,1,0,1.86-.27,1.5-1.52-.28-1-.85-1.73-2.12-1.2Zm.88-8.29c.74-.73.79-1.31.28-1.82a1.44,1.44,0,0,0-2.09-.16Z" transform="translate(-219.98 -137.28)"/><path class="cls-1" d="M284.44,300.36c.3-2.86,0-5.37.83-7.84a21.07,21.07,0,0,0,.56-4,43.09,43.09,0,0,1,1.06-5.85c1.05,2.53,2.39,4.95,1.32,7.8a13.38,13.38,0,0,0-1,5.35C287.3,297.7,286.31,299.07,284.44,300.36Z" transform="translate(-219.98 -137.28)"/><path class="cls-1" d="M250.81,261.71c.4-1.76.78-3.39,1.16-5.07l5.69-.47a17.39,17.39,0,0,0,.4,3.2,15.66,15.66,0,0,0,1.48,2.73Z" transform="translate(-219.98 -137.28)"/><path class="cls-1" d="M281.19,224a5.74,5.74,0,0,1,1.56,6.8l-2.15-1.94c.45-5.2.91-10.59,1.38-16l.26,0c.21,2.85.4,5.7.63,8.55A2.12,2.12,0,0,1,281.19,224Z" transform="translate(-219.98 -137.28)"/><path class="cls-1" d="M237.06,262.27l-2.63-.52a41.69,41.69,0,0,1,.4-4.16c.29-1.55.61-1.66,2.67-1.46a4.5,4.5,0,0,1-.38,3.35C236.77,260.08,237.06,261,237.06,262.27Z" transform="translate(-219.98 -137.28)"/><path class="cls-1" d="M225.79,267H228c.12,1-.29,1.58-1.4,1.51C225.86,268.44,225.83,268.35,225.79,267Z" transform="translate(-219.98 -137.28)"/><path class="cls-1" d="M263.15,261.6l3.56.65c-1.27.28-2.55.66-3.71,0Z" transform="translate(-219.98 -137.28)"/><path class="cls-1" d="M242.27,261l2.32-.14v.27h-2.38Z" transform="translate(-219.98 -137.28)"/><path class="cls-1" d="M282.29,206.68v2.26h-.11v-2.26Z" transform="translate(-219.98 -137.28)"/><path d="M248.12,293.63c-1.07-1.49-2.15-3-3.22-4.46a8.71,8.71,0,0,1-.19-9.35l.8-1.2-1-1.13c.14-.17.24-.41.41-.51a76.74,76.74,0,0,1,11.38-5.45,13.16,13.16,0,0,1,11.22.67c2.12,1.07,3.82,3,5.66,4.62.23.2.24.72.25,1.1a13.71,13.71,0,0,1-1,5.35,21.07,21.07,0,0,0-1.39,5c-.26,1.86-.74,3.3-2.79,3.35-1.38,3.31-1.92,3.75-6,5v1c-1.56,1.17-2.43-.81-3.85-.71a17.29,17.29,0,0,1-4.44-.72,15.05,15.05,0,0,1-5.64-2.49Zm6.51-12.11c.38-.11.76-.21,1.13-.35,3.34-1.25,3.92-1,5.55,2.24a12.76,12.76,0,0,1,.88,2c1,3.4-2.45,7.58-5.92,7.19a7.82,7.82,0,0,1-6.39-6.5c-.16-1.51-.35-3-.53-4.52a10.12,10.12,0,0,0-2,3.85c-.7,3,1.49,4.88,3,6.94a5.46,5.46,0,0,0,4.17,2.09c1.27.09,2.55.22,3.82.25a7,7,0,0,0,7-7.38,28.58,28.58,0,0,1-.11-3.33,3.63,3.63,0,0,0-2-3.78,61.19,61.19,0,0,0-6.16-2.52,16.05,16.05,0,0,0-3-.4,11.87,11.87,0,0,0,0,2,22.88,22.88,0,0,0,.64,2.29l-1.32.06-.74-1.61c-1,3.18-.38,5.91.19,8.61a2.42,2.42,0,0,0,2.45,1.86,4.27,4.27,0,0,0,3.18-2.88,3.47,3.47,0,0,0-1-3.44c-.64-.45-1.19-.3-1.41.57.37.16.9.22,1,.49.29.58.67,1.37.48,1.87-.32.87-1.14.55-1.83.23a3,3,0,0,1-1.8-4.08C254.08,282.66,254.38,282.1,254.63,281.52Zm14.56-2.27c1.12-2,1.08-1.93-.2-3.35a8.44,8.44,0,0,0-4-2.49c-.91-.26-1.82-.56-2.7-.91-2.45-1-2.72-.92-4.4,1.11a41.65,41.65,0,0,1,6.05,2A40.35,40.35,0,0,1,269.19,279.25Z" transform="translate(-219.98 -137.28)"/><path d="M248.12,293.63l.15.13c0,.27.1.54.14.81l-.33.14-.59-1Z" transform="translate(-219.98 -137.28)"/><path d="M279.59,171.64c2.33.58,2.33.58,2.6,2.86a.85.85,0,0,0,.14.44c.59.78.64,1.53-.36,1.92s-1.36-.54-1.73-1.2C279.34,174,279.31,173.73,279.59,171.64Z" transform="translate(-219.98 -137.28)"/><path d="M279.26,170.06,277,167.49a2.08,2.08,0,0,1,3.05.78C280.55,169.13,280.37,169.75,279.26,170.06Z" transform="translate(-219.98 -137.28)"/><path d="M280.59,261.91l-.69-2.79c1.27-.53,1.84.23,2.12,1.2.36,1.25-.54,1.47-1.5,1.52Z" transform="translate(-219.98 -137.28)"/><path d="M281.47,253.62l-1.81-2a1.44,1.44,0,0,1,2.09.16C282.26,252.31,282.21,252.89,281.47,253.62Z" transform="translate(-219.98 -137.28)"/><path class="cls-1" d="M254.68,281.57a22.88,22.88,0,0,1-.64-2.29,11.87,11.87,0,0,1,0-2,16.05,16.05,0,0,1,3,.4,61.19,61.19,0,0,1,6.16,2.52,3.63,3.63,0,0,1,2,3.78,28.58,28.58,0,0,0,.11,3.33,7,7,0,0,1-7,7.38c-1.27,0-2.55-.16-3.82-.25a5.46,5.46,0,0,1-4.17-2.09c-1.52-2.06-3.71-4-3-6.94a10.12,10.12,0,0,1,2-3.85c.18,1.5.37,3,.53,4.52a7.82,7.82,0,0,0,6.39,6.5c3.47.39,6.92-3.79,5.92-7.19a12.76,12.76,0,0,0-.88-2c-1.63-3.26-2.21-3.49-5.55-2.24-.37.14-.75.24-1.13.35Z" transform="translate(-219.98 -137.28)"/><path class="cls-1" d="M269.19,279.25a40.35,40.35,0,0,0-5.22-3.63,41.65,41.65,0,0,0-6.05-2c1.68-2,1.95-2.09,4.4-1.11.88.35,1.79.65,2.7.91a8.44,8.44,0,0,1,4,2.49C270.27,277.32,270.31,277.29,269.19,279.25Z" transform="translate(-219.98 -137.28)"/><path class="cls-1" d="M254.63,281.52c-.25.58-.55,1.14-.74,1.73a3,3,0,0,0,1.8,4.08c.69.32,1.51.64,1.83-.23.19-.5-.19-1.29-.48-1.87-.13-.27-.66-.33-1-.49.22-.87.77-1,1.41-.57a3.47,3.47,0,0,1,1,3.44,4.27,4.27,0,0,1-3.18,2.88,2.42,2.42,0,0,1-2.45-1.86c-.57-2.7-1.16-5.43-.19-8.61l.74,1.61,1.32-.06Z" transform="translate(-219.98 -137.28)"/></g></g></svg>