<svg xmlns="http://www.w3.org/2000/svg" viewBox="0 0 69.05 75.3"><defs><style>.cls-1{fill:#fff;}</style></defs><title>Casette</title><g id="Laag_2" data-name="Laag 2"><g id="Laag_1-2" data-name="Laag 1"><path d="M244.28,557.4c.66.59,1,.94,1.5,1.34,1-.9.49-1.91.45-3.07-1-.18-1.92-.32-2.83-.52-1.32-.3-1.64-.93-1.25-2.25.26-.9.47-1.82.63-2.45a20.92,20.92,0,0,1-2.16-2.11,1.39,1.39,0,0,1,0-1.3c1.52-1.87,1.21-4.21,1.87-6.41a10.43,10.43,0,0,1-7-6.18c-1.53-3.51-1.8-7.09.15-10.6.27-.48.41-1,.66-1.53a4.89,4.89,0,0,1,2.65-2.58c2.28-.91,4.43-2.2,7.19-1.81-2.1-1.72-.41-3.63-.52-5.4a19.42,19.42,0,0,1,.25-2.12A1.86,1.86,0,0,1,247,508.5c1.6-.61,1.62-2,1.31-3.2-.65-2.51-.23-4.34,1.95-6.07a4.69,4.69,0,0,0,1.16-4.83c-.52-2,.15-2.83,2.23-2.65,1.82.15,3.63.41,5.45.47,3.82.12,7.65,0,11.46.23s7.74,1,11.62,1.42c2.45.29,5,.95,7.34.52a12.19,12.19,0,0,1,5.28.49,8.47,8.47,0,0,1,2.94,1.47,19.7,19.7,0,0,0,3.85,1.82c1.67.69,1.88,1,1.59,2.68-.81,4.84-1.71,9.68-2.46,14.53-.58,3.78-1,7.58-1.45,11.37-.22,1.66-.45,3.32-.7,5-.73,4.81-1.48,9.61-2.21,14.42a12.11,12.11,0,0,1-.37,2.36,21.06,21.06,0,0,0-1,9,20.24,20.24,0,0,1-.32,3.08,23.94,23.94,0,0,0-.24,3c.06,2.3-.41,2.74-2.72,3.24a15.53,15.53,0,0,1-5.69-.26q-1.74-.26-3.51-.39c-3.73-.28-7.5-.37-11.21-.86-5.92-.78-11.8-1.86-17.71-2.76-2.13-.33-4.31-.36-6.41-.8C244.57,561.25,244,560.28,244.28,557.4Zm56.92-55.72a4.8,4.8,0,0,0-.95-.46q-7.58-1.1-15.15-2.15c-.39-.06-.8,0-1.19-.05-2.53-.33-5.06-.62-7.57-1s-5.15-1.09-7.75-1.42c-4-.51-8.08-.83-12.13-1.21a2.1,2.1,0,0,0-2.31,1.56,13,13,0,0,0-.17,2.58,16.67,16.67,0,0,1,0,2.12c-.29,1.89-.74,3.76-1,5.65-.33,2.2-.94,4.43-.31,6.63.77,2.72.19,5.41-.14,8.05-.75,6.16-1.81,12.28-2.74,18.41-.36,2.35-1.15,4.68-.8,7.06.29,1.9-.29,3.62-.57,5.41-.21,1.33-.28,2.69-.58,4s-.79,2.53-1.27,4c3,.09,5.78.12,8.55.27a29.17,29.17,0,0,1,5.93.6,79.08,79.08,0,0,0,31.37,1.75,18.73,18.73,0,0,0,.91-7,39.46,39.46,0,0,1,.26-6.42c.18-1.9.56-3.78.83-5.67.25-1.73.4-3.48.7-5.21.55-3.13,1.23-6.24,1.74-9.38.29-1.72.24-3.5.53-5.22.85-4.94,1.81-9.86,2.68-14.79.25-1.41.34-2.85.54-4.27S301,502.9,301.2,501.68ZM246.26,521c-7.32-.18-9.6,1.43-10.39,8-.46,3.79,2.51,8.38,8.69,9.05A51.58,51.58,0,0,0,246.26,521Zm2.71-2.1c-1,2.64-3,20.44-2.59,22.48,1.1.5,1.82.21,2.06-1,.12-.62.22-1.25.3-1.87a40.71,40.71,0,0,1,.77-5.67c1.21-4.36,1.24-8.82,1.55-13.26,0-.2-.17-.42-.29-.73Zm3.5-16.43-2.77.56v5.44C251.48,508.12,251.75,507.5,252.47,502.43Zm-5.28,42-3.93-.2-.31,2.19C247,548,247.2,547.88,247.19,544.46Zm-3.43,8.78,3.16.67c.16-1.31.28-2.34.42-3.54l-3.29-.31Zm8.61-54.76.44.08.51-2.84-.39-.07Z" transform="translate(-234.23 -491.73)"/><path class="cls-1" d="M301.2,501.68c-.19,1.22-.42,2.51-.6,3.81s-.29,2.86-.54,4.27c-.87,4.93-1.83,9.85-2.68,14.79-.29,1.72-.24,3.5-.53,5.22-.51,3.14-1.19,6.25-1.74,9.38-.3,1.73-.45,3.48-.7,5.21-.27,1.89-.65,3.77-.83,5.67a39.46,39.46,0,0,0-.26,6.42,18.73,18.73,0,0,1-.91,7A79.08,79.08,0,0,1,261,561.71a29.17,29.17,0,0,0-5.93-.6c-2.77-.15-5.55-.18-8.55-.27.48-1.48,1-2.72,1.27-4s.37-2.67.58-4c.28-1.79.86-3.51.57-5.41-.35-2.38.44-4.71.8-7.06.93-6.13,2-12.25,2.74-18.41.33-2.64.91-5.33.14-8.05-.63-2.2,0-4.43.31-6.63.28-1.89.73-3.76,1-5.65a16.67,16.67,0,0,0,0-2.12,13,13,0,0,1,.17-2.58,2.1,2.1,0,0,1,2.31-1.56c4.05.38,8.1.7,12.13,1.21,2.6.33,5.16,1,7.75,1.42s5,.7,7.57,1c.39.05.8,0,1.19.05q7.57,1.06,15.15,2.15A4.8,4.8,0,0,1,301.2,501.68Zm-13.13,48.09c-.09-2.26-.26-4.39-.23-6.51.06-4.24-1.91-7.52-4.82-10.3a6.73,6.73,0,0,0-2.76-1.35c-2.23-.64-4.5-1.12-6.75-1.67a12.91,12.91,0,0,0-8.62,1c-5,2.33-7.22,6.79-6.55,12.35a9.4,9.4,0,0,1,0,1.19,13.08,13.08,0,0,0,1.67,6.39,16.39,16.39,0,0,1,1.71,4.43c1.08,5.36,5,8.24,10.43,7.27,3.45-.63,6.9-1.32,10.28-2.24a8.53,8.53,0,0,0,6.11-5.29c.9-2.39,1.79-4.79,2.54-7.23a7.66,7.66,0,0,0,.23-3c-.18-1.81-.51-3.6-.83-5.4a12.07,12.07,0,0,0-.74-3.19c-2-4-4.67-7.43-9-9.19-.34-.14-.66-.36-1.42-.79a22.78,22.78,0,0,1,2.52-.25,6.1,6.1,0,0,0,3.86-1.51c2.39-1.69,3.13-4.11,3.83-6.66,1.4-5.1-1.94-12.05-8.17-12.65a13.66,13.66,0,0,1-1.87-.43,9,9,0,0,0-8.55,1.75c-2.63,2.28-5.2,4.75-4.8,8.61a19.12,19.12,0,0,0,1.75,5.41c1.87,4.28,5.25,6.9,9.61,8.4,5.8,2,10.07,5.45,11,12a2.76,2.76,0,0,0,.17.7A9.48,9.48,0,0,1,288.07,549.77Z" transform="translate(-234.23 -491.73)"/><path class="cls-1" d="M246.26,521a51.58,51.58,0,0,1-1.7,17c-6.18-.67-9.15-5.26-8.69-9.05C236.66,522.39,238.94,520.78,246.26,521Z" transform="translate(-234.23 -491.73)"/><path class="cls-1" d="M249,518.86l1.8-.09c.12.31.3.53.29.73-.31,4.44-.34,8.9-1.55,13.26a40.71,40.71,0,0,0-.77,5.67c-.08.62-.18,1.25-.3,1.87-.24,1.25-1,1.54-2.06,1C245.94,539.3,248,521.5,249,518.86Z" transform="translate(-234.23 -491.73)"/><path class="cls-1" d="M252.47,502.43c-.72,5.07-1,5.69-2.77,6V503Z" transform="translate(-234.23 -491.73)"/><path class="cls-1" d="M247.19,544.46c0,3.42-.22,3.51-4.24,2l.31-2.19Z" transform="translate(-234.23 -491.73)"/><path class="cls-1" d="M243.76,553.24l.29-3.18,3.29.31c-.14,1.2-.26,2.23-.42,3.54Z" transform="translate(-234.23 -491.73)"/><path class="cls-1" d="M252.37,498.48l.56-2.83.39.07-.51,2.84Z" transform="translate(-234.23 -491.73)"/><path d="M288.07,549.77a9.48,9.48,0,0,0,.61-8.19,2.76,2.76,0,0,1-.17-.7c-.9-6.52-5.17-10-11-12-4.36-1.5-7.74-4.12-9.61-8.4a19.12,19.12,0,0,1-1.75-5.41c-.4-3.86,2.17-6.33,4.8-8.61a9,9,0,0,1,8.55-1.75,13.66,13.66,0,0,0,1.87.43c6.23.6,9.57,7.55,8.17,12.65-.7,2.55-1.44,5-3.83,6.66a6.1,6.1,0,0,1-3.86,1.51,22.78,22.78,0,0,0-2.52.25c.76.43,1.08.65,1.42.79,4.33,1.76,7,5.16,9,9.19a12.07,12.07,0,0,1,.74,3.19c.32,1.8.65,3.59.83,5.4a7.66,7.66,0,0,1-.23,3c-.75,2.44-1.64,4.84-2.54,7.23a8.53,8.53,0,0,1-6.11,5.29c-3.38.92-6.83,1.61-10.28,2.24-5.4,1-9.35-1.91-10.43-7.27a16.39,16.39,0,0,0-1.71-4.43,13.08,13.08,0,0,1-1.67-6.39,9.4,9.4,0,0,0,0-1.19c-.67-5.56,1.56-10,6.55-12.35a12.91,12.91,0,0,1,8.62-1c2.25.55,4.52,1,6.75,1.67A6.73,6.73,0,0,1,283,533c2.91,2.78,4.88,6.06,4.82,10.3C287.81,545.38,288,547.51,288.07,549.77ZM274.5,509.21c3.75-1.57,7.66,1.67,8.83,6.51.86,3.58-1.86,6.63-6.84,7.9a16.49,16.49,0,0,0,3.6.7A5.07,5.07,0,0,0,284.8,522c2.29-3.2,2.51-6.91.56-9.86-2.49-3.78-5.71-3.94-9.69-3.7-.38,0-.74.52-1.13.79-3.07.08-4.33,2.2-5.51,5,1.56-.64,1.92.14,2.1,1.23.13.79.36,1.56.54,2.34.63-.36,1-.84.93-1-1.24-1.94.23-3.66.46-5.46C273.15,510.56,274,509.91,274.5,509.21Zm-11.9,43.17c-.76,5.35,4.5,9.41,9,9.19,4.17-.19,7.92-1.83,11.57-3.53A6.71,6.71,0,0,0,287,552a11.18,11.18,0,0,0-.87,1.64c-1.05,2-2.37,3.69-4.67,4.14-2.8.55-5.64,1-8.47,1.3a6.71,6.71,0,0,1-2.76-.53,15.1,15.1,0,0,1-3.05-1.34c-2-1.17-3.91-2.4-4.59-4.81a19.05,19.05,0,0,1-.57-9.68c.41-2.34,1.87-4.19,3.29-6,1.07-1.37,2.84-1.35,4.35-1.76,4.31-1.14,8.28-.61,11.36,2.9,1.46,1.65,2.93,3.5,2.74,5.9a44,44,0,0,1-1,5.9c-.73,3.45-4,6.46-7.22,6.64.52-2,2.29-2.86,3.68-4a6.58,6.58,0,0,0,2.39-3.72,36.56,36.56,0,0,0,.7-4,2.77,2.77,0,0,0-.17-1.4c-1.1-2.59-2.69-4.7-5.55-5.56a13.93,13.93,0,0,0-7.33-.3,4.93,4.93,0,0,0-3.32,2.51,14.55,14.55,0,0,0-1.62,7.39,10,10,0,0,0,6.19,9,11.4,11.4,0,0,0,8.59-.07c4.25-1.56,6.6-4.75,6.39-9.24-.06-1.36-.08-2.72-.21-4.07a9.75,9.75,0,0,0-5.52-8.38A18.51,18.51,0,0,0,268,532.6c-4.06.75-8.31,5.27-8.15,9.17a35.15,35.15,0,0,0,.82,6.63A19.85,19.85,0,0,0,262.6,552.38Zm14.09-33.66-.49.31c.15.38.24,1,.47,1.08a4.64,4.64,0,0,0,2.27.14,3.45,3.45,0,0,0,2.37-4.32c-.75-2.57-3.31-4.7-5.12-4.26l-.22.08c-1,.41-2.79,3.81-2.42,4.86.25.74.11,1.88,1.14,1.95a10.23,10.23,0,0,0,2-1.67c.43-.61.1-1.84,1.62-1.71a4,4,0,0,0,0,1.51c.89,1.83.93,1.81-.84,2.94Z" transform="translate(-234.23 -491.73)"/><path class="cls-1" d="M262.61,552.35a18.44,18.44,0,0,1-2-4,35.15,35.15,0,0,1-.82-6.63c-.16-3.9,4.09-8.42,8.15-9.17a18.51,18.51,0,0,1,11.82,1.87,9.75,9.75,0,0,1,5.52,8.38c.13,1.35.15,2.71.21,4.07.21,4.49-2.14,7.68-6.39,9.24a11.4,11.4,0,0,1-8.59.07,10,10,0,0,1-6.19-9,14.55,14.55,0,0,1,1.62-7.39,4.93,4.93,0,0,1,3.32-2.51,13.93,13.93,0,0,1,7.33.3c2.86.86,4.45,3,5.55,5.56a2.77,2.77,0,0,1,.17,1.4,36.56,36.56,0,0,1-.7,4,6.58,6.58,0,0,1-2.39,3.72c-1.39,1.1-3.16,2-3.68,4,3.18-.18,6.49-3.19,7.22-6.64a44,44,0,0,0,1-5.9c.19-2.4-1.28-4.25-2.74-5.9-3.08-3.51-7-4-11.36-2.9-1.51.41-3.28.39-4.35,1.76-1.42,1.82-2.88,3.67-3.29,6a19.05,19.05,0,0,0,.57,9.68Zm11.24-6.57h0l-.46,1.61h-3.09l2.26,1.89a18.27,18.27,0,0,1-2.63,0,25.54,25.54,0,0,1-2.73-.84c.47,1,.76,1.56,1,2.13a5.27,5.27,0,0,0,9.78-.35c.44-1.45.93-2.88,1.31-4.35a4.64,4.64,0,0,0-2.76-5.39,29.52,29.52,0,0,0-3.18-1,4.58,4.58,0,0,0-5.71,3.92c-.11,1.38,0,2.78,0,4.74l3.23-2.59C271.63,547,272.79,545.84,273.85,545.78Z" transform="translate(-234.23 -491.73)"/><path class="cls-1" d="M274.56,509.25c.37-.28.73-.78,1.11-.8,4-.24,7.2-.08,9.69,3.7,1.95,3,1.73,6.66-.56,9.86a5.07,5.07,0,0,1-4.71,2.31,16.49,16.49,0,0,1-3.6-.7c5-1.27,7.7-4.32,6.84-7.9-1.17-4.84-5.08-8.08-8.83-6.51Z" transform="translate(-234.23 -491.73)"/><path class="cls-1" d="M262.6,552.38c.68,2.41,2.63,3.64,4.59,4.81a15.1,15.1,0,0,0,3.05,1.34,6.71,6.71,0,0,0,2.76.53c2.83-.32,5.67-.75,8.47-1.3,2.3-.45,3.62-2.19,4.67-4.14A11.18,11.18,0,0,1,287,552a6.71,6.71,0,0,1-3.88,6.06c-3.65,1.7-7.4,3.34-11.57,3.53-4.46.22-9.72-3.84-8.95-9.2C262.61,552.35,262.6,552.38,262.6,552.38Z" transform="translate(-234.23 -491.73)"/><path class="cls-1" d="M276.69,518.72l.84.91c1.77-1.13,1.73-1.11.84-2.94a4,4,0,0,1,0-1.51c-1.52-.13-1.19,1.1-1.62,1.71a10.23,10.23,0,0,1-2,1.67c-1-.07-.89-1.21-1.14-1.95-.37-1.05,1.42-4.45,2.42-4.86l.22-.08c1.81-.44,4.37,1.69,5.12,4.26a3.45,3.45,0,0,1-2.37,4.32,4.64,4.64,0,0,1-2.27-.14c-.23-.06-.32-.7-.47-1.08Zm-.71-4.21h-.6c.06.34.11.68.2,1a1.22,1.22,0,0,0,.38,0C276,515.16,276,514.84,276,514.51Z" transform="translate(-234.23 -491.73)"/><path class="cls-1" d="M274.5,509.21c-.5.7-1.35,1.35-1.44,2.09-.23,1.8-1.7,3.52-.46,5.46.11.17-.3.65-.93,1-.18-.78-.41-1.55-.54-2.34-.18-1.09-.54-1.87-2.1-1.23,1.18-2.76,2.44-4.88,5.52-5Z" transform="translate(-234.23 -491.73)"/><path d="M273.85,545.78c-1.06.06-2.22,1.17-3.05-.29l-3.23,2.59c0-2-.09-3.36,0-4.74a4.58,4.58,0,0,1,5.71-3.92,29.52,29.52,0,0,1,3.18,1,4.64,4.64,0,0,1,2.76,5.39c-.38,1.47-.87,2.9-1.31,4.35a5.27,5.27,0,0,1-9.78.35c-.23-.57-.52-1.12-1-2.13a25.54,25.54,0,0,0,2.73.84,18.27,18.27,0,0,0,2.63,0l-2.26-1.89h3.09c.18-.63.32-1.12.44-1.61,1-1.71,1.47-1.59,2.84.73.11-.1.3-.19.32-.31.3-1.61-.45-2.82-2.25-3.66-1.31-.62-3.48-.37-4.24.49-.54.61-.31,1.25.57,1.6S272.91,545.4,273.85,545.78Zm2.36,2.16a19.75,19.75,0,0,0-2.34,1.45c-.26.21-.28.82-.23,1.22,0,.12.69.28,1,.21C276,550.52,276.45,549.64,276.21,547.94Z" transform="translate(-234.23 -491.73)"/><path d="M276,514.51c0,.33,0,.65,0,1a1.22,1.22,0,0,1-.38,0c-.09-.33-.14-.67-.2-1Z" transform="translate(-234.23 -491.73)"/><path class="cls-1" d="M273.85,545.78c-.94-.38-1.88-.78-2.82-1.15s-1.11-1-.57-1.6c.76-.86,2.93-1.11,4.24-.49,1.8.84,2.55,2.05,2.25,3.66,0,.12-.21.21-.32.31-1.37-2.32-1.82-2.44-2.84-.73Z" transform="translate(-234.23 -491.73)"/><path class="cls-1" d="M276.21,547.94c.24,1.7-.24,2.58-1.56,2.88-.32.07-1-.09-1-.21-.05-.4,0-1,.23-1.22A19.75,19.75,0,0,1,276.21,547.94Z" transform="translate(-234.23 -491.73)"/></g></g></svg>