<svg xmlns="http://www.w3.org/2000/svg" xmlns:xlink="http://www.w3.org/1999/xlink" viewBox="0 0 150.46 60.58"><defs><style>.cls-1{fill:none;}.cls-2{clip-path:url(#clip-path);}</style><clipPath id="clip-path" transform="translate(-387.12 -759.24)"><rect class="cls-1" width="612.48" height="821.76"/></clipPath></defs><title>Geluidsfrequentie</title><g id="Laag_2" data-name="Laag 2"><g id="Laag_1-2" data-name="Laag 1"><g class="cls-2"><path d="M501.09,802l-3.28.34c.18-2.84,1.05-5.36.61-8.38-2.09,2.17-3.18,5.24-6.83,4.11-.1-1.09-.21-2.17-.32-3.37-1.48.82-2.91,1.54-4.66.65-.48-2,.13-4.25-.89-6.51a11.92,11.92,0,0,1-1.9,1.68,7.83,7.83,0,0,1-2.61.88,1.45,1.45,0,0,1-1.66-1.38,4.94,4.94,0,0,0-.1-.95c-.24-.62-.57-1.2-.86-1.8a5.44,5.44,0,0,0-1.5.9,2.12,2.12,0,0,1-2.61.43,2,2,0,0,1-1.48-2c0-1.16-.22-2.32-.37-3.72-.85.27-1.34.45-1.85.58a7.19,7.19,0,0,1-2.32.46,27.37,27.37,0,0,0-5.43-.21,2.84,2.84,0,0,1-2.16-.79c-1.12-1.45-2.71-1.56-4.24-1.93a59.68,59.68,0,0,1-6.68-1.79,27.07,27.07,0,0,0-6.42-1.77c-1.66-.2-3.28-.7-4.92-1-.76-.15-1.54-.23-2.44-.35-.62,2.12-2.63,3.33-2.64,5.63,0,.78-1.71,1.61-2.75,1.43a13.25,13.25,0,0,1-2.14-.73c1.55-4.15,1.32-8.35,1.45-13.1-1.29,1.88-2.27,3.28-3.21,4.71-1,1.59-2.48,1.81-4.29,1.35v-3.67a8.5,8.5,0,0,1-3.76-2.53,12.77,12.77,0,0,0-4.93-3,28.28,28.28,0,0,0-5.65-1,88,88,0,0,1-13.14-2.59c-2.36-.72-4.77-1.26-7.15-1.91a3.88,3.88,0,0,1-.84-.42c1.05-1.11,1.83-1.29,3.55-.85,1.93.49,3.87.95,5.77,1.51a99.73,99.73,0,0,0,17.34,3.55,9.44,9.44,0,0,1,5,2c1.43,1.13,3,1.87,4.95.13l2.19,4.57c.76-1.31,1.41-2.52,2.14-3.69a10.63,10.63,0,0,1,1.72-2.26c1.05-1,1.75-.92,2.62.19a6.14,6.14,0,0,1,1,2.12,8.06,8.06,0,0,1,.09,1.91c.1,3.91-.51,3.54,3.57,4.64,2.76.74,5.65,1,8.46,1.63a23,23,0,0,1,4.77,1.44,22.61,22.61,0,0,0,8.28,2.23,8.83,8.83,0,0,1,2.35.4c1.77.61,3.41,1.47,5.44,1.31,1-.08,2.05.77,3.25,1.27,1.3-.56,2.44-2.14,4.4-1.18,1.71.85,2,2.63,2.89,4.1,2.74-.58,4.58.86,6.19,2.86a5.18,5.18,0,0,0,1.08-.69c1.77-2,3.39-1.24,4.9.8a26.82,26.82,0,0,1,1.34,2.41c.38-.67.59-1.08.83-1.48.39-.62.81-1.29,1.69-1s2,.76,2.05,2.05c0,1.56,0,3.12,0,4.67l.46.11,1.26-3.25a3.72,3.72,0,0,1,.48-1.09c.57-.6,1.22-1.55,1.84-1.55a2.86,2.86,0,0,1,2,1.43A14.67,14.67,0,0,1,502,794c1.06-.52,1.25-1.62,1.8-2.42a14,14,0,0,0,.66-1.28c.41-.76.75-1.67,1.84-1.6a2.63,2.63,0,0,1,1.89,2.47c0,1.36-.11,2.72-.17,4.07,0,.46,0,.92,0,1.5,1.71-3.61,1.71-3.61,3.23-4.74a3.28,3.28,0,0,1,2,3.84c-.29,2.18-.4,4.39-.63,7,.65-.48,1-.6,1.11-.82,1.46-2.36,2.91-4.74,4.35-7.12.53-.88.89-2,2.16-2,.85,0,1.79,1.35,2.07,2.66.86,4.11.61,8.27.61,12.42,0,1.65.11,3.31.17,5l.51.1a12.33,12.33,0,0,0,.77-1.25,35.44,35.44,0,0,1,5.21-8.27,18.55,18.55,0,0,0,4-7c.54-1.9,1.87-2.63,4-2.91a17.4,17.4,0,0,1-.42,3.57,18.08,18.08,0,0,1-3.61,6.69c-.49.53-1,1-1.46,1.59a20.42,20.42,0,0,0-4.7,8,19.27,19.27,0,0,1-2.61,5.08c-.81,1.22-2.23,1.35-3.61,1.16a1.93,1.93,0,0,1-.19-.51c-.36-4.29-.76-8.57-1-12.86-.11-1.66.1-3.34.14-5,0-1,0-2,0-3.46-1.89,1.2-2.37,2.85-3.29,4.15s-2,2.9-2.87,4.42a37.71,37.71,0,0,0-2.2,4.52c-.63,1.54-1.08,3.16-1.67,4.93l-2.31.32c.58-4.59,1.11-8.84,1.64-13.1l-.56-.16a25.36,25.36,0,0,0-1,2.88c-.54,2.35-.71,2.54-3.15,2.52a2.73,2.73,0,0,1-.67-.13c.34-4.37.68-8.63,1-12.89l-.62-.17Z" transform="translate(-387.12 -759.24)"/></g></g></g></svg>