<svg xmlns="http://www.w3.org/2000/svg" viewBox="0 0 99.97 74.29"><defs><style>.cls-1{fill:#fff;}</style></defs><title>Hallo</title><g id="Laag_2" data-name="Laag 2"><g id="Laag_1-2" data-name="Laag 1"><path d="M269.33-98.29c3,.43,6,.79,9,1.3,1.88.32,3.71.95,5.6,1.26a19.93,19.93,0,0,1,7.81,3.47,87.49,87.49,0,0,1,15.55,13.45q4.71,5.1,9.4,10.22a10.66,10.66,0,0,1,1.21,1.49c3,4.87,6.23,9.67,9,14.67s5.84,10.08,10.47,13.86a22,22,0,0,1,2.44,3c1.34,1.58.63,2.43-.74,3.57-.34.29-1.42.09-1.9-.25A10.71,10.71,0,0,0,327-33.48c-6.64,2.28-13.31,4.45-19.82,7.14A30.58,30.58,0,0,1,290-24.5a81.49,81.49,0,0,1-29-11A78.82,78.82,0,0,1,249-45a28.25,28.25,0,0,1-7.71-12.79c-1-3.46-.73-7-.48-10.49A31.34,31.34,0,0,1,244.66-82a25.87,25.87,0,0,1,8.81-9.31c2.64-1.65,5.25-3.36,8-4.74C263.91-97.29,266.44-98.4,269.33-98.29ZM333.91-37.4l.17-.44c-.68-.75-1.34-1.52-2.05-2.25a65.71,65.71,0,0,1-8.6-11.49c-3-4.74-6.06-9.39-9.13-14.07a12.8,12.8,0,0,0-1.37-1.67c-2.46-2.62-4.86-5.3-7.43-7.81-3-3-6.12-5.83-9.33-8.59-2.24-1.92-4.71-3.56-7.07-5.35a21.68,21.68,0,0,0-11.52-4.17c-2.23-.2-4.46-.26-6.68-.51-4.45-.49-8.59.06-12.21,3-2.17,1.76-4.52,3.3-6.63,5.14-3.21,2.79-5.56,6.2-6.14,10.54-.4,3.08-.58,6.19-.86,9.28A16.22,16.22,0,0,0,249-54a40.79,40.79,0,0,0,10.93,10c1,.61,1.95,1.4,3,2,2.65,1.46,5.31,2.9,8,4.25,1.35.68,2.8,1.15,4.21,1.73,2.8,1.16,5.56,2.41,8.4,3.47,9.05,3.41,18.08,2.35,27.05-.34,5.12-1.53,10.16-3.34,15.28-4.9a10.5,10.5,0,0,1,3.76-.2C331.07-38,332.48-37.63,333.91-37.4Z" transform="translate(-240.58 98.29)"/><path class="cls-1" d="M333.91-37.4c-1.43-.23-2.84-.57-4.27-.66a10.5,10.5,0,0,0-3.76.2c-5.12,1.56-10.16,3.37-15.28,4.9-9,2.69-18,3.75-27.05.34-2.84-1.06-5.6-2.31-8.4-3.47-1.41-.58-2.86-1-4.21-1.73-2.71-1.35-5.37-2.79-8-4.25-1.05-.58-2-1.37-3-2A40.79,40.79,0,0,1,249-54a16.22,16.22,0,0,1-3.93-11.78c.28-3.09.46-6.2.86-9.28.58-4.34,2.93-7.75,6.14-10.54,2.11-1.84,4.46-3.38,6.63-5.14,3.62-2.93,7.76-3.48,12.21-3,2.22.25,4.45.31,6.68.51a21.68,21.68,0,0,1,11.52,4.17c2.36,1.79,4.83,3.43,7.07,5.35,3.21,2.76,6.31,5.64,9.33,8.59,2.57,2.51,5,5.19,7.43,7.81a12.8,12.8,0,0,1,1.37,1.67c3.07,4.68,6.16,9.33,9.13,14.07A65.71,65.71,0,0,0,332-40.09c.71.73,1.37,1.5,2.05,2.25ZM278.23-69.09a14.52,14.52,0,0,0-.9-3c-1.34-2.62-5.48-4.33-8.11-1.89-1.11,1-2.38,1.87-3.46,2.93s-1.78,2.32-1.2,3.87,1.21,3.06,1.91,4.54c1.08,2.3,1.16,2.31,3.61,2.09.48,0,1-.06,1.43-.13C274.8-61.21,278.27-65.21,278.23-69.09Zm29,30.61c3.1-2.13,4.49-5.32,6.29-8.2a4.28,4.28,0,0,0,0-5l-2.7,3-2.94-1.44c.66-2,1.58-3.8-.21-5.62l-.84,1c-2.23,2.9-3.26,6.6-6.18,9.06-.85.72-.43,1.7.24,2.32a6.28,6.28,0,0,0,1.83.84l3.64-5.55,3.34,2.4c-1.08,1.14-1.93,2.06-2.79,3C305.42-41.24,305.58-39.58,307.21-38.48ZM295-61.43l-.81-.27a11.18,11.18,0,0,0-1.38,2.56,29,29,0,0,1-3.14,8.22c-.45.75-.82,1.61-.09,2.43a2.22,2.22,0,0,0,2.84.52,35,35,0,0,0,3.65-2.24c1.86-1.26,3.63-2.65,5.52-3.87,2-1.3,2.22-3,.19-5.16-1.7,3.15-4.11,4.66-7.88,3a18,18,0,0,0,.86-2.46A20.66,20.66,0,0,0,295-61.43Zm-7.86-7.63c-.3.1-.5.1-.58.2-2.49,2.89-5,5.77-7.44,8.7-1,1.18-.88,2.74.21,4.38,2-1.95,4-3.85,6-5.83a14.09,14.09,0,0,0,2.05-2.63A4.34,4.34,0,0,0,287.14-69.06Zm-2.65,17a8.21,8.21,0,0,0,.86-.79c2.07-2.83,4.18-5.63,6.16-8.53a9.3,9.3,0,0,0,1.07-2.88,2.62,2.62,0,0,0-.7-2.55c-.29.14-.47.17-.56.28a70.35,70.35,0,0,0-7.21,11.26A2.37,2.37,0,0,0,284.49-52.1ZM262.87-77.24c-2.51,2.65-5.4,4.73-7.23,7.84a2.21,2.21,0,0,0,.56,2.92c.84-1.08,1.65-2.13,2.47-3.17,1.23-1.55,2.5-3.08,3.69-4.67C262.9-75,263.62-75.8,262.87-77.24Zm4.85-6.43c-2.48.84-2.69,1.76-.92,3.8Z" transform="translate(-240.58 98.29)"/><path d="M278.23-69.09c0,3.88-3.43,7.88-6.72,8.36-.47.07-.95.09-1.43.13-2.45.22-2.53.21-3.61-2.09-.7-1.48-1.34-3-1.91-4.54s.15-2.83,1.2-3.87S268.11-73,269.22-74c2.63-2.44,6.77-.73,8.11,1.89A14.52,14.52,0,0,1,278.23-69.09ZM267.87-65a7.84,7.84,0,0,0,2.6.21,7.6,7.6,0,0,0,4.84-4,2.35,2.35,0,0,0-.54-3,2.26,2.26,0,0,0-2.86-.35c-2,1.15-4,2.33-3.78,5.18A11.24,11.24,0,0,1,267.87-65Z" transform="translate(-240.58 98.29)"/><path d="M307.21-38.48c-1.63-1.1-1.79-2.76-.36-4.27.86-.9,1.71-1.82,2.79-3l-3.34-2.4-3.64,5.55a6.28,6.28,0,0,1-1.83-.84c-.67-.62-1.09-1.6-.24-2.32,2.92-2.46,4-6.16,6.18-9.06l.84-1c1.79,1.82.87,3.59.21,5.62l2.94,1.44,2.7-3a4.28,4.28,0,0,1,0,5C311.7-43.8,310.31-40.61,307.21-38.48Z" transform="translate(-240.58 98.29)"/><path d="M295-61.43a20.66,20.66,0,0,1-.24,2.73,18,18,0,0,1-.86,2.46c3.77,1.66,6.18.15,7.88-3,2,2.15,1.85,3.86-.19,5.16-1.89,1.22-3.66,2.61-5.52,3.87A35,35,0,0,1,292.42-48a2.22,2.22,0,0,1-2.84-.52c-.73-.82-.36-1.68.09-2.43a29,29,0,0,0,3.14-8.22,11.18,11.18,0,0,1,1.38-2.56Zm-2.23,9.73.41.31,1.57-1.21C293.14-53.22,293.14-53.22,292.77-51.7Z" transform="translate(-240.58 98.29)"/><path d="M287.14-69.06a4.34,4.34,0,0,1,.21,4.82,14.09,14.09,0,0,1-2.05,2.63c-1.95,2-4,3.88-6,5.83-1.09-1.64-1.2-3.2-.21-4.38,2.45-2.93,4.95-5.81,7.44-8.7C286.64-69,286.84-69,287.14-69.06Z" transform="translate(-240.58 98.29)"/><path d="M284.49-52.1a2.37,2.37,0,0,1-.38-3.21,70.35,70.35,0,0,1,7.21-11.26c.09-.11.27-.14.56-.28a2.62,2.62,0,0,1,.7,2.55,9.3,9.3,0,0,1-1.07,2.88c-2,2.9-4.09,5.7-6.16,8.53A8.21,8.21,0,0,1,284.49-52.1Z" transform="translate(-240.58 98.29)"/><path d="M262.87-77.24c.75,1.44,0,2.2-.51,2.92-1.19,1.59-2.46,3.12-3.69,4.67-.82,1-1.63,2.09-2.47,3.17a2.21,2.21,0,0,1-.56-2.92C257.47-72.51,260.36-74.59,262.87-77.24Z" transform="translate(-240.58 98.29)"/><path d="M267.72-83.67l-.92,3.8C265-81.91,265.24-82.83,267.72-83.67Z" transform="translate(-240.58 98.29)"/><path class="cls-1" d="M267.87-65a11.24,11.24,0,0,0,.26-1.93c-.26-2.85,1.76-4,3.78-5.18a2.26,2.26,0,0,1,2.86.35,2.35,2.35,0,0,1,.54,3,7.6,7.6,0,0,1-4.84,4A7.84,7.84,0,0,1,267.87-65Z" transform="translate(-240.58 98.29)"/><path class="cls-1" d="M292.77-51.7c.37-1.52.37-1.52,2-.9l-1.57,1.21Z" transform="translate(-240.58 98.29)"/></g></g></svg>