<svg xmlns="http://www.w3.org/2000/svg" xmlns:xlink="http://www.w3.org/1999/xlink" viewBox="0 0 43.28 146.63"><defs><style>.cls-1{fill:none;}.cls-2{clip-path:url(#clip-path);}.cls-3{fill:#fff;}</style><clipPath id="clip-path" transform="translate(-558.71 -631.47)"><rect class="cls-1" width="612.48" height="821.76"/></clipPath></defs><title>Knippen</title><g id="Laag_2" data-name="Laag 2"><g id="Laag_1-2" data-name="Laag 1"><g class="cls-2"><path d="M566.61,752.08a78.86,78.86,0,0,1-1.72-15.4,43.84,43.84,0,0,0-.61-6.44,134.71,134.71,0,0,1-.82-14.34c-.09-2.45,1.17-3.81,3.17-4.93,4.87,5.45,6.62,12.26,8.84,19a58.76,58.76,0,0,1,10.38-16.69c1.17,2.23,3.27,3.59,2.46,6.32-.77,2.57-.71,5.38-2.1,7.8-.39.68-.68,1.42-1,2.12a6.36,6.36,0,0,0-.76,1.49c-.73,3.91-3,7.15-4.57,10.69a37.43,37.43,0,0,1-1.84,3.63c-.76,1.3-1.64,2.52-2.44,3.79s-1.74,2.82-2.54,4.11c2,2.11,3.84,4,5.58,5.91a20.75,20.75,0,0,1,4.29,6.27c1.7,4.45.91,6.07-3.74,6.65a5.17,5.17,0,0,1-3.15-.78c-1.71-1.11-3.24-2.52-5.08-4,0,.71-.14,1.36-.14,2a11.72,11.72,0,0,1-1.44,5.73,5.67,5.67,0,0,1-5.79,3,4.2,4.2,0,0,1-3.75-3.25,18.53,18.53,0,0,1-.61-10.38c.14-.53.44-1.23.23-1.61-.89-1.57,0-2.56.94-3.59Zm3.07-5.21c.26-.61.36-.82.45-1,1.77-4.58,3.28-9.18,1.68-14.17a25.72,25.72,0,0,1-.52-2.83c-.63-3.21-2.25-6-3.88-8.77.18,6.38.54,12.69,1,19,.13,1.91.36,3.82.6,5.72A14.89,14.89,0,0,0,569.68,746.87Zm15.1-28.07c-3,2.34-8.64,15.7-10.47,24.92a11,11,0,0,0,.67-.92c1.33-2.63,2.62-5.28,4-7.88a26.35,26.35,0,0,1,3-5.1,9.85,9.85,0,0,0,2-3.42c.49-1.51.9-3,1.36-4.57A2.64,2.64,0,0,0,584.78,718.8Zm-17.94,43.29-.66-.18c-2.92,2.09-3.4,5.32-3.52,8.58-.07,1.78-.08,3.79,2,5.18a8,8,0,0,0,1.12-2.25C566.17,769.65,566.49,765.87,566.84,762.09Zm5.93-.45-.38.39,1.32,1,.25-.28Z" transform="translate(-558.71 -631.47)"/><path d="M601.83,631.9c.59,3.17-.54,5.94-1.52,8.7a2.51,2.51,0,0,1-1.62,1.13,11.17,11.17,0,0,1-2.55,0,3.81,3.81,0,0,1-.06-1.18c.64-2.47,1.19-5,2-7.35C598.85,631.26,599.46,631.16,601.83,631.9Z" transform="translate(-558.71 -631.47)"/><path d="M585.48,677.33c.24-2,.32-3.92.73-5.76a35,35,0,0,1,1.71-4.89,1.35,1.35,0,0,1,1.78-.8c.9.3.75,1.14.66,1.83-.31,2.35-.69,4.7-1,7C589.07,676.75,588.46,677.18,585.48,677.33Z" transform="translate(-558.71 -631.47)"/><path d="M580.49,694c.51-3,1-5.86,1.48-8.66a5.73,5.73,0,0,1,.92-2.17,1.78,1.78,0,0,1,1.4-.54c.3,0,.71.67.74,1.06a15.79,15.79,0,0,1,0,3.57,32.18,32.18,0,0,1-1.17,5.05C583.42,693.71,582.31,694.27,580.49,694Z" transform="translate(-558.71 -631.47)"/><path d="M591.12,659.92a3.21,3.21,0,0,1-.15-1.07c.7-3.17,1.43-6.34,2.16-9.51a3.46,3.46,0,0,1,.34-1.13c.2-.28.65-.66.87-.59a1.49,1.49,0,0,1,.94.82,5.1,5.1,0,0,1,.18,2.12c-.39,2.41-.8,4.82-1.39,7.19C593.73,659.1,593.12,659.4,591.12,659.92Z" transform="translate(-558.71 -631.47)"/><path d="M578.48,698c1.81.7,2.3,1.48,2.19,3.29-.1,1.5-.24,3-.32,4.51-.12,2.19-.45,2.52-3.14,2.88C576.68,705,577.7,701.5,578.48,698Z" transform="translate(-558.71 -631.47)"/><path class="cls-3" d="M569.68,746.87a14.89,14.89,0,0,1-.71-2.1c-.24-1.9-.47-3.81-.6-5.72-.42-6.3-.78-12.61-1-19,1.63,2.79,3.25,5.56,3.88,8.77a25.72,25.72,0,0,0,.52,2.83c1.6,5,.09,9.59-1.68,14.17C570,746.05,569.94,746.26,569.68,746.87Z" transform="translate(-558.71 -631.47)"/><path class="cls-3" d="M584.78,718.8a2.64,2.64,0,0,1,.58,3c-.46,1.52-.87,3.06-1.36,4.57a9.85,9.85,0,0,1-2,3.42,26.35,26.35,0,0,0-3,5.1c-1.37,2.6-2.66,5.25-4,7.88a11,11,0,0,1-.67.92C576.14,734.5,581.78,721.14,584.78,718.8Z" transform="translate(-558.71 -631.47)"/><path class="cls-3" d="M566.84,762.09c-.35,3.78-.67,7.56-1.11,11.33a8,8,0,0,1-1.12,2.25c-2-1.39-2-3.4-2-5.18.12-3.26.6-6.49,3.52-8.58Z" transform="translate(-558.71 -631.47)"/><path class="cls-3" d="M572.77,761.64l1.19,1.12-.25.28-1.32-1Z" transform="translate(-558.71 -631.47)"/></g></g></g></svg>