<svg xmlns="http://www.w3.org/2000/svg" viewBox="0 0 132.78 140.07"><defs><style>.cls-1{fill:#fff;}</style></defs><title>Knipsel</title><g id="Laag_2" data-name="Laag 2"><g id="Laag_1-2" data-name="Laag 1"><path d="M510.15,173.5c.57-2.72,1-5.32,1.69-7.84.58-2.06,1.69-3.78,4.13-4.13,2.75-.4,5.51-.72,8.06-2.05a14.91,14.91,0,0,1,3.46-.91,3.74,3.74,0,0,1,4,1.44,21.3,21.3,0,0,1,2.92,4.36c1.61,3.48,2.88,7.11,4.46,10.61,2.33,5.16,4.62,10.36,8,15a30.11,30.11,0,0,0,2,2.36c2,2.29,4.13,4.47,5.92,6.91a52.68,52.68,0,0,1,3.53,6.23c.68,1.26,1.2,2.6,1.92,3.83a4.73,4.73,0,0,1-1.92,7c-3.43,1.72-7,3.29-9.82,5.89-4.19,3.8-8.49,7.46-12,12A101.44,101.44,0,0,1,523,248.42c-3.57,3.07-6.72,6.6-10.16,9.83a114.19,114.19,0,0,1-9.5,8.39c-4.86,3.63-10,6.9-15,10.3-1.06.71-2.15,1.36-3.27,2-5.3,2.83-10,6.57-15,9.85-4.12,2.72-8,5.87-12.52,7.9a4.61,4.61,0,0,0-.82.5c-2.26,1.64-2.26,1.64-5.07.78-1.16-2.21-2.24-4.63-3.66-6.82a50,50,0,0,0-5.07-6.6,39,39,0,0,1-4.75-7.29l-2.59-.68a15,15,0,0,0-.38-2.7c-.7-2.17.15-3.69,1.72-5.08,2.09-1.85,4.1-3.79,6.17-5.65a15.64,15.64,0,0,1,6.31-3.8c1.84-.5,3.6-1.33,5.45-1.79,4.19-1,8,.16,11.8,2a33.57,33.57,0,0,0,11.52,3,3.25,3.25,0,0,0,2.27-1.06,45,45,0,0,0,4.43-5.33,19.29,19.29,0,0,1,6.38-6,22.78,22.78,0,0,0,3.37-2.3,38.34,38.34,0,0,1,7.64-4.89,92.1,92.1,0,0,0,9.71-5.63,18,18,0,0,0,6.59-7.6,60.44,60.44,0,0,1,6.26-11.29,6.85,6.85,0,0,0,.8-3.41c.29-3.17.22-6.4.75-9.53a8.48,8.48,0,0,0-2.29-7.87,7.06,7.06,0,0,1-1.45-2.66,30.69,30.69,0,0,0-2.31-4.44c-.67-1.17-1.46-2.28-2.2-3.41a2.38,2.38,0,0,0-.43-.56c-1.64-1.25-3.29-2.47-4.92-3.72a10.62,10.62,0,0,1-1.21-1.11,30.25,30.25,0,0,1-2.66-3,6.16,6.16,0,0,1-1.17-2.74C507.64,174.29,508.26,173.79,510.15,173.5Zm-4,77.35c2.19-.1,4.44,0,6.14-1.9-1.93-1.56-2.53-1.49-3.95.11a19.89,19.89,0,0,1-2.13,1.85c-2.11-.17-2.11-.17-3,1.61H507c-1,2-1,2-3.19,1.82-1.26-.12-2.53-.15-3.82-.23.05.25,0,.44.11.53.58.63,1.54,1.14,1.13,2.17s-1.52,1.29-2.61,1.28h-2.2c-.11.68,0,1.31-.29,1.55a40.47,40.47,0,0,1-4.79,4c-.68.46-1.86.14-2.8.25s-1.92-.27-2.69,1.29c2-.09,3.59-.3,5.21-.21a7.27,7.27,0,0,0,5-1.93c3.67-2.82,7.29-5.7,10.92-8.56a6.13,6.13,0,0,0,.72-.78c-.26-.47-.47-.84-.69-1.2C505.91,252.37,506.26,251.5,506.17,250.85Zm27.12-70c-4,1-7.92,0-11.75,1.43a12.91,12.91,0,0,0,4,4.78c2.5-2.57,3.15-2.82,7-3,.73,0,1.46-.21,2.51-.37Zm-66.19,103-.11-.5-2.49.65c-2.3.6-4.6,1.22-6.9,1.8a3.24,3.24,0,0,1-1-.12l-.58-2.21c-1.16,1.74-.5,3,.19,4.25.93,1.72,1.22,1.88,2.9.91C461.82,287,464.45,285.37,467.1,283.78Zm55.82-106.13c-1.15-.8-2.61.81-4-.7l10.46-3.22c-2.44-.56-4.55.5-6.76.92s-4.67.41-7,1.73c.94.85,1.62,1.53,2.37,2.11C520,180.06,521.06,179.87,522.92,177.65Zm15,10.79-10.4,1.93c.46.65.83,1.18.93,1.31l9.91-1.59Zm4.31,32.26-.29-.66-8.39,1.13,0,.32,4.68-.25c-.1,1.92-.07,2-2,2.79-1.19.49-1.31,1.09-.69,2.32Zm-8.14,8.15c-4.37.13-5.26,1.12-3.8,3.79Zm-11.53,2.86,2.89-.57-1.53-2Zm7.74-17.59.13.55,3.29-.8-.11-.45Zm-3.42,12.19c-1.13-1.15-1.34-.22-1.6.51,0,.07.12.2.21.35Zm16.65-13.67-.11-.66-2.17.59.1.39Zm-18.6,22.46c-.07,1.48.69,1.26,1.9,1.14ZM514,174.4a3.07,3.07,0,0,0-.76-.11c-.11,0-.2.19-.3.29.16.11.33.32.47.3S513.73,174.65,514,174.4Z" transform="translate(-428.32 -158.43)"/><path d="M495.79,197.3l1.7-1.21c1.59,2.26,3.87,3.38,6.18,4.48a17,17,0,0,1,9.75,17.16c-.28,2.85-.27,5.85-2,8.3a67.71,67.71,0,0,1-7.05,9.05c-2,2-4.81,3.39-7.33,4.93s-5,2.83-7.5,4.25a22,22,0,0,0-5.37,4.72,49.32,49.32,0,0,1-4.25,4.18,4,4,0,0,1-4,.82,55.19,55.19,0,0,1-5.52-1.46,18.09,18.09,0,0,1-4.38-2.87,8.25,8.25,0,0,0-7.33-2c-3,.61-6,1.12-8.84,2a21.8,21.8,0,0,0-5,2.67c-2.07,1.33-4,2.83-6,4.21a5.13,5.13,0,0,1-3.9-5c-.66-.63-2,.36-2.09-1.16,0-.15-.32-.4-.49-.41-2.67-.08-2.48-2.33-2.85-4-.53-2.31-.75-4.69-1.15-7.35a157.88,157.88,0,0,1,17.16-13.43c3.69-2.51,7.76-4.46,11.57-6.79a26.66,26.66,0,0,0,4.08-3.28c4-3.71,8.18-7.14,13.61-8.68a16.65,16.65,0,0,0,3.57-1.91c.55-.32,1-.8,1.58-1.07,1.55-.75,2.83-1.42,2.78-3.62,0-1.46,1.68-2,3-2.29a5.89,5.89,0,0,0,3-1.25c1.22-1,2.88-.42,4.32-.16A15.28,15.28,0,0,1,495.79,197.3Z" transform="translate(-428.32 -158.43)"/><path class="cls-1" d="M514,174.4c-.29.25-.43.46-.59.48s-.31-.19-.47-.3c.1-.1.19-.28.3-.29A3.07,3.07,0,0,1,514,174.4Z" transform="translate(-428.32 -158.43)"/></g></g></svg>