<svg xmlns="http://www.w3.org/2000/svg" viewBox="0 0 151.37 70.67"><defs><style>.cls-1{fill:#fff;}</style></defs><title>Koptelefoon</title><g id="Laag_2" data-name="Laag 2"><g id="Laag_1-2" data-name="Laag 1"><path d="M379,642.9a10.09,10.09,0,0,0,3.24-5.37,1.77,1.77,0,0,0-.65-1.39c-1.16-1-1.33-2.08-.7-3.73l3.1,1.23c1-2.28,2.6-4.46.66-7.14l1.72-1.41,1.72,3.23a8.76,8.76,0,0,0,1.47-1.25,11.17,11.17,0,0,0,2.33-6.43c.08-2.43.34-2.71,2.67-3.08.79-.12,1.58-.19,2-.23,1.55-1.68,2.92-3.09,4.2-4.58a1.94,1.94,0,0,0,0-2.44,1.44,1.44,0,0,0-.54-.47,31.69,31.69,0,0,1-7.54-4.55c-.38-.33-1.22-.18-1.84-.17a3.3,3.3,0,0,1-3.51-2.57c-.26-1-.35-2-.55-3.19h4.15a13.83,13.83,0,0,1,1-2.25,4,4,0,0,1,1.66-1.55c2-.68,3,.13,3.21,2.27s.38,4.43.63,6.65a2.61,2.61,0,0,0,2.26,2.41,4.5,4.5,0,0,1,3.5,4.49c0,.86-.23,1.62-1.16,1.87a2.83,2.83,0,0,0-2,2.18,8.79,8.79,0,0,1-.7,1.53c-.43.75-.74,1.74-1.4,2.12-.48.28-1.43-.32-2.18-.43a10.85,10.85,0,0,0-1.72,0c-.29,1.63-.49,3.27-.89,4.86a18.7,18.7,0,0,1-1.42,3.78,4.26,4.26,0,0,1-4.24,2.45,27.91,27.91,0,0,0-.75,2.74,6.47,6.47,0,0,1-2.08,4.19,4.31,4.31,0,0,0-.82,1.4c-.92,1.86-1.8,3.74-2.73,5.59-.17.34-.46.8-.77.87-1.55.32-2,1.53-2.65,2.75a6,6,0,0,1-4.37,3c-.62.12-1.26.16-2,.25-.4,1.85-.52,3.76-2.13,5.16s-3.56,1-5.25.71c-1.3,1-2.35,2.34-3.67,2.74s-2.94-.13-4.48-.25c-2,3.85-2.58,4.1-7.2,2.8-1.18,1.17-1.91,3.2-3.88,3.19a26.14,26.14,0,0,1-4.95-1c-.67.48-1.45,1.48-2.3,1.54a8.79,8.79,0,0,1-3.64-.92,19.49,19.49,0,0,1-2.77-1.74c-2.16,1.42-4.26.59-6.06-.8s-4.13-1.12-6-2.2c-.25-.15-.8,0-1.12.22a4.06,4.06,0,0,1-3.9,0,5.92,5.92,0,0,0-3.24-.55,3.49,3.49,0,0,1-2.45-.76,5.14,5.14,0,0,0-4.54-.91c-2.52.53-3.91-.62-5.22-2.38-.7-.95-1.55-1.79-2.2-2.77a4.46,4.46,0,0,1-.81-2.13,33.13,33.13,0,0,1,.26-3.89c-4.39-3.11-4.67-7.84-4.68-12.61a10.81,10.81,0,0,1,.88-3c.61-2,1.13-4,1.86-5.92.67-1.75,1.66-3.32,3.88-3.35a5.51,5.51,0,0,0-.72-4.07c-2.31-4.73-4.52-9.53-7.18-14.07s-5.06-4.85-9.94-3.78c-.47.1-.89.62-1.26,1-.77.82-1.46,1.7-2.23,2.51a39.67,39.67,0,0,0-9.82,18.6,10.28,10.28,0,0,0,.37,6.22c1.81,5,1.39,10,.16,15.1-.77,3.16-5.41,6.28-8.73,5.77a7.84,7.84,0,0,1-6-6.43c-.49-3.29-1-6.59.09-10,.59-1.84.38-3.93.72-5.87a9.27,9.27,0,0,1,1.21-3.1,5.73,5.73,0,0,1,1.75-1.45,9.54,9.54,0,0,1,1.09-.44c3.17-1.7,3-1.75,4.32-5.2.92-2.45,2.4-4.69,3.44-7.11,2.5-5.78,7.32-9.38,12.1-13a10.52,10.52,0,0,1,4.19-1.54,21.89,21.89,0,0,1,4.29-.19,5.79,5.79,0,0,1,4.34,2.19c2.51,2.71,3.87,6,5.28,9.34,1.12,2.62,2.79,5,3.44,7.84.44,1.93,1.21,3.78,1.77,5.68.21.75.45,1.3,1.31,1.49,2.37.53,3.34,2.37,3.75,4.47,1.17,5.92.06,11.57-2.17,17.07a5.42,5.42,0,0,1-3.24,3.28c-1.33.5-3.07,1-2.43,3.28l2.05.45.67,4.26c1.76-.61,3.08-2.12,4.86-1.06,1.14-1.28,1.14-1.28,2.56-1.37,1.16,1.84-.56,4.73,2.38,6.31a12.27,12.27,0,0,0,.21-1.77c-.11-2.16-.12-2.16,2.17-3,1.33.56,1.16,1.7,1.16,2.84,0,1.78.33,2.09,2.42,2.46.86-.87.07-1.63-.22-2.38a3.7,3.7,0,0,1,1-4.49c3.12,1.11,3.6,1.89,3.1,4.94-.31,1.86-.19,2,1.92,2.58a13.33,13.33,0,0,1,1.13-2.8,1.78,1.78,0,0,1,2.28-.81,1.89,1.89,0,0,1,1,2.21c-.09.7-.3,1.39-.54,2.47.26.17.67.42,1.06.7,1.69,1.25,2.24,1.07,3-1,.32-.91.32-.91,2.35-1.9a6.09,6.09,0,0,1,.43,1.69c-.13,2,1.14,3.08,2.65,3.9a1.86,1.86,0,0,0,1.71,0,4.15,4.15,0,0,0,.68-1.9c0-.18-.19-.43-.29-.64-1-2.19-.79-2.74,2-4a18.28,18.28,0,0,1,.92,2.56,3.49,3.49,0,0,0,2.26,2.59c1.7.73,2.81,0,2.92-1.84a4.58,4.58,0,0,1,.48-2.45,11,11,0,0,1,2.81-1.68c.85,1.71,1.4,3.29,3.54,3.74.29-.62.9-1.29.88-1.94-.12-3,.28-3.08,3.32-3.86l2.88,2.56a1.81,1.81,0,0,0,1.29-2.25c-.14-.82-1-1.72-.13-2.43a12.94,12.94,0,0,1,2.89-1.49,3.85,3.85,0,0,1,1.11-.08c0,1.74.34,3.35,2.72,3.86.15-1,.3-1.89.4-2.79a15.17,15.17,0,0,1,.06-1.66,3.18,3.18,0,0,1,4.19-2.34,4.28,4.28,0,0,0,1.85.25c2.12-.43,2.76-2.41,1.5-4.26-.47-.68-1.24-1.59-1.08-2.19.43-1.65.32-3.53,1.83-4.83a1.62,1.62,0,0,1,2.15-.21,3.48,3.48,0,0,1,1.66,4.1C379.55,641.3,379.24,642.1,379,642.9Zm-123.72-6.43H255c.55,2.55.94,5.15,1.67,7.65.78,2.66,3.14,3,4.91.93a6.12,6.12,0,0,0,1.53-4.67c-.46-4-1.09-8-1.71-12-.19-1.23-.61-2.32-2.28-2.11-.28,0-.63-.63-.94-1a18.11,18.11,0,0,0-1.13,2,34.35,34.35,0,0,0-1.29,3.56c-.11.41-.06,1.18.2,1.34,1.77,1.1,1.31,2.67,1.09,4.26-.11.79-.2,1.74,1.05,2.15a7,7,0,0,0-.4-5.65c-.68-1.26-.63-2,.24-2.83,1.8.5,3.41,2,3.32,3.27-.2,2.7-.48,5.39-.78,8.08-.1.89-.36,1.78-1.41,2a2.78,2.78,0,0,1-2.42-1.65C256.11,640,255.7,638.23,255.25,636.47Zm41.39,5.12.72-.2c1.68-4.45,2.49-9,.64-13.65-1.52,3.24-1.51,6.7-1.35,10.16l-1.79.32ZM279.19,596.8a33.63,33.63,0,0,0-13.1,17.62c.78-1.06,1.39-2.23,2.12-3.32a56.83,56.83,0,0,1,4.28-6c1.83-2.09,4-3.89,6-5.82A1.84,1.84,0,0,0,279.19,596.8Zm21.16,29.67c.55,2.09.18,4.38,1.25,6.79C302.48,630.58,302,627.51,300.35,626.47ZM296.2,644c1.55,1.28,1.69,1.26,2.54-.29ZM377,639.85c.34-1,.44-1.7-.44-1.91-.2-.05-.54.43-.81.66Zm-79.38-16-.1.69,1.77.22.09-.65Z" transform="translate(-251.77 -594.77)"/><path class="cls-1" d="M255.25,636.47c.45,1.76.86,3.53,1.37,5.28A2.78,2.78,0,0,0,259,643.4c1-.22,1.31-1.11,1.41-2,.3-2.69.58-5.38.78-8.08.09-1.27-1.52-2.77-3.32-3.27-.87.87-.92,1.57-.24,2.83a7,7,0,0,1,.4,5.65c-1.25-.41-1.16-1.36-1.05-2.15.22-1.59.68-3.16-1.09-4.26-.26-.16-.31-.93-.2-1.34a34.35,34.35,0,0,1,1.29-3.56,18.11,18.11,0,0,1,1.13-2c.31.32.66,1,.94,1,1.67-.21,2.09.88,2.28,2.11.62,4,1.25,8,1.71,12a6.12,6.12,0,0,1-1.53,4.67c-1.77,2.11-4.13,1.73-4.91-.93-.73-2.5-1.12-5.1-1.67-7.65Z" transform="translate(-251.77 -594.77)"/><path class="cls-1" d="M296.64,641.59l-1.78-3.37,1.79-.32c-.16-3.46-.17-6.92,1.35-10.16,1.85,4.69,1,9.2-.64,13.65Z" transform="translate(-251.77 -594.77)"/><path class="cls-1" d="M279.19,596.8a1.84,1.84,0,0,1-.7,2.47c-2,1.93-4.17,3.73-6,5.82a56.83,56.83,0,0,0-4.28,6c-.73,1.09-1.34,2.26-2.12,3.32A33.63,33.63,0,0,1,279.19,596.8Z" transform="translate(-251.77 -594.77)"/><path class="cls-1" d="M300.35,626.47c1.61,1,2.13,4.11,1.25,6.79C300.53,630.85,300.9,628.56,300.35,626.47Z" transform="translate(-251.77 -594.77)"/><path class="cls-1" d="M296.2,644l2.54-.29C297.89,645.23,297.75,645.25,296.2,644Z" transform="translate(-251.77 -594.77)"/><path class="cls-1" d="M377,639.85l-1.25-1.25c.27-.23.61-.71.81-.66C377.4,638.15,377.3,638.89,377,639.85Z" transform="translate(-251.77 -594.77)"/><path class="cls-1" d="M297.58,623.83l1.76.26-.09.65-1.77-.22Z" transform="translate(-251.77 -594.77)"/></g></g></svg>