<svg xmlns="http://www.w3.org/2000/svg" viewBox="0 0 105.23 72.17"><defs><style>.cls-1{fill:#fff;}</style></defs><title>Luna</title><g id="Laag_2" data-name="Laag 2"><g id="Laag_1-2" data-name="Laag 1"><path d="M530.57,642.88a24.49,24.49,0,0,1-2.45-1.53,3.34,3.34,0,0,1-1.3-1.6c-.6-3.19-2.76-5.25-5.2-6.9-4.55-3.09-9.22-6-14-8.81-2.93-1.72-6.31-2.22-9.66-2.61a74.61,74.61,0,0,0-9.74-.92c-5.25.09-10.58.25-15.44,2.64a59.25,59.25,0,0,0-5.14,3,58.66,58.66,0,0,0-7.17,4.76,19.84,19.84,0,0,0-4.81,5.88c-3.1,6.17-7.33,11.59-10.83,17.49-.86,1.44-1.91,2.77-2.71,4.24-1,1.88-2,3.82-2.8,5.8a4.21,4.21,0,0,1-3.45,3,35.42,35.42,0,0,1-2-4.44c-.83-2.66-1.41-5.4-2.1-8.11a5.31,5.31,0,0,0-.49-1.58c-1.66-2.57-1.29-5.56-1.78-8.36-.13-.73.4-1.57.71-2.63l1.07,1.46c.15-.18.32-.29.32-.41.14-2,.22-4,.37-6,.45-5.84,1.95-11.3,5.76-16,.74-.92,1.2-2.07,1.86-3.06a51.36,51.36,0,0,1,15.56-15.4,26.63,26.63,0,0,1,7.27-3c5.56-1.47,11.19-2.67,16.8-3.9a33.55,33.55,0,0,1,14.52,0c3.42.76,6.81,1.73,10.18,2.7a32.75,32.75,0,0,1,11.07,6c3.85,3,7.82,5.82,10.85,9.71,3.2,4.12,6.2,8.34,7.78,13.4a19.64,19.64,0,0,1,.83,9.43C534,639.78,532.85,641.83,530.57,642.88Zm-94.44,12.45c.43-.6.7-1,.95-1.34,2.58-3.94,5.08-7.93,7.77-11.79,1.6-2.29,3.45-4.4,5.27-6.53.71-.84,1.65-1.5,2.44-2.28a19,19,0,0,0,2.58-2.73,26.9,26.9,0,0,1,10.06-9.38c2.13-1.09,4.16-2.38,6.33-3.39a31.29,31.29,0,0,1,6.67-2.55,49.12,49.12,0,0,1,9.74-1c3.74,0,7.49.5,11.22.84a34.2,34.2,0,0,1,20.26,8.32c2.61,2.29,5.57,4.19,8.45,6.32a6.8,6.8,0,0,0-1-4.15,46.8,46.8,0,0,0-27.22-22.07,56.34,56.34,0,0,0-8.35-2.09c-3.78-.6-7.62-1.08-11.43-.09-6.24,1.63-12.51,3.17-18.69,5a18.65,18.65,0,0,0-10.11,6.87,68.1,68.1,0,0,1-7.58,8.6,17.18,17.18,0,0,0-5.59,12.07,51.49,51.49,0,0,1-.6,5.66c-.21,1.57-.51,3.13-.81,4.68-.33,1.71-.7,3.42-1.05,5.12A8.11,8.11,0,0,0,436.13,655.33Z" transform="translate(-429.52 -595.16)"/><path class="cls-1" d="M436.13,655.33a8.11,8.11,0,0,1-.7-6c.35-1.7.72-3.41,1.05-5.12.3-1.55.6-3.11.81-4.68a51.49,51.49,0,0,0,.6-5.66,17.18,17.18,0,0,1,5.59-12.07,68.1,68.1,0,0,0,7.58-8.6,18.65,18.65,0,0,1,10.11-6.87c6.18-1.82,12.45-3.36,18.69-5,3.81-1,7.65-.51,11.43.09a56.34,56.34,0,0,1,8.35,2.09,46.8,46.8,0,0,1,27.22,22.07,6.8,6.8,0,0,1,1,4.15c-2.88-2.13-5.84-4-8.45-6.32a34.2,34.2,0,0,0-20.26-8.32c-3.73-.34-7.48-.85-11.22-.84a49.12,49.12,0,0,0-9.74,1,31.29,31.29,0,0,0-6.67,2.55c-2.17,1-4.2,2.3-6.33,3.39a26.9,26.9,0,0,0-10.06,9.38,19,19,0,0,1-2.58,2.73c-.79.78-1.73,1.44-2.44,2.28-1.82,2.13-3.67,4.24-5.27,6.53-2.69,3.86-5.19,7.85-7.77,11.79C436.83,654.37,436.56,654.73,436.13,655.33Z" transform="translate(-429.52 -595.16)"/></g></g></svg>