<svg xmlns="http://www.w3.org/2000/svg" viewBox="0 0 92.45 84.8"><defs><style>.cls-1{fill:#fff;}</style></defs><title>Maanhalf</title><g id="Laag_2" data-name="Laag 2"><g id="Laag_1-2" data-name="Laag 1"><path d="M92.41,50.67A22.83,22.83,0,0,1,88,66c-1.65,2.21-3,4.65-4.84,6.73a31.47,31.47,0,0,1-13.75,9A24.35,24.35,0,0,1,62,83.19a47.76,47.76,0,0,0-11,1c-3.82,1-7.82.65-11.75.34a14.29,14.29,0,0,1-2.63-.77,27.46,27.46,0,0,0-5.35-1.41c-5.37-.34-9.55-3.16-13.75-6-1.32-.91-2.63-1.87-3.93-2.83a7.72,7.72,0,0,1-1.59-1.3c-3-3.81-6.32-7.38-8.62-11.69a13.91,13.91,0,0,1-.94-2.58c-.28-.88-.4-1.82-.74-2.67A23.57,23.57,0,0,1,.94,39.62c.78-2.86.71-5.95,1.75-8.81a14.91,14.91,0,0,1,2.18-4.3,89.12,89.12,0,0,0,5.32-7.24A21.83,21.83,0,0,1,16,13.36c3.91-2.87,7.88-5.66,12.57-7.17a5,5,0,0,0,1.3-.47C34.38,2.61,39.71,2,44.89.82a27.82,27.82,0,0,1,11-.46c1.56.29,3.18.75,4.8.2,2.14-.71,4-.14,5.9,1,10.11,5.79,9,5.43,14.74,14.1C87.52,25,92,39.34,92.41,50.67ZM58.68,81.57c3.18.44,6.67-.61,10.18-2,6-2.32,11-5.75,14.67-11.08a37.08,37.08,0,0,1,2.3-3.46C90,60.27,90.1,54.4,90.12,48.64c0-3-.94-5.91-1.61-8.84A76.75,76.75,0,0,0,75.92,11.49a11.57,11.57,0,0,0-1.85-2,46.38,46.38,0,0,0-7.95-5.54,6.46,6.46,0,0,0-4.67-.83c-1.8.41-3.67.55-5.47,1a10.05,10.05,0,0,0-3.22,1.23c-3.08,2-6.3,3.89-8.74,6.78-1.64,2-3.36,3.83-5.12,5.67a53.55,53.55,0,0,0-12.77,22c-1.39,4.58-1.15,9.14-.67,13.75a5.3,5.3,0,0,0,.6,2c1.81,3.22,3.47,6.48,6.12,9.21A92.57,92.57,0,0,0,48,78.1c1.55,1,2.87,2.54,4.54,3.11S56.22,81.47,58.68,81.57Z"/><path class="cls-1" d="M58.68,81.57c-2.46-.1-4.44.22-6.11-.36s-3-2.11-4.54-3.11A92.57,92.57,0,0,1,32.18,64.64c-2.65-2.73-4.31-6-6.12-9.21a5.3,5.3,0,0,1-.6-2c-.48-4.61-.72-9.17.67-13.75a53.55,53.55,0,0,1,12.77-22C40.66,15.87,42.38,14,44,12c2.44-2.89,5.66-4.75,8.74-6.78A10.05,10.05,0,0,1,56,4c1.8-.4,3.67-.54,5.47-1a6.46,6.46,0,0,1,4.67.83,46.38,46.38,0,0,1,7.95,5.54,11.57,11.57,0,0,1,1.85,2A76.75,76.75,0,0,1,88.51,39.8c.67,2.93,1.61,5.89,1.61,8.84,0,5.76-.15,11.63-4.29,16.41a37.08,37.08,0,0,0-2.3,3.46c-3.66,5.33-8.71,8.76-14.67,11.08C65.35,81,61.86,82,58.68,81.57Z"/></g></g></svg>