<svg xmlns="http://www.w3.org/2000/svg" viewBox="0 0 47.38 58.9"><defs><style>.cls-1{fill:#fff;}</style></defs><title>Maandun</title><g id="Laag_2" data-name="Laag 2"><g id="Laag_1-2" data-name="Laag 1"><path d="M47.38,45c-.28,1.66-.48,3.51-.92,5.29-.62,2.47-1.36,4.91-2.19,7.31-.19.54-.93,1-1.5,1.27s-1.31-.54-1.28-1.25a10.91,10.91,0,0,0-1-5.38A20.05,20.05,0,0,1,39,47.62c-1.52-7.33-4.7-14-8.28-20.46a18.58,18.58,0,0,1-1.25-2.48C26.22,16.06,17,8.11,6.27,5.4,4.48,4.94,2.67,4.54.89,4,.54,3.91.28,3.4.06,3S.45,1.55,1,1.37A8.08,8.08,0,0,1,2.33,1,10.71,10.71,0,0,1,5.77.65,11.85,11.85,0,0,0,11.23.3,11.24,11.24,0,0,1,18,.88C31.33,5.8,40.15,14.93,44.35,28.49c1.09,3.53,2.28,7,2.48,10.78C46.93,41.11,47.18,43,47.38,45ZM13.31,3l-1.51.38A6.7,6.7,0,0,0,12.92,5a17.6,17.6,0,0,0,1.85.9c2.89,1.9,6.1,3.47,8.54,5.84,3.27,3.19,6.41,6.64,8.29,11,.92,2.11,1.93,4.19,3,6.24a68.47,68.47,0,0,1,6.14,15.36,32.72,32.72,0,0,0,1.73,4.49c.23.58.61.7,1.11.36.17-.11.42-.25.44-.4a34.16,34.16,0,0,0-.61-13.73c-.51-2-1.14-4-1.74-6-3.31-11-10.13-19-20.59-23.76C18.57,4.18,16,3,13.31,3Z"/><path class="cls-1" d="M13.31,3C16,3,18.57,4.18,21.06,5.31c10.46,4.75,17.28,12.76,20.59,23.76.6,2,1.23,4,1.74,6A34.16,34.16,0,0,1,44,48.78c0,.15-.27.29-.44.4-.5.34-.88.22-1.11-.36a32.72,32.72,0,0,1-1.73-4.49A68.47,68.47,0,0,0,34.58,29c-1-2-2.06-4.13-3-6.24-1.88-4.33-5-7.78-8.29-11-2.44-2.37-5.65-3.94-8.54-5.84A17.6,17.6,0,0,1,12.92,5,6.7,6.7,0,0,1,11.8,3.41Z"/></g></g></svg>