<svg xmlns="http://www.w3.org/2000/svg" viewBox="0 0 79.29 32.45"><defs><style>.cls-1{fill:#fff;}</style></defs><title>Micro</title><g id="Laag_2" data-name="Laag 2"><g id="Laag_1-2" data-name="Laag 1"><path d="M217.76,421.09c-.55,1-1.12,1.86-1.52,2.79a12.08,12.08,0,0,1-5.08,5.56c-2,1.24-4.83,1.17-5.93-.37a6.68,6.68,0,0,1-1.16-6.08c1-3.35,2.12-6.68,3.18-10,.07-.22.23-.49.18-.68-.68-2.45.91-4.47,1.31-6.72a4.19,4.19,0,0,1,1.75-2.41c1.83-1.2,4.35,0,5.21,2.4a4.87,4.87,0,0,1,.32,1.88,3.48,3.48,0,0,0,.81,2.78c.95,1.12.78,2.7.19,4.11-.52,1.23-1.07,2.45-1.74,3.95,4.85,1,9.65,1.43,14.46,2.32a4.48,4.48,0,0,0,.46-1.26,2.86,2.86,0,0,1,1.79-2.65c3-1.26,5.58-3.35,8.8-4.21,3.77-1,7.45-2.36,11.15-3.62a2.84,2.84,0,0,0,1.2-1,20.1,20.1,0,0,0,1.12-1.93c-1.42-.67-2.89-1.24-4.24-2-1.61-.92-1.8-2.54-.35-3.68a8.64,8.64,0,0,1,3.39-1.68c6.21-1.32,12.3-.83,17.9,2.28,3.77,2.09,7.3,4.59,10.93,6.92a11.67,11.67,0,0,1,1.17,1c-.28.67-.52,1.31-.81,1.93a2.32,2.32,0,0,1-2.88,1.39,7.67,7.67,0,0,0-7.77,1.55,12.2,12.2,0,0,1-2.4,1.56,2.41,2.41,0,0,0-1.65,2.16c0,1.95-1.41,2.64-2.78,3.12-3.61,1.27-7.29,2.32-10.94,3.5-3.33,1.07-6.63,2.23-10,3.27a31,31,0,0,1-5.78,1.45c-2.81.31-5.32-.71-6.57-3.36-1-2.2-2.8-2.84-4.86-3.14C223.73,421.75,220.8,421.45,217.76,421.09Zm58.9-14.34-.29,2h2.93c-1.21-1.51-1.21-1.51-2.72-1.88a3.7,3.7,0,0,0-2.84-1.46,4,4,0,0,1-3.13,3l.32-2-2.29.66c-.09-2.2,3-.38,2.68-2.87l-6.2,2.76c1.84,1.28,3.75,1.08,5.5,1.48a3.34,3.34,0,0,0,3.48-1.08C274.55,406.75,275.78,406.91,276.66,406.75Zm-22.92,3.33c-1.79.51-3.36.82-4.83,1.39-5,1.91-10,3.95-15,5.86a2.32,2.32,0,0,0-1.73,2.49,7.66,7.66,0,0,0,3,5.78,4.41,4.41,0,0,0,4.43,1c3.52-1,7.13-1.75,10.6-2.9s6.61-2.59,9.72-3.83a35.51,35.51,0,0,1-2.71-3.48C256,414.43,255,412.37,253.74,410.08Zm-43.13-5.32c-.51,1.72-1,3.22-1.39,4.75-.56,2.4-.93,4.83-1.53,7.22-.46,1.85-1.18,3.64-1.74,5.47s.11,3.7,1.36,4.14a4.36,4.36,0,0,0,4.34-.49,10.73,10.73,0,0,0,3.45-4.64l-1.65-1.07a14.64,14.64,0,0,1-2.09,1c-.39.11-1.12,0-1.27-.22-.7-1.12-1.6-2.28-1.19-3.72.66-2.26,1.19-4.46,3.11-6.27C214.23,408.82,213.6,406.41,210.61,404.76Zm45.66,3.68c.35,3,2.78,4.56,3.79,6.92.47,1.12,1.75,1.89,2.64,2.83l.13.07,1.92.32C264.93,414,262.07,410.57,256.27,408.44Zm13-4.81,0-.62c-.66-.25-1.35-.45-2-.76a2,2,0,0,0-2.86.73,18,18,0,0,1-2.73,2.34c-.67-2.16,2.06-2.1,1.88-3.74l-4.46-.92c-.74,1.13-1.43,2.21-2.23,3.45l6.9,2.36c1.44-.93.48-4.1,3.45-3.43l.39,1.57Zm-3.7,7.11c.56,1.25,1,2.23,1.51,3.38,1.68-1.08,3.59-1.44,4.72-3.15C269.8,409.26,267.84,410.41,265.6,410.74Zm-52.13,1.68-.58-.25c-1.63,1.28-2.25,3.18-2.68,5.11-.11.48.48,1.12.76,1.69l-.45-.9L213,416l.77.56C213.66,415.17,213.57,413.79,213.47,412.42ZM252,401.07l-.12.51,2.84,1.6,1.22-2.37Z" transform="translate(-203.77 -397.86)"/><path class="cls-1" d="M253.74,410.08c1.21,2.29,2.21,4.35,3.38,6.31a35.51,35.51,0,0,0,2.71,3.48c-3.11,1.24-6.36,2.72-9.72,3.83s-7.08,1.88-10.6,2.9a4.41,4.41,0,0,1-4.43-1,7.66,7.66,0,0,1-3-5.78,2.32,2.32,0,0,1,1.73-2.49c5-1.91,10-3.95,15-5.86C250.38,410.9,252,410.59,253.74,410.08Z" transform="translate(-203.77 -397.86)"/><path class="cls-1" d="M210.61,404.76c3,1.65,3.62,4.06,1.4,6.16-1.92,1.81-2.45,4-3.11,6.27-.41,1.44.49,2.6,1.19,3.72.15.25.88.33,1.27.22a14.64,14.64,0,0,0,2.09-1l1.65,1.07a10.73,10.73,0,0,1-3.45,4.64,4.36,4.36,0,0,1-4.34.49c-1.25-.44-1.89-2.43-1.36-4.14s1.28-3.62,1.74-5.47c.6-2.39,1-4.82,1.53-7.22C209.58,408,210.1,406.48,210.61,404.76Z" transform="translate(-203.77 -397.86)"/><path class="cls-1" d="M256.27,408.44c5.8,2.13,8.66,5.52,8.48,10.14l-1.92-.32-.13-.07c-.89-.94-2.17-1.71-2.64-2.83C259.05,413,256.62,411.45,256.27,408.44Z" transform="translate(-203.77 -397.86)"/><path class="cls-1" d="M269.3,403.63l-1.69,1-.39-1.57c-3-.67-2,2.5-3.45,3.43l-6.9-2.36c.8-1.24,1.49-2.32,2.23-3.45l4.46.92c.18,1.64-2.55,1.58-1.88,3.74a18,18,0,0,0,2.73-2.34,2,2,0,0,1,2.86-.73c.64.31,1.33.51,2,.76Z" transform="translate(-203.77 -397.86)"/><path class="cls-1" d="M265.6,410.74c2.24-.33,4.2-1.48,6.23.23-1.13,1.71-3,2.07-4.72,3.15C266.59,413,266.16,412,265.6,410.74Z" transform="translate(-203.77 -397.86)"/><path class="cls-1" d="M213.47,412.42c.1,1.37.19,2.75.29,4.13L213,416l-2.47,2.08.45.9c-.28-.57-.87-1.21-.76-1.69.43-1.93,1-3.83,2.68-5.11Z" transform="translate(-203.77 -397.86)"/><path class="cls-1" d="M270.62,408.35c-1.75-.4-3.66-.2-5.5-1.48l6.2-2.76c.32,2.49-2.77.67-2.68,2.87l2.29-.66-.32,2Z" transform="translate(-203.77 -397.86)"/><path class="cls-1" d="M270.61,408.35a4,4,0,0,0,3.13-3,3.7,3.7,0,0,1,2.84,1.46l.07-.07c-.87.15-2.1,0-2.55.51a3.34,3.34,0,0,1-3.48,1.08Z" transform="translate(-203.77 -397.86)"/><path class="cls-1" d="M252,401.07l3.94-.26-1.22,2.37-2.84-1.6Z" transform="translate(-203.77 -397.86)"/><path class="cls-1" d="M276.58,406.83c1.51.37,1.51.37,2.72,1.88h-2.93c.12-.79.2-1.37.29-2Z" transform="translate(-203.77 -397.86)"/></g></g></svg>