<svg xmlns="http://www.w3.org/2000/svg" viewBox="0 0 138.57 135.55"><defs><style>.cls-1{fill:#fff;}</style></defs><title>Middel 5</title><g id="Laag_2" data-name="Laag 2"><g id="Laag_1-2" data-name="Laag 1"><path d="M508.85-35.71c-.37.31-.84.51-.93.82-.54,1.91-2.23,2.42-3.74,3-3.54,1.42-7.14,2.68-10.7,4.05-1,.4-2,.94-3,1.4-3.57,1.58-7.11,3.24-10.73,4.72-4.55,1.86-9,3.87-14,4.61a39.55,39.55,0,0,0-7.21,2.17c-2.05.73-2.44,1.52-2.33,3.78a5.18,5.18,0,0,1,0,1.67c-1.24,4.27-1,8.66-1.3,13-.08,1.27-.37,2.53-.54,3.79q-1.69,12.6-3.39,25.19a43,43,0,0,1-.79,5,15.91,15.91,0,0,1-1.39,3,2.66,2.66,0,0,1-2.18-2.75,36.06,36.06,0,0,1,.38-5c1-6,2-12,3.07-17.94.22-1.26.54-2.5.73-3.77.47-3.06.91-6.13,1.29-9.21.46-3.68.15-7.52,1.59-11.07.6-1.46-1.05-2.18-.85-3.74l-1.86,1,1.44,1.75c-.09.4-.16.88-.3,1.33a1.31,1.31,0,0,1-1.86,1,4.28,4.28,0,0,1-2.72-2.11,14.19,14.19,0,0,0-5.48-6c-2.4-1.39-4.54-3.21-6.8-4.84l-3.48-2.54a10.67,10.67,0,0,1-1.15-.85c-1.83-1.77-3.59-3.62-5.47-5.33-1.11-1-2.42-1.77-3.6-2.7-1.63-1.28-3.21-2.63-4.83-3.92-.8-.63-1.62-1.25-2.47-1.8-3.37-2.19-7.09-3.93-9.44-7.61A5.14,5.14,0,0,1,399.91-48a1.39,1.39,0,0,0-.71-.61c-3.69-.94-6.68-3.26-10-5-.63-.33-1.38-.43-2-.77a14.49,14.49,0,0,1-1.76-1.36,5.72,5.72,0,0,0-1.2,3.54c0,3.59,0,7.19.15,10.78a10,10,0,0,0,.61,3c1.2,3.28.7,6.42-.41,9.6-1.37,3.91-3.25,7.68-3.44,11.92-.08,1.91,0,3.82,0,5.73.09,3.11.26,6.22.34,9.34a7,7,0,0,1-.4,1.65c-1.39.09-2.26-.26-2.34-1.74s-.31-3.17-.27-4.75a15.15,15.15,0,0,0-.83-5.65c-.15.32-.43.66-.42,1a15.33,15.33,0,0,1-1.44,6.93A3,3,0,0,0,376-1.23c.64,1,.39,2.58,2.08,2.81.11,0,.3.88.15,1-.3.26-.92.52-1.21.38a4.83,4.83,0,0,1-2.76-3.12,10.32,10.32,0,0,1,.07-7.22,16,16,0,0,0,.53-3.52,9.58,9.58,0,0,1,.7-2.75,6.38,6.38,0,0,0,.57-3.7,19.3,19.3,0,0,1,.22-3.55c.2-2.13.61-4.26.63-6.39a64.92,64.92,0,0,1,1.29-10.67c.8-4.63,1.26-9.32,1.75-14,.21-2,0-4,.21-6a8.77,8.77,0,0,1,.95-2.39c.27-.64.57-1.27.84-1.92,1-2.25,2-4.31,4.77-4.86A44.4,44.4,0,0,0,393.7-69c3.42-1.27,6.79-2.71,10.11-4.21a22.56,22.56,0,0,0,6.51-4,2.54,2.54,0,0,1,1.56-.47c-1.8,3-4.85,4.54-7.86,6.13l.38.59c.78-.29,1.59-.52,2.35-.88,4.18-2,8.34-4,12.52-6,.86-.41,1.68-.82.87-2,.92-.19,1.49-.7,2.37,0s2,.17,2.76-1.07c.17-.28.48-.68.71-.67,1.68.07,3.36.27,4-2.21L432.47-80a11.81,11.81,0,0,1-2.37,2c-4.79,2.27-9.61,4.48-14.47,6.59-2,.88-4.19,1.39-6.22,2.23s-4,1.92-6.08,2.93a2.69,2.69,0,0,0-3-.27c-1.91.77-4,1.43-6.15.19-1.58-.92-3,.08-4.44.87l.92,2.24,1.95.23a6.07,6.07,0,0,0,.33.53,6.72,6.72,0,0,0,1.33,1.63c4.18,2.78,8.42,5.5,12.63,8.25a17.9,17.9,0,0,1,1.74,1.26c2.33,1.94,4.59,4,7,5.84,4.48,3.47,9,6.86,13.56,10.26,4.81,3.59,9.66,7.12,14.44,10.74,1.52,1.15,2.88,2.53,4.35,3.76,1.89,1.58,3.82,3.12,5.71,4.69a2,2,0,0,0,2.43.19c4-2.18,8.54-3,12.87-4.33,1-.31,2-.57,3-1q11.08-4.49,22.15-9,4.64-1.92,9.19-4a26.37,26.37,0,0,0,3-2,14.59,14.59,0,0,1-5.56-3.64c-2-2.27-4.75-3.89-7.11-5.88-1.7-1.44-3.34-3-4.91-4.56-2.18-2.19-4.18-4.57-6.43-6.68a30.19,30.19,0,0,0-4.16-2.79,10.5,10.5,0,0,1-1.76-1.24c-2.47-2.48-4.84-5.08-7.38-7.49-2.71-2.57-5.6-5-8.37-7.48s-5.28-4.82-7.84-7.32c-1.41-1.39-2.06-1.6-4-.67-1.06.53-2.09,1.11-3.17,1.6a2.78,2.78,0,0,1-1.39.25c-3.67-.39-6.87.87-10,2.91-.66-.83-1.27-1.61-1.87-2.38l15.12-5.64-.07-.41-5.73-.37c1.48-1.18,2.54-1.73,3.87-1.63a2.53,2.53,0,0,0,.95,0c2.95-.92,5.23.71,7.59,2,1.9,1,3.75,2.15,5.63,3.21a9.79,9.79,0,0,1,4.16,3.85,4.24,4.24,0,0,0,.89,1.13c1.82,1.66,3.63,3.34,5.52,4.93s4,3,5.79,4.62c5.36,4.89,10.61,9.9,15.95,14.81a67.11,67.11,0,0,0,5.51,4.6A78.86,78.86,0,0,1,507-42c.77.8,1.8,1.34,2.59,2.12a20.53,20.53,0,0,1,2.26,2.75,1.47,1.47,0,0,1-.3,2.15,1.35,1.35,0,0,1-1.94-.14A4.56,4.56,0,0,0,508.85-35.71Zm-77.48,8.06-1.32-1.2a.76.76,0,0,0,.32.81,5.31,5.31,0,0,0,1.07.32l2.76,2.52c1.6,1.9,5.5,4.71,7.07,4.66l-7.12-4.61Zm-45.2-30.16c3,1.63,6,3.12,8.89,4.83,4.51,2.68,9.24,5,13.18,8.62a6.75,6.75,0,0,0,4.05,1.88c-2.07-1.92-3.31-4.38-6-5.32a6.06,6.06,0,0,1-1.55-1.11c-1.51-1.18-3-2.39-4.52-3.53-2.24-1.67-4.57-3.21-6.73-5-1.69-1.38-3.29-2.47-5.69-2.13C386.75-59.4,386.49-59,386.17-57.81Zm-4.39,15.24-.52-.08a13.94,13.94,0,0,0-.26,1.8,40.73,40.73,0,0,1-.78,8.3c-.36,1.62-.07,3.38-.07,5.55a10.74,10.74,0,0,0,.82-1.36c.62-1.72,1.27-3.44,1.78-5.19a4.29,4.29,0,0,0-.77-4.28,3,3,0,0,1-.52-2.93C381.61-41.35,381.68-42,381.78-42.57ZM448.19-14.2l.55-.67-4.53-3.35-.34.46ZM383.87-59.47c-2.23,1.93-2.23,1.93-1.66,4.77Zm66-28.48,4.18,2.4C453.58-88,451.46-87.55,449.85-87.95Zm55,47.73.42-.33-1.81-2.17-.41.32Z" transform="translate(-373.64 89.83)"/><path d="M462.39-56.06c1.59,0,3,0,4.41,0a4.42,4.42,0,0,1,4.8,4.22,3,3,0,0,1-.68,2.15c-2.4,3.33-5.67,4.68-9.64,4.91a21.08,21.08,0,0,0-5.79,1.34c-3.29,1.17-6.61,2.39-10.21,2.31-1.88,0-3.79-1.39-3.94-3.24a42.87,42.87,0,0,1-.1-5.89,13.43,13.43,0,0,1,2.89-6.89c.64-.91,1.35-1.78,1.94-2.71a10,10,0,0,1,3.63-3.74,3.75,3.75,0,0,0,1.16-.82c2.17-2.62,4.88-2.15,7.71-1.52,3.35.73,4.46,3.22,5,6.16a3,3,0,0,1-.38,1.49c-.17.44-.46.83-.67,1.25A6.78,6.78,0,0,0,462.39-56.06Z" transform="translate(-373.64 89.83)"/><path d="M425.35,24.35c3.25,2.31,6.52,4.59,9.73,6.94,3.47,2.55,7,5.08,10.31,7.79A16.15,16.15,0,0,1,448.54,43a7.76,7.76,0,0,1,.54,2.56,6.5,6.5,0,0,1-5.19-.88c-3.42-2.32-6.62-5-10-7.38-3.62-2.59-7.29-5.13-11-7.57-3.48-2.26-7.06-4.36-10.58-6.54-4.14-2.57-8.2-5.26-12.41-7.7-5.47-3.18-10.53-6.92-15.69-10.54-.71-.5-1.4-1-2.27-1.68.3-1.09.62-2.21.95-3.37A63.62,63.62,0,0,0,395,8.37c6,3.35,12,6.72,18,10,2.73,1.5,5.5,2.92,8.29,4.3,1.36.67,2.8,1.16,4.19,1.73Z" transform="translate(-373.64 89.83)"/><path d="M425.35,24.35l.09.08a19.64,19.64,0,0,1-1.12-2.06c-1.08-2.61-1.95-3-4.7-2.21a1.91,1.91,0,0,1-.48,0c-2.09-2.4-1.11-6.51,1.76-7.43a5.09,5.09,0,0,1,4.7,1.52c1.13,1.68.94,3.06-.77,5,.42.52.84,1.07,1.29,1.65a6.38,6.38,0,0,0,.66-.43,40.48,40.48,0,0,1,3.2-2.83,2.48,2.48,0,0,1,3.47.1c.79.8,1,2.94,0,3.75-1.31,1-1.72,2.25-2,4.14l-1.74-2.77v3.6a12,12,0,0,1-2.23-1.54C426.82,24.22,426.08,24.43,425.35,24.35Zm-.9-7.08a3.26,3.26,0,0,0-2.89-1.75C422.34,16.48,422.74,17.32,424.45,17.27Z" transform="translate(-373.64 89.83)"/><path d="M432.84,2.41c1.91,2,1.9,2.22,0,6.7a29.45,29.45,0,0,0,7,3c1-1.73,1.87-3.35,2.83-5.07l2.82,1.38c-.13.84-.25,1.61-.4,2.52.55.11,1,.16,1.44.29a3,3,0,0,1,2.09,2.39c.37,1.68-1.15,4.25-3,5.26-1.27-1.25.06-2.53,0-3.77l-2.51-2.23c-1.31.75-1,2.95-2.94,3.28-.28-.25-.77-.5-.95-.88a2.09,2.09,0,0,0-1.89-1.23,10.89,10.89,0,0,1-4.94-2.29,2.6,2.6,0,0,1-1.3-2.85C431.53,6.86,432.17,4.82,432.84,2.41Z" transform="translate(-373.64 89.83)"/><path d="M409.12-34c.91.59,1.72,1.08,2.49,1.63,1.89,1.35,2.57,3.09,1.72,5.18-.34.81-1.34,1.36-2.43,2.4l-1.64,3.31c-1.84,0-3.25.1-4.65,0-2.25-.18-2.73-1.42-1.52-3.37,1.08-1.74,2-3.61,3.06-5.34C407-31.43,408-32.54,409.12-34ZM405-24.89c2.69.91,2.85.86,3.57-.87l-1.69-1.8Z" transform="translate(-373.64 89.83)"/><path d="M401.78-30.83l-4.68.48c-.91-.48.43-1.39.13-2.12-2.09-1.62-2.09-1.62-4.8,0-2.61-1.53-2.76-2.68-.74-4.7a22.09,22.09,0,0,0,1.86-2.43c1.45,1.59,3,.93,4.62.36,2-.73,3.62.47,3.41,2.63a16.28,16.28,0,0,0-.36,1.62,3.39,3.39,0,0,0,.4,1.94A1.82,1.82,0,0,1,401.78-30.83Z" transform="translate(-373.64 89.83)"/><path d="M439.63-7.15c-2.25-2.15-4.73-.75-7-1.28l-.25.58a12.91,12.91,0,0,0,1.78,1.28c1.82.89,1.89,1.07.65,2.91A6.51,6.51,0,0,1,430-8.95a3.66,3.66,0,0,1,1.64-3.27c2.48-1.77,5-1.57,7.32.45a11.22,11.22,0,0,0,.94.73c1,.7,1.51,1.41.34,2.46C440-8.3,439.89-7.75,439.63-7.15Z" transform="translate(-373.64 89.83)"/><path d="M386.46-9.67c-1.33-2.39-1.06-2.93,1.06-3.73a5.5,5.5,0,0,0,2.48-2,19.82,19.82,0,0,0,1.51-3.84c-1.1.29-1.87.57-2.67.69-1.15.17-1.63-.28-1.68-1.42a5,5,0,0,1,3.74-4.85c1,1.12,1.93,2.22,2.86,3.37a1.57,1.57,0,0,1,.2,2c-1.08,1.94-2.11,3.91-3,5.92A7.26,7.26,0,0,1,386.46-9.67Z" transform="translate(-373.64 89.83)"/><path d="M392.22-5l-.76,2-3,2c-.71-.46-.73-1.13-.25-1.9s.94-1.47,1.4-2.22c.7-1.14,1.48-2.08,3.05-1.69a3.66,3.66,0,0,1,2.7,3c.1.71.08,1.43.18,2.14A6.39,6.39,0,0,0,396-.12c.29.73.69,1.42,1.14,2.33L401.4-1l.54.36a13,13,0,0,1-.65,2.6c-.79,1.62-1.74,3.17-2.7,4.88a4.76,4.76,0,0,1-2.7-3.18c-.84-2.31-2.09-4.49-2.07-7.07,0-.58-.61-1.16-.94-1.74Z" transform="translate(-373.64 89.83)"/><path d="M421.35-10a1.9,1.9,0,0,1-.16-2.63c.72-.95,1.51-1.84,2.2-2.8a12.69,12.69,0,0,0,1.43-2.36c.63-1.44,1.87-2.36,3.06-2.09a3.4,3.4,0,0,1,2.3,3,5,5,0,0,1-.58,2.52,21.72,21.72,0,0,1-3.51,3.78C424.7-9.43,423-9.87,421.35-10Zm2.38-2.61c2,.14,4.54-1.77,4.63-3.47.05-.77-.74-1.47-1.12-1C426-15.68,423.75-15,423.73-12.63Z" transform="translate(-373.64 89.83)"/><path d="M438.2,1.21c-.67-2.34.25-4.09.66-5.89.05-.2.3-.52.44-.51,1.67.12,2.2-1.33,3.14-2.22a4.32,4.32,0,0,1,5.46-.24c.79.67.83,1.71.07,3.73l-4.34-2-1.89,2.21c.68,1.11,1.91,2,.5,3.31L440-1Z" transform="translate(-373.64 89.83)"/><path d="M426.86,8.23c-2.06-1.48-2.08-3.33-2.57-5.08L421.23,4c-1.56-2.85.46-5.36,4.71-6.79,0,1.63,0,1.63-1.44,3.58.3.61.69,1,1.44.54a3.92,3.92,0,0,1,3.74-.18,9.17,9.17,0,0,1-.08,1.4,4.74,4.74,0,0,1-.38,1c-.25.11-.4.22-.54.21-.66,0-1.56-.41-1.93-.11-.77.62-.14,1.27.3,2C427.35,6.15,427,7.07,426.86,8.23Z" transform="translate(-373.64 89.83)"/><path d="M415.71-6.21c.53-.12.89-.22,1.25-.28,1.77-.24,3.09,1.13,2.28,2.69-1.57,3-3.19,6.12-6.64,7.54-1.86.77-3.34-.3-3.2-2.34,0-.13.16-.26.24-.38,1,.09,2.1.55,2.84.19a8.45,8.45,0,0,0,2.77-2.5,26,26,0,0,0,1.87-3.38Z" transform="translate(-373.64 89.83)"/><path d="M421.48-24.81c-1.2,2.52-1.39,2.68-3.78,2.16-1.47-.32-2.65-.18-3.6,1.12-1.38,1.87-.76,4.45,1.7,4.77.38.05.76.14,1.73.33-.86.6-1.4,1.29-1.84,1.23a4.38,4.38,0,0,1-2.52-1.05c-1.67-1.8-.86-3.9-.25-5.87.53-1.69,1.52-3,3.5-3.12C418.11-25.32,419.87-25.91,421.48-24.81Z" transform="translate(-373.64 89.83)"/><path d="M412.76,5.91c1.83-1.29,3.43-.71,3.7,1.36.31,2.41-.34,3.81-2.32,4.63a7.48,7.48,0,0,1-2.29,0c-.09.14-.51.7-.86,1.29a6,6,0,0,1-1.29,1.7,4.58,4.58,0,0,1-.28-1.81c.58-2,1.25-4.08,2-6.07.2-.5.92-.8,1.39-1.18l-.64.77,2,3.26c1.37-.58,1.2-1.56,1-2.61C414.89,5.84,413.76,6,412.76,5.91Z" transform="translate(-373.64 89.83)"/><path d="M401.45-19a2.85,2.85,0,0,1-.34,3.76c.95,1.2,2.14,2.15,2.54,3.36a3.53,3.53,0,0,1-1,3.71A8.2,8.2,0,0,1,402-9.69c-.15-.83.18-1.89-1-2.15s-2.19-.36-3,.76c-.11.16-.38.21-.75.4C396.83-14.45,399.84-16.23,401.45-19Z" transform="translate(-373.64 89.83)"/><path d="M439.88,21.33c.48.51,1,.84,1.19,1.3a3.66,3.66,0,0,1,.48,2.15c-.12.42-1.1.61-1.95,1-.16.45-.41,1.2-.69,1.94a1.78,1.78,0,0,1-2.3,1.15c-1.49-.32-2.15-1.55-1-2.57C437.16,24.86,438.15,22.88,439.88,21.33Z" transform="translate(-373.64 89.83)"/><path d="M404.68,3.67h3a15.59,15.59,0,0,1,.65,1.86c.72,3.25.61,3.4-2.6,4.1-.23,0-.47.06-.68.09C403.43,8.07,403.43,8.07,404.68,3.67Z" transform="translate(-373.64 89.83)"/><path d="M436.81-52.25c-1.84,2.12-2.61,2.21-4.63.75a3.76,3.76,0,0,0-.59-.39c-2.23-1.09-2.29-1.29-1-3.52C433-55.1,434.73-53.6,436.81-52.25Z" transform="translate(-373.64 89.83)"/><path d="M436.08-50.2a20.2,20.2,0,0,1,.28,2.64,1.67,1.67,0,0,1-.61,1.16,30.75,30.75,0,0,1-3.44,2.07,1.36,1.36,0,0,1-1.26-.06,1.36,1.36,0,0,1-.25-1.25C431.8-47.88,433.15-49.76,436.08-50.2Z" transform="translate(-373.64 89.83)"/><path d="M482.39-44.14c-1.22,2-2.92,2.51-4.35,3.29-.82.45-2.52-.62-2.64-1.45-.16-1.06,1.1-2.69,2.22-2.61C479.1-44.8,480.56-44.44,482.39-44.14Z" transform="translate(-373.64 89.83)"/><path d="M411.11-11a10.36,10.36,0,0,0,.06,2.8,11.26,11.26,0,0,0,1.53,2.49c-.4.27-.69.47-1,.66-1.79,1.12-2.43.89-3-1.06A4.11,4.11,0,0,1,411.11-11Z" transform="translate(-373.64 89.83)"/><path d="M432.58-83.94c2.48-2.11,5.57-1.69,8.18-3.61-.11.94,0,1.43-.23,1.75a3.24,3.24,0,0,1-1.11.87A14.86,14.86,0,0,1,434-83.47C433.69-83.41,433.3-83.69,432.58-83.94Z" transform="translate(-373.64 89.83)"/><path d="M473.85-41.07c2.9,2.11,3.42,3.08,2.76,5.47a34.53,34.53,0,0,1-3.09-2.63C472.7-39.11,472.84-40.12,473.85-41.07Z" transform="translate(-373.64 89.83)"/><path d="M440.71,32.85c-1.42-1.68-1.42-1.91,0-4.32Z" transform="translate(-373.64 89.83)"/><path d="M418-7.56c-.51-1-.28-1.76.94-2.38-.09.82-.19,1.64-.29,2.46Z" transform="translate(-373.64 89.83)"/><path d="M417-78.92c-1.1,1.6-1.94.93-2.76.52Z" transform="translate(-373.64 89.83)"/><path class="cls-1" d="M386.17-57.81c.32-1.2.58-1.59,1.65-1.74,2.4-.34,4,.75,5.69,2.13,2.16,1.77,4.49,3.31,6.73,5,1.53,1.14,3,2.35,4.52,3.53a6.06,6.06,0,0,0,1.55,1.11c2.67.94,3.91,3.4,6,5.32a6.75,6.75,0,0,1-4.05-1.88c-3.94-3.57-8.67-5.94-13.18-8.62C392.19-54.69,389.2-56.18,386.17-57.81Z" transform="translate(-373.64 89.83)"/><path class="cls-1" d="M381.78-42.57c-.1.61-.17,1.22-.32,1.81a3,3,0,0,0,.52,2.93,4.29,4.29,0,0,1,.77,4.28c-.51,1.75-1.16,3.47-1.78,5.19a10.74,10.74,0,0,1-.82,1.36c0-2.17-.29-3.93.07-5.55a40.73,40.73,0,0,0,.78-8.3,13.94,13.94,0,0,1,.26-1.8Z" transform="translate(-373.64 89.83)"/><path class="cls-1" d="M434.15-25.15l7.12,4.61c-1.57.05-5.47-2.76-7.07-4.66Z" transform="translate(-373.64 89.83)"/><path class="cls-1" d="M448.19-14.2l-4.32-3.56.34-.46,4.53,3.35Z" transform="translate(-373.64 89.83)"/><path class="cls-1" d="M383.87-59.47l-1.66,4.77C381.64-57.54,381.64-57.54,383.87-59.47Z" transform="translate(-373.64 89.83)"/><path class="cls-1" d="M449.85-87.95c1.61.4,3.73-.08,4.18,2.4Z" transform="translate(-373.64 89.83)"/><path class="cls-1" d="M504.85-40.22l-1.8-2.18.41-.32,1.81,2.17Z" transform="translate(-373.64 89.83)"/><path class="cls-1" d="M431.38-27.66l2.77,2.51.05-.05-2.76-2.52Z" transform="translate(-373.64 89.83)"/><path class="cls-1" d="M431.44-27.72a5.31,5.31,0,0,1-1.07-.32.76.76,0,0,1-.32-.81l1.32,1.19Z" transform="translate(-373.64 89.83)"/><path class="cls-1" d="M424.45,17.27c-1.71.05-2.11-.79-2.89-1.75A3.26,3.26,0,0,1,424.45,17.27Z" transform="translate(-373.64 89.83)"/><path class="cls-1" d="M405-24.89l1.88-2.67,1.69,1.8C407.82-24,407.66-24,405-24.89Z" transform="translate(-373.64 89.83)"/><path class="cls-1" d="M423.73-12.63c0-2.39,2.29-3,3.51-4.48.38-.46,1.17.24,1.12,1C428.27-14.4,425.73-12.49,423.73-12.63Z" transform="translate(-373.64 89.83)"/><path class="cls-1" d="M412.76,5.91c1,.11,2.13-.07,2.41,1.37.2,1,.37,2-1,2.61l-2-3.26.64-.77Z" transform="translate(-373.64 89.83)"/></g></g></svg>