<svg xmlns="http://www.w3.org/2000/svg" viewBox="0 0 226.67 216.58"><title>Middel 3</title><g id="Laag_2" data-name="Laag 2"><g id="Laag_1-2" data-name="Laag 1"><path d="M650.87-90.66c2.09-.61,4.08-.61,5.84.89-.27,3-3.91,5.24-10.38,6.32-1.64,2.34-.72,4.72-.13,7.15,1.56.84,3.53-1.17,4.91.69.64.87,1.29,1.73,1.94,2.59a6.12,6.12,0,0,1-4.37,2.63,20.61,20.61,0,0,0-4.89,1.16,3.79,3.79,0,0,0-2.08,1.76,14.21,14.21,0,0,0-1.06,5L642-63.5c1.51-1.22,3.36-1.38,4.54-.39a2.64,2.64,0,0,1-.29,4.54c-2.06,1.21-4.25,2.19-6.72,3.43-.09,1.49-.2,3.3-.32,5.21,1.3.06,1.83-.86,2.56-1.37a5.05,5.05,0,0,1,5.58.07,1.74,1.74,0,0,1,.74,2.29A8,8,0,0,1,646.23-47a42.53,42.53,0,0,1-5,3.27,1.89,1.89,0,0,0-1.13,2.12A14.47,14.47,0,0,0,641.27-37c1.1-.81,2-1.46,2.87-2.1,1.46-1,2.56-1.16,3.49-.4a3.06,3.06,0,0,1,.61,3.53c-1,2.65-2.37,5.07-5.31,6.27.67,1.54,1.22,2.86,1.83,4.15a17.12,17.12,0,0,0,1.07,1.66c1.38-.76,2.7-1.43,4-2.19s2.74-1.67,4.48-1.21c1.52.4,1.77.86,1.2,2.38-.16.43-.12,1-.39,1.32a56.1,56.1,0,0,1-3.84,4.17c-1.65,1.58-1.59,2.42.57,3.82,1.58-1.29,3.16-2.61,4.78-3.9a2.4,2.4,0,0,1,3.84.59c.72,1.14,1.31,2.37,1.89,3.45-.47,2.86-3,3.5-5.32,4.84a7.89,7.89,0,0,0,7.1,1c2.27-.68,4.49-1.56,6.81-2.37-1.89-2.38-3.72-4.67-5.53-7a16.8,16.8,0,0,1-3.48-13.5c.25-1.58.45-3.16.72-4.72a3.16,3.16,0,0,1,.53-1.57,3.27,3.27,0,0,1,1.7-1c.86-.13,1.15.59,1.37,1.35.62,2.13,1.31,4.23,2.12,6.78a12.81,12.81,0,0,1,1.34-2c1.72-1.62,3.82-1.78,4.67.82.4,1.2.85,2.37,1.27,3.56l8.92-1.35c-.35-.63-.67-1.58-.9-1.56-1.68.16-2.61-1.36-4.09-1.65a12.3,12.3,0,0,1-6.09-3.65,3.46,3.46,0,0,1-.82-1.15c-.93-2.37-.3-3.43,2.19-3.75.29,0,.57-.12.83-.17,0-.2,0-.34,0-.36-2.65-1.41-4.46-3.72-6.23-6a3.79,3.79,0,0,1-.72-1.92,15.91,15.91,0,0,1,.23-2.68c2.85-.92,5.11,1.08,7.83,1.07a19.27,19.27,0,0,0-3.17-2.31A21.23,21.23,0,0,1,665.79-61c-.59-.74-1.28-1.4-2-2.16a.79.79,0,0,1,0-.37c1.28-4.14.85-4,4.66-2.21,1.51.7,3,1.47,4.53,2.22a2.08,2.08,0,0,0-.7-2.61c-1.73-1.39-3.12-3.2-5.34-4-1.32-.46-1.6-1.5-1.07-2.9.3-.79.64-1.58,1-2.52l5,2.19a2.85,2.85,0,0,0-1-2.71,11.51,11.51,0,0,1-3.22-5.78,8.85,8.85,0,0,0-1.18-2.28c.4-2,1.75-3.08,3.87-3.67,2.16,1.89,2.23,5.06,3.81,7.31a11.35,11.35,0,0,1,1.23-1.84,2.94,2.94,0,0,0,.44-4q-2.13-3.18-4.18-6.41c-.61-.94-.08-2.56,1.1-3.52s1.76-1,2.95,0c.91.78,1.71,1.68,2.57,2.51.45.44.91.86,1.36,1.28,1.76-1.78,1.9-3.21.53-5-.82-1.09-1.8-2-2.56-3.17a9.3,9.3,0,0,1-.73-10c3,.71,4.31,3.23,5.88,5.42.86-.49,1.66-.93,2.44-1.4,1.33-.81,1.53-1.52.76-2.94-1.09-2-2.25-4-3.35-6.07s-.46-3.48,1.92-3.92a21.06,21.06,0,0,1,2.17-.16c.58.93,1.13,1.79,1.66,2.63,2.45-.91,2.88-1.27,2.38-3.1-.74-2.64.2-4.87,1.2-7.15.41-.92.89-1.82,1.36-2.78-1.25-.91,5.48-.9,3.76.06,1.3,3.21,3,6.48-.81,9.46l.73.22c.6-.45,1.22-.87,1.8-1.35a4.34,4.34,0,0,0,.56-.77c1.35-1.74,2.77-2.19,4.07-1.28,2,1.38,2.55,3.8,1.1,5.43a38.57,38.57,0,0,1-3.94,3.48c-.35.31-.74.56-1.25,1a26.44,26.44,0,0,1,2.32,1.79c1.19,1.13,1.15,2-.24,2.9a10,10,0,0,1-6.21,1.31c-1.51-.11-3-.42-4.51-.59a3.93,3.93,0,0,0-1,.21l-.06.5A17.75,17.75,0,0,1,693-107a17.74,17.74,0,0,1,2.87,2.15c-1.31,2.08-3.21,2.75-5,3.57s-3.45,1.44-5,2.38c-.63.38-.9,1.37-1.33,2.09l.35.46c1.55-.5,3.1-1,4.66-1.49a5.24,5.24,0,0,1,2-.36,2.75,2.75,0,0,1,2.15,4.24,8.8,8.8,0,0,1-5.55,3.89,22.06,22.06,0,0,1-5,.87,2.88,2.88,0,0,0-2.76,1.87c-.49,1.07-.94,2.16-1.53,3.53a5,5,0,0,0,1.38-.26c2.06-1.24,4.45-1.13,6.69-1.65a3.21,3.21,0,0,1,3.37,2A3,3,0,0,1,688.85-80c-3.68,1.51-7.33,3.27-11.51,2.72a5.57,5.57,0,0,0-.84,0c-.82,1.58-1.79,3.1-1.63,5.4a27.73,27.73,0,0,0,3.46-1,9.72,9.72,0,0,1,8.34.4c2.12,1,2.42,3,.59,4.47a10.14,10.14,0,0,1-5.6,1.91c-.95.09-1.91,0-2.87.07-2,.05-2.89,1.16-2.47,3.08.15.69.41,1.36.68,2.24,1.16-.24,2.23-.52,3.31-.69,2.59-.42,5.18-.9,7.79-1.11.79-.06,1.64.67,2.34,1a4.35,4.35,0,0,1-2.35,4,15.16,15.16,0,0,1-6.32,2.06l-2.73.29,1.38,4.74c2.79-2,5.87-2,8.83-2.45a3.38,3.38,0,0,1,3.36,1.42c.45.67-.8,2.34-2,3.25a18.4,18.4,0,0,1-8.6,4.09l1.61,4.72c2.12-.56,4.05-1,5.92-1.6a13.38,13.38,0,0,1,8,.15,5.21,5.21,0,0,1,1.12.67,4.25,4.25,0,0,1-3.39,2.56c-3.22.51-6.39,1.32-9.71,2,.06,1.42,1,2.25,1.95,3.22,4.52-1.59,9-3.41,13.82-3.58a5.2,5.2,0,0,1,1.58.49c-.07,1.61-.24,3-1.82,3.71a2,2,0,0,0-.74.9,9.67,9.67,0,0,1-6,4.78,2,2,0,0,0-1.14.94,3.28,3.28,0,0,0,1.2.06c1.83-.56,3.62-1.21,5.43-1.8,1.29-.42,2.58-.87,3.9-1.16a3,3,0,0,1,2.78.9c-.84,4.09-5,4.63-7.48,7l.81,1.57,16-1.43c-2.79-2.75-3.58-5.94-4.48-9.07-1-3.41-1.73-6.81-.42-10.33a9.78,9.78,0,0,0,.13-1.9c.19-1.32,1.24-1.76,2.22-.89s2,2,3,3.09c2.54-.38,3.42-2.77,4.74-4.61a37.35,37.35,0,0,0,2.08-4,5.31,5.31,0,0,1,1.12-1.46c.83-.73,1.77-1.34,2.63-2,1.22-1,2.06-.72,2.31.85a3.12,3.12,0,0,1-.3,1.8,6.42,6.42,0,0,0,0,6.4,8.36,8.36,0,0,1,.54,6.07c-1.22,5.48-.18,10.78,1.49,16A2.46,2.46,0,0,0,733-18.46c3.57.85,7.16,1.66,10.64,2.81,3.71,1.23,7.4,2.67,9.94,5.92.57.74,1.11,1.5,1.66,2.25L755-7c-2.71-.72-5.43-1.41-8.14-2.17q-6-1.69-12-3.48a3.11,3.11,0,0,0-3.47.8c-1.67,1.82-3.4,3.59-4.93,5.53a4.24,4.24,0,0,0-.48,2.5c0,1.67.21,3.35.3,5,.19,3.72-1.85,6.51-4,9.23a2.53,2.53,0,0,1-3.08.65c-1.24-.48-2.36-1.25-2.32-2.75.09-3-.31-6,1.09-8.9a97,97,0,0,0,3.56-10.17,5.08,5.08,0,0,0-.35-4.57c-.93,0-2-.14-3-.13-4.23,0-8.46.11-12.7.18a2.28,2.28,0,0,0-.94.12c-2.83,1.29-5.5,2.77-6.66,6,2.57,1.2,5.06-.81,7.52,0a6.3,6.3,0,0,1,.08.89c-.28,3.3-.52,3.45-4,3.75a7.89,7.89,0,0,0-2.62,1c-.92.46-1.77,1-2.84,1.67-.48-.91-.87-1.63-1.25-2.34-2,.46-2,.46-2.21,2.13A10.73,10.73,0,0,1,691.75,0c-.13.34-.19.71-.33,1.23a22.32,22.32,0,0,0,6.23-1,34.28,34.28,0,0,1,4-.78c1.6-.16,2,.36,1.87,1.91-.23,2.14-1,3-3.37,3.37-1.57.28-3.16.49-4.73.76a6.79,6.79,0,0,0-1,.36c-.57,1,.6,2.3-.71,2.89a21.79,21.79,0,0,1-3.08.85V12.8c1.69-.74,3.12-1.22,4.4-2,2.42-1.39,4.9-1.19,7.42-.55,1,.25,2,.62,2,2a3.38,3.38,0,0,1-2.24,3.31c-.85.22-1.73.3-2.59.49-1.84.39-3.79.32-5.49,1.41-1.08.71-2.24.33-3.55-.36l.42,3.62c4.21-.81,8.13-1.51,12-2.35,1.31-.28,2.2-.13,2.65,1.28a4.84,4.84,0,0,1-4.49,4.4c-2,.3-3.88.89-5.85,1.19-1.81.28-2.86,1.23-2.89,3.06a17.24,17.24,0,0,0,.26,2.12l2.15-.44c2.73-.59,5.45-1.25,8.2-1.75,1.3-.24,2.79-.47,3.64,1,.58,1-.08,3.8-1.19,4.63a10,10,0,0,1-3.34,1.76,31,31,0,0,1-4.74.54c-.62.06-1.24.07-2.21.12.27,1.53.51,2.89.79,4.46,1.75-.37,3.28-.72,4.81-1a9.67,9.67,0,0,1,8.34,2.44c-.18,3-2.18,4.71-4.4,5.68S700,49,697.33,49.56c-.12,1.39-.26,3-.42,4.86l5.24-1.12a8.41,8.41,0,0,1,1.65-.23c2.73,0,3.75,1.53,2.77,4.11a5.1,5.1,0,0,1-3.48,3.06A54.1,54.1,0,0,1,697,61.58c-2.07.37-2.08.31-2.58,3,1.25.14,2.48.32,3.72.43,2.19.19,3.12.86,3.26,2.43.17,1.92-1,4-2.75,4.23-2.12.27-4.29.15-6.44.21-.82,0-1.64.09-2.45.14l-.13.65a5.22,5.22,0,0,0,1.47.81c3.21.55,5.42,2.54,7.42,4.91,1.57,1.86.58,3.58-.09,5.36s-1.86,2-3.43,2a22.48,22.48,0,0,1-12.66-4.55c-.65-.47-1.25-1-2-1.6-2.64,1.65-5.37,3.18-8.84,1.52.74-3.5,3.55-5.31,6.33-7.39a5.12,5.12,0,0,1-1.3-.84c-1.8-2.32-2-3,.11-5.1s4.78-3.18,7.9-2.23c.75.23,1.59.65,1.78-.79-1.15-.89-2.53-.6-3.83-.64a3.22,3.22,0,0,1-3-1.88c-.77-2.07,0-3.48,2.44-3.88,2-.35,4.11-.47,6.46-.72a11.43,11.43,0,0,0,.89-6.17c-.47.09-.84.12-1.2.22-2.45.69-4.89,1.42-7.35,2.06a1.72,1.72,0,0,1-1.29-.31c-.82-.61-1.55-1.34-2.37-2.08,1.81-2.92,3.9-5.32,7.39-6.09,1.94-.44,3.85-1,6-1.59-.1-1.52-.19-3-.3-4.62l-1.9.39a47,47,0,0,1-5,.86c-2.51.18-5,.1-6.15-3.29a6.5,6.5,0,0,1,1.49-1.56,25.16,25.16,0,0,1,4.56-2c2.59-.8,5.24-1.39,8-2.1a4.66,4.66,0,0,0-1.41-3.2,2.11,2.11,0,0,0-1.7-.48,49.84,49.84,0,0,0-5.37,1.15,5.62,5.62,0,0,1-5.4-1.07,4.81,4.81,0,0,1-1.87-3.33c3.35-1.83,7.09-2.21,10.84-2.84,0-.78,0-1.32-.1-1.85a14.12,14.12,0,0,0-.33-1.46c-1.88-.1-3.71-.22-5.53-.3-2.53-.1-2.54-.09-3.7-2.56a3.39,3.39,0,0,1,3.32-2.2c1.35,0,2.71-.09,4.06-.18.7-.06,1.38-.22,2.21-.35V8.17c-2.08-.18-4.14-.56-6.29,0-1.82.48-2.82,0-3.31-1.39-.79-2.24-.34-3.16,2-3.46a27.54,27.54,0,0,1,4.54,0c1.19.05,2.37.17,3.82.27.45-1.72.86-3.3,1.3-5C686.65-2,685.47-3,683.66-2.8c-.79.11-1.72-.86-2.56-1.32.16-1.25.29-2.25.44-3.39a4.86,4.86,0,0,1,4.1-.18,34,34,0,0,1,3.79,2.32l6-7.5c-2.4-.66-10.76.93-17.58,3.29.67,1.7-.22,3-1.06,4.52-1.64,2.88-2.15,6.15-2.54,9.42a14.44,14.44,0,0,1-.84,3.69c-.55,1.38-1.45,1.57-2.69.77a4.4,4.4,0,0,1-2.12-4.06c.14-3.36.45-6.67,2.39-9.63a22.21,22.21,0,0,0,1.6-3.95c-3.63.34-6.55,2-9.83,3.13l3,6.62c-1.46,1.46-3.13,1-4.51,1.44-1.78.6-2.55-1.56-4.36-1.29a1.59,1.59,0,0,0-.14,2.15A62.15,62.15,0,0,1,660.48,9a12.64,12.64,0,0,1,1.6,4.68c.23,2.4-1,4.11-3.73,4.52.32.67.53,1.16.78,1.63.84,1.59.55,2.67-1,3.6-.21.12-.44.2-.65.31-1.58.82-1.73,1.26-1.22,3A15.9,15.9,0,0,1,657,30a5,5,0,0,1-2.61,5c-.72.43-1.49.83-1.26,1.8.76,3.15-1.26,4.81-3.37,6.42-2.46,1.87-2.55,2.09-1.68,5.77.71-.52,1.32-1,1.91-1.4,1.6-1.23,2.67-1.18,4.76.25a3.28,3.28,0,0,1,1.35,4,7.51,7.51,0,0,1-4.45,4.74c-1,.46-2.08,1-3.12,1.48l.15.45a2.5,2.5,0,0,0,1-.09c1.65-.91,3.28-.33,4.91,0,1,.2,1.23.82,1,1.78-.43,2-1,3.82-3.18,4.7-1.39.56-2.67,1.39-4.36,2.29l-.82,2.94a21.07,21.07,0,0,0,3.86-.51,3.41,3.41,0,0,1,3.67,1c2.66,2.41,3.91,6.6,0,9.65a18.35,18.35,0,0,1-2.74,1.9,5.13,5.13,0,0,1-4.41.25c-1.63-.65-3.3-1.24-4.86-2a3.07,3.07,0,0,0-3-.16,5.49,5.49,0,0,1-3.74.33,11,11,0,0,0-2.15-.15c-.88,0-1.76,0-2.64,0-1.6,0-3.54-1-3.49-2A3.91,3.91,0,0,1,630,75.34c2.16-1.27,4.58-1.35,6.94-1.64s2.54-.4,2.23-3.26c-.89-.06-1.82-.15-2.76-.17A8.11,8.11,0,0,1,630.05,67c-1.61-2.06-1.15-3.6,1.14-4.78a9.26,9.26,0,0,1,6-.85c1.16.2,2.34.21,3.64.32l.64-2.5a17.8,17.8,0,0,1-2.47-.28c-1.69-.42-3.37-.88-5-1.44a3.43,3.43,0,0,1-2.07-2.5A2.94,2.94,0,0,1,635,51a36.89,36.89,0,0,1,4,.58c.74.13,1.48.33,2.42.54V48.63a16.78,16.78,0,0,0-1.67-.24c-3.44-.07-6-1.25-7.79-4.53a5.5,5.5,0,0,1-.06-5.61c1.86.27,3.54.59,4.92,2.07a5.93,5.93,0,0,0,4.28,2.34,49.88,49.88,0,0,0,.8-5.15,2.31,2.31,0,0,0-1-1.77c-2-1.13-3.64-2.77-5.94-3.48a3,3,0,0,1-2.2-2.76,3.56,3.56,0,0,1,1.84-3.15c1.19-.71,2.32-.24,3.32.56a21.42,21.42,0,0,0,2,1.67c.92.56,1.93,1,3.14,1.56l1.53-5c-1.47.17-2.85.41-4.23.45a4.64,4.64,0,0,1-2-.55c-1.91-.92-2-2.16-.2-3.32,1.4-.93,2.73-2,4.18-2.8s2.84-1.35,4.68-2.21c-.88-.28-1.41-.48-2-.61-2-.5-4-.93-6-1.48-1.47-.39-1.87-1.7-2-3a2,2,0,0,1,.85-1.54A16.1,16.1,0,0,1,645,7.41a4.77,4.77,0,0,0,2.52-.88c-.38-.18-.74-.39-1.13-.53-1.2-.42-2.39-.86-3.61-1.22a3.27,3.27,0,0,1-2.16-2.64c-.49-1.79-.13-2.49,1.66-3s3.68-1,5.6-1.48c-1.65-.51-3.06-1.16-3.32-3.33a11.18,11.18,0,0,1,1.8-.35c2-.09,4,0,6-.2,1.17-.1,2.44-.32,2.78-1.83.18-.83-.31-1.57-1.08-1.34a15.67,15.67,0,0,0-2.74,1.32c-.67.35-1.26,1-2,1.12-2.12.34-4.27.51-6.42.67a15.39,15.39,0,0,1-5-.12c-2.39-.57-4.89.19-7.62,1q-.79,8.64-1.61,17.33c0,.47.06,1.1-.21,1.39a4.72,4.72,0,0,1-1.86,1.27c-.23.09-.82-.58-1.11-1a3,3,0,0,1-.65-1.49c-.06-2.71-.1-5.42,0-8.13.18-4.93.25-5,3.12-8.31A4.78,4.78,0,0,0,621.79.1c0,.79.12,1.59.17,2.39.17,2.52-.27,3.12-2.67,3.66l-.84.19c.12,1.46.3,2.86.33,4.27a5.05,5.05,0,0,1-1.86,4c-1.79,1.62-3.79,1.43-4.86-.73A24.4,24.4,0,0,1,611,10.39a9.69,9.69,0,0,0-2.37,5.95c1.44,1.2,2.77,2.28,4.06,3.41S615.12,22,616.22,23c.07.37.18.58.12.67-1.88,2.68-.29,5.44-.08,8.11-1.77.86-1.77.86-6.76-2.77.23.33.5.64.7,1,1.85,3.16,3.72,6.31,5.51,9.5a2.14,2.14,0,0,1,0,1.59c-1,2.45-4.81,3.7-7.09,2.34-.75-.44-1.43-1-2.19-1.52a1.37,1.37,0,0,0,.37,2.09,14.91,14.91,0,0,1,1.72,1.3,18.18,18.18,0,0,1,2.11,2.82,1.78,1.78,0,0,1-.66,2.51c-1.24.9-2.45,1.89-4.45.9-.38,1.5-.71,2.83-1,4.08,1.72,1.12,3.19,2.06,4.64,3a6.6,6.6,0,0,1,1.14.87c2.71,2.91,2.08,5.75-1.63,7.45a5.34,5.34,0,0,0-.68.44c.38,1,.73,1.94,1.12,2.89,1.38,3.34-1,6.36-3.5,7.39a3,3,0,0,1-3.16-.45,7,7,0,0,1-2.3-7.33c.22-.86,1.1-1.67.29-2.86a20.56,20.56,0,0,1-2.65.68,8.17,8.17,0,0,1-3.07.08c-2-.53-2.44-1.9-1.24-3.61,1.38-2,2.85-3.86,4.2-5.84a9.41,9.41,0,0,0,.82-2.13l1.56-.11,0-.36-1.5.45c-.66,1.74-2.24,2.38-3.74,3a1.79,1.79,0,0,1-1.52-.29c-1.41-1.08-1.48-4.14-.16-5.37A9.62,9.62,0,0,1,595,52.15a3.44,3.44,0,0,0,2-2.92c-.68-.32-1.4-.59-2.06-1-1.56-.9-2-2.13-1-3.56,1.42-2,2.76-4.2,5.47-4.74,2.1-.42,3.22-1.56,2.93-4a4.46,4.46,0,0,0-1.5-.06c-1.55.5-2.77-.49-4.11-.86-1.09-.29-1.35-1.43-.82-2.56,1.36-2.91,3.86-4.32,7.11-5.17.19-.7.43-1.58.7-2.59-1.27-.28-2.35-.44-3.37-.78a4.09,4.09,0,0,1-2.56-3.86,3.51,3.51,0,0,1,3.11-3.17c1.49-.27,3-.34,4.75-.53.35-1.36.7-2.78,1.06-4.22-4.53-.54-5-1.09-4.73-5.06a19.9,19.9,0,0,1,3,0c3.08.47,3.46.32,5.15-2.79-2-.83-2.66-2.51-2.57-4.58a3.35,3.35,0,0,1,2.59-3.32,6,6,0,0,1,5.09.41c.47.3,1,.51,1.59.82L619.27-4c-2.43-1.7-5.08-1.2-7.54-2.25l-1.25-3.81c-1.36.62-2.75,1.19-4.08,1.9-.51.27-.85.86-1.3,1.27a29.48,29.48,0,0,1-3.33,3,4.69,4.69,0,0,1-3.69.52,12.91,12.91,0,0,0-3.57-.06c-.81.07-1,.77-.46,1.36.21.23.57.32.78.54a6.16,6.16,0,0,1,1.84,6.12,11.15,11.15,0,0,1-2.07,4.69,4.74,4.74,0,0,1-1.08.77,31.46,31.46,0,0,1-3.24-2.17,3,3,0,0,1-1-1.77c-.2-1.88-.22-3.79-.32-5.84a4.68,4.68,0,0,0-3,2c1,6.3-.27,9.44-4.57,10.45l-2.31-4.56c-1,.37-1.45.71-1.08,1.79a24.67,24.67,0,0,1,1.37,5.29c.34,3.14-.37,3.46-3.08,4.59a4.22,4.22,0,0,1-5.35-2,30.14,30.14,0,0,1-1.21-3.12l-5.54,1.16c2.44,1.54,6.8,7.64,8.25,11.18-1,1.29-1.88,2.59-2.94,3.72a3,3,0,0,1-1.89.72c-3.85.15-6.73-1.68-9-4.61-.53-.68-1-1.4-1.54-2.1-2.29.7-.79,3-2.21,3.92,1.61,1.11,2.8.56,4-.31A3.64,3.64,0,0,1,560.82,32c-.06,1.59,0,3.19,0,5.38-.2.16-.83.64-1.44,1.15-1.54,1.3-2.58,1.37-4.31.22-1.12-.75-2.19-1.56-3.37-2.4-.46,1-.82,1.77-1,2.18,2,6.18,3.5,12.05,1.8,18.23-2.6.39-3.17.16-4.26-1.78-.69-1.23-1.32-2.5-2-3.79-1,.9-1.7,1.72-2.56,2.38-1.31,1-2.27,1-3.44-.06a35.56,35.56,0,0,1-3.67-3.8,2.21,2.21,0,0,1,0-2,43.65,43.65,0,0,1,2.74-4.19c.68-1,1.44-1.86,2.3-3-2.41-1-5-1.46-6-3.89-.63-1.62-2.41-3-1.56-5.08a17.15,17.15,0,0,0,2.25-.67,6.35,6.35,0,0,1,4.9-.12,20.33,20.33,0,0,0,3.73.82,6,6,0,0,0,1.7-.23l.1-.54a27.3,27.3,0,0,0-3.31-1.71,28.17,28.17,0,0,0-3.71-.85c-.32-.9-.66-1.69-.91-2.51-.59-1.95.37-3,2.37-2.68a37,37,0,0,1,9.69,2.54c1.49.67,1.94.34,2.48-1.19.44-1.27,1-2.51,1.5-3.9A26.56,26.56,0,0,1,551,18.88a35.67,35.67,0,0,1-3.88-3.08c-.85-.72-.76-1.48,0-2.26a10,10,0,0,1,7.08-3c.68,0,1.43.59,2.08,1s1.17,1.1,1.84,1.52c1.73,1.1,3.48,1.86,5.52.55a18.56,18.56,0,0,1,3.16-1.28c-.62-.48-1-.79-1.42-1.08-1-.7-2-1.35-2.93-2.1-2.06-1.67-2-3.43.32-4.72a5.72,5.72,0,0,1,4.56-.83,45.17,45.17,0,0,0,5.2.89c.3,0,.62,0,1.44,0-1.44-1-2.57-1.68-3.59-2.49-1.82-1.44-1.83-2.42.13-3.69a30.49,30.49,0,0,1,4.91-2.47,5,5,0,0,1,4.39.23,28.41,28.41,0,0,0,4.29,1.41l1.86-1.57C584.77-5.62,582.16-6.37,584-9c-.77-.11-1.28-.24-1.8-.26-1.41-.05-2.44-.45-2.72-2.09-.1-.58-.78-1.14-1.32-1.53-1-.71-2-1.27-3-1.93-1.44-.95-2.74-2.29-4.71-1.26-.24.13-.63,0-.94-.08-3.91-.89-6.64.85-8.77,3.93-.18.26-.31.56-.48.82s-.29.36-.47.59c-1-.21-1.5-.65-.89-1.65,1.87-3,4.07-5.56,7.86-6.11a12,12,0,0,0,1.51-.47,34.17,34.17,0,0,0-4-3.31,5.56,5.56,0,0,0-3-.38,18.6,18.6,0,0,0-3.77.65,3.23,3.23,0,0,1-3.6-1.24c-.05-.06-.12-.1-.18-.16-2.45-2.75-2.33-3.7.75-5.68a7.48,7.48,0,0,0,.63-.54l-.62-1.84a4,4,0,0,1,.78.19,10.38,10.38,0,0,0,2.26,1.22c1.88.43,2.21.05,2.26-2.12-3,1.41-4.34-1.26-6.21-2.45-.25,0-.45,0-.55,0-2.18,1.61-2.65,1.64-4.88.19a8,8,0,0,1-3.2-3.77c-1.39-3.44-1.43-3.42-1.21-5.58l1.52-.39,1.74-.44-3-7.42c-3.31-.23-6.38-.91-8.57-3.55a6.6,6.6,0,0,1-1.28-2.73c-.31-1.34.57-2.17,2-1.87s3,.86,4.74,1.36c.18-2.14-.94-3.78-1.38-5.58s-1-3.68-1.55-5.63c-1.63.45-2.59-.66-3.52-1.51-1.46-1.32-2.67-2.91-4.07-4.3-.74-.72-1.06-1.47-.52-2.31a1.93,1.93,0,0,1,2.58-.56,12.1,12.1,0,0,1,2.18,1.41c.5.36.93.8,1.79,1.56-.21-3.69-.39-6.91-.58-10.15-1.14-.75-2.09-.16-2.94.45a3.22,3.22,0,0,1-2.24-2.61,48.84,48.84,0,0,0-1.86-6.19c-.57-1.73.42-3,2.21-2.65a3,3,0,0,1,1.66.81,26.44,26.44,0,0,1,2.46,3.49,23.83,23.83,0,0,1,1.23,3c1.71-3.1,3.24-5.94,4.84-8.73a29.11,29.11,0,0,1,2.47-3.8,2.84,2.84,0,0,1,3.61-1.06,4.27,4.27,0,0,1,2,3.56c-.33,4.92-3,8.1-7.41,10-3.23,1.39-3.54,1.94-2.71,6.93a3.82,3.82,0,0,1,.12-.69,4.77,4.77,0,0,1,6.11-3,1.79,1.79,0,0,1,1.07,1.1c.67,3.85.44,6-3.7,7.64-2.21.85-3.11,1.9-3,4a21.89,21.89,0,0,0,2.5,8.54c.38-1.55.59-2.7,1-3.81.53-1.63,1.62-2.14,3.62-1.83,1.74.28,3,1.4,2.9,2.92a9.9,9.9,0,0,1-1.47,5.47c-.31.46-.64.92-.94,1.39-2.69,4.1-2.73,2.65-.53,7.7.45,1,1,2,1.68,3.38.49-1.41.82-2.49,1.26-3.54a2.2,2.2,0,0,1,3.47-1.16,3.71,3.71,0,0,1,2,3.8c-.34,2.77-.7,5.56-1.29,8.28a5.81,5.81,0,0,0,.55,4.32A43.93,43.93,0,0,1,556-34a11.07,11.07,0,0,1,1.16-5.55c.8-1.6,1.58-1.9,3-.91s2.72,2.13,2.76,4.19A13.44,13.44,0,0,0,563.8-33c2-2.58,4.46-2.29,5.61.59.59,1.46,1,3,1.46,4.52,0,.15,0,.37.12.46,2.49,2.26,1.83,5.41,2.36,8.24.6,3.27,5.07,5.52,8.19,4.37,2.09-.77,4.34-1.08,6.47-1.73,1.34-.42,2.61-1.09,4.19-1.76l-1.46-1.77c-.32.08-.53.07-.59.16a4.09,4.09,0,0,1-4.82,1.71c-.68-.2-1.44-.12-2.13-.27a3,3,0,0,1-2.15-2.58,2.12,2.12,0,0,1,1.82-2.2c1.23-.33,2.49-.54,4-.87-.53-1.07-1-2.11-1.55-3.12s-1.12-1.93-1.79-3.07c-3.36.71-5.73-.93-7.67-3.53a5.73,5.73,0,0,1-.78-4.31,1.69,1.69,0,0,1,1.66-1.47,10,10,0,0,1,1.44-.09c.93,0,1.86-.09,2.18-1.09a2.83,2.83,0,0,0-.52-2.91,22.7,22.7,0,0,1-1.78-2.86,18.2,18.2,0,0,1-1.87-.67,3.66,3.66,0,0,1-2.1-4.31l1.2-5.39a4.84,4.84,0,0,0,.26-1.16c0-.61-.36-1.28-.2-1.81a37.9,37.9,0,0,1,1.52-3.64c3.1.41,2.09,3.53,3.59,5.39.19-1,.34-1.74.45-2.48a6.38,6.38,0,0,1,.21-1.89c1.13-2.3.22-4.24-.64-6.36a61,61,0,0,1-2.46-8,5.41,5.41,0,0,1,.21-2.81c.5-1.56,1.59-1.84,3-1a8.42,8.42,0,0,1,3.58,5.19l2.35-.11c0-2.59,0-5,0-7.33-.06-2.66,1.15-5,2-7.34.49-1.32,1.74-1.68,3.22-1.45s1.6,1.14,1.95,2.31a12.8,12.8,0,0,1-.81,8.87c-1,2.42-2,4.83-3,7.31,2.38,1.77,2.68,3.07,1,5.91a18,18,0,0,1-2,2.72c-1.39,1.62-3.13,3-3.49,5.36L584-59.64a2.15,2.15,0,0,0,.52,3.19A6.63,6.63,0,0,1,586-53.86c.31.73.29,1.59.58,2.32,1.55,3.89.16,7.29-2,10.36-1.15,1.65-.89,2.87,0,4.58a10.31,10.31,0,0,0,1.59-3.76c.78-2.81,2.36-3.35,4.41-1.27a5.35,5.35,0,0,1,1.37,3c.32,2.76.37,5.55.54,8.54.09,0,.44.06.79.08,2.57.12,3.74,1.17,4.12,3.73.16,1.1.34,2.21.54,3.5a3.2,3.2,0,0,1,3.53,1.68c.92,1.39,1.79,2.83,2.57,4.31a5.12,5.12,0,0,0,5.5,2.67c1-.26,1.77-.44,2.48.61a2.64,2.64,0,0,0,1.68.76c3.46.51,6.93,1,10.47,1.21-1.47-1.52-2.56-3.69-5.31-2.63a1.77,1.77,0,0,1-1.18,0c-3.35-1.18-7.12-1.23-10-3.71a5.33,5.33,0,0,1-1.34-1.62c-1.09-2.31-.49-3.37,2-4a8.79,8.79,0,0,1,6.54,1c-.23-1.41-.46-2.13-1.73-2.18-4-.16-7.3-2.07-10.31-4.56-1.21-1-1.42-2.42-1.58-4.1,2.29-1.23,4.83-.3,7.35-.69-.17-1.69-.25-3.24-2-4.2-1.46-.79-2.75-1.91-4.16-2.81a6.89,6.89,0,0,1-2.53-3.66c-.51-1.37.85-2.13,1.58-3s2-.85,3.11-.45A21,21,0,0,1,606.63-47c.75-2.45,1.63-4.66.5-7.16a49.9,49.9,0,0,1-1.77-5.21c-.58-1.74-.1-3.24,1.14-4.84L611.69-60c.56-1.34,1-2.42,1.48-3.53A9.06,9.06,0,0,0,609.91-67c-3.37-1.9-3.42-6.78-.27-9.07,3-.22,3.35,2.5,4.65,4.4a13.25,13.25,0,0,0,2.23-5.51,3.31,3.31,0,0,1-2.09-2.68c-.1-.79-.89-1.49-1.37-2.22-1.81-2.76-1.19-7.77,1.22-10,.83-.76,2.5-.28,3.16,1a19.53,19.53,0,0,1,1,2.94c.22.75.38,1.51.61,2.42.58-.3,1.12-.39,1.22-.66.63-1.65,1.55-3.12,1-5.17-1.13-3.88-.1-7.58,1.95-11a24.08,24.08,0,0,1,2.06-2.93,16.19,16.19,0,0,1,2-1.71c.5.91,1.2,1.57,1.17,2.19a42.16,42.16,0,0,1-1,9.16c-.11.37-.18.75-.28,1.17.34.23.59.41.85.57a3.72,3.72,0,0,1,1,5.82,6.88,6.88,0,0,1-4.31,2.84,2.59,2.59,0,0,0-2.28,2.09,11.53,11.53,0,0,0-.73,3.51l1.77-1.53c1.48.49,2.9.91,3.37,2.67a3.26,3.26,0,0,1-.67,3.31,11.06,11.06,0,0,1-5.76,3.72c-1.95.44-2.92,1.35-2.94,3.35a12.86,12.86,0,0,1-.34,2,1.91,1.91,0,0,0,2.27-1.36c.37-.87.84-1.67,1.83-1.65,1.4,0,2.91-.31,4.12.76a1.87,1.87,0,0,1,0,2.94,44.26,44.26,0,0,1-4.32,3.37,23.72,23.72,0,0,1-2.74,1.42c2,1.95,1.28,3.65-.19,5.52a23.58,23.58,0,0,1-4.27,4.14,28.09,28.09,0,0,0-3.64,3.75c-.2.23,0,.82,0,1.1A13.07,13.07,0,0,1,613-48.66c2-1,3.45,0,3.52,2.26a5.58,5.58,0,0,1-1.62,4.12c-.55.58-1.15,1.11-1.46,1.41a21.12,21.12,0,0,1-.49,3.46c-.34,1.08.29,1.62.83,2.49.54-2.24.94-4.3,1.55-6.3.74-2.42,1.8-3,4.28-2.7,2.18.27,2.84,1.41,2,3.51-.26.66-.6,1.29-1,2.06,3.6,2.17,2.77,5.24,1.49,8.52,1.33-.11,2.43-.23,3.53-.29,1.94-.12,2.48.32,2.52,2.22a14,14,0,0,1-2.36,7.43l-1.67,2.88c1.17,1.25,3,1.7,3.2,3.56,0,.19.52.32.78.49a21,21,0,0,0,7.42,2.62,3,3,0,0,0,2-.37,26.12,26.12,0,0,1,10.07-3.55c.11,0,.2-.22.5-.55-.47-.26-.88-.67-1.29-.68a21.32,21.32,0,0,0-2.86.29,12.72,12.72,0,0,1-7-1.1,5,5,0,0,1-3.11-4.69c2.69-1.7,5.46-1.34,8.57-.09a7.44,7.44,0,0,0,.24-2.45,6.19,6.19,0,0,0-3.4-4.07c-3.37-1.63-6.55-3.64-9.88-5.36a3.35,3.35,0,0,1-1.81-2.57c2-1.54,5.63-1.26,10.76.82a3.07,3.07,0,0,0-.13-2.65,6.49,6.49,0,0,1-1.85-.15,1.28,1.28,0,0,1-1-1.44c.05-.35-.38-.84-.69-1.16-1-1.11-2.12-2.18-3.21-3.23a4.44,4.44,0,0,0-1.16-.8c-1.61-.74-2-1.25-1.69-2.84.12-.69.37-1.36.63-2.29.73.24,1.32.37,1.86.61,1.16.53,2.28,1.16,3.46,1.65s1.94.21,2.08-1c.33-2.87.14-5.51-2.71-7.33a39.3,39.3,0,0,1-4.48-4c.16-.91.34-2,.58-3.43l6.79,2.79a25.38,25.38,0,0,0,1.2-2.7c.79-2.54-.2-4.5-2.7-5.52-2.27-.93-2.45-1.25-2.29-4l3.47-2.68c1.44.6,2.13,2.43,4.2,2a38.86,38.86,0,0,0,1.56-3.79,2.43,2.43,0,0,0-.51-1.69c-1-1.52-2.23-2.92-3.22-4.47-1.16-1.82-1.82-3.75-.36-5.81.25-.34.18-.89.3-1.34a7.28,7.28,0,0,1,.78-2.48,3.27,3.27,0,0,1,2.13-1.25c.54,0,1.32.81,1.63,1.44a39.67,39.67,0,0,1,1.54,4.2c.56-.4,1-.58,1.25-.92a12.68,12.68,0,0,0,1-2.44,9.32,9.32,0,0,1,2.23-4.17c.79-.77.79-1.55-.6-1.87-.8.9-.62,2.64-2.49,2.75-1-1-2.9-1.5-2.41-3.72.06-.27-.39-.65-.6-1-1.29-2-.94-3,.88-4.57,1.31-1.15,2.31-1.43,3.73-.36a1.57,1.57,0,0,0,2.46-.55,2.09,2.09,0,0,1,2.7-.8,2.46,2.46,0,0,0,2.46-.35c1.37-.94,2.8-1.81,4.25-2.64a14.19,14.19,0,0,1,1.76-.66c.76-.32,1.5-.68,2.45-1.1-2.2-1.4-3.45-1.21-4.85.3a16,16,0,0,1-2.81,2.52,2.07,2.07,0,0,1-3-.55,47.78,47.78,0,0,1,4.63-5.06c1.58-1.31,3.78-1.1,5.76-1,1.34.06,1.94,1.29,2.61,2.27a2.73,2.73,0,0,1,.39.87c.34,1.36-.76,2.19-1.25,3.25s-.68,1.91-2.2,2c-1.14.1-2.2,1.11-3.26,1.78a14.15,14.15,0,0,0-1.69,1.31c-.64.54-1.24,1.12-1.61,1.46a43.68,43.68,0,0,1,3,3.56,1.76,1.76,0,0,1-.49,2.56,32,32,0,0,1-3.63,2.21c-1,.51-2.11.74-3.13,1.19-.71.31-1.53.67-1.18,1.74l-2-1.28c-.09.75-.13,1.1-.18,1.55Z" transform="translate(-528.58 130.86)"/></g></g></svg>