<svg xmlns="http://www.w3.org/2000/svg" viewBox="0 0 271.81 484.43"><defs><style>.cls-1{fill:#fff;}</style></defs><title>Palmboomke</title><g id="Laag_2" data-name="Laag 2"><g id="Laag_1-2" data-name="Laag 1"><path d="M193.8,122l-2.6,2.24a2.12,2.12,0,0,0-.78,2.48c3.2,6.54,3.6,13.85,5.73,20.69,1.91,6.17,3,12.61,4.44,18.93a32.28,32.28,0,0,0,1,3.31,61.18,61.18,0,0,1,3.35,16.28c.13,2.08.34,4.15.6,6.21a48,48,0,0,1-.12,13.85,50.33,50.33,0,0,0-.47,9c.12,5.84-.88,11.53-1.9,17.23-.29,1.59-.51,3.2-.66,4.8-.45,4.61-.75,9.24-1.3,13.83A43.39,43.39,0,0,1,196.38,266a.71.71,0,0,1-.62.25c-.39-.1-1-.23-1.09-.51a9.91,9.91,0,0,1-.76-2.65,88,88,0,0,1-.71-9c0-7,.1-13.91.41-20.85a88.44,88.44,0,0,0-1.15-18.67c-.66-3.88-.86-7.84-2-11.63-1.64-5.54-2.4-11.3-4.23-16.79a15.22,15.22,0,0,0-.91-1.86,12.91,12.91,0,0,0-.94-6.05c-.59-1.74-1.6-3.48-1.62-5.23-.05-4.74-2.8-8.68-3.52-13.19-.11-.67-.95-.81-1.68-.57a3.18,3.18,0,0,1-1.33.28,1.5,1.5,0,0,1-1.08-.59,1.35,1.35,0,0,1,.15-1.26,16.27,16.27,0,0,1,2.2-1.53c.42-.26.49-.62.15-1.11-.11-.17-.26-.4-.42-.43-4.36-.85-8.66-.31-12.93.56a3.88,3.88,0,0,0-2.72,1.9,9.65,9.65,0,0,1-3.53,3.21l-1.28-1.59c-.29-.32-.59-.93-.86-.92-1.65.08-3.09-.13-3.93-1.8a1,1,0,0,0-.64.15c-.08.07,0,.41,0,.57a2.24,2.24,0,0,1-.55,3,23.9,23.9,0,0,0-5.87,6.72c-.43.78-.74,1.66.2,2.46a1.24,1.24,0,0,1,0,1.21c-2,1.89-3.88,3.9-6.48,5.09-.68.31-1,1.42-1.43,2.21-.21.41.13.87.7.86a4.39,4.39,0,0,0,2-.36c4.83-2.64,10.09-4.5,14.57-7.82,1.84-1.37,3.82-2.57,5.77-3.8a2.48,2.48,0,0,1,2.61-.07,5.8,5.8,0,0,1,.44,1.06c-1.52,1-3.11,2-4.61,3-2.44,1.73-2.41,2.18.11,4.4a11.57,11.57,0,0,1,3,3.74,15.5,15.5,0,0,0,2.67,4,15.73,15.73,0,0,1,3.75,8c1.05,5,2,10,3.31,14.92a38.55,38.55,0,0,1,.67,15.85A123.25,123.25,0,0,0,171,236.56a39.13,39.13,0,0,1-1.25,9.6,37,37,0,0,0-1.25,8.92c0,.23.37.48.57.72.17-.16.44-.29.49-.48.49-1.78.92-3.57,1.41-5.35a28.49,28.49,0,0,0,1.5-6.05c.32-5.81,1.77-11.4,3.24-17a58.77,58.77,0,0,0,2-9.47c.62-6.46,1.56-12.86,2.51-19.26a31,31,0,0,0,.26-9c-.32-2.29-.75-4.57-1-6.88A14.46,14.46,0,0,0,178,177.1c-2-4.14-4.5-8-6.06-12.43a1.89,1.89,0,0,0-2.36-.95c-.87.22-1.75.61-2.51-.25,0-.22,0-.52.14-.67a14.4,14.4,0,0,1,6.48-3.63c.51-.16,1.24.6,1.07,1.26a6,6,0,0,0,.15,4.06c.85,1.9,1.55,3.87,2.54,5.69a60.77,60.77,0,0,1,5.39,14.19l.09,3.46a30.21,30.21,0,0,1,.13,4.84c-.76,5.5-.78,11.09-1.95,16.55a40.57,40.57,0,0,0-.92,7.59A50,50,0,0,1,178,229.08c-1.29,4.7-2.56,9.39-2.7,14.3a5.18,5.18,0,0,1-.12,1.38c-1.79,5.25-2.48,10.81-4.64,15.95a42,42,0,0,0-2.07,6.59,112.4,112.4,0,0,1-3.71,11.17c-.12.32-.71.54-1.12.68s-1.39-.7-1.39-1.25,0-.93,0-1.39a93.08,93.08,0,0,1,1.5-14.48A70,70,0,0,0,165,246.12a32.78,32.78,0,0,1,1.16-9.62c.42-1.57.62-3.19,1.06-4.75a17.11,17.11,0,0,0-1-11.55,108,108,0,0,0-5.85-11.81c-2.32-4-5.75-7.23-9-10.52a1.84,1.84,0,0,0-1.22-.51,1.47,1.47,0,0,0-1.15.55,3.61,3.61,0,0,0-.4,2c.69,4.38-1.49,7.58-4.21,10.57a4.8,4.8,0,0,1-5,1.58c-1.79-.46-3.56-1-5.34-1.46-.53-.14-1.28.56-1.41,1.2a24,24,0,0,0,.1,7.62,59.91,59.91,0,0,1-1.06,20,39.39,39.39,0,0,0-.8,4.8q-.7,9-1.25,18a36.56,36.56,0,0,0,.69,9.67,17.55,17.55,0,0,1,.52,4.82c-.65,8.35.74,16.64.56,25-.06,2.52.67,5.05.76,7.59.22,5.55.32,11.11.35,16.67,0,2.31.18,4.63.18,6.92a108.66,108.66,0,0,1-.81,13.86,59.57,59.57,0,0,0-.29,15.21c.49,3.88.5,7.83.69,11.75a41.31,41.31,0,0,0,.19,4.86,23.68,23.68,0,0,1-.05,6.88,71.56,71.56,0,0,0-.41,9.71c.1,5.57-1,11.07-.75,16.64a32.93,32.93,0,0,0,.67,5.49c.83,3.61,1.4,7.28,2.07,10.93a10.41,10.41,0,0,1,.17,1.38c.17,3.19-.72,6.48.77,9.57.17,3,.33,6,.5,9a7,7,0,0,0,.07,1.38c1,3.87.6,7.77.26,11.67a14.22,14.22,0,0,0,.06,3.45c1,6,.74,12,1.24,18a.71.71,0,0,1-.86.83,1.62,1.62,0,0,1-1.11-.58,5.41,5.41,0,0,1-.81-2.58,21.23,21.23,0,0,0-.39-6.21,18.87,18.87,0,0,1-.21-3.45,67.6,67.6,0,0,0-.35-9,30.35,30.35,0,0,1,.27-6.93,8.11,8.11,0,0,0-.5-3.37,1.87,1.87,0,0,0-1.57-1c-1.11.18-2.14.81-3.25,1.11a12.11,12.11,0,0,1-10.6-1.64c-.09-.06,0-.4,0-.58s.25-.47.38-.47a15.44,15.44,0,0,1,2.72.09c1.14.17,2.25.55,3.39.77a4.66,4.66,0,0,0,3.33-.63c1-.59,2-1.2,3-1.84,2.32-1.55,2.59-2.35,1.85-5.26a1.71,1.71,0,0,0-2.13-1.2,43.86,43.86,0,0,1-10.33,1.2,11.74,11.74,0,0,1-5.46-.79,7.2,7.2,0,0,1-1.74-1.09c-.24-.23-.19-.81-.17-1.23,0-.13.41-.37.57-.33a37.25,37.25,0,0,0,13.76.49,18.58,18.58,0,0,0,3.33-.88,2.34,2.34,0,0,0,1.54-2c0-3,.46-6.07-.06-9-.49-2.72-1-5.46-1.61-8.17-.93-4.09-.82-8.27-1.07-12.42a7.16,7.16,0,0,1,.05-2.07c1.3-5.49.88-11,.44-16.56a7.29,7.29,0,0,1,0-2.76c1.09-3.16.8-6.31.46-9.54-.32-3-.14-6-.21-9-.12-5.1-.31-10.19-.39-15.28a20.1,20.1,0,0,1,.87-6.87A7.52,7.52,0,0,0,130,339c-.22-.51-.51-.8-1.07-.65-2.66.73-5.36,1.38-8,2.26-4.64,1.57-9.29,2.83-14.26,2.69-1.59,0-3.19.58-4.8.7-3.23.23-6.47.29-9.7.5a1.48,1.48,0,0,0-1.13.7c-1.4,5.36-3.84,10.43-4.12,16.11a94.41,94.41,0,0,1-1.65,12.37c-.84,4.55-1.21,9.18-1.83,13.76a47.87,47.87,0,0,1-.94,5.48,133.67,133.67,0,0,0-3.33,20.56,59.65,59.65,0,0,1-4,16.83,84.57,84.57,0,0,0-3.45,12c-1.81,7.42-3.28,14.92-4.55,22.45-.84,5-1.87,10-2.8,15a9.05,9.05,0,0,1-1.87,4.41c-.11.14-.44.28-.53.22-.35-.25-.83-.53-.91-.88a3.78,3.78,0,0,1,0-2,34.85,34.85,0,0,0,1.66-7.41c.79-5,1.84-10,2.83-15,1.53-7.7,3.63-15.26,5.36-22.91.71-3.15,1.74-6.2,2.73-9.28a91,91,0,0,0,3-12.11c.69-3.86.8-7.83,1.38-11.72.51-3.43,1.31-6.81,2-10.21.65-3.18,1.65-6.32,1.88-9.53.45-6.25,1.81-12.36,2.49-18.57a22.59,22.59,0,0,0,.37-3.45c-.17-3.8.94-7.35,2.18-10.83a70.05,70.05,0,0,0,2.11-8c1-4.28,2-8.51,1.33-13a1.6,1.6,0,0,1,.44-1.24,6.38,6.38,0,0,0,1.91-3.63c1.58-6.52,3.51-13,4.46-19.63.49-3.45,1.47-6.76,2.15-10.16,1.31-6.57,3.19-13,4.39-19.63A119.82,119.82,0,0,0,104.87,262a33.92,33.92,0,0,1,1.83-10.21c.83-2.13,1.63-4.37.83-6.77a2.81,2.81,0,0,1,0-1.38c1.14-5.95.48-12,1.17-18a41.06,41.06,0,0,0-.09-5.54c-.09-4.4-.13-8.8-.27-13.2-.06-1.72-.73-2.57-1.67-2.54a2.31,2.31,0,0,0-2.12,1.49,47.89,47.89,0,0,0-3,7c-2,7.12-4.33,14.19-4.9,21.64-.13,1.62-.08,3.24-.15,4.86-.24,5.55.11,11.11-1,16.63-.55,2.7-.31,5.55-.44,8.32a34,34,0,0,1-.3,4.86A92.65,92.65,0,0,0,93.5,291.3,8.51,8.51,0,0,1,92,296.53c-.43.66-2,.74-2.41,0a10.36,10.36,0,0,1-1.34-3.11c-1-7.35-2.07-14.69-2.1-22.13,0-5.56.13-11.12.12-16.68a44.94,44.94,0,0,0-.45-6.24,120.75,120.75,0,0,1-1.33-13.83A35.16,35.16,0,0,0,82.92,225c-.22-.66-.48-1.31-.64-2-1.4-5.86-1.36-5.85.52-12.18a21.1,21.1,0,0,0,.66-4.06c0-.3-.39-.81-.72-.95a1.87,1.87,0,0,0-1.27.08,3,3,0,0,0-1.14.77,54.27,54.27,0,0,1-9.83,8.76,55.52,55.52,0,0,0-4.65,4.18,16.43,16.43,0,0,0-4.36,6.19c-1.39,3.43-2.75,6.88-4.12,10.32a3.93,3.93,0,0,0-.19.67c-1.42,7.5-4.19,14.7-5.25,22.28-.45,3.2-.51,6.47-.72,9.7-.1,1.62-.09,3.25-.24,4.86a43.55,43.55,0,0,0,.33,11.73,40.59,40.59,0,0,1,.47,11.76,1.37,1.37,0,0,1-.85.92c-.27.07-.77-.34-1-.65a2.64,2.64,0,0,1-.39-1.32,24.64,24.64,0,0,0-1.69-7.41c-1.43-3.9-2.87-7.83-3.18-12.05a7.2,7.2,0,0,0-.46-2,52.68,52.68,0,0,1-3-16.31c-.1-2.31-.37-4.61-.49-6.93-.08-1.37-.06-2.76,0-4.14.16-5.53.72-11,0-16.6-.48-3.87-.31-7.85-.86-11.76a5.6,5.6,0,0,0-.2-1.37c-.15-.39-.44-.9-.78-1a1.39,1.39,0,0,0-1.27.28c-2.73,3.44-5.63,6.78-8,10.45-3.16,4.84-6.07,9.86-8.75,15-1.6,3.07-3.07,6.22-4.66,9.3a33.2,33.2,0,0,0-1.78,5.26c-.69,2.2-1.34,4.42-2.09,6.61-.11.31-.68.53-1.08.66s-1.33-.67-1.37-1.29a21.86,21.86,0,0,1,1-8.9c.64-1.73.88-3.62,1.61-5.32a11.51,11.51,0,0,0,1.07-5.37,12.81,12.81,0,0,1,1.3-6c1.76-4,3.38-8.12,5-12.2A88.58,88.58,0,0,0,23,216.43c.69-2.43,1.86-4.73,2.76-7.1a32.2,32.2,0,0,0,2-5.88c1.09-6.76,4.29-12.69,7.07-18.79.67-1.46,1.45-2.88,2.07-4.37q1.76-4.15,3.38-8.37a61.81,61.81,0,0,1,8.94-15.54c.34-.44-.16-1.67-.72-1.61a5.6,5.6,0,0,1-4.42-1.59Q37,147.1,29.85,141.05c-2.25-3.26-5.31-5.78-8-8.68A17,17,0,0,1,18.7,127a29.46,29.46,0,0,0-4.18-7.16c-4-5.38-8.1-10.71-12.13-16.09-.82-1.1-1.52-2.31-2.24-3.48a1.64,1.64,0,0,1,1-2.21c3-.4,6.12-1.31,8.93-.16,4.27,1.76,9,2.1,13,4.69A14.61,14.61,0,0,0,26.2,104c4.15,1.47,8.3,2.92,12.47,4.3,2.18.73,4.54,1,6.58,2a17.61,17.61,0,0,0,5.93,1.75,7.55,7.55,0,0,1,2.6.91A68.08,68.08,0,0,0,66,117.93,34.54,34.54,0,0,1,71,120.22a74.4,74.4,0,0,0,11,4.07,3.37,3.37,0,0,0,1.38.08c.43-.06,1.12-.17,1.22-.44a4.37,4.37,0,0,0,.13-1.91,2.09,2.09,0,0,0-.56-1.24c-3.49-3-5-7.2-6.66-11.24a38.06,38.06,0,0,1-2.43-7.91c-.53-3-1.13-5.87-3.26-8.19-.39-.42-.24-.8.14-1.24a3.33,3.33,0,0,0,.89-2.55,84,84,0,0,0-1.29-10.3c-.92-3.88-.71-7.83-1.3-11.72-.27-1.76.38-3.66.61-5.49a2.42,2.42,0,0,1,2.45.9c.76.84,1.43,1.78,2.15,2.67-.32.31-.65.6-1,.89-.65.09-1.49,0-1.9.32a2.5,2.5,0,0,0-.51,1.84c.15,1.79.59,3.57.66,5.37s.87,2.88,2.83,3c.77,0,1,.75,1,1.45-.39.65-.9.58-1.62.55A1.15,1.15,0,0,0,74.15,81c.94,1,2,1.84,2.91,2.83a8.54,8.54,0,0,1,1,1.66,1.24,1.24,0,0,1-1.58.61,1.16,1.16,0,0,0-1,.56,1.33,1.33,0,0,0,.18,1.19c1.42,1.47,3,2.49,5.22,1.75,0,.39-.17.94,0,1.16a8.33,8.33,0,0,0,4.34,2.65.66.66,0,0,0,.58-.23c.36-.85.18.32-.33-.45-.36-.55-.8-1-.57-1.73.63-.1,1.37-.45,1.86-.24,2.48,1.06,4.9,2.25,7.32,3.43a4,4,0,0,1,1,.9c.14.15.34.44.29.53a2.44,2.44,0,0,1-.79,1c-.75.4-1.82.11-2.34,1.06l-1,1.42a39.67,39.67,0,0,1-3.72-1.43c-3-1.5-5.92-3.1-8.87-4.65-.2-.1-.4-.29-.61-.3-.4,0-1-.08-1.19.13-.5.78.27,1,.76,1.4a29.82,29.82,0,0,0,2.69,2.09c1.77,1.08,3.63,2,5.4,3.07.27.16.31.69.46,1.06a8.07,8.07,0,0,1-1.25.44,11.89,11.89,0,0,0-2,.27c-.31.11-.45.69-.67,1.06s-.66.74-1,.73a13.69,13.69,0,0,1-1.91-.48,1.07,1.07,0,0,0-1.31,1c0,.66.11,1.27.87,1.52s1.65.56,2.48.84c.83.76,1.7,1.48,2.46,2.3.14.15-.15.7-.25,1.07L81,108.89c-.34-.25-.81-.8-1-.71-.89.39-.53,1-.15,1.65.47.76.77,1.86,1.45,2.24,4.64,2.52,9,5.7,14.11,7.21a4.59,4.59,0,0,1,1.76,1,1.24,1.24,0,0,1,0,1.16c-.8,1.39-.81,1.37-.69,2.45,0,.17-.26.37-.4.55-.63.14-1.26.27-1.89.43-.3.07-.58.18-.87.27a2.63,2.63,0,0,0,.43.45,18.51,18.51,0,0,0,1.73,1,.92.92,0,0,0,.63,0c.45-.18.32-.44-.06-.95-.2-.26,0-.8,0-1.22,1.29-.59,2.46-.42,2.9.44a3.48,3.48,0,0,1,.1,3.23,1.87,1.87,0,0,1-1,.75,8.41,8.41,0,0,1-1.35.1,6.1,6.1,0,0,0-1,.34,4.21,4.21,0,0,0,1.15.56c2.49.36,5,.67,7.47,1a2.28,2.28,0,0,0,2.13-1.4c.2-.65.37-1.31.54-2,.46-1.77.77-3.6,1.4-5.31,1-2.76,2.1-5.52,4.45-7.5a11.34,11.34,0,0,1-.21,3.37,8.39,8.39,0,0,0-.28,5.27,37.48,37.48,0,0,0,3.36,8.94c1.17,2.23,2.37,4.44,3.48,6.7.07.13-.53.58-.82.89a2.3,2.3,0,0,1-2.09-1.47c-1.5-2.81-2.92-5.66-4.38-8.5-.41-.79-.82-1.58-1.27-2.35a.71.71,0,0,0-.55-.21c-.22,0-.58,0-.64.18a25.09,25.09,0,0,0-2.23,9.82,11,11,0,0,0,.81,3.27c.44,1.29,1,2.53,1.43,3.83.06.22-.53.64-.82,1a6.54,6.54,0,0,0-1,1.56c-.1.36.12,1.37.77.26.09-.16,0-.43,0-.63,0-.41.16-.81.24-1.22.43-.47.94-.88,1.48-.23,1.09,1.31,2.11,2.66,3.15,4l-1,1.62-.56-.37c-2.45-1.65-2.41-1.63-2.7-.85-.44,1.2.13,2.09.65,3.06.84,1.57,1.62,3.16,2.42,4.74L110.65,159c-1.07-1.47-2.12-3-3.24-4.4-.24-.32-.72-.45-1.08-.68a2.54,2.54,0,0,0-.07.61c.28,3.88,1.28,7.67,1.31,11.59a4,4,0,0,0,1.6,2.95,5.06,5.06,0,0,1,1.54,4.37c-.1,2.52-.28,5-.31,7.56a4.28,4.28,0,0,0,3.94,4.73,23.55,23.55,0,0,0,4.11.3c2.29,0,4.58-.16,6.88-.25l-.09-.11c-.16.4-.23,1.06-.5,1.15-4.18,1.42-8.4,2.45-12.79.86a.83.83,0,0,0-.66,0,4.5,4.5,0,0,0-.86,1,1,1,0,0,0-.14.67c.46,3,1.78,5.2,5.07,5.66,1.59.23,3.19.44,4.75.78.32.07.53.66.79,1-2.32.05-4.63.11-6.94.14-1.46,0-2.23.55-2.34,1.88a81.2,81.2,0,0,0-.56,11.78,109.67,109.67,0,0,1,.16,15.27c-.62,6.94-.64,13.89-1.19,20.81a35.89,35.89,0,0,1-.8,5.47c-1.16,5-2.25,10-2,15.12a10.44,10.44,0,0,1-.12,2.09,204.35,204.35,0,0,1-5.61,26.48,96.54,96.54,0,0,0-2.16,9.46c-.84,4.32-1.7,8.63-2.54,12.95-.66,3.4-1.36,6.8-2,10.22a3,3,0,0,0,2.1,3.2c5.17,1.69,10.51,1.58,15.84,1.42a9.87,9.87,0,0,0,2.64-.84c1.95-.69,3.91-1.39,5.87-2.06.13,0,.37.21.55.33.44.28.47.72-.06,1-3.22,2-7,2.14-10.53,3.19-5.3-.13-10.68.9-15.84-1.18a2.81,2.81,0,0,0-1.32,0,1,1,0,0,0-.58.38c-1.4,2-2.23,4.35-1,6.52,1.09,2,3.43,2,5.57,1.85,3.69-.32,7.39-.59,11.08-.92a11.88,11.88,0,0,0,2.72-.51c1.57-.52,3.22-.41,4.79-.71,4.3-.83,8.39-2.08,11.71-5.37,1.72-1.7,2.35-3.11,1.76-5.44a14.43,14.43,0,0,1,0-4.82,36.74,36.74,0,0,0,0-8.32,45.17,45.17,0,0,1-.62-8.27c.31-6.27-.72-12.46-.89-18.71-.13-4.84-.74-9.66-.41-14.52a46.33,46.33,0,0,0-.21-4.84c-.25-6.46-1-12.93.44-19.36a14,14,0,0,0,.16-4.15,22.41,22.41,0,0,1,1-8.92,27.62,27.62,0,0,0,1.28-8.91c0-4.17-.09-8.35-.42-12.51a43.21,43.21,0,0,1,0-6.92,45.91,45.91,0,0,0-.93-15.76c-.2-1-1.05-.41-1.64-.17a15,15,0,0,1,1-2.53c1.46-2.47,2.47-4.94.93-7.77a1.34,1.34,0,0,1,.19-1.19c1.21-1.32.64-3.09,1.25-4.53.22-.53.72-.34,1.14.09s.84.32.95-.16c.28-1.22,0-1.59-1.46-2.53-.33-.2-.82-.82-.75-.93,2.09-3.17,2.2-7,3.31-10.44a9.75,9.75,0,0,0,.25-1.33c.11-.62-.58-1.24-1.25-1.29-1.32-.11-2.57,1.28-3.92.16-.14-.77.28-1.19.87-1.57,2.08-1.34,4.11-2.73,4.88-5.29,1.59-.33,1.59-.33,1.15-1.62a1.08,1.08,0,0,0,1.61,0c.9-.71.87-1.32-.19-1.65-.62-.2-1.17-.33-1.34-1a7.14,7.14,0,0,1,.8-1.77,10.52,10.52,0,0,1,4-2.72,5.08,5.08,0,0,0,1.45-1.37.77.77,0,0,0,.12-.66c-.05-.16-.31-.3-.5-.37a4.54,4.54,0,0,0-3.33.43c-1.26.51-2.4,1.45-3.9.91-.42-.51-.85-.94-.17-1.64a11.38,11.38,0,0,1,4.2-2.36,49.64,49.64,0,0,1,5.95-1.91,5.53,5.53,0,0,0,4-3.51c.27-.64.63-1.24.92-1.86s.15-.92-.31-1.11c-.21-.08-.45-.26-.63-.22-1.35.3-2.7.58-4,1-3.08,1-6.1,2.17-9.42,2.12a2.87,2.87,0,0,0-2.71,1.83,17.05,17.05,0,0,0-1.94,5.88,1.35,1.35,0,0,0,1.28,1.26,14.94,14.94,0,0,1,2-.39c.3,0,.59.57.89.88-.17.4-.23,1-.53,1.16-1.45.67-3,1.17-4.44,1.81a3.19,3.19,0,0,0-1.61,1.16c-.69,1.43-1.65,2.81-1.6,4.5a.72.72,0,0,0,.42.5,2.73,2.73,0,0,0,1.27.2c2.12-.42,3.69-1.82,5.34-3.07a2.94,2.94,0,0,1,2.54-.71c.5.42,1,.81.49,1.58a6,6,0,0,0-.48,1.26,1.37,1.37,0,0,0-1.44,1.34,28.35,28.35,0,0,1-3.76,1.55,43.83,43.83,0,0,0-8.13,2.94c-.12.05-.4-.2-.6-.3a5,5,0,0,1-.2-2c.6-1.73,1.39-3.38,2.11-5.07-.56-2.07-2.55-3.12-3.5-4.91-.86-1.62-1.79-3.2-2.62-4.83-.18-.36,0-.89,0-1.34.35-.2.92-.63,1-.55a12.69,12.69,0,0,1,1.81,2c1.17,1.68,2.25,3.43,3.4,5.12.58.85,1.58.68,2-.38q2.05-5.43,4-10.9c.23-.62.06-1.51.45-1.92,1.4-1.47,2.05-3.56,3.86-4.68l1.16,1c.1,1.56.33,2,1.11,1.89.22,0,.45,0,.67,0,5.12-1,9.95-2.94,14.95-4.35a2.7,2.7,0,0,0,1.41-1.36,8.69,8.69,0,0,1,2.29-3.31l1.32,1.18c-.77,1.66-1.7,3.28-1.45,5.22-.51.4-1,.77-1.52,1.21a6.26,6.26,0,0,0-.74.94c.42,0,.92.24,1.25.09,1.35-.62,2.65-1.36,4-2.05a8.84,8.84,0,0,0,2.59-.73c3.46-2.31,7.34-3.58,11.22-4.91,2.58-.88,5.13-1.87,7.75-2.64,1.73-.51,3.78-1.12,5.25.18,2.08,1.83,4.05,1.35,6.19.48.21-.08.44-.12.66-.18ZM29.29,219.09c-.09-1-.18-2-.28-3-.07-.72-.57-1-1.19-1.06a2.25,2.25,0,0,0,.11-2.52c-.08-.2-.34-.53-.41-.51-.33.12-.79.27-.92.54-.58,1.21-.42,1.44,1.33,2.39.06.91.06,1.83.18,2.73A1.57,1.57,0,0,0,29.39,219c0,.4.07.8.06,1.2,0,.66.21.8.66.35.09-.09.05-.43-.05-.57A8,8,0,0,0,29.29,219.09ZM186.67,174.5c-.82,1.13-.29,2.17.23,3.2.08.15.3.39.38.37a.94.94,0,0,0,.54-.41c.75-1.76.59-2.14-1.26-3l-.61-.49c.06.15.09.39.2.43S186.49,174.53,186.67,174.5ZM36.29,213.61a10.76,10.76,0,0,0-1.09.37c-.12.05-.28.32-.24.4.26.5.63.58.88.18a4.47,4.47,0,0,0,.35-1.05,3.27,3.27,0,0,0,2.53-2.81c.14-.64-.38-1.13-1.24-1.2-.59-.05-.9.14-.94.71C36.45,211.35,36.37,212.48,36.29,213.61Zm-14,12.44a2.38,2.38,0,0,0-1.23,2.72c.09.34.53.6.81.9.09-.16.25-.32.26-.48,0-1.08,0-2.16.06-3.23a1,1,0,0,1,1.55.17c.41.48.88.91,1.33,1.36a2.52,2.52,0,0,0,.24.58,2,2,0,0,0,.5.33c.05-.2.19-.43.13-.59-.18-.57-.53-.62-1-.19a10.24,10.24,0,0,0-.14-5.3c-.13-.62-.37-.87-.92-.59-.37.19-.94.49-1,.76-.06.88.17,1.78.12,2.66C23.08,225.46,22.58,225.75,22.3,226.05ZM197.68,203.8c.35-.27.95-.5,1-.81.19-1.56.25-3.14.31-4.72,0-.15-.28-.33-.47-.45a.46.46,0,0,0-.36.05c-.37,2-.93,4-.32,6-.33.29-.87.54-.94.88a28.56,28.56,0,0,0-.63,8.79,5.58,5.58,0,0,0,.87,1.67,3.54,3.54,0,0,0,.51-1.22C197.68,210.61,197.68,207.21,197.68,203.8ZM195,155.05a23.69,23.69,0,0,0-1.78-7.92c0-.15-.38-.25-.6-.28-.07,0-.27.26-.27.41-.05,2.26-.14,4.53-.06,6.78,0,.66.64,1.09,1.44,1a10.31,10.31,0,0,1,1.36,0c0,1.8.08,3.59.11,5.39,0,.77.22.88.68.33a1.22,1.22,0,0,0,.31-.55A6,6,0,0,0,195,155.05Zm-30.63,33.47a38.43,38.43,0,0,0,0,4.8,29.12,29.12,0,0,1-.86,10.23,19.39,19.39,0,0,0-.42,3.4c0,.34.38.7.59,1.05a2.32,2.32,0,0,0,.55-.41c.86-1.09,1.65-2.2,1.4-3.72a15.9,15.9,0,0,1-.36-3.42c.16-2.27-.16-4.54.37-6.84a4.58,4.58,0,0,0-1.4-5,4.63,4.63,0,0,0-.23-1.87,2.63,2.63,0,0,0-1.58-.82c-.43-.1-.95.95-.74,1.49s.55,1.12,1.38,1A4.76,4.76,0,0,1,164.32,188.52ZM167,215c.43,1.31.82,2.64,1.31,3.93a1.37,1.37,0,0,0,.9.68c.52.09.75-.3.77-.89a58,58,0,0,0-2.3-18.38c-.82,3.5-1.37,6.34,0,9.15a6.08,6.08,0,0,1,.36,4.06c-.12.57-.78,1-1.19,1.54,0-.91.11-1.82.11-2.73,0-.2-.22-.39-.33-.59-.29.31-.8.59-.83.92A2.37,2.37,0,0,0,167,215ZM156,178.71c-1.44,2.54-1.28,5.17-.4,8.53,0-2,0-3.35,0-4.68a8.41,8.41,0,0,1,.33-3.95c1,.22,1.84.8,1.78,1.77-.27,4.11,0,8.26-.94,12.31a12,12,0,0,0,0,6.1c0,.1.3.19.45.18s.6-.08.64-.2c1-3.48,1.31-7.13,2.53-10.6a9.7,9.7,0,0,0,.09-6.1,12.53,12.53,0,0,0-3.22-5.18c-.1-.1-.84.21-1,.49A3.54,3.54,0,0,0,156,178.71ZM74.5,174c-.21-3.9-.45-7.81-.61-11.72a12.25,12.25,0,0,1,.3-3.42c1.47-5.91,1.11-11.86.58-17.82a.87.87,0,0,0-.28-.59,1,1,0,0,0-.68,0c-.87.32-.35-.7-.58.2a7.65,7.65,0,0,0-.39,2c.1,5.76.25,11.52-.14,17.28-.29,4.14-.15,8.3-.18,12.45a2.78,2.78,0,0,0,1.11,2.39c.13.61.24,1.22.42,1.82,0,.15.4.38.49.34.31-.17.74-.39.81-.67A2.57,2.57,0,0,0,74.5,174Zm-11.86-24.5a1.92,1.92,0,0,1,1.75.75,8.78,8.78,0,0,1,1.23,3.83c.22,1.26-.44,2.77,1,3.83a44.18,44.18,0,0,0,0-10.9c-.07-.59-1-.82-1.6-.48-1.24.7-2.25,1.52-2.28,3.09-.43.5-1.11.94-1.25,1.51a11.6,11.6,0,0,0-.28,3.43c.65,9.21.37,18.5,2.05,27.65.28,1.54,1.17,1.73,2.22,2.1,0,.41.07,1-.15,1.21q-2.07,2.16-4.27,4.17c-.27.23-.81.16-1.23.23-.12-1.52,1.14-2.47,1.54-3.78a1.2,1.2,0,0,0-.93-1.48c-1.13-.07-2.26-.25-3,1A6.11,6.11,0,0,1,56,187.05a1.92,1.92,0,0,1-2.77-1,24.64,24.64,0,0,1-.49-2.7c-.14-1.14.09-2.42-.35-3.41-1.07-2.43-.91-5-1.16-7.48-.07-.65-.26-1.29-.62-3-.24,5.42-.53,9.75-.1,14.08.16,1.59.91,3.16.89,4.73s-.78,3.07-1,4.63a22.41,22.41,0,0,0,.1,3.68,25.89,25.89,0,0,1,2.68-1.35c.33-.12.81.16,1.23.25-.91,2.6-3,4.15-5,5.81-.1.08-.41-.11-.62-.17-.33-1.18.45-2.26.4-3.34s-.85-2-1.06-3,.06-2.3-.18-3.39c-1.54-6.91-1.94-14-3.35-20.93a2.34,2.34,0,0,1,2.7,1.54,40.5,40.5,0,0,1,.87,4c0-2.55,0-5.49,0-8.43a4.73,4.73,0,0,0-.79-1.81c-.25-.47-.63-.43-1.12-.08-1.75,1.27-1.72,3.05-1.51,4.91-.23,0-.52,0-.67.15a3.74,3.74,0,0,0-1.36,3.63q1.62,10.61,3.17,21.22a4,4,0,0,1-.12,1.37c0,.21-.23.56-.35.56-.38,0-1,0-1.09-.26a6.68,6.68,0,0,1-1-2.49,55.35,55.35,0,0,0-.62-7.59c-.53-2.48-.88-5-1.33-7.5,0-.13-.39-.33-.42-.3-.3.25-.81.58-.78.84.71,6.42,1.43,12.85,2.26,19.26a25,25,0,0,0,1.14,4c.15.47.54.59,1.11.48s.92-.07,1.38-.11c0,.44.14,1-.06,1.31-1.27,2.16-3.48,3.89-3.74,6.48a64.84,64.84,0,0,0,.13,8.24,12.81,12.81,0,0,0,.17,1.37,149,149,0,0,1,1,26.12c-.24,5.49-.59,11,.89,16.44-.18,4.65,1.3,9,2.71,13.27a1.11,1.11,0,0,0,.37.56,1.07,1.07,0,0,0,.66.12c.14,0,.35-.21.35-.32q.13-6.84.23-13.68c.06-.22.13-.44.17-.67,1.07-7.09,2.06-14.2,4.52-21,.93-6,3.67-11.42,5.75-17.05a13.08,13.08,0,0,1,3.72-5.79c3.38-2.8,6.08-6.4,10-8.56A6.73,6.73,0,0,0,75,208.82c2.84-3.73,7.13-5.87,10.15-9.4.15-.17.8.09,1.22.15.51,1.05-.65,2.51.39,3.21,1.32.89,1.11,1.76.64,2.88-.81,1.92-1.51,3.88-2.41,5.75a12.43,12.43,0,0,0-.38,9.45A63.52,63.52,0,0,1,87.47,240a38.36,38.36,0,0,0,.55,6.23,31.13,31.13,0,0,1,.2,10.37c-.4,2.32.18,4.6.33,6.9.16,2.5-.36,5.05-.46,7.58a33.84,33.84,0,0,0,.34,3.45c.3,4.16.56,8.32.84,12.47.07.92.15,1.83.26,2.74a1.92,1.92,0,0,0,.34.6c.12-.11.28-.2.35-.34a11.22,11.22,0,0,0,1-5.4,82.23,82.23,0,0,1,.75-14.54c1-7.35,1.13-14.77,1.75-22.15.22-2.52.39-5.08.42-7.59s.12-5,.21-7.57A33,33,0,0,1,97.18,220a16.16,16.16,0,0,0,1.24-4.65c.61-4.7,2.6-8.84,4.94-12.85a8.35,8.35,0,0,1,4.12-3.55c2.17-.91,2.48-1.68,2.16-3.71-.29-1.83-.69-3.64-1-5.46-.31-1.57-.25-3.39-1.07-4.65-1-1.47-3.07.24-4.5-.74a3,3,0,0,1,2.12-1.61c1.87-.49,2.5-1.93,2.74-3.61a8,8,0,0,0,.12-2.76c-1.12-5.47-1.23-6.84-7.71-6.17A50.84,50.84,0,0,0,80,176.74c-2.81,1.61-5.59,3.3-8.44,4.84-.49.27-1.29,0-2,0,.37-.57.77-1.12,1.1-1.71a1,1,0,0,0-.61-1.5,7.85,7.85,0,0,0-4,.17c-.72.29-1.78-.8-1.81-1.65-.12-3.89-.36-7.79-.3-11.69a44.84,44.84,0,0,0-1-12.28A17.31,17.31,0,0,1,62.64,149.49Zm-54-42.42a5.18,5.18,0,0,0,.46,1.29c2.82,4,5.71,7.86,8.49,11.85a19.38,19.38,0,0,1,2.34,4.22,20.13,20.13,0,0,0,5,7.39c1.65,1.61,3,3.48,4.56,5.21a34.64,34.64,0,0,0,3.3,3.54q6.61,5.61,13.38,11.05a12.89,12.89,0,0,1,2.36,2.48,1.25,1.25,0,0,0,1.8.31c3.52-2.64,7.08-5.22,10.52-7.94,8.88-7,7.46-4.77.55-12.3a23.71,23.71,0,0,0-9-6.32,22,22,0,0,1-3.71-1.9c-2-1.21-3.8-2.62-6.19-3a4.51,4.51,0,0,1-1.84-.95,68.37,68.37,0,0,0-13-7.87,14.51,14.51,0,0,1-2.31-1.54,54.94,54.94,0,0,0-14.89-7.14A5.65,5.65,0,0,0,9.27,105c-1.14-.18-1.46.32-1,1.57A2,2,0,0,0,8.65,107.07ZM70,138.41a17.9,17.9,0,0,0,2.86-.64,37.31,37.31,0,0,0,4.37-2.1,26.1,26.1,0,0,1,9.15-3.09,24.22,24.22,0,0,0,3.4-.62c.55-.17,1-.77,1.45-1.17-.44-.52-.77-1.24-1.33-1.52a20.25,20.25,0,0,0-5.84-2.13,53.64,53.64,0,0,1-11.84-3.81c-3-1.23-5.64-3.11-8.91-3.55a61.72,61.72,0,0,0-15.55-5.52,9.27,9.27,0,0,1-1.3-.48c-7.12-2.62-14.18-5.42-21.42-7.74a13.68,13.68,0,0,1-3.71-1.84c-2.93-2.06-6.51-2.13-9.73-3.26-.33-.11-.87.23-1.25.46s.23,1.43.76,1.68.87.32,1.28.53c5.48,2.94,11.44,5,16.39,8.9a11.3,11.3,0,0,0,2.51,1.17,33.28,33.28,0,0,1,8.24,5.06,13,13,0,0,0,5.37,3.06A13.54,13.54,0,0,1,48,123.33c1.82,1,3.63,2,5.45,3a41.52,41.52,0,0,1,10.16,7.12,51.75,51.75,0,0,0,4.07,3.77A11,11,0,0,0,70,138.41Zm62.18,57.36h.34c.05,2.29.22,4.58.14,6.87a5.73,5.73,0,0,0,2.41,4.7,8.25,8.25,0,0,0,4.39,1.85,3.89,3.89,0,0,0,3.69-1.33,10.65,10.65,0,0,0,2.83-8.22,12.22,12.22,0,0,0-.94-4.68,2.34,2.34,0,0,1-.14-1.95c1.33-1.75.08-2.47-1.12-3.13-2.8-1.56-5.64-3-8.49-4.52a2,2,0,0,0-2.61,1.49C132.51,189.83,132.38,192.8,132.22,195.77ZM88.14,150.92l.32,0c.1-.9.26-1.79.31-2.7a108.75,108.75,0,0,1,1.61-11.65c.13-.8,1-1.22,2.1-1.12l.7.07c1.07.16,1.79.82,1.74,1.7-.17,3-.33,6-.6,9-.19,2.06-.56,4.11-.87,6.16-.2,1.37-.38,2.75-.65,4.11-.6,2.93-1.32,5.85-1.85,8.8a6.79,6.79,0,0,0,.29,2.7c.18.77.9.94,1.62.95s1.51-.6,1.38-1.16a18.72,18.72,0,0,1,.13-8.26c.64-3.15.2-6.48,1.5-9.54-.35-4.19.72-8.26,1.1-12.39.09-.92.11-1.84.14-2.76a1.54,1.54,0,0,0-1.89-1.44,19.05,19.05,0,0,1-7.4,1.24,4.18,4.18,0,0,0-1.34.33A3.66,3.66,0,0,0,84,138c-.09,1.39-.17,2.78-.18,4.16a72.17,72.17,0,0,1-1.09,13.12,51.74,51.74,0,0,0-.42,7.59c0,.2.16.4.24.61.28-.35.74-.65.81-1,.5-2.73,1-5.47,1.34-8.22.56-4.81,1-9.64,1.48-14.47a4.3,4.3,0,0,1,.24-1.35c.14-.31.54-.51.82-.75.13.18.38.37.39.56C87.79,142.44,88,146.68,88.14,150.92Zm8.07,12.25c.14,1.07.26,2.44.52,3.79.06.3.61.66,1,.72a1.46,1.46,0,0,0,1.2-.35,3.76,3.76,0,0,0,.81-1.81c.33-4.38.49-8.77.88-13.15.31-3.44,1.12-6.85,1-10.33a28,28,0,0,1,.52-7.59c.08-.29-.38-.78-.69-1.08s-1.68.22-1.74.62c-.66,4.8-1.46,9.59-1.91,14.4-.32,3.46-.36,6.92-1.24,10.32A25.92,25.92,0,0,0,96.21,163.17Zm87,.41c0-1.81.43-3.2-.09-3.94a7.74,7.74,0,0,1-1.24-5.2c.15-3,.14-6,.32-9,.16-2.74-.06-5.53,1.14-8.18a4,4,0,0,0-.12-2.67,14.71,14.71,0,0,1-.61-5.47c0-.92.12-1.84.1-2.77a11.66,11.66,0,0,0-.27-2c-.12-.58-.51-.81-1-.59a2.24,2.24,0,0,0-1,.72c-.88,1.74-.5,3.63-.4,5.44.49,8.52,1.08,17,1.59,25.57A36.2,36.2,0,0,0,183.23,163.58Zm12.09,15.91c0-2.31,0-4.61,0-6.91a8.69,8.69,0,0,0-.44-2c0-.17-.24-.29-.37-.44-.15.17-.41.34-.43.53-.58,5.47-1.13,10.95-1.69,16.43-.31,2.95.07,6-1.08,8.85-.2.51.25,1.28.45,1.92a1,1,0,0,0,.49.43c.55.28.93.14,1-.37C194.41,191.85,195.54,185.74,195.32,179.49Zm5.67-.68c-.4,4.61-.57,7.83-1.61,10.91a10.69,10.69,0,0,0-.21,2.73,12.71,12.71,0,0,0,0,1.38c0,.16.14.44.23.45.57,0,.69-.38.93-.8.87-1.5,1.22-1.69,1.41-1.06a4.24,4.24,0,0,1,.34,1.25,31.16,31.16,0,0,1-1.16,7.47,6.24,6.24,0,0,0,.07,2.68c.06.3.63.68,1,.73a1.25,1.25,0,0,0,1.06-.54,4.18,4.18,0,0,0,.47-2C203.12,194.74,203.27,187.39,201,178.81ZM76.87,152.49c0,2,0,4.11,0,6.17,0,.22.31.44.47.67.11-.2.32-.4.32-.61,0-2.05,0-4.11,0-6.16,0-.68-.33-1.5-.06-2,1.91-3.78.69-8.16,2.3-12,.09-.21-.37-.66-.58-1-.35.21-.94.37-1,.65A67.82,67.82,0,0,0,76.87,152.49ZM59.41,173.83c1.19-6.1-.68-12.08-.71-18.14a6.6,6.6,0,0,0-.5-1.95c-.06-.19-.3-.33-.46-.5-.1.12-.28.22-.29.35A17.51,17.51,0,0,0,57.2,157c.54,5.45,1.17,10.89,1.8,16.33C59,173.48,59.27,173.65,59.41,173.83ZM87.5,156.39c-1.1,1.28-.62,2.51-.93,3.57-.37,1.31-1,2.55-1.28,3.87a27.23,27.23,0,0,0-.43,4.78,5.26,5.26,0,0,0,.65,1.89c.2.51.61.58,1.14.36s1.32-.62,1.21-1.39A65,65,0,0,1,87.5,156.39ZM53.9,172.88c0-4.27.06-7.95,0-11.63a14.15,14.15,0,0,0-.76-3.34c0-.16-.34-.25-.53-.36-.47-.29-.73-.1-.84.56a20.14,20.14,0,0,0,.58,8.21C52.8,168.32,53.28,170.31,53.9,172.88ZM195.18,251.1c.09,1.59.16,3,.26,4.3,0,.15.28.43.36.4.4-.11,1-.21,1.14-.47a36,36,0,0,0,1.76-10,1.42,1.42,0,0,0-1.33-1.22,1.4,1.4,0,0,0-1.43,1.15C195.61,247.24,195.41,249.28,195.18,251.1ZM70.23,163.48a4.86,4.86,0,0,0,.8-3.12c0-5.75,0-11.5,0-17.25,0-.24-.54-.49-.87-.68a1.13,1.13,0,0,0-.43.49,3.65,3.65,0,0,0-.35,1.3q.23,9.3.52,18.59C69.85,163,70.07,163.21,70.23,163.48Zm31.77-.9c.37,1.47.65,2.79,1,4.08a1.29,1.29,0,0,0,1,.69,1.41,1.41,0,0,0,1.14-.47,4.14,4.14,0,0,0,.3-3.27c-.16-.77-.92-.83-1.56-1a1.34,1.34,0,0,1-.59-.31c-.29-.34-.53-.73-.79-1.1Zm-70.44,38.1c-1.44,1.23-1.6,2.87-1.82,4.42a2.3,2.3,0,0,0,.62,1.82,9.64,9.64,0,0,1,2.08,2.65c.1.16.4.21.6.32a2.94,2.94,0,0,0,.21-.61,4.23,4.23,0,0,0,.06-1.37C32.76,205.52,32.16,203.13,31.56,200.68Zm158.88-61.77a32.88,32.88,0,0,0-.06-4.78,12.87,12.87,0,0,0-1.29-3.06c-.06-.13-.38-.3-.47-.25-.37.2-.84.4-1,.74-.86,1.77-.91,2.48.71,3.41C189.76,135.8,189.75,137.05,190.44,138.91ZM198,169.05a40.57,40.57,0,0,0,0,7.63c0,.17.18.46.29.47a1,1,0,0,0,.64-.23c1.14-.91,2-2,1.3-3.53C199.54,172,199.6,170.23,198,169.05ZM80.35,174a2.86,2.86,0,0,0,.61-.29,2.63,2.63,0,0,0,.93-3.51A5.17,5.17,0,0,0,79.36,168c-.47-.21-.77,0-.9.58-.42,1.93.71,3.45,1.38,5.08C79.9,173.8,80.17,173.85,80.35,174Zm81.35,23.77c-.14-1.93-.18-3.28-.36-4.61-.09-.62-.47-.78-.71-.52s-.37.36-.37.55c0,3.15,0,6.3.06,9.45a2.26,2.26,0,0,0,.22.63c.2-.24.54-.46.57-.72C161.37,200.72,161.56,198.94,161.7,197.72Zm39.56,23.17c-.54,2.18-1.1,4.36-1.58,6.55,0,.15.51.48.83.62.12.06.47-.15.55-.32C202.17,225.58,201.54,223.28,201.26,220.89ZM186.1,124.53c-.16,0-.42,0-.46.15a3.34,3.34,0,0,0,.12,3.16c.16.27.72.34,1.11.4.14,0,.4-.23.47-.41A2.52,2.52,0,0,0,186.1,124.53ZM188.38,169c.55-2.35,1.08-4.51.29-7.21a23.06,23.06,0,0,0-.35,2.53C188.3,165.83,188.36,167.39,188.38,169ZM185.6,165l.65-.29c0-1.53.08-3.07.1-4.6a2,2,0,0,0-.22-.62c-.18.3-.5.6-.51.9C185.57,162,185.6,163.48,185.6,165Zm-36.42,16.67a8.34,8.34,0,0,0,0,1.64,5.56,5.56,0,0,0,.55,1.19c.24-.37.66-.72.69-1.11a12.59,12.59,0,0,0-.14-2.67c0-.26-.44-.45-.67-.68-.12.19-.31.36-.35.56C149.21,181.07,149.2,181.52,149.18,181.69Zm41.76-13.24c.05.45.08.91.17,1.36a2.55,2.55,0,0,0,.29.6,3.23,3.23,0,0,0,.55-.81,2.92,2.92,0,0,0,.16-1.33,3.45,3.45,0,0,0-.63-1Zm6.94,52.19a2.81,2.81,0,0,0,.05.67c.13.33.32.64.48,1a4.93,4.93,0,0,0,.45-1.19,10.48,10.48,0,0,0,0-1.94c0-.2-.19-.38-.29-.58a3.07,3.07,0,0,0-.57.81A6.83,6.83,0,0,0,197.88,220.64Zm1.87-8.2a4,4,0,0,0,.37-1.19,3.54,3.54,0,0,0-.44-1.15,3.37,3.37,0,0,0-.39,1.17A3.48,3.48,0,0,0,199.75,212.44ZM20.56,234.09a10.08,10.08,0,0,0-.35-1.15c-.12.13-.34.26-.34.38a7.05,7.05,0,0,0,.17,1.21c0,.07.21.09.33.14C20.44,234.47,20.59,234.27,20.56,234.09Zm133.3-57.81a1.74,1.74,0,0,0,.55-1.81c0-.2-.26-.37-.4-.55a3.48,3.48,0,0,0-.53,1.17A3.53,3.53,0,0,0,153.86,176.28ZM76.68,98.79c-.08.83.31,1.59.75,1.4a3.09,3.09,0,0,0,1.41-1.12c.53-.94-.48-1-1-1.2S76.76,98,76.68,98.79ZM41,208a9.86,9.86,0,0,0,.92-1.1c.29-.49.11-.93-.45-1a3,3,0,0,0-1.09.3C40.53,206.81,40.73,207.38,41,208ZM154,195.5l-.14-1.05c-.12.15-.3.29-.33.45a1,1,0,0,0,.14.56S153.88,195.49,154,195.5Zm-117.17-.79c.12-.16.34-.34.33-.49a7.37,7.37,0,0,0-.29-1.12c-.13.16-.37.34-.35.48A6.54,6.54,0,0,0,36.83,194.71Zm-3.31,23.07a8.6,8.6,0,0,0-.67-.8s-.49.28-.47.38a6.57,6.57,0,0,0,.39,1.13Zm50.87-13.71-.83.47c.15.15.32.44.43.41a4.3,4.3,0,0,0,.87-.41Z"/><path d="M182.56,89l2.2-1.09L186,89.17c-1.15,1.83-3,2.83-4.71,4-4.9,3.55-9.44,7.46-12.58,12.75-2.51,2.48-3.8,5.74-5.52,8.72a4.24,4.24,0,0,0-.61,3.27,1.58,1.58,0,0,1-.42,1.22c-1.44,1.47-2.94,2.87-4.42,4.3l-1.32-1.18c-.31-1.46-.68-1.93-1.41-1.74s-1.73.56-2.61.77c-2.67.63-5.34,1.69-8,1.71-3.34,0-5.72.78-6.89,4.13a11,11,0,0,1-1.5,2.29l-1.16-1c.51-1.52,1.07-3,1.48-4.58a1.48,1.48,0,0,0-.7-1.77,5.22,5.22,0,0,1-2.3-2.43c-3.32-6.56-7-13-8.56-20.26a1.32,1.32,0,0,0-.31-.61c-.3-.34-.62-.84-1-.88a1.47,1.47,0,0,0-1.17.61c-1,1.54-1.85,3.16-2.85,4.7-.18.27-.77.28-1.17.42.13-1.32.25-2.64.38-4,1.07-1.46,2.16-2.92,3.21-4.39.85-1.19.71-2.36-.46-3.72a2.87,2.87,0,0,0-1.13-.61,1.44,1.44,0,0,0-.35.56c-.82,2.38-1.62,4.78-2.43,7.17l-1.24,1.67c-3,4.09-5.85,8.27-7.18,13.29a12.68,12.68,0,0,1-2,3.58c-.16.25-.79.19-1.21.27a8.86,8.86,0,0,0-.71-1.09c-.09-.12-.38-.14-.56-.1a.86.86,0,0,0-.5.32c-.22.35,0,.65.56.73a9.55,9.55,0,0,0,1.31,0,2.58,2.58,0,0,1,.16,2.55c-.54,1.72-1.18,3.42-.67,5.27l-1.67,1.38a8.7,8.7,0,0,1-.91-1.8c-.52-2.22-.91-4.47-1.39-6.69a1.86,1.86,0,0,0-1.86-1.67c-3.08,0-5.66-1.58-8.44-2.5-.53-.17-1.22-.61-1-1.46.07-.22.19-.41.28-.62l4.25,0c.64,1.58,2.08,1.49,3.4,1.59s2-.67,2-2.06c0-.22,0-.44,0-.67-.12-1.91-.21-2-2.68-2.95-.09-.42-.4-1-.22-1.24a6,6,0,0,0,1-5.8,37.56,37.56,0,0,1-1.06-6c-.16-1.77-.57-3-2.57-3.4A12.06,12.06,0,0,1,91,89.39c-.31-.19-.39-.76-.58-1.16.4-.16.84-.51,1.2-.44a18.91,18.91,0,0,1,2.61.76c1.36.44,1.85,0,1.55-1.61a29.84,29.84,0,0,1-.69-6.74,41.7,41.7,0,0,0-.62-5.41c-.15-1.51-1.13-1.71-2.35-1.71-1,0-1.69-.42-1.68-1.56.23,0,.46,0,.69,0,2-.24,2.52-.67,2.42-2.36-.18-3.21-.3-6.43-.64-9.63a43.66,43.66,0,0,0-2-10.06A2.48,2.48,0,0,1,91,47a5.52,5.52,0,0,0,.75-3.29c0-3.66-.51-7.32-.17-11,0-.52-.56-1.16-1-1.65s-1-.9-1.52-1.38a1,1,0,0,1,.52-1.53,9.54,9.54,0,0,0,1.33-.31c1.5-.73,2.11-2.29.57-3.05a5.47,5.47,0,0,1-2.78-2.9L90,20.63a2.55,2.55,0,0,0,.61.32c1.37.33,2.09.06,2.2-.8.16-1.36.31-2.73.35-4.1a2,2,0,0,0-2.46-1.71,22.07,22.07,0,0,0-3,1.53l.12.1a4.53,4.53,0,0,1,0-1.38A45.2,45.2,0,0,1,97.4.29,1.34,1.34,0,0,1,98.61.06c.35.16.55.68.76,1.07a1.29,1.29,0,0,1,.1.68c-.86,9,1.76,17.37,5.12,25.56a22,22,0,0,1,1.32,3.2c1.17,5,3.39,9.57,5.21,14.32A135.63,135.63,0,0,1,115.53,58a36.28,36.28,0,0,1,1.54,10.27c-.06,2.85,1,5.42,2,8,.34.86-.27-.18.62.08.21.06.61.06.67,0a14,14,0,0,0,1.71-5.15c.55-5.05,1.21-10.1,1.62-15.16a38.36,38.36,0,0,1,2.6-11.44q3.51-8.67,6.92-17.38c1.42-3.65,3.2-7.13,4.24-11a20.46,20.46,0,0,1,3.33-6.75c.29-.39,1.6-.19,1.82.3a8.77,8.77,0,0,1,.78,1.89A64.5,64.5,0,0,0,153.11,36a22.43,22.43,0,0,1,3.47,7.48,75.24,75.24,0,0,0,3,8.5c.39,1.05,1.43,1.49,2.14.84,2.73-2.52,6.18-4,8.86-6.65,1.13-1.1,2.73-1.71,4.07-2.62,2.3-1.55,4.56-3.15,6.82-4.74.57-.4,1-1,1.65-1.26,5.35-2,9.1-6.29,13.66-9.4,2.48-1.69,4.77-3.65,7.52-4.91,1.89-.86,3.14-2.76,5.26-3.22a.85.85,0,0,1,.66.17,3.84,3.84,0,0,1,.79,1c.08.16,0,.45-.11.67-1.48,4.13-2.9,8.28-4.48,12.37-1.25,3.23-2.7,6.38-4,9.56a35.4,35.4,0,0,0-1.58,3.85c-2.61,9.22-7.31,17.44-12.17,25.58-2.13,3.57-4.19,7.17-6.28,10.76l-2.26,2-1-1c.25-1.22.16-2.28-1.24-2.76a5.77,5.77,0,0,0-1.31-.39,72.32,72.32,0,0,1-12.21-2.17c-.89-.24-1.68.39-2.4,1-1.18,1.06-1.31,3-3.1,3.5-1.06-1-.5-2.1-.13-3.15.31-.89.64-1.85,0-2.62-1.5-1.87-1.87-4.16-2.65-6.31s-1.59-4.29-2.46-6.4c-.3-.73-1.11-.79-1.78-.71s-1.31.5-2,.54c-.26,0-.56-.57-.85-.89.16-.4.21-.92.5-1.17,1.52-1.33,3.06-2.64,4.67-3.85A5.91,5.91,0,0,1,156,59c.16.42.55.92.43,1.23a6.34,6.34,0,0,0-.06,4.69c1.33,3.41,2.74,6.78,4.12,10.16a1.1,1.1,0,0,0,1.65.24c1.27-1.6,2.5-3.25,3.82-4.81.23-.27.81-.24,1.23-.35.25.35.78.82.69,1-.6,1.48-1.38,2.89-2,4.37a1.18,1.18,0,0,0,.35,1.11A16.32,16.32,0,0,0,170,78.11c3.4.59,6.84,1,10.27,1.44a2.65,2.65,0,0,0,.69,0,2.27,2.27,0,0,0,.65-.22,1.28,1.28,0,0,0,.56-.35A99.24,99.24,0,0,0,188,69.6a1.3,1.3,0,0,0-1.1-1.93c-4.41.32-8.75.21-13-1.39a2.36,2.36,0,0,0-2.53.7c-1.08,1.2-2.09,2.47-3.2,3.64-.1.11-.71-.25-1.08-.39.05-.67-.16-1.55.19-2,2.08-2.42,1.67-5,.7-7.65-.7-1.91-1.5-3.78-2.28-5.66a1.33,1.33,0,0,0-2.16-.63c-1.66,1.17-3.29,2.39-5,3.51-.26.17-.81-.11-1.23-.18l.6-3.3c-1.22-2-1.47-4.35-2.24-6.5-1.16-3.24-2.14-6.55-4-9.52a84.15,84.15,0,0,1-9.23-19.27,7.05,7.05,0,0,0-.88-1.86,1.25,1.25,0,0,0-2.11.17,10.78,10.78,0,0,0-1.34,3.14,22.59,22.59,0,0,1-1.89,5.18c-.8,1.91-1.43,3.9-2.33,5.76-2.5,5.21-3.58,11-6.18,16.12a4.69,4.69,0,0,0-.69,1.93c0,3.27-1,6.38-1.34,9.58-.59,5.51-1,11-1.74,16.52a23.17,23.17,0,0,0,1.26,10.16c.13.39,1.44.83,1.75.56,1.4-1.2,2.75-2.45,4.19-3.6.27-.21.84,0,1.27,0,.11,1.86-1.27,2.91-2.33,4.06-5.29,5.69-4,6.26-2.7,12.52,0,.23.19.43.24.65,1.78,6.77,5.22,12.79,8.47,18.9a1.74,1.74,0,0,0,2.87.2c1.33-1.4,1.66-3.28,2.57-4.87,1.69-3,1.53-5.57-1.05-8a9.1,9.1,0,0,1-1.63-3c-1.09-2.55-2.18-5.1-3.15-7.69-.8-2.17-1.46-4.38-2.07-6.6a5.53,5.53,0,0,1,.07-2c0-.22.25-.6.32-.58.4.1,1,.18,1.15.45,1.46,3.65,2.9,7.3,4.22,11a23.41,23.41,0,0,0,4.61,7.67c.14.16.9.07,1.1-.15,2.32-2.64,3.45-6,5.15-9,1.13-2,.86-3.84.15-5.92-1.84-5.46-3.46-11-5.17-16.5-.28-.91-1-1.24-2.19-.73-.88.38-1.64.75-2.41-.11,0-.23,0-.57.11-.67,1.95-1.53,3.4-3.62,5.53-4.94.15.41.51.9.4,1.23-.38,1.1-.8,2.08.18,3.15,1.47,1.6,1.38,3.84,2.11,5.75,1.23,3.21,2.25,6.5,3.38,9.75a1.57,1.57,0,0,0,2.3.51c1-1.22,2-2.51,3.09-3.69.19-.2.79,0,1.2,0-.05.67-.07,1.35-.16,2-.25,2,0,2.51,1.82,2.75q5.4.75,10.82,1.42c1.58.2,3.24.28,4.46,1.39a2.22,2.22,0,0,0,3,.31C180.15,91,181.33,90,182.56,89Zm-78.24,21.46c1.22.38,1.26-.57,1.5-1.31,2-1,2.72-3,3.65-4.79a19.76,19.76,0,0,0,3.91-7.06,5.07,5.07,0,0,0,2.05-3.49,3.48,3.48,0,0,0-.41-1.24,2.75,2.75,0,0,0-.57.28,5.35,5.35,0,0,0-1.91,3.58c-.81,1-1.63,1.92-2.42,2.91a1,1,0,0,1-1.53.13c0-.66-.22-1.44,0-2,1.71-3.23,3.41-6.47,5.34-9.56a25.52,25.52,0,0,0,2.24-5.68,7.93,7.93,0,0,0-.56-6.6c-.3-.57-.57-.8-1-.36-1.12,1.09-2.19,2.23-3.28,3.35a5.58,5.58,0,0,1,2.74-5.23,2.67,2.67,0,0,0,1.38-2.91,107.15,107.15,0,0,0-4.78-20.22c-2.48-7.42-6.29-14.35-8.12-22-.41-1.73-1.64-3.29-2.58-4.88-.17-.28-.79-.29-1.19-.43a10.94,10.94,0,0,0-.08-6.11,1.29,1.29,0,0,0-.87-.77,1.57,1.57,0,0,0-1.18.39A5,5,0,0,0,94.88,20c0,2.06,0,4.13,0,6.2,0,.59.22.84.84.65.16-.05.24-.34.35-.52.34-.61.72-1.13,1.54-.75.06.91.15,1.82.19,2.74,0,.63.32.69.84.78,1.36.22,1.78.72,1.43,1.49q-2.58,5.64-5.2,11.29c-1.77,1.74-1,3.86-.85,5.87.08.93-.36-.25.42.25A.66.66,0,0,0,95,47.8c.78-1.9,1.41-3.88,2.32-5.72,1.21-2.45,1.64-5.32,3.77-7.29l1,1c-1.19,3.24-2.36,6.49-3.58,9.73-.82,2.19-1.49,4.39-.86,6.75-2.35-.37-3.32.62-2.65,2.72a.52.52,0,0,0,.39.26c.2,0,.49-.08.57-.22.56-.94,1.07-1.92,1.59-2.88L98.91,52c.15.41.53.91.42,1.23a45,45,0,0,1-2.07,5.15,12.36,12.36,0,0,0-1.07,6.77c.06.65.29.91.69.71a.93.93,0,0,0,.47-.42c1.07-2.55,2.1-5.13,3.22-7.66.09-.2.77-.14,1.17-.2a15,15,0,0,1-.09,2.68,16.15,16.15,0,0,1-1,2.52c-.23.57-.1,1,.29,1s.69-.42,1-.64l.59-.35,1.19,1.11c-1.28,3-2.54,5.94-3.84,8.9-1.1,2.54-2.39,5-2.37,7.89,0,.32.33.64.51,1,.2-.12.5-.19.58-.36,1-2.09,1.88-4.22,2.89-6.29,1.52-3.11,3-6.24,5.61-8.67.45-.42.86-.37,1.06,0,.1.2.27.46.21.63-.39,1.08-.88,2.13-1.23,3.22a1.48,1.48,0,0,0,.23,1.22,2.42,2.42,0,0,1,.6,3.1c-2.94,5-4.79,10.5-7.05,15.81a7.84,7.84,0,0,0-1.07.8c-.85.87-1,1.6-.41,2.31a.77.77,0,0,0,.49.28c.79,0,1.17-.53,1.47-1.14a10.22,10.22,0,0,0,.43-1.25c.79-1,1.61-2.09,2.37-3.16.65-.9,1.18-1.89,1.87-2.75.13-.17.74,0,1.13.07A3,3,0,0,1,107,88c-.43,1-.84,2.08-1.26,3.12l.13-.14a33.59,33.59,0,0,0-2.13,3.25,10.62,10.62,0,0,0-.56,2.49l-.49.29.4-.38a6.29,6.29,0,0,0,1-.88c.45-.62,1-.83,1.6-.39a1.31,1.31,0,0,1,.15,1.24c-1.09,2-2.29,3.92-3.38,5.9a4.73,4.73,0,0,0-.55,1.9c0,.39.32.81.55,1.18a1.18,1.18,0,0,0,.54-.15,11.12,11.12,0,0,1,1.77-1c.22-.08.63.38,1,.59.06.59.16,1.18.17,1.78,0,.8,0,1.61,0,2.41-1.21-.38-1.2.63-1.5,1.3a5.27,5.27,0,0,0-.78.93c-.29.54-.06.83.52.7.12,0,.22-.36.22-.55A11.71,11.71,0,0,0,104.32,110.43Zm12.45-22.32a2.33,2.33,0,0,0-1.23,2.17c0,.19.17.38.29.55.27.39.68.4,1-.08a18,18,0,0,0,1-1.69,9.45,9.45,0,0,0,.44-1.78c0-.36-.29-.74-.44-1.11a3.29,3.29,0,0,0-.78.75A5.08,5.08,0,0,0,116.77,88.11ZM197,50c.11-.17.33-.36.31-.52a6.1,6.1,0,0,0-.33-1.08l-.93.71a36.34,36.34,0,0,1-4.61.52c-3,0-5.71.47-7.89,2.73-.17.17-.8-.1-1.21-.17a5.64,5.64,0,0,1,.47-1.91,3.23,3.23,0,0,0,.18-3.82c-.35-.59-.58-1.26-.95-1.83a2.23,2.23,0,0,0-3.49-.65c-.7.54-1.74,1.27-1.76,1.94-.07,2.25-.08,4.57,1.4,6.54A1.49,1.49,0,0,0,180,53c.85-.24,1.65-.61,2.47-.92.15.41.51.88.42,1.22a1.39,1.39,0,0,0,.57,1.73c1.81.9,3.65,1.82,5.8,1.44a29.4,29.4,0,0,1,3.35-.49,3.77,3.77,0,0,0,3.16-2.2A6.76,6.76,0,0,0,197,50ZM175.5,60.41c.26,3.38.54,3.76,3.16,4.13,2.94.42,5.88.78,8.79-.3a5.54,5.54,0,0,1,2-.16,2.46,2.46,0,0,0,2.19-1.35,16.13,16.13,0,0,0,1.15-2.45c.24-.58,0-.93-.52-1a36.82,36.82,0,0,1-8.8-1A5.79,5.79,0,0,0,177.26,60c-.34.39-1.21.31-1.83.45a1.62,1.62,0,0,1,.07-1.89c.93-1.12,1.44-2.21.73-3.74-1-2.07-1.7-4.25-2.54-6.38a.68.68,0,0,0-1.13-.36c-1.28,1-2.58,1.9-3.76,3a2.31,2.31,0,0,0-.65,2.51,31.43,31.43,0,0,0,3.25,7.59c.38.61.79.69,1.73.15C173.88,60.9,174.44,60,175.5,60.41Zm18-20.34c-.58,1-1.13,2-1.74,2.94-.49.77-1.12,1.46-1.56,2.26-.16.28,0,.79.13,1.17.06.16.37.29.58.34,2.61.56,4.73-1.81,7.34-1.23,1.61-1.15,1.66-3.17,2.62-4.67a26.71,26.71,0,0,0,3.22-9c.1-.17.28-.35.29-.53,0-.37.1-.93-.09-1.09-.64-.5-1,.11-1.39.54a7.27,7.27,0,0,0-3.2,2.32c-.9,1-1.78,2-2.67,3l-1-1a12.66,12.66,0,0,1,.15-1.38c.13-.53,0-1-.47-1.17-.36-.11-1-.15-1.19.07a30.61,30.61,0,0,1-10.08,7.14c-.82.38-1,1.39-.44,2.39l.32.61c1.53,2.65,2.15,2.75,3.93.64,1.18-1.4,2-3.14,3.66-4.08ZM151.37,106l0,.25c2.74-.38,5.51-.66,8.23-1.19,2-.39,4.42.39,6-1.07s2.34-3.41,3.46-5.15c.76-1.16,1.51-2.32,2.25-3.5a1.17,1.17,0,0,0-.44-1.72,53.07,53.07,0,0,0-12.26-2.16A4.74,4.74,0,0,0,154,93.91c-.36.59-.75,1.17-1.06,1.79-1.28,2.46-2.56,4.93-3.78,7.42-.81,1.66-.17,2.82,1.49,2.85C150.91,106,151.14,106,151.37,106Zm3.78,2.3v.15c-2.31,0-4.62,0-6.93,0a2.4,2.4,0,0,0-2.26,1.35c-1.31,3-2.53,5.93-3.76,8.9a1.25,1.25,0,0,0,1,1.5,16.87,16.87,0,0,0,6.15-.76c2.43-.73,4.85-1.49,7.29-2.19a4.5,4.5,0,0,0,2.61-2.14c1.09-1.76,2.15-3.55,3.15-5.36a1.63,1.63,0,0,0,0-1.3,1.32,1.32,0,0,0-1-.61C159.29,107.92,157.22,108.11,155.15,108.27ZM96.51,5.33c-.08,1.33-.17,2.18-.17,3,0,.65.14,1.31.3,2.71C97.12,8.8,97.38,7.3,96.51,5.33Zm27.55,83.82.42.47a4.39,4.39,0,0,0,.42-.84c0-.11-.24-.29-.37-.44C124.37,88.61,124.21,88.88,124.06,89.15Z"/><path d="M260.87,52.69l1.9-5.47c.28-.46.78-1,.17-1.44s-1.06,0-1.36.54c-2.69,1.24-5.46,2.27-8.2,3.36-2.56,1-4.95,2.49-7.41,3.75-2.66,1.38-5.37,2.69-8,4.14-9.67,5.39-19.33,10.8-29.1,16a111.34,111.34,0,0,0-10.35,6.89c-4.19,2.87-8.34,5.79-12.51,8.69l-1.26-1.29a36.77,36.77,0,0,1,7.38-6.25c4.84-3.18,9.64-6.4,14.5-9.53a69.91,69.91,0,0,1,6.6-3.83A252.82,252.82,0,0,0,235.66,55.8c1.55-1,3.33-1.61,5-2.47,3.47-1.83,6.91-3.74,10.4-5.55a37.5,37.5,0,0,1,3.82-1.59c.65-.25,1.47-.24,2-.64,3.38-2.7,7.77-2.88,11.5-4.7a4.63,4.63,0,0,1,2-.31,1.71,1.71,0,0,1,1.18.55,1.41,1.41,0,0,1,.18,1.27,44.93,44.93,0,0,0-5.34,12.75,21.42,21.42,0,0,1-3.1,6.17A36.3,36.3,0,0,0,257.4,76a37.15,37.15,0,0,1-6.6,16.62,29.83,29.83,0,0,0-3.68,7.44,41.07,41.07,0,0,1-6.19,11.56,21.28,21.28,0,0,0-1.64,3c-1.71,3-3.27,6.15-5.79,8.61a53.31,53.31,0,0,1-4.05,3.77c-4.16,3.32-8.9,5.8-12.89,9.39a16.71,16.71,0,0,1-4.9,2.52A69.94,69.94,0,0,0,200,144.94a2.37,2.37,0,0,1-1.31.37,1.55,1.55,0,0,1-1.16-.52,1.71,1.71,0,0,1,.22-1.29,2.37,2.37,0,0,1,1-1c3.25-1.74,6.53-3.47,9.82-5.16a21.9,21.9,0,0,0,3.15-1.42c5.4-4,11.44-7,16.52-11.44a37,37,0,0,0,8.32-10.14c1.68-3,3.82-5.8,5.44-8.86,1.51-2.85,2.55-5.94,3.88-8.89a37.06,37.06,0,0,1,2.57-4.92,45.67,45.67,0,0,0,6.53-17.41c.29-1.59.74-3.16.94-4.76a2,2,0,0,0-.67-1.68c-.47-.23-1.27.08-1.88.29-.42.14-.74.6-1.17.72a2,2,0,0,1-1.12-.2.7.7,0,0,1-.1-.65c1.85-2.08,2.72-4.77,4.38-7,.32.3.65.59,1,.86-.16.66-.33,1.33-.48,2a3.63,3.63,0,0,0-.25,1.33,2.18,2.18,0,0,0,.75,1c.09.08.43,0,.56-.1,1.69-1.32,2.32-2.6,2.5-5.15,0-.18-.24-.38-.36-.57l-.08.08c.36.11.88.42,1.06.29a3.8,3.8,0,0,0,1.84-3.13l-.09.1a3.21,3.21,0,0,0,1.33-4.34c.93,0,.14,1,.61.17a3.3,3.3,0,0,0,.4-1.14c0-.18-.14-.39-.22-.59-.18.35-.37.7-.52,1a3.45,3.45,0,0,0-.17.63,2.52,2.52,0,0,1-1,.34Z"/><path class="cls-1" d="M182.82,184.37a60.77,60.77,0,0,0-5.39-14.19c-1-1.82-1.69-3.79-2.54-5.69a6,6,0,0,1-.15-4.06c.17-.66-.56-1.42-1.07-1.26a14.4,14.4,0,0,0-6.48,3.63c-.13.15-.1.45-.14.67l.08-.05c-2.38.05-3.55.84-4.19,2.81l0,0a2.48,2.48,0,0,0-2.61.07c-2,1.23-3.93,2.43-5.77,3.8-4.48,3.32-9.74,5.18-14.57,7.82a4.39,4.39,0,0,1-2,.36c-.57,0-.91-.45-.7-.86.4-.79.75-1.9,1.43-2.21,2.6-1.19,4.49-3.2,6.48-5.09a1.24,1.24,0,0,0,0-1.21c-.94-.8-.63-1.68-.2-2.46a23.9,23.9,0,0,1,5.87-6.72,2.24,2.24,0,0,0,.55-3c-.09-.16-.13-.5,0-.57A1,1,0,0,1,152,156c.84,1.67,2.28,1.88,3.93,1.8.27,0,.57.6.86.92l-1.26,1.54c-.31.28-.73.49-.9.84a1.26,1.26,0,0,0,0,1.09,1.15,1.15,0,0,0,1,.32,8.52,8.52,0,0,0,1.46-1.17l.92-1a9.65,9.65,0,0,0,3.53-3.21,3.88,3.88,0,0,1,2.72-1.9c4.27-.87,8.57-1.41,12.93-.56.16,0,.31.26.42.43.34.49.27.85-.15,1.11a16.27,16.27,0,0,0-2.2,1.53,1.35,1.35,0,0,0-.15,1.26,1.5,1.5,0,0,0,1.08.59,3.18,3.18,0,0,0,1.33-.28c.73-.24,1.57-.1,1.68.57.72,4.51,3.47,8.45,3.52,13.19,0,1.75,1,3.49,1.62,5.23a12.91,12.91,0,0,1,.94,6.05Z"/><path class="cls-1" d="M90.47,71.52c0,1.14.68,1.56,1.68,1.56,1.22,0,2.2.2,2.35,1.71a41.7,41.7,0,0,1,.62,5.41,29.84,29.84,0,0,0,.69,6.74c.3,1.59-.19,2-1.55,1.61a18.91,18.91,0,0,0-2.61-.76c-.36-.07-.8.28-1.2.44l.12.12c.2-1.32.2-1.32-1.47-1.51l.1.08c-1.12-2.51-3.23-3-5.69-2.85l.12.08c0-.22,0-.46-.06-.68-.18-1.09-1.09-1.39-1.95-1.6-.21-.06-.59.54-.9.84l.1.07c.06-.5.84-.84.12-1.53s-1.07,0-1.59,0l.07.07c.44-1.48.43-1.52-.82-1.59a3,3,0,0,0-.64.12L78,80c.24-1.51.24-1.51-1.44-1.44l0,0c0-.7-.25-1.41-1-1.45-2-.09-2.75-1-2.83-3s-.51-3.58-.66-5.37a2.5,2.5,0,0,1,.51-1.84c.41-.36,1.25-.23,1.9-.32a4.8,4.8,0,0,0,3.1,2.6c.13.8.26,1.59.38,2.38a4.18,4.18,0,0,1-1.28.21c-.51-.08-1-.06-1.12.44a1.45,1.45,0,0,0,.16,1.14,5.42,5.42,0,0,0,3.09,2.34c.15,0,.38-.17.53-.32a.69.69,0,0,0,.25-.46c-.25-1.32-1.81-2-1.75-3.45a21.16,21.16,0,0,1,2.41.58c1,.37,1.93.88,2.89,1.32l2.34,1.85c1.21.92,2.21,2.15,3.82,2.48.54.11.93.11,1.07-.41a1.76,1.76,0,0,0,.09-1.16c-.87-1.48-2.38-1.81-3.92-2C86.08,73,85,72.73,84,72.44c-1.34-2-3.54-2.85-5.35-4.22a6,6,0,0,0-3.15-2.51c-.72-.89-1.39-1.83-2.15-2.67a2.42,2.42,0,0,0-2.45-.9c.2-.8.39-1.59.58-2.38,1.83.15,2.18,0,2.17-1.36a24.09,24.09,0,0,1,.87-7.23.75.75,0,0,1,.52-.36c.2,0,.55,0,.63.16.69,1.14,1.33,2.3,2,3.45l-.47-.13a8.78,8.78,0,0,0-.86-1c-.13-.11-.54-.15-.59-.07a2.06,2.06,0,0,0-.49,1.12c0,.4.39.77.61,1.16L77.26,57a2.76,2.76,0,0,0,.37.46c1.31,1.1,1.8.91,2.11-.82.2,1.1,0,2.22.45,3.34s.38,1.32-1.3.9A16.26,16.26,0,0,0,77,59.08c-.23-.16-.9.05-1.17.3a1.17,1.17,0,0,0-.16,1.1,20,20,0,0,0,1.91,1.76A16.93,16.93,0,0,0,82,66.57c.69.51,1.22.1,1.64-.5L83.53,66c-.51,1.77-.46,1.81,1.48,1.5l-.09-.09c-.35,1.55-.35,1.55,1.49,1.49l-.11-.11c-.16,1.16.55,1.46,1.5,1.52l-.13-.1c1.06,1.89,1.16,2,2.92,1.45Zm-3,10.08a3.36,3.36,0,0,0,2.61,1.6,7.89,7.89,0,0,0,1.68,1,1.31,1.31,0,0,0,1.17-.38c.16-.2,0-.82-.24-1.12a4.35,4.35,0,0,0-1.06-.82l-3.17-1.29-1.85-.88a9.87,9.87,0,0,0-4.13-2.84c-.29-.29-.54-.71-.88-.82s-.73.16-1.07.32c-.06,0,0,.4.06.55.22.34.5.65.76,1a7,7,0,0,0,4.34,2.72Z"/><path d="M83.64,66.07c-.42.6-1,1-1.64.5a16.93,16.93,0,0,1-4.4-4.33l1.29-1.41c1.68.43,1.86.35,1.3-.89s-.25-2.24-.45-3.34L79,55.89a1.33,1.33,0,0,0-.65-.67,8.91,8.91,0,0,1-.7-.8c-.65-1.15-1.29-2.31-2-3.45-.08-.14-.43-.19-.63-.16a.75.75,0,0,0-.52.36,24.09,24.09,0,0,0-.87,7.23c0,1.33-.34,1.51-2.17,1.36a56.66,56.66,0,0,1,.64-9.57,5.48,5.48,0,0,1,.33-2c1.49-2.44.85-5.4,2.16-7.94,1.59-3.07,2.72-6.36,4-9.57A24,24,0,0,0,79.39,28,25.91,25.91,0,0,1,86,16.87a6.2,6.2,0,0,1,1.78-.9l-.12-.1c.13,1.89,1.51,3.18,2.28,4.76l-1.28,1.26a12.83,12.83,0,0,0-1.33-1.42,1.39,1.39,0,0,0-1.11-.29c-.35.1-.87.54-.86.83a16.29,16.29,0,0,0,.37,2.56l-1.05.94a2.2,2.2,0,0,0-1.19,2.6c.08.41.1.83.14,1.25-.32.23-.64.47-1,.72-1.67.27-2.15.71-1.95,1.8a6.56,6.56,0,0,0,.46,1.88c.62,1.15,1.37,2.23,2.07,3.34l-1.5,1-1.15-.7c-1-.61-1.54-.63-1.68,0a14.67,14.67,0,0,1-1.71,4.46,2.86,2.86,0,0,0,0,2.67c.46,1.06,0,1.51-.88,2.11a1.61,1.61,0,0,0-.16,2.79,13.08,13.08,0,0,1,2.06,1.76c3.1,4.37,6.61,8.26,11.43,10.81a1.39,1.39,0,0,1,.48,1.81A15.39,15.39,0,0,1,89,65.34a1.37,1.37,0,0,1-1.16.49,13.51,13.51,0,0,1-2.47-1.15,1.78,1.78,0,0,0-1.9,0c.45-.33.53-.71.13-.91-.2-.11-.55.07-.82.12l.82.7Z"/><path class="cls-1" d="M180.07,85.93l2.26-2c.08,1.68.15,3.35.23,5-1.23,1-2.41,2.07-3.71,3a2.22,2.22,0,0,1-3-.31c-1.22-1.11-2.88-1.19-4.46-1.39q-5.41-.68-10.82-1.42c-1.78-.24-2.07-.74-1.82-2.75.09-.67.11-1.35.16-2l-.1.09c1.79-.48,1.92-2.44,3.1-3.5.72-.65,1.51-1.28,2.4-1a72.32,72.32,0,0,0,12.21,2.17,5.77,5.77,0,0,1,1.31.39c1.4.48,1.49,1.54,1.24,2.76-.31.62-.63,1.23-.95,1.84a8.15,8.15,0,0,0-1.16,1.57c-.12.3.22.8.35,1.21a4.52,4.52,0,0,0,1.06-.66,6.14,6.14,0,0,0,.64-1.22C179.33,87.07,179.7,86.5,180.07,85.93Z"/><path d="M193,121.09a42.55,42.55,0,0,1,9.68-6.56c1.45-.68,2.68-1.81,4.1-2.58.52-.28,1.29-.08,2-.11l.19.12c-.6,1.61-2,2.49-3.35,3.3-3.14,1.87-6.17,3.88-9.13,6a7.49,7.49,0,0,1-2.59.69Z"/><path d="M238.35,84.35a34.1,34.1,0,0,1-9,9.16,1.21,1.21,0,0,1-1.16-.09,1.26,1.26,0,0,1-.16-1.1,2.64,2.64,0,0,1,.69-1.14c2.81-2.65,5.64-5.27,8.47-7.91Z"/><path d="M240.67,79.74c2.46-3,4.91-6.09,7.42-9.1a1.39,1.39,0,0,1,1.19-.27.63.63,0,0,1,.42,1A43.86,43.86,0,0,1,241.8,81C241.42,80.57,241,80.16,240.67,79.74Z"/><path d="M209.24,109.83a35.11,35.11,0,0,1,7.86-6.35c.25.32.5.63.76.94a16.49,16.49,0,0,1-7.35,6.4Z"/><path d="M222.13,98.69A6.34,6.34,0,0,1,225.77,95c.18-.07.55-.13.58-.07.16.36.46.84.34,1.11a6.82,6.82,0,0,1-3.76,3.51C222.66,99.28,222.4,99,222.13,98.69Z"/><path class="cls-1" d="M159.29,128.89c-1.33.69-2.63,1.43-4,2.05-.33.15-.83-.05-1.25-.09a6.26,6.26,0,0,1,.74-.94c.48-.44,1-.81,1.52-1.21Z"/><path d="M258.12,56.87q1.38-2.09,2.75-4.18l1.28,1.17a24.55,24.55,0,0,0-.78,2.66c-.07.37.24.81.37,1.22l.09-.1c-.44-.34-.85-.67-1.38-.1a4.94,4.94,0,0,1-1,.62Z"/><path d="M217.1,103.48c.45-1.94,2-2.82,3.56-3.7l.94,1.23c-.86,1.57-2.44,2.33-3.74,3.41C217.6,104.11,217.35,103.8,217.1,103.48Z"/><path d="M255.29,61.06a12.33,12.33,0,0,1,2.83-4.18l1.37,1.28c-.18.77-.37,1.55-.56,2.32l.08-.08a4.89,4.89,0,0,0-1.18.34,17.45,17.45,0,0,0-1.54,1.18C255.94,61.65,255.61,61.36,255.29,61.06Z"/><path d="M241.8,81a9.5,9.5,0,0,1-3.45,3.36l-1.12-1.08a7.59,7.59,0,0,1,3.44-3.53C241,80.16,241.42,80.57,241.8,81Z"/><path d="M208.68,111.84c-.74-.93.07-1.42.56-2l1.27,1a1.56,1.56,0,0,1-1.64,1.14Z"/><path d="M222.93,99.58A1.58,1.58,0,0,1,221.6,101l-.94-1.23,1.47-1.09C222.4,99,222.66,99.28,222.93,99.58Z"/><path class="cls-1" d="M127.88,193.17c.59-.24,1.44-.78,1.64.17a45.91,45.91,0,0,1,.93,15.76,43.21,43.21,0,0,0,0,6.92c.33,4.16.45,8.34.42,12.51a27.62,27.62,0,0,1-1.28,8.91,22.41,22.41,0,0,0-1,8.92,14,14,0,0,1-.16,4.15c-1.48,6.43-.69,12.9-.44,19.36a46.33,46.33,0,0,1,.21,4.84c-.33,4.86.28,9.68.41,14.52.17,6.25,1.2,12.44.89,18.71a45.17,45.17,0,0,0,.62,8.27,36.74,36.74,0,0,1,0,8.32,14.43,14.43,0,0,0,0,4.82c.59,2.33,0,3.74-1.76,5.44-3.32,3.29-7.41,4.54-11.71,5.37-1.57.3-3.22.19-4.79.71a11.88,11.88,0,0,1-2.72.51c-3.69.33-7.39.6-11.08.92-2.14.18-4.48.12-5.57-1.85-1.2-2.17-.37-4.51,1-6.52a1,1,0,0,1,.58-.38,2.81,2.81,0,0,1,1.32,0c5.16,2.08,10.54,1,15.84,1.18,3.51-1.05,7.31-1.18,10.53-3.19.53-.33.5-.77.06-1-.18-.12-.42-.37-.55-.33-2,.67-3.92,1.37-5.87,2.06a9.87,9.87,0,0,1-2.64.84c-5.33.16-10.67.27-15.84-1.42a3,3,0,0,1-2.1-3.2c.59-3.42,1.29-6.82,2-10.22.84-4.32,1.7-8.63,2.54-12.95a96.54,96.54,0,0,1,2.16-9.46,204.35,204.35,0,0,0,5.61-26.48,10.44,10.44,0,0,0,.12-2.09c-.22-5.16.87-10.14,2-15.12a35.89,35.89,0,0,0,.8-5.47c.55-6.92.57-13.87,1.19-20.81a109.67,109.67,0,0,0-.16-15.27,81.2,81.2,0,0,1,.56-11.78c.11-1.33.88-1.87,2.34-1.88,2.31,0,4.62-.09,6.94-.14a8.51,8.51,0,0,0,2.59-.51C125,195.35,126.43,194.21,127.88,193.17ZM123.1,329.39c.23,0,.53,0,.66-.15a1.63,1.63,0,0,0,.53-1.78.73.73,0,0,0-.46-.36c-.6-.13-1.25.47-1.27,1.3C122.55,328.73,122.91,329.06,123.1,329.39Z"/><path class="cls-1" d="M59.84,189.91c.42-.07,1,0,1.23-.23q2.2-2,4.27-4.17c.22-.24.11-.8.15-1.21l-.07.1c2,.24,3.27-.78,4.34-2.24.1-.14,0-.43,0-.65l-.16,0c.66,0,1.46.31,2,0,2.85-1.54,5.63-3.23,8.44-4.84a50.84,50.84,0,0,1,20.34-6.54c6.48-.67,6.59.7,7.71,6.17a8,8,0,0,1-.12,2.76c-.24,1.68-.87,3.12-2.74,3.61a3,3,0,0,0-2.12,1.61l.06-.1a4.37,4.37,0,0,0-2.66,1.34,1.22,1.22,0,0,0-.21,1.58l.12-.12c-.22-.07-.5-.27-.65-.19-1.8.95-3.58,1.95-5.37,2.94-2.44,3.33-6.38,5.31-8.22,9.17-.07.15.13.43.2.65l0-.05c-.42-.06-1.07-.32-1.22-.15-3,3.53-7.31,5.67-10.15,9.4a6.73,6.73,0,0,1-2.12,1.77c-3.93,2.16-6.63,5.76-10,8.56a13.08,13.08,0,0,0-3.72,5.79C57,230.57,54.3,236,53.37,242c-2.46,6.8-3.45,13.91-4.52,21,0,.23-.11.45-.17.67l-4.32,0c-1.48-5.41-1.13-10.95-.89-16.44a149,149,0,0,0-1-26.12,12.81,12.81,0,0,1-.17-1.37,64.84,64.84,0,0,1-.13-8.24c.26-2.59,2.47-4.32,3.74-6.48.2-.33,0-.87.06-1.31l-.06.14c1.82.05,1.82.05,1.51-1.49l-.09.1c1.67.41,1.68.4,1.49-1.47l-.08.07c.21.06.52.25.62.17,2-1.66,4.11-3.21,5-5.81l-.06.09a3,3,0,0,0,1.87-1.48c.52-.75-.07-1-.44-1.46l-.12.11c.43.38.73,1,1.5.45a2.72,2.72,0,0,0,1.45-1.9l-.13.1A1.29,1.29,0,0,0,60,189.85Z"/><path class="cls-1" d="M10.48,105.45a55.27,55.27,0,0,1,14.89,7.15,14.51,14.51,0,0,0,2.31,1.54,68.37,68.37,0,0,1,13,7.87,4.51,4.51,0,0,0,1.84.95c2.39.37,4.23,1.78,6.19,3a22,22,0,0,0,3.71,1.9,23.71,23.71,0,0,1,9,6.32c6.91,7.53,8.33,5.26-.55,12.3-3.44,2.72-7,5.3-10.52,7.94a1.25,1.25,0,0,1-1.8-.31,12.89,12.89,0,0,0-2.36-2.48q-6.75-5.44-13.38-11.05a34.64,34.64,0,0,1-3.3-3.54c-1.53-1.73-2.91-3.6-4.56-5.21a20.13,20.13,0,0,1-5-7.39,19.38,19.38,0,0,0-2.34-4.22c-2.78-4-5.67-7.89-8.49-11.85a5.18,5.18,0,0,1-.46-1.29Z"/><path class="cls-1" d="M127.88,193.17c-1.45,1-2.85,2.18-4.39,3.08a8.51,8.51,0,0,1-2.59.51c-.26-.35-.47-.94-.79-1-1.56-.34-3.16-.55-4.75-.78-3.29-.46-4.61-2.68-5.07-5.66a1,1,0,0,1,.14-.67,4.5,4.5,0,0,1,.86-1,.83.83,0,0,1,.66,0c4.39,1.59,8.61.56,12.79-.86.27-.09.34-.75.5-1.15.62,0,1.24,0,1.85-.11.17,0,.46-.22.45-.33,0-.58-.36-.84-.79-.57a13.69,13.69,0,0,0-1.42,1.12c-2.3.09-4.59.23-6.88.25a23.55,23.55,0,0,1-4.11-.3A4.28,4.28,0,0,1,110.4,181c0-2.52.21-5,.31-7.56a5.06,5.06,0,0,0-1.54-4.37,4,4,0,0,1-1.6-2.95c0-3.92-1-7.71-1.31-11.59a2.54,2.54,0,0,1,.07-.61c.36.23.84.36,1.08.68,1.12,1.44,2.17,2.93,3.24,4.4l1.5,1.53a2.36,2.36,0,0,0,.85.84c.76.79,1.47,1.62,2.28,2.36a1.18,1.18,0,0,0,1.7-.21,1.4,1.4,0,0,0-.17-1.78c-.66-.56-1.41-1-2.12-1.52l-1.33-1.46L112,157.3c-.8-1.58-1.58-3.17-2.42-4.74-.52-1-1.09-1.86-.65-3.06.29-.78.25-.8,2.7.85l.56.37a4.5,4.5,0,0,0,1.11.57c.78.14,1.18-.48.79-1.24a4.46,4.46,0,0,0-.85-1c-1-1.34-2.06-2.69-3.15-4-.54-.65-1-.24-1.48.23l0,0c.29-.33.88-.75.82-1-.4-1.3-1-2.54-1.43-3.83a11,11,0,0,1-.81-3.27,25.09,25.09,0,0,1,2.23-9.82c.06-.13.42-.18.64-.18a.71.71,0,0,1,.55.21c.45.77.86,1.56,1.27,2.35,1.46,2.84,2.88,5.69,4.38,8.5a2.3,2.3,0,0,0,2.09,1.47l0,0c0,.45-.15,1,0,1.34.83,1.63,1.76,3.21,2.62,4.83,1,1.79,2.94,2.84,3.5,4.91-.72,1.69-1.51,3.34-2.11,5.07a5,5,0,0,0,.2,2l0,0L120,157.7a2.05,2.05,0,0,0-.09-.67,15.9,15.9,0,0,0-4.41-4.93,1.14,1.14,0,0,0-1.1.17,1.41,1.41,0,0,0-.25,1.19,9,9,0,0,0,4.71,5.41,1.88,1.88,0,0,1,.94,2.25c-.62,2.13-2,4.1-1.56,6.46a2.08,2.08,0,0,0,.69,1,.69.69,0,0,0,.65,0q3.86-2.67,7.66-5.44a6.3,6.3,0,0,0-.49-1h0c.43.42.7,1.05,1.55.56s1.48-.91,1.27-2l-.08.08c1.35,1.12,2.6-.27,3.92-.16.67.05,1.36.67,1.25,1.29a9.75,9.75,0,0,1-.25,1.33c-1.11,3.47-1.22,7.27-3.31,10.44-.07.11.42.73.75.93,1.5.94,1.74,1.31,1.46,2.53-.11.48-.51.6-.95.16s-.92-.62-1.14-.09c-.61,1.44,0,3.21-1.25,4.53a1.34,1.34,0,0,0-.19,1.19c1.54,2.83.53,5.3-.93,7.77A15,15,0,0,0,127.88,193.17Z"/><path class="cls-1" d="M103,184.35c1.43,1,3.54-.73,4.5.74.82,1.26.76,3.08,1.07,4.65.36,1.82.76,3.63,1,5.46.32,2,0,2.8-2.16,3.71a8.35,8.35,0,0,0-4.12,3.55c-2.34,4-4.33,8.15-4.94,12.85A16.16,16.16,0,0,1,97.18,220a33,33,0,0,0-2.87,12.78c-.09,2.53-.17,5-.21,7.57s-.2,5.07-.42,7.59c-.62,7.38-.72,14.8-1.75,22.15a82.23,82.23,0,0,0-.75,14.54,11.22,11.22,0,0,1-1,5.4c-.07.14-.23.23-.35.34a1.92,1.92,0,0,1-.34-.6c-.11-.91-.19-1.82-.26-2.74-.28-4.15-.54-8.31-.84-12.47a33.84,33.84,0,0,1-.34-3.45c.1-2.53.62-5.08.46-7.58-.15-2.3-.73-4.58-.33-6.9a31.13,31.13,0,0,0-.2-10.37,38.36,38.36,0,0,1-.55-6.23,63.52,63.52,0,0,0-2.89-19.13,12.43,12.43,0,0,1,.38-9.45c.9-1.87,1.6-3.83,2.41-5.75.47-1.12.68-2-.64-2.88-1-.7.12-2.16-.39-3.21l0,.05a3.58,3.58,0,0,0,.63.21c1.49.22,1.51.21,1.71,1.22.17.86.68,1.29,1.09.95,1.2-1,2.29-2.06,2.29-3.78l-.1.1c.42-.08,1,0,1.24-.25,1.18-1,2.28-2.1,3.4-3.17s2.21-1.69,2.8-2.81.43-2.49.63-3.76a12.18,12.18,0,0,1,.35-1.28l-.12.12a4.19,4.19,0,0,0,2.86-1.73c.2-.23,0-.78,0-1.19Z"/><path class="cls-1" d="M167.05,163.47c.76.86,1.64.47,2.51.25a1.89,1.89,0,0,1,2.36.95c1.56,4.38,4.05,8.29,6.06,12.43a14.46,14.46,0,0,1,1.62,5.25c.2,2.31.63,4.59,1,6.88a31,31,0,0,1-.26,9c-.95,6.4-1.89,12.8-2.51,19.26a58.77,58.77,0,0,1-2,9.47c-1.47,5.59-2.92,11.18-3.24,17A28.49,28.49,0,0,1,171,250c-.49,1.78-.92,3.57-1.41,5.35,0,.19-.32.32-.49.48-.2-.24-.58-.49-.57-.72a37,37,0,0,1,1.25-8.92,39.13,39.13,0,0,0,1.25-9.6,123.25,123.25,0,0,1,1.23-15.22,38.55,38.55,0,0,0-.67-15.85c-1.28-4.93-2.26-9.93-3.31-14.92a15.73,15.73,0,0,0-3.75-8,15.5,15.5,0,0,1-2.67-4,11.57,11.57,0,0,0-3-3.74c-2.52-2.22-2.55-2.67-.11-4.4,1.5-1.06,3.09-2,4.61-3a5.8,5.8,0,0,0-.44-1.06l0,0c.29.29.75.87.83.82a39.06,39.06,0,0,0,3.63-2.51c.12-.09-.17-.73-.27-1.12Z"/><path class="cls-1" d="M70,138.41a11,11,0,0,1-2.35-1.19,51.75,51.75,0,0,1-4.07-3.77,41.52,41.52,0,0,0-10.16-7.12c-1.82-1-3.63-2-5.45-3a13.54,13.54,0,0,0-3.07-1.53,13,13,0,0,1-5.37-3.06,33.28,33.28,0,0,0-8.24-5.06,11.3,11.3,0,0,1-2.51-1.17c-4.95-3.93-10.91-6-16.39-8.9-.41-.21-.87-.33-1.28-.53s-1.08-1.48-.76-1.68.92-.57,1.25-.46c3.22,1.13,6.8,1.2,9.73,3.26A13.68,13.68,0,0,0,25.08,106c7.24,2.32,14.3,5.12,21.42,7.74a9.27,9.27,0,0,0,1.3.48,61.72,61.72,0,0,1,15.55,5.52c3.27.44,5.95,2.32,8.91,3.55a53.64,53.64,0,0,0,11.84,3.81,20.25,20.25,0,0,1,5.84,2.13c.56.28.89,1,1.33,1.52-.48.4-.9,1-1.45,1.17a24.22,24.22,0,0,1-3.4.62,26.1,26.1,0,0,0-9.15,3.09,37.31,37.31,0,0,1-4.37,2.1A17.9,17.9,0,0,1,70,138.41Z"/><path class="cls-1" d="M118.31,103.66c.4-.14,1-.15,1.17-.42,1-1.54,1.86-3.16,2.85-4.7a1.47,1.47,0,0,1,1.17-.61c.35,0,.67.54,1,.88a1.32,1.32,0,0,1,.31.61c1.61,7.28,5.24,13.7,8.56,20.26a5.22,5.22,0,0,0,2.3,2.43,1.48,1.48,0,0,1,.7,1.77c-.41,1.55-1,3.06-1.48,4.58-1.81,1.12-2.46,3.21-3.86,4.68-.39.41-.22,1.3-.45,1.92q-2,5.46-4,10.9c-.4,1.06-1.4,1.23-2,.38-1.15-1.69-2.23-3.44-3.4-5.12a12.69,12.69,0,0,0-1.81-2c-.1-.08-.67.35-1,.55l0,0c.29-.31.89-.76.82-.89-1.11-2.26-2.31-4.47-3.48-6.7a37.48,37.48,0,0,1-3.36-8.94,8.39,8.39,0,0,1,.28-5.27,11.34,11.34,0,0,0,.21-3.37l-.11.14a8.67,8.67,0,0,0,1.25-.4c.58-.29,1.13-.89,1.64.09.32.62.71,1.2,1,1.83A88.09,88.09,0,0,0,126.56,133a9.55,9.55,0,0,0,.94,1c.36.38,1.71.29,1.87-.19s.28-.93.11-1.23a16.93,16.93,0,0,0-1.94-2.86c-3.58-4.05-5.78-8.94-8.26-13.64a28.46,28.46,0,0,1-1.91-5.21,5,5,0,0,1,.43-4,3.67,3.67,0,0,0,.61-3.27Z"/><path class="cls-1" d="M90.45,88.23c.19.4.27,1,.58,1.16a12.06,12.06,0,0,0,3.58,1.91c2,.44,2.41,1.63,2.57,3.4a37.56,37.56,0,0,0,1.06,6,6,6,0,0,1-1,5.8c-.18.21.13.82.22,1.24l.05,0c-1.28-.2-1.28-.2-1.47,1.46l.1-.1-3.58-1a3.83,3.83,0,0,0-1.22-.44c-.36,0-.72.35-1,.59a.79.79,0,0,0,.21.53,11,11,0,0,0,1.07.71l3.11,2.5.06-.13-4.25,0,.1.1a3.25,3.25,0,0,0-4.3-1.43l.1.06c.13-1-.48-1.46-1.28-1.89s-1.13.07-1.59.45l.08,0c.1-.37.39-.92.25-1.07-.76-.82-1.63-1.54-2.46-2.3l1-1,2.29.54a2.57,2.57,0,0,0,.45.53c.72.5,1.42,1.16,2.41.53.62-.39.3-1-1.09-2a4.54,4.54,0,0,0-.62-.32c-1.18-.73-2-2-3.66-2l.1.07c.22-.37.36-1,.67-1.06a11.89,11.89,0,0,1,2-.27,8.07,8.07,0,0,0,1.25-.44c-.15-.37-.19-.9-.46-1.06-1.77-1.06-3.63-2-5.4-3.07a29.82,29.82,0,0,1-2.69-2.09l1-1.23c3,1.55,5.88,3.15,8.87,4.65a39.67,39.67,0,0,0,3.72,1.43l2.9,1.41c.67.3,1.36.34,1.62-.45.1-.27-.36-.73-.56-1.11-.66-1.2-1.8-1.26-3-1.27.52-1,1.59-.66,2.34-1.06a2.44,2.44,0,0,0,.79-1c0-.09-.15-.38-.29-.53a4,4,0,0,0-1-.9c-2.42-1.18-4.84-2.37-7.32-3.43-.49-.21-1.23.14-1.86.24l.09.1c.19-1.39.19-1.39-1.48-1.5l.12.1c-1-2-1.25-2.07-2.9-1.46l.08.08c.38-1.68.37-1.69-1.47-1.48l.08.07c.22-1.44.22-1.44-1.46-1.47l.07.05a8.54,8.54,0,0,0-1-1.66c-.92-1-2-1.86-2.91-2.83A1.15,1.15,0,0,1,75,79.1c.72,0,1.23.1,1.62-.55l0,0c-.46,1.45-.45,1.47.81,1.55A2.32,2.32,0,0,0,78,80L78,79.9c.06,1.27.06,1.27,1.46,1.47l-.07-.07c-.15,1.13.44,1.52,1.47,1.48l-.1-.07a2.17,2.17,0,0,0,2.91,1.44l-.12-.08c.92,2.36,2.8,3.2,5.16,3.25.18,0,.35-.26.53-.4l-.1-.08c-.28,1.23-.29,1.24.88,1.48a3.82,3.82,0,0,0,.59,0Zm2.62,14.84c-.06-.15-.08-.39-.18-.44a14.79,14.79,0,0,0-1.77-.7c-.07,0-.27.31-.39.5s-.3.43-.25.49c.4.52.88,1,1.61.85C92.45,103.68,92.75,103.31,93.07,103.07ZM88.24,102l.9-.5c-.16-.15-.35-.46-.46-.43a4.12,4.12,0,0,0-.93.43Z"/><path class="cls-1" d="M132.22,195.77c.16-3,.29-5.94.5-8.91a2,2,0,0,1,2.61-1.49c2.85,1.47,5.69,3,8.49,4.52,1.2.66,2.45,1.38,1.12,3.13a2.34,2.34,0,0,0,.14,1.95,12.22,12.22,0,0,1,.94,4.68,10.65,10.65,0,0,1-2.83,8.22,3.89,3.89,0,0,1-3.69,1.33,8.25,8.25,0,0,1-4.39-1.85,5.73,5.73,0,0,1-2.41-4.7c.08-2.29-.09-4.58-.14-6.87Z"/><path class="cls-1" d="M118.69,99.7l-.38,4,.1-.13c-.22.07-.52.07-.64.22-2.78,3.18-4.83,6.69-5,11l.11-.14c-2.35,2-3.45,4.74-4.45,7.5-.63,1.71-.94,3.54-1.4,5.31-.17.67-.34,1.33-.54,2a2.28,2.28,0,0,1-2.13,1.4c-2.49-.32-5-.63-7.47-1a4.21,4.21,0,0,1-1.15-.56,6.1,6.1,0,0,1,1-.34,8.41,8.41,0,0,0,1.35-.1,1.87,1.87,0,0,0,1-.75,3.48,3.48,0,0,0-.1-3.23c-.44-.86-1.61-1-2.9-.44l.06.06c.14-.18.42-.38.4-.55-.12-1.08-.11-1.06.69-2.45a1.24,1.24,0,0,0,0-1.16,4.59,4.59,0,0,0-1.76-1c-5.16-1.51-9.47-4.69-14.11-7.21-.68-.38-1-1.48-1.45-2.24l1.16-.94,2.57.31-.08,0c.73,1.83.73,1.83,2.87,1.44l-.1-.06c.09,1.78,1.66,1.54,2.72,2,.76.35,1.12-.22,1.58-.59l-.1-.1c-.09.21-.21.4-.28.62-.25.85.44,1.29,1,1.46,2.78.92,5.36,2.54,8.44,2.5a1.86,1.86,0,0,1,1.86,1.67c.48,2.22.87,4.47,1.39,6.69a8.39,8.39,0,0,0,.91,1.79c.51.47,1.1.94,1.73.42s.31-1.2-.06-1.79c-.51-1.85.13-3.55.67-5.27a2.58,2.58,0,0,0-.16-2.55l-.1.12c.42-.08,1,0,1.21-.27a12.68,12.68,0,0,0,2-3.58c1.33-5,4.16-9.2,7.18-13.29l1.24-1.67Z"/><path class="cls-1" d="M88.14,150.92c-.18-4.24-.35-8.48-.54-12.73,0-.19-.26-.38-.39-.56-.28.24-.68.44-.82.75a4.3,4.3,0,0,0-.24,1.35c-.49,4.83-.92,9.66-1.48,14.47-.32,2.75-.84,5.49-1.34,8.22-.07.38-.53.68-.81,1-.08-.21-.25-.41-.24-.61a51.74,51.74,0,0,1,.42-7.59,72.17,72.17,0,0,0,1.09-13.12c0-1.38.09-2.77.18-4.16a3.66,3.66,0,0,1,2.51-3,4.18,4.18,0,0,1,1.34-.33,19.05,19.05,0,0,0,7.4-1.24,1.54,1.54,0,0,1,1.89,1.44c0,.92,0,1.84-.14,2.76-.38,4.13-1.45,8.2-1.1,12.39-1.3,3.06-.86,6.39-1.5,9.54a18.72,18.72,0,0,0-.13,8.26c.13.56-.65,1.18-1.38,1.16s-1.44-.18-1.62-.95a6.79,6.79,0,0,1-.29-2.7c.53-2.95,1.25-5.87,1.85-8.8.27-1.36.45-2.74.65-4.11.31-2,.68-4.1.87-6.16.27-3,.43-6,.6-9,0-.88-.67-1.54-1.74-1.7l-.7-.07c-1.14-.1-2,.32-2.1,1.12a108.75,108.75,0,0,0-1.61,11.65c0,.91-.21,1.8-.31,2.7Z"/><path class="cls-1" d="M44.57,170.4c1.41,6.93,1.81,14,3.35,20.93.24,1.09,0,2.29.18,3.39s1,2,1.06,3-.73,2.16-.4,3.34l.08-.07c-1.3.05-1.3.05-1.49,1.47l.09-.1c-1,0-1.47.53-1.51,1.49l.06-.14c-.46,0-.93,0-1.38.11s-1,0-1.11-.48a25,25,0,0,1-1.14-4c-.83-6.41-1.55-12.84-2.26-19.26,0-.26.48-.59.78-.84,0,0,.4.17.42.3.45,2.5.8,5,1.33,7.5a55.35,55.35,0,0,1,.62,7.59,6.68,6.68,0,0,0,1,2.49c.13.23.71.25,1.09.26.12,0,.31-.35.35-.56a4,4,0,0,0,.12-1.37q-1.56-10.6-3.17-21.22A3.74,3.74,0,0,1,44,170.66c.15-.14.44-.11.67-.15Z"/><path class="cls-1" d="M135.1,144c-.3-.31-.59-.87-.89-.88a14.94,14.94,0,0,0-2,.39,1.35,1.35,0,0,1-1.28-1.26,17.05,17.05,0,0,1,1.94-5.88,2.87,2.87,0,0,1,2.71-1.83c3.32,0,6.34-1.15,9.42-2.12,1.32-.41,2.67-.69,4-1,.18,0,.42.14.63.22.46.19.57.57.31,1.11s-.65,1.22-.92,1.86a5.53,5.53,0,0,1-4,3.51,49.64,49.64,0,0,0-5.95,1.91,11.38,11.38,0,0,0-4.2,2.36c-.68.7-.25,1.13.17,1.64Z"/><path class="cls-1" d="M96.21,163.17a25.92,25.92,0,0,1,.32-4.46c.88-3.4.92-6.86,1.24-10.32.45-4.81,1.25-9.6,1.91-14.4.06-.4,1.44-.92,1.74-.62s.77.79.69,1.08a28,28,0,0,0-.52,7.59c.13,3.48-.68,6.89-1,10.33-.39,4.38-.55,8.77-.88,13.15a3.76,3.76,0,0,1-.81,1.81,1.46,1.46,0,0,1-1.2.35c-.37-.06-.92-.42-1-.72C96.47,165.61,96.35,164.24,96.21,163.17Z"/><path class="cls-1" d="M136,129.46a11,11,0,0,0,1.5-2.29c1.17-3.35,3.55-4.1,6.89-4.13,2.68,0,5.35-1.08,8-1.71.88-.21,1.73-.53,2.61-.77s1.1.28,1.41,1.74a8.69,8.69,0,0,0-2.29,3.31,2.7,2.7,0,0,1-1.41,1.36c-5,1.41-9.83,3.36-14.95,4.35-.22,0-.45,0-.67,0C136.35,131.42,136.12,131,136,129.46Z"/><path class="cls-1" d="M54.4,195.46c-.42-.09-.9-.37-1.23-.25a25.89,25.89,0,0,0-2.68,1.35,22.41,22.41,0,0,1-.1-3.68c.22-1.56,1-3.08,1-4.63s-.73-3.14-.89-4.73c-.43-4.33-.14-8.66.1-14.08.36,1.72.55,2.36.62,3,.25,2.51.09,5.05,1.16,7.48.44,1,.21,2.27.35,3.41a24.64,24.64,0,0,0,.49,2.7,1.92,1.92,0,0,0,2.77,1,6.11,6.11,0,0,0,1.43-1.44c.77-1.21,1.9-1,3-1a1.2,1.2,0,0,1,.93,1.48c-.4,1.31-1.66,2.26-1.54,3.78l.14-.06c-1,0-1.62.4-1.51,1.52l.13-.1a2.31,2.31,0,0,0-3,1.45l.12-.11a14.47,14.47,0,0,0-1.54,1.25,1.1,1.1,0,0,0,.11,1.69Z"/><path class="cls-1" d="M62.64,149.49a17.31,17.31,0,0,0,.25,3.39,44.84,44.84,0,0,1,1,12.28c-.06,3.9.18,7.8.3,11.69,0,.85,1.09,1.94,1.81,1.65a7.85,7.85,0,0,1,4-.17,1,1,0,0,1,.61,1.5c-.33.59-.73,1.14-1.1,1.71l.16,0a4.66,4.66,0,0,0-4.3,2.89l.07-.1c-1-.37-1.94-.56-2.22-2.1-1.68-9.15-1.4-18.44-2.05-27.65a11.6,11.6,0,0,1,.28-3.43c.14-.57.82-1,1.25-1.51Z"/><path class="cls-1" d="M183.23,163.58a36.2,36.2,0,0,1-1.6-8.1c-.51-8.53-1.1-17-1.59-25.57-.1-1.81-.48-3.7.4-5.44a2.24,2.24,0,0,1,1-.72c.47-.22.86,0,1,.59a11.66,11.66,0,0,1,.27,2c0,.93-.06,1.85-.1,2.77a14.71,14.71,0,0,0,.61,5.47,4,4,0,0,1,.12,2.67c-1.2,2.65-1,5.44-1.14,8.18-.18,3-.17,6-.32,9a7.74,7.74,0,0,0,1.24,5.2C183.66,160.38,183.23,161.77,183.23,163.58Z"/><path class="cls-1" d="M73.63,174.77a2.78,2.78,0,0,1-1.11-2.39c0-4.15-.11-8.31.18-12.45.39-5.76.24-11.52.14-17.28a7.65,7.65,0,0,1,.39-2c.23-.9-.29.12.58-.2a1,1,0,0,1,.68,0,.87.87,0,0,1,.28.59c.53,6,.89,11.91-.58,17.82a12.25,12.25,0,0,0-.3,3.42c.16,3.91.4,7.82.61,11.72Q74.05,174.37,73.63,174.77Z"/><path class="cls-1" d="M136.49,149.5a2.94,2.94,0,0,0-2.54.71c-1.65,1.25-3.22,2.65-5.34,3.07a2.73,2.73,0,0,1-1.27-.2.72.72,0,0,1-.42-.5c0-1.69.91-3.07,1.6-4.5a3.19,3.19,0,0,1,1.61-1.16c1.46-.64,3-1.14,4.44-1.81.3-.14.36-.76.53-1.16l0,0c1.5.54,2.64-.4,3.9-.91a4.54,4.54,0,0,1,3.33-.43c.19.07.45.21.5.37a.77.77,0,0,1-.12.66,5.08,5.08,0,0,1-1.45,1.37,10.52,10.52,0,0,0-4,2.72,7.14,7.14,0,0,0-.8,1.77Z"/><path class="cls-1" d="M195.32,179.49c.22,6.25-.91,12.36-2.06,18.46-.1.51-.48.65-1,.37a1,1,0,0,1-.49-.43c-.2-.64-.65-1.41-.45-1.92,1.15-2.87.77-5.9,1.08-8.85.56-5.48,1.11-11,1.69-16.43,0-.19.28-.36.43-.53.13.15.33.27.37.44a8.69,8.69,0,0,1,.44,2C195.35,174.88,195.32,177.18,195.32,179.49Z"/><path class="cls-1" d="M201,178.81c2.28,8.58,2.13,15.93,2.54,23.22a4.18,4.18,0,0,1-.47,2,1.25,1.25,0,0,1-1.06.54c-.37-.05-.94-.43-1-.73a6.24,6.24,0,0,1-.07-2.68,31.16,31.16,0,0,0,1.16-7.47,4.24,4.24,0,0,0-.34-1.25c-.19-.63-.54-.44-1.41,1.06-.24.42-.36.83-.93.8-.09,0-.22-.29-.23-.45a12.71,12.71,0,0,1,0-1.38,10.69,10.69,0,0,1,.21-2.73C200.42,186.64,200.59,183.42,201,178.81Z"/><path class="cls-1" d="M135.22,153.87c-.77,2.55-2.8,3.94-4.88,5.28-.59.38-1,.8-.87,1.57l.08-.08c-2.09-.39-2.18-.35-2.82,1.42h0c-1.18-.66-2.08.3-3.09.56-.63.16-.93.05-.84-.59.16-1.08.44-2.15.52-3.24,0-.28-.5-.6-.77-.91l0,0c.2.1.48.35.6.3a43.83,43.83,0,0,1,8.13-2.94,28.35,28.35,0,0,0,3.76-1.55Z"/><path class="cls-1" d="M156,178.7a3.52,3.52,0,0,1,.2-1.32c.17-.28.91-.59,1-.49a12.53,12.53,0,0,1,3.22,5.18,9.7,9.7,0,0,1-.09,6.1c-1.22,3.47-1.5,7.12-2.53,10.6,0,.12-.41.18-.64.2s-.42-.08-.45-.18a12,12,0,0,1,0-6.1c.93-4.05.67-8.2.94-12.31.06-1-.81-1.55-1.78-1.77Z"/><path class="cls-1" d="M44.36,263.71l4.32,0q-.1,6.84-.23,13.68c0,.11-.21.3-.35.32a1.07,1.07,0,0,1-.66-.12,1.11,1.11,0,0,1-.37-.56C45.66,272.66,44.18,268.36,44.36,263.71Z"/><path class="cls-1" d="M76.87,152.49a67.82,67.82,0,0,1,1.46-14.29c.06-.28.65-.44,1-.65.21.33.67.78.58,1-1.61,3.83-.39,8.21-2.3,12-.27.53,0,1.35.06,2,0,2.05,0,4.11,0,6.16,0,.21-.21.41-.32.61-.16-.23-.47-.45-.47-.67C76.86,156.6,76.87,154.54,76.87,152.49Z"/><path class="cls-1" d="M59.41,173.83c-.14-.18-.39-.35-.41-.54-.63-5.44-1.26-10.88-1.8-16.33a17.51,17.51,0,0,1,.25-3.37c0-.13.19-.23.29-.35.16.17.4.31.46.5a6.6,6.6,0,0,1,.5,1.95C58.73,161.75,60.6,167.73,59.41,173.83Z"/><path class="cls-1" d="M87.5,156.39a65,65,0,0,0,.36,13.08c.11.77-.55,1.13-1.21,1.39s-.94.15-1.14-.36a5.26,5.26,0,0,1-.65-1.89,27.23,27.23,0,0,1,.43-4.78c.26-1.32.91-2.56,1.28-3.87C86.88,158.9,86.4,157.67,87.5,156.39Z"/><path class="cls-1" d="M53.9,172.88c-.62-2.57-1.1-4.56-1.59-6.56a20.14,20.14,0,0,1-.58-8.21c.11-.66.37-.85.84-.56.19.11.49.2.53.36a14.15,14.15,0,0,1,.76,3.34C54,164.93,53.9,168.61,53.9,172.88Z"/><path class="cls-1" d="M195.18,251.1c.23-1.82.43-3.86.76-5.87a1.4,1.4,0,0,1,1.43-1.15,1.42,1.42,0,0,1,1.33,1.22,36,36,0,0,1-1.76,10c-.09.26-.74.36-1.14.47-.08,0-.35-.25-.36-.4C195.34,254.05,195.27,252.69,195.18,251.1Z"/><path class="cls-1" d="M166.93,215.12c.41-.51,1.07-1,1.19-1.54a6.08,6.08,0,0,0-.36-4.06c-1.41-2.81-.86-5.65,0-9.15a58,58,0,0,1,2.3,18.38c0,.59-.25,1-.77.89a1.37,1.37,0,0,1-.9-.68c-.49-1.29-.88-2.62-1.31-3.93Z"/><path class="cls-1" d="M164.2,188.63a4.58,4.58,0,0,1,1.4,5c-.53,2.3-.21,4.57-.37,6.84a15.9,15.9,0,0,0,.36,3.42c.25,1.52-.54,2.63-1.4,3.72a2.32,2.32,0,0,1-.55.41c-.21-.35-.61-.71-.59-1.05a19.39,19.39,0,0,1,.42-3.4,29.12,29.12,0,0,0,.86-10.23,38.43,38.43,0,0,1,0-4.8Z"/><path class="cls-1" d="M70.23,163.48c-.16-.27-.38-.46-.38-.67q-.28-9.28-.52-18.59a3.65,3.65,0,0,1,.35-1.3,1.13,1.13,0,0,1,.43-.49c.33.19.87.44.87.68.06,5.75.09,11.5,0,17.25A4.86,4.86,0,0,1,70.23,163.48Z"/><path class="cls-1" d="M44.68,170.51c-.21-1.86-.24-3.64,1.51-4.91.49-.35.87-.39,1.12.08a4.73,4.73,0,0,1,.79,1.81c.08,2.94,0,5.88,0,8.43a40.5,40.5,0,0,0-.87-4,2.34,2.34,0,0,0-2.7-1.54Z"/><path class="cls-1" d="M62.75,149.61c0-1.57,1-2.39,2.28-3.09.63-.34,1.53-.11,1.6.48a44.18,44.18,0,0,1,0,10.9c-1.41-1.06-.75-2.57-1-3.83a8.78,8.78,0,0,0-1.23-3.83,1.92,1.92,0,0,0-1.75-.75Z"/><path class="cls-1" d="M102,162.58l.51-1.39c.26.37.5.76.79,1.1a1.34,1.34,0,0,0,.59.31c.64.18,1.4.24,1.56,1a4.14,4.14,0,0,1-.3,3.27,1.41,1.41,0,0,1-1.14.47,1.29,1.29,0,0,1-1-.69C102.65,165.37,102.37,164.05,102,162.58Z"/><path class="cls-1" d="M31.56,200.68c.6,2.45,1.2,4.84,1.75,7.23a4.23,4.23,0,0,1-.06,1.37,2.94,2.94,0,0,1-.21.61c-.2-.11-.5-.16-.6-.32a9.64,9.64,0,0,0-2.08-2.65,2.3,2.3,0,0,1-.62-1.82C30,203.55,30.12,201.91,31.56,200.68Z"/><path class="cls-1" d="M190.44,138.91c-.69-1.86-.68-3.11-2.12-3.94-1.62-.93-1.57-1.64-.71-3.41.17-.34.64-.54,1-.74.09,0,.41.12.47.25a12.87,12.87,0,0,1,1.29,3.06A32.88,32.88,0,0,1,190.44,138.91Z"/><path class="cls-1" d="M198,169.05c1.6,1.18,1.54,2.93,2.19,4.34.73,1.57-.16,2.62-1.3,3.53a1,1,0,0,1-.64.23c-.11,0-.26-.3-.29-.47A40.57,40.57,0,0,1,198,169.05Z"/><path class="cls-1" d="M195,155a12.38,12.38,0,0,0-1.36.06c-.8.12-1.42-.31-1.44-1-.08-2.25,0-4.52.06-6.78,0-.15.2-.42.27-.41.22,0,.55.13.6.28a23.69,23.69,0,0,1,1.78,7.92Z"/><path class="cls-1" d="M80.35,174c-.18-.1-.45-.15-.51-.29-.67-1.63-1.8-3.15-1.38-5.08.13-.6.43-.79.9-.58a5.17,5.17,0,0,1,2.53,2.15,2.63,2.63,0,0,1-.93,3.51A2.86,2.86,0,0,1,80.35,174Z"/><path class="cls-1" d="M161.7,197.72c-.14,1.22-.33,3-.59,4.78,0,.26-.37.48-.57.72a2.26,2.26,0,0,1-.22-.63c0-3.15-.06-6.3-.06-9.45,0-.19.22-.39.37-.55s.62-.1.71.52C161.52,194.44,161.56,195.79,161.7,197.72Z"/><path class="cls-1" d="M201.26,220.89c.28,2.39.91,4.69-.2,6.85-.08.17-.43.38-.55.32-.32-.14-.86-.47-.83-.62C200.16,225.25,200.72,223.07,201.26,220.89Z"/><path class="cls-1" d="M197.69,203.8c0,3.41,0,6.81-.06,10.22a3.54,3.54,0,0,1-.51,1.22,5.58,5.58,0,0,1-.87-1.67,28.56,28.56,0,0,1,.63-8.79c.07-.34.61-.59.94-.88Z"/><path class="cls-1" d="M25.08,227.5c-.45-.46-.92-.89-1.33-1.37A1,1,0,0,0,22.2,226l.1.09c.28-.3.78-.59.79-.9.05-.88-.18-1.78-.12-2.66,0-.27.59-.57,1-.76.55-.28.79,0,.92.59a10.24,10.24,0,0,1,.14,5.3Z"/><path class="cls-1" d="M80.86,89.62c-2.19.74-3.8-.28-5.22-1.75a1.33,1.33,0,0,1-.18-1.19,1.16,1.16,0,0,1,1-.56A1.24,1.24,0,0,0,78,85.51L78,85.46c-.44,1.42-.44,1.42.82,1.55a2.87,2.87,0,0,0,.64-.08l-.08-.07c.07,1.31.07,1.31,1.47,1.48l-.08-.08v1.47Z"/><path class="cls-1" d="M155.86,178.61a8.41,8.41,0,0,0-.33,3.95c.05,1.33,0,2.65,0,4.68-.88-3.36-1-6,.4-8.53Z"/><path class="cls-1" d="M186.1,124.53a2.52,2.52,0,0,1,1.24,3.3c-.07.18-.33.43-.47.41-.39-.06-1-.13-1.11-.4a3.34,3.34,0,0,1-.12-3.16C185.68,124.58,185.94,124.58,186.1,124.53Z"/><path class="cls-1" d="M188.38,169c0-1.56-.08-3.12-.06-4.68a23.06,23.06,0,0,1,.35-2.53C189.46,164.44,188.93,166.6,188.38,169Z"/><path class="cls-1" d="M185.6,165c0-1.54,0-3.07,0-4.61,0-.3.33-.6.51-.9a2,2,0,0,1,.22.62c0,1.53-.06,3.07-.1,4.6Z"/><path class="cls-1" d="M81.4,105.83c-.83-.28-1.65-.57-2.48-.84s-.86-.86-.87-1.52a1.07,1.07,0,0,1,1.31-1,13.69,13.69,0,0,0,1.91.48c.32,0,.65-.47,1-.73l-.1-.07c-.45.42-.9.81-.35,1.5a7.14,7.14,0,0,1,.57,1.14Z"/><path class="cls-1" d="M84.91,91c-.23.71.21,1.18.57,1.73.51.77.69-.4.33.45a.66.66,0,0,1-.58.23,8.33,8.33,0,0,1-4.34-2.65c-.2-.22,0-.77,0-1.16l-.12.11c1,0,1.93.49,2.9,0l-.12-.1c-.06,1.43-.06,1.43,1.48,1.5Z"/><path class="cls-1" d="M96.07,124.43c0,.42-.17,1,0,1.22.38.51.51.77.06.95a.92.92,0,0,1-.63,0,18.51,18.51,0,0,1-1.73-1,2.63,2.63,0,0,1-.43-.45c.29-.09.57-.2.87-.27.63-.16,1.26-.29,1.89-.43Z"/><path class="cls-1" d="M197.82,203.9c-.61-2.05,0-4,.32-6a.46.46,0,0,1,.36-.05c.19.12.48.3.47.45-.06,1.58-.12,3.16-.31,4.72,0,.31-.63.54-1,.81Z"/><path class="cls-1" d="M195,155.05a6,6,0,0,1,1.19,5.08,1.22,1.22,0,0,1-.31.55c-.46.55-.67.44-.68-.33,0-1.8-.07-3.59-.11-5.39Z"/><path class="cls-1" d="M149.18,181.69c0-.17,0-.62.11-1.07,0-.2.23-.37.35-.56.23.23.64.42.67.68a12.59,12.59,0,0,1,.14,2.67c0,.39-.45.74-.69,1.11a5.56,5.56,0,0,1-.55-1.19A8.34,8.34,0,0,1,149.18,181.69Z"/><path class="cls-1" d="M36.29,213.61c.08-1.13.16-2.26.25-3.4,0-.57.35-.76.94-.71.86.07,1.38.56,1.24,1.2a3.27,3.27,0,0,1-2.53,2.81Z"/><path class="cls-1" d="M136.45,149.54c.17.71.72.84,1.34,1,1.06.33,1.09.94.19,1.65a1.08,1.08,0,0,1-1.61,0l.13.1a6,6,0,0,1,.48-1.26c.5-.77,0-1.16-.49-1.58Z"/><path class="cls-1" d="M164.32,188.52a4.76,4.76,0,0,0-1.29-.11c-.83.14-1.15-.38-1.38-1s.31-1.59.74-1.49a2.63,2.63,0,0,1,1.58.82,4.63,4.63,0,0,1,.23,1.87Z"/><path class="cls-1" d="M190.94,168.45l.54-1.22a3.45,3.45,0,0,1,.63,1,2.92,2.92,0,0,1-.16,1.33,3.23,3.23,0,0,1-.55.81,2.55,2.55,0,0,1-.29-.6C191,169.36,191,168.9,190.94,168.45Z"/><path class="cls-1" d="M197.88,220.64a6.83,6.83,0,0,1,.12-1.27,3.07,3.07,0,0,1,.57-.81c.1.2.28.38.29.58a10.48,10.48,0,0,1,0,1.94,4.93,4.93,0,0,1-.45,1.19c-.16-.32-.35-.63-.48-1A2.81,2.81,0,0,1,197.88,220.64Z"/><path class="cls-1" d="M199.75,212.44a3.48,3.48,0,0,1-.46-1.17,3.37,3.37,0,0,1,.39-1.17,3.54,3.54,0,0,1,.44,1.15A4,4,0,0,1,199.75,212.44Z"/><path class="cls-1" d="M20.56,234.09c0,.18-.12.38-.19.58-.12,0-.32-.07-.33-.14a7.05,7.05,0,0,1-.17-1.21c0-.12.22-.25.34-.38A10.08,10.08,0,0,1,20.56,234.09Z"/><path class="cls-1" d="M22.2,226c0,1.07,0,2.15-.06,3.23,0,.16-.17.32-.26.48-.28-.3-.72-.56-.81-.9a2.38,2.38,0,0,1,1.23-2.72Z"/><path class="cls-1" d="M27.93,214.9c-1.75-1-1.91-1.18-1.33-2.39.13-.27.59-.42.92-.54.07,0,.33.31.41.51a2.25,2.25,0,0,1-.11,2.52Z"/><path class="cls-1" d="M186.57,174.63c1.84.89,2,1.27,1.25,3a.94.94,0,0,1-.54.41c-.08,0-.3-.22-.38-.37-.52-1-1.05-2.07-.23-3.2Z"/><path class="cls-1" d="M27.82,215c.62.1,1.12.34,1.19,1.06.1,1,.19,2,.28,3l.1-.09a1.57,1.57,0,0,1-1.28-1.37c-.12-.9-.12-1.82-.18-2.73Z"/><path class="cls-1" d="M153.86,176.28a3.53,3.53,0,0,1-.38-1.19,3.48,3.48,0,0,1,.53-1.17c.14.18.37.35.4.55A1.74,1.74,0,0,1,153.86,176.28Z"/><path class="cls-1" d="M167,215a2.37,2.37,0,0,1-1.16-2.31c0-.33.54-.61.83-.92.11.2.33.39.33.59,0,.91-.07,1.82-.11,2.73Z"/><path class="cls-1" d="M76.68,98.79c.08-.81.58-1.23,1.2-.92s1.49.26,1,1.2a3.09,3.09,0,0,1-1.41,1.12C77,100.38,76.6,99.62,76.68,98.79Z"/><path class="cls-1" d="M41,208c-.23-.66-.43-1.23-.62-1.8a3,3,0,0,1,1.09-.3c.56.07.74.51.45,1A9.86,9.86,0,0,1,41,208Z"/><path class="cls-1" d="M154,195.5c-.12,0-.3,0-.33,0a1,1,0,0,1-.14-.56c0-.16.21-.3.33-.45C153.91,194.8,154,195.15,154,195.5Z"/><path class="cls-1" d="M36.83,194.71a6.54,6.54,0,0,1-.31-1.13c0-.14.22-.32.35-.48a7.37,7.37,0,0,1,.29,1.12C37.17,194.37,37,194.55,36.83,194.71Z"/><path class="cls-1" d="M74.5,174a2.57,2.57,0,0,1,.85,2.27c-.07.28-.5.5-.81.67-.09,0-.44-.19-.49-.34-.18-.6-.29-1.21-.42-1.82Q74.05,174.37,74.5,174Z"/><path class="cls-1" d="M33.52,217.78l-.75.71a6.57,6.57,0,0,1-.39-1.13c0-.1.44-.4.47-.38A8.6,8.6,0,0,1,33.52,217.78Z"/><path class="cls-1" d="M29.29,219.09a8,8,0,0,1,.77.89c.1.14.14.48.05.57-.45.45-.67.31-.66-.35,0-.4,0-.8-.06-1.2Z"/><path class="cls-1" d="M108.61,145.33c-.08.41-.19.81-.24,1.22,0,.2.11.47,0,.63-.65,1.11-.87.1-.77-.26a6.54,6.54,0,0,1,1-1.56Z"/><path class="cls-1" d="M136.37,152.24c.44,1.29.44,1.29-1.15,1.62l-.16-.18a1.37,1.37,0,0,1,1.44-1.34Z"/><path class="cls-1" d="M84.39,204.07l.47.47A4.3,4.3,0,0,1,84,205c-.11,0-.28-.26-.43-.4Z"/><path class="cls-1" d="M79.88,109.83c-.38-.6-.74-1.26.15-1.65.2-.09.67.46,1,.71Z"/><path class="cls-1" d="M77.62,94.23c-.49-.35-1.26-.62-.76-1.4.14-.21.79-.15,1.19-.13.21,0,.41.2.61.3Z"/><path class="cls-1" d="M186.67,174.5c-.18,0-.38.13-.52.08s-.14-.28-.2-.43l.62.48Z"/><path class="cls-1" d="M36.19,213.51a4.47,4.47,0,0,1-.35,1.05c-.25.4-.62.32-.88-.18,0-.08.12-.35.24-.4a10.76,10.76,0,0,1,1.09-.37Z"/><path class="cls-1" d="M25,227.62c.43-.43.78-.38,1,.19.06.16-.08.39-.13.59a2,2,0,0,1-.5-.33,2.64,2.64,0,0,1-.24-.57Z"/><path class="cls-1" d="M8.65,107.07a2,2,0,0,1-.4-.52c-.44-1.25-.12-1.75,1-1.57a5.65,5.65,0,0,1,1.21.48Z"/><path class="cls-1" d="M156,59a5.91,5.91,0,0,0-1.84.57c-1.61,1.21-3.15,2.52-4.67,3.85-.29.25-.34.77-.5,1.17l.05,0c-1,0-1.52.44-1.46,1.46l.07-.07c-1,0-1.52.44-1.46,1.48l.07-.07c-2.13,1.32-3.58,3.41-5.53,4.94-.13.1-.08.44-.11.67l.05,0c-1.85.07-2.65,1.17-2.84,2.87l.1-.1a1.54,1.54,0,0,0-1.49,1.5l.1-.11a4.47,4.47,0,0,0-2.89,2.87l.08-.08c-1.86,1.26-1.86,1.26-1.45,2.91l.12-.08c-.43,0-1-.16-1.27,0-1.44,1.15-2.79,2.4-4.19,3.6-.31.27-1.62-.17-1.75-.56a23.17,23.17,0,0,1-1.26-10.16c.7-5.49,1.15-11,1.74-16.52.35-3.2,1.35-6.31,1.34-9.58a4.69,4.69,0,0,1,.69-1.93c2.6-5.16,3.68-10.91,6.18-16.12.9-1.86,1.53-3.85,2.33-5.76a22.59,22.59,0,0,0,1.89-5.18,10.78,10.78,0,0,1,1.34-3.14,1.25,1.25,0,0,1,2.11-.17,7.05,7.05,0,0,1,.88,1.86,84.15,84.15,0,0,0,9.23,19.27c1.91,3,2.89,6.28,4,9.52.77,2.15,1,4.49,2.24,6.5l-.6,3.3.06-.08c-1.29.13-1.29.13-1.48,1.47Z"/><path class="cls-1" d="M140.57,73c.77.86,1.53.49,2.41.11,1.14-.51,1.91-.18,2.19.73,1.71,5.5,3.33,11,5.17,16.5.71,2.08,1,3.93-.15,5.92-1.7,3-2.83,6.34-5.15,9-.2.22-1,.31-1.1.15a23.41,23.41,0,0,1-4.61-7.67c-1.32-3.7-2.76-7.35-4.22-11-.11-.27-.75-.35-1.15-.45-.07,0-.3.36-.32.58a5.53,5.53,0,0,0-.07,2c.61,2.22,1.27,4.43,2.07,6.6,1,2.59,2.06,5.14,3.15,7.69a9.1,9.1,0,0,0,1.63,3c2.58,2.45,2.74,5,1.05,8-.91,1.59-1.24,3.47-2.57,4.87a1.74,1.74,0,0,1-2.87-.2c-3.25-6.11-6.69-12.13-8.47-18.9,0-.22-.2-.42-.24-.65C126,93,124.73,92.44,130,86.75c1.06-1.15,2.44-2.2,2.33-4.06l-.12.08a2.4,2.4,0,0,0,1.9-1.4c.48-.76-.08-1.08-.45-1.51l-.08.08c.36.17.8.57,1.07.47a2.77,2.77,0,0,0,1.82-3.34l-.1.11c1.69.18,1.69.18,1.49-1.5l-.1.1c.59.17,1.17.46,1.72-.11s.91-.88,1.39-1.29c.78-.66,0-1-.27-1.47Z"/><path class="cls-1" d="M98.81,22.93c.4.14,1,.15,1.19.43.94,1.59,2.17,3.15,2.58,4.88,1.83,7.68,5.64,14.61,8.12,22a107.15,107.15,0,0,1,4.78,20.22,2.67,2.67,0,0,1-1.38,2.91,5.58,5.58,0,0,0-2.74,5.23l.11-.14C110.29,78.3,110,79,110,80l.08-.11a5.13,5.13,0,0,0-3.2,5.14c0,.18.25.36.38.53l0-.08c-.39,0-1-.24-1.13-.07-.69.86-1.22,1.85-1.87,2.75-.76,1.07-1.58,2.11-2.37,3.16-.3-.34-.61-.67-.92-1C103.25,85,105.1,79.5,108,74.49a2.42,2.42,0,0,0-.6-3.1,1.48,1.48,0,0,1-.23-1.22c.35-1.09.84-2.14,1.23-3.22.06-.17-.11-.43-.21-.63-.2-.37-.61-.42-1.06,0-2.57,2.43-4.09,5.56-5.61,8.67-1,2.07-1.91,4.2-2.89,6.29-.08.17-.38.24-.58.36-.18-.32-.51-.64-.51-1,0-2.86,1.27-5.35,2.37-7.89,1.3-3,2.56-5.93,3.83-8.9a3.41,3.41,0,0,0,.62-1.15c0-.36-.27-.76-.43-1.14a7.73,7.73,0,0,0-1.06.58c-.16.12-.21.39-.31.6l-.59.35c-.35.22-.67.57-1,.64s-.52-.38-.29-1a16.15,16.15,0,0,0,1-2.52,15,15,0,0,0,.09-2.68l-.1.11c1.63-.41,1.86-1.5,1.46-2.92L103,55c1.77-1,1.94-2.56,1.47-4.32l-.08.14c2.08-1.33,3-2.92,2.77-4.75-.07-.54-.48-.69-1-.42s-1.16.59-1.74.89l.12.1c-.1-1.06.56-2.2-.34-3.16-.14-.14-.43-.34-.51-.28-.82.51-1.11,2.21-.63,3.44l.09-.11c-.41,0-1-.25-1.2-.07a6.23,6.23,0,0,0-2.17,3.25c-.09.3.32.74.5,1.11l.09-.1c-1.32-.31-1.33-.31-1.53.86a3.14,3.14,0,0,0,0,.61l.08-.1-1.35.14.1.12c-.63-2.36,0-4.56.86-6.75,1.22-3.24,2.39-6.49,3.58-9.73.57-.39,1.14-.94.56-1.54s-1.14,0-1.58.51c-2.13,2-2.56,4.84-3.77,7.29C96.4,43.92,95.77,45.9,95,47.8a.66.66,0,0,1-.59.23c-.78-.5-.34.68-.42-.25-.17-2-.92-4.13.85-5.87q2.61-5.65,5.2-11.29c.35-.77-.07-1.27-1.43-1.49-.52-.09-.81-.15-.84-.78,0-.92-.13-1.83-.19-2.74l-.11.11c1.76-.33,1.43-1.72,1.47-2.91Zm7.66,34.64c.19-.31.58-.64.59-1s-.32-.76-.5-1.14a1.5,1.5,0,0,0-.57,1.69C106.06,57.31,106.31,57.42,106.47,57.57Zm-1.06,2c-.13-.08-.3-.25-.37-.22s-.38.26-.39.41.22.3.35.45C105.13,60,105.27,59.75,105.41,59.54Zm3.86,4.91c.15-.15.4-.29.42-.45s-.22-.35-.35-.52c-.15.15-.4.3-.42.46S109.14,64.28,109.27,64.45Z"/><path class="cls-1" d="M83.64,66.07l0-1.47-.13.1a1.76,1.76,0,0,1,1.9,0,13.51,13.51,0,0,0,2.47,1.15A1.37,1.37,0,0,0,89,65.34a15.39,15.39,0,0,0,1.14-2.47,1.39,1.39,0,0,0-.48-1.81c-4.82-2.55-8.33-6.44-11.43-10.81a13.08,13.08,0,0,0-2.06-1.76,1.61,1.61,0,0,1,.16-2.79c.91-.6,1.34-1.05.88-2.11a2.86,2.86,0,0,1,0-2.67A14.67,14.67,0,0,0,79,36.46c.14-.66.66-.64,1.68,0l1.15.7a5.52,5.52,0,0,1,.31,1.34c0,.56-.42.81-1,.76a9.15,9.15,0,0,0-.73-1,.79.79,0,0,0-.54-.15c-.2.34-.5.74-.45,1.07s.43.74.66,1.11a26.39,26.39,0,0,0,6.44,7.2,15.29,15.29,0,0,0,2.41,1.34c.59.31,1.65.08,1.81-.43a2.05,2.05,0,0,0,.14-1.25,14,14,0,0,0-1.09-1.74,1.89,1.89,0,0,1-.39-1.92,1.9,1.9,0,0,0-.8-2.87,19.5,19.5,0,0,1-5.28-4.46c-.7-1.11-1.45-2.19-2.07-3.34a6.56,6.56,0,0,1-.46-1.88c-.2-1.09.28-1.53,2-1.8.49.93.9,2,2,2.36l1.09,1.7a4.09,4.09,0,0,0,3.71,2.51c.19,0,.4-.16.58-.26a.61.61,0,0,0,.13-1.08c-1.06-.82-2.22-1.51-3.33-2.24l-1.31-1.53a3.74,3.74,0,0,0-2-2.18c0-.42-.06-.84-.14-1.25a2.2,2.2,0,0,1,1.19-2.6,9,9,0,0,0,.76,1,.65.65,0,0,0,.58.14c.56-.19.73-.58.47-1a11.94,11.94,0,0,0-.76-1.1A16.29,16.29,0,0,1,85.39,21c0-.29.51-.73.86-.83a1.39,1.39,0,0,1,1.11.29,12.83,12.83,0,0,1,1.33,1.42,5.47,5.47,0,0,0,2.78,2.9c1.54.76.93,2.32-.57,3.05a9.54,9.54,0,0,1-1.33.31,1,1,0,0,0-.52,1.53c.49.48,1.08.86,1.52,1.38s1,1.13,1,1.65c-.34,3.67.12,7.33.17,11A5.52,5.52,0,0,1,91,47a2.48,2.48,0,0,0,0,2.44,43.66,43.66,0,0,1,2,10.06c.34,3.2.46,6.42.64,9.63.1,1.69-.37,2.12-2.42,2.36-.23,0-.46,0-.69,0l.12.09c-.86-1.8-.86-1.8-2.92-1.45l.13.1c-.08-1.26-.08-1.26-1.5-1.52l.11.11c-.15-1.31-.15-1.31-1.49-1.49l.09.09c.08-1.07-.58-1.4-1.48-1.5ZM81.9,48.67l-2.26-2.41c-.26-.31-.48-.75-.81-.88s-.73.1-1.07.24c-.07,0-.08.39,0,.55a11.53,11.53,0,0,0,.66,1l2.14,2.33c.25.34.44.82.78,1s.76-.06,1.12-.19c.09,0,.14-.41.08-.58A11.2,11.2,0,0,0,81.9,48.67Zm1.46,2.42c0,.41-.08,1,.13,1.21A13.92,13.92,0,0,0,89.13,56c.12,0,.42-.2.55-.37a.58.58,0,0,0,.07-.52,10.15,10.15,0,0,0-5.85-4.42C83.78,50.64,83.54,50.94,83.36,51.09Z"/><path class="cls-1" d="M151.37,106c-.23,0-.46,0-.69,0-1.66,0-2.3-1.19-1.49-2.85,1.22-2.49,2.5-5,3.78-7.42.31-.62.7-1.2,1.06-1.79a4.74,4.74,0,0,1,4.61-2.48,53.07,53.07,0,0,1,12.26,2.16,1.17,1.17,0,0,1,.44,1.72c-.74,1.18-1.49,2.34-2.25,3.5-1.12,1.74-2,3.77-3.46,5.15s-4,.68-6,1.07c-2.72.53-5.49.81-8.23,1.19Z"/><path class="cls-1" d="M167.07,70.23c.37.14,1,.5,1.08.39,1.11-1.17,2.12-2.44,3.2-3.64a2.36,2.36,0,0,1,2.53-.7c4.22,1.6,8.56,1.71,13,1.39A1.3,1.3,0,0,1,188,69.6,99.24,99.24,0,0,1,182.2,79a1.28,1.28,0,0,1-.56.35,2.27,2.27,0,0,1-.65.22,2.65,2.65,0,0,1-.69,0c-3.43-.47-6.87-.85-10.27-1.44a16.32,16.32,0,0,1-3.85-1.44,1.18,1.18,0,0,1-.35-1.11c.62-1.48,1.4-2.89,2-4.37.09-.22-.44-.69-.69-1Z"/><path class="cls-1" d="M167.14,70.15c-.42.11-1,.08-1.23.35-1.32,1.56-2.55,3.21-3.82,4.81a1.1,1.1,0,0,1-1.65-.24c-1.38-3.38-2.79-6.75-4.12-10.16a6.34,6.34,0,0,1,.06-4.69c.12-.31-.27-.81-.43-1.23l-.07.07c1.75.38,1.77.36,1.48-1.47l-.06.08c.42.07,1,.35,1.23.18,1.7-1.12,3.33-2.34,5-3.51a1.33,1.33,0,0,1,2.16.63c.78,1.88,1.58,3.75,2.28,5.66,1,2.64,1.38,5.23-.7,7.65-.35.4-.14,1.28-.19,2Z"/><path class="cls-1" d="M158.87,84c-.41,0-1-.18-1.2,0-1.08,1.18-2,2.47-3.09,3.69a1.57,1.57,0,0,1-2.3-.51c-1.13-3.25-2.15-6.54-3.38-9.75-.73-1.91-.64-4.15-2.11-5.75-1-1.07-.56-2-.18-3.15.11-.33-.25-.82-.4-1.23l-.07.07c1.92.47,2,.4,1.46-1.48l-.07.07c.52.07.92.71,1.6.07s-.08-1-.14-1.53l-.05,0c.29.32.59.91.85.89.67,0,1.31-.46,2-.54s1.48,0,1.78.71c.87,2.11,1.68,4.25,2.46,6.4s1.15,4.44,2.65,6.31c.62.77.29,1.73,0,2.62-.37,1-.93,2.15.13,3.15Z"/><path class="cls-1" d="M155.15,108.27c2.07-.16,4.14-.35,6.22-.45a1.32,1.32,0,0,1,1,.61,1.63,1.63,0,0,1,0,1.3c-1,1.81-2.06,3.6-3.15,5.36a4.5,4.5,0,0,1-2.61,2.14c-2.44.7-4.86,1.46-7.29,2.19a16.87,16.87,0,0,1-6.15.76,1.25,1.25,0,0,1-1-1.5c1.23-3,2.45-6,3.76-8.9a2.4,2.4,0,0,1,2.26-1.35c2.31,0,4.62,0,6.93,0Z"/><path class="cls-1" d="M204.05,31.87a26.73,26.73,0,0,1-3.22,9c-1,1.5-1,3.52-2.62,4.67-2.61-.58-4.73,1.79-7.34,1.23-.21-.05-.52-.18-.58-.34-.12-.38-.29-.89-.13-1.17.44-.8,1.07-1.49,1.56-2.26.61-1,1.16-1.95,1.73-2.93a3.35,3.35,0,0,0,.49-1.08c0-.77-.59-1.1-1.27-.66a4.1,4.1,0,0,0-.8.94c-1.69.94-2.48,2.68-3.66,4.08-1.78,2.11-2.4,2-3.93-.64l-.32-.61c-.52-1-.38-2,.44-2.39a30.61,30.61,0,0,0,10.08-7.14c.2-.22.83-.18,1.19-.07.51.17.6.64.47,1.17a12.66,12.66,0,0,0-.15,1.38c-.3.3-.74.55-.86.9s.18.73.35,1.07a.76.76,0,0,0,.55-.1,11,11,0,0,0,1-.85c.89-1,1.77-2,2.67-3a7.27,7.27,0,0,1,3.2-2.32C203.26,31.14,203.66,31.5,204.05,31.87Z"/><path class="cls-1" d="M105.79,105.05c-.32-.21-.73-.67-1-.59a11.12,11.12,0,0,0-1.77,1,1.18,1.18,0,0,1-.54.15c-.23-.37-.57-.79-.55-1.18a4.73,4.73,0,0,1,.55-1.9c1.09-2,2.29-3.91,3.38-5.9a1.31,1.31,0,0,0-.15-1.24c-.56-.44-1.15-.23-1.6.39a6.29,6.29,0,0,1-1,.88l.09.09a10.62,10.62,0,0,1,.56-2.49A33.59,33.59,0,0,1,105.91,91c0,.67-.09,1.33-.08,2,0,.2.16.53.3.56a1.52,1.52,0,0,0,1.06,0,7.35,7.35,0,0,0,2.37-3.15c.45-.93.9-1.87,1.34-2.8a3.18,3.18,0,0,0,.5-1.08c0-.32-.28-.66-.48-1a.78.78,0,0,0-.48.18,9.2,9.2,0,0,0-.61,1c-1.18.5-1.38,1.58-1.55,2.67-.48.39-1,.79-1.45,1.16-.33.23-.7.42-1,.62.42-1,.83-2.09,1.26-3.12a3,3,0,0,0,.23-2.57l0,.08c.22,0,.5,0,.66-.08A8.15,8.15,0,0,0,110.57,81c.09-.29-.34-.74-.53-1.11L110,80c1.23.26,1.24.26,1.49-.9a3.84,3.84,0,0,0,0-.59l-.11.14c1.09-1.12,2.16-2.26,3.28-3.35.45-.44.72-.21,1,.36a7.93,7.93,0,0,1,.56,6.6A25.52,25.52,0,0,1,114,87.92c-1.93,3.09-3.63,6.33-5.34,9.56-.27.52,0,1.3,0,2l0,0a1.63,1.63,0,0,0-.64.09,6.34,6.34,0,0,0-3,4.71c0,.19.59.51.91.76Z"/><path class="cls-1" d="M175.43,60.49c.62-.14,1.49-.06,1.83-.45a5.79,5.79,0,0,1,6.25-1.74,36.82,36.82,0,0,0,8.8,1c.56,0,.76.37.52,1a16.13,16.13,0,0,1-1.15,2.45,2.46,2.46,0,0,1-2.19,1.35,5.54,5.54,0,0,0-2,.16c-2.91,1.08-5.85.72-8.79.3-2.62-.37-2.9-.75-3.16-4.13Z"/><path class="cls-1" d="M175.5,60.41c-1.06-.39-1.62.49-2.37.92-.94.54-1.35.46-1.73-.15a31.43,31.43,0,0,1-3.25-7.59,2.31,2.31,0,0,1,.65-2.51c1.18-1.06,2.48-2,3.76-3a.68.68,0,0,1,1.13.36c.84,2.13,1.57,4.31,2.54,6.38.71,1.53.2,2.62-.73,3.74a1.62,1.62,0,0,0-.07,1.89Z"/><path class="cls-1" d="M182.38,52.14c.41.07,1,.34,1.21.17,2.18-2.26,4.89-2.78,7.89-2.73a36.34,36.34,0,0,0,4.61-.52,10.22,10.22,0,0,0,1,.9,6.84,6.84,0,0,1-1.28,3.78,3.77,3.77,0,0,1-3.16,2.2,29.4,29.4,0,0,0-3.35.49c-2.15.38-4-.54-5.8-1.44a1.39,1.39,0,0,1-.57-1.73c.09-.34-.27-.81-.42-1.22Z"/><path class="cls-1" d="M101.74,57.62c-.4.06-1.08,0-1.17.2-1.12,2.53-2.15,5.11-3.22,7.66a.93.93,0,0,1-.47.42c-.4.2-.63-.06-.69-.71a12.36,12.36,0,0,1,1.07-6.77,45,45,0,0,0,2.07-5.15c.11-.32-.27-.82-.42-1.23l-.08.1c1,.43,1.28-.11,1.43-.92,0-.19,0-.37.08-.55l-.09.1c1.91-.79,2.54-2.43,2.87-4.29l-.09.11h1.48l-.12-.1v4.28l.08-.14c-.4.41-1,.77-1.15,1.26A19.48,19.48,0,0,0,103,55l.09-.14c-.92,0-1.35.6-1.76,1.34s0,1.09.3,1.58Z"/><path class="cls-1" d="M182.47,52c-.82.31-1.62.68-2.47.92a1.49,1.49,0,0,1-1.77-.55c-1.48-2-1.47-4.29-1.4-6.54,0-.67,1.06-1.4,1.76-1.94a2.23,2.23,0,0,1,3.49.65c.37.57.6,1.24.95,1.83a3.23,3.23,0,0,1-.18,3.82,5.64,5.64,0,0,0-.47,1.91Z"/><path class="cls-1" d="M97.57,25.61c-.82-.38-1.2.14-1.54.75-.11.18-.19.47-.35.52-.62.19-.85-.06-.84-.65,0-2.07,0-4.14,0-6.2a5,5,0,0,1,1.8-3.59,1.57,1.57,0,0,1,1.18-.39,1.29,1.29,0,0,1,.87.77,10.94,10.94,0,0,1,.08,6.11l.12-.12c-1.72.41-2.06,1.08-1.47,2.91Z"/><path class="cls-1" d="M90,20.63c-.77-1.58-2.15-2.87-2.28-4.76a22.07,22.07,0,0,1,3-1.53,2,2,0,0,1,2.46,1.71c0,1.37-.19,2.74-.35,4.1-.11.86-.83,1.13-2.2.8A2.55,2.55,0,0,1,90,20.63Z"/><path class="cls-1" d="M97.46,107.79c2.47.94,2.56,1,2.68,2.95,0,.23,0,.45,0,.67,0,1.39-.73,2.16-2,2.06s-2.76,0-3.4-1.59l-.06.13c1.86-.69,1.86-.69,1.45-2.89l-.1.1c1.6,0,1.6,0,1.47-1.46Z"/><path class="cls-1" d="M117.53,98.71c.81-2.39,1.61-4.79,2.43-7.17a1.44,1.44,0,0,1,.35-.56,2.87,2.87,0,0,1,1.13.61c1.17,1.36,1.31,2.53.46,3.72-1.05,1.47-2.14,2.93-3.21,4.39Z"/><path class="cls-1" d="M108.59,99.44a1,1,0,0,0,1.53-.13c.79-1,1.61-2,2.42-2.91.29.29.57.58.84.88a19.81,19.81,0,0,1-3.91,7c-.33-.31-.66-.6-1-.87a22.56,22.56,0,0,1,.79-2.49c.36-.81-.18-1.14-.61-1.57Z"/><path class="cls-1" d="M105.92,109.24c0-.8.06-1.61,0-2.41,0-.6-.11-1.19-.17-1.78l.07-.09a2.81,2.81,0,0,0,1.15-.2,12.61,12.61,0,0,0,1.45-1.3c.35.27.68.56,1,.87-.93,1.81-1.66,3.78-3.65,4.79Z"/><path class="cls-1" d="M96.51,5.33c.87,2,.61,3.47.13,5.75-.16-1.4-.29-2.06-.3-2.71C96.34,7.51,96.43,6.66,96.51,5.33Z"/><path class="cls-1" d="M112.54,96.4a5.35,5.35,0,0,1,1.91-3.58,2.75,2.75,0,0,1,.57-.28,3.48,3.48,0,0,1,.41,1.24,5.07,5.07,0,0,1-2.05,3.49Q113,96.84,112.54,96.4Z"/><path class="cls-1" d="M101.9,91.3a10.22,10.22,0,0,1-.43,1.25c-.3.61-.68,1.18-1.47,1.14a.77.77,0,0,1-.49-.28c-.55-.71-.44-1.44.41-2.31a7.84,7.84,0,0,1,1.07-.8C101.29,90.63,101.6,91,101.9,91.3Z"/><path class="cls-1" d="M97.56,52.18c-.52,1-1,1.94-1.59,2.88-.08.14-.37.21-.57.22A.52.52,0,0,1,95,55c-.67-2.1.3-3.09,2.65-2.72Z"/><path class="cls-1" d="M116.77,88.11a5.08,5.08,0,0,1,.32-1.19,3.29,3.29,0,0,1,.78-.75c.15.37.46.75.44,1.11a9.45,9.45,0,0,1-.44,1.78Z"/><path class="cls-1" d="M117.87,89.06a18,18,0,0,1-1,1.69c-.35.48-.76.47-1,.08-.12-.17-.29-.36-.29-.55a2.33,2.33,0,0,1,1.23-2.17Z"/><path class="cls-1" d="M104.32,110.42c0,.4.08.8.06,1.2,0,.19-.1.52-.22.55-.58.13-.81-.16-.52-.7a5.27,5.27,0,0,1,.78-.93Z"/><path class="cls-1" d="M106,117.4a9.55,9.55,0,0,1-1.31,0c-.57-.08-.78-.38-.56-.73a.86.86,0,0,1,.5-.32c.18,0,.47,0,.56.1a8.86,8.86,0,0,1,.71,1.09Z"/><path class="cls-1" d="M104.42,110.54c.3-.67.29-1.68,1.5-1.3l-.1-.12c-.24.74-.28,1.69-1.5,1.31Z"/><path class="cls-1" d="M103.13,96.66l-.4.38.49-.29Z"/><path class="cls-1" d="M124.06,89.15c.15-.27.31-.54.47-.81.13.15.39.33.37.44a4.39,4.39,0,0,1-.42.84Z"/><path class="cls-1" d="M202.86,30.78c.37-.43.75-1,1.39-.54.19.16.12.72.09,1.09,0,.18-.19.36-.29.54C203.66,31.5,203.26,31.14,202.86,30.78Z"/><path class="cls-1" d="M196.09,49.06l.93-.71a6.1,6.1,0,0,1,.33,1.08c0,.16-.2.35-.3.52A9,9,0,0,1,196.09,49.06Z"/><path class="cls-1" d="M256.29,61.92a17.45,17.45,0,0,1,1.54-1.18A4.89,4.89,0,0,1,259,60.4c.12.19.37.39.36.57-.18,2.55-.81,3.83-2.5,5.15-.13.11-.47.18-.56.1a2.18,2.18,0,0,1-.75-1,3.63,3.63,0,0,1,.25-1.33C256,63.25,256.13,62.58,256.29,61.92Z"/><path class="cls-1" d="M258.93,60.48c.19-.77.38-1.55.56-2.32a4.94,4.94,0,0,0,1-.62c.53-.57.94-.24,1.38.1A3.8,3.8,0,0,1,260,60.77C259.81,60.9,259.29,60.59,258.93,60.48Z"/><path class="cls-1" d="M261.74,57.74c-.13-.41-.44-.85-.37-1.22a24.55,24.55,0,0,1,.78-2.66,2.52,2.52,0,0,0,1-.34l-.1-.12A3.21,3.21,0,0,1,261.74,57.74Z"/><path class="cls-1" d="M263.17,53.52a3.45,3.45,0,0,1,.17-.63c.15-.35.34-.7.52-1,.08.2.26.41.22.59a3.3,3.3,0,0,1-.4,1.14c-.47.8.32-.17-.61-.17Z"/><path class="cls-1" d="M261.58,46.32c.3-.57.81-.93,1.36-.54s.11,1-.17,1.44Z"/><path d="M167.13,163.42c.1.39.39,1,.27,1.12a39.06,39.06,0,0,1-3.63,2.51c-.08,0-.54-.53-.83-.82C163.58,164.26,164.75,163.47,167.13,163.42Z"/><path d="M157.15,161.33a8.52,8.52,0,0,1-1.46,1.17,1.15,1.15,0,0,1-1-.32,1.26,1.26,0,0,1,0-1.09c.17-.35.59-.56.9-.84Z"/><path d="M158.07,160.3l-.92,1-1.62-1.08,1.26-1.54Z"/><path d="M78.66,68.22c1.81,1.37,4,2.25,5.35,4.22-.27.32-.54.63-.82.94-1-.44-1.9-.95-2.89-1.32a21.16,21.16,0,0,0-2.41-.58l.12.1c-.12-.79-.25-1.58-.38-2.38Z"/><path d="M89.2,86.92c-.18.14-.35.4-.53.4-2.36,0-4.24-.89-5.16-3.25C86,83.88,88.08,84.41,89.2,86.92Z"/><path d="M77.89,71.48c-.06,1.48,1.5,2.13,1.75,3.45a.69.69,0,0,1-.25.46c-.15.15-.38.35-.53.32a5.42,5.42,0,0,1-3.09-2.34,1.45,1.45,0,0,1-.16-1.14c.15-.5.61-.52,1.12-.44A4.18,4.18,0,0,0,78,71.58Z"/><path d="M82.48,76.83a9.87,9.87,0,0,1,4.13,2.84l-.93.92a7,7,0,0,1-4.33-2.73Z"/><path d="M86.59,74.1c1.54.23,3,.56,3.92,2a1.76,1.76,0,0,1-.09,1.16c-.14.52-.53.52-1.07.41-1.61-.33-2.61-1.56-3.82-2.48Z"/><path d="M77.63,69.2a4.8,4.8,0,0,1-3.1-2.6c.33-.29.66-.58,1-.89a6,6,0,0,1,3.15,2.51Z"/><path d="M77.6,62.24a20,20,0,0,1-1.91-1.76,1.17,1.17,0,0,1,.16-1.1c.27-.25.94-.46,1.17-.3a16.26,16.26,0,0,1,1.87,1.76Z"/><path d="M83.63,84.15a2.17,2.17,0,0,1-2.91-1.44c.31-.3.69-.9.9-.84.86.21,1.77.51,1.95,1.6C83.61,83.69,83.61,83.93,83.63,84.15Z"/><path d="M84,72.44c1,.29,2.07.56,2.58,1.66l-1.06,1.13-2.34-1.85C83.47,73.07,83.74,72.76,84,72.44Z"/><path d="M90.08,83.2a3.36,3.36,0,0,1-2.61-1.6l1-1,3.17,1.29Z"/><path d="M87.67,70.16c2.06-.35,2.06-.35,2.92,1.45C88.83,72.11,88.73,72.05,87.67,70.16Z"/><path d="M91.63,81.84a4.35,4.35,0,0,1,1.06.82c.22.3.4.92.24,1.12a1.31,1.31,0,0,1-1.17.38,7.89,7.89,0,0,1-1.68-1Z"/><path d="M90.57,88.35a3.82,3.82,0,0,1-.59,0c-1.17-.24-1.16-.25-.88-1.48C90.77,87,90.77,87,90.57,88.35Z"/><path d="M86.3,68.74c1.42.26,1.42.26,1.5,1.52C86.85,70.2,86.14,69.9,86.3,68.74Z"/><path d="M86.61,79.67l1.85.88-1,1-1.79-1Z"/><path d="M84.92,67.36c1.34.18,1.34.18,1.49,1.49C84.57,68.91,84.57,68.91,84.92,67.36Z"/><path d="M83.53,66c.9.1,1.56.43,1.48,1.5C83.07,67.76,83,67.72,83.53,66Z"/><path d="M81.35,77.86c-.26-.33-.54-.64-.76-1-.1-.15-.12-.52-.06-.55.34-.16.76-.41,1.07-.32s.59.53.88.82Z"/><path d="M80.82,82.78c-1,0-1.62-.35-1.47-1.48.52-.07.92-.69,1.59,0S80.88,82.28,80.82,82.78Z"/><path d="M79.74,56.6c-.31,1.73-.8,1.92-2.11.82a2.76,2.76,0,0,1-.37-.46l1.26-1.21.49.14Z"/><path d="M79.42,81.37c-1.4-.2-1.4-.2-1.46-1.47a3,3,0,0,1,.64-.12C79.85,79.85,79.86,79.89,79.42,81.37Z"/><path d="M77.19,54.29l.47.13a7.59,7.59,0,0,0,.7.79l.16.54L77.26,57l-1.4-1.42Z"/><path d="M78,80a2.32,2.32,0,0,1-.63.11c-1.26-.08-1.27-.1-.81-1.55C78.27,78.46,78.27,78.46,78,80Z"/><path d="M75.86,55.54c-.22-.39-.58-.76-.61-1.16a2.06,2.06,0,0,1,.49-1.12c.05-.08.46,0,.59.07a8.78,8.78,0,0,1,.86,1Z"/><path class="cls-1" d="M83.59,64.6l-.82-.7c.27,0,.62-.23.82-.12.4.2.32.58-.13.91Z"/><path class="cls-1" d="M78.52,55.75l-.16-.54a1.39,1.39,0,0,1,.65.68Z"/><path d="M179,87.64a6.14,6.14,0,0,1-.64,1.22,4.52,4.52,0,0,1-1.06.66c-.13-.41-.47-.91-.35-1.21a8.15,8.15,0,0,1,1.16-1.57A10.81,10.81,0,0,0,179,87.64Z"/><path d="M180.07,85.93c-.37.57-.74,1.14-1.1,1.71a10.81,10.81,0,0,1-.89-.9c.32-.61.64-1.22.95-1.84Z"/><path d="M123.1,329.39c-.19-.33-.55-.66-.54-1,0-.83.67-1.43,1.27-1.3a.73.73,0,0,1,.46.36,1.63,1.63,0,0,1-.53,1.78C123.63,329.38,123.33,329.35,123.1,329.39Z"/><path d="M100.33,187.05a12.18,12.18,0,0,0-.35,1.28c-.2,1.27-.07,2.7-.63,3.76s-1.83,1.89-2.8,2.81-2.22,2.16-3.4,3.17c-.28.24-.82.17-1.24.25-.23-.38-.47-.76-.7-1.15l-.43.51,1.23.54c0,1.72-1.09,2.78-2.29,3.78-.41.34-.92-.09-1.09-.95-.2-1-.22-1-1.71-1.22a3.58,3.58,0,0,1-.63-.21c-.07-.22-.27-.5-.2-.65,1.84-3.86,5.78-5.84,8.22-9.17,1.79-1,3.57-2,5.37-2.94C99.83,186.78,100.11,187,100.33,187.05Z"/><path d="M65.42,184.4a4.66,4.66,0,0,1,4.3-2.89c0,.22.14.51,0,.65C68.69,183.62,67.37,184.64,65.42,184.4Z"/><path d="M103.08,184.25c0,.41.19,1,0,1.19a4.19,4.19,0,0,1-2.86,1.73,1.22,1.22,0,0,1,.21-1.58A4.37,4.37,0,0,1,103.08,184.25Z"/><path d="M55.65,192.72a2.31,2.31,0,0,1,3-1.45,2.72,2.72,0,0,1-1.45,1.9C56.38,193.68,56.08,193.1,55.65,192.72Z"/><path d="M54.34,195.55a1.1,1.1,0,0,1-.11-1.69,14.47,14.47,0,0,1,1.54-1.25c.37.42,1,.71.44,1.46A3,3,0,0,1,54.34,195.55Z"/><path d="M58.47,191.37c-.11-1.12.51-1.5,1.51-1.52A1.29,1.29,0,0,1,58.47,191.37Z"/><path d="M47.35,202.5c.19-1.42.19-1.42,1.49-1.47C49,202.9,49,202.91,47.35,202.5Z"/><path d="M45.93,203.89c0-1,.48-1.53,1.51-1.49C47.75,203.94,47.75,203.94,45.93,203.89Z"/><path d="M122.54,157.89c.27.31.79.63.77.91-.08,1.09-.36,2.16-.52,3.24-.09.64.21.75.84.59,1-.26,1.91-1.22,3.09-.56a6.3,6.3,0,0,1,.49,1q-3.79,2.78-7.66,5.44a.69.69,0,0,1-.65,0,2.08,2.08,0,0,1-.69-1c-.4-2.36.94-4.33,1.56-6.46a1.88,1.88,0,0,0-.94-2.25L120,157.7Z"/><path d="M118.83,158.87a9,9,0,0,1-4.71-5.41,1.41,1.41,0,0,1,.25-1.19,1.14,1.14,0,0,1,1.1-.17,15.9,15.9,0,0,1,4.41,4.93,2.05,2.05,0,0,1,.09.67Z"/><path d="M114.69,160.18c.71.51,1.46,1,2.12,1.52a1.4,1.4,0,0,1,.17,1.78,1.18,1.18,0,0,1-1.7.21c-.81-.74-1.52-1.57-2.27-2.36Z"/><path d="M126.73,162.06c.64-1.77.73-1.81,2.82-1.42.21,1.07-.46,1.51-1.27,2S127.16,162.48,126.73,162.06Z"/><path d="M125.33,185.74a13.69,13.69,0,0,1,1.42-1.12c.43-.27.77,0,.79.57,0,.11-.28.31-.45.33-.61.07-1.23.08-1.85.11Z"/><path d="M112,157.3l1.36,1.42-1.21,1.77-1.5-1.53Z"/><path d="M113.36,158.72l1.33,1.46L113,161.33a2.31,2.31,0,0,1-.86-.84Z"/><path d="M113.24,149.1a4.46,4.46,0,0,1,.85,1c.39.76,0,1.38-.79,1.24a4.5,4.5,0,0,1-1.11-.57Z"/><path d="M112.74,114.79c.2-4.35,2.25-7.86,5-11,.12-.15.42-.15.64-.22a3.67,3.67,0,0,1-.61,3.27,5,5,0,0,0-.43,4,28.46,28.46,0,0,0,1.91,5.21c2.48,4.7,4.68,9.59,8.26,13.64a16.93,16.93,0,0,1,1.94,2.86c.17.3,0,.84-.11,1.23s-1.51.57-1.87.19a9.55,9.55,0,0,1-.94-1,88.09,88.09,0,0,1-9.93-16.68c-.29-.63-.68-1.21-1-1.83-.51-1-1.06-.38-1.64-.09A8.67,8.67,0,0,1,112.74,114.79Z"/><path d="M96.14,109.12c.41,2.2.41,2.2-1.45,2.89l-3.11-2.5,1-1.39Z"/><path d="M90.6,112c-.46.37-.82.94-1.58.59-1.06-.48-2.63-.24-2.72-2A3.25,3.25,0,0,1,90.6,112Z"/><path d="M82.37,104.79a7.14,7.14,0,0,0-.57-1.14c-.55-.69-.1-1.08.35-1.5,1.61-.06,2.48,1.24,3.66,2-.38.4-.77.8-1.15,1.21Z"/><path d="M83.64,89.72c-1,.5-1.94.06-2.9,0V88.26C82.39,87.65,82.62,87.77,83.64,89.72Z"/><path d="M86.4,110.59c-2.14.39-2.14.39-2.87-1.44.46-.38.83-.86,1.59-.45S86.53,109.58,86.4,110.59Z"/><path d="M85.81,104.12a4.54,4.54,0,0,1,.62.32c1.39,1,1.71,1.56,1.09,2-1,.63-1.69,0-2.41-.53a2.57,2.57,0,0,1-.45-.53C85,104.92,85.43,104.52,85.81,104.12Z"/><path d="M93.07,103.07c-.32.24-.62.61-1,.7-.73.18-1.21-.33-1.61-.85,0-.06.14-.33.25-.49s.32-.52.39-.5a14.79,14.79,0,0,1,1.77.7C93,102.68,93,102.92,93.07,103.07Z"/><path d="M92.24,97.66c1.17,0,2.31.07,3,1.27l-1.06,1.56-2.9-1.41Z"/><path d="M97.51,107.76c.13,1.41.13,1.41-1.47,1.46C96.23,107.56,96.23,107.56,97.51,107.76Z"/><path d="M95.21,98.93c.2.38.66.84.56,1.11-.26.79-1,.75-1.62.45Z"/><path d="M91.58,109.51a11,11,0,0,1-1.07-.71.79.79,0,0,1-.21-.53c.32-.24.68-.58,1-.59a3.83,3.83,0,0,1,1.22.44Z"/><path d="M88.24,102l-.49-.5a4.12,4.12,0,0,1,.93-.43c.11,0,.3.28.46.43Z"/><path d="M85,91.12c-1.54-.07-1.54-.07-1.48-1.5C85.19,89.73,85.19,89.73,85,91.12Z"/><path d="M80.82,88.34c-1.4-.17-1.4-.17-1.47-1.48C81.19,86.65,81.2,86.66,80.82,88.34Z"/><path d="M79.43,86.93a2.87,2.87,0,0,1-.64.08c-1.26-.13-1.26-.13-.82-1.55C79.65,85.49,79.65,85.49,79.43,86.93Z"/><path d="M105.46,125.22c.37.59.68,1.27.06,1.79s-1.22,0-1.73-.42Z"/><path d="M140.62,72.91c.27.46,1,.81.27,1.47-.48.41-.95.84-1.39,1.29s-1.13.28-1.72.11C138,74.08,138.77,73,140.62,72.91Z"/><path d="M136.49,77.07a2.77,2.77,0,0,1-1.82,3.34c-.27.1-.71-.3-1.07-.47A4.47,4.47,0,0,1,136.49,77.07Z"/><path d="M133.68,79.86c.37.43.93.75.45,1.51a2.4,2.4,0,0,1-1.9,1.4C131.82,81.12,131.82,81.12,133.68,79.86Z"/><path d="M137.88,75.68c.2,1.68.2,1.68-1.49,1.5A1.54,1.54,0,0,1,137.88,75.68Z"/><path d="M147.6,65.94c.53,1.88.46,2-1.46,1.48C146.08,66.38,146.57,65.89,147.6,65.94Z"/><path d="M149,64.55c.06.5.88.82.14,1.53s-1.08,0-1.6-.07C147.47,65,148,64.5,149,64.55Z"/><path d="M157.36,57.59c.29,1.83.27,1.85-1.48,1.47C156.07,57.72,156.07,57.72,157.36,57.59Z"/><path d="M110,79.87c.19.37.62.82.53,1.11a8.15,8.15,0,0,1-2.69,4.48c-.16.11-.44.06-.66.08-.13-.17-.38-.35-.38-.53A5.13,5.13,0,0,1,110,79.87Z"/><path d="M104.4,50.77V46.49c.58-.3,1.16-.61,1.74-.89s1-.12,1,.42C107.43,47.85,106.48,49.44,104.4,50.77Z"/><path d="M103.12,46.48c-.33,1.86-1,3.5-2.87,4.29-.18-.37-.59-.81-.5-1.11a6.23,6.23,0,0,1,2.17-3.25C102.15,46.23,102.71,46.45,103.12,46.48Z"/><path d="M104.51,46.59H103c-.48-1.23-.19-2.93.63-3.44.08-.06.37.14.51.28C105.07,44.39,104.41,45.53,104.51,46.59Z"/><path d="M103,55a19.48,19.48,0,0,1,.32-3.06c.12-.49.75-.85,1.15-1.26C105,52.39,104.78,54,103,55Z"/><path d="M97.46,25.72c-.59-1.83-.25-2.5,1.47-2.91C98.89,24,99.22,25.39,97.46,25.72Z"/><path d="M101.64,57.73c-.3-.49-.66-.91-.3-1.58s.84-1.32,1.76-1.34C103.5,56.23,103.27,57.32,101.64,57.73Z"/><path d="M106.47,57.57c-.16-.15-.41-.26-.48-.45a1.5,1.5,0,0,1,.57-1.69c.18.38.52.77.5,1.14S106.66,57.26,106.47,57.57Z"/><path d="M105.41,59.54l-.41.64c-.13-.15-.35-.31-.35-.45s.22-.33.39-.41S105.28,59.46,105.41,59.54Z"/><path d="M102.6,62.78c.1-.21.15-.48.31-.6A7.73,7.73,0,0,1,104,61.6c.16.38.47.78.43,1.14a3.41,3.41,0,0,1-.62,1.15Z"/><path d="M101.08,34.79c.44-.48,1-1.12,1.58-.51s0,1.15-.56,1.54Z"/><path d="M109.27,64.45c-.13-.17-.36-.35-.35-.51s.27-.31.42-.46c.13.17.36.36.35.52S109.42,64.3,109.27,64.45Z"/><path d="M111.47,78.49a3.84,3.84,0,0,1,0,.59c-.25,1.16-.26,1.16-1.49.9C110,79,110.29,78.3,111.47,78.49Z"/><path d="M100.34,50.67c0,.18,0,.36-.08.55-.15.81-.48,1.35-1.43.92a3.14,3.14,0,0,1,0-.61C99,50.36,99,50.36,100.34,50.67Z"/><path d="M83.29,36.1a19.5,19.5,0,0,0,5.28,4.46,1.9,1.9,0,0,1,.8,2.87,1.89,1.89,0,0,0,.39,1.92,14,14,0,0,1,1.09,1.74,2.05,2.05,0,0,1-.14,1.25c-.16.51-1.22.74-1.81.43a15.29,15.29,0,0,1-2.41-1.34,26.39,26.39,0,0,1-6.44-7.2l1.07-1c.56.05,1-.2,1-.76a5.52,5.52,0,0,0-.31-1.34Zm3,7.47c.2-.06.42-.11.62-.19.5-.23.51-.58,0-1s-1.08-.8-1.63-1.18a.68.68,0,0,0-1.14.31.65.65,0,0,0,.1.53C84.78,42.78,85.23,43.62,86.33,43.57Z"/><path d="M83.36,51.09c.18-.15.42-.45.54-.41a10.15,10.15,0,0,1,5.85,4.42.58.58,0,0,1-.07.52c-.13.17-.43.42-.55.37a13.92,13.92,0,0,1-5.64-3.69C83.28,52.05,83.4,51.5,83.36,51.09Z"/><path d="M86.92,32.07c1.11.73,2.27,1.42,3.33,2.24a.61.61,0,0,1-.13,1.08c-.18.1-.39.28-.58.26a4.09,4.09,0,0,1-3.71-2.51C86.19,32.78,86.55,32.42,86.92,32.07Z"/><path d="M79.64,46.26l2.26,2.41-1.34.88-2.14-2.33Z"/><path d="M83.66,28.36a3.74,3.74,0,0,1,2,2.18l-.87.9c-1.12-.41-1.53-1.43-2-2.36C83,28.83,83.34,28.59,83.66,28.36Z"/><path d="M85.76,23.57a11.94,11.94,0,0,1,.76,1.1c.26.44.09.83-.47,1a.65.65,0,0,1-.58-.14,9,9,0,0,1-.76-1Z"/><path d="M85.61,30.54l1.31,1.53c-.37.35-.73.71-1.09,1.07l-1.09-1.7Z"/><path d="M81.9,48.67a11.2,11.2,0,0,1,.64,1.1c.06.17,0,.55-.08.58-.36.13-.84.32-1.12.19s-.53-.65-.78-1Z"/><path d="M80.05,40.23c-.23-.37-.6-.71-.66-1.11s.25-.73.45-1.07a.79.79,0,0,1,.54.15,9.15,9.15,0,0,1,.73,1Z"/><path d="M78.42,47.22a11.53,11.53,0,0,1-.66-1c-.08-.16-.07-.52,0-.55.34-.14.78-.35,1.07-.24s.55.57.81.88Z"/><path d="M191.87,39.28a4.1,4.1,0,0,1,.8-.94c.68-.44,1.31-.11,1.27.66a3.35,3.35,0,0,1-.49,1.08Z"/><path d="M197,36.08a11,11,0,0,1-1,.85.76.76,0,0,1-.55.1c-.17-.34-.44-.77-.35-1.07s.56-.6.86-.9Z"/><path d="M108.46,103.46a12.61,12.61,0,0,1-1.45,1.3,2.81,2.81,0,0,1-1.15.2c-.32-.25-.94-.57-.91-.76a6.34,6.34,0,0,1,3-4.71,1.63,1.63,0,0,1,.64-.09c.43.43,1,.76.61,1.57A22.56,22.56,0,0,0,108.46,103.46Z"/><path d="M105.78,91.15c.35-.2.72-.39,1-.62.5-.37,1-.77,1.45-1.16l1.28,1a7.35,7.35,0,0,1-2.37,3.15,1.52,1.52,0,0,1-1.06,0c-.14,0-.3-.36-.3-.56,0-.66,0-1.32.08-2Z"/><path d="M108.28,89.37c.17-1.09.37-2.17,1.55-2.67a5,5,0,0,0,1.08.87l-1.35,2.8Z"/><path d="M109.83,86.7a9.2,9.2,0,0,1,.61-1,.78.78,0,0,1,.48-.18c.2.31.49.65.48,1a3.18,3.18,0,0,1-.5,1.08A5.23,5.23,0,0,1,109.83,86.7Z"/><path class="cls-1" d="M92,198.22l-1.23-.54.43-.51c.23.39.47.77.7,1.15Z"/><path class="cls-1" d="M86.33,43.57c-1.1,0-1.55-.79-2.06-1.52a.65.65,0,0,1-.1-.53.68.68,0,0,1,1.14-.31c.55.38,1.1.77,1.63,1.18s.51.76,0,1C86.75,43.46,86.53,43.51,86.33,43.57Z"/></g></g></svg>