<svg xmlns="http://www.w3.org/2000/svg" viewBox="0 0 102.59 177.24"><defs><style>.cls-1{fill:#fff;}</style></defs><title>Papegaai3</title><g id="Laag_2" data-name="Laag 2"><g id="Laag_1-2" data-name="Laag 1"><path d="M78.66,161.78a6,6,0,0,0,.33,1.29c.4.78-.07,1.16-.59,1.56-.64-.2-1.27-.4-1.91-.57a1.21,1.21,0,0,0-1.38,1.12A1.92,1.92,0,0,0,77.42,167a.86.86,0,0,0,.52-.44c.17-.65.27-1.33.39-2,.86-.36-.32-.83.52-.44,1.85.86,2.77,2.35,2.48,4.06a2.17,2.17,0,0,1-1.7,1.88,15,15,0,0,1-2.69.11,4.21,4.21,0,0,0-1-.85c-1.07-.49-1.82,0-1.57,1.11a7.42,7.42,0,0,0,.83,1.7c0,.47,0,.93,0,1.4a2,2,0,0,1-1.4,2.13c-1.27.43-2.82-.06-3.86,1.21a1.07,1.07,0,0,1-1.76-.22c-1.9-3-4.76-5-7-7.65a2.81,2.81,0,0,0-1.66-1.09c-1.67,0-2.48-.94-3.2-2.18a3.89,3.89,0,0,0-.83-1.11,12.24,12.24,0,0,0-1.72-1,5.27,5.27,0,0,0-.31,1.26c0,3.12-2.17,4.33-4.58,5.36-.46.2-1.57-.57-1.55-1.07,0-1.14,0-2.3.13-3.43a15.81,15.81,0,0,0,.08-5.53c0-.18-.16-.46-.28-.48a.78.78,0,0,0-.64.18c-1.24,2-2.42,3.93-3.69,5.85-.2.31-.75.43-1.16.55s-1.27-.7-1.19-1.4c.42-3.67.06-7.38.77-11a61.86,61.86,0,0,0,.77-8.29,10,10,0,0,0-.6-2.67c-.17-.65-.47-1.3.12-1.91,1.72-1.79,1.61-3.74.39-5.7-2.44-3.91-3.85-8.43-7-11.92-.4-.44-.79-.49-1.16-.13-.16.15-.37.31-.41.5-.12.68-.13,1.38-.28,2a2.14,2.14,0,0,1-.61,1.17,1.31,1.31,0,0,1-1.19.18c-1.6-1.18-2.27-2.67-1.42-4.13,1.12-1.91,1-4,1.51-6a6.09,6.09,0,0,0-.6-4c-1.78-4-3.64-8-5.43-12a14.32,14.32,0,0,0-3.17-4.52,1.47,1.47,0,0,0-2.23.57,15,15,0,0,0-1.42,4.6c-.53,2.7-1.39,5.34-2.13,8a1.46,1.46,0,0,1-1.8.57,10.63,10.63,0,0,1-1.58-1.32,1.81,1.81,0,0,1,.31-2.91,4.56,4.56,0,0,0,2.44-3.15c.86-3.58,1.37-7.29,3.68-10.39a3,3,0,0,0,.3-2,46.46,46.46,0,0,0-2.59-10c-.5-1.3-1-2.59-1.51-3.89-1.63-4.18-1.82-8.54-1.61-12.94,0-.3.58-.76.94-.81s1.05.28,1.09.53a63.34,63.34,0,0,1,.94,6.85,28.35,28.35,0,0,0,1.14,6.12c1.15,4,3.08,7.72,4.09,11.77.21.83,1.07,1.47,1.52,2.27a3,3,0,0,1,.61,1.82A4.94,4.94,0,0,0,25.35,96c1.31,2.18,2.63,4.36,3.87,6.57,1.12,2,1.8,2.31,3.81,1.92a10.71,10.71,0,0,0,6-3.26,4.22,4.22,0,0,1,3.83-1.09c1.46.15,1.41,0,2.34-1,1.89-2,3.41-4.31,5.76-6,1.44-1,2.32-2.82,3.42-4.3a16.13,16.13,0,0,1,1.54-2.27c2.76-2.58,2.61-3.3.55-6.54a15.73,15.73,0,0,0-2.23-2.66,1.34,1.34,0,0,0-1.29,0,26.58,26.58,0,0,0-2.61,2.26,1.65,1.65,0,0,1-1.88.3c-.68-.26-.76-1-.13-1.68.3-.34.68-.62,1-1s.77-.62.93-1a10.19,10.19,0,0,0,1-3.27,11.27,11.27,0,0,0-2.43-7,1.29,1.29,0,0,0-1.25,0c-1,1-1.79,2.08-2.75,3.06a1.16,1.16,0,0,1-1.14,0c-.28-.27-.54-1-.39-1.22.8-1.4,1.8-2.69,2.59-4.09a4,4,0,0,0,0-4,39.76,39.76,0,0,0-2.6-4.09c-2.45-3.41-4.67-6.89-5.32-11.19-.2-1.34-1-2.58-1.37-3.92-.85-3.18-3.16-5.05-5.83-6.53a8.65,8.65,0,0,0-8-.49c-1.06.47-2.11,1-3.16,1.46-2.47,1.17-3,3.32-2.93,5.8a1.44,1.44,0,0,0,1.51,1c1.51-.58,3-1.09,4.51-1.77a23.66,23.66,0,0,1,6.65-1.74c.72-.1,1.87,1.23,1.62,1.91C30,42.73,29.2,45.4,28,47.91c-1.81,3.85-4.88,6.73-8.09,9.41a3.6,3.6,0,0,1-2,.37c-2.78.14-5.57.14-8.34.35s-5.52.61-8.28.91c-.76.08-1.6-1.32-1.26-2a5.36,5.36,0,0,1,.58-1.23c3-3.53,6-7.09,10.54-8.78a3.17,3.17,0,0,0,2.12-3.21c.1-2.07.51-4.13.79-6.19a4.54,4.54,0,0,1,2.29-3.33c1.38-.83,2.91-1.42,4.33-2.2,5.95-3.27,9.51-1.84,15.11,2.7a12.12,12.12,0,0,1,3.76,5.75c.66,2,1.13,4,1.67,6a17.62,17.62,0,0,0,5.3,8.8c1.32,1.18,2.66,1.19,3.44-.21,1.35-2.41,2.88-4.69,3.61-7.46a37.84,37.84,0,0,1,3.08-7,1.92,1.92,0,0,1,2.22-1.22l-.13-.11a3.73,3.73,0,0,1-.5,2.62,19.47,19.47,0,0,0-2.74,5.49,46.7,46.7,0,0,1-4.95,12,3.44,3.44,0,0,0-.07,3.28,36.51,36.51,0,0,0,2,4.35c.42.69,1.41,1,2.14,1.54.18,1.58,0,3.35.62,4.72a46.29,46.29,0,0,0,4.12,6.39c.13.18.83,0,1.24-.08a.71.71,0,0,0,.44-.51,4.21,4.21,0,0,0,0-2,3.18,3.18,0,0,1,.48-3.83,18.36,18.36,0,0,0,1.24-1.66c.39-.59.2-1.16-.55-1.69-.18-.13-.45-.13-.64-.25-1.35-.9-1.58-1.91-.6-2.74a29.43,29.43,0,0,1,3.31-2.48c.86-.55.6-1.06.17-1.64-.6-.82-.83-1.66,0-2.45,1.49-1.44,3-2.84,4.52-4.27a.88.88,0,0,0,.1-.67.52.52,0,0,0-.38-.32c-1.14-.12-2.29-.12-3.41-.33a.65.65,0,0,1-.41-1.07c1.55-1.68,3.16-3.31,4.72-5a.64.64,0,0,0,.09-.58.84.84,0,0,0-.55-.39c-1.13-.13-2.26-.16-3.37-.36-.2,0-.47-.79-.37-1.11.53-1.64,2.06-2.43,3.18-3.57a1.71,1.71,0,0,0,.14-2.41,2.13,2.13,0,0,1,0-1.89,18.32,18.32,0,0,1,2.47-2.43c1.12-1,1.1-1,0-3.24a1.85,1.85,0,0,1-.08-1.29A3.1,3.1,0,0,1,72,30.33c.49-.49,1-.9,1.53-1.39.67-.68.41-1.21-.67-1.55a4.35,4.35,0,0,1-1.19-.57c-.46-.35-.18-1,.63-1.69,1.26-1,2.56-2,3.77-3.06a2,2,0,0,0,.38-1.22c0-.5-.32-.63-.94-.49a7.59,7.59,0,0,1-2,.3c-.34,0-.7-.49-1-.82a.7.7,0,0,1,0-.67,15.21,15.21,0,0,1,1.73-2.1c1.46-1.4-.62-.66-.72-1.2a37.68,37.68,0,0,1-1-4.58c0-.69,1-1.42,1.44-2.19.08-.14-.46-.88-.54-.85a1.56,1.56,0,0,1-2.23-.88c1-1.83,2-3.65,2.85-5.51,1-2.08,2.35-2.43,4.34-1C79.07,1.41,80.1,2,80,2.94a8.28,8.28,0,0,0,1.14,5.24c-.88,2.41,1.23,5-.36,7.37-.14.21.11.9.38,1.14,1.34,1.21,1.07,2.42.08,3.62a5.31,5.31,0,0,0-1.46,4.41,7,7,0,0,1-.65,2.61c-.18.63-.65,1.2-.13,1.92a2.44,2.44,0,0,1-.23,3.17c-.59.72-1.27,1.36-1.8,2.11a3.9,3.9,0,0,0-.78,1.83,5.59,5.59,0,0,1-1.64,3.71,10.14,10.14,0,0,0-1.26,1.65c-.71,1.17-.33,2.06.63,3a2.2,2.2,0,0,1,.43,3.06c-.72.9-1.55,1.7-2.34,2.54s-.79.81.28,2.08a3.24,3.24,0,0,0,.49.49,2.24,2.24,0,0,1,.1,3.13c-.57.72-1.37,1.29-1.87,2a2.57,2.57,0,0,0-.44,1.85c.55,1.95-.56,3.13-1.84,4.13S66.79,66,67.25,67.57a4.07,4.07,0,0,1-.9,3.88,26.79,26.79,0,0,0-2.09,2.77,3.14,3.14,0,0,0-.59,1.91,9.72,9.72,0,0,1-1.31,6.66c-.93,1.56-.53,3.11.32,4.59,1.86,3.2,3.73,6.38,5.55,9.59a22.66,22.66,0,0,1,1.84,3.73,27.66,27.66,0,0,0,3.78,7.4c2.56,3.56,4.4,7.62,7.46,10.83a1.35,1.35,0,0,0,1.82.26,28.56,28.56,0,0,1,5-2.42,24.74,24.74,0,0,0,9.43-5.7,6.1,6.1,0,0,1,2.42-1.19c1.72-.53,2.86.42,2.6,2.05a32.7,32.7,0,0,1-3.68,10.43c-1.79,3.24-3.65,6.45-5.63,9.58-1.24,1.95-2.42,3.93-3.53,6a33.89,33.89,0,0,1-3.36,4.37l-1.27,1.65a1.83,1.83,0,0,0,.15,2.47c.9.72,1.85,1.36,2.76,2.07a9.2,9.2,0,0,1,3.3,5.15,2.41,2.41,0,0,1-1.83,3.1c-.44.13-.91.14-1.34.28a1.24,1.24,0,0,0-.82,1.62c.58,1.5,1.22,3,1.72,4.51.09.28-.32.77-.58,1.11a.74.74,0,0,1-.65.18c-2.71-1.25-5.4-2.53-8.1-3.8a10.76,10.76,0,0,0-.94-1,.81.81,0,0,0-.67-.07c-.58.22-.64.62-.24,1.12C78.12,161,78.39,161.42,78.66,161.78ZM74.75,118c.32.25.64.52,1,.74a.89.89,0,0,0,.51.12c.18-.32.45-.7.4-1s-.43-.65-.67-1l-.84-1.69a140.31,140.31,0,0,1-7.84-14.55c-2-4.35-4.64-8.44-7-12.63a1.23,1.23,0,0,0-2.15.17,33.27,33.27,0,0,1-6.91,7.63A20.07,20.07,0,0,0,49,98.39c-.93,1.16-.69,2.26.57,2.73a10.87,10.87,0,0,0,1.93.69,15.78,15.78,0,0,1,8.43,4.42,10.57,10.57,0,0,0,3.33,2.38,13.79,13.79,0,0,1,4.39,3.22c1.84,1.71,3.54,3.66,6,4.6Zm6.3,39.74a1.37,1.37,0,0,0-.28-1.8,1.35,1.35,0,0,0-1.08-.37c-.42.09-.42.56-.13,1.06a1.56,1.56,0,0,0,1.59,1l.71.91c.08-.19.28-.43.22-.55C81.86,157.45,81.48,157.39,81.05,157.71Zm5.47-5.48c0-.42.12-.9,0-1.23a6.41,6.41,0,0,0-3.08-2.44c-.07,0-.38.24-.48.43a.77.77,0,0,0,0,.61c.78,1.51,2.24,2,3.73,2.51.15.13.28.28.43.39a.8.8,0,0,0,.31,0Zm-11-7.13c.33-.23.79-.74,1-.66.82.4,1.56,1,2.35,1.45.08,0,.38-.17.5-.32.71-.9.36-2.59-.59-2.92a1.85,1.85,0,0,0-2.27.91C76.34,144.22,76.33,144.86,75.56,145.1Zm-8.28,18c0,.45-.23,1-.07,1.34,1,2.32,2.14,4.6,3.26,6.89a.7.7,0,0,0,.59.24c.47-.07.65-.45.47-1-.59-1.75-1.15-3.52-1.82-5.24a3.26,3.26,0,0,0-2.54-2.12l-.53-1c-.11.23-.36.51-.3.69C66.47,163.39,66.86,163.41,67.28,163.1Zm0-11a2.69,2.69,0,0,1-.53.44c-1.62.66-1.63.66-1,1.3.5.47,1,.94,1.52,1.37a1.76,1.76,0,0,0,1.82.46c.55-.21.38-.74-.53-1.59-.6-.58-1.71-.81-1.37-2,.37-.22.76-.66,1.09-.62,1.11.15,2.2.48,3.3.71.2,0,.61-.07.63-.16.07-.42.22-1,0-1.26a7.53,7.53,0,0,0-4.4-3,1.4,1.4,0,0,0-1.18.34,1.44,1.44,0,0,0-.14,1.22c.25.61.79,1.11,1,1.72C67.64,151.26,67.34,151.7,67.23,152.07ZM27,42.22c.56-.18.74-.51.44-.91a.71.71,0,0,0-.59-.12c-.2,0-.36.23-.54.35-3.07.71-3.06.71-2.48,4a2.79,2.79,0,0,1-.05,1.35,1.73,1.73,0,0,1-.87.93c-.38.15-1.1.17-1.28-.06a23.88,23.88,0,0,1-1.8-2.84c-.3-.52-.62-.59-1.17-.37a3.05,3.05,0,0,0-2.28,3.06c0,.92.23,1.83.31,2.75a1.42,1.42,0,0,1-1.13,1.51c-.88.25-1.85.18-2.72.46a6.11,6.11,0,0,0-3.4,2.22c-.11.15,0,.46,0,.67s.21.44.32.44c1.61,0,3.21-.17,4.81-.22,1.15,0,2.43.34,3.4-.06a9.39,9.39,0,0,0,3.29-2.49,64,64,0,0,0,4.68-6A7,7,0,0,0,27,42.22ZM54.54,141c-.39-2.46.07-3.26,2-3.28a13.2,13.2,0,0,1,3.45.18,25.52,25.52,0,0,1,3,1.51,1.41,1.41,0,0,0,1.19-.41,1.43,1.43,0,0,0,.33-1.22c-.23-.61-.81-1.1-1.06-1.71a1.44,1.44,0,0,1,.21-1.24,1.22,1.22,0,0,1,1.13-.32c1.22.64,2.35,1.44,3.54,2.14,1.79,1.05,3.48,2.47,5.41,3s4.1.14,6.17.13c1,0,1.4-.59,1.13-1.89a3.45,3.45,0,0,1,.07-2.64l1.2.68c1.94,1.1,2.22,1.05,3.24-.6,1.69-2.74,3.17-5.61,5.56-7.9a9.72,9.72,0,0,0,2-3.6c.17-.45-.35-1.22-.68-1.76a1.49,1.49,0,0,0-1.84-.49,9.19,9.19,0,0,0-1.75,1.08,5,5,0,0,1-3.91.87,13.49,13.49,0,0,0-5.43-.45,4.47,4.47,0,0,1-4.81-1.72,38.43,38.43,0,0,0-3-2.86,93.43,93.43,0,0,0-8.42-7.16c-2.28-1.56-4.62-3-6.76-4.79a13.16,13.16,0,0,0-8.94-3.17,14.85,14.85,0,0,1-4.12-.29A4.43,4.43,0,0,0,39,104.15c-1.46,1.22-2.67,2.3-2.55,4.51.07,1.3-.77,2.64-1.15,4a9.35,9.35,0,0,0,.38,6.14,19.2,19.2,0,0,0,5.45,7.87c.44.36.73.18,1.11-.3a5.92,5.92,0,0,0,1.29-3.16,20.53,20.53,0,0,1,2.24-6.51c.8-1.69,3-2.82,4.64-2.14a41.17,41.17,0,0,0,6.58,1.9,6.7,6.7,0,0,1,4.73,3.64,2.53,2.53,0,0,1-.62.3c-1.5.27-2.44-1.12-3.78-1.29s-2.78-.16-4.15-.38a8.73,8.73,0,0,1-1.86-.88c-2.72-1.19-3.65-.83-4.71,2a17.16,17.16,0,0,0-1.47,4.59,8.68,8.68,0,0,1-2,5.07A2.23,2.23,0,0,0,43,132c.39.84.72,1.72,1.16,2.53a2.78,2.78,0,0,0,2.75,1.69c2-.11,3.53.48,4.35,2.63.51,1.37,2.17,1.56,3.43,2.07a22.89,22.89,0,0,0,7.06,6.48,1.34,1.34,0,0,0,1.23-.1,2.25,2.25,0,0,0,.48-1.21,1,1,0,0,0-.17-.64c-1.44-2.16-3.11-4-6-4.18C56.38,141.19,55.46,141.1,54.54,141Zm17.85,3.74c.55-.15.64-.49.3-1-1.34-2-3.13-3.07-5.61-2.51-.2,0-.47.17-.52.32a.84.84,0,0,0,.15.64,6.55,6.55,0,0,0,5.07,2.73A1.75,1.75,0,0,0,72.39,144.76ZM59.53,155c-.27.3-.55.48-.54.64a1.43,1.43,0,0,0,1.06,1.48c.33.07.76-.25,1.11-.45a.9.9,0,0,0-.21-.6C60.5,155.66,60,155.34,59.53,155Zm-2.82,5.06c.14-.16.44-.34.42-.46a7.17,7.17,0,0,0-.41-1.18c-.13.16-.4.35-.38.49A6.16,6.16,0,0,0,56.71,160.05Z"/><path class="cls-1" d="M71.14,7.37a1.56,1.56,0,0,0,2.23.88c.08,0,.62.71.54.85-.44.77-1.47,1.5-1.44,2.19a37.68,37.68,0,0,0,1,4.58c.1.54,2.18-.2.72,1.2a15.21,15.21,0,0,0-1.73,2.1.7.7,0,0,0,0,.67c.27.33.63.8,1,.82a7.59,7.59,0,0,0,2-.3c.62-.14,1,0,.94.49a2,2,0,0,1-.38,1.22c-1.21,1.07-2.51,2.05-3.77,3.06-.81.65-1.09,1.34-.63,1.69a4.35,4.35,0,0,0,1.19.57c1.08.34,1.34.87.67,1.55-.48.49-1,.9-1.53,1.39a3.1,3.1,0,0,0-.82,1.08,1.85,1.85,0,0,0,.08,1.29c1.08,2.21,1.1,2.2,0,3.24a18.32,18.32,0,0,0-2.47,2.43,2.13,2.13,0,0,0,0,1.89,1.71,1.71,0,0,1-.14,2.41c-1.12,1.14-2.65,1.93-3.18,3.57-.1.32.17,1.07.37,1.11,1.11.2,2.24.23,3.37.36a.84.84,0,0,1,.55.39.64.64,0,0,1-.09.58c-1.56,1.67-3.17,3.3-4.72,5a.65.65,0,0,0,.41,1.07c1.12.21,2.27.21,3.41.33a.52.52,0,0,1,.38.32.88.88,0,0,1-.1.67c-1.49,1.43-3,2.83-4.52,4.27-.82.79-.59,1.63,0,2.45.43.58.69,1.09-.17,1.64A29.43,29.43,0,0,0,61,66.89c-1,.83-.75,1.84.6,2.74.19.12.46.12.64.25.75.53.94,1.1.55,1.69a18.36,18.36,0,0,1-1.24,1.66,3.18,3.18,0,0,0-.48,3.83,4.21,4.21,0,0,1,0,2,.71.71,0,0,1-.44.51c-.41.1-1.11.26-1.24.08a46.29,46.29,0,0,1-4.12-6.39c-.65-1.37-.44-3.14-.62-4.72a2,2,0,0,0,2-1.49c2.92-6.74,5.72-13.52,6.71-20.88.44-3.19,1-6.35,2.94-9.08,1.13-1.55,1-3.49,1-5.31,0-.23-.52-.51-.85-.65a.7.7,0,0,0-.58.3c-.52,1.26-.94,2.57-1.5,3.81a4.53,4.53,0,0,1-1.25,1.57c-.25.21-.81.12-1.21.06a.68.68,0,0,1-.4-.52,7.29,7.29,0,0,1,.19-2.66c1.08-2.53,2.38-5,3.54-7.46a5.22,5.22,0,0,0,.47-2,1.31,1.31,0,0,0-1.21-1.36c-.31-3.87,1.3-7.24,3-10.52A38.52,38.52,0,0,1,71.14,7.37ZM69.28,26a2.56,2.56,0,0,0,.54-2.9.62.62,0,0,0-1-.31,9,9,0,0,0-1.16,1.44A6,6,0,0,0,67,28.69a1.17,1.17,0,0,0,.78.67c.53.09.79-.27.89-.79C68.82,27.71,69.07,26.85,69.28,26Z"/><path d="M64.53,22.89a1.31,1.31,0,0,1,1.21,1.36,5.22,5.22,0,0,1-.47,2c-1.16,2.5-2.46,4.93-3.54,7.46a7.29,7.29,0,0,0-.19,2.66.68.68,0,0,0,.4.52c.4.06,1,.15,1.21-.06a4.53,4.53,0,0,0,1.25-1.57c.56-1.24,1-2.55,1.5-3.81a.7.7,0,0,1,.58-.3c.33.14.85.42.85.65,0,1.82.16,3.76-1,5.31-2,2.73-2.5,5.89-2.94,9.08-1,7.36-3.79,14.14-6.71,20.88a2,2,0,0,1-2,1.49c.53-2.21.69-4.59,1.66-6.58,1.72-3.52,2.58-7.3,3.94-10.91a21.48,21.48,0,0,0,1.44-8.67,25.73,25.73,0,0,1,.07-3.4c0-.59-.08-.93-.7-.85a3.83,3.83,0,0,0-1.1.49l-1.19.65.13.11a21,21,0,0,1,2.69-9.69C62.81,27.55,64.35,25.49,64.53,22.89Z"/><path class="cls-1" d="M75.25,172.11a7.42,7.42,0,0,1-.83-1.7c-.25-1.09.5-1.6,1.57-1.11a4.21,4.21,0,0,1,1,.85C76.38,170.81,75.81,171.46,75.25,172.11Z"/><path class="cls-1" d="M78.66,161.78c-.27-.36-.54-.74-.82-1.09-.4-.5-.34-.9.24-1.12a.81.81,0,0,1,.67.07,10.76,10.76,0,0,1,.94,1Z"/><path class="cls-1" d="M61.71,120.07A6.7,6.7,0,0,0,57,116.43a41.17,41.17,0,0,1-6.58-1.9c-1.64-.68-3.84.45-4.64,2.14a20.53,20.53,0,0,0-2.24,6.51,5.92,5.92,0,0,1-1.29,3.16c-.38.48-.67.66-1.11.3a19.2,19.2,0,0,1-5.45-7.87,9.35,9.35,0,0,1-.38-6.14c.38-1.33,1.22-2.67,1.15-4-.12-2.21,1.09-3.29,2.55-4.51a4.43,4.43,0,0,1,4.43-1.05,14.85,14.85,0,0,0,4.12.29,13.16,13.16,0,0,1,8.94,3.17c2.14,1.79,4.48,3.23,6.76,4.79a93.43,93.43,0,0,1,8.42,7.16,38.43,38.43,0,0,1,3,2.86,4.47,4.47,0,0,0,4.81,1.72,13.49,13.49,0,0,1,5.43.45,5,5,0,0,0,3.91-.87,9.19,9.19,0,0,1,1.75-1.08,1.49,1.49,0,0,1,1.84.49c.33.54.85,1.31.68,1.76a9.72,9.72,0,0,1-2,3.6c-2.39,2.29-3.87,5.16-5.56,7.9-1,1.65-1.3,1.7-3.24.6l-1.2-.68.11.11a2.78,2.78,0,0,0-1.8-1.85c-1.44-.65-3-1.21-3.85-2.66a6.82,6.82,0,0,0-5-3.08,6,6,0,0,1-4.18-3.15A11,11,0,0,0,64,122.25c-.11-.09-.68.35-1,.55l.07.09c.41-.41,1-.68.55-1.5a2.49,2.49,0,0,0-2-1.41Z"/><path class="cls-1" d="M54.65,140.91c-1.26-.52-2.92-.71-3.43-2.08-.82-2.15-2.34-2.74-4.35-2.63a2.78,2.78,0,0,1-2.75-1.69c-.44-.81-.77-1.69-1.16-2.53a2.23,2.23,0,0,1,.19-2.55,8.68,8.68,0,0,0,2-5.07,17.16,17.16,0,0,1,1.47-4.59c1.06-2.78,2-3.14,4.71-2a8.73,8.73,0,0,0,1.86.88c1.37.22,2.77.21,4.15.38s2.28,1.56,3.78,1.29a2.53,2.53,0,0,0,.62-.3l-.1-.09c-.35.42-.91.72-.4,1.45A3,3,0,0,0,63,122.89L63,122.8c.05,2,2,3,2.49,4.71a3.26,3.26,0,0,0,3.1,2.23c1.58.17,3.37.16,4.31,1.62,1.73,2.7,4.41,3.76,7.24,4.63.27.08.72-.4,1.09-.62l-.11-.11A3.45,3.45,0,0,0,81,137.9c.27,1.3-.15,1.89-1.13,1.89-2.07,0-4.24.39-6.17-.13s-3.62-1.94-5.41-3c-1.19-.7-2.32-1.5-3.54-2.14a1.22,1.22,0,0,0-1.13.32,1.44,1.44,0,0,0-.21,1.24c.25.61.83,1.1,1.06,1.71a1.43,1.43,0,0,1-.33,1.22,1.41,1.41,0,0,1-1.19.41,25.52,25.52,0,0,0-3-1.51,13.2,13.2,0,0,0-3.45-.18c-1.91,0-2.37.82-2,3.28Z"/><path class="cls-1" d="M73.58,116.44c-2.44-1-4.14-2.9-6-4.61a13.79,13.79,0,0,0-4.39-3.22,10.57,10.57,0,0,1-3.33-2.38,15.78,15.78,0,0,0-8.43-4.42,10.87,10.87,0,0,1-1.93-.69c-1.26-.47-1.5-1.57-.57-2.73a20.07,20.07,0,0,1,2.26-2.6,33.27,33.27,0,0,0,6.91-7.63A1.23,1.23,0,0,1,60.27,88c2.38,4.19,5,8.28,7,12.63a140.31,140.31,0,0,0,7.84,14.55Z"/><path class="cls-1" d="M58.79,39.27,60,38.62a3.83,3.83,0,0,1,1.1-.49c.62-.08.75.26.7.85a25.73,25.73,0,0,0-.07,3.4,21.48,21.48,0,0,1-1.44,8.67c-1.36,3.61-2.22,7.39-3.94,10.91-1,2-1.13,4.37-1.66,6.58C53.94,68,53,67.69,52.53,67a36.51,36.51,0,0,1-2-4.35,3.44,3.44,0,0,1,.07-3.28,46.7,46.7,0,0,0,4.95-12,19.47,19.47,0,0,1,2.74-5.49A3.73,3.73,0,0,0,58.79,39.27Z"/><path class="cls-1" d="M27,42.22a7,7,0,0,1-1.05,4.65,64,64,0,0,1-4.68,6A9.39,9.39,0,0,1,18,55.33c-1,.4-2.25,0-3.4.06-1.6,0-3.2.17-4.81.22-.11,0-.27-.27-.32-.44s-.13-.52,0-.67a6.11,6.11,0,0,1,3.4-2.22c.87-.28,1.84-.21,2.72-.46a1.42,1.42,0,0,0,1.13-1.51c-.08-.92-.28-1.83-.31-2.75a3.05,3.05,0,0,1,2.28-3.06c.55-.22.87-.15,1.17.37a23.88,23.88,0,0,0,1.8,2.84c.18.23.9.21,1.28.06a1.73,1.73,0,0,0,.87-.93,2.79,2.79,0,0,0,.05-1.35c-.58-3.24-.59-3.24,2.48-4C26.5,41.77,26.74,42,27,42.22Z"/><path class="cls-1" d="M54.54,141c.92.08,1.84.17,2.76.23,2.84.18,4.51,2,6,4.18a1,1,0,0,1,.17.64,2.25,2.25,0,0,1-.48,1.21,1.34,1.34,0,0,1-1.23.1,23,23,0,0,1-7.06-6.47Z"/><path class="cls-1" d="M67.23,152.07c.11-.37.41-.81.3-1.1-.24-.61-.78-1.11-1-1.72a1.44,1.44,0,0,1,.14-1.22,1.4,1.4,0,0,1,1.18-.34,7.53,7.53,0,0,1,4.4,3c.2.29,0,.84,0,1.26,0,.09-.43.2-.63.16-1.1-.23-2.19-.56-3.3-.71-.33,0-.72.4-1.09.62Z"/><path class="cls-1" d="M67.17,163.24a3.26,3.26,0,0,1,2.54,2.12c.67,1.72,1.23,3.49,1.82,5.24.18.52,0,.9-.47,1a.7.7,0,0,1-.59-.24c-1.12-2.29-2.22-4.57-3.26-6.89-.16-.36,0-.89.07-1.34Z"/><path class="cls-1" d="M72.39,144.76a1.75,1.75,0,0,1-.61.17,6.55,6.55,0,0,1-5.07-2.73.84.84,0,0,1-.15-.64c0-.15.32-.28.52-.32,2.48-.56,4.27.47,5.61,2.51C73,144.27,72.94,144.61,72.39,144.76Z"/><path class="cls-1" d="M75.56,145.09c.77-.23.78-.87,1-1.53a1.85,1.85,0,0,1,2.27-.91c.95.33,1.3,2,.59,2.92-.12.15-.42.36-.5.32-.79-.47-1.53-1-2.35-1.45-.18-.08-.64.43-1,.66Z"/><path class="cls-1" d="M67.18,152c-.34,1.21.77,1.44,1.37,2,.91.85,1.08,1.38.53,1.59a1.76,1.76,0,0,1-1.82-.46c-.52-.43-1-.9-1.52-1.37-.67-.64-.66-.64,1-1.3a2.69,2.69,0,0,0,.53-.44Z"/><path class="cls-1" d="M86.61,152.12c-1.49-.48-3-1-3.73-2.52a.77.77,0,0,1,0-.61c.1-.19.41-.47.48-.43A6.41,6.41,0,0,1,86.47,151c.17.33,0,.81,0,1.23Z"/><path class="cls-1" d="M78.33,164.54c-.12.66-.22,1.34-.39,2a.86.86,0,0,1-.52.44,1.92,1.92,0,0,1-2.31-1.79,1.21,1.21,0,0,1,1.38-1.12c.64.17,1.27.37,1.91.57Z"/><path class="cls-1" d="M81.15,157.57a1.56,1.56,0,0,1-1.59-1c-.29-.5-.29-1,.13-1.06a1.35,1.35,0,0,1,1.08.37,1.37,1.37,0,0,1,.28,1.8Z"/><path class="cls-1" d="M59.53,155c.47.35,1,.67,1.42,1.07a.9.9,0,0,1,.21.6c-.35.2-.78.52-1.11.45A1.43,1.43,0,0,1,59,155.63C59,155.47,59.26,155.29,59.53,155Z"/><path class="cls-1" d="M56.71,160.05a6.16,6.16,0,0,1-.37-1.15c0-.14.25-.33.38-.49a7.17,7.17,0,0,1,.41,1.18C57.15,159.71,56.85,159.89,56.71,160.05Z"/><path class="cls-1" d="M86.52,152.23l.83.28a.8.8,0,0,1-.31,0c-.15-.11-.28-.26-.43-.38Z"/><path class="cls-1" d="M81.05,157.71c.43-.32.81-.26,1,.22.06.12-.14.36-.22.55l-.71-.91Z"/><path class="cls-1" d="M76,116.86c.24.32.61.62.67,1s-.22.68-.4,1a.89.89,0,0,1-.51-.12c-.34-.22-.66-.49-1-.74Z"/><path class="cls-1" d="M75.13,115.17l.84,1.69L74.75,118l-1.17-1.53Z"/><path class="cls-1" d="M67.28,163.1c-.42.31-.81.29-.94-.13-.06-.18.19-.46.3-.69.17.32.35.64.53,1Z"/><path class="cls-1" d="M26.28,41.54c.18-.12.34-.31.54-.35a.71.71,0,0,1,.59.12c.3.4.12.73-.44.91C26.74,42,26.5,41.77,26.28,41.54Z"/><path d="M69.28,26c-.21.86-.46,1.72-.64,2.58-.1.52-.36.88-.89.79a1.17,1.17,0,0,1-.78-.67,6,6,0,0,1,.68-4.47Z"/><path d="M67.65,24.22a9,9,0,0,1,1.16-1.44.62.62,0,0,1,1,.31,2.56,2.56,0,0,1-.54,2.9Z"/><path d="M81.2,135.37c-.37.22-.82.7-1.09.62-2.83-.87-5.51-1.93-7.24-4.63-.94-1.46-2.73-1.45-4.31-1.62a3.26,3.26,0,0,1-3.1-2.23c-.54-1.74-2.44-2.73-2.49-4.71.35-.2.92-.64,1-.55a11,11,0,0,1,2.35,2.38,6,6,0,0,0,4.18,3.15,6.82,6.82,0,0,1,5,3.08c.88,1.45,2.41,2,3.85,2.66A2.78,2.78,0,0,1,81.2,135.37Z"/><path d="M63,122.89a3,3,0,0,1-1.83-1.46c-.51-.73,0-1,.4-1.45a2.49,2.49,0,0,1,2,1.41C64.08,122.21,63.45,122.48,63,122.89Z"/></g></g></svg>