<svg xmlns="http://www.w3.org/2000/svg" viewBox="0 0 116.79 140.95"><defs><style>.cls-1{fill:#fff;}</style></defs><title>Papegaai1</title><g id="Laag_2" data-name="Laag 2"><g id="Laag_1-2" data-name="Laag 1"><path d="M16.74,49.78c1.86,0,3.71,0,5.56,0a9.49,9.49,0,0,1,5.3,1.44c2.84,1.79,6.13,1.94,9.29,2.53a2,2,0,0,0,2.18-1.35A2.53,2.53,0,0,1,41.26,51a1.92,1.92,0,0,0,2-2.25,3.37,3.37,0,0,1,.86-2.55c4.06-4.76,5.58-10.65,6.76-16.51S54.17,18,54.5,12C55.66,9.38,55.69,6.6,56,3.83A9.84,9.84,0,0,1,57.29.67,1.47,1.47,0,0,1,59.65.52c.62,1,1.1,2,1.74,3,.18.28.81.57,1,.45,1.23-.6,2.37-1.39,3.61-2a2.05,2.05,0,0,1,2.62,1.54c.15,1.61.23,3.22.34,4.84.08,1.15,0,2.54,1.15,3.06.66.3,1.7-.29,2.57-.43a1.6,1.6,0,0,1,1.94,1.45c0,1.65.07,3.21,1.82,4.11A1.39,1.39,0,0,1,77,17.68c-.36,1.89.29,3.68.43,5.51a3.21,3.21,0,0,0,.93,1.73A3.23,3.23,0,0,1,79,28.73C78.52,29.82,78.15,31,79,32c1.49,1.72,1.15,3.36,0,5.05a1.86,1.86,0,0,0,.14,2.51,13,13,0,0,1,.91,1.06,4.76,4.76,0,0,1,0,5.82c-.65,1-1.48,1.77-2.21,2.67a1.64,1.64,0,0,0,.43,1.81c1.14.79,2.34,1.51,3.42,2.37a3.58,3.58,0,0,1,.53,4.45c-1,1.3-2,2.52-3,3.81A2.2,2.2,0,0,0,79,64.11c1.45,2.44.37,4.38-1,6.37-1,1.35-.8,1.84.2,3,4.09,4.73,8.88,8.75,13.34,13.1,2,2,3.88,3.88,6.52,5a9.09,9.09,0,0,1,2.73,2.08,3.14,3.14,0,0,0,3.09,1.07c3.66-.87,6.82.62,10,2.07a6,6,0,0,1,2.5,2.33c.82,1.29.65,2.2-.67,2.7-.85.33-1.71.61-2.55,1a.69.69,0,0,0-.29,1.16c.79,1.13,1.63,2.23,2.4,3.38a16.71,16.71,0,0,1,1,1.82c.54,1,0,2-1.41,2.48-1.61.55-2,1.08-1.66,2.26.52,1.75,1.07,3.5,1.57,5.26a1.48,1.48,0,0,1-1.09,1.53,3.2,3.2,0,0,1-.69,0c-.7,0-1.54-.31-2,0s-.58,1.18-.83,1.81c-.17.43-.29.88-.47,1.3-.42,1-1.08,1.2-2.19.61a7.07,7.07,0,0,1-1.17-.75c-.5-.43-.85-.39-1.1.19-.37.85-.74,1.69-1.12,2.53a2.48,2.48,0,0,1-2,1.73,3,3,0,0,1-2.82-1.63c-1.17-2.77-2.36-5.53-3.47-8.32-.86-2.16-2.2-4.06-3.19-6.13a15.08,15.08,0,0,0-5.59-6c-1.73-1.15-3.71-2-5.32-3.26a17.46,17.46,0,0,0-9-3.37c-1.59-.22-3.42-1-4.64.17-1.44,1.38-3.07,2.92-3,5.23a4.76,4.76,0,0,1-2.18,4.11,4.41,4.41,0,0,0-2,4.15,1.07,1.07,0,0,1-.14.66,29.5,29.5,0,0,0-2.37,3.24,16.56,16.56,0,0,0-1,3.27c-1.7.8-2.62,2.44-3.95,3.65a1.92,1.92,0,0,1-1.3.29,2.25,2.25,0,0,0-2.65,1.62c-.31,1-1.07,1.7-2,1.47-2-.49-4,1.25-6,.15-.23-.13-.91.19-1.14.49-1.09,1.46-2.14,2.21-4,1-.77-.5-1.61.47-2,1.38a3,3,0,0,1-3.25,2c-.9-.09-1.88.34-2.74.15-1.83-.39-2.42.75-3.06,2-.2.38-.69.61-1,1a.9.9,0,0,1-1.25.27c-1.5-1-2.65-1.17-3.6.86-.57,1.22-1.61,1-2.68-.23-.15-.18-.26-.39-.41-.57-.92-1.09-1.54-1.15-2-.22-.64,1.23-1.21,2.51-1.89,3.71a5.23,5.23,0,0,1-1.34,1.54,1.51,1.51,0,0,1-1.27,0,1.42,1.42,0,0,1-.79-1c0-1.14.22-2.29.31-3.44,0-.46-1.14-1.22-1.59-1-1,.48-2,1.1-3.07,1.48a3.32,3.32,0,0,1-3.24-.72c-1.16-.9-1.74-2.74-.84-3.68,2.32-2.46,3.14-5.63,4.36-8.6a40.49,40.49,0,0,1,4.78-9.21A6.88,6.88,0,0,0,11,112.34c1-5,4.35-9.25,4.65-14.48a8,8,0,0,1,.86-2.62c1.11-2.54,2.33-5,3.42-7.57,1-2.33,1.78-4.76,2.86-7.06a49,49,0,0,1,2.83-4.77c1.23-2,.86-2.85-1.33-3.36-4.73-1.11-9.44-2.28-14.16-3.43a1.21,1.21,0,0,0-1.36,1.12c-.11,1.16-.14,2.31-.25,3.47-.07.78-.74,1.47-1.33,1.3a6,6,0,0,1-1.75-.88,2.79,2.79,0,0,1-.81-1.12c-3-7.15-2.88-13.95,2.25-20.2a18.07,18.07,0,0,1,1.82-2.08,3.25,3.25,0,0,1,1.76-.9c2.07-.11,4.16,0,6.24,0ZM110.37,107a8.69,8.69,0,0,0,.77.83s.42-.18.41-.22c-.2-.72-.69-.76-1.29-.51.23-1.13-.37-1.47-1.37-1.41-.22-.62-.26-1.49-.69-1.82-1.29-1-2.74-1.71-4.11-2.56a.77.77,0,0,1-.35-1.17c.24-.35.6-.87.91-.88,1.39,0,2.77.12,4.16.23.92.07,1.84.21,2.76.27.19,0,.4-.21.6-.32-.19-.3-.32-.69-.59-.87-2.27-1.55-4.76-1.51-7.35-1.09a4.38,4.38,0,0,1-3.83-1.2,11.93,11.93,0,0,0-3.26-2.55c-3.78-1.55-6.49-4.32-9.22-7.18A58.29,58.29,0,0,0,82.65,82a3.44,3.44,0,0,0-1.74-1c-1.34,0-2.92-.17-4,.45-1.36.79-2.68,1.74-4.06,2.56-.71.42-.59,1.23-.45,1.87.54,2.47-.3,4-2.81,4.69a1.42,1.42,0,0,0-.83,1A18.7,18.7,0,0,0,69,95c.06.34.55.73.93.89a7.51,7.51,0,0,0,2.65.78c4.18-.06,7.56,1.88,10.85,4.11a37,37,0,0,0,4,2.72c5.32,2.69,7.85,7.64,10.43,12.57.64,1.22.94,2.62,1.58,3.85a11,11,0,0,0,2.25,3.32,43.62,43.62,0,0,0-.44-4.67c-.29-1.35-.9-2.63-1.29-4-.25-.87-.72-2-.4-2.63s1.47-.93,2.3-1.27c.49-.21.59-.45.44-1-.22-.9-.35-2,.55-2.5a3.36,3.36,0,0,0,1.35-2.23c.31-1,1.07-1,2.22-.5.82.4,1.65.75,2.47,1.13C108.93,106.56,109.5,106.92,110.37,107ZM54.14,78.52a3.62,3.62,0,0,0-.76-2.59c-.78-1.14-1.57-2.27-2.33-3.43A1.1,1.1,0,0,1,51.93,71c.68,0,1.36.33,2,.31.27,0,.8-.8.75-.86a6.89,6.89,0,0,1-1.11-7.73c.15-.36-.1-.89-.12-1.35,0-.65-.3-1.53,0-1.92,1.36-1.65,1.63-3.79,2.73-5.55.66-1.05.55-1.44-.5-2.23-1.32-1-2.48-2-2.58-3.84-.07-1.07-.94-1.14-2-.57a14.45,14.45,0,0,0-4.43,4.34c-.64.86-1.38.83-2.38.53-1.7-.52-1.75-.42-2.18.55-.64,1.47-1.24,3-2,4.39-.17.32-.77.5-1.2.56a2.6,2.6,0,0,1-1.31-.22c-3.83-1.58-8.08-1.8-11.72-4.12-1.89-1.21-4.43-1.23-6.78-1.1a27.78,27.78,0,0,1-4.15.26,6.92,6.92,0,0,0-7,3.52,10,10,0,0,1-.94,1,8.41,8.41,0,0,0-1.9,5.79,4.82,4.82,0,0,0,.34,1.33c.07.22.23.57.34.58.4,0,1,0,1.18-.23,1.21-1.37,1.25-3.53,3-4.55a1.65,1.65,0,0,1,1.25-.1,1.76,1.76,0,0,1,.92.92c.41,1.18-.28,2.23-.55,3.33-.43,1.71-.2,2.31,1.16,2.7,3.32,1,6.62,2,10,2.79a10.91,10.91,0,0,0,3.41-.11,2.46,2.46,0,0,1,2.4,1,2.37,2.37,0,0,0,2.49.7c.37-.06,1.12.24,1.13.43.07.63.1,1.59-.27,1.87-5.3,4-7.55,9.79-9.66,15.7a3.78,3.78,0,0,0,.35,3.27,7,7,0,0,1,.41,2c0,2.28-.07,4.55-.08,6.82,0,.09.25.26.37.25a.9.9,0,0,0,.62-.25c1.27-1.81,1-3.93,1.19-6a6.66,6.66,0,0,1,1.92.34c.57.3.95,1,1.48,1.38a2.8,2.8,0,0,0,3.58-.11,8.68,8.68,0,0,1,1.59-1.21A2.49,2.49,0,0,0,35.36,93c0-.46-.08-.92-.11-1.37s-.09-.92-.09-1.38a1.83,1.83,0,0,1,1.64-1.8c2.6-.33,2.67-.32,3.07-2.31.16-.74.5-1.54,1.06-1.54a5.74,5.74,0,0,0,4.19-1.79c.26-.26,1.33,0,1.79.34,1.26.94,1.87,2.6,3.48,3.22.51.2.85.11,1-.47a8,8,0,0,0-.15-4.06c-.2-1.14.69-1.57,1.4-2.1,1.41.76,1.65.66,1.65-.67A1.69,1.69,0,0,0,54.14,78.52ZM75.42,36l.23-.15-.17.12A26,26,0,0,1,72.93,37c-.38.13-1.15.06-1.24-.14A4.08,4.08,0,0,1,71.4,35c0-.4.45-.79.74-1.15a1.37,1.37,0,0,0-.24-2.24,2.62,2.62,0,0,1-.8-1.81c0-2.45-1.35-4.3-2.64-6.21-.67-1-1.07-.14-1.57.1-.21.1-.36.34-.57.38a2.19,2.19,0,0,1-1.28.07A1.3,1.3,0,0,1,64.52,23a50.08,50.08,0,0,1,1.24-6.83,32.25,32.25,0,0,0,.92-8.95c0-.36-.33-.73-.53-1.08s-1.23,0-1.62.84c-.58,1.25-1.08,2.54-1.62,3.8-.81,1.91-1,4.09-2.46,5.69a1.45,1.45,0,0,1-1.17.45c-.32-.09-.61-.61-.73-1a3.49,3.49,0,0,1-.09-1.37c.2-2,.68-4.05-.33-6.23-.52,2.42-1,4.66-1.49,6.9l-1.32,6.11c-.49,2.27-1,4.52-1.47,6.79a42.64,42.64,0,0,1-2.75,9.3,15,15,0,0,0-.9,4,.64.64,0,0,0,.84.74c1.06-.44,2.06-1,3.12-1.45a1.54,1.54,0,0,1,1.28,0c1.3,1.28,2.55,2.63,3.74,4a2.54,2.54,0,0,1,.3,1.33,13,13,0,0,0,.32,3.4,9.86,9.86,0,0,1-.09,7.4,2.06,2.06,0,0,0,.29,1.9c.44.86.79,1.91.2,2.62-1.44,1.74-.39,4.13-1.77,5.87a2.46,2.46,0,0,0-.18,2,6.87,6.87,0,0,1-.63,5.36c-.31.6-.78,1.33-.66,1.89a9,9,0,0,1-2.05,8.4c-.52.6-.33,1.78-.57,2.67-.51,1.9-1.23,2.55-3.43,2.61a2.16,2.16,0,0,0-2.11,1.26c-1.17,2-1.24,2.06-3.84,1.29-.51-.15-.87-.19-1,.43-.27,1.1-.42,2.23-.69,3.33a.76.76,0,0,1-1.14.49c-.63-.25-1.24-.6-1.88-.83-1.1-.41-1.79.1-1.72,1.24.06.93.26,1.85.24,2.77,0,1.77-.62,3.13-2.71,3.38-1.34.16-1.63,1.47-2.21,2.44s-1.5.84-2.27,0a3.87,3.87,0,0,1-.38-.58c-.26-.35-.49-1-.79-1-1.1-.12-.6.87-.75,1.37-.31,1.09-.44,2.23-.79,3.31a1.4,1.4,0,0,1-1.13.59,1.24,1.24,0,0,1-.95-.7,27.61,27.61,0,0,1-.42-2.75c-.19-1.28-.38-1.41-1.83-1.23-.46.06-.91.25-1.37.27a2.69,2.69,0,0,1-2.6-1.89c-.23-1.13-.3-2.3-.57-3.41-.22-.87.3-2-1.14-2.71-.32,6.32-4.55,11.12-6,17-.21.83-1.06,1.5-1.53,2.29A47,47,0,0,0,8.21,122a24.07,24.07,0,0,0-1.08,4.69c0,.16.2.41.35.56s.4.25.47.2c.92-.69,1.81-1.44,2.74-2.12a2.84,2.84,0,0,1,3.79.08,27.45,27.45,0,0,1,1.95,1.94c.33.33.61.7.94,1s.51.08.9-.42c1.77-2.27,2.36-2.21,3.81.29a11,11,0,0,0,.62,1.24c.23.29.74.68.94.59a2.77,2.77,0,0,0,.94-1c.87-1.21.59-2.68.89-4a1.18,1.18,0,0,1,1.51-1A8,8,0,0,0,29,124a2.19,2.19,0,0,1,2.24,1.28c.1.16.35.4.4.37s.46-.29.49-.47c.13-.91.14-1.83.31-2.72a1.67,1.67,0,0,1,.67-1.08,1.54,1.54,0,0,1,1.85.49,4.63,4.63,0,0,1,.43.54c.14.19.21.45.39.57a2.83,2.83,0,0,0,1.2.55c.16,0,.5-.58.54-.92.15-1.13-.27-2.58.72-3.27s1.91.8,2.94,1c.3.06.74-.35,1.07-.6,1.5-1.18,1.25-1.32,2.75.11.32.31.5.82.86,1.05a3.47,3.47,0,0,0,1.24.28c0-.23,0-.45,0-.68a7,7,0,0,1,0-1.37,1.92,1.92,0,0,1,.6-1.14c.67-.45,1.25,0,1.73.49s.91,1,1.39,1.54a.46.46,0,0,0,.45,0,1.06,1.06,0,0,0,.41-.54,8.36,8.36,0,0,0-.86-4.71,1.31,1.31,0,0,1,.5-1.76c.7-.36,1.29.09,1.83.58a5.19,5.19,0,0,0,1.05.62c.07-.22.23-.46.2-.66-.25-1.59-.52-3.18-.82-4.76-.18-1-.06-1.81,1.12-2.07s1.21-1.24,1.68-2a1.23,1.23,0,0,1,1.76-.36c.67.62,1.28,1.3,1.92,1.95.46.46,1.35.15,1.74-.42.92-1.34.38-2.64,0-4A1.76,1.76,0,0,1,63,99.67a1.81,1.81,0,0,0,1.16-1.56A13.79,13.79,0,0,0,64,94.65c-.41-2,.35-3.65,1.15-5.31.68-1.44,2.24-1.47,3.53-1.92a1.55,1.55,0,0,0,.71-2.28c-.34-.61-.8-1.14-1.13-1.75a1.63,1.63,0,0,1,1.35-2.48c.92-.08,1.85,0,2.77-.08,1.61-.16,2.19-1.72,1.11-3-.73-.89-1.58-1.68-2.38-2.51-.32-.33-.87-.62-.92-1-.09-.62-.11-1.57.26-1.9,1.9-1.67,3.94-3.18,5.93-4.76a1.67,1.67,0,0,0,.08-1.9,2.75,2.75,0,0,0-.52-.45,11.68,11.68,0,0,1-1.21-.66,1.7,1.7,0,0,1-.33-2.41c1.8-1.77,4.09-3.05,5.32-5.4a1.89,1.89,0,0,0-.58-2.41c-.59-.36-1.18-.73-1.8-1-1-.52-2.08-1-3.1-1.51a1.59,1.59,0,0,1-.6-2.29c1.13-1.16,2.32-2.26,3.41-3.45a6.81,6.81,0,0,0,1.09-1.71A1.72,1.72,0,0,0,76.6,42c-.46,0-.92.15-1.38.17a1.48,1.48,0,0,1-1.49-1.74C74,38.85,75.63,37.76,75.42,36Zm30.05,82.06c.3-.22.81-.39.88-.67a4.47,4.47,0,0,0-1.58-4.72,1.68,1.68,0,0,0-1.09-.18c-.14,0-.35.31-.39.51a5.28,5.28,0,0,0,1.06,4.35A4,4,0,0,0,105.47,118.05Z"/><path class="cls-1" d="M75.42,36c.21,1.77-1.41,2.86-1.69,4.47a1.48,1.48,0,0,0,1.49,1.74c.46,0,.92-.16,1.38-.17a1.72,1.72,0,0,1,1.55,2.37,6.81,6.81,0,0,1-1.09,1.71C76,47.3,74.78,48.4,73.65,49.56a1.59,1.59,0,0,0,.6,2.29c1,.53,2.08,1,3.1,1.51.62.31,1.21.68,1.8,1a1.89,1.89,0,0,1,.58,2.41c-1.23,2.35-3.52,3.63-5.32,5.4a1.7,1.7,0,0,0,.33,2.41,11.68,11.68,0,0,0,1.21.66,2.75,2.75,0,0,1,.52.45,1.67,1.67,0,0,1-.08,1.9c-2,1.58-4,3.09-5.93,4.76-.37.33-.35,1.28-.26,1.9,0,.37.6.66.92,1,.8.83,1.65,1.62,2.38,2.51,1.08,1.32.5,2.88-1.11,3-.92.1-1.85,0-2.77.08a1.63,1.63,0,0,0-1.35,2.48c.33.61.79,1.14,1.13,1.75a1.55,1.55,0,0,1-.71,2.28c-1.29.45-2.85.48-3.53,1.92C64.36,91,63.6,92.67,64,94.65a13.79,13.79,0,0,1,.11,3.46A1.81,1.81,0,0,1,63,99.67a1.76,1.76,0,0,0-1.06,2.25c.35,1.34.89,2.64,0,4-.39.57-1.28.88-1.74.42-.64-.65-1.25-1.33-1.92-1.95a1.23,1.23,0,0,0-1.76.36c-.47.75-.61,1.76-1.68,2s-1.3,1.06-1.12,2.07c.3,1.58.57,3.17.82,4.76,0,.2-.13.44-.2.66a5.19,5.19,0,0,1-1.05-.62c-.54-.49-1.13-.94-1.83-.58a1.31,1.31,0,0,0-.5,1.76,8.36,8.36,0,0,1,.86,4.71,1.06,1.06,0,0,1-.41.54.46.46,0,0,1-.45,0c-.48-.49-.92-1-1.39-1.54s-1.06-.94-1.73-.49a1.92,1.92,0,0,0-.6,1.14,7,7,0,0,0,0,1.37c0,.23,0,.45,0,.68a3.47,3.47,0,0,1-1.24-.28c-.36-.23-.54-.74-.86-1.05-1.5-1.43-1.25-1.29-2.75-.11-.33.25-.77.66-1.07.6-1-.23-1.8-1.84-2.94-1s-.57,2.14-.72,3.27c0,.34-.38.93-.54.92a2.83,2.83,0,0,1-1.2-.55c-.18-.12-.25-.38-.39-.57a4.63,4.63,0,0,0-.43-.54,1.54,1.54,0,0,0-1.85-.49,1.67,1.67,0,0,0-.67,1.08c-.17.89-.18,1.81-.31,2.72,0,.18-.29.37-.49.47s-.3-.21-.4-.37A2.19,2.19,0,0,0,29,124a8,8,0,0,1-2.06.1,1.18,1.18,0,0,0-1.51,1c-.3,1.33,0,2.8-.89,4a2.77,2.77,0,0,1-.94,1c-.2.09-.71-.3-.94-.59a11,11,0,0,1-.62-1.24c-1.45-2.5-2-2.56-3.81-.29-.39.5-.56.76-.9.42s-.61-.69-.94-1a27.45,27.45,0,0,0-1.95-1.94,2.84,2.84,0,0,0-3.79-.08c-.93.68-1.82,1.43-2.74,2.12-.07,0-.35-.08-.47-.2s-.38-.4-.35-.56A24.07,24.07,0,0,1,8.21,122a47,47,0,0,1,3.06-5.44c.47-.79,1.32-1.46,1.53-2.29,1.49-5.84,5.72-10.64,6-17,1.44.68.92,1.84,1.14,2.71.27,1.11.34,2.28.57,3.41a2.69,2.69,0,0,0,2.6,1.89c.46,0,.91-.21,1.37-.27,1.45-.18,1.64,0,1.83,1.23a27.61,27.61,0,0,0,.42,2.75,1.24,1.24,0,0,0,.95.7,1.4,1.4,0,0,0,1.13-.59c.35-1.08.48-2.22.79-3.31.15-.5-.35-1.49.75-1.37.3,0,.53.63.79,1a3.87,3.87,0,0,0,.38.58c.77.83,1.74.85,2.27,0s.87-2.28,2.21-2.44c2.09-.25,2.66-1.61,2.71-3.38,0-.92-.18-1.84-.24-2.77-.07-1.14.62-1.65,1.72-1.24.64.23,1.25.58,1.88.83a.76.76,0,0,0,1.14-.49c.27-1.1.42-2.23.69-3.33.15-.62.51-.58,1-.43,2.6.77,2.67.75,3.84-1.29a2.16,2.16,0,0,1,2.11-1.26c2.2-.06,2.92-.71,3.43-2.61.24-.89,0-2.07.57-2.67A9,9,0,0,0,57,76.5c-.12-.56.35-1.29.66-1.89a6.87,6.87,0,0,0,.63-5.36,2.46,2.46,0,0,1,.18-2c1.38-1.74.33-4.13,1.77-5.87.59-.71.24-1.76-.2-2.62a2.06,2.06,0,0,1-.29-1.9,9.86,9.86,0,0,0,.09-7.4,13,13,0,0,1-.32-3.4,2.54,2.54,0,0,0-.3-1.33c-1.19-1.39-2.44-2.74-3.74-4a1.54,1.54,0,0,0-1.28,0c-1.06.43-2.06,1-3.12,1.45a.64.64,0,0,1-.84-.74,15,15,0,0,1,.9-4,42.64,42.64,0,0,0,2.75-9.3c.45-2.27,1-4.52,1.47-6.79l1.32-6.11c.48-2.24,1-4.48,1.49-6.9,1,2.18.53,4.21.33,6.23A3.49,3.49,0,0,0,58.55,16c.12.39.41.91.73,1a1.45,1.45,0,0,0,1.17-.45c1.46-1.6,1.65-3.78,2.46-5.69.54-1.26,1-2.55,1.62-3.8.39-.86,1.36-1.31,1.62-.84s.53.72.53,1.08a32.25,32.25,0,0,1-.92,9A50.08,50.08,0,0,0,64.52,23,1.3,1.3,0,0,0,65,24.11,2.19,2.19,0,0,0,66.32,24c.21,0,.36-.28.57-.38.5-.24.9-1.1,1.57-.1,1.29,1.91,2.6,3.76,2.64,6.21a2.62,2.62,0,0,0,.8,1.81,1.37,1.37,0,0,1,.24,2.24c-.29.36-.7.75-.74,1.15a4.08,4.08,0,0,0,.29,1.93c.09.2.86.27,1.24.14A26,26,0,0,0,75.48,36Z"/><path class="cls-1" d="M23.1,94.43a7,7,0,0,0-.41-2,3.78,3.78,0,0,1-.35-3.27C24.45,83.22,26.7,77.4,32,73.43c.37-.28.34-1.24.27-1.87,0-.19-.76-.49-1.13-.43a2.37,2.37,0,0,1-2.49-.7,2.46,2.46,0,0,0-2.4-1,10.91,10.91,0,0,1-3.41.11c-3.35-.81-6.65-1.82-10-2.79-1.36-.39-1.59-1-1.16-2.7.27-1.1,1-2.15.55-3.33a1.76,1.76,0,0,0-.92-.92,1.65,1.65,0,0,0-1.25.1c-1.75,1-1.79,3.18-3,4.55-.22.25-.78.23-1.18.23-.11,0-.27-.36-.34-.58a4.82,4.82,0,0,1-.34-1.33A8.41,8.41,0,0,1,7.13,57a10,10,0,0,0,.94-1,6.92,6.92,0,0,1,7-3.52,27.78,27.78,0,0,0,4.15-.26c2.35-.13,4.89-.11,6.78,1.1,3.64,2.32,7.89,2.54,11.72,4.12a2.6,2.6,0,0,0,1.31.22c.43-.06,1-.24,1.2-.56.73-1.43,1.33-2.92,2-4.39.43-1,.48-1.07,2.18-.55,1,.3,1.74.33,2.38-.53a14.45,14.45,0,0,1,4.43-4.34c1-.57,1.91-.5,2,.57.1,1.87,1.26,2.84,2.58,3.84,1.05.79,1.16,1.18.5,2.23-1.1,1.76-1.37,3.9-2.73,5.55-.31.39,0,1.27,0,1.92,0,.46.27,1,.12,1.35a6.89,6.89,0,0,0,1.11,7.73c0,.06-.48.85-.75.86-.67,0-1.35-.27-2-.31a1.1,1.1,0,0,0-.88,1.48c.76,1.16,1.55,2.29,2.33,3.43a3.62,3.62,0,0,1,.76,2.59l-1.45,1.21c-.71.53-1.6,1-1.4,2.1a8,8,0,0,1,.15,4.06c-.2.58-.54.67-1,.47-1.61-.62-2.22-2.28-3.48-3.22-.46-.34-1.53-.6-1.79-.34a5.74,5.74,0,0,1-4.19,1.79c-.56,0-.9.8-1.06,1.54-.4,2-.47,2-3.07,2.31a1.83,1.83,0,0,0-1.64,1.8c0,.46.05.92.09,1.38s.07.91.11,1.37a2.49,2.49,0,0,1-1.59,2.7,8.68,8.68,0,0,0-1.59,1.21A2.8,2.8,0,0,1,28.6,97c-.53-.41-.91-1.08-1.48-1.38a6.66,6.66,0,0,0-1.92-.34A2.25,2.25,0,0,0,23.1,94.43ZM17.84,57.21a7.13,7.13,0,0,0-.77,1,.71.71,0,0,0,.48,1.08.84.84,0,0,0,.52,0,.73.73,0,0,0,.51-1.07A5.94,5.94,0,0,0,17.84,57.21Z"/><path class="cls-1" d="M109,105.58c-.82-.37-1.65-.72-2.47-1.12-1.15-.55-1.91-.49-2.22.5a3.36,3.36,0,0,1-1.35,2.23c-.9.54-.77,1.6-.55,2.5.15.6,0,.84-.44,1-.83.34-2,.62-2.3,1.27s.15,1.76.4,2.63c.39,1.33,1,2.61,1.29,4a43.62,43.62,0,0,1,.44,4.67A11,11,0,0,1,99.5,120c-.64-1.23-.94-2.63-1.58-3.85-2.58-4.93-5.11-9.88-10.43-12.57a37,37,0,0,1-4-2.72c-3.29-2.23-6.67-4.17-10.85-4.11A7.51,7.51,0,0,1,70,95.92c-.38-.16-.87-.55-.93-.89a18.7,18.7,0,0,1-.26-3.42,1.42,1.42,0,0,1,.83-1C72.11,90,73,88.4,72.41,85.93c-.14-.64-.26-1.45.45-1.87,1.38-.82,2.7-1.77,4.06-2.56,1.07-.62,2.65-.49,4-.45a3.44,3.44,0,0,1,1.74,1,58.29,58.29,0,0,1,5.27,4.49c2.73,2.86,5.44,5.63,9.22,7.18a11.93,11.93,0,0,1,3.26,2.55,4.38,4.38,0,0,0,3.83,1.2c2.59-.42,5.08-.46,7.35,1.09.27.18.4.57.59.87-.2.11-.41.33-.6.32-.92-.06-1.84-.2-2.76-.27-1.39-.11-2.77-.24-4.16-.23-.31,0-.67.53-.91.88a.77.77,0,0,0,.35,1.17c1.37.85,2.82,1.6,4.11,2.56.43.33.47,1.2.69,1.82Z"/><path class="cls-1" d="M23.1,94.43a2.25,2.25,0,0,1,2.1.86c-.21,2,.08,4.15-1.19,6a.9.9,0,0,1-.62.25c-.12,0-.37-.16-.37-.25C23,99,23.07,96.71,23.1,94.43Z"/><path class="cls-1" d="M105.47,118.05a4,4,0,0,1-1.12-.71,5.28,5.28,0,0,1-1.06-4.35c0-.2.25-.51.39-.51a1.68,1.68,0,0,1,1.09.18,4.47,4.47,0,0,1,1.58,4.72C106.28,117.66,105.77,117.83,105.47,118.05Z"/><path class="cls-1" d="M110.26,107.06c.6-.25,1.09-.21,1.29.51,0,0-.36.26-.41.22a8.69,8.69,0,0,1-.77-.83Z"/><path class="cls-1" d="M54.14,78.52a1.69,1.69,0,0,1,.2.54c0,1.33-.24,1.43-1.65.67Z"/><polygon class="cls-1" points="75.48 35.96 75.65 35.84 75.42 35.99 75.48 35.96"/><path class="cls-1" d="M110.37,107c-.87,0-1.44-.4-1.42-1.37l-.06.06c1-.06,1.6.28,1.37,1.41Z"/><path d="M17.84,57.21a5.94,5.94,0,0,1,.74,1,.73.73,0,0,1-.51,1.07.84.84,0,0,1-.52,0,.71.71,0,0,1-.48-1.08A7.13,7.13,0,0,1,17.84,57.21Z"/></g></g></svg>