<svg xmlns="http://www.w3.org/2000/svg" viewBox="0 0 112.47 146.37"><defs><style>.cls-1{fill:#fff;}</style></defs><title>Papegaai2</title><g id="Laag_2" data-name="Laag 2"><g id="Laag_1-2" data-name="Laag 1"><path d="M104.45,143.68c-.4.56-.78,1.14-1.2,1.69a2.3,2.3,0,0,1-2.42.91,14.08,14.08,0,0,1-5.32-3.16c-.62-.66-1.08-.46-2.15.55-.16.16-.3.36-.47.51a2,2,0,0,1-3.3-.79c-.47-1-.81-2.14-1.26-3.2a1.37,1.37,0,0,0-1.78-.49c-.61.33-1.14.79-1.76,1.11a3.16,3.16,0,0,1-3.3-.13,25.25,25.25,0,0,1-3.22-2.6,3.86,3.86,0,0,1-1.07-1.74,68.68,68.68,0,0,1-2.38-19.22A59,59,0,0,0,74,106.07a2.15,2.15,0,0,0-1.75-1.85l-8.95-1.14c-.94-.11-1.5.64-1.42,1.87,0,.89.69,1.76.09,2.66a3,3,0,0,1-.49.45.78.78,0,0,1-1.22,0c-.84-1.08-1.56-2.26-2.44-3.31-.18-.22-.9-.2-1.24,0a3.07,3.07,0,0,0-.9,1,3.15,3.15,0,0,1-2.13,1.58c-.48.06-1.1-1.16-1.18-2.31-.1-1.39-.23-2.78-.26-4.16,0-2.29-.85-2.89-3.36-3.66a1.74,1.74,0,0,0-2.11,1.21,6.92,6.92,0,0,0,.32,4.75c.71,1.45,1.62,2.8,2.4,4.21a2.63,2.63,0,0,1,.35,1.31,1.55,1.55,0,0,1-.59,1.12,1.28,1.28,0,0,1-1.21-.14c-1-1.26-1.88-2.61-2.82-3.92a1.59,1.59,0,0,0-2.39-.24c-1,.94-1.93,2-3,2.86-.29.24-1.12.32-1.27.13-.4-.47-.9-1.27-.74-1.72.87-2.47,2.72-4.25,4.62-6a4.89,4.89,0,0,0,1.45-2.29c1.11-3.55.79-4.13-1.68-5.92a31.44,31.44,0,0,1-5.84-4.9c-1.33-1.58-3.16-2.87-4-4.65S31.33,79,31,77a120.3,120.3,0,0,1-1.4-12.4,13.48,13.48,0,0,1,2-8.63,36.89,36.89,0,0,0,2.86-6.28c.57-1.33.8-2.58-.23-3.89-.28-.35.1-1.27.27-1.9s.45-1.29-.36-1.72l-6.73-3.56,1-1.2c2.28,1.12,4.52.14,6.77-.14a1.44,1.44,0,0,0,.91-.92,15.23,15.23,0,0,0-.34-6.12c0-.23-.75-.44-1.17-.46a14.3,14.3,0,0,0-2.06.11l-1.07-1a11.71,11.71,0,0,1,5.74-2.23c.87-.07,2.11.7,2,1.44a66.55,66.55,0,0,0-.25,7.6c-.05,1.35-.74,2.67-1,4-.32,1.8,1.62,2.72,1.87,4.35.56,3.65,1.35,7.27,1.74,10.93C42.14,60.1,43.12,65,46,69.42a4.43,4.43,0,0,1,.53,2,3.67,3.67,0,0,1-.38,1.28,2.88,2.88,0,0,0-1.39,2.71,1.6,1.6,0,0,0,1.1,1.39c.61.28,1,0,1.21-1,.14-.59.27-1.19.4-1.79,2.31.91,2.95,2.87,3.14,5.09,0,.18-.17.39-.27.58a4.56,4.56,0,0,1-1.17,0c-1-.27-1.25,0-1.16.84A3.19,3.19,0,0,0,49.71,83a3.64,3.64,0,0,0,.53.44c.49.26,1,.16,1.14-.35,0-.19-.59-.55-.91-.83-.07-.9-.13-1.79-.19-2.68a1.56,1.56,0,0,1,1.83.32c3.37,2.79,6.42,6,10.11,8.38A8.74,8.74,0,0,1,64.38,91c.18.27-.06.83-.11,1.25-1.89.88-3.79.48-5.69,0-.58-2.46-.66-2.52-2.33-2.65a7.38,7.38,0,0,1-2-.14c-1.51-.62-1.78.78-2.54,1.38-3.58-1-5-4.6-7.83-6.43a2,2,0,0,1-.67-1.18c-.82-3.43-2.71-6.36-4.48-9.32-2.16-3.62-3.78-7.37-3.8-11.68a10.29,10.29,0,0,0-.37-2,3.17,3.17,0,0,0-.32-.6.75.75,0,0,0-1.13-.37c-.18.08-.43.2-.46.34-.92,4.6-.2,9.2.14,13.78.12,1.6.81,3.16.9,4.76.1,1.89,2,2.46,2.51,4,.07.21,0,.47.12.68a7.53,7.53,0,0,0,1.07,2.46,43.11,43.11,0,0,0,5.19,4.56,55.75,55.75,0,0,0,7.6,4.79c2.85,1.42,6.07,1.93,9.08,3,.38.13,1.24-.38.67-1.31-.19-.31,0-.87.08-1.31,2.55-.75,4.71.16,6.68,1.68.27.21.27.77.4,1.17-1.56.7-3-.77-4.61-.14a1.5,1.5,0,0,0-.59.3c-.08.09,0,.39.09.53a4.66,4.66,0,0,0,4,2c.27,0,.66-.56.77-.92A11,11,0,0,0,67,97.67c.44-.06.89-.1,1.32-.2a12.48,12.48,0,0,0,1.22-.41,3.11,3.11,0,0,0-.36-.51,25,25,0,0,1-2-1.83c-.23-.27-.14-.81-.2-1.23,1.25-.49,2.16.37,3.18.79a.93.93,0,0,0,1.24-1A75.19,75.19,0,0,0,67.91,80c-.31-.82.08-1.26.47-1.8.4.2,1,.29,1.16.61a9.49,9.49,0,0,1,1.56,3.07c1,5.24,2.7,10.28,4.08,15.4.17.63-.33,1.41.33,2,1.63,1.32,1.72,3,1.52,5a55.27,55.27,0,0,0,.16,6.92c.07,2.08.1,4.15.19,6.23.13,2.76.19,5.53.51,8.28.2,1.79,0,3.71,1.21,5.72a71.63,71.63,0,0,0,.42-8.32c.09-2.31.17-4.62.32-6.93a3.06,3.06,0,0,1,.56-1.24c.1-.14.42-.13.61-.24.55-.35,1-.24,1.07.4a84.11,84.11,0,0,1,1.44,14.42,34.66,34.66,0,0,1-.74,4.08,20.58,20.58,0,0,0-.17,3.42,1.24,1.24,0,0,0,.82.85,1.33,1.33,0,0,0,1.14-.42c1.77-2.92,1.88-6.13,1.47-9.4-.19-1.6-.9-3.22-.75-4.77.29-2.82-.27-5.54-.3-8.31a2,2,0,0,1,.38-1.28,1.19,1.19,0,0,1,1.11-.22,3,3,0,0,1,1.14,1.55c.54,4.12,1.06,8.26,1.39,12.4a45.48,45.48,0,0,0,1.71,10.25c0,.18.3.3.48.42.44.29.7.08.73-.6,0-1.39.19-2.78.12-4.15A87.34,87.34,0,0,0,90,118.83a15.31,15.31,0,0,1-.43-4.8,1.24,1.24,0,0,1,.8-.85c.36-.06,1,.2,1.13.46.67,2.19,1.33,4.4,1.8,6.64.94,4.52,2.28,9,2,13.69a12.72,12.72,0,0,0,1.87,6.6,5.05,5.05,0,0,0,2.6,2.19c.58.27,1.68.06,1.75-.42.5-3.43,1.16-6.8.75-10.34-.46-3.91-.74-7.83-1.57-11.69a20.17,20.17,0,0,1-.27-3.4,1.09,1.09,0,0,1,.26-.61c.41.11,1.06.16,1.19.44a30.32,30.32,0,0,1,2.88,9.23,41.54,41.54,0,0,0,3.54,12.6l-1.43,1.4c-.2-.1-.38-.21-.58-.29-1.19-.49-1.57-.33-1.67.76S104.49,142.6,104.45,143.68Z"/><path d="M27.41,38.61a7.88,7.88,0,0,1-4.8-3.74c-.23-.4-.33-.88-.57-1.27-1-1.57-1.82-2-3.41-1.48-1.32.39-2.61.86-3.93,1.24-.12,0-.5-.29-.49-.43a2.92,2.92,0,0,1,.31-1.25c.71-1.16,2.74-1.33,2.65-2.95-.07-1.05-1-2-1.38-3.08-.26-.64-.33-1.35-.55-2-.29-.9-1.19-1.12-2.14-.56a11,11,0,0,0-1.78,1.08A20.19,20.19,0,0,0,6,31.33a1,1,0,0,0,1,1.32c.9,0,1.81-.18,2.71-.12.56,0,.76.55.53,1s-.32,1-.65,1.15A12.18,12.18,0,0,1,3.6,36c-2.51-.1-3.9-1.63-3.54-4,.71-4.7,2.35-8.93,6-12.22a25.54,25.54,0,0,0,2.25-2.61c.37-.44-.08-1.45-.62-1.58-1.56-.37-3.24.12-4.76-.7A2.45,2.45,0,0,1,1.77,12.6,7.22,7.22,0,0,1,5,8.24C8.19,6.46,11.33,4.58,15.11,4c3.4-.54,6.53-2.3,10.05-2.48C27.78.18,30.62,1,33.34.71,35.87.42,38.4.18,40.94,0c3.38-.21,6.29,1.35,9.25,2.62A3.6,3.6,0,0,1,51.74,4c2,3.13,4.5,5.87,6.11,9.27a26.4,26.4,0,0,1,2.76,7.8,16.89,16.89,0,0,0,1,4,10.62,10.62,0,0,1,0,7.45A33.29,33.29,0,0,1,58.14,40L57,39c.07-.46.12-.92.21-1.37.59-2.93,3.25-5.24,2.78-8.43a52.2,52.2,0,0,0-1.95-8.75A38.78,38.78,0,0,0,51,7.1a12.31,12.31,0,0,0-11.7-4.47,28.41,28.41,0,0,1-6.89.2,21.3,21.3,0,0,0-8.19,1,75.93,75.93,0,0,1-10,2.58A17.2,17.2,0,0,0,6.57,9.49a10.31,10.31,0,0,0-1.44,1.44.72.72,0,0,0-.2.61c.17.36.43.92.71,1a24.7,24.7,0,0,0,7.58.18c2.69,1,4.93,0,7.08-1.58a30.66,30.66,0,0,1,3-1.76,5.87,5.87,0,0,1,5.34-.56c2.46,1.13,4.94.9,7.47.77,1.14-.05,2.28-.23,3.43-.27a2.51,2.51,0,0,1,2.17,2.29,20.06,20.06,0,0,1-.36,2c-.3,1.53-.28,1.52.59,2.47.62.67,1.24,1.34,1.83,2s-.06,1.21-.4,1.74c-4.47-1.86-3.35-2.39-6.84.36-.17.13-.46.34-.56.28a6.57,6.57,0,0,1-.93-.74c0-.44-.2-1,0-1.29.65-.94,1.43-1.79,2.17-2.67a6.73,6.73,0,0,0,1.28-1.58,3.44,3.44,0,0,0,0-2c-.06-.26-.68-.55-1.06-.56-2.75,0-5.5,0-8.24,0-.62,0-.89.41-.66.9,1.1,2.34,1.12,4.9,1.6,7.37.16.81.8,1.06,1.48,1.15a17.15,17.15,0,0,0,2,.05c0,.42.12,1.08-.09,1.21-1.92,1.22-3.9,2.35-5.85,3.52A10.17,10.17,0,0,0,24.14,29,2.34,2.34,0,0,0,23.71,31a6,6,0,0,0,1.43,3c1.12,1.12,2.2,2.28,3.29,3.42ZM9.91,21.17a8.12,8.12,0,0,0-1.08.27c-.12,0-.29.32-.25.41.21.49.59.64.89.31a3.62,3.62,0,0,0,.46-1c.85-.06,1.51-.33.46-1C10.06,19.93,9.68,20.61,9.91,21.17Zm-5.56,7a1.66,1.66,0,0,0,1.09-1.43c.1-.5-.11-.8-.68-.82-.1,0-.29.31-.3.48,0,.62,0,1.24,0,1.85-.91.21-.09-.8-.65-.06s-.51,1.95-.17,1.71.42-.7.58-1.09A3.16,3.16,0,0,0,4.35,28.15ZM15.17,18c.13.19.24.4.39.58a10.34,10.34,0,0,1,1.91,2.84A58.92,58.92,0,0,0,20.08,27a1.36,1.36,0,0,0,1.17.39,1.68,1.68,0,0,0,1-.82,2.06,2.06,0,0,0,.31-1.31c-.64-3.16-1.33-6.31-2-9.46-.13-.6-1.2-1.11-1.67-.8-1.14.76-2.26,1.56-3.37,2.37C15.32,17.52,15.27,17.77,15.17,18ZM7.08,23.45c-.12-.14-.23-.39-.37-.4s-.3.2-.45.31c.12.15.23.39.37.41S6.93,23.57,7.08,23.45Z"/><path d="M69,45.33c1.36.25,2.73.45,4.08.76,3.16.74,5.54,2.54,6.28,5.75a29,29,0,0,0,2.18,5.79c.78,1.68,1.49,3.39,2.2,5.09a19.68,19.68,0,0,1,1.68,9.47c-.39,4.28,1,8.19,2.32,12.13a12.38,12.38,0,0,0,3.36,5.17c4.57,4.23,8.45,9.16,13.27,13.15a8.64,8.64,0,0,1,2.1,2.72c1.25,2.46,2.4,5,3.49,7.52a6.26,6.26,0,0,1,.59,2.69c-.17,2.59.66,5,1,7.5.81,6.63,1.64,13.31,0,20a1.48,1.48,0,0,1-1.73.74,8.07,8.07,0,0,1-1.14-.72c-.37-.26-.72-.56-1.08-.84l-.75-2.23,1.43-1.4c.74.38,1.52.11,1.54-.58a80.33,80.33,0,0,0-3-22.53,27.73,27.73,0,0,0-8.62-13.81c-.85-.77-1.67-1.58-2.44-2.43C93.92,97.16,92.19,95,90.28,93a18.93,18.93,0,0,1-4.93-8.18c-.42-1.55-1.1-3-1.46-4.61-.77-3.36-1.64-6.73-.8-10.24a5.29,5.29,0,0,0-.35-3.37c-.73-1.69-1.36-3.43-2.2-5.07-1.57-3.07-3.32-6-4.15-9.46a4.75,4.75,0,0,0-3.3-3.26c-1.68-.63-3.68-.69-4.82-2.42A6.63,6.63,0,0,0,69,45.33Z"/><path d="M58.14,40l-.62,4.82a11.67,11.67,0,0,0-.64,1.21c-.15.39-.36,1.11-.25,1.18.69.39,1.18-.16,1.65-.56a1.82,1.82,0,0,0,.33-.6c1.51-.48,3-1,4.52-1.43a6.49,6.49,0,0,1,5.89.68,6.63,6.63,0,0,1-.75,1.07c-2.9-.34-5.41.8-7.88,2.1a2.74,2.74,0,0,0-1.17,3c.4,1.56.86,3.11,1.19,4.68.09.39-.19.86-.31,1.29-.41-.15-1-.18-1.19-.47a9.9,9.9,0,0,1-1.31-2.41C57,52.81,56,51.85,54,52.05a3.31,3.31,0,0,1-3.4-1.83,5.3,5.3,0,0,1-.93-4.55,19.21,19.21,0,0,0,.58-4.09c.19-2.32.23-4.63-1.13-6.69-1.08-4.71-3-9.15-4.49-13.73.58-.36,1.1-.56,1.73,0,1.44,1.3,1.82,3.11,2.36,4.82,1.38,4.3,2.66,8.64,4,12.94a1.26,1.26,0,0,0,1.61.85c.86-.26,1.74-.49,2.61-.74Z"/><path class="cls-1" d="M106.84,140l.75,2.23-3.14,1.48c0-1.08,0-2.16.14-3.24s.48-1.25,1.67-.76C106.46,139.76,106.64,139.87,106.84,140Z"/><path class="cls-1" d="M58.61,46.08a1.82,1.82,0,0,1-.33.6c-.47.4-1,1-1.65.56-.11-.07.1-.79.25-1.18a11.67,11.67,0,0,1,.64-1.21Z"/><path class="cls-1" d="M60.1,57.43c.12-.43.4-.9.31-1.29-.33-1.57-.79-3.12-1.19-4.68a2.74,2.74,0,0,1,1.17-3c2.47-1.3,5-2.44,7.88-2.1,1.14,1.73,3.14,1.79,4.82,2.42a4.75,4.75,0,0,1,3.3,3.26c.83,3.42,2.58,6.39,4.15,9.46.84,1.64,1.47,3.38,2.2,5.07A5.29,5.29,0,0,1,83.09,70c-.84,3.51,0,6.88.8,10.24.36,1.57,1,3.06,1.46,4.61A18.93,18.93,0,0,0,90.28,93c1.91,2,3.64,4.15,5.48,6.21.77.85,1.59,1.66,2.44,2.43a27.73,27.73,0,0,1,8.62,13.81,80.33,80.33,0,0,1,3,22.53c0,.69-.8,1-1.54.58a41.54,41.54,0,0,1-3.54-12.6,30.32,30.32,0,0,0-2.88-9.23c-.13-.28-.78-.33-1.19-.44a1.09,1.09,0,0,0-.26.61,20.17,20.17,0,0,0,.27,3.4c.83,3.86,1.11,7.78,1.57,11.69.41,3.54-.25,6.91-.75,10.34-.07.48-1.17.69-1.75.42a5.05,5.05,0,0,1-2.6-2.19,12.72,12.72,0,0,1-1.87-6.6c.28-4.7-1.06-9.17-2-13.69-.47-2.24-1.13-4.45-1.8-6.64-.08-.26-.77-.52-1.13-.46a1.24,1.24,0,0,0-.8.85,15.31,15.31,0,0,0,.43,4.8,87.34,87.34,0,0,1,2.08,14.41c.07,1.37-.07,2.76-.12,4.15,0,.68-.29.89-.73.6-.18-.12-.43-.24-.48-.42A45.48,45.48,0,0,1,89,127.32c-.33-4.14-.85-8.28-1.39-12.4a3,3,0,0,0-1.14-1.55,1.19,1.19,0,0,0-1.11.22,2,2,0,0,0-.38,1.28c0,2.77.59,5.49.3,8.31-.15,1.55.56,3.17.75,4.77.41,3.27.3,6.48-1.47,9.4a1.33,1.33,0,0,1-1.14.42,1.24,1.24,0,0,1-.82-.85,20.58,20.58,0,0,1,.17-3.42,34.66,34.66,0,0,0,.74-4.08A84.11,84.11,0,0,0,82.08,115c-.1-.64-.52-.75-1.07-.4-.19.11-.51.1-.61.24a3.06,3.06,0,0,0-.56,1.24c-.15,2.31-.23,4.62-.32,6.93a71.63,71.63,0,0,1-.42,8.32c-1.22-2-1-3.93-1.21-5.72-.32-2.75-.38-5.52-.51-8.28-.09-2.08-.12-4.15-.19-6.23a55.27,55.27,0,0,1-.16-6.92c.2-2,.11-3.64-1.52-5-.66-.54-.16-1.32-.33-2-1.38-5.12-3.11-10.16-4.08-15.4a9.49,9.49,0,0,0-1.56-3.07c-.2-.32-.76-.41-1.16-.61l.07.11a5.09,5.09,0,0,0,0-1.35c-1-3.67-2-7.34-3.09-11A38.28,38.28,0,0,0,61.68,58a1.49,1.49,0,0,0-1.69-.7Zm25.73,47.92a4.35,4.35,0,0,0,.55-1c.18-.79-.32-1.25-1-.91-.32.16-.51.55-.77.84a2.69,2.69,0,0,0-1.1,2.3c0,.29.46.6.76.81.1.06.48-.11.58-.26C85.23,106.53,85.52,105.93,85.83,105.35ZM69.8,56c0,1.12.09,2.23.17,3.35,0,.14.23.35.39.4a.9.9,0,0,0,.67,0c1.3-1.13,1.29-2.52,0-3.3a4.9,4.9,0,0,0-1.29-.34c0-.39.1-.93-.11-1.15a.41.41,0,0,0-.71.34C69,55.55,69.47,55.74,69.8,56Zm7.63,14.57a4.21,4.21,0,0,0-.18-1.3,2.57,2.57,0,0,0-.9-.86c-.43-.29-.83-.13-1,.45a34,34,0,0,0-1.09,4.51c0,.29.93.84,1.51,1a1.23,1.23,0,0,0,1.06-.56A32.81,32.81,0,0,0,77.43,70.54Zm-4-4.2c.38-.14.94-.18,1.1-.45.67-1.12.41-1.88-.79-2.64a.63.63,0,0,0-1.05.37C72.21,65,72.44,65.83,73.45,66.34Zm9.07,32.49c.25-.26.7-.53.71-.8A1.58,1.58,0,0,0,82.68,97a1.64,1.64,0,0,0-1.11-.29c-.53,0-.65,1-.13,1.6A3.33,3.33,0,0,0,82.52,98.83Z"/><path class="cls-1" d="M44.66,21.16c1.48,4.58,3.41,9,4.49,13.73,1.36,2.06,1.32,4.37,1.13,6.69a19.21,19.21,0,0,1-.58,4.09,5.3,5.3,0,0,0,.93,4.55A3.31,3.31,0,0,0,54,52.05c1.93-.2,3,.76,3.57,2.5A9.9,9.9,0,0,0,58.91,57c.21.29.78.32,1.19.47L60,57.32A9.33,9.33,0,0,0,61.75,63,24.18,24.18,0,0,1,64.28,70c.7,2.81,1.31,5.72,3,8.18.15.22.77.11,1.18.16l-.07-.11c-.39.54-.78,1-.47,1.8a75.19,75.19,0,0,1,3.47,13.3.93.93,0,0,1-1.24,1c-1-.42-1.93-1.28-3.18-.79l.1.11c-.75-1.74-.88-1.8-2.89-1.46l.1.06c0-.42.29-1,.11-1.25a8.74,8.74,0,0,0-2.16-2.66c-3.69-2.42-6.74-5.59-10.11-8.38a1.56,1.56,0,0,0-1.83-.32l.08.09c.1-.19.29-.4.27-.58-.19-2.22-.83-4.18-3.14-5.09l.08.11c-.15-1.62-.15-1.62-1.5-1.48l.1,0a3.67,3.67,0,0,0,.38-1.28,4.43,4.43,0,0,0-.53-2C43.12,65,42.14,60.1,41.59,55c-.39-3.66-1.18-7.28-1.74-10.93-.25-1.63-2.19-2.55-1.87-4.35.23-1.36.92-2.68,1-4a66.55,66.55,0,0,1,.25-7.6c.12-.74-1.12-1.51-2-1.44a11.71,11.71,0,0,0-5.74,2.23c-.26.32-.55.62-.78,1-.1.14-.14.51-.09.53.33.16.74.42,1,.33s.6-.52.9-.79a14.3,14.3,0,0,1,2.06-.11c.42,0,1.13.23,1.17.46a15.23,15.23,0,0,1,.34,6.12,1.44,1.44,0,0,1-.91.92c-2.25.28-4.49,1.26-6.77.14-1.09-1.14-2.17-2.3-3.29-3.42a6,6,0,0,1-1.43-3A2.34,2.34,0,0,1,24.14,29a10.17,10.17,0,0,1,3.55-3.16c1.95-1.17,3.93-2.3,5.85-3.52.21-.13.07-.79.09-1.21l-.07.07c.62.24,1.3.45,1.68-.27.14-.25-.17-.74-.28-1.12l.06-.07a6.57,6.57,0,0,0,.93.74c.1.06.39-.15.56-.28,3.49-2.75,2.37-2.22,6.84-.36l-.07-.1c0,1,.57,1.42,1.49,1.49ZM29.13,33.22c-.17-.33-.33-.61-.49-.89-.14.14-.41.32-.39.43a3.9,3.9,0,0,0,.41.88Z"/><path class="cls-1" d="M60,94.92c0,.44-.27,1-.08,1.31.57.93-.29,1.44-.67,1.31-3-1.06-6.23-1.57-9.08-3a55.75,55.75,0,0,1-7.6-4.79,43.11,43.11,0,0,1-5.19-4.56,7.53,7.53,0,0,1-1.07-2.46c-.08-.21,0-.47-.12-.68-.53-1.51-2.41-2.08-2.51-4-.09-1.6-.78-3.16-.9-4.76-.34-4.58-1.06-9.18-.14-13.78,0-.14.28-.26.46-.34a.75.75,0,0,1,1.13.37,3.17,3.17,0,0,1,.32.6,10.29,10.29,0,0,1,.37,2c0,4.31,1.64,8.06,3.8,11.68,1.77,3,3.66,5.89,4.48,9.32a2,2,0,0,0,.67,1.18c2.86,1.83,4.25,5.47,7.83,6.43l-.06-.1c-.05,1,.42,1.56,1.49,1.49l-.1-.06c.09.2.13.5.29.6a13.5,13.5,0,0,0,6.14,2.48c.2,0,.42-.17.63-.26Z"/><path class="cls-1" d="M67.07,97.77c-.13-.4-.13-1-.4-1.17-2-1.52-4.13-2.43-6.68-1.68l.09.06a5.53,5.53,0,0,0-.29-1.55,6.83,6.83,0,0,0-1.11-1.32l-.1.13c1.9.44,3.8.84,5.69,0l-.1-.06c.72,1.65.72,1.65,2.89,1.46l-.1-.11c.06.42,0,1,.2,1.23a25,25,0,0,0,2,1.83,3.11,3.11,0,0,1,.36.51,12.48,12.48,0,0,1-1.22.41c-.43.1-.88.14-1.32.2Z"/><path class="cls-1" d="M51.69,90.83c.76-.6,1-2,2.54-1.38a7.38,7.38,0,0,0,2,.14c1.67.13,1.75.19,2.33,2.65l.1-.13c-1.34-.24-2.72-.39-4-.75-.9-.25-1.18.35-1.63.8l.1.06c.49-1.51.46-1.58-.83-1.63a2.6,2.6,0,0,0-.66.14Z"/><path class="cls-1" d="M67,97.67a11,11,0,0,1-.24,1.91c-.11.36-.5.91-.77.92a4.66,4.66,0,0,1-4-2c-.1-.14-.17-.44-.09-.53a1.5,1.5,0,0,1,.59-.3c1.56-.63,3.05.84,4.61.14Z"/><path class="cls-1" d="M49.71,83A3.23,3.23,0,0,1,48,80.5c-.09-.88.2-1.11,1.16-.84a4.56,4.56,0,0,0,1.17,0l-.08-.09c.06.89.12,1.78.19,2.68C50.21,82.51,50,82.76,49.71,83Z"/><path class="cls-1" d="M47.49,74c-.13.6-.26,1.2-.4,1.79-.22,1-.6,1.27-1.21,1a1.6,1.6,0,0,1-1.1-1.39,2.88,2.88,0,0,1,1.39-2.71l-.1,0c.08,1.62.08,1.62,1.5,1.48Z"/><path class="cls-1" d="M50.47,82.27c.32.28,1,.64.91.83-.12.51-.65.61-1.14.35a3.64,3.64,0,0,1-.53-.44C50,82.76,50.21,82.51,50.47,82.27Z"/><path class="cls-1" d="M57,39c-.87.25-1.75.48-2.61.74a1.26,1.26,0,0,1-1.61-.85c-1.39-4.3-2.67-8.64-4-12.94-.54-1.71-.92-3.52-2.36-4.82-.63-.57-1.15-.37-1.73,0l.11.08c0-.51.62-.92,0-1.56s-1,0-1.51.07l.07.1c.34-.53,1-1,.4-1.74s-1.21-1.37-1.83-2c-.87-1-.89-.94-.59-2.47a20.06,20.06,0,0,0,.36-2,2.51,2.51,0,0,0-2.17-2.29c-1.15,0-2.29.22-3.43.27-2.53.13-5,.36-7.47-.77a5.87,5.87,0,0,0-5.34.56,30.66,30.66,0,0,0-3,1.76c-2.15,1.55-4.39,2.54-7.08,1.58a24.7,24.7,0,0,1-7.58-.18c-.28,0-.54-.6-.71-1a.72.72,0,0,1,.2-.61A10.31,10.31,0,0,1,6.57,9.49,17.2,17.2,0,0,1,14.2,6.37,75.93,75.93,0,0,0,24.25,3.79a21.3,21.3,0,0,1,8.19-1,28.41,28.41,0,0,0,6.89-.2A12.31,12.31,0,0,1,51,7.1a38.78,38.78,0,0,1,7,13.39A52.2,52.2,0,0,1,60,29.24c.47,3.19-2.19,5.5-2.78,8.43C57.14,38.12,57.09,38.58,57,39Z"/><path class="cls-1" d="M33.63,21.14a17.15,17.15,0,0,1-2-.05c-.68-.09-1.32-.34-1.48-1.15-.48-2.47-.5-5-1.6-7.37-.23-.49,0-.89.66-.9,2.74,0,5.49,0,8.24,0,.38,0,1,.3,1.06.56a3.44,3.44,0,0,1,0,2,6.73,6.73,0,0,1-1.28,1.58c-.74.88-1.52,1.73-2.17,2.67-.2.29,0,.85,0,1.29l-.06.07c-1.38,0-1.38,0-1.4,1.39Z"/><path class="cls-1" d="M15.17,18c.1-.19.15-.44.3-.56,1.11-.81,2.23-1.61,3.37-2.37.47-.31,1.54.2,1.67.8.69,3.15,1.38,6.3,2,9.46a2.06,2.06,0,0,1-.31,1.31,1.68,1.68,0,0,1-1,.82A1.36,1.36,0,0,1,20.08,27a58.92,58.92,0,0,1-2.61-5.65,10.34,10.34,0,0,0-1.91-2.84C15.41,18.36,15.3,18.15,15.17,18Z"/><path class="cls-1" d="M4.35,28.15a3.16,3.16,0,0,1-.12.64c-.16.39-.28.88-.58,1.09s-.33-1.06.17-1.71-.26.27.65.06Z"/><path class="cls-1" d="M4.47,28.23c0-.61,0-1.23,0-1.85,0-.17.2-.48.3-.48.57,0,.78.32.68.82a1.66,1.66,0,0,1-1.09,1.43Z"/><path class="cls-1" d="M9.91,21.17c-.23-.56.15-1.24.48-1,1,.71.39,1-.46,1Z"/><path class="cls-1" d="M9.93,21.19a3.62,3.62,0,0,1-.46,1c-.3.33-.68.18-.89-.31,0-.09.13-.37.25-.41a8.12,8.12,0,0,1,1.08-.27Z"/><path class="cls-1" d="M7.08,23.45c-.15.12-.31.33-.45.32s-.25-.26-.37-.41c.15-.11.31-.33.45-.31S7,23.31,7.08,23.45Z"/><path d="M68.45,78.3c-.41,0-1,.06-1.18-.16-1.68-2.46-2.29-5.37-3-8.18A24.18,24.18,0,0,0,61.75,63,9.33,9.33,0,0,1,60,57.32a1.49,1.49,0,0,1,1.69.7,38.28,38.28,0,0,1,3.69,7.92c1,3.67,2.09,7.34,3.09,11A5.09,5.09,0,0,1,68.45,78.3Z"/><path d="M77.43,70.54a32.81,32.81,0,0,1-.59,3.29,1.23,1.23,0,0,1-1.06.56c-.58-.21-1.55-.76-1.51-1a34,34,0,0,1,1.09-4.51c.16-.58.56-.74,1-.45a2.57,2.57,0,0,1,.9.86A4.21,4.21,0,0,1,77.43,70.54Z"/><path d="M73.45,66.34c-1-.51-1.24-1.32-.74-2.72a.63.63,0,0,1,1.05-.37c1.2.76,1.46,1.52.79,2.64C74.39,66.16,73.83,66.2,73.45,66.34Z"/><path d="M69.68,56.07a4.51,4.51,0,0,1,1.3.33c1.34.78,1.35,2.17,0,3.3a.9.9,0,0,1-.67,0c-.16,0-.38-.26-.39-.4-.08-1.12-.12-2.23-.17-3.35Z"/><path d="M82.52,98.83a3.33,3.33,0,0,1-1.08-.55c-.52-.57-.4-1.57.13-1.6a1.64,1.64,0,0,1,1.11.29A1.58,1.58,0,0,1,83.23,98C83.22,98.3,82.77,98.57,82.52,98.83Z"/><path d="M85.83,105.35c-.31.58-.6,1.18-1,1.74-.1.15-.48.32-.58.26-.3-.21-.74-.52-.76-.81a2.69,2.69,0,0,1,1.1-2.3Z"/><path d="M69.8,56c-.33-.23-.85-.42-.93-.72a.41.41,0,0,1,.71-.34c.21.22.08.76.11,1.16Z"/><path d="M84.64,104.24c.26-.29.45-.68.77-.84.65-.34,1.15.12,1,.91a4.35,4.35,0,0,1-.55,1Z"/><path d="M67.06,93.6c-2.17.19-2.17.19-2.89-1.46C66.18,91.8,66.31,91.86,67.06,93.6Z"/><path d="M29.13,33.22l-.47.42a3.9,3.9,0,0,1-.41-.88c0-.11.25-.29.39-.43Z"/><path d="M32.54,29.88c-.3.27-.56.69-.9.79s-.71-.17-1-.33c-.05,0,0-.39.09-.53.23-.34.52-.64.78-1Z"/><path d="M33.56,21.21c0-1.39,0-1.39,1.4-1.39.11.38.42.87.28,1.12C34.86,21.66,34.18,21.45,33.56,21.21Z"/><path d="M43.28,19.75c.49-.05.85-.78,1.51-.07s0,1.05,0,1.56C43.85,21.17,43.29,20.73,43.28,19.75Z"/><path d="M47.57,74.12c-1.42.14-1.42.14-1.5-1.48C47.42,72.5,47.42,72.5,47.57,74.12Z"/><path d="M53,92.16c.45-.45.73-1,1.63-.8,1.31.36,2.69.51,4,.75a6.83,6.83,0,0,1,1.11,1.32A5.53,5.53,0,0,1,60.08,95c-.21.09-.43.28-.63.26a13.5,13.5,0,0,1-6.14-2.48C53.15,92.66,53.11,92.36,53,92.16Z"/><path d="M51.63,90.73a2.6,2.6,0,0,1,.66-.14c1.29,0,1.32.12.83,1.63C52.05,92.29,51.58,91.77,51.63,90.73Z"/></g></g></svg>