<svg xmlns="http://www.w3.org/2000/svg" viewBox="0 0 49.4 93.1"><defs><style>.cls-1{fill:#fff;}</style></defs><title>Plant2</title><g id="Laag_2" data-name="Laag 2"><g id="Laag_1-2" data-name="Laag 1"><path d="M36.57,50.36a26.92,26.92,0,0,1,2.68,2A2.66,2.66,0,0,1,39.77,56c-.91,1.55-.73,1.64.59,2.75a39.37,39.37,0,0,1,3,2.76c.25.26.17.83.24,1.26-1,.6-1.92-.09-2.88,0a1.43,1.43,0,0,0-1.21-1.39.71.71,0,0,0-1,.6.63.63,0,0,0,.37.47c.64.1,1.3.13,2,.19a4.55,4.55,0,0,0,1.65,3.43.78.78,0,0,0,.62.18.57.57,0,0,0,.36-.43c0-1.05,0-2.1.05-3.16,2,.23,2.59,1.76,2.71,3.42a5.31,5.31,0,0,1-.63,2.62A3,3,0,0,0,45.76,72c.86,1.36,1.54,2.84,2.29,4.28A2.57,2.57,0,0,1,48,78.88a3.36,3.36,0,0,0,.25,3.9A7.76,7.76,0,0,1,49,89.43c-.1.39-.53.71-.87,1s-1.31.13-1.79-.47c-.14-.18-.24-.4-.38-.58-.92-1.17-1.46-1.41-2.2-1a1.9,1.9,0,0,0-1.16,1.56,22.93,22.93,0,0,1-.47,2.71c0,.19-.32.48-.47.47-.4,0-1-.11-1.14-.37-.4-.82-.58-1.74-.9-2.6a1.86,1.86,0,0,0-1.36-1.4A2.69,2.69,0,0,1,36,86.44c-.09-.45-.15-.91-.27-1.36s-1-7.37-1-7.77c.13-.88-.57-1.17-1.1-1.58-1.77-1.39-1.75-1.38-1.12-3.35a15.39,15.39,0,0,0,.68-2.65,1.56,1.56,0,0,0-.55-1.1A3.48,3.48,0,0,0,31.45,68a2.79,2.79,0,0,1-2.06-3.18c.22-1.9-.58-2.92-2.37-3.6-1.26-.48-1.48-1.58-1-2.89.31-.87.66-1.72,1-2.57a.71.71,0,0,0-.54-1.07c-.44-.12-.89-.2-1.33-.32-2.64-.72-3.58-2.16-2.73-4.48a29,29,0,0,1,1.89-3.67c.48-.9.46-1.59,0-1.86a2.11,2.11,0,0,0-1.91,0,17.56,17.56,0,0,1-2.66.67c-1.18.2-2-.87-1.79-2.25a9,9,0,0,1,.37-1.32.88.88,0,0,0-.45-1.19c-1.62-.74-2.62-1.8-2-3.73-1.43-1.92-.15-4.1-.55-6.12a1.85,1.85,0,0,0-1.82-1.61c-.92.07-1.83.21-2.75.23A2,2,0,0,1,9,27.18c.07-1.59,1.42-3.26.42-4.68-.89-1.26-2.47-2-3.72-3-.35-.29-.63-.67-1-1a1.77,1.77,0,0,1,.84-2.79,20.94,20.94,0,0,0,2.66-.78,3.71,3.71,0,0,0,1.32-1.52,2.51,2.51,0,0,0-1.05-3C7,9.82,5.47,9.33,4,8.74A20.9,20.9,0,0,1,1.47,7.57a2.93,2.93,0,0,1-1-4.21c.48-.79,1-1.54,1.58-2.28A2.81,2.81,0,0,1,5.79.44,12.85,12.85,0,0,1,9.94,5a3.57,3.57,0,0,0,.73,1.17,1.79,1.79,0,0,0,1.17.36,21.23,21.23,0,0,1,2.72-.27,4.4,4.4,0,0,1,4.23,3.91,16.59,16.59,0,0,1,.08,3.45c-.32,3.55-.35,3.56,2.39,4.33.67.18,1.38.22,2,.42C26.79,19.46,28,21.65,27,25.32a1.35,1.35,0,0,1-1,.83c-1.37,0-2.74-.21-4.12-.28-.92-.05.17-.17-.37.58a1.19,1.19,0,0,0,.18,1.13,2,2,0,0,0,1.19.58c2.44.28,4.26,1.65,6,3.23,1.22,1.1,1.3,2,.26,3.6-.25.39-.63.7-.85,1.09a2.29,2.29,0,0,0,.65,2.47c1.22.68,2.46,1.31,3.68,2,.6.33,1.16.77,1.77,1.08a4.52,4.52,0,0,1,2.52,4.57,7,7,0,0,1-.29,1.34c-2.22-.08-3.38-2.06-5.17-2.9-.52-.24-.87-.33-1.12.19a.62.62,0,0,0,.09.6C32.59,46.9,33.93,49.44,36.57,50.36ZM12.76,23.67a2.82,2.82,0,0,0,.52-.1c.1,0,.16-.15.23-.23l-.66.42c-.23.37-.46.75-.7,1.12l.43.12Zm19.57,35a8.52,8.52,0,0,1,.42,1.9c0,1.12-.2,2.25-.27,3.38,0,.17.17.35.26.52.35-.22.86-.36,1-.68a15.92,15.92,0,0,0,1-2.54c.28-.9-.11-1.5-1.17-2l-1.19-.61c-1.63-.65-.52-1.91-.64-2.89-.07-.63-.32-.87-.85-.69-.2.07-.47.1-.58.25a4.14,4.14,0,0,0-.64,1.21c-.41,1.51-.28,1.8,1.06,1.6C31.56,57.93,32,58,32.33,58.64ZM23.68,23.37c.35-.22.93-.39,1-.69a1.28,1.28,0,0,0-.48-1.13c-1.49-.56-3-1-4.56-1.42a.7.7,0,0,0-.52.4c0,.4-.1,1,.12,1.18C20.57,22.62,21.94,23.52,23.68,23.37ZM14.49,11.19A12.43,12.43,0,0,0,15.14,13a1.16,1.16,0,0,0,1.08.05,2.25,2.25,0,0,0-.75-3.7C14.93,9.14,14.52,9.66,14.49,11.19ZM6.31,6.7c.27-.3.79-.62.77-.91A3.12,3.12,0,0,0,5.17,3.13a1.38,1.38,0,0,0-1.8.32,1.64,1.64,0,0,0-.1,1.9A3.66,3.66,0,0,0,6.31,6.7ZM26.23,51.51a6.66,6.66,0,0,0,1.63-1,2,2,0,0,0-.16-2.47.62.62,0,0,0-.48-.15A2.39,2.39,0,0,0,25.62,51C25.72,51.19,26,51.29,26.23,51.51ZM10.94,17.88c-.24-.29-.46-.79-.74-.82A3.17,3.17,0,0,0,9,17.45c.16.41.22,1,.52,1.2C10,19.07,10.8,18.59,10.94,17.88Zm34.43,59c.1-.16.3-.33.27-.45a.77.77,0,0,0-.35-.52c-.17-.08-.41,0-.62,0Zm-8.24-7.61a6.66,6.66,0,0,0,.44-1.17c0-.16-.2-.37-.32-.55a7.34,7.34,0,0,0-.45,1.18C36.77,68.92,37,69.13,37.13,69.31Zm-1.52,2.32.3.44c.13-.12.35-.23.36-.37s-.17-.29-.27-.44Z"/><path class="cls-1" d="M36.57,50.36c-2.64-.92-4-3.46-6.17-5a.62.62,0,0,1-.09-.6c.25-.52.6-.43,1.12-.19,1.79.84,3,2.82,5.17,2.9Z"/><path class="cls-1" d="M23.68,23.37c-1.74.15-3.11-.75-4.44-1.66-.22-.14-.16-.78-.12-1.18a.7.7,0,0,1,.52-.4c1.53.43,3.07.86,4.56,1.42a1.28,1.28,0,0,1,.48,1.13C24.61,23,24,23.15,23.68,23.37Z"/><path class="cls-1" d="M32.4,58.57l1.19.61c1.06.54,1.45,1.14,1.17,2a15.92,15.92,0,0,1-1,2.54c-.17.32-.68.46-1,.68-.09-.17-.27-.35-.26-.52.07-1.13.26-2.26.27-3.38a8.52,8.52,0,0,0-.42-1.9Z"/><path class="cls-1" d="M14.49,11.19c0-1.53.44-2,1-1.84a2.25,2.25,0,0,1,.75,3.7A1.16,1.16,0,0,1,15.14,13,12.43,12.43,0,0,1,14.49,11.19Z"/><path class="cls-1" d="M6.31,6.7a3.66,3.66,0,0,1-3-1.35,1.64,1.64,0,0,1,.1-1.9,1.38,1.38,0,0,1,1.8-.32A3.12,3.12,0,0,1,7.08,5.79C7.1,6.08,6.58,6.4,6.31,6.7Z"/><path class="cls-1" d="M26.23,51.51c-.27-.22-.51-.32-.61-.51a2.39,2.39,0,0,1,1.6-3.07.62.62,0,0,1,.48.15,2,2,0,0,1,.16,2.47A6.66,6.66,0,0,1,26.23,51.51Z"/><path class="cls-1" d="M32.33,58.64c-.38-.6-.77-.71-1.58-.59-1.34.2-1.47-.09-1.06-1.6a4.14,4.14,0,0,1,.64-1.21c.11-.15.38-.18.58-.25.53-.18.78.06.85.69.12,1-1,2.24.64,2.89Z"/><path class="cls-1" d="M40.73,62.82c1-.11,1.92.58,2.88,0l-.09-.09c0,1.06,0,2.11-.05,3.16a.57.57,0,0,1-.36.43.78.78,0,0,1-.62-.18,4.55,4.55,0,0,1-1.65-3.43Z"/><path class="cls-1" d="M10.94,17.88c-.14.71-.95,1.19-1.47.77-.3-.24-.36-.79-.52-1.2a3.17,3.17,0,0,1,1.25-.39C10.48,17.09,10.7,17.59,10.94,17.88Z"/><path class="cls-1" d="M45.37,76.92l-.7-1c.21,0,.45-.09.62,0a.77.77,0,0,1,.35.52C45.67,76.59,45.47,76.76,45.37,76.92Z"/><path class="cls-1" d="M12.76,23.67,12.58,25l-.43-.12c.24-.37.47-.75.7-1.12Z"/><path class="cls-1" d="M37.13,69.31c-.12-.18-.36-.39-.33-.54a7.34,7.34,0,0,1,.45-1.18c.12.18.35.39.32.55A6.66,6.66,0,0,1,37.13,69.31Z"/><path class="cls-1" d="M40.84,62.69c-.65-.06-1.31-.09-2-.19a.63.63,0,0,1-.37-.47.71.71,0,0,1,1-.6,1.43,1.43,0,0,1,1.21,1.39Z"/><path class="cls-1" d="M35.61,71.63l.39-.37c.1.15.29.31.27.44s-.23.25-.36.37Z"/><path class="cls-1" d="M12.85,23.76l.66-.42c-.07.08-.13.19-.23.23a2.82,2.82,0,0,1-.52.1Z"/></g></g></svg>