<svg xmlns="http://www.w3.org/2000/svg" viewBox="0 0 78.56 132.27"><title>Plant3</title><g id="Laag_2" data-name="Laag 2"><g id="Laag_1-2" data-name="Laag 1"><path d="M76.84,15.15c.06,1.09-.71,1.58-1.47,2.09-1.21.82-2.64.75-4,1.08a6.44,6.44,0,0,0-2.46,1.09c-.77.64-.43,1.66-.38,2.57a3.89,3.89,0,0,1-.41,2A3.71,3.71,0,0,1,65.52,26c-1.36.21-2.75.27-4.12.42-.85.1-1,.5-.43,1.42.24.39.62.69.83,1.09a2.48,2.48,0,0,1-.73,3c-2,1.41-4.31,1.46-6.65,1.35-1.06-.06-1.34.44-1.25,1.8a5.07,5.07,0,0,0,.11.68,2,2,0,0,1-1,2.35c-1.21.62-2.67.81-3.58,2-1.62,2.1-4,3-6.86,3.7l5.94,2.88A1.52,1.52,0,0,1,48.26,49a9.67,9.67,0,0,1-3.89,2.8c-1.09.38-2.18.75-3.26,1.14s-.56,1.07-.45,1.7a5.82,5.82,0,0,0,.27.64c.76,2.3.68,2.71-1.1,4.07s-3.71,2.74-5.56,4.1a1.35,1.35,0,0,0,.08,1.75c.34.32.74.57,1.06.9,1.19,1.26,1.27,2.09.28,3.67-.47.76-1,1.56-2.11,1.31-.14-.42-.26-.84-.41-1.25s-.33-.77-.49-1.16a8.89,8.89,0,0,0-1.47,1.17c-.4.47-.14.82.51.89s1.27.19,1.91.29a1.22,1.22,0,0,1-.19,1.62c-.89.83-1.8,1.66-2.7,2.48a22,22,0,0,0-2.72.41,5.61,5.61,0,0,0-3.24,2.37.62.62,0,0,0,0,.55c.1.17.37.39.5.36,2-.48,3.37-2.41,5.53-2.62a2.15,2.15,0,0,1,1.59,2,6.37,6.37,0,0,1-3.57,5.49,15,15,0,0,1-2.57,1A5.92,5.92,0,0,0,22,89.58c-.22,1.12-.78,2.22.32,3.13.78.64,1.68.31,2.57.06a27.26,27.26,0,0,1,3.35-.69,2,2,0,0,1,2.24,2.55c-.17.66-.64,1.25-.78,1.91a1.29,1.29,0,0,0,.48,1.13c1,.45,2.18.68,3.24,1.1.77.31,1.07,1.93.47,2.39-1.82,1.39-3.69,2.71-5.5,4.11-1.26,1-2.69,1.84-3,3.59-1.4,1-2.81,2.07-4.22,3.09-1.77,1.27-2.08,2.36-1.42,5.08-1-.38-1.11.35-1.12,1,0,.28.32.56.5.83a2.42,2.42,0,0,0,.32-.59c.1-.45.13-.91.19-1.36l1.14-.55c.57-.28,1.13-.57,1.69-.86.26.31.81.75.73.91-.44,1-1.07,2-1.52,3a1.42,1.42,0,0,0,.15,1.24,1.21,1.21,0,0,0,1.16.07,11.63,11.63,0,0,0,4.51-5c.29-.65,0-1.14-1-1.37-.44-.1-.9-.11-1.35-.17-.37-.43-1-.81-.37-1.48S26,111.59,26.61,111c.87.15,1.89-.13,2.53.68a3.88,3.88,0,0,1,.8,3.79c-.79,2.09-1.88,4.07-2.77,6.14-.07.17.49.62.75.94l.1-.1c-.32-.28-.79-.86-1-.78-2.74,1.21-5.45,2.49-8.15,3.8a2.85,2.85,0,0,0-1.44,2.23c-.24,1.36-.44,2.73-.78,4.07-.06.25-.74.54-1.08.48a1.45,1.45,0,0,1-.92-.83,3.09,3.09,0,0,1,0-1.35c.52-4.54-2.26-7.22-5.44-9.68a2.13,2.13,0,0,0-.59-.36c-3.33-1-5.63-2.82-6.33-6.49C2.12,112.29.91,111.24.26,110a3.13,3.13,0,0,1,1.09-3.71,2,2,0,0,1,2.54,0,20.54,20.54,0,0,1,2.28,2.56c.14.18-.25.75-.4,1.15-.21.07-.41.15-.62.21a4.47,4.47,0,0,0-1.18.33c-.47.27-.34.65-.08,1.13a32,32,0,0,1,1.36,3,4.85,4.85,0,0,0,4.06,2.89,3.8,3.8,0,0,0,.48.42c.45.29.94.21,1-.3,0-.22-.51-.55-.78-.83a4.93,4.93,0,0,0-2.62-4.33c-.89-.58-1.9-1.21-1.73-2.56.85-.37-.32-.75.55-.43,3.07,1.15,4.67,2.32,5.77,4.32.33.6.49,1.3.82,1.91A19,19,0,0,0,14,117.44a1,1,0,0,0,1.61,0c1.44-1.81,1.33-3.87,1.05-6a2.29,2.29,0,0,0-.64-1.19,32.75,32.75,0,0,0-4-3.84c-2.06-1.49-2.72-3.64-3.43-5.84-.23-.7.34-1.64,1.24-2.29a1.91,1.91,0,0,1,1.93-.06c1.61.54,2.63,1.85,3.81,2.94a1.66,1.66,0,0,0,1.86.35c.59-.25.64-1.9,0-2.52a32.07,32.07,0,0,1-5-6.61,10.25,10.25,0,0,1-1.18-2.48,3.42,3.42,0,0,1,.37-3.3c.68-.81,1.65-.63,2.55-.65,1,1.75,2,3.51,3.11,5.22.14.22.75.19,1.13.18a.67.67,0,0,0,.46-.44c.14-.63.51-1.48.24-1.88-1-1.47-2.21-2.78-3.35-4.16-2.06-2.75-3.11-6.18-5.8-8.53a2.65,2.65,0,0,1-.49-2.62A2.34,2.34,0,0,1,12,71.89a7.22,7.22,0,0,1,4.68,2.75c1,1.27,1.75,2.71,2.61,4.07.27.41,1.62.87,1.85.61a2.86,2.86,0,0,0,.76-1.13c.4-1.87.45-3.69-1.18-5.11s-2.12-3.53-3-5.4c-.13-.28.21-.9.5-1.2A1.55,1.55,0,0,1,19.43,66c1.56.31,3.1.77,4.66,1.13.52.12.76-.24,1-.76a4,4,0,0,0-.05-4c-1.11-1.76-2.31-3.47-3.33-5.28a9.14,9.14,0,0,1-.8-2.6,1.62,1.62,0,0,1,1.68-1.74,9.41,9.41,0,0,1,2.67.65c1,.52,1.86,1.36,2.83,2a1.38,1.38,0,0,0,1.86-.19,3.32,3.32,0,0,0,.77-1.83,3.48,3.48,0,0,0-.59-1.9,17.16,17.16,0,0,1-2.33-8.6c0-.4.22-1.07.51-1.19a3.13,3.13,0,0,1,1.94-.22c1.63.5,2.5,2,3.65,3.11a1.61,1.61,0,0,0,1.91-.06,3.69,3.69,0,0,0,.91-1.76,4.19,4.19,0,0,0-.56-1.95c-1.48-3.08-.65-5.84,1.09-8.5a1.91,1.91,0,0,1,2.43-.63c.92.68,1.8,1.43,2.68,2.17a.8.8,0,0,0,1.23,0A44.11,44.11,0,0,0,47,30.37a2.5,2.5,0,0,0,.14-3.21c-1.58-2.15-1.28-4.32-.22-6.55a1.84,1.84,0,0,1,2.28-.95c1.18.71,2.3,1.52,3.5,2.19a1.47,1.47,0,0,0,1.25-.14,1.53,1.53,0,0,0,.61-1.12c-.1-1.38-.38-2.75-.48-4.13a4.24,4.24,0,0,1,.27-2A4.54,4.54,0,0,1,55.72,13c.47-.35,1.38,0,1.76.61.86,1.36,1.66,2.76,2.58,4.08.16.24.87.29,1.2.15a1.74,1.74,0,0,0,.85-1,3.48,3.48,0,0,0,0-1.37c-.14-1.6-.21-3.22-.5-4.8A6.7,6.7,0,0,1,63,5.47a2.94,2.94,0,0,1,2.25-1.42,2.66,2.66,0,0,1,2.62,1.86,11.77,11.77,0,0,1,.34,1.33,1.65,1.65,0,0,0,.4.56c.28.28.66.18,1-.37.86-1.63,1.56-3.36,2.54-4.92A8.35,8.35,0,0,1,74.5.12c.42-.27,1.31,0,1.89.22.29.12.51.79.49,1.2a6.45,6.45,0,0,1-.48,2.68c-1,1.82-2.19,3.53-3.31,5.29-.35.55-.79,1.17-.12,1.71.27.23.83.15,1.26.14.9,0,1.81-.21,2.71-.18s1.44.92,1.58,2a1.77,1.77,0,0,1-1.1,2.18c-.19.07-.45-.08-.68-.12a1.7,1.7,0,0,0-2.09-1.06c-.36.09-.65.47-1,.72.19.09.38.26.56.27C75.11,15.21,76,15.17,76.84,15.15Z"/></g></g></svg>