<svg xmlns="http://www.w3.org/2000/svg" viewBox="0 0 176.38 92.69"><defs><style>.cls-1{fill:#fff;}</style></defs><title>Plant5</title><g id="Laag_2" data-name="Laag 2"><g id="Laag_1-2" data-name="Laag 1"><path d="M133.54,34.73c.41-.12.9-.46,1.22-.34A8,8,0,0,1,138.84,38a4.28,4.28,0,0,1,.52,2,41.45,41.45,0,0,1,.07,4.17,1.72,1.72,0,0,1-.94,1.7,2.06,2.06,0,0,1-2.44-.66A12.64,12.64,0,0,1,134.81,42c-.33-1.94-1.6-2.69-3.27-3.1-.45-.11-.91-.17-1.36-.25s-1.58.67-1.53,1.07c.2,1.6.47,3.2.62,4.81a5.41,5.41,0,0,1-.22,2c-.54,1.77-4.41,4-6.32,3.47-2.3-.58-4.35-1.63-5.34-4a4.07,4.07,0,0,1,.11-4c1-1.53,2.19-3,3.22-4.5a1.38,1.38,0,0,0-.39-1c-3.6.06-6.65-1.85-10-2.72a6.18,6.18,0,0,1-2.69-2.08,4,4,0,0,0-4.53-.85c-2.57,1-5,2.31-7.52,3.51-1.24.6-2.47,1.22-3.66,1.9a4.75,4.75,0,0,0-1.5,1.27c-.64,1-1.09,2-1.67,3-2.11,3.65-4.55,6.94-8.65,8.67a6.47,6.47,0,0,0-2.42,2.4A33.08,33.08,0,0,0,74.48,57a13.57,13.57,0,0,1-5.27,6.25c-1.84,1.17-1.91,2-.87,4.06q1.39,2.81,3,5.51A16.59,16.59,0,0,1,73,78.06a5.22,5.22,0,0,1-.53,3.36C71.6,83.3,70.25,83.8,68,83.11c-1.69-.51-2-.35-2.59,1a14,14,0,0,0-1.15,5.39,8.92,8.92,0,0,1-.53,2.67c-.18.58-.66.66-1.09.27s-.86-.59-.92-1a46.22,46.22,0,0,1-.79-6.18c-.12-3.93,0-7.87,0-11.8A14.07,14.07,0,0,1,62,67.42a10.26,10.26,0,0,0,.67-3.37,2.7,2.7,0,0,0-1.08-2.43c-.92-.68-2.28-1-2.86-1.89-2.42-3.7-6.25-6.22-8.29-10.21-.29-.55-.84-1.37-1.48-.91-1.55,1.13-3,.7-4.6.27s-3.34-.27-4.73-1c-4.08-2-8.21-.47-12.31-.56-.29,0-.83.59-.86,1-.15,1.61-.13,3.24-.24,4.85a5.47,5.47,0,0,1-1.36,3.13,1.91,1.91,0,0,1-2.49.29,5.37,5.37,0,0,1-1.61-2.13A42.21,42.21,0,0,1,20,49.66a1.6,1.6,0,0,0-2.11-1.09c-1.43.76-2.81,1.61-4.26,2.33a16.26,16.26,0,0,1-2.58,1,2.33,2.33,0,0,1-2.85-1.3,2.24,2.24,0,0,1,1-2.39,11.75,11.75,0,0,1,5.55-2.7,7.56,7.56,0,0,0,3.82-1.53c1.33-1,1.67-2.32.69-3.49A23.92,23.92,0,0,0,13,35a27.35,27.35,0,0,0-3.51-2.24c-3.12-1.25-5-4-7.66-5.88a2,2,0,0,1-.75-1.14A32.09,32.09,0,0,1,0,18.91a14.34,14.34,0,0,1,1.71-5.2,2.59,2.59,0,0,1,2.9-1.49,4.74,4.74,0,0,0,5.48-1.88,3.26,3.26,0,0,1,.53-.44,2.38,2.38,0,0,1,2.6-.32,3.43,3.43,0,0,1,1.61,2.88,9.57,9.57,0,0,1-.57,2c-.86,1.9-1.86,3.73-2.65,5.66a26.86,26.86,0,0,0-2,5.89c-.57,3.37-.71,3.57,1.71,5.13s5.09,3.19,7.68,4.71a2,2,0,0,0,1.3-.06c.8-.21.94-1,1-1.61a5.41,5.41,0,0,0-.31-2c-.95-2.53.09-4.55,1.67-6.34A5.32,5.32,0,0,1,25,24.51a2.1,2.1,0,0,1,2.87,2c0,.46-.1.92-.09,1.38,0,1.27.45,1.87,1.39,2,1.37.19,2.75.31,4.12.53A2.32,2.32,0,0,1,34.8,33.2a10.31,10.31,0,0,1-3.54,5c-1.55,1.38-3.17,2.68-4.74,4-.37.32-.08,1.66.37,1.81a5.12,5.12,0,0,0,1.31.42,34.12,34.12,0,0,0,4.85-.09,9,9,0,0,1,5.41.77c2.15,1.12,4.49,1.06,6.8,1.06A3,3,0,0,0,48,44.35a2.07,2.07,0,0,0,.15-1.3,2.76,2.76,0,0,0-.64-1.19,6.7,6.7,0,0,1-1.78-4.38,15.6,15.6,0,0,0-.9-3.32c-.79-2.73-.24-4.09,2.31-5.82.73-.49,1.33-.11,1.87.3a2.92,2.92,0,0,1,.84,1.07,1.46,1.46,0,0,0,2.12,1,5.49,5.49,0,0,1,2-.36,1.53,1.53,0,0,1,1.17.6,10.53,10.53,0,0,1,1.27,6.67,18.39,18.39,0,0,1-2.88,7.72,3.5,3.5,0,0,0,0,3.95c2.24,3.52,4.62,6.94,8.26,9.25a37.76,37.76,0,0,1,3.75,3.07,1.11,1.11,0,0,0,1.28.08A8.07,8.07,0,0,0,71,58.15c1.41-2.4,2.89-4.76,4.36-7.11,1.12-1.79,2.4-3.52,4.42-4.29a11,11,0,0,0,5.45-5.1,57.54,57.54,0,0,0,3.06-6.2A1.7,1.7,0,0,0,88,33.53c-1.26-1.36-2.6-2.65-3.75-4.09-2.29-2.87-2.78-6.28-2.61-9.82a1.55,1.55,0,0,1,.83-1,33.24,33.24,0,0,1,3.87-1.43c.31-.09.82.25,1.14.51,1.81,1.46,1.81,1.48,3.24.22.52-.46,1-1,1.52-1.42,1.66-1.31,3.62-.62,4.4,1.42a8.64,8.64,0,0,1,.4,4.79c-.38,2-.91,4.07-1.35,6.1a1.38,1.38,0,0,0,1.65,1.57c.88-.28,1.74-.59,2.59-.92a26.13,26.13,0,0,1,3.86-1.51c1.83-.39,3.71-.37,5.19,1.15a13.69,13.69,0,0,0,1.53,1.42,14.25,14.25,0,0,0,10.41,3c2-.25,2.8-1,2.7-3.1-.07-1.62-.24-3.24-.18-4.85.08-2,1.38-3.37,3-4.44a2.71,2.71,0,0,1,3.17.54,7.56,7.56,0,0,1,1.29,2.4c.3,1.11.22,2.3.44,3.44.11.64.33,1.41,1.2,1.45a35,35,0,0,1,8.08,1.92,9.41,9.41,0,0,0,2,.71c3,.1,6.06.46,9,0,2.23-.36,3.74-2.56,5.54-4,.9-.72,1.62-1.67,2.51-2.4a6.35,6.35,0,0,0,1.94-3.59c.38-1.37-.16-2.43-1.39-2.63-1.82-.31-3.68-.47-5.49-.88a13.56,13.56,0,0,1-5.11-2,2.31,2.31,0,0,1-.15-3.6A8.42,8.42,0,0,1,151.73,11a16.37,16.37,0,0,1,2.73-.45c1.52-.28,3.4.69,4.5-.89.84-1.21,0-2.68-.05-4,0-.23,0-.47,0-.7a4,4,0,0,1,2.35-3.91,12.18,12.18,0,0,1,2.57-1,4.13,4.13,0,0,1,4.49,3.41,3.59,3.59,0,0,1,0,1.38c-1.22,3.34.08,5.66,2.71,7.72a57.88,57.88,0,0,1,5,4.82,1.87,1.87,0,0,1-.29,2.48,22.88,22.88,0,0,1-2.82,2,4.26,4.26,0,0,1-5.17-.35,7.43,7.43,0,0,0-1.21-.66,1.88,1.88,0,0,0-1.86.45c-.81,1.66-1.35,3.54-2.49,4.94a30.43,30.43,0,0,1-4.72,4.07,31.71,31.71,0,0,1-5,3.72c-1.93,1-4.09-.15-6.16-.15a25.6,25.6,0,0,1-10.19-1.77,3,3,0,0,0-1.94.26c-.84.36,0,1.19-.32,1.75-.12.19-.22.4-.33.61-.93.68-1.95,0-2.91.19l-.12-.35.18.27c.61,1.34,1.85,1,2.94,1.14.08.19.15.37.23.55l-.3-.46A.88.88,0,0,1,133.54,34.73Zm33-20.51c.64,1.42,1.23,2.88,2,4.26A5.87,5.87,0,0,0,170,19.87c.57.49,2.8.12,3-.62a2.35,2.35,0,0,0-.41-1.78,12.92,12.92,0,0,0-5-4.35c-.18-.11-.35-.28-.53-.3-.36,0-.92-.14-1,0C165.55,13.51,166.1,13.87,166.58,14.22ZM63.93,76.56c-1.82,1-1.27,2.6-.87,4,.19.69.63.57.62-.16,0-.22.07-.44.08-.66l.06-3.28c1.29.08,2.74-.44,3.59,1.19a21.2,21.2,0,0,0,1.94,2.8.69.69,0,0,0,.65.14c.31-.23.78-.59.76-.86a9.93,9.93,0,0,0-.61-3.38c-1.2-2.49-2.63-4.87-4-7.28a.74.74,0,0,0-.57-.35c-.42,0-1.13.1-1.2.32A12.8,12.8,0,0,0,63.93,76.56ZM91.2,32.48c.3-.25.81-.46.91-.79.74-2.64,1.52-5.28,2.06-8a19.9,19.9,0,0,0,.07-4.09c0-.22-.13-.61-.23-.62-.43,0-1-.11-1.28.12a8.69,8.69,0,0,0-1.82,2c-.71,1.16-1.2,2.46-1.89,3.63a1.48,1.48,0,0,1-2.27-.19,30.41,30.41,0,0,1-.77-3.3c-.12-.58-.39-.76-.87-.77a1.66,1.66,0,0,0-1.33,1.33,7.8,7.8,0,0,0,1.65,5.82C87.05,29.53,89.25,30.89,91.2,32.48ZM2.58,18.88a23.85,23.85,0,0,0,.48,3.83,11.19,11.19,0,0,0,1.61,2.95,1.26,1.26,0,0,0,2.16-.16,46.84,46.84,0,0,1,3.77-8.8,4.57,4.57,0,0,0,.21-2c0-.13-.39-.42-.52-.39-1,.31-2,.78-3.09,1s-2.26.14-3.36.34a1.59,1.59,0,0,0-.88,1A13.89,13.89,0,0,0,2.58,18.88Zm121,28.88a18,18,0,0,0,2.16-.86,1.52,1.52,0,0,0,.7-1.07,17.49,17.49,0,0,0-.84-7.29,1.18,1.18,0,0,0-1.08-.43,10.09,10.09,0,0,0-4.58,4.77C119,44.82,121,47.78,123.54,47.76ZM54.11,36.12c0-.26-.17-.93-.29-1.61s-.43-.72-1-.48c-1.42.61-2.86,1.78-4.18-.15-.26-.38-.55-.74-.82-1.11a5.36,5.36,0,0,0-.52,1.9,14.38,14.38,0,0,0,3.15,7.51,1.45,1.45,0,0,0,1.83.08C53.87,40.67,54.18,38.67,54.11,36.12ZM159.27,16.65c.41-.15.84-.27,1.24-.46a.65.65,0,0,0,.32-.48c-.05-.41-.1-1.06-.33-1.16A26,26,0,0,0,156.12,13a5.88,5.88,0,0,0-2.63.31c-.37.09-.68.52-1,.83s-.07.79.9,1.34A10.31,10.31,0,0,0,159.27,16.65ZM24.61,35.86c.09.45.18.89.28,1.33.3,1.28.85,1.62,1.86,1.1a10.7,10.7,0,0,0,3.91-2.62c.54-.7,1.26-1.32,1-2.39-.17-.64-1.13-1-2.3-.69s-2.19.55-3.28.85C24.56,33.85,24.34,34.25,24.61,35.86ZM165.89,6.31c-.13-.87-.2-1.56-.33-2.23A1.71,1.71,0,0,0,163.39,3a2.24,2.24,0,0,0-1.75,1.89,5,5,0,0,0,1.22,4.46c.37.42,1.57.46,1.78,0C165.1,8.28,165.51,7.22,165.89,6.31ZM129,27.5a7.83,7.83,0,0,0-.38-2c-.23-.58-.86-1-1.31-1.48-.31.33-.66.63-.93,1a4.72,4.72,0,0,0-.87,3.21,3.18,3.18,0,0,0,1.19,2.33.75.75,0,0,0,1.18,0C128.59,29.9,128.91,29.12,129,27.5ZM23.44,50.42a2.5,2.5,0,0,0,0-.67c-.12-.43-.29-.85-.45-1.27-.13.43-.28.84-.38,1.27a1.42,1.42,0,0,0,0,.68c.11.43.27.85.41,1.26Zm-1.9-12.07a11.75,11.75,0,0,0,.54-1.06c.19-.5-.08-.76-.51-1s-.75-.38-1,.12a1.37,1.37,0,0,0-.16,1C20.56,37.88,20.7,38.6,21.54,38.35Z"/><path class="cls-1" d="M91.2,32.48c-2-1.59-4.15-2.95-5.77-4.81a7.8,7.8,0,0,1-1.65-5.82,1.66,1.66,0,0,1,1.33-1.33c.48,0,.75.19.87.77a30.41,30.41,0,0,0,.77,3.3,1.48,1.48,0,0,0,2.27.19c.69-1.17,1.18-2.47,1.89-3.63a8.69,8.69,0,0,1,1.82-2C93,18.91,93.58,19,94,19c.1,0,.23.4.23.62a19.9,19.9,0,0,1-.07,4.09c-.54,2.68-1.32,5.32-2.06,8C92,32,91.5,32.23,91.2,32.48Z"/><path class="cls-1" d="M2.58,18.88A13.89,13.89,0,0,1,3,16.62a1.59,1.59,0,0,1,.88-1c1.1-.2,2.26-.12,3.36-.34s2.05-.68,3.09-1c.13,0,.52.26.52.39a4.57,4.57,0,0,1-.21,2,46.84,46.84,0,0,0-3.77,8.8,1.26,1.26,0,0,1-2.16.16,11.19,11.19,0,0,1-1.61-2.95A23.85,23.85,0,0,1,2.58,18.88Z"/><path class="cls-1" d="M123.54,47.76c-2.56,0-4.56-2.94-3.64-4.88a10.09,10.09,0,0,1,4.58-4.77,1.18,1.18,0,0,1,1.08.43,17.49,17.49,0,0,1,.84,7.29,1.52,1.52,0,0,1-.7,1.07A18,18,0,0,1,123.54,47.76Z"/><path class="cls-1" d="M54.11,36.12c.07,2.55-.24,4.55-1.84,6.14a1.45,1.45,0,0,1-1.83-.08,14.38,14.38,0,0,1-3.15-7.51,5.36,5.36,0,0,1,.52-1.9c.27.37.56.73.82,1.11,1.32,1.93,2.76.76,4.18.15.58-.24.91-.09,1,.48S54.06,35.86,54.11,36.12Z"/><path class="cls-1" d="M63.93,76.56a12.8,12.8,0,0,1,.46-7.5c.07-.22.78-.29,1.2-.32a.74.74,0,0,1,.57.35c1.36,2.41,2.79,4.79,4,7.28a9.93,9.93,0,0,1,.61,3.38c0,.27-.45.63-.76.86a.69.69,0,0,1-.65-.14,21.2,21.2,0,0,1-1.94-2.8c-.85-1.63-2.3-1.11-3.59-1.19Z"/><path class="cls-1" d="M159.27,16.64a10.22,10.22,0,0,1-5.86-1.17c-1-.55-1.35-.89-.9-1.34s.61-.74,1-.83a5.88,5.88,0,0,1,2.63-.31,26,26,0,0,1,4.38,1.56c.23.1.28.75.33,1.16a.65.65,0,0,1-.32.48A11.52,11.52,0,0,1,159.27,16.64Z"/><path class="cls-1" d="M24.61,35.86c-.27-1.61-.05-2,1.45-2.42,1.09-.3,2.18-.58,3.28-.85s2.13,0,2.3.69c.28,1.07-.44,1.69-1,2.39a10.7,10.7,0,0,1-3.91,2.62c-1,.52-1.56.18-1.86-1.1C24.79,36.75,24.7,36.31,24.61,35.86Z"/><path class="cls-1" d="M165.89,6.31c-.38.91-.79,2-1.25,3-.21.48-1.41.44-1.78,0a5,5,0,0,1-1.22-4.46A2.24,2.24,0,0,1,163.39,3a1.71,1.71,0,0,1,2.17,1.09C165.69,4.75,165.76,5.44,165.89,6.31Z"/><path class="cls-1" d="M129,27.5c-.05,1.62-.37,2.4-1.12,3a.75.75,0,0,1-1.18,0,3.18,3.18,0,0,1-1.19-2.33,4.72,4.72,0,0,1,.87-3.21c.27-.35.62-.65.93-1,.45.49,1.08.9,1.31,1.48A7.83,7.83,0,0,1,129,27.5Z"/><path class="cls-1" d="M167.56,13.11a13,13,0,0,1,5,4.36,2.35,2.35,0,0,1,.41,1.78c-.21.74-2.44,1.11-3,.62a5.87,5.87,0,0,1-1.42-1.39c-.74-1.38-1.33-2.84-2-4.26Z"/><path class="cls-1" d="M63.82,76.48l-.06,3.28c0,.22-.08.44-.08.66,0,.73-.43.85-.62.16-.4-1.42-1-3,.87-4Z"/><path class="cls-1" d="M23.44,50.42,23,51.69c-.14-.41-.3-.83-.41-1.26a1.42,1.42,0,0,1,0-.68c.1-.43.25-.84.38-1.27.16.42.33.84.45,1.27A2.5,2.5,0,0,1,23.44,50.42Z"/><path class="cls-1" d="M21.54,38.35c-.84.25-1-.47-1.17-.94a1.37,1.37,0,0,1,.16-1c.29-.5.63-.41,1-.12s.7.55.51,1A11.75,11.75,0,0,1,21.54,38.35Z"/><path class="cls-1" d="M133.54,34.73a.88.88,0,0,0,0,1.35l.08-.09c-1.1-.1-2.34.2-2.95-1.14l-.07.08c1-.18,2,.49,2.92-.19Z"/><polygon class="cls-1" points="130.69 34.85 130.51 34.58 130.63 34.93 130.69 34.85"/><path class="cls-1" d="M133.56,36.08l.3.46c-.08-.18-.15-.36-.23-.55Z"/><path class="cls-1" d="M166.58,14.22c-.48-.35-1-.71-.59-1.37.12-.17.68-.07,1,0,.18,0,.35.19.53.29Z"/></g></g></svg>