<svg xmlns="http://www.w3.org/2000/svg" viewBox="0 0 90.52 100.22"><defs><style>.cls-1{fill:#fff;}</style></defs><title>Plant4</title><g id="Laag_2" data-name="Laag 2"><g id="Laag_1-2" data-name="Laag 1"><path d="M57.9,50.64a9.44,9.44,0,0,1-2.2,1.5,32.6,32.6,0,0,1-4,.8,1.59,1.59,0,0,0-1.28,1.37c-.2,1.34-.24,2.71-1.26,3.78a1.42,1.42,0,0,1-1.78.27,16.31,16.31,0,0,0-.1-2c-.08-.41-.36-1.1-.57-1.1a3.72,3.72,0,0,0-1.85.41c-.33.17-.52.69-.67,1.1-.22.6.22,1,1.29,1.18l2,.34c.46.64.33,1.39-.35,1.49a41.43,41.43,0,0,1-4.6.18,5.17,5.17,0,0,0-1.19-.47c-.85-.09-1.27.42-1,1.16A6.81,6.81,0,0,0,41,61.78c.16.43.31.87.5,1.29a2.38,2.38,0,0,1-.85,3,3.34,3.34,0,0,1-1.11.79,20.35,20.35,0,0,0-3.89,1c-1,.48-1.56,1.61-2.38,2.4-.56.55-1.27.35-1.93.14l-2.59-.83c-.23-1.3-1.33-1.29-2.28-1.5,0-.53-.25-.84-.77-.82-.08,0-.27.43-.2.55.26.49.66.52,1.07.13.2,1.24,1.28,1.23,2.15,1.53a19.12,19.12,0,0,0-.48,2,2.56,2.56,0,0,1-2.67,2.46,4.26,4.26,0,0,0-1.34.2,1.68,1.68,0,0,0-1.2,1.43,8.07,8.07,0,0,1-.51,2.61c-.23.47-1,.69-1.55,1-.24-.35-.48-.69-.71-1.05-.11-.19-.2-.57-.29-.56a4.65,4.65,0,0,0-1.29.22.73.73,0,0,0-.39.48c-.09.52.21.71.81.7s1.29.09,1.94.14c-.4.51-.69,1.31-1.2,1.48a16.77,16.77,0,0,1-3.4.56,2.63,2.63,0,0,0-2.1,1.55,4.77,4.77,0,0,0-.48,1.09c-.13.75.24,1.07,1.09.9a5.62,5.62,0,0,0,1.1-.49c1.61.17,3.22.31,4.83.52a2,2,0,0,1,1.8,1.81,2.67,2.67,0,0,1-1.12,2.39c-.56.4-1.14.8-1.73,1.16-2.37,1.45-4.72,2.93-7.13,4.31a2.8,2.8,0,0,0-1.27,1.54c-.49,1.29-.9,2.62-1.46,3.88-.13.27-.75.36-1.17.44-.1,0-.37-.34-.38-.54a6.82,6.82,0,0,1,0-2,3.27,3.27,0,0,0-.78-3.2C6.26,92.94,4.89,91.34,3.35,90A8.14,8.14,0,0,1,.42,82.53a7.66,7.66,0,0,0-.32-2l-.1.1c1.57.25,3.2.3,4.32,1.73C5.16,83.42,6.07,84.46,7,85.5c1.38,1.57,2.76,1.3,3.59-.7.67-1.63.46-2.71-.74-3.68s-2.55-2-3.74-3a2,2,0,0,1,.65-3.39,4.88,4.88,0,0,1,3.34-.43,9,9,0,0,0,2,.33c.74.05,1.72-1.31,1.42-2A32.09,32.09,0,0,0,11.64,69a34.1,34.1,0,0,0-2.13-2.7A1.53,1.53,0,0,1,10,63.93c1.69-.51,2.45-1.66,3.24-3.13a3.15,3.15,0,0,1,5.6.15,26,26,0,0,1,1.33,4.12c.77-1.62,1.36-3,2.09-4.4a20.48,20.48,0,0,1,1.64-2.22c.67-.91,1.19-2.19,2.51-2.06a8.32,8.32,0,0,1,2.43,1.2c.7.34,1.25.06,1.56-.71.68-1.69,1.34-3.39,2.12-5,.13-.28.79-.46,1.18-.44a1.86,1.86,0,0,1,1.16.59,2.9,2.9,0,0,1,.53,1.26c.21.9.28,1.83.55,2.71.11.36.58.62.88.92.3-.33.74-.61.88-1,.56-1.51,1-3.07,1.52-4.59.69-1.91,1.12-4.06,3.78-4.32.3,0,.61-.63.79-1a6.29,6.29,0,0,0,.38-1.32c.43-1.84,1.75-1.86,3.22-1.6.14.85.25,1.7.41,2.54s.74.87,1.41.66l1.2,1.22c-.08.2-.18.4-.25.61-.44,1.34-.24,1.94.67,1.91,2-.07,3.93-.2,5.9-.31Zm-23.16,12c.66.57,1.31,1.15,2,1.72a3.23,3.23,0,0,0,.58.31c.7.38,1.55.07,1.46-.55-.06-.4-.14-1-.39-1.14-1.19-.48-2.43-1.12-3.73-.27.26-.58.2-.79-.17-.64ZM14.06,90.38a1.43,1.43,0,0,0-.51,0c-.09,0-.11.23-.16.36l.58-.51a7.07,7.07,0,0,0,4.55-2.59.8.8,0,0,0,.17-.64c0-.15-.24-.3-.4-.39a1.75,1.75,0,0,0-.63-.18c-1.28-.12-2.09.75-2.91,1.5A2.11,2.11,0,0,0,14.06,90.38ZM30.4,65.43l-1.18.5a4.06,4.06,0,0,0,1.12.67,2.46,2.46,0,0,0,1.15-.15c.05,0,.09-.44,0-.48A11.37,11.37,0,0,0,30.4,65.43Z"/><path d="M73.2,32.21a15.09,15.09,0,0,1,1.26,1.63c.89,1.54.74,2.37-.57,3.64a6,6,0,0,1-1.08.87,1.73,1.73,0,0,1-1.94.24c-3-2.07-6.4-2.5-9.89-2.68a1.26,1.26,0,0,0-.93.74,1.53,1.53,0,0,0,.33,1.17,5.77,5.77,0,0,0,1.14.75c1.57,1.14,1.91,2.21,1,3.4a18.9,18.9,0,0,1-2.68,3.15,3,3,0,0,0-1.1,3,2.51,2.51,0,0,1-.84,2.5l-1.17-1a4.64,4.64,0,0,0-3.78-2l-2.54-.2-1.2-1.22a2.32,2.32,0,0,0,.39-2.57c-.63-1.2-1-2.62-2.21-3.42-.43-1.86-.47-3.62,1-5.15a2.69,2.69,0,0,1,2.43-.95c.65.11,1.4.62,1.86,0a3.4,3.4,0,0,0,.42-1.9c0-1.37-.12-2.75-.07-4.13a8.29,8.29,0,0,1,.51-2,1.46,1.46,0,0,1,2.26-.66C56.9,26.63,57.91,27.88,59,29a1.38,1.38,0,0,0,1.19.21,1.35,1.35,0,0,0,.79-.91,10.32,10.32,0,0,0-.08-2.72c-.19-1.13-.59-2.22-.82-3.34-.28-1.32.69-2.47,2.42-2.55,1,0,1.77-.23,1.94-1.3.26-1.59.37-3.2.63-4.79.36-2.2,1.63-2.82,3.91-2,1.35.5,1.75.32,1.84-.79a42.53,42.53,0,0,1,.38-4.81,7.67,7.67,0,0,1,1.32-2.35c.28-.43,1.37-.44,1.88-.16a7.18,7.18,0,0,1,2.63,3.09,1.51,1.51,0,0,0,2.35.24c1.06-.87,2.07-1.81,3.11-2.72.78,1.2.25,2.89,1.43,3.95-.4.52-.69,1.25-1.21,1.52-1.35.69-2.28,1.42-1.73,3.13a4.18,4.18,0,0,1,.16,2c-.13.63-.5,1.55-1,1.69-2.35.72-3.5,2.66-4.87,4.41a14.19,14.19,0,0,1-1.46,1.44,7.22,7.22,0,0,1-4.43-.77c-.76-.46.33-.14-.43.39a1.45,1.45,0,0,0,.22,1,12.75,12.75,0,0,1,4.49.86c.47,2.25-.76,3.74-2.36,5-1.31,1-.39,1.83,0,2.72l-1,1.16-6.13-.45a2.61,2.61,0,0,0-.68.06c-.22,0-.44.12-.66.18.22.36.35.84.67,1.05,2,1.3,4.52.4,6.6,1.47a1.41,1.41,0,0,0,1.22,0c.29-.24.33-.8.48-1.23C72.35,33.21,72.77,32.71,73.2,32.21Zm-5-6a3.44,3.44,0,0,0-.35.41,1.08,1.08,0,0,0-.05.27l.29-.78c.44,0,.88.14,1.32.15.67,0,.86-.3.48-.84-.07-.1-.47-.1-.64,0A8.08,8.08,0,0,0,68.22,26.2ZM57.87,43.1a2.2,2.2,0,0,0,1.78-1.82c-.07-.76-.91-1.22-2.11-1.13a1.36,1.36,0,0,0-1.42,1.13C56,42,57.13,43.11,57.87,43.1Zm-.64-11A5.77,5.77,0,0,0,57,30.77c-.13-.29-.51-.46-.78-.68-.14.19-.39.37-.39.56a17.64,17.64,0,0,0,0,2.72c0,.24.52.45.82.62a1.12,1.12,0,0,0,.39-.52A12.18,12.18,0,0,0,57.23,32.12ZM76.34,13.21c.06.18,0,.44.18.54a4.56,4.56,0,0,0,1,.71c.1,0,.49-.22.48-.27-.15-.62-.38-1.23-1.15-1.27C76.71,12.91,76.53,13.11,76.34,13.21Zm-4,6.18,1.13-.59c-.35-.22-.69-.6-1-.61s-.75.35-1.12.54Z"/><path d="M82.35,4.34c.88-1.34,1.43-3,2.88-3.83A3.17,3.17,0,0,1,87.14,0a4,4,0,0,1,3.3,4.53,3.67,3.67,0,0,1-4.17,2.74,6.47,6.47,0,0,1-1.33-.38,3.26,3.26,0,0,1,1.65-2,2.45,2.45,0,0,0,.69-1.06.79.79,0,0,0-.12-.64A.69.69,0,0,0,86.67,3C85,2.75,84.08,4.81,82.35,4.34Z"/><path class="cls-1" d="M82.35,4.34C84.08,4.81,85,2.75,86.67,3a.69.69,0,0,1,.49.25.79.79,0,0,1,.12.64,2.45,2.45,0,0,1-.69,1.06,3.26,3.26,0,0,0-1.65,2l-1,1.2c-1.18-1.06-.65-2.75-1.43-3.95Z"/><path class="cls-1" d="M47.39,40.23c1.26.8,1.58,2.22,2.21,3.42a2.32,2.32,0,0,1-.39,2.57c-.67.21-1.25.19-1.41-.66s-.27-1.69-.41-2.54Z"/><path class="cls-1" d="M73.72,23.77a12.75,12.75,0,0,0-4.49-.86,1.45,1.45,0,0,1-.22-1c.76-.53-.33-.85.43-.39a7.22,7.22,0,0,0,4.43.77Z"/><path class="cls-1" d="M28.74,69.48c-.87-.3-1.95-.29-2.15-1.53l-.1.13c1,.22,2.05.21,2.28,1.51Z"/><path d="M71.41,31.46l1.79.75c-.43.5-.85,1-1.28,1.49l-1.5-1.08Z"/><path class="cls-1" d="M50.41,47.44l2.54.2a4.64,4.64,0,0,1,3.78,2c-2,.11-3.93.24-5.9.31-.91,0-1.11-.57-.67-1.91C50.23,47.84,50.33,47.64,50.41,47.44Z"/><path class="cls-1" d="M14.06,90.38A2.11,2.11,0,0,1,14.75,88c.82-.75,1.63-1.62,2.91-1.5a1.75,1.75,0,0,1,.63.18c.16.09.38.24.4.39a.8.8,0,0,1-.17.64A7.07,7.07,0,0,1,14,90.27Z"/><path class="cls-1" d="M47.46,58.31l-2-.34c-1.07-.19-1.51-.58-1.29-1.18.15-.41.34-.93.67-1.1a3.72,3.72,0,0,1,1.85-.41c.21,0,.49.69.57,1.1a16.31,16.31,0,0,1,.1,2Z"/><path class="cls-1" d="M34.63,62.68c1.31-.86,2.55-.22,3.74.26.25.1.33.74.39,1.14.09.62-.76.93-1.46.55a3.23,3.23,0,0,1-.58-.31c-.67-.57-1.32-1.15-2-1.72Z"/><path class="cls-1" d="M21.06,79.08c-.65,0-1.3-.14-1.94-.14s-.9-.18-.81-.7a.73.73,0,0,1,.39-.48A4.65,4.65,0,0,1,20,77.54c.09,0,.18.37.29.56.23.36.47.7.71,1.05Z"/><path class="cls-1" d="M30.4,65.43a11.37,11.37,0,0,1,1.11.54c.07,0,0,.47,0,.48a2.46,2.46,0,0,1-1.15.15,4.06,4.06,0,0,1-1.12-.67Z"/><path class="cls-1" d="M16.07,84.17a5.62,5.62,0,0,1-1.1.49c-.85.17-1.22-.15-1.09-.9a4.77,4.77,0,0,1,.48-1.09Z"/><path class="cls-1" d="M14,90.27l-.58.51c0-.13.07-.32.16-.36a1.43,1.43,0,0,1,.51,0Z"/><path class="cls-1" d="M26.59,68c-.41.39-.81.36-1.07-.13-.07-.12.12-.55.2-.55.52,0,.77.29.77.82Z"/><path class="cls-1" d="M34.74,62.6,34.47,62c.37-.15.43.06.17.64Z"/><path class="cls-1" d="M41,61.78a6.81,6.81,0,0,1-.69-1.11c-.28-.74.14-1.25,1-1.16a5.17,5.17,0,0,1,1.19.47Z"/><path class="cls-1" d="M70.42,32.62l1.5,1.09c-.15.42-.19,1-.48,1.22a1.41,1.41,0,0,1-1.22,0c-2.08-1.07-4.6-.17-6.6-1.47-.32-.21-.45-.69-.67-1.05.22-.06.44-.14.66-.18a2.61,2.61,0,0,1,.68-.06Z"/><path class="cls-1" d="M57.87,43.1c-.74,0-1.86-1.12-1.75-1.82a1.36,1.36,0,0,1,1.42-1.13c1.2-.09,2,.37,2.11,1.13A2.2,2.2,0,0,1,57.87,43.1Z"/><path class="cls-1" d="M57.23,32.12A12.18,12.18,0,0,1,57,33.47a1.12,1.12,0,0,1-.39.52c-.3-.17-.79-.38-.82-.62a17.64,17.64,0,0,1,0-2.72c0-.19.25-.37.39-.56.27.22.65.39.78.68A5.77,5.77,0,0,1,57.23,32.12Z"/><path class="cls-1" d="M76.34,13.21c.19-.1.37-.3.55-.29.77,0,1,.65,1.15,1.27,0,.05-.38.32-.48.27a4.56,4.56,0,0,1-1-.71C76.39,13.65,76.4,13.39,76.34,13.21Z"/><path class="cls-1" d="M72.3,19.39l-1-.66c.37-.19.75-.55,1.12-.54s.69.39,1,.61Z"/><path class="cls-1" d="M68.21,26.19a10.05,10.05,0,0,1,1.06-.79c.17-.09.57-.09.64,0,.38.54.19.87-.48.84-.44,0-.88-.1-1.32-.15Z"/><path class="cls-1" d="M68.11,26.1l-.29.78a1.08,1.08,0,0,1,.05-.27,4.58,4.58,0,0,1,.35-.42Z"/></g></g></svg>