<svg xmlns="http://www.w3.org/2000/svg" viewBox="0 0 100.55 192.62"><defs><style>.cls-1{fill:#fff;}</style></defs><title>Plant7</title><g id="Laag_2" data-name="Laag 2"><g id="Laag_1-2" data-name="Laag 1"><path d="M51.51,191.11c-.42.51-.78,1.37-1.28,1.46-1.83.33-3.41-1.07-5.27-1-.29,0-.65-.58-.89-1a3.89,3.89,0,0,1-.55-1.27,34.67,34.67,0,0,0-4.67-10.75,5.8,5.8,0,0,0-2.52-4,7.73,7.73,0,0,1-2.4-2.47c-1.58-3.47-4.35-5.92-6.79-8.67a4.46,4.46,0,0,1-.92-1.83,3.36,3.36,0,0,1,0-2,12.92,12.92,0,0,1,1.82-2.91,2.64,2.64,0,0,1,1.68-1.05c.35,0,1,.94,1,1.5.51,4.71,3.85,7.09,7.47,9.27a3.38,3.38,0,0,0,.66.2c.68.23,1.69,0,1.82-.51s.32-1,.14-1.31a24.26,24.26,0,0,1-2.35-6.49c-.07-.28.37-.73.64-1a.72.72,0,0,1,.66-.09c.83.39,1.66.81,2.46,1.27s1.53,1.06,2.37,1.45c.2.09,1-.42,1-.69.38-4.83.29-9.7,1-14.51a3.31,3.31,0,0,0-.42-2c-1.89-3.2-3.84-6.34-7.48-7.92-3.19-1.39-6.28-3-9.49-4.31a7.22,7.22,0,0,1-3.72-2.88c-1.11-1.76-2.33-3.32-2.44-5.6a37,37,0,0,1,.1-6.23A2.42,2.42,0,0,1,25.07,114a5.71,5.71,0,0,1,3.42-.14c1.76.56,3.51,1.19,5.28,1.72a29.78,29.78,0,0,0,11,1.43,3.06,3.06,0,0,0,1.85-.77c.39-.41.74-1.46.51-1.77-2.21-2.93-4.42-5.85-7.8-7.66a26.13,26.13,0,0,0-9.95-2.87A26.5,26.5,0,0,1,16.53,99a32.45,32.45,0,0,0-6.69-3.63C6.27,94,3.57,91.49.68,89.2a2.55,2.55,0,0,1-.56-2.54,10.1,10.1,0,0,1,6.72-6.52,38.62,38.62,0,0,1,4.6-1.51,10.27,10.27,0,0,1,6.75.54,54.68,54.68,0,0,0,21.51,5,1.55,1.55,0,0,0,1.75-1.58c0-.7-.05-1.39-.09-2.08a3.54,3.54,0,0,0-1.63-2.9,33.42,33.42,0,0,0-3-1.73c-6.39-3.25-12.78-6.48-19-10-3-1.71-6.1-3.3-9.18-4.89s-4.57-4.49-6-7.34a3.31,3.31,0,0,1,.27-3.34,9.48,9.48,0,0,1,1.84-2A14.64,14.64,0,0,1,7,46.94c4.75-2.47,4.75-2.42,9.91-2.32a13,13,0,0,1,8.43,2.71,30.15,30.15,0,0,0,7.91,4.29c2.34,1,4.59,2.18,6.91,3.2a4.48,4.48,0,0,0,4-.09c1-.52,1.72-2.13,1.06-2.9-1.35-1.57-2.74-3.13-4.19-4.62-1.78-1.83-3.63-3.58-5.45-5.37a6,6,0,0,1-1.89-5.05c.55-4.37-.26-8.74.49-13.13.47-2.73,1-5.45,1.58-8.16,1-4.75,2.61-9.35,3-14.23C38.8.42,40-.17,40.87,0a6.17,6.17,0,0,1,3.57,2,19.11,19.11,0,0,1,2.67,4c1.94,4.43,4.06,8.74,4.69,13.72.54,4.31,1.7,8.62,4.67,12.18,1.34,1.61,1.68,3.78,2.26,5.78.37,1.29,2.5,2.47,4,2.18a3.52,3.52,0,0,0,1.77-1A9.18,9.18,0,0,0,66,36.69C68.78,31.13,73.3,27.14,78,23.3a5.18,5.18,0,0,1,5.87-.08,3.49,3.49,0,0,1,1.41,2.24c.07,2.53-.18,5.06-.31,7.6-2.05,4.41-3,9.22-5.16,13.63a25.12,25.12,0,0,1-5.1,7.37c-1.51,1.45-3,3-4.56,4.29a6.89,6.89,0,0,0-2.49,4.83A20.39,20.39,0,0,0,69.1,73.37a6.42,6.42,0,0,0,.39.57,1.64,1.64,0,0,0,2.39.27,11,11,0,0,0,1.37-1.54,28.91,28.91,0,0,0,1.69-3c1.24-2.47,2.15-5.17,3.74-7.39s3.83-4,5.82-5.94a8.73,8.73,0,0,1,1.73-1.13,2.37,2.37,0,0,1,3.07.75,5.25,5.25,0,0,1,.38.58c.68,1.47,1.32,3,2,4.43,2.39,5.17,2,10.41.11,15.57a60.85,60.85,0,0,1-3.5,7.56,18.08,18.08,0,0,1-2.46,3.34c-1.51,1.76-3,3.5-4.68,5.14-2.7,2.72-4.13,6.1-5.3,9.63-.16.48.32,1.76.71,1.8a2.6,2.6,0,0,0,1.36,0c3.79-2.23,7.51-4.55,11.5-6.45,1.62-.78,2.92-2.24,4.39-3.37a2.6,2.6,0,0,1,3.67.63,14.05,14.05,0,0,1,2.65,4.84c.62,2.09.69,4-.71,5.93-2.07,2.8-4,5.69-6,8.53a48.5,48.5,0,0,0-3.19,4.56,10.66,10.66,0,0,1-6.81,5.54,10.69,10.69,0,0,0-5.19,3.26c-2.41,2.5-4.84,5-7.27,7.47a11.32,11.32,0,0,1-2,1.93c-3.4,2-5.07,5.25-6.62,8.65a18.15,18.15,0,0,1-2.74,4.8,13.39,13.39,0,0,0-3.47,8.82c0,.47-.06.93-.1,1.39-.56,1.61-1.21,3.2-1.64,4.84a1.64,1.64,0,0,0,1,2.06c.27.33.84.78.77,1-.43,1-1.08,1.95-1.53,2.95-1.72,3.78-2.45,7.6-.36,11.51a3.94,3.94,0,0,0-.41,2.83c-2.39.59-2.66.52-3.31-1-.28-.63-.5-1.29-.72-1.95a.86.86,0,0,0-1.08-.64,1.55,1.55,0,0,0-1.29,1.37,6.5,6.5,0,0,0,.16,2A13,13,0,0,0,51.51,191.11Zm27-164.85L77,27.55A23.13,23.13,0,0,0,68.3,38a12.79,12.79,0,0,1-3.21,4.46,2.62,2.62,0,0,1-3.11.74q-1.87-.89-3.72-1.83a3.35,3.35,0,0,1-1.68-2.08c-.64-2-.76-4.15-2.15-5.8a22.12,22.12,0,0,1-4.78-12c-.57-4.92-2.7-9.27-4.72-13.67a2.58,2.58,0,0,0-.84-1.08,2.6,2.6,0,0,0-1.26-.29c-.1,0-.29.31-.35.5-.81,2.75-.37,5.47.16,8.2a61.15,61.15,0,0,1,1.58,10.26,29.58,29.58,0,0,0,6,17.39,9.42,9.42,0,0,1,1.21,2.44,34.3,34.3,0,0,1,2.5,13.51,14.14,14.14,0,0,0,.35,3.42c0,.26.69.45,1.09.57a.7.7,0,0,0,.56-.34c.7-1.43,1.38-2.87,2-4.33a4.63,4.63,0,0,1,2.36-2.41c.27.18.53.36.79.56-1.52,3.06-2.89,6.22-4.61,9.17a7,7,0,0,0-1.18,5.19c1,4.49,1.34,9.08,2.2,13.58A43.43,43.43,0,0,1,58.25,93a10.27,10.27,0,0,0,.36,2.7c.08.29.64.53,1,.64a6.06,6.06,0,0,0,1.36.1c-.07.44,0,1-.22,1.31A8.37,8.37,0,0,0,59,102.8c-.09,2.51-.64,5-.73,7.51-.22,5.72-.29,11.45-.39,17.18a2.42,2.42,0,0,0,.29,1.28,2,2,0,0,0,1,.66,18.2,18.2,0,0,0,1.94.45c-.14,1.55-1.35,2.35-2.3,3.33a10.78,10.78,0,0,0-2.93,5.43c-.62,2.94-1.08,5.92-1.55,8.89a12,12,0,0,0,.08,2.07c0,.6.29.92.85.84s1.06-.08,1.25-.35c.89-1.34,1.69-2.74,2.46-4.15,1.34-2.43,2.45-5,4-7.29.87-1.26,2.46-2,3.73-3a3.25,3.25,0,0,0,.48-.5c2.9-3.65,6.63-6.46,9.8-9.83a9.49,9.49,0,0,1,4-2.72c3.92-1.32,6.68-4.07,8.84-7.49,1-1.56,1.94-3.15,2.89-4.74.37-.62,0-1-1.06-1.16-.46-.06-.92-.08-1.38-.12,0-.43-.19-1,0-1.25a16,16,0,0,1,2.55-2.31c1.32-.91,2.76-1.65,4.11-2.53s1.48-2,.71-3.62a16,16,0,0,0-1-1.8,1.71,1.71,0,0,0-2.4-.36,23.71,23.71,0,0,1-6.93,4.41c-2.31.91-4.32,2.6-6.46,4A19.71,19.71,0,0,1,78.46,107a3.58,3.58,0,0,1-2,.27,4.44,4.44,0,0,1-3.59-6.13,49.76,49.76,0,0,1,10-14.81,25.1,25.1,0,0,0,7.47-18.68,1,1,0,0,0-.24-.64.56.56,0,0,0-.56-.06c-1.73,1.24-2.42,3.27-3.5,5a20.74,20.74,0,0,1-8.37,7.88,2.08,2.08,0,0,1,.74-2.46C82,75,83.92,71.24,85.9,67.64a34.15,34.15,0,0,0,2.57-7c.25-.86-.5-1.74-1.3-2.28s-1.25.14-1.69.58a17.12,17.12,0,0,1-2.37,2.5c-2.7,1.73-3.9,4.43-5.14,7.17a63.34,63.34,0,0,1-3.08,6.17c-1,1.59-2.24,3.15-4.29,3.08-2.43-.08-3.37-2.1-4.27-4-1.53-3.24-1.51-6.72-1.5-10.17a8.25,8.25,0,0,1,3.52-7.14c.57-.4,1.07-.89,1.61-1.32a25.69,25.69,0,0,0,8-11.07c1.4-3.66,2.85-7.29,4.27-10.94a6.27,6.27,0,0,0,.4-1.32,3.11,3.11,0,0,0,0-1.36,2,2,0,0,0-.77-1c-.49-.32-.86-.1-1.13.38-.9,1.6-1.8,3.19-2.77,4.75a1.29,1.29,0,0,1-1.75.47l.1.08c.72-2.09,1.43-4.17,2.14-6.26l.85-1.87c.51-.23,1.18-.4.78-1.16-.08-.16-.68-.08-1,0C78.85,25.92,78.7,26.13,78.54,26.26ZM36,168.8A7.23,7.23,0,0,0,36,170c.12.66.5.75.9.25a.64.64,0,0,0,0-.63,7.51,7.51,0,0,0-1-.71l-.37-1c-.14.22-.42.47-.39.66C35.2,169.05,35.56,169.09,36,168.8Zm-16.7-114a7.62,7.62,0,0,1-4.71-.72c-1.82-1-3.69-1.93-5.55-2.85a5,5,0,0,0-1.94-.68,2.92,2.92,0,0,0-1.83.67,1.46,1.46,0,0,0-.37,1.86,15.67,15.67,0,0,0,8.33,8c2.84,1.1,5.29,2.85,8,4.22,1.23.63,2.38,1.43,3.61,2.06,4.75,2.4,9.49,4.82,14.28,7.12,3.29,1.58,4.67,4.39,5.2,7.7a8.57,8.57,0,0,1-.6,3.36,2.62,2.62,0,0,1-2.07,1.63c-.46,0-.93,0-1.39-.07-8.28-1-16.48-2.32-24.12-6a3.87,3.87,0,0,0-2-.37,16.52,16.52,0,0,0-7.9,2.4A17.08,17.08,0,0,0,3.23,86a2.13,2.13,0,0,0,.65,3c5.13,3.1,10.3,6.14,15.58,9a48.47,48.47,0,0,0,9.66,3.64,60.83,60.83,0,0,0,7.41,1.74,14.79,14.79,0,0,1,7.87,4.13c1.69,1.58,3.19,3.36,4.77,5a5.72,5.72,0,0,1,.39.57,3.76,3.76,0,0,1-2.72,5.77,49,49,0,0,1-5.55.16c-3.7-.14-7.41-.13-10.84-1.93a10.59,10.59,0,0,0-3.34-.78c-.77-.11-1.21.54-1.59,1.12a1.1,1.1,0,0,0-.23.65,7.71,7.71,0,0,0,.41,2.67c.54,1,1.57.56,2.43.26a2.55,2.55,0,0,1,2.58.51,1.71,1.71,0,0,1,.64,1.11c0,.27-.51.77-.8.77-.92,0-1.83-.19-2.75-.22a1.21,1.21,0,0,0-1,1.47c.71,1.75,1.58,3.32,3.49,4.09,2.57,1,5.09,2.19,7.66,3.23,6.81,2.78,10.67,7.85,11.8,15,.32,2.06.56,4.13-.63,6.08a3.5,3.5,0,0,0-.45,2c.2,2.83-.55,5.51-1.17,8.21a.92.92,0,0,0,.07.66,3.64,3.64,0,0,0,.9.85c.51.32.86.12,1.12-.43a28.41,28.41,0,0,0,2.85-12c0-5.56.09-11.12,1.41-16.57a1.56,1.56,0,0,0-1-1.54,27,27,0,0,1-4.15-.4c-2-.54-4-1.34-4.65-3.69l1.11-1.12c.5.48,1,1,1.5,1.44a6.78,6.78,0,0,0,5.83,1.5,3.1,3.1,0,0,0,2.66-2.76c.17-5.08.36-10.17.38-15.25,0-3.7-.1-7.39,1.09-11,.06-.2-.08-.45-.07-.67,0-.57-.23-1-.78-1a47.1,47.1,0,0,1-5.47-.39c-6.1-1.22-12.18-2.59-18.26-3.93A6.3,6.3,0,0,1,30,96.32a54,54,0,0,0-15.33-6.09c-2.88-.69-5.58-2.14-8.35-3.27a1.08,1.08,0,0,1-.41-.5c-.11-.2-.26-.47-.2-.65s.36-.25.57-.33A3.45,3.45,0,0,1,9,85.71a48.12,48.12,0,0,0,5.74,2.36,99.66,99.66,0,0,1,16.06,6.16,8.9,8.9,0,0,0,2.59.91,19.8,19.8,0,0,1,5.27,1.64,9.57,9.57,0,0,0,2.6.86c4.12.42,8.26.76,12.39,1.08a2.25,2.25,0,0,0,2.35-2,22,22,0,0,0,.07-3.44c-.68-6.67-1.42-13.33-2.12-20a4.75,4.75,0,0,0-1.59-3,12.79,12.79,0,0,0-5.71-3.67,2.89,2.89,0,0,1-2.41-2.2c.42-.14.9-.48,1.26-.39,1.79.47,3.54,1.07,5.32,1.59A1.18,1.18,0,0,0,52.3,64.1a17.44,17.44,0,0,1-.44-6.88c.29-4.11-1.51-7.68-2.46-11.47A6,6,0,0,0,48.3,44a31.77,31.77,0,0,1-5.94-15.27,54.72,54.72,0,0,1-.69-5.5c0-3.08-1-5.91-1.7-8.81-.07-.27-.45-.49-.73-.65-.06,0-.38.26-.48.46a5.94,5.94,0,0,0-.88,1.88c-.55,4.81-2,9.52-1.73,14.44.1,2.08.08,4.17,0,6.25a4,4,0,0,0,1.18,3.12c3,2.94,5.86,5.91,8.82,8.84a7.44,7.44,0,0,1,2.13,3.5,3.87,3.87,0,0,1-2.2,4.58,9,9,0,0,1-8,0c-5.16-2.58-10.53-4.7-15.39-7.92a12.46,12.46,0,0,0-12-1c-.21.09-.56.28-.54.39,0,.43.07,1.08.34,1.24,1.78,1,3.64,1.94,5.44,2.93C17.18,53.09,18.63,53.39,19.3,54.78Zm21,115.63a7.52,7.52,0,0,0-.89.21.82.82,0,0,0-.41,1.17,11.65,11.65,0,0,0,3.57,4.81c.15.12.57.2.63.13.23-.33.61-.8.52-1.08A18.48,18.48,0,0,0,42.1,172,6.83,6.83,0,0,0,40.26,170.41Z"/><path d="M70.62,160.48c1,0,2,.19,1.94,1.35a39.23,39.23,0,0,1-1.42,10.84c-1,3.07-2.44,5.38-5.47,6.59-.43.17-.81.45-1.23.62a13.66,13.66,0,0,0-5.89,4.57c-.62.84-1.59.77-2.51.69l-.07,0c.21-.89.36-1.77-.63-2.35-.57-1.2-1.26-2.31-.54-3.79a30.72,30.72,0,0,0,3.35-11.6,6.78,6.78,0,0,0,1-.59c.44-.39.82-.85,1.22-1.28l1,.87c-.46,1.28-1,2.54-1.37,3.85-.16.57.21.93.62.76.63-.24,1.24-.57,1.85-.87a3.35,3.35,0,0,1-.28,2.61c-.67,1.69-2.23,3-2.3,4.89a1.72,1.72,0,0,0,.62,1c1.94-.66,3.87-1.34,5.74-2.16a3,3,0,0,0,1.38-1.45c1.1-2.5,2.16-5,2.14-7.84,0-.31-.5-.65-.83-.9a.68.68,0,0,0-.65,0c-1.57,1.3-3.09,2.66-4.68,3.93-.26.21-.83,0-1.25,0-.12-1.72,1.17-2.79,1.92-4.1.46-.79,0-1.13-.47-1.56l-.07.08c.37.53.78,1.14,1.52.64A17.89,17.89,0,0,0,70.62,160.48Z"/><path class="cls-1" d="M51.51,191.11a13,13,0,0,1-3.84-5.64,6.5,6.5,0,0,1-.16-2,1.55,1.55,0,0,1,1.29-1.37.86.86,0,0,1,1.08.64c.22.66.44,1.32.72,1.95.65,1.52.92,1.59,3.31,1l2.06-.5.07,0c-.22.89-.46,1.78-.66,2.68A3.81,3.81,0,0,1,51.51,191.11Z"/><path class="cls-1" d="M60.34,165.55c-.4.43-.78.89-1.22,1.28a6.78,6.78,0,0,1-1,.59l.1.11a6.81,6.81,0,0,1,1-3.14,5.29,5.29,0,0,0,.45-1.88c0-.16-.21-.4-.38-.52a.59.59,0,0,0-.52,0c-1.89,1.37-2.63,3.48-3.44,5.53l.07-.1a1.64,1.64,0,0,1-1-2.06c.43-1.64,1.08-3.23,1.64-4.84l2.94-.72-.21.14,1.5-.82c.1.62,0,1.51.33,1.82a1.61,1.61,0,0,1,.64,2.17C60.88,163.89,60.63,164.73,60.34,165.55Z"/><path d="M60.34,165.55c.29-.82.54-1.66.9-2.45a1.61,1.61,0,0,0-.64-2.17c-.36-.31-.23-1.2-.33-1.82.94-1,1.56-2.25,2.91-2.81.74-.31,2.2.09,2.31.81.17,1.12.18,2.25.25,3.38-1.14,1.19-2.15,2.44-2,4.23l.07-.08a6.19,6.19,0,0,0-1,.56c-.49.37-.93.81-1.39,1.22Z"/><path class="cls-1" d="M63.73,164.72c-.14-1.79.87-3,2-4.23h4.88a17.89,17.89,0,0,1-5.37,4.88C64.51,165.86,64.1,165.25,63.73,164.72Z"/><path d="M58.77,159.93l.21-.14Z"/><path class="cls-1" d="M44,130.22c.66,2.35,2.63,3.15,4.65,3.69a27,27,0,0,0,4.15.4,1.56,1.56,0,0,1,1,1.54c-1.32,5.45-1.36,11-1.41,16.57a28.41,28.41,0,0,1-2.85,12c-.26.55-.61.75-1.12.43a3.64,3.64,0,0,1-.9-.85.92.92,0,0,1-.07-.66c.62-2.7,1.37-5.38,1.17-8.21a3.5,3.5,0,0,1,.45-2c1.19-2,.95-4,.63-6.08-1.13-7.2-5-12.27-11.8-15-2.57-1-5.09-2.2-7.66-3.23-1.91-.77-2.78-2.34-3.49-4.09a1.21,1.21,0,0,1,1-1.47c.92,0,1.83.24,2.75.22.29,0,.81-.5.8-.77a1.71,1.71,0,0,0-.64-1.11,2.55,2.55,0,0,0-2.58-.51c-.86.3-1.89.75-2.43-.26a7.71,7.71,0,0,1-.41-2.67,1.1,1.1,0,0,1,.23-.65c.38-.58.82-1.23,1.59-1.12a10.59,10.59,0,0,1,3.34.78c3.43,1.8,7.14,1.79,10.84,1.93a49,49,0,0,0,5.55-.16,3.76,3.76,0,0,0,2.72-5.77,5.72,5.72,0,0,0-.39-.57c-1.58-1.69-3.08-3.47-4.77-5a14.79,14.79,0,0,0-7.87-4.13,60.83,60.83,0,0,1-7.41-1.74A48.47,48.47,0,0,1,19.46,98C14.18,95.14,9,92.1,3.88,89a2.13,2.13,0,0,1-.65-3,17.08,17.08,0,0,1,2.95-2.88,16.52,16.52,0,0,1,7.9-2.4,3.87,3.87,0,0,1,2,.37c7.64,3.65,15.84,5,24.12,6,.46,0,.93.06,1.39.07a2.62,2.62,0,0,0,2.07-1.63,8.57,8.57,0,0,0,.6-3.36c-.53-3.31-1.91-6.12-5.2-7.7-4.79-2.3-9.53-4.72-14.28-7.12-1.23-.63-2.38-1.43-3.61-2.06-2.66-1.37-5.11-3.12-7.95-4.22a15.67,15.67,0,0,1-8.33-8,1.46,1.46,0,0,1,.37-1.86,2.92,2.92,0,0,1,1.83-.67A5,5,0,0,1,9,51.21c1.86.92,3.73,1.84,5.55,2.85a7.62,7.62,0,0,0,4.71.72l-.14-.09c.43.4.82,1.06,1.31,1.14,1.45.24,2.93.25,4.4.35l-.16-.08c.15.17.27.43.46.5a40.31,40.31,0,0,1,8.46,4.11A38.14,38.14,0,0,0,41,64.13a13,13,0,0,0,3.33.41l-.11-.09a2.89,2.89,0,0,0,2.41,2.2,12.79,12.79,0,0,1,5.71,3.67,4.75,4.75,0,0,1,1.59,3c.7,6.66,1.44,13.32,2.12,20A22,22,0,0,1,56,96.72a2.25,2.25,0,0,1-2.35,2c-4.13-.32-8.27-.66-12.39-1.08a9.57,9.57,0,0,1-2.6-.86,19.8,19.8,0,0,0-5.27-1.64,8.9,8.9,0,0,1-2.59-.91,99.66,99.66,0,0,0-16.06-6.16A48.12,48.12,0,0,1,9,85.71a3.45,3.45,0,0,0-2.67-.23c-.21.08-.51.17-.57.33s.09.45.2.65a1.08,1.08,0,0,0,.41.5c2.77,1.13,5.47,2.58,8.35,3.27A54,54,0,0,1,30,96.32a6.3,6.3,0,0,0,1.93.75c6.08,1.34,12.16,2.71,18.26,3.93a47.1,47.1,0,0,0,5.47.39c.55,0,.79.43.78,1,0,.22.13.47.07.67-1.19,3.58-1.07,7.27-1.09,11,0,5.08-.21,10.17-.38,15.25A3.1,3.1,0,0,1,52.42,132a6.78,6.78,0,0,1-5.83-1.5c-.52-.46-1-1-1.5-1.44-.68-.59-1.27-1.45-2.07-1.74-3-1.09-6.07-2-9.12-3-.88-.29.22-.11-.57.37-.15.09-.11.8.07,1.07a4.85,4.85,0,0,0,2.81,1.81C38.8,128.47,41.61,128.69,44,130.22Z"/><path class="cls-1" d="M78.43,29,76.3,35.22c-.29.34-.76.65-.85,1a18.46,18.46,0,0,1-4.41,9,1,1,0,0,0,.32.44.7.7,0,0,0,.55.1,5.46,5.46,0,0,0,2.93-2.72c1-2.55,1.81-5.15,1.35-8a1.29,1.29,0,0,0,1.75-.47c1-1.56,1.87-3.15,2.77-4.75.27-.48.64-.7,1.13-.38a2,2,0,0,1,.77,1,3.11,3.11,0,0,1,0,1.36,6.27,6.27,0,0,1-.4,1.32C80.8,36.85,79.35,40.48,78,44.14a25.69,25.69,0,0,1-8,11.07c-.54.43-1,.92-1.61,1.32a8.25,8.25,0,0,0-3.52,7.14c0,3.45,0,6.93,1.5,10.17.9,1.89,1.84,3.91,4.27,4,2.05.07,3.34-1.49,4.29-3.08A63.34,63.34,0,0,0,78,68.58c1.24-2.74,2.44-5.44,5.14-7.17a17.12,17.12,0,0,0,2.37-2.5c.44-.44.94-1.07,1.69-.58s1.55,1.42,1.3,2.28a34.15,34.15,0,0,1-2.57,7c-2,3.6-3.88,7.35-7.51,9.73a2.08,2.08,0,0,0-.74,2.46l.13-.06c-.43,0-1-.24-1.26,0a42,42,0,0,0-5,4.66c-1.53,1.82-3.92,2.43-5.37,4.23-1.87,2.3-3.87,4.52-5.11,7.27a2.15,2.15,0,0,0-.07.68l.06-.14a6.06,6.06,0,0,1-1.36-.1c-.39-.11-1-.35-1-.64a10.27,10.27,0,0,1-.36-2.7,43.43,43.43,0,0,0-.79-8.87c-.86-4.5-1.22-9.09-2.2-13.58a7,7,0,0,1,1.18-5.19c1.72-2.95,3.09-6.11,4.61-9.17a43.13,43.13,0,0,0,6.64-7,1.12,1.12,0,0,0,.26-.63c0-.16-.2-.36-.36-.46s-.46-.22-.57-.14a18.12,18.12,0,0,0-6.76,7.67A4.63,4.63,0,0,0,57.9,58c-.63,1.46-1.31,2.9-2,4.33a.7.7,0,0,1-.56.34c-.4-.12-1-.31-1.09-.57a14.14,14.14,0,0,1-.35-3.42,34.3,34.3,0,0,0-2.5-13.51,9.42,9.42,0,0,0-1.21-2.44,29.58,29.58,0,0,1-6-17.39,61.15,61.15,0,0,0-1.58-10.26c-.53-2.73-1-5.45-.16-8.2.06-.19.25-.5.35-.5a2.6,2.6,0,0,1,1.26.29,2.58,2.58,0,0,1,.84,1.08c2,4.4,4.15,8.75,4.72,13.67A22.12,22.12,0,0,0,54.43,33.5c1.39,1.65,1.51,3.84,2.15,5.8a3.35,3.35,0,0,0,1.68,2.08q1.85.94,3.72,1.83a2.62,2.62,0,0,0,3.11-.74A12.79,12.79,0,0,0,68.3,38,23.13,23.13,0,0,1,77,27.55Z"/><path class="cls-1" d="M61.06,129.88a18.2,18.2,0,0,1-1.94-.45,2,2,0,0,1-1-.66,2.42,2.42,0,0,1-.29-1.28c.1-5.73.17-11.46.39-17.18.09-2.51.64-5,.73-7.51a8.37,8.37,0,0,1,1.83-5.06c.24-.31.15-.87.22-1.31l-.06.14a2.24,2.24,0,0,0,2.33-1c2.19-3.24,5.2-5.65,8-8.25,2-1.83,4-3.72,5.84-5.67.41-.42.43-1.22.63-1.85l-.13.06A20.74,20.74,0,0,0,86,72c1.08-1.69,1.77-3.72,3.5-5a.56.56,0,0,1,.56.06,1,1,0,0,1,.24.64,25.1,25.1,0,0,1-7.47,18.68,49.76,49.76,0,0,0-10,14.81,4.44,4.44,0,0,0,3.59,6.13,3.58,3.58,0,0,0,2-.27,19.71,19.71,0,0,0,2.31-1.49c2.14-1.35,4.15-3,6.46-4a23.71,23.71,0,0,0,6.93-4.41,1.71,1.71,0,0,1,2.4.36,16,16,0,0,1,1,1.8c.77,1.59.55,2.81-.71,3.62s-2.79,1.62-4.11,2.53a16,16,0,0,0-2.55,2.31c-.21.23,0,.82,0,1.25l.07-.11c-1.63-.07-1.63-.07-1.5,1.51l.13-.11c-.43-.1-.92-.39-1.27-.27-1.47.53-2.86,1.34-4.36,1.74a18.13,18.13,0,0,0-8.87,5.91c-.11.12.29.68.45,1l.08-.07c-.5,0-.88-.69-1.52,0s0,1,0,1.53l.13-.1c-.48-.5-1-.92-1.69-.39q-5.43,4.22-10.83,8.48c-.27.22-.27.77-.45,1.13-.41.84.17-.29.31.62Z"/><path class="cls-1" d="M19.3,54.78c-.67-1.39-2.12-1.69-3.32-2.34-1.8-1-3.66-1.9-5.44-2.93-.27-.16-.3-.81-.34-1.24,0-.11.33-.3.54-.39a12.46,12.46,0,0,1,12,1c4.86,3.22,10.23,5.34,15.39,7.92a9,9,0,0,0,8,0,3.87,3.87,0,0,0,2.2-4.58,7.44,7.44,0,0,0-2.13-3.5c-3-2.93-5.87-5.9-8.82-8.84a4,4,0,0,1-1.18-3.12c0-2.08.06-4.17,0-6.25-.25-4.92,1.18-9.63,1.73-14.44a5.94,5.94,0,0,1,.88-1.88c.1-.2.42-.49.48-.46.28.16.66.38.73.65.75,2.9,1.73,5.73,1.7,8.81a54.72,54.72,0,0,0,.69,5.5A31.77,31.77,0,0,0,48.3,44a6,6,0,0,1,1.1,1.74c1,3.79,2.75,7.36,2.46,11.47a17.44,17.44,0,0,0,.44,6.88,1.18,1.18,0,0,1-1.49,1.55c-1.78-.52-3.53-1.12-5.32-1.59-.36-.09-.84.25-1.26.39l.11.09c-.09-.4-.05-1-.29-1.16A12.62,12.62,0,0,0,40.94,62a16.2,16.2,0,0,1-6.65-3.3,12.07,12.07,0,0,0-9.58-2.62l.16.08c-.2-.62-.44-1.21-1.2-1.26-1.51-.09-3-.15-4.51-.23Z"/><path class="cls-1" d="M90.19,109.06c.46,0,.92.06,1.38.12,1.06.13,1.43.54,1.06,1.16-.95,1.59-1.9,3.18-2.89,4.74-2.16,3.42-4.92,6.17-8.84,7.49a9.49,9.49,0,0,0-4,2.72c-3.17,3.37-6.9,6.18-9.8,9.83a3.25,3.25,0,0,1-.48.5c-1.27,1-2.86,1.77-3.73,3-1.56,2.28-2.67,4.86-4,7.29-.77,1.41-1.57,2.81-2.46,4.15-.19.27-.82.29-1.25.35s-.83-.24-.85-.84a12,12,0,0,1-.08-2.07c.47-3,.93-5.95,1.55-8.89a10.78,10.78,0,0,1,2.93-5.43c1-1,2.16-1.78,2.3-3.33l-.14.06c.43-.11,1-.08,1.27-.34a59,59,0,0,1,7.62-5.72c1.47-.94,3.15-1.88,3.77-3.78l-.13.1c1,0,1.57-.43,1.47-1.5l-.08.07a2.64,2.64,0,0,0,2.45-.83A18.83,18.83,0,0,1,86,112.81a7.48,7.48,0,0,0,2.37-1.31c.31-.22.38-.75.56-1.15l-.13.11c1,0,1.56-.46,1.5-1.51Z"/><path class="cls-1" d="M58.15,167.42A30.72,30.72,0,0,1,54.8,179c-.72,1.48,0,2.59.54,3.79a2.5,2.5,0,0,1-1,0c-2.09-3.91-1.36-7.73.36-11.51.45-1,1.1-1.93,1.53-2.95.07-.18-.5-.63-.77-1l-.07.1c.44.48.84.93,1.6.39a4,4,0,0,1,1.28-.37Z"/><path class="cls-1" d="M40.26,170.41A6.83,6.83,0,0,1,42.1,172a18.48,18.48,0,0,1,1.58,3.68c.09.28-.29.75-.52,1.08-.06.07-.48,0-.63-.13A11.65,11.65,0,0,1,39,171.79a.82.82,0,0,1,.41-1.17A7.52,7.52,0,0,1,40.26,170.41Z"/><path class="cls-1" d="M54.32,182.83a2.5,2.5,0,0,0,1,0c1,.58.84,1.46.63,2.35l-2.06.5A3.94,3.94,0,0,1,54.32,182.83Z"/><path class="cls-1" d="M35.88,168.94a7.51,7.51,0,0,1,1,.71.64.64,0,0,1,0,.63c-.4.5-.78.41-.9-.25a7.23,7.23,0,0,1,0-1.23Z"/><path class="cls-1" d="M36,168.8c-.44.29-.8.25-.88-.19,0-.19.25-.44.39-.66l.37,1Z"/><path class="cls-1" d="M78.54,26.25c.16-.12.31-.33.49-.35.35,0,1-.13,1,0,.4.76-.27.93-.78,1.16C79,26.81,78.78,26.54,78.54,26.25Z"/><path class="cls-1" d="M79.28,27.09c-.29.62-.57,1.25-.85,1.87L77,27.55l1.52-1.29C78.78,26.54,79,26.81,79.28,27.09Z"/><path class="cls-1" d="M62.35,170.3c.42,0,1,.17,1.25,0,1.59-1.27,3.11-2.63,4.68-3.93a.68.68,0,0,1,.65,0c.33.25.83.59.83.9,0,2.8-1,5.34-2.14,7.84a3,3,0,0,1-1.38,1.45c-1.87.82-3.8,1.5-5.74,2.16a1.72,1.72,0,0,1-.62-1c.07-1.93,1.63-3.2,2.3-4.89a3.35,3.35,0,0,0,.28-2.61Z"/><path class="cls-1" d="M61.36,166.42c.46-.41.9-.85,1.39-1.22a6.19,6.19,0,0,1,1-.56c.44.43.93.77.47,1.56-.75,1.31-2,2.38-1.92,4.1l.11-.14c-.61.3-1.22.63-1.85.87-.41.17-.78-.19-.62-.76C60.37,169,60.9,167.7,61.36,166.42Z"/><path d="M58.25,167.53a4,4,0,0,0-1.28.37c-.76.54-1.16.09-1.6-.39.81-2,1.55-4.16,3.44-5.53a.59.59,0,0,1,.52,0c.17.12.41.36.38.52a5.29,5.29,0,0,1-.45,1.88A6.81,6.81,0,0,0,58.25,167.53Z"/><path d="M24.71,56.1a12.07,12.07,0,0,1,9.58,2.62A16.2,16.2,0,0,0,40.94,62a12.62,12.62,0,0,1,3.11,1.36c.24.13.2.76.29,1.16A13,13,0,0,1,41,64.13a38.14,38.14,0,0,1-7.38-3.42,40.31,40.31,0,0,0-8.46-4.11C25,56.53,24.86,56.27,24.71,56.1Z"/><path d="M44,130.22c-2.37-1.53-5.18-1.75-7.77-2.59a4.85,4.85,0,0,1-2.81-1.81c-.18-.27-.22-1-.07-1.07.79-.48-.31-.66.57-.37,3.05,1,6.12,1.89,9.12,3,.8.29,1.39,1.15,2.07,1.74Z"/><path d="M19.16,54.69c1.5.08,3,.14,4.51.23.76,0,1,.64,1.2,1.26-1.47-.1-2.95-.11-4.4-.35C20,55.75,19.59,55.09,19.16,54.69Z"/><path d="M77.78,79.77c-.2.63-.22,1.43-.63,1.85-1.88,1.95-3.84,3.84-5.84,5.67-2.84,2.6-5.85,5-8,8.25a2.24,2.24,0,0,1-2.33,1,2.15,2.15,0,0,1,.07-.68c1.24-2.75,3.24-5,5.11-7.27,1.45-1.8,3.84-2.41,5.37-4.23a42,42,0,0,1,5-4.66C76.75,79.53,77.35,79.75,77.78,79.77Z"/><path d="M76.19,35.14c.46,2.8-.33,5.4-1.35,8a5.46,5.46,0,0,1-2.93,2.72.7.7,0,0,1-.55-.1,1,1,0,0,1-.32-.44,18.46,18.46,0,0,0,4.41-9c.09-.39.56-.7.85-1Z"/><path d="M60.26,55.62A18.12,18.12,0,0,1,67,48c.11-.08.41,0,.57.14s.36.3.36.46a1.12,1.12,0,0,1-.26.63,43.13,43.13,0,0,1-6.64,7C60.79,56,60.53,55.8,60.26,55.62Z"/><path d="M73.58,120.1c-.62,1.9-2.3,2.84-3.77,3.78a59,59,0,0,0-7.62,5.72c-.29.26-.84.23-1.27.34-.14-.91-.72.22-.31-.62.18-.36.18-.91.45-1.13q5.39-4.27,10.83-8.48C72.58,119.18,73.1,119.6,73.58,120.1Z"/><path d="M88.89,110.35c-.18.4-.25.93-.56,1.15A7.48,7.48,0,0,1,86,112.81a18.83,18.83,0,0,0-8.67,5.13,2.64,2.64,0,0,1-2.45.83c-.16-.36-.56-.92-.45-1a18.13,18.13,0,0,1,8.87-5.91c1.5-.4,2.89-1.21,4.36-1.74C88,110,88.46,110.25,88.89,110.35Z"/><path d="M90.26,109c.06,1-.45,1.55-1.5,1.51C88.63,108.88,88.63,108.88,90.26,109Z"/><path d="M74.92,118.7c.1,1.07-.49,1.48-1.47,1.5-.06-.5-.69-.87,0-1.53S74.42,118.65,74.92,118.7Z"/></g></g></svg>