<svg xmlns="http://www.w3.org/2000/svg" viewBox="0 0 57.61 139.01"><title>Plant1</title><g id="Laag_2" data-name="Laag 2"><g id="Laag_1-2" data-name="Laag 1"><path d="M6.13,3.27c.93,0-.06-.77.67-.21,1.69,1.28,3.13,2.84,2.81,5-.38,2.66.93,4.41,2.48,6.17a.77.77,0,0,0,1.19.07,1.21,1.21,0,0,0,.37-.49c.49-1.28-.35-2.73.64-4,.72-.93,2.16-1.37,3-.61a3.91,3.91,0,0,1,1.49,3c0,.92-.17,1.84-.25,2.76a16,16,0,0,0-.1,2.07A1.82,1.82,0,0,0,20,18.89a2.91,2.91,0,0,1,2.38,3,54.07,54.07,0,0,1,.27,5.54c0,1.59-.39,3.16-.56,4.75-.07.58.27.88.84.88a5.9,5.9,0,0,0,1.33,0,3.4,3.4,0,0,1,3.64,1.42,4.36,4.36,0,0,1,.35,4.62,6.34,6.34,0,0,1-1.58,2.25,16.93,16.93,0,0,0-3.05,4.59A7.76,7.76,0,0,0,23,51.31c.13.74,1,1.56,1.35,1.25s.79-.52.83-.83c.38-2.71,2-4.59,4-6.25a1.78,1.78,0,0,1,2.33.72,5.84,5.84,0,0,1,.54,1.27c.37,1.65.41,3.47-.78,4.63-3.09,3-2.7,7.27-4.32,10.78-.16.34.13.89.24,1.34.15.67,1,1.35,1.45,1.17a2.49,2.49,0,0,0,1.06-.61,6.74,6.74,0,0,0,1.65-5.1c-.14-1.6,1.29-2.39,2.82-1.87,1.92.66,2.43,1.65,1.66,3.58A3.91,3.91,0,0,0,35.44,64a5.26,5.26,0,0,0,.44,1.32c2,3.36,1.72,6.65-.42,9.78-2.52,3.68-1.37,7,.84,10.22.1.15.43.17.66.2s.51,0,.54-.08a12.12,12.12,0,0,0,.61-1.94C38.62,81,39.6,78.78,42,77.35c1.15-.67,1.88-2,2.94-2.91a2.89,2.89,0,0,1,3.25-.35,2.47,2.47,0,0,1,.78,1,.91.91,0,0,1,.05.67c-1.25,3.48-2.46,7-3.84,10.41a9,9,0,0,1-2,2.75,23,23,0,0,1-3.68,3.16c-2,1.27-2,2.91-1.41,4.83.14.44.27.89.43,1.32a1.63,1.63,0,0,0,1.75.66c2-1.07,4.08-2.16,6.13-3.23,2.3-1.19,4.48-.71,6.6.53a1.91,1.91,0,0,1,.52,2.44,11.76,11.76,0,0,1-5.61,3.86c-2.24.58-4.46,1.23-6.67,1.9a2.59,2.59,0,0,0-1.63,2.77c.1.91.29,1.82.48,2.72s.92,1.37,1.45,1.17c2.4-.9,4.56.28,6.79.62a49,49,0,0,1,6.1,1.39,4,4,0,0,1,3.17,3.29,1.46,1.46,0,0,1-.53,1.12,2.18,2.18,0,0,1-1.25.42c-3.92.09-7.86-.67-11.76.45-.54.16-1.29-.35-1.93-.56-2.05-.66-2.92,0-2.7,2.2a23.25,23.25,0,0,0,.47,2.73A1.69,1.69,0,0,0,42.46,124c2.76-1.5,5.81-1.39,8.76-1.66,1.45-.13,2.49,1.05,3.17,2.36a1.67,1.67,0,0,1-.21,1.92,6.15,6.15,0,0,1-4,2.43c-2.51.31-5,.64-7.51,1-1.23.16-1.72.69-1.66,1.77.09,1.85.23,3.69.28,5.54a3.13,3.13,0,0,1-.38,1.31.7.7,0,0,1-.52.36,2,2,0,0,1-1.14-.38c-1-1.16-.62-2.64-.84-4-.12-.68-.23-1.37-.35-2a2.23,2.23,0,0,0-1.8-1.87c-1.14-.17-2.29-.29-3.44-.42s-2.33-.15-3.45-.4c-3.44-.76-5.92-2.53-6.37-6.34a1.79,1.79,0,0,1,1.31-2A8.41,8.41,0,0,1,30.83,123a50.13,50.13,0,0,0,4.69,3c.41.25,1.58-.44,1.54-.91-.18-1.82-.33-3.66-.59-5.48a2.2,2.2,0,0,0-2.69-1.6,10,10,0,0,1-6.13-.2,11.93,11.93,0,0,0-3.39-.49c-3.56-.2-5.32-2.39-6.29-5.51a2.4,2.4,0,0,1,1.6-2.71c1.59-.38,3.21-.77,4.79-.13,2.12.86,4.4,1.33,6.16,3a6,6,0,0,0,5.21,1.32,1.39,1.39,0,0,0,.93-.79,7.89,7.89,0,0,0-.44-5.39,1.5,1.5,0,0,0-1-.83c-1.37-.2-2.75-.26-4.13-.35s-2.79-.05-4.15-.27a4.78,4.78,0,0,1-2.53-1A49.69,49.69,0,0,1,16.61,95c-.1-.16-.08-.59,0-.66a2,2,0,0,1,1.18-.44c1.57.3,3.12,1,4.69,1,3.29.1,6.31,1.33,9.47,1.9a4.82,4.82,0,0,1,1.23.64,2.74,2.74,0,0,0,.5.4c1.17.63,1.66.4,1.59-.73a5.52,5.52,0,0,0-.37-1.2c-.3-.58-.46-1.44-.93-1.68-1.84-.94-3.81-1.63-5.67-2.54-.77-.38-1.6-1-1.33-2.11.44-.08.89-.15,1.33-.24,1.09-.22,1.46-.58,1.11-1.09-.64-.93-1.29-1.85-1.94-2.77a3.32,3.32,0,0,0-2.94-1.38c-.67,0-1.35.13-2,.19s-.87.35-.72.86.21,1,.5,1.18c1.36.8,2.8,1.45,4.16,2.25.33.18.44.72.66,1.1a7.74,7.74,0,0,1-5.32-1.05,14.59,14.59,0,0,1-7.07-8.12A.76.76,0,0,1,15,79.9a1,1,0,0,1,.61-.3,3.75,3.75,0,0,1,2.57.81,6.12,6.12,0,0,0,5.25,1.07,5.18,5.18,0,0,1,4,.81,24.33,24.33,0,0,0,2.47,1.18A1.42,1.42,0,0,0,31.63,82,5.87,5.87,0,0,0,31,80.09a1.87,1.87,0,0,0-1-.9c-3.68-.91-6.51-3.44-9.81-5.07C20,74,20,73.33,20,72.92c.42-.12.85-.22,1.27-.35s.66-.25,1-.38a3,3,0,0,0-.35-.58,3.51,3.51,0,0,0-1.05-.89,3.21,3.21,0,0,0-1.23,0,4.94,4.94,0,0,1,.41,1A6.41,6.41,0,0,1,20,73c-1.95.59-3.1-.41-3.75-2a2.16,2.16,0,0,1,.25-1.86c1.29-1.43,2.86-2.3,4.89-1.44a19.78,19.78,0,0,0,1.9.7c.78.22,1.81-.72,1.78-1.57a7.73,7.73,0,0,0-6-7.43c-1.35-.28-2.76-.31-4.07-.69a4.72,4.72,0,0,1-3.61-3.78c-.11-.61.43-1.51,1-1.51,1.82,0,3.63.69,5.46,0,.84-.34,1.83-.43,2-1.53A3.17,3.17,0,0,0,19,48.63c-1.39-1.19-2.8-2.62-4.7-2.73-2.73-.16-3.91-2.16-5.33-3.92a6,6,0,0,1-.86-1.82c-.05-.12.2-.47.37-.54a12,12,0,0,1,6.69-.72,7.69,7.69,0,0,0,1.19.65c.87.28,1.43-.11,1.3-.92a4.73,4.73,0,0,0-.57-1.18c-.32-.58-.5-1.41-1-1.7-2.55-1.52-4.74-3.65-7.64-4.59-.39-.13-.68-.58-1-.91a2.71,2.71,0,0,1,.12-3.18c1.11-.82,2.27-1.56,3.39-2.36,1.28-.93,1.63-1.54,1.16-2.17a6.14,6.14,0,0,0-1.82-1.93A15.49,15.49,0,0,0,7,19.78a12.53,12.53,0,0,1-2.63-.68,3.29,3.29,0,0,1-1.26-1.52,2,2,0,0,1,1-2.29c1-.41,2.18-.6,3.23-1a1.29,1.29,0,0,0,.65-1c-.09-.91-.39-1.79-.57-2.69A2.58,2.58,0,0,0,5.86,8.49c-2.51-1-3.92-3.07-5.48-5A1.93,1.93,0,0,1,1.09.59C3.19-.7,5.47.18,6.45,2.67c0,.13-.22.39-.33.59-.38.15-.76.45-1.13.43-.63,0-1,.06-.79.4A3.14,3.14,0,0,0,5.09,5c.34.25.44,0,.46-.69C5.57,4,5.93,3.62,6.13,3.27ZM24.51,70.09c.85,1.48,1,1.56,2.53,1.35.05.33.09.66.14,1l.67-.35-1-.52a1.31,1.31,0,0,0-1-1.52,1.9,1.9,0,0,0-.25-.64c-.29-.33-.79-.92-.95-.85C24,68.9,24,69.5,24.51,70.09ZM23.68,39c-.15.15-.41.28-.44.46-.06.37-.13,1,0,1.1.86.41.85-.41,1.06-.9,1.14-.43,1.49-1.52,2-2.46.11-.23-.27-.72-.43-1.08-.36.17-.88.24-1.06.53A20.3,20.3,0,0,0,23.68,39ZM41,86.94c-.82-.42.39-.72-.47-.36a.81.81,0,0,0-.43.38,1.29,1.29,0,0,0,0,.58l.77-.75a4,4,0,0,0,1.21-.55,14.76,14.76,0,0,0,3-5.26,2.09,2.09,0,0,0,0-1.33,2.68,2.68,0,0,0-.76-1c0-.05-.4.16-.59.28a7.64,7.64,0,0,0-3.54,6.27C40.16,85.74,40.69,86.35,41,86.94Zm-9.44,16.7c.47-.06,1.59-.18,2.71-.35.12,0,.24-.29.27-.47s.1-.55,0-.65c-2.23-2-4.46-3.92-7.71-4-.89,0-1.76-.45-2.66-.55a1.19,1.19,0,0,0-1.17,1.79c1.47,2.47,3.33,4.35,6.54,4A14.93,14.93,0,0,1,31.51,103.64Zm-5.4,11c.58,0,1,0,1.46-.11a1.31,1.31,0,0,0,.53-.24c-.12-.41-.18-1-.47-1.17-1.59-.8-3.22-1.52-4.87-2.17a2.74,2.74,0,0,0-1.31.11c-.49.07-1,1.29-.59,1.66a5.81,5.81,0,0,0,2.05,1.59A14.26,14.26,0,0,0,26.11,114.59Zm5.42-44.31a13.26,13.26,0,0,0,.38,2.28,1.71,1.71,0,0,0,.89.94,1.2,1.2,0,0,0,1-.42C35.32,71,35,68.84,33.59,66.8a2.09,2.09,0,0,0-.46-.46c-.34.28-.82.55-.94.92C31.87,68.33,31.7,69.44,31.53,70.28ZM49.9,98.12c-.31-.26-.74-.81-.91-.73-1.46.63-2.87,1.36-4.28,2.1-.16.08-.24.4-.27.62s.24.27.38.28c1.61.07,3.26.18,4.51-1.13A4.06,4.06,0,0,0,49.9,98.12ZM51,115.62c0-.09-.09-.44-.23-.48-1.75-.49-3.51-.93-5.26-1.37a1.16,1.16,0,0,0-1.4,1c0,.57.21.81.82.81ZM19.56,29.7c.22-.33.65-.67.63-1-.14-2-.37-4-.6-6a1,1,0,0,0-.64,0,2.27,2.27,0,0,0-1.15,2.22,38.16,38.16,0,0,0,1.14,4.54C19,29.59,19.34,29.62,19.56,29.7ZM45,126.28l.29.73c1.33-.12,2.67-.18,4-.38.38-.06.72-.48,1-.77.15-.13.33-.39.28-.52s-.35-.45-.48-.42C48.45,125.34,46.75,125.82,45,126.28ZM13.32,30.72c.19-.15.55-.33.52-.41A4.45,4.45,0,0,0,12,27.57a1.27,1.27,0,0,0-1.65.59c-.12.35-.13,1,.08,1.15C11.28,30,12.09,30.84,13.32,30.72Zm16.55,96.19.61-.33a2.57,2.57,0,0,0-.45-.53,9,9,0,0,0-1.72-1.1c-.36-.15-.85,0-1.27.08a3,3,0,0,0,.36,1A2.52,2.52,0,0,0,29.87,126.91ZM14.94,43.29c.18-.11.48-.19.52-.35a.77.77,0,0,0-.31-.55,6.15,6.15,0,0,0-1.59-1c-.3-.1-.76.26-1.15.42.12.18.22.38.34.56A1.86,1.86,0,0,0,14.94,43.29Zm13.3,7.6a.5.5,0,0,0,.24.45.57.57,0,0,0,.51-.19A5.88,5.88,0,0,0,29.2,50a.59.59,0,0,0-.33-.13A5.1,5.1,0,0,0,28.24,50.89Zm2.47,64.52-.44-.24-.05.33ZM21.42,34.65c-.14-.15-.3-.44-.4-.42a4.42,4.42,0,0,0-.87.38c.14.15.3.45.41.43A3.87,3.87,0,0,0,21.42,34.65Z"/></g></g></svg>