<svg xmlns="http://www.w3.org/2000/svg" viewBox="0 0 92.64 117.33"><defs><style>.cls-1{fill:#fff;}</style></defs><title>Plant8</title><g id="Laag_2" data-name="Laag 2"><g id="Laag_1-2" data-name="Laag 1"><path d="M44.89,113.6c-.74-3.36.92-6.59,1.66-9.93a101.66,101.66,0,0,1,3.53-12c.85-2.37,2.32-4.54,2.72-7.07a38.81,38.81,0,0,1,2.32-7.23A36.73,36.73,0,0,1,61,67.28a20.35,20.35,0,0,0,2.67-4c1.93-4.23,3-3.43-1-7.68a3.41,3.41,0,0,1-.8-1.11,1.71,1.71,0,0,1,0-1.31,66.33,66.33,0,0,1,5.09-7.36A54.16,54.16,0,0,1,74,39.19c3.8-3,7.79-5.77,11.7-8.63a13.22,13.22,0,0,1,5.57-2.67,1.29,1.29,0,0,1,1,.7,13.3,13.3,0,0,1-.59,7.47c-2.11,5.66-4.65,11.08-9.12,15.38-2.33,2.23-4.44,4.71-6.75,7a4.56,4.56,0,0,1-5.08,1.25,2.25,2.25,0,0,0-3,1.06c-2.23,4.05-4.76,7.9-7.35,11.73A41.84,41.84,0,0,0,55,85.13a40.48,40.48,0,0,1-3.43,9,17.82,17.82,0,0,0-1.28,3.92,145.68,145.68,0,0,0-3.37,18.41c0,.3-.6.61-1,.77s-.81-.1-.94-.67a3.85,3.85,0,0,1-.1-.68C44.88,115.23,44.89,114.53,44.89,113.6ZM89.28,34A1.69,1.69,0,0,0,89,32.59a1.25,1.25,0,0,0-1.18-.07c-7,4.09-13.11,9.35-19.09,14.77a5,5,0,0,0-.83,1.11c-.34.57-.78,1.15-.17,1.83,1.07,1.19,2.09,2.44,3.2,3.59a1.27,1.27,0,0,0,1.83.1,4.38,4.38,0,0,1,.58-.37c1.22-.82,2.24-2.72,4-.76a.56.56,0,0,0,.5.1A24.87,24.87,0,0,0,84.52,46,37.17,37.17,0,0,0,89.28,34Zm-22,21.89a2.46,2.46,0,0,0,.58-.18.61.61,0,0,0,.17-.39c-.53-.42-1.09-.82-1.65-.06,0,0,.17.33.31.42A2.75,2.75,0,0,0,67.31,55.84Z"/><path d="M21.91,44.35c-.77,1.42-1.52,2.85-2.32,4.25-1,1.7-.87,3,1.19,3.77,1.28,2.41,3.33,4.32,3.83,7.26a26.18,26.18,0,0,0,2.6,7.14,40.18,40.18,0,0,1,4.05,13.12,8.78,8.78,0,0,0,.88,2.6c1.62,3.41,1.25,7.27,2.46,10.78a28.38,28.38,0,0,1,1.74,10.17c0,1.37.08,2.75.09,4.12,0,.1-.31.26-.49.28s-.5,0-.55-.15c-.29-.62-.82-1.34-.7-1.91.73-3.56-.81-6.8-1.44-10.11S31.74,88.93,31,85.56c-1.2-5.15-2.66-10.26-4.16-15.34a30.5,30.5,0,0,0-2.24-5,17.86,17.86,0,0,1-2.14-5.09c-.32-1.91-1.89-3.13-2.88-4.67a2.41,2.41,0,0,0-1.69-1.06c-5,.15-7.1-3.23-9.46-6.86A54,54,0,0,1,3,35.6a14.8,14.8,0,0,0-2.29-5A3.25,3.25,0,0,1,.6,26.74,12.44,12.44,0,0,1,1.76,25c.83-1.05,2.76-1.6,3.75-1a29.13,29.13,0,0,1,5.14,3.47c2.5,2.43,5,4.8,8.17,6.32.77.37,1.27,1.3,1.9,2l-1.23,1.29a8.83,8.83,0,0,1-6.41-3.65A19.17,19.17,0,0,0,7,27.85a10.38,10.38,0,0,0-2.55-1,2.31,2.31,0,0,0-1.26.3.83.83,0,0,0-.5,1.15c1.54,4.09,3.06,8.18,4.64,12.25a23.81,23.81,0,0,0,4.38,7c.23.25.82.19,1.24.28l-.1-.1c-.17,1.89.23,2.56,1.69,3,1,.34,1.92-.24,2.43-1.68.38-1.06.66-2.16,1.08-3.2a4.4,4.4,0,0,1,3-2.51Z"/><path d="M52.23,49.21v.69c0,4.6-.28,9.2.64,13.76.1.49-.4.75-1,.65-.21,0-.5-.08-.61-.23a8.76,8.76,0,0,1-1.74-5.78,51.33,51.33,0,0,1,.52-6.19,20.73,20.73,0,0,0,.17-6.89A27.81,27.81,0,0,1,50.31,37c.42-3.19.06-6.44.95-9.59a6.51,6.51,0,0,0-.88-5.94,2.16,2.16,0,0,1-.21-.65,2.05,2.05,0,0,1,.8-2.41,36.8,36.8,0,0,1,5.69-2.52c3.17-.87,5.82-2.78,8.81-4,1-.42,1.9-1.52,3-1.72,3.47-.64,6.33-2.8,9.68-3.68a2.22,2.22,0,0,1,2.4.93A4.89,4.89,0,0,1,81.23,12a3.64,3.64,0,0,1-.25.65,92.13,92.13,0,0,1-8.4,12.67c-1.58,1.9-3.89,3.22-6,4.69-3.1,2.21-6.3,2.72-9.53.17a7.19,7.19,0,0,0-1.17-.69c-.53-.29-2.24.52-2.32,1.1-.44,3.21-1,6.4-1.23,9.62-.21,3,0,6,0,9Zm8-22.32c0,.64-.12,1.46.21,1.88a2.15,2.15,0,0,0,1.8.71c2.89-.87,5.67-2,7.52-4.6,2.69-3.75,5.39-7.5,8-11.28a8.84,8.84,0,0,0,.77-1.93,2.21,2.21,0,0,0,.23-.65,7.34,7.34,0,0,0-.18-1.33c-.11-.45-1.28-.81-1.83-.61a232,232,0,0,0-22,10.14,2.25,2.25,0,0,0-1,2.94c.53,1,1.08,2,1.66,3.05a2.08,2.08,0,0,0,1.58,1.17c1.13.15,2.25.41,3.37.62Z"/><path d="M31.43,39.56c-2.3.6-4.37.31-6-1.58l.13.13a12,12,0,0,0-1.18-7.37c-1.47-2.52-1.35-5.31-1.78-8a16.16,16.16,0,0,1,.59-7.53,16,16,0,0,0,.94-6.78c-.29-2.61.67-5,1.26-7.44A1.87,1.87,0,0,1,27.69.15a8.14,8.14,0,0,1,2.2,1.58c2.83,3.63,5.61,7.29,8.29,11,.79,1.1,1.13,2.51,1.82,3.7a8.44,8.44,0,0,1,.5,7.36c-1.14,3-1.91,6.18-3.88,8.81-1.4-.91-1.76-1.69-1.19-2.55a3,3,0,0,1,.4-.56c2.23-2,2.57-4.82,3.28-7.45a5,5,0,0,0-.38-2.67c-1.86-5.6-5.85-9.82-9.45-14.29A1.48,1.48,0,0,0,28,4.82a2.42,2.42,0,0,0-1,.79,1.23,1.23,0,0,0-.23.64C26.21,11.5,25.59,16.76,25,22a7.06,7.06,0,0,0,.14,1.36c.14,1.44,1.25,2.2,3,2.06.85-.07,1.64-1.32,1.23-2s-1-1.51-1.54-2.26a4.48,4.48,0,0,1-.31-.62,2.84,2.84,0,0,1,1-.28c1.38.25,2.84.46,2.59,2.44a1.83,1.83,0,0,0,.91,1.71,19.35,19.35,0,0,0,1.73,1.09c.61.37,1,.82.41,1.52a7.89,7.89,0,0,0-1.87,3.6c-.13.59-.63.67-1.07.31a1.48,1.48,0,0,1-.37-.49c-.73-1.64-.73-1.65-1.93-.77-.37.27-.86.49-1.06.86a1.32,1.32,0,0,0,0,1.2c1.05.85,1,1.68.64,2.94-.53,1.75-.23,2,2,2.74C31.79,37.82,31.54,38.68,31.43,39.56Z"/><path class="cls-1" d="M31.43,39.56c.11-.88.36-1.74-.87-2.17-2.2-.75-2.5-1-2-2.74.38-1.26.41-2.09-.64-2.94a1.32,1.32,0,0,1,0-1.2c.2-.37.69-.59,1.06-.86,1.2-.88,1.2-.87,1.93.77a1.48,1.48,0,0,0,.37.49c.44.36.94.28,1.07-.31A7.89,7.89,0,0,1,34.21,27c.62-.7.2-1.15-.41-1.52a19.35,19.35,0,0,1-1.73-1.09,1.83,1.83,0,0,1-.91-1.71c.25-2-1.21-2.19-2.59-2.44a2.84,2.84,0,0,0-1,.28,4.48,4.48,0,0,0,.31.62c.51.75,1.09,1.47,1.54,2.26s-.38,2-1.23,2c-1.76.14-2.87-.62-3-2.06A7.06,7.06,0,0,1,25,22c.59-5.26,1.21-10.52,1.83-15.77a1.23,1.23,0,0,1,.23-.64,2.42,2.42,0,0,1,1-.79,1.48,1.48,0,0,1,1.24.28c3.6,4.47,7.59,8.69,9.45,14.29a5,5,0,0,1,.38,2.67c-.71,2.63-1,5.47-3.28,7.45a3,3,0,0,0-.4.56c-.57.86-.21,1.64,1.19,2.55l-.06,4.05c-2.32.33-2.32.33-2.09,2.81ZM28.49,16.63c.23,0,.59.14.65.05a8.3,8.3,0,0,0,1-1.74.63.63,0,0,0-.65-.89,1.33,1.33,0,0,0-1.29,1.32A4.5,4.5,0,0,0,28.49,16.63Z"/><path d="M34.47,39.48c-.23-2.48-.23-2.48,2.09-2.81,1.81,5.95,2.52,12.15,4.34,18.11,1.7,5.54,2,11.37,2.33,17.12.62,9.91.29,19.84.11,29.76,0,.16-.16.45-.23.44s-.6-.1-.63-.22a58.77,58.77,0,0,1-1.34-18.46,7.6,7.6,0,0,0,.18-2c-1.06-5.72-.65-11.51-.79-17.27A26.89,26.89,0,0,0,37.9,52.76a8.09,8.09,0,0,1-1-3.26A27.48,27.48,0,0,0,34.47,39.48Z"/><path d="M25.4,38c-.06,2.73-.92,5-3.49,6.37L21,43.41c.18-.64.3-1.29.54-1.91a2.67,2.67,0,0,0-.77-3l-1.32-1.45,1.23-1.29c1,.64,1.94,1.26,2.9,1.9a2,2,0,0,0,1.91.42Z"/><path class="cls-1" d="M89.28,34A37.17,37.17,0,0,1,84.52,46a24.87,24.87,0,0,1-6.73,6.87.56.56,0,0,1-.5-.1c-1.76-2-2.78-.06-4,.76a4.38,4.38,0,0,0-.58.37,1.27,1.27,0,0,1-1.83-.1c-1.11-1.15-2.13-2.4-3.2-3.59-.61-.68-.17-1.26.17-1.83a5,5,0,0,1,.83-1.11c6-5.42,12.08-10.68,19.09-14.77a1.25,1.25,0,0,1,1.18.07A1.69,1.69,0,0,1,89.28,34ZM78.45,45.24c.55.22.83,0,1-.54s-.12-1.62-.51-1.5a4.78,4.78,0,0,0-1.61.92C77,44.38,77.77,45.12,78.45,45.24Z"/><path class="cls-1" d="M67.31,55.84a2.75,2.75,0,0,1-.59-.21c-.14-.09-.35-.37-.31-.42.56-.76,1.12-.36,1.65.06a.61.61,0,0,1-.17.39A2.46,2.46,0,0,1,67.31,55.84Z"/><path class="cls-1" d="M19.49,37.08l1.32,1.45a2.67,2.67,0,0,1,.77,3c-.24.62-.36,1.27-.54,1.91a4.4,4.4,0,0,0-3,2.51c-.42,1-.7,2.14-1.08,3.2-.51,1.44-1.4,2-2.43,1.68-1.46-.48-1.86-1.15-1.69-3a5.65,5.65,0,0,0,1.2-.41,2.07,2.07,0,0,0,.63-.73c-1.28-1.32.06-2.37.34-3.51.59-.3,1.19-.58,1.76-.92A.65.65,0,0,0,17,41.6c-.18-.32-.46-.77-.74-.81a11.1,11.1,0,0,0-2,.09,3.67,3.67,0,0,0-2.18-3.13A2,2,0,0,0,9.65,38c-.15.13-.37.28-.4.44s.08.56.21.61c1.64.55,3.09,1.67,4.91,1.69A2.53,2.53,0,0,0,14.1,42a1.91,1.91,0,0,0-1,2.71,3.29,3.29,0,0,1-.12,3.11c-.42-.09-1,0-1.24-.28a23.81,23.81,0,0,1-4.38-7c-1.58-4.07-3.1-8.16-4.64-12.25a.83.83,0,0,1,.5-1.15,2.31,2.31,0,0,1,1.26-.3,10.38,10.38,0,0,1,2.55,1,19.17,19.17,0,0,1,6.1,5.58A8.83,8.83,0,0,0,19.49,37.08Z"/><path class="cls-1" d="M60.3,27c-1.12-.21-2.24-.47-3.37-.62a2.08,2.08,0,0,1-1.58-1.17c-.58-1-1.13-2-1.66-3.05a2.25,2.25,0,0,1,1-2.94,232,232,0,0,1,22-10.14c.55-.2,1.72.16,1.83.61A7.34,7.34,0,0,1,78.74,11a2.21,2.21,0,0,1-.23.65,8.84,8.84,0,0,1-.77,1.93c-2.64,3.78-5.34,7.53-8,11.28-1.85,2.59-4.63,3.73-7.52,4.6a2.15,2.15,0,0,1-1.8-.71c-.33-.42-.16-1.24-.21-1.88a17.73,17.73,0,0,0,2.31-1c.25-.14.34-.71.33-1.08s-1.18-.51-1.66-.12A3,3,0,0,0,60.3,27Zm9.5-9.68a8,8,0,0,0,1.75-.55,1.24,1.24,0,0,0,.51-1c-.06-.3-.58-.75-.85-.72a4.63,4.63,0,0,0-1.77.65c-.33.2-.51.65-.76,1ZM68,19.91l-.23,0,.06.55Z"/><path d="M28.49,16.63a4.5,4.5,0,0,1-.26-1.26,1.33,1.33,0,0,1,1.29-1.32.63.63,0,0,1,.65.89,8.3,8.3,0,0,1-1,1.74C29.08,16.77,28.72,16.65,28.49,16.63Z"/><path d="M78.45,45.24c-.68-.12-1.41-.86-1.13-1.12a4.78,4.78,0,0,1,1.61-.92c.39-.12.68.9.51,1.5S79,45.46,78.45,45.24Z"/><path d="M14.37,40.77c-1.82,0-3.27-1.14-4.91-1.69-.13,0-.23-.41-.21-.61s.25-.31.4-.44a2,2,0,0,1,2.42-.28,3.67,3.67,0,0,1,2.18,3.13Z"/><path d="M15,43.11c-.28,1.14-1.62,2.19-.34,3.51a2.07,2.07,0,0,1-.63.73,5.65,5.65,0,0,1-1.2.41l.1.1a3.29,3.29,0,0,0,.12-3.11,1.91,1.91,0,0,1,1-2.71Z"/><path d="M14.25,40.88a11.1,11.1,0,0,1,2-.09c.28,0,.56.49.74.81a.65.65,0,0,1-.22.59c-.57.34-1.17.62-1.76.92L14.1,42a2.53,2.53,0,0,1,.27-1.27Z"/><path d="M69.8,17.32l-1.12-.66c.25-.33.43-.78.76-1A4.63,4.63,0,0,1,71.21,15c.27,0,.79.42.85.72a1.24,1.24,0,0,1-.51,1A8,8,0,0,1,69.8,17.32Z"/><path d="M60.3,27a3,3,0,0,1,.86-2.32c.48-.39,1.66-.33,1.66.12s-.08.94-.33,1.08a17.73,17.73,0,0,1-2.31,1Z"/><polygon points="67.96 19.91 67.79 20.43 67.73 19.88 67.96 19.91"/></g></g></svg>