<svg xmlns="http://www.w3.org/2000/svg" viewBox="0 0 82.25 85.77"><defs><style>.cls-1{fill:#fff;}</style></defs><title>Plant6</title><g id="Laag_2" data-name="Laag 2"><g id="Laag_1-2" data-name="Laag 1"><path d="M61.47,23c-1.58,2-3.14,4-4.73,6a18.19,18.19,0,0,0-2.19,2.66,25.31,25.31,0,0,1-4.15,5.54,12.23,12.23,0,0,0-3.24,8.9c.07,11.58-.57,23.17.56,34.74.16,1.61.21,3.24-1,4.59-.4.46-.8.51-1.2,0s-.74-.69-.77-1.08a43.38,43.38,0,0,1-.47-6.91,26.86,26.86,0,0,0-1.63-10.91c-.78-2.19-1.24-4.43-1.8-6.66a49.44,49.44,0,0,0-2.39-6.48,43.39,43.39,0,0,1-2.55-9.33c-.54-3.14-1.83-6.14-2.36-9.33a5.59,5.59,0,0,0-1.31-2.39A21.15,21.15,0,0,0,29,28.78c-4.12-3.2-8.71-5.19-14.1-4.67-2.28,1-4.57-.07-6.86,0a4.55,4.55,0,0,1-3.87-2.61,31.12,31.12,0,0,1-2.27-5.06C1.32,15-.56,14,.16,12.11c.63-1.6,2.51-1.93,3.65-3.06A2.19,2.19,0,0,1,5,8.36a2.81,2.81,0,0,1,1.91.33,20.83,20.83,0,0,1,3,3.77c1.43,2.38,2.71,4.84,3.93,7.33a2.6,2.6,0,0,0,2.12,1.53c2.28.33,4.58.55,6.87.81a8.55,8.55,0,0,0,1.87.16c1-.13,1.13-.78.2-1.73a2,2,0,0,0-.58-.3c-1-.84-2.32-1.41-2.75-2.82l1.22-1.22c.93.67,1.82,1.42,2.81,2a3.59,3.59,0,0,0,4.81-1.3,11,11,0,0,0,.71-1.19,2.74,2.74,0,0,0-.26-3.21c-2.25-2.93-5.59-4.78-7.76-7.79a.71.71,0,0,0-.64-.2c-.36.22-.86.51-.94.86-.33,1.33-.39,2.74-.77,4.05a6.73,6.73,0,0,0,.92,5.29l-1.25,1c-1.9-1.2-3.09-2.87-2.7-5.18.54-3.17,1.27-6.31,1.95-9.46A2.17,2.17,0,0,1,22,.07a4.6,4.6,0,0,1,1.79,1c3,3.81,6.7,7,9.78,10.77A3.06,3.06,0,0,1,34,15.63c-1,1.56-1.9,3.17-3,4.62a3.43,3.43,0,0,0,.52,4.42c3.19,2.26,4.62,5.56,6.23,8.94a39.53,39.53,0,0,1,3.63,11.14,3.35,3.35,0,0,0,1,1.58c.32.34,1.5-.95,1.68-1.91s.21-1.84.42-2.74c.46-2,.9-4.06,1.51-6a31,31,0,0,1,4.25-8.69,38.34,38.34,0,0,0,3.21-4.52,14,14,0,0,1,5.12-5.49,3.48,3.48,0,0,0,1.73-4.09,38.93,38.93,0,0,1-.87-6.19,12.88,12.88,0,0,1,.49-3.4,2.81,2.81,0,0,1,.7-1.18c1-1.14,5-1.58,6.2.59A18.79,18.79,0,0,1,68,5.16c.24.65.28,1.38.56,2a1.43,1.43,0,0,0,1,.77c1.37.13,2.76,0,4.12.19a6.23,6.23,0,0,1,4.67,2.67l-.84.92c-.85-.37-1.68-.78-2.55-1.08-2.61-.92-4.05-.42-5.94,2-.37.47-.32.9.09,1.12a18.57,18.57,0,0,0,8.47,2.79,1.87,1.87,0,0,0,1.76-2.33c-.06-.46-.18-.91-.28-1.37l.68-.6a11.61,11.61,0,0,1,1.67,1.17A2.58,2.58,0,0,1,82,16.6a3.14,3.14,0,0,1-2.67,1.93,25.59,25.59,0,0,1-4.78-.35c-1.12-.17-2.18-.72-3.3-.95a4.2,4.2,0,0,0-3.29.68c-1.69,1.18-3.35,2.4-5,3.6l-.49-.39c.12-.81.25-1.62.37-2.42.51-.35,1.15-.7.65-1.41-.15-.21-.75-.14-1.14-.11-.19,0-.37.21-.55.33a19.27,19.27,0,0,0-8.08,8.81,3.84,3.84,0,0,0-1.53,2.62c-.15.16-.4.31-.43.49-.07.38-.15,1.06,0,1.12.9.41.89-.43,1.1-.94,1.11-.17,1.6-1.06,2.15-1.87,1.22-1.35,2.44-2.69,3.65-4a3.28,3.28,0,0,1,2.27-1.35ZM8.64,21.55a3.73,3.73,0,0,0,2.06-.88c.21-.18.17-.93,0-1.27-1.22-2.19-2.49-4.35-3.79-6.49a2.36,2.36,0,0,0-1-.86,1.8,1.8,0,0,0-1.28-.12c-.35.15-.58.63-.81,1a1,1,0,0,0-.19.65,13,13,0,0,0,2.94,6.8A3.2,3.2,0,0,0,8.64,21.55ZM65.55,6.45c-.14-.53-.3-1.2-.49-1.85a1.47,1.47,0,0,0-.33-.6.89.89,0,0,0-.55-.28c-.42,0-1,0-1.21.3-1.93,2.72-1.5,5.58-.4,8.46.08.19.35.47.47.44a1.66,1.66,0,0,0,1-.48A9.48,9.48,0,0,0,65.55,6.45Z"/><path d="M78.26,10.79l1.39,1.5-.68.6a1.64,1.64,0,0,1-1.55-1.18Z"/><path d="M62.9,21.51,61.47,23l-.6-.66a1.51,1.51,0,0,1,1.54-1.23Z"/><path d="M21.54,17.44l-1.15-1.67,1.25-1,1.12,1.49Z"/><path class="cls-1" d="M22.76,16.22l-1.12-1.49a6.73,6.73,0,0,1-.92-5.29c.38-1.31.44-2.72.77-4,.08-.35.58-.64.94-.86a.71.71,0,0,1,.64.2c2.17,3,5.51,4.86,7.76,7.79a2.74,2.74,0,0,1,.26,3.21,11,11,0,0,1-.71,1.19,3.59,3.59,0,0,1-4.81,1.3C24.58,17.64,23.69,16.89,22.76,16.22Z"/><path class="cls-1" d="M77.42,11.71A1.64,1.64,0,0,0,79,12.89c.1.46.22.91.28,1.37a1.87,1.87,0,0,1-1.76,2.33A18.57,18.57,0,0,1,69,13.8c-.41-.22-.46-.65-.09-1.12,1.89-2.47,3.33-3,5.94-2C75.74,10.93,76.57,11.34,77.42,11.71Z"/><path class="cls-1" d="M8.64,21.55a3.2,3.2,0,0,1-2.13-1.17,13,13,0,0,1-2.94-6.8,1,1,0,0,1,.19-.65c.23-.37.46-.85.81-1a1.8,1.8,0,0,1,1.28.12,2.36,2.36,0,0,1,1,.86c1.3,2.14,2.57,4.3,3.79,6.49.19.34.23,1.09,0,1.27A3.73,3.73,0,0,1,8.64,21.55Z"/><path class="cls-1" d="M65.55,6.45a9.48,9.48,0,0,1-1.53,6,1.66,1.66,0,0,1-1,.48c-.12,0-.39-.25-.47-.44C61.47,9.6,61,6.74,63,4c.18-.26.79-.26,1.21-.3a.89.89,0,0,1,.55.28,1.47,1.47,0,0,1,.33.6C65.25,5.25,65.41,5.92,65.55,6.45Z"/><path class="cls-1" d="M62.41,21.12a1.51,1.51,0,0,0-1.54,1.23A3.28,3.28,0,0,0,58.6,23.7c-1.21,1.35-2.43,2.69-3.65,4l-1.29-1.42a19.27,19.27,0,0,1,8.08-8.81l1,1.19C62.66,19.5,62.53,20.31,62.41,21.12Z"/><path class="cls-1" d="M55,27.74c-.55.81-1,1.7-2.15,1.87l-.67-.67a3.84,3.84,0,0,1,1.53-2.62Z"/><path class="cls-1" d="M24.29,20.26a2,2,0,0,1,.58.3c.93,1,.85,1.6-.2,1.73a8.55,8.55,0,0,1-1.87-.16Z"/><path class="cls-1" d="M61.74,17.51c.18-.12.36-.32.55-.33.39,0,1-.1,1.14.11.5.71-.14,1.06-.65,1.41Z"/><path class="cls-1" d="M52.8,29.61c-.21.51-.2,1.35-1.1.94-.15-.06-.07-.74,0-1.12,0-.18.28-.33.43-.49Z"/></g></g></svg>