<svg xmlns="http://www.w3.org/2000/svg" viewBox="0 0 111.15 104.96"><defs><style>.cls-1{fill:#fff;}</style></defs><title>Plant9</title><g id="Laag_2" data-name="Laag 2"><g id="Laag_1-2" data-name="Laag 1"><path d="M94.3,40.9a19.91,19.91,0,0,0-8.77.84,2.62,2.62,0,0,1-2.58-.5,29.31,29.31,0,0,1-4.34-3.44C76.91,35.92,75,35.86,73,36.65c-7.31,2.86-15,4.75-22,8.41-4.35,2.28-8.07,5.39-12.19,8a55.54,55.54,0,0,0-7.27,5.29C24.26,64.7,19.14,72.64,15.33,81.45c-.92,2.12-1.63,4.34-2.6,6.43a11.09,11.09,0,0,0-.83,3.32,83.77,83.77,0,0,1-3.23,13.44c-.07.22-.82.39-1.18.3s-1-.58-.93-.83a37.13,37.13,0,0,1,1-6.16c1.77-6,3.37-12,5.62-17.86A30.53,30.53,0,0,1,16,74.55c1.39-2.13,2.74-4.25,3.92-6.51a24.26,24.26,0,0,1,3.83-4.91c3.88-4.27,7.66-8.62,12.7-11.66,3-1.79,5.69-4,8.58-5.89a46,46,0,0,1,4.23-2.39A111.83,111.83,0,0,1,69.82,35c1.33-.39,2.65-.85,4-1.25a3.13,3.13,0,0,0,2-1.69c.71-1.46,1.44-2.91,2.15-4.36.87-1.75.86-1.78,3.2-1.47a2.31,2.31,0,0,0,2-.22,1.75,1.75,0,0,1,2.48,0c.9.92,1.79,1.35,3,.75s2.38-1.14,3.93-.63c1.91.63,4.2,0,5.79,1.78,2.29.07,4.43,1.19,6.79.84A3.15,3.15,0,0,1,108.92,31c.28.73,1.33,1.15,2,1.75a.67.67,0,0,1-.19,1.12,19.07,19.07,0,0,1-2.57.9c-.86.29-2,.31-2.52.9a2.34,2.34,0,0,1-3.54.49c-.68-.44-.83-.32-1.26.8-.26.66-.4,1.25-1.19,1.52-1.08.36-2.11.85-3.17,1.29-.76-.87-1.38-2-2.86-1.62.38-1.36-.4-2.14-1.4-2.8-.17-.12-.42-.44-.44-.43-.36.3-.31.67.1,1.1l1.86,2A3.22,3.22,0,0,1,94.3,40.9Z"/><path d="M64.34,12.26A9.61,9.61,0,0,0,57,11.78a5.15,5.15,0,0,0-2.46,1.05c-1.6,1.84-3.23,1.38-5,.41a20.13,20.13,0,0,0-5.84-2.11,2.71,2.71,0,0,0-2.55.66C33.87,19,27.44,26.84,23.68,36.48,20.74,44,17.37,51.36,14.26,58.82a80.19,80.19,0,0,0-3.08,8.44c-.7,2.39-2.3,4.51-3.16,6.88-.78,2.16-.88,4.55-1.66,6.71C5,84.54,3.41,88.12,1.85,91.72a1.3,1.3,0,0,1-1.13.45C.43,92.11,0,91.54,0,91.3A27.4,27.4,0,0,1,1,88c1-2.82,2.17-5.61,3.15-8.45.67-2,1.82-3.77,1.7-6A1.43,1.43,0,0,1,6,72.92a48,48,0,0,0,3.48-9.71c.78-3.32,2.74-6.34,4-9.56C15.86,47.64,19,42,21,35.77c1.48-4.67,4.24-8.72,7.2-12.57s6.08-7.57,9.2-11.29a8.24,8.24,0,0,0,2-4.32,17.46,17.46,0,0,1,1.17-4c.23-.6.68-1.3,1.52-1.15,1.9.33,3.61-.5,5.41-.8a21.38,21.38,0,0,1,6.81-.5,4.73,4.73,0,0,0,1.34.13C57,1.12,58-.35,59.48.08c1.3.37,2.49,1.15,3.79,1.55,1.09.33,2.31.24,3.41.55,1.69.46,3,1.38,2.59,3.44-.16.88.43,1.15,1,1.47a6.71,6.71,0,0,1,1.14.73c.5.44.41,1.71-.14,1.77a7.33,7.33,0,0,0-3.46,1.81C67,12,65.65,12,64.34,12.26Z"/><path class="cls-1" d="M94.3,40.9A3.22,3.22,0,0,0,93.74,38l-.12.09c1.48-.38,2.1.75,2.86,1.62A2.48,2.48,0,0,1,94.3,40.9Z"/><path class="cls-1" d="M93.74,38l-1.86-2c-.41-.43-.46-.8-.1-1.1,0,0,.27.31.44.43,1,.66,1.78,1.44,1.4,2.8Z"/></g></g></svg>