<svg xmlns="http://www.w3.org/2000/svg" viewBox="0 0 74.4 170.27"><defs><style>.cls-1{fill:#fff;}</style></defs><title>plant10</title><g id="Laag_2" data-name="Laag 2"><g id="Laag_1-2" data-name="Laag 1"><path d="M67.34,24.54c.4.14,1,.14,1.19.42,2.72,3.84,4.11,8.26,5.46,12.69a9.53,9.53,0,0,1,.39,3.44c-.47,6.21-.31,12.5-2.64,18.48A21.27,21.27,0,0,0,70.22,67c0,1.81-.84,3.59-1.12,5.41-.83,5.39-4.39,7.87-9.31,8.91a30.21,30.21,0,0,1-4.14.51c-2.77.17-5.56.15-8.32.42a19.73,19.73,0,0,1-9.51-1.11,17.92,17.92,0,0,1-7.4-4.89,7.68,7.68,0,0,0-1.71-1.16,2.15,2.15,0,0,0-2.39.81c-.67,2.45-1.81,4.88-1.9,7.34-.22,6.45-3.58,11.9-5.17,17.9a32.86,32.86,0,0,1-3,6.27,35,35,0,0,0-3.76,11.12A47.89,47.89,0,0,1,10,128.61c-1.9,5-2.78,10.25-4.39,15.31A29.07,29.07,0,0,0,4.84,148c-1,5.94-1.82,11.89-1.15,17.94a12.62,12.62,0,0,1-.29,3.45c-.06.33-.6.59-.92.88-.14-.16-.34-.29-.41-.47-1.45-4.26-1.41-8.69-.93-13a102.08,102.08,0,0,1,3.31-17.69c1.75-6,3-12.11,5.3-17.94a6.11,6.11,0,0,0,.34-2c.15-4.53,1.85-8.6,4-12.45C17,101.35,18.3,95.4,20.87,90c.39-4.86,2.08-9.47,2.67-14.29a5,5,0,0,0-1.21-3.88c-1.93-2.29-4-4.47-7-5.39-2.21-.68-4.31-1.7-6.53-2.33A25.36,25.36,0,0,1,4.41,62c-1.79-.89-3-2.1-2.92-4.28A1.77,1.77,0,0,0,1.4,57c-2.35-6.14-1.3-12.36,0-18.46a43.87,43.87,0,0,1,9.83-20.4c2.59-3,5.15-6,9.2-7.09a12,12,0,0,0,2.45-1.29,34.48,34.48,0,0,0,3-1.73C28.72,6.06,32.34,6,35.3,4c2.63-1.77,5.89-2.61,8.89-3.81a2.66,2.66,0,0,1,2.63.39c3.54,2.6,7.08,5.19,10.59,7.82a26.83,26.83,0,0,1,7,8.57,67.72,67.72,0,0,1,3.08,6.9c.08.18-.06.45-.11.68-.36.17-1,.57-1.06.48-.94-1-1.82-2.07-2.66-3.15a2.25,2.25,0,0,0-2.34-1.08c-1.13.23-2.25.56-3.39.76-3.87.69-7.7,1.5-11.71.72a15.42,15.42,0,0,0-4.8.35,2.14,2.14,0,0,0-1.8,1.84c-.2.9-.38,1.81-.55,2.72a2.41,2.41,0,0,0,1.13,2.37,9.15,9.15,0,0,0,4.43,1.85c2.29.34,4.57.73,6.86,1.05a6.27,6.27,0,0,0,2.07,0c4.07-.87,8.22-1.39,12.18-2.75,1.06-.37,1.59-1.34,1.3-2.79C66.82,26.07,66.39,25.24,67.34,24.54ZM39.61,10.08l1.64-1.23a2.35,2.35,0,0,0,.71-3c-.14-.36-.6-.86-.88-.85A9.47,9.47,0,0,0,35,7.63a1.38,1.38,0,0,0-.34,1.23,5,5,0,0,1,.65,3.26,1.63,1.63,0,0,1-1.63-.81c-1.56-2.14-2.35-2.42-4.42-1.64A42,42,0,0,0,18.09,16c-.7.55,0,1.14.5,1.57l.13-.1c-.44-.48-.81-1.13-1.62-.83a3.63,3.63,0,0,0-1.18.59c-1.56,1.31-3.49,2.59-3.94,4.53-.48,2.1,1.74,3.44,2.72,5.14.67,1.17,1.58,2.21,2.31,3.35a3.58,3.58,0,0,1,.24,1.3c-.38.12-1,.44-1.11.32-1.79-2-3.51-4.11-5.25-6.17a1.35,1.35,0,0,0-1.76,0C6.7,29,5,32.24,8.56,35.86c.26.27.22.84.32,1.27-.47.54-1,.8-1.65.28S6,36.34,5.5,36.39c-1,.1-1.14,1.19-1.38,2C3,42.14,3,42.15,5.3,45.26c.81,1.1,1.72,2.14,2.47,3.27.15.23-.18.79-.29,1.19-1.25.19-2.14-.52-3.08-1.19a1.31,1.31,0,0,0-2,.85c-.05,1.88.18,3.65,1.77,4.94,1.77,1.43,3.41,3,5.56,4,.28.11.34.73.51,1.12-1.1.09-2.19.16-3.28.27-.09,0-.24.26-.22.37a.91.91,0,0,0,.25.59,4.69,4.69,0,0,0,3,1.23c.66,0,.82-.28.54-.74S9.84,60,10.14,59.3a5.79,5.79,0,0,1,1.95,0c3.6,1.33,7.16,2.76,10.76,4.1.3.11.81-.23,1.17-.45.1-.07.09-.46,0-.65-.42-1-.89-2-1.35-3,2.92-1,3.21-1.25,3.88-2.89.39-1,0-2.08-.85-2.11a4.35,4.35,0,0,1-3.13-.91C20.34,51.23,18.16,49,16,46.68c-.25-.28-.2-.84-.28-1.27.42,0,1-.2,1.24,0,1.87,1.69,3.69,3.45,5.51,5.2A7.79,7.79,0,0,0,26,52.67a2.26,2.26,0,0,0,1.29-.07c1.07-.45,1.76-2.71,1.09-3.5s-1.28-1.28-1.88-2,0-1.2.39-1.73c.76.47,1.51,1,2.28,1.41A1.27,1.27,0,0,0,31,46.59,12.57,12.57,0,0,0,32.61,40c0-.58-.53-1.19-.84-1.77s-.11-1.47.48-1.28a1.85,1.85,0,0,0,2.55-1.47c.66-2.19,1-4.46,1.54-6.7.3-1.33.65-2.65,1-4,.41-1.77,1.23-3.58,1.09-5.3C38.27,18,37,16.67,36.28,15.26c-.38-.72,0-1.3.33-1.9,2.06,1.31,2.06,1.31,4.29,1.45a12.35,12.35,0,0,1,.42,2c.13,2.22.24,2.34,2.14,2.7,4.78.89,9.54,1.23,14.28-.26a19.27,19.27,0,0,1,2-.31,1.64,1.64,0,0,0,1-2.64c-1.43-1.79-2.9-3.55-4.43-5.25-1.25-1.39-2-1.5-3.49-.46a13.57,13.57,0,0,1-7,2.7c-1.89.08-3.4,1-5.07,1.68A13.52,13.52,0,0,1,40.64,13,4.31,4.31,0,0,0,39.61,10.08Zm2.54,64.57a3.16,3.16,0,0,1,2.64-.11c2.64.78,5.27,1.58,7.92,2.31a3.36,3.36,0,0,0,2,.15c2.86-1.22,5.89-.81,8.84-1.08,2-.19,2.59-1.61,3.15-3.14.21-.56-.32-1.63-.81-1.68a7.23,7.23,0,0,0-2.7-.2c-2.82.92-5.48.1-8.15-.52a11.16,11.16,0,0,1-6-4.13c1.48-.46,2.73.19,3.91.92A14.17,14.17,0,0,0,62.34,69c4.6-.49,4.78-.32,6-5.14.28-1.12.55-2.25.93-3.34a43,43,0,0,0,2.14-15.06,1.86,1.86,0,0,0-1.24-1.43c-3-.18-6,.27-9,.3-3.22,0-6.44-.53-9.67-.77-2.77-.21-5.55-.27-8.32-.54-2.3-.22-4.58-.67-6.89-.95A2,2,0,0,0,35,42.5a3.44,3.44,0,0,0-1.17,2.42,2.06,2.06,0,0,0,1.37,2.14,33.11,33.11,0,0,0,12.75,3c6.25.3,12.5.57,18.74.86a1.23,1.23,0,0,1,.67.16,3.55,3.55,0,0,1,.86.87c.31.45-.41,1.5-1,1.52a11.68,11.68,0,0,1-3.44,0,36.53,36.53,0,0,0-10.35-1,54.33,54.33,0,0,1-17.11-2.61,19.82,19.82,0,0,0-2-.57,7.72,7.72,0,0,0-1.36,0,2.2,2.2,0,0,0-1.84,1.81A1.63,1.63,0,0,0,32,52.81c3,1.2,6,2.55,9.06,3.44,4.44,1.29,9,2.1,13.46,3.36a23.44,23.44,0,0,0,6.8,1.07,20.55,20.55,0,0,1,4.09.57c.9.17,0-.28.12.63A1.25,1.25,0,0,1,65,63c-1.92.67-3.49-.93-5.34-.89-3.76.08-7.3-1-10.85-2a9.85,9.85,0,0,0-2.7-.56c-4.29,0-8.17-1.4-12-3.16a13.25,13.25,0,0,0-3.31-.88,1.85,1.85,0,0,0-1.18.51A1.29,1.29,0,0,0,30,58.12c4.15,1.42,8.3,2.84,12.48,4.17,2.21.71,4.45,1.34,6.27,2.86.29.24.3.8.45,1.21-.46,0-1,.22-1.36.06-5.28-2.18-11.08-2.78-16.24-5.33A5.86,5.86,0,0,0,29,60.87a2.14,2.14,0,0,0-1.82,1.79,2.82,2.82,0,0,0,.51,1.89,33,33,0,0,0,8.57,5.61,3,3,0,0,1,1.92,1.78,3,3,0,0,1-3.25-.13c-2-1-4-2.29-6-3.42A6.33,6.33,0,0,0,27,67.64,1.24,1.24,0,0,0,26,68.2a1.35,1.35,0,0,0,.17,1.25c3.57,2.86,7.06,5.86,10.85,8.41A12.17,12.17,0,0,0,46.83,80a17.79,17.79,0,0,1,2.74-.07,3,3,0,0,0,1-.41c.37-.18-.46-1.16-1.23-1.42-2-.65-3.94-1.23-5.85-2C43,75.84,42.6,75.14,42.15,74.65ZM40.37,33h-.91c-1.45-.05-2.41.84-2.71,2.53-.08.45-.13.91-.18,1.37-.15,1.49.34,2.38,1.44,2.76a31.91,31.91,0,0,0,11.6,1.54,34.35,34.35,0,0,1,10.3.94,6.62,6.62,0,0,0,2.73.15c2.72-.43,5.43-1,8.14-1.51.56-.1.73-.44.73-1a11.76,11.76,0,0,0-1.76-6.58,2.83,2.83,0,0,0-2.29-1.28,9.88,9.88,0,0,0-4,.65c-6.28,2.14-12.68,2.1-19.13.94C42.92,33.29,41.53,33.18,40.37,33Zm5.4-22.23a5.37,5.37,0,0,0,4.32-1.57,1.93,1.93,0,0,0,.38-1.78A10.16,10.16,0,0,0,45.57,4c-.1,0-.38.22-.51.38a6.32,6.32,0,0,0-1.34,5.07,1.7,1.7,0,0,0,.77,1A3.77,3.77,0,0,0,45.77,10.8Z"/><path class="cls-1" d="M49.2,66.36c-.14-.41-.15-1-.44-1.21-1.82-1.52-4.06-2.15-6.27-2.86C38.31,61,34.16,59.54,30,58.12a1.29,1.29,0,0,1-.35-2.19,1.85,1.85,0,0,1,1.18-.51,13.25,13.25,0,0,1,3.31.88c3.82,1.76,7.7,3.17,12,3.16a9.85,9.85,0,0,1,2.7.56c3.55,1,7.09,2.12,10.85,2,1.85,0,3.42,1.56,5.34.89a1.25,1.25,0,0,0,.51-1.07c-.12-.91.78-.46-.12-.63a20.55,20.55,0,0,0-4.09-.57,23.44,23.44,0,0,1-6.8-1.07c-4.45-1.26-9-2.07-13.46-3.36C38,55.36,35,54,32,52.81a1.63,1.63,0,0,1-.93-1.68,2.2,2.2,0,0,1,1.84-1.81,7.72,7.72,0,0,1,1.36,0,19.82,19.82,0,0,1,2,.57A54.33,54.33,0,0,0,53.39,52.5a36.53,36.53,0,0,1,10.35,1,11.68,11.68,0,0,0,3.44,0c.59,0,1.31-1.07,1-1.52a3.55,3.55,0,0,0-.86-.87,1.23,1.23,0,0,0-.67-.16c-6.24-.29-12.49-.56-18.74-.86a33.11,33.11,0,0,1-12.75-3,2.06,2.06,0,0,1-1.37-2.14A3.44,3.44,0,0,1,35,42.5a2,2,0,0,1,1.28-.41c2.31.28,4.59.73,6.89.95,2.77.27,5.55.33,8.32.54,3.23.24,6.45.8,9.67.77,3,0,6-.48,9-.3a1.86,1.86,0,0,1,1.24,1.43,43,43,0,0,1-2.14,15.06c-.38,1.09-.65,2.22-.93,3.34-1.19,4.82-1.37,4.65-6,5.14A14.17,14.17,0,0,1,53,67.17c-1.18-.73-2.43-1.38-3.91-.92Z"/><path class="cls-1" d="M17.25,31.58a3.58,3.58,0,0,0-.24-1.3c-.73-1.14-1.64-2.18-2.31-3.35-1-1.7-3.2-3-2.72-5.14.45-1.94,2.38-3.22,3.94-4.53a3.63,3.63,0,0,1,1.18-.59c.81-.3,1.18.35,1.62.83-.06.66-.38,1.45-.13,1.95a21.42,21.42,0,0,0,4.14,6.21c.45.44.86.49,1,0a1.8,1.8,0,0,0,.15-1.24c-1.41-2.57-2.85-5.12-5.33-6.86-.48-.43-1.2-1-.5-1.57A42,42,0,0,1,29.27,9.67c2.07-.78,2.86-.5,4.42,1.64a1.63,1.63,0,0,0,1.63.81L35.23,12c-.22,1.85-.21,1.86,1.5,1.49l-.11-.14c-.31.6-.72,1.18-.34,1.9.74,1.41,2,2.77,2.11,4.23.14,1.72-.68,3.53-1.09,5.3-.31,1.33-.66,2.65-1,4-.51,2.24-.88,4.51-1.54,6.7a1.85,1.85,0,0,1-2.55,1.47c-.59-.19-.86.58-.48,1.28s.85,1.19.84,1.77A12.57,12.57,0,0,1,31,46.59a1.27,1.27,0,0,1-1.77.23c-.77-.46-1.52-.94-2.28-1.41l.07.08c-.33-2.2-1.87-3.43-3.65-4.43-.14-.08-.43.12-.64.19l.09.12c.16-.38.53-.81.46-1.14a6.32,6.32,0,0,0-3.31-4.58l.1.13c-.12-.89-.34-1.69-1.52-1.49l.1.12c.36-1.39.23-2.53-1.45-2.92Zm14-9.92a4.93,4.93,0,0,0-2.46-3.21,6.67,6.67,0,0,0-3.12-3.19.84.84,0,0,0-.62,0,.69.69,0,0,0-.3,1.08,5.54,5.54,0,0,0,3.35,2.92c.73,1.08,1.47,2.15,2.21,3.22A8.77,8.77,0,0,0,31.52,24a1.21,1.21,0,0,0,1.11,0c.17-.1.21-.79,0-1A10.3,10.3,0,0,0,31.26,21.66ZM25.32,29a3.62,3.62,0,0,0,1.79,2.58,1.26,1.26,0,0,0,.53.15c.18-.35.53-.84.4-1.06A30.86,30.86,0,0,0,26.23,28c-.31-.24-.6-.51-.93-.72a.77.77,0,0,0-.5-.08c-.14.32-.38.72-.29,1S25,28.7,25.32,29Zm4.86,6.87c.17,0,.38,0,.49-.14s.4-.38.38-.55A2.88,2.88,0,0,0,29.6,33L29,32.68c-.17.39-.53.81-.47,1.17A2.53,2.53,0,0,0,30.18,35.83Zm4.2-8.66.89-.49c-.15-.15-.34-.46-.46-.43a4.57,4.57,0,0,0-.93.43Z"/><path class="cls-1" d="M40.37,33c1.16.15,2.55.26,3.91.5,6.45,1.16,12.85,1.2,19.13-.94a9.88,9.88,0,0,1,4-.65,2.83,2.83,0,0,1,2.29,1.28,11.76,11.76,0,0,1,1.76,6.58c0,.57-.17.91-.73,1-2.71.51-5.42,1.08-8.14,1.51a6.62,6.62,0,0,1-2.73-.15,34.35,34.35,0,0,0-10.3-.94A31.91,31.91,0,0,1,38,39.69c-1.1-.38-1.59-1.27-1.44-2.76,0-.46.1-.92.18-1.37C37.05,33.87,38,33,39.46,33Z"/><path class="cls-1" d="M49.08,66.25a11.16,11.16,0,0,0,6,4.13c2.67.62,5.33,1.44,8.15.52a7.23,7.23,0,0,1,2.7.2c.49.05,1,1.12.81,1.68-.56,1.53-1.12,3-3.15,3.14-3,.27-6-.14-8.84,1.08a3.36,3.36,0,0,1-2-.15c-2.65-.73-5.28-1.53-7.92-2.31a3.16,3.16,0,0,0-2.64.11l.14.11a1.17,1.17,0,0,0-1-1.31c-.62-.12-1.27-.12-1.9-.18l.13.1c.14-1.13-.59-1.41-1.49-1.52l.12.09a3,3,0,0,0-1.92-1.78,33,33,0,0,1-8.57-5.61,2.82,2.82,0,0,1-.51-1.89A2.14,2.14,0,0,1,29,60.87a5.86,5.86,0,0,1,2.66.22c5.16,2.55,11,3.15,16.24,5.33.38.16.9,0,1.36-.06Z"/><path class="cls-1" d="M67.34,24.54c-1,.7-.52,1.53-.34,2.42.29,1.45-.24,2.42-1.3,2.79-4,1.36-8.11,1.88-12.18,2.75a6.27,6.27,0,0,1-2.07,0c-2.29-.32-4.57-.71-6.86-1.05a9.15,9.15,0,0,1-4.43-1.85A2.41,2.41,0,0,1,39,27.19c.17-.91.35-1.82.55-2.72a2.14,2.14,0,0,1,1.8-1.84,15.42,15.42,0,0,1,4.8-.35c4,.78,7.84,0,11.71-.72,1.14-.2,2.26-.53,3.39-.76a2.25,2.25,0,0,1,2.34,1.08C64.46,23,65.34,24,66.28,25c.08.09.7-.31,1.06-.48Z"/><path class="cls-1" d="M8.88,37.13c-.1-.43-.06-1-.32-1.27C5,32.24,6.7,29,9.13,25.7a1.35,1.35,0,0,1,1.76,0c1.74,2.06,3.46,4.15,5.25,6.17.11.12.73-.2,1.11-.32l-.1-.09c-.6.5-.73,1.06-.14,1.63s1.06.87,1.59,1.29l-.1-.12c.24.77.27,1.75,1.52,1.49l-.1-.13c-.41,2.59.93,4.3,2.85,5.72l-.09-.12A6.82,6.82,0,0,0,26,46.06c.13.1.64-.36,1-.57l-.07-.08c-.35.53-1,1-.39,1.73s1.29,1.27,1.88,2,0,3-1.09,3.5a2.26,2.26,0,0,1-1.29.07,7.79,7.79,0,0,1-3.54-2.05c-1.82-1.75-3.64-3.51-5.51-5.2-.23-.21-.82,0-1.24,0l.1.12c0-2.25-.7-3-2.88-2.88l.1.1c.1-1.61.1-1.61-1.5-1.5l.1.12c.65-1.53-.15-2.35-1.44-2.93l.08.11a1.4,1.4,0,0,0-1.5-1.49Z"/><path class="cls-1" d="M15.72,45.41c.08.43,0,1,.28,1.27,2.16,2.28,4.34,4.55,6.58,6.75a4.35,4.35,0,0,0,3.13.91c.86,0,1.24,1.15.85,2.11-.67,1.64-1,1.86-3.88,2.89l.1.1c.33-1.35.33-1.36-.86-1.53a2.51,2.51,0,0,0-.61,0l.1.07c-1-2.12-3-2.73-5.11-3.05-.18,0-.39.14-.59.21l.12.1c0-.22.18-.48.11-.65A3.85,3.85,0,0,0,12.08,52c-.19,0-.36.25-.54.38l.1.08c.1-.4.42-1,.27-1.17-1.17-1.43-2.52-2.55-4.56-1.7l.13.1c.11-.4.44-1,.29-1.19C7,47.4,6.11,46.36,5.3,45.26,3,42.15,3,42.14,4.12,38.41c.24-.83.37-1.92,1.38-2,.54,0,1.19.61,1.73,1s1.18.26,1.65-.28l-.1-.07c-.43,1.88-.38,1.93,1.5,1.49l-.09-.11c-.33.42-.88.73-.34,1.43a3.6,3.6,0,0,0,1.79,1.5l-.1-.12c.07.93.5,1.5,1.5,1.5l-.1-.11c.06,1.87,1.11,2.74,2.88,2.89Z"/><path class="cls-1" d="M40.8,14.92c1.67-.63,3.18-1.6,5.07-1.68a13.57,13.57,0,0,0,7-2.7c1.54-1,2.24-.93,3.49.46,1.53,1.7,3,3.46,4.43,5.25a1.64,1.64,0,0,1-1,2.64,19.27,19.27,0,0,0-2,.31c-4.74,1.49-9.5,1.15-14.28.26-1.9-.36-2-.48-2.14-2.7a12.35,12.35,0,0,0-.42-2Z"/><path class="cls-1" d="M10.25,59.4c-.17-.39-.23-1-.51-1.12-2.15-.92-3.79-2.53-5.56-4C2.59,53,2.36,51.26,2.41,49.38a1.31,1.31,0,0,1,2-.85c.94.67,1.83,1.38,3.08,1.19l-.13-.1c1,1.58,2.27,2.79,4.29,2.87l-.1-.08a4.59,4.59,0,0,0,4.29,2.87l-.12-.1a5.62,5.62,0,0,0,4.6,3.41c.32.06.73-.37,1.1-.57l-.1-.07c-.33,1.35-.33,1.35.86,1.53a3.23,3.23,0,0,0,.61,0l-.1-.1c.46,1,.93,2,1.35,3,.08.19.09.58,0,.65-.36.22-.87.56-1.17.45-3.6-1.34-7.16-2.77-10.76-4.1a5.79,5.79,0,0,0-1.95,0Z"/><path class="cls-1" d="M42.15,74.65c.45.49.81,1.19,1.36,1.41,1.91.76,3.89,1.34,5.85,2,.77.26,1.6,1.24,1.23,1.42a3,3,0,0,1-1,.41,17.79,17.79,0,0,0-2.74.07A12.17,12.17,0,0,1,37,77.86c-3.79-2.55-7.28-5.55-10.85-8.41A1.35,1.35,0,0,1,26,68.2,1.24,1.24,0,0,1,27,67.64a6.33,6.33,0,0,1,1.88.75c2,1.13,3.93,2.38,6,3.42a3,3,0,0,0,3.25.13L38,71.85C38,73,38,73,39.5,73.37l-.13-.1c.63,1.18,1.75,1.38,2.92,1.49Z"/><path class="cls-1" d="M35.32,12.12a5,5,0,0,0-.65-3.26A1.38,1.38,0,0,1,35,7.63,9.47,9.47,0,0,1,41.08,5c.28,0,.74.49.88.85a2.35,2.35,0,0,1-.71,3,2.82,2.82,0,0,0-2-1.51.54.54,0,0,0-.51.19c-.18.34-.48.84-.36,1.09a8.23,8.23,0,0,0,1.21,1.46,4.31,4.31,0,0,1,1,2.95,13.52,13.52,0,0,0,.16,1.89l.1-.11c-2.23-.14-2.23-.14-4.28-1.45l.11.14c-.12-.88-.36-1.64-1.5-1.49Z"/><path class="cls-1" d="M45.77,10.8a3.77,3.77,0,0,1-1.28-.32,1.7,1.7,0,0,1-.77-1,6.32,6.32,0,0,1,1.34-5.07c.13-.16.41-.42.51-.38a10.16,10.16,0,0,1,4.9,3.41,1.93,1.93,0,0,1-.38,1.78A5.37,5.37,0,0,1,45.77,10.8Z"/><path class="cls-1" d="M10.14,59.3c-.3.71.09,1.27.42,1.82s.12.71-.54.74a4.69,4.69,0,0,1-3-1.23A.91.91,0,0,1,6.75,60c0-.11.13-.36.22-.37,1.09-.11,2.18-.18,3.28-.27Z"/><path d="M18.59,17.6c2.48,1.74,3.92,4.29,5.33,6.86a1.8,1.8,0,0,1-.15,1.24c-.18.45-.59.4-1,0a21.42,21.42,0,0,1-4.14-6.21c-.25-.5.07-1.29.13-1.95Z"/><path d="M27,45.49c-.34.21-.85.67-1,.57a6.82,6.82,0,0,1-3.31-4.81c.21-.07.5-.27.64-.19C25.1,42.06,26.64,43.29,27,45.49Z"/><path d="M28.11,19.22a5.54,5.54,0,0,1-3.35-2.92.69.69,0,0,1,.3-1.08.84.84,0,0,1,.62,0,6.67,6.67,0,0,1,3.12,3.19C28.58,18.72,28.34,19,28.11,19.22Z"/><path d="M22.77,41.37c-1.92-1.42-3.26-3.13-2.85-5.72a6.32,6.32,0,0,1,3.31,4.58C23.3,40.56,22.93,41,22.77,41.37Z"/><path d="M26.23,28c.62.88,1.29,1.73,1.81,2.65.13.22-.22.71-.4,1.06a1.26,1.26,0,0,1-.53-.15A3.62,3.62,0,0,1,25.32,29,8.45,8.45,0,0,0,26.23,28Z"/><path d="M30.18,35.83a2.53,2.53,0,0,1-1.64-2c-.06-.36.3-.78.47-1.17l.59.33a2.88,2.88,0,0,1,1.45,2.13c0,.17-.21.41-.38.55S30.35,35.79,30.18,35.83Z"/><path d="M28.8,18.45a4.93,4.93,0,0,1,2.46,3.21c-.32.26-.64.52-1,.79l-2.2-3.23C28.34,19,28.58,18.72,28.8,18.45Z"/><path d="M18.6,34.41c-.53-.42-1.09-.82-1.59-1.29s-.46-1.13.14-1.63C18.83,31.88,19,33,18.6,34.41Z"/><path d="M31.26,21.66A10.3,10.3,0,0,1,32.67,23c.17.23.13.92,0,1a1.21,1.21,0,0,1-1.11,0,9.67,9.67,0,0,1-1.21-1.54C30.62,22.18,30.94,21.92,31.26,21.66Z"/><path d="M35.23,12c1.14-.15,1.38.61,1.5,1.49C35,13.87,35,13.86,35.23,12Z"/><path d="M34.38,27.17l-.5-.49a4.57,4.57,0,0,1,.93-.43c.12,0,.31.28.46.43Z"/><path d="M25.32,29c-.28-.26-.69-.47-.81-.78s.15-.67.29-1a.77.77,0,0,1,.5.08c.33.21.62.48.93.72A9.25,9.25,0,0,1,25.32,29Z"/><path d="M20,35.78c-1.25.26-1.28-.72-1.52-1.49C19.68,34.09,19.9,34.89,20,35.78Z"/><path d="M42.29,74.76c-1.17-.11-2.29-.31-2.92-1.49.63.06,1.28.06,1.9.18A1.17,1.17,0,0,1,42.29,74.76Z"/><path d="M39.5,73.37C38,73,38,73,38,71.85,38.91,72,39.64,72.24,39.5,73.37Z"/><path d="M15.82,45.53c-1.77-.15-2.82-1-2.88-2.89C15.12,42.57,15.83,43.28,15.82,45.53Z"/><path d="M11.64,41.37a3.6,3.6,0,0,1-1.79-1.5c-.54-.7,0-1,.34-1.43C11.49,39,12.29,39.84,11.64,41.37Z"/><path d="M13,42.75c-1,0-1.43-.57-1.5-1.5C13.14,41.14,13.14,41.14,13,42.75Z"/><path d="M10.28,38.55c-1.88.44-1.93.39-1.5-1.49A1.4,1.4,0,0,1,10.28,38.55Z"/><path d="M21.41,58c-.37.2-.78.63-1.1.57a5.62,5.62,0,0,1-4.6-3.41c.2-.07.41-.24.59-.21C18.41,55.29,20.37,55.9,21.41,58Z"/><path d="M15.83,55.28a4.59,4.59,0,0,1-4.29-2.87c.18-.13.35-.37.54-.38a3.85,3.85,0,0,1,3.86,2.6C16,54.8,15.87,55.06,15.83,55.28Z"/><path d="M11.64,52.49c-2-.08-3.27-1.29-4.29-2.87,2-.85,3.39.27,4.56,1.7C12.06,51.51,11.74,52.09,11.64,52.49Z"/><path d="M22.78,59.44a3.23,3.23,0,0,1-.61,0C21,59.3,21,59.3,21.31,58a2.51,2.51,0,0,1,.61,0C23.11,58.08,23.11,58.09,22.78,59.44Z"/><path d="M39.61,10.08A8.23,8.23,0,0,1,38.4,8.62c-.12-.25.18-.75.36-1.09a.54.54,0,0,1,.51-.19,2.82,2.82,0,0,1,2,1.51Z"/></g></g></svg>