<svg xmlns="http://www.w3.org/2000/svg" viewBox="0 0 44.81 106.66"><defs><style>.cls-1{fill:#fff;}</style></defs><title>prit</title><g id="Laag_2" data-name="Laag 2"><g id="Laag_1-2" data-name="Laag 1"><path d="M326.59,359.08c-.61-6.43-.89-12.89-2.25-19.25a125.05,125.05,0,0,0-2.94-12.78,10.83,10.83,0,0,0-.38-1.38c-2.24-4.68-2.76-9.77-3.65-14.8a121.56,121.56,0,0,0-3.07-11.79,4.17,4.17,0,0,1,0-3,3.39,3.39,0,0,0-.25-2.23c-1.45-3.71-1.74-7.61-2.12-11.5a2,2,0,0,1,1.51-2.2c3.33-1,6.27-3.14,10-3.08a34,34,0,0,0,6.36-.9,13.8,13.8,0,0,0,2.95-.91c2.55-1,4.62-.21,5.43,2.43.66,2.14,1,4.35,1.62,6.51a35.73,35.73,0,0,0,1.47,4.53,40.53,40.53,0,0,1,2.72,8.9c.62,3.54,1.4,7.05,2.27,10.54,2,8.2,4.26,16.37,6.22,24.59A117.17,117.17,0,0,1,356,354a21.15,21.15,0,0,0,.53,3.05c0,.24.27.48.23.67-.8,3.42.36,7-1,10.41-.42,1-.12,2.33-.33,3.47-.35,1.87-1.29,3.63-1,5.63.05.27-.55.76-.95,1-3.67,1.81-7.41,3.32-11.63,3.32a9.35,9.35,0,0,1-6.58-2.82c-3.16-2.88-4.2-6.63-5.19-10.48-.41-1.59-.43-3.32-2.51-3.95-.48-.14-.79-1.32-.9-2.06A21.47,21.47,0,0,1,326.59,359.08Zm-7.67-57.33c.16.7.37,1.7.6,2.7.49,2.09,1.08,4.17,1.46,6.29,1,5.71,2,11.38,3.9,17a86.25,86.25,0,0,1,5.26,26.45,7.64,7.64,0,0,0,.45,1.71,14.91,14.91,0,0,0,1.94-.37c2.35-.77,4.66-1.66,7-2.37s4.89-1.41,7.51-.69a11.25,11.25,0,0,0,3.06,0c.14-5.21,0-10.05-1.45-14.77a22.15,22.15,0,0,1-.55-2.81c-.2-1.17-.3-2.37-.59-3.52-.62-2.48-1.37-4.93-2-7.41a30.16,30.16,0,0,1-.7-4c-.31-3-.36-6-.81-9-.62-4-1.52-8-2.31-12-.24-1.22-.49-2.44-.8-4l-2.54,1.44c-.87-.27-1.61-.51-2.36-.73s-1.38-.17-1.79-.55c-1.34-1.22-2.5-.82-3.9-.08-1,.53-2.42,1.12-3.34.8-1.88-.67-2.85.19-3.89,1.36C321.79,298.62,320.46,300.06,318.92,301.75ZM334.59,373a2.44,2.44,0,0,0,.64,0,2.39,2.39,0,0,0,.63-.34,23.31,23.31,0,0,1,13.82-4.65,1.43,1.43,0,0,0,1.56-1.17c.18-.86.4-1.71.5-2.58.18-1.57.21-3.16.45-4.73.3-2-.57-3.46-2.55-3.74a27.33,27.33,0,0,0-4.05-.09c-3.22,0-6.22,1.26-9.32,1.9a5.57,5.57,0,0,0-4.16,7.63c.73,2.11,1.22,4.3,1.85,6.44A9.14,9.14,0,0,0,334.59,373Zm-4.29-94.05c-4.91.41-9.9.51-14.27,3.28.19,1.84.45,3.57.52,5.32a5.39,5.39,0,0,0,2.23,4.23,33.3,33.3,0,0,0-.32-5.67c-.25-1.78,0-3.14,1.2-3.54,1.44-.47,3-.39,4.34-1.41.2-.15.93.16,1.26.44.9.75,1.71,1.6,2.6,2.45l-.61-3.87c1.28-.34,1.28-.34,3,.39.1-.39.22-.75.29-1.13C330.55,279.29,330.41,279.14,330.3,278.92Zm18,96.46c-3.22-.09-9.26,1.17-10.12,2C340.1,378.32,345.09,377.39,348.26,375.38Z" transform="translate(-311.93 -274.84)"/><path class="cls-1" d="M318.92,301.75c1.54-1.69,2.87-3.13,4.18-4.59,1-1.17,2-2,3.89-1.36.92.32,2.34-.27,3.34-.8,1.4-.74,2.56-1.14,3.9.08.41.38,1.18.37,1.79.55s1.49.46,2.36.73l2.54-1.44c.31,1.53.56,2.75.8,4,.79,4,1.69,8,2.31,12,.45,3,.5,6,.81,9a30.16,30.16,0,0,0,.7,4c.62,2.48,1.37,4.93,2,7.41.29,1.15.39,2.35.59,3.52a22.15,22.15,0,0,0,.55,2.81c1.45,4.72,1.59,9.56,1.45,14.77a11.25,11.25,0,0,1-3.06,0c-2.62-.72-5.07,0-7.51.69s-4.67,1.6-7,2.37a14.91,14.91,0,0,1-1.94.37,7.64,7.64,0,0,1-.45-1.71,86.25,86.25,0,0,0-5.26-26.45c-1.94-5.59-2.86-11.26-3.9-17-.38-2.12-1-4.2-1.46-6.29C319.29,303.45,319.08,302.45,318.92,301.75Zm23.25,30.78c-.63,2.52,0,3.43,2.62,4.05a9,9,0,0,0,.53-2.47,47.54,47.54,0,0,0-.86-6.84c-.53-2.41-2-4.11-5.18-4.26l-2.06,2.17c-3.37-1.11-5.31-.48-5.21,1.9l2.23.36c.72,2.38,1.33,4.4,1.92,6.42a5.89,5.89,0,0,1,.12.94c.28,2.39,2.57,3.46,4.75,2.21-.72-1.54-1.9-3-1.11-5Zm-8.24-12a10.42,10.42,0,0,0,1.13.35c2,.38,2.65-.08,2.72-2.13,0-1.12,0-2.24,0-3.36.39,2.92,2,4,5,3.2a9.05,9.05,0,0,0-2.41-5.54c-2.31-2.34-4.41-2.32-6.75.05-.09.09-.29.07-.6.13a9.25,9.25,0,0,0-1.79-1.38,4.77,4.77,0,0,0-2.45-.54c-1,.14-1.74.81-1.09,2,2.47-.1,2.47-.1,3,1.85-2.46,2.05-2.85,2.5-2.44,3.43.8,1.83,1.73,3.63,4.3,3.5Z" transform="translate(-311.93 -274.84)"/><path class="cls-1" d="M334.59,373a9.14,9.14,0,0,1-.63-1.37c-.63-2.14-1.12-4.33-1.85-6.44a5.57,5.57,0,0,1,4.16-7.63c3.1-.64,6.1-1.86,9.32-1.9a27.33,27.33,0,0,1,4.05.09c2,.28,2.85,1.76,2.55,3.74-.24,1.57-.27,3.16-.45,4.73-.1.87-.32,1.72-.5,2.58a1.43,1.43,0,0,1-1.56,1.17,23.31,23.31,0,0,0-13.82,4.65,2.39,2.39,0,0,1-.63.34A2.44,2.44,0,0,1,334.59,373Z" transform="translate(-311.93 -274.84)"/><path class="cls-1" d="M330.3,278.92c.11.22.25.37.23.49-.07.38-.19.74-.29,1.13-1.71-.73-1.71-.73-3-.39l.61,3.87c-.89-.85-1.7-1.7-2.6-2.45-.33-.28-1.06-.59-1.26-.44-1.3,1-2.9.94-4.34,1.41-1.21.4-1.45,1.76-1.2,3.54a33.3,33.3,0,0,1,.32,5.67,5.39,5.39,0,0,1-2.23-4.23c-.07-1.75-.33-3.48-.52-5.32C320.4,279.43,325.39,279.33,330.3,278.92Z" transform="translate(-311.93 -274.84)"/><path class="cls-1" d="M348.26,375.38c-3.17,2-8.16,2.94-10.12,2C339,376.55,345,375.29,348.26,375.38Z" transform="translate(-311.93 -274.84)"/><path d="M342.17,332.53l-2.25-.52c-.79,2,.39,3.46,1.11,5-2.18,1.25-4.47.18-4.75-2.21a5.89,5.89,0,0,0-.12-.94c-.59-2-1.2-4-1.92-6.42l-2.23-.36c-.1-2.38,1.84-3,5.21-1.9l2.06-2.17c3.22.15,4.65,1.85,5.18,4.26a47.54,47.54,0,0,1,.86,6.84,9,9,0,0,1-.53,2.47C342.13,336,341.54,335.05,342.17,332.53Z" transform="translate(-311.93 -274.84)"/><path d="M333.93,320.51l-1.34,1.59c-2.57.13-3.5-1.67-4.3-3.5-.41-.93,0-1.38,2.44-3.43-.53-1.95-.53-1.95-3-1.85-.65-1.22.06-1.89,1.09-2a4.77,4.77,0,0,1,2.45.54,9.25,9.25,0,0,1,1.79,1.38c.31-.06.51,0,.6-.13,2.34-2.37,4.44-2.39,6.75-.05a9.05,9.05,0,0,1,2.41,5.54c-3,.78-4.64-.28-5-3.2,0,1.12,0,2.24,0,3.36-.07,2-.68,2.51-2.72,2.13A10.42,10.42,0,0,1,333.93,320.51Z" transform="translate(-311.93 -274.84)"/></g></g></svg>