<svg xmlns="http://www.w3.org/2000/svg" viewBox="0 0 281.16 101.45"><defs><style>.cls-1{fill:#fff;}</style></defs><title>Rareplant</title><g id="Laag_2" data-name="Laag 2"><g id="Laag_1-2" data-name="Laag 1"><path d="M589.49,8.89c1.25-2.57,3.16-4.07,4.79-5.77,2.49-2.59,5.1-5.07,7.6-7.64s4.86-5.06,7.23-7.65c.84-.92,1.5-2,2.25-3l-.35-.32a43,43,0,0,0-4.37,4.15c-4.55,5.64-10.95,9-16.35,13.58-1.1.93-2.66,1.31-4.49,2.17.18-1,.11-1.63.37-2,1-1.32,2.16-2.56,3.27-3.81a39.06,39.06,0,0,0,3.15-3.75,167.19,167.19,0,0,1-29.47,20.29c-.22.11-.59,0-1-.08a3.61,3.61,0,0,1,1.8-2.77c3.81-3,7.7-5.95,11.47-9A74.5,74.5,0,0,0,586.39-7c2-2.45,4.3-4.66,6.46-7l-.39-.42c-1.56,1.38-3.11,2.79-4.71,4.15-5.91,5-12,9.75-19.14,13C565.85,4,563,5,560.12,6c-2.12.8-4.51.58-6.51,2a52.6,52.6,0,0,1-5.82,3.3c-1.61.87-3.26,1.68-4.91,2.48a4.72,4.72,0,0,1-1.07.21c-.55-1.08.1-1.69.62-2.22,1.3-1.29,2.61-2.59,4-3.75,2.33-1.92,4.76-3.73,7.13-5.61a2.58,2.58,0,0,0,.9-1.57c-1.16.66-2.39,1.24-3.49,2-4.62,3.16-9.22,6.33-14.56,8.21-.67.24-1.25.73-1.91,1s-1.42.47-2.13.7l-.33-.45a5.24,5.24,0,0,1,.95-1.43c3-2.25,5.93-4.6,9.09-6.59a36,36,0,0,0,6.63-5.07c2-2,4.17-4,6.26-5.93.56-.54,1.1-1.1,1.65-1.64l-.37-.44c-1.51,1.2-3.13,2.28-4.5,3.61A88.94,88.94,0,0,1,531.11,9.47a39.91,39.91,0,0,0-3.33,2.34c-.69.46-1.3,1.26-2.61.61,1.06-2.4,4-2.85,5.37-5.41a13.57,13.57,0,0,0-1.94.8c-3.59,2.25-7.1,4.62-10.75,6.77-3,1.78-6.17,3.35-9.31,4.91a12.11,12.11,0,0,1-2.94.46L529.47.79l-.34-.55c-6.94,3.72-13.39,8.49-21,10.85l-.47-.69a7.12,7.12,0,0,1,1.15-1.23c1.58-1.08,3.26-2,4.83-3.13,4.75-3.37,9.54-6.7,14.16-10.24,2.89-2.22,5.18-5.1,8-8.19a21.48,21.48,0,0,0-2.59-.26,376.63,376.63,0,0,1-40.74-.27c-5.9-.33-11.78-1.06-17.66-1.68-4.05-.42-8.11-.84-12.13-1.47-4.57-.72-9.11-1.63-13.64-2.56-5.16-1.05-10.3-2.22-15.44-3.36-1.17-.27-2.31-.66-3.46-1-.8-.21-1.44-.7-1.14-1.5a3.31,3.31,0,0,1,1.49-1.64,3.24,3.24,0,0,1,1.86.09c3.92.78,7.8,1.81,11.75,2.32,5.86.75,11.77,1.09,17.65,1.7,4,.42,8.06,1.06,12.1,1.51,2.3.26,4.62.38,6.94.52,4.86.28,9.72.69,14.59.77,8.7.15,17.4.08,26.11.15,2.55,0,5.11.25,7.66.26,3.6,0,7.19-.1,10.78-.19.84,0,1.69-.18,2.58-.27a2.47,2.47,0,0,0-.11-.86c-2.59-4.11-4.86-8.45-8.24-12-1.4-1.48-3.14-2-5.71-2.18l9.92,13.37c-2,.64-2,.61-2.76-.73a42.47,42.47,0,0,0-2.37-3.57c-1.69-2.33-3.39-4.65-5.16-6.91-.92-1.17-2-2.21-3.12-3.42,1.57-1.19,3,.11,4.36.1a25.74,25.74,0,0,1,4.33.75c-.68-2.23-3.43-2.49-4.06-4.69,5,1.33,9.86,2.83,14.33,5.87-.84-2.94-4.31-3.11-5.13-5.78,1.22-.86,2,.19,3,.35a12.34,12.34,0,0,0,3.15.32c-1.2-1-2.4-1.91-3.78-3a5.57,5.57,0,0,1,4.07-.78c2.14.12,4.28.34,6.42.35A29.38,29.38,0,0,1,563-39.45a21.12,21.12,0,0,0,4.12,1.51l-9.31-7.93a3.5,3.5,0,0,1,3.85-.37c5.41,1.93,10.89,3.7,15.77,6.88a30.65,30.65,0,0,0,5.47,2.72c-3-3.25-6.9-5.27-9.91-8.39l.14-.54a6.6,6.6,0,0,1,1.92-.1c4.43,1.08,8.81,2.29,12.52,5.18a8.81,8.81,0,0,0,3,1.3c-1.82-2.61-4.88-4.1-6.16-7.38a3.62,3.62,0,0,1,1.19-.25,23,23,0,0,1,9.17,3.28c2.34,1.53,4.78,2.9,7,4.54s4.61,3.69,6.91,5.54a10.63,10.63,0,0,0,1,.62c.06-.19.12-.3.1-.33-3-3.21-5.13-7.09-8.83-9.64a57.58,57.58,0,0,1-5-4.12,13.33,13.33,0,0,1-1.38-1.75,7.56,7.56,0,0,1,1.72-.38c3,.17,5.5,1.61,8.12,2.77a8.16,8.16,0,0,0,3.17.49,30.65,30.65,0,0,1,7,1.16c2.57.72,5,1.79,8.06,2.89-3.3-3.27-8-3.67-10.52-7.47.53-.23.95-.58,1.33-.54a43.41,43.41,0,0,1,8.93,1.62,33,33,0,0,1,9.48,4.92c2.21,1.55,4.68,2.74,7,4.16,1.08.66,2,1.54,3.1,2.23s2.45,1.4,3.68,2.1l.49-.38a9.07,9.07,0,0,0-.85-2,24.11,24.11,0,0,0-15.14-9.72c-1.48-.29-3-.63-4.44-1a5.34,5.34,0,0,1-1.8-.62c-.53-.39-1.23-1.06-1.2-1.57A2.17,2.17,0,0,1,624-51.45a13.5,13.5,0,0,1,4.47-.69c3.57.25,7.19.49,10.53,2,3,1.36,5.89,2.76,8.22,5.21a71,71,0,0,0,6.8,6,15.44,15.44,0,0,0-3-6.37,46.11,46.11,0,0,0-4.48-5A17.73,17.73,0,0,0,643-52.69a9.24,9.24,0,0,1-3.88-3.13c.65-.2,1.17-.55,1.57-.45a40.58,40.58,0,0,1,6.41,1.82c4.79,2.06,9.28,4.62,12.55,8.91a44,44,0,0,0,3.63,3.73c.07-3.3-1.37-6.13-3-8.84-1.49-2.46-3.16-4.8-4.8-7.16a9.78,9.78,0,0,1-1.88-5.59c0-1,.45-1.48,1.43-1.48a11.58,11.58,0,0,1,6.37,1.81c1.94,1.25,3.75,2.69,5.8,4.18-.12-1.75-1.14-2.92-2-4.17s-1.63-2.54-2.42-3.78c.36-.93,1-.7,1.62-.51a18,18,0,0,1,8,5.17c1.84,2,3.47,4.15,5.22,6.22a2.07,2.07,0,0,0,1.39.72c-.31-1-.59-2.09-.94-3.11-1.32-3.78-3.16-7.1-6.93-9.07A54.65,54.65,0,0,1,665.8-71c.46-1,1.31-.93,2.06-.83a16.57,16.57,0,0,1,7.07,2.77A38,38,0,0,1,686.8-56.45,27.1,27.1,0,0,0,688.55-54l.49-.24c-.15-.82-.35-1.65-.45-2.48-.47-4-2.71-7.12-5.13-10.1-1.75-2.16-3.79-4.08-5.69-6.12-.47-.51-.88-1.05-1.71-2a14,14,0,0,1,2.2-.15c3.82.49,6.82,2.52,9.48,5.16,1,1,2.11,1.75,3,2.78a32.63,32.63,0,0,1,2.86,4.06c1.2,1.95,2.28,4,3.57,5.87a18.18,18.18,0,0,0-3-10.33,59.6,59.6,0,0,1-2.95-5.73c-1.32-2.87-3-5.45-5.84-7,.46-1.5,1.31-1.34,2.12-.86a21.28,21.28,0,0,1,3.77,2.54c2.68,2.5,5.21,5.16,7.79,7.77.84.85,1.6,1.79,2.44,2.64a20.74,20.74,0,0,1,5.64,12.65c.16,1.35.55,2.66.78,4a14.09,14.09,0,0,1,0,2c-1.27-.63-1.63-1.38-1.58-2.3.26-5.06-1.81-9.36-4.66-13.27-2.07-2.82-4.55-5.33-6.88-8a3.11,3.11,0,0,0-1.83-.95c.64,1.5,1,3.23,2,4.44,2.1,2.56,2.4,5.69,3.28,8.64a43.3,43.3,0,0,1,1.26,4.59,26.69,26.69,0,0,1,.39,4.72c0,1.75-.2,3.5-.33,5.51,3.51-.51,6.72-2,10.57-1.78-.81,1.39-1.47,2.53-1.89,3.27a19.58,19.58,0,0,1,.62,3.22c0,3.83-1.69,7.07-3.46,10.32a37.07,37.07,0,0,0-3.51,7.3c-.6,2.11-2.05,3.22-3.46,4.39a21.23,21.23,0,0,1-4.24,2.21c-.82-1.26.05-1.82.73-2.21a18.79,18.79,0,0,0,6.48-6.93,67.89,67.89,0,0,0,4.85-9.87,10.35,10.35,0,0,0,.34-6.74A12.08,12.08,0,0,0,702-41.51c-.47,8.32-2.49,16.2-8.21,22.08-6.2,6.36-10.49,8.45-12.69,8.24.8-1.08,1.47-2,2.18-3a53.1,53.1,0,0,0,8-13.56,13.12,13.12,0,0,0,.54-3.72,24.71,24.71,0,0,0-.12-3,13.2,13.2,0,0,0-3.07,4.88A33,33,0,0,1,680.48-17a32.28,32.28,0,0,1-6.29,4.28,45.41,45.41,0,0,1-5,2.35,11,11,0,0,1-2,.38c2.89-3.37,5.53-6.2,7.88-9.26A21.19,21.19,0,0,0,679.38-30c-.3.4-.6.79-.88,1.19-2.47,3.54-4.67,7.31-7.49,10.55-2.69,3.08-5.66,6-9.81,7.42-2.66.92-4.61,3.09-6.41,5.26a30.72,30.72,0,0,1-8.11,6.64,5.65,5.65,0,0,1-1.11.46,4.1,4.1,0,0,1-.89,0A5.52,5.52,0,0,1,644.8.18c1-2.78,3.09-4.8,4.91-7,4.6-5.62,9-11.36,13.56-17.06.06-.08,0-.28,0-.5-4.82,4.56-9.54,9.15-14.39,13.6A66.59,66.59,0,0,1,632.45.74c.11-.74,0-1.27.26-1.52,4.25-4.88,8.51-9.74,12.83-14.56a21,21,0,0,1,3.94-3.37c-.49,1.95-2.18,3-3.26,4.43s-2.41,3.18-3.66,4.74S640.12-6.6,639-5a89.74,89.74,0,0,0,10.36-7.81,84.2,84.2,0,0,0,9.4-9.2c2.87-3.28,5.68-6.61,8.66-10.1-1.6-.76-2.77,0-3.95.22s-2.15.68-3.24.8a2.63,2.63,0,0,0-2.33,2,25.91,25.91,0,0,1-6.73,9.47c-.14.13-.43.11-1.06.24.74-2.9,3.3-4.4,4.48-7.22a25.76,25.76,0,0,0-5.44,4.69c-3.91,4-7.72,8.09-11.67,12.05a52.45,52.45,0,0,1-6.75,6.08C627.3-1.31,623.58.74,620,2.94a8.8,8.8,0,0,1-1.41.48A5.17,5.17,0,0,1,619,2c1.23-1.57,2.48-3.13,3.78-4.65,1.75-2.06,3.52-4.12,5.33-6.13,2.46-2.74,5.06-5.34,7.42-8.16,2.08-2.49,3.91-5.19,5.85-7.8l-.31-.37a3.78,3.78,0,0,0-.87.46c-3,2.84-6.06,5.68-9,8.56-5.64,5.43-11.22,10.91-16.9,16.3a57.33,57.33,0,0,1-6.07,5,61.38,61.38,0,0,1-5.52,3.19l-.42-.35a4,4,0,0,1,.34-1.41c1.72-2.29,3.4-4.63,5.29-6.78,2.36-2.69,4.92-5.22,7.38-7.84,1.7-1.8,3.36-3.63,5-5.47a7,7,0,0,0,1.55-2.35c-.81.81-1.59,1.67-2.45,2.43-3.11,2.74-6.27,5.44-9.38,8.18-1.55,1.38-3.05,2.81-4.55,4.24a48.44,48.44,0,0,1-14.62,9.8A4.5,4.5,0,0,1,589.49,8.89Zm-16.62-16c.91-.17,1.62-.57,1.63-1.74l-1.57,1.8-2,1.24.41.47ZM522,2.52c7.89-3.86,18.32-11.38,20.15-15.23-2.11-.3-3.72-.25-5.39,1.73-2.45,2.89-5.61,5.17-8.43,7.74-2.12,1.91-4.19,3.87-6.29,5.81a3.64,3.64,0,0,0-2.34,1.35l.33.42ZM681-35.8c1.58-.22,1.46.86,1.32,1.83a36.8,36.8,0,0,1-7.94,18.47,5.23,5.23,0,0,0-.48.87,6.28,6.28,0,0,0,3-1.14,32.31,32.31,0,0,0,9.58-11.77c1.5-2.9,2.83-5.9,4.22-8.86.25-.53.43-1.1.77-2-3.84.33-7.27.78-10.38,2.61-1.4.25-2.8.48-4.2.74a3.5,3.5,0,0,0-3.13,3.07,16.44,16.44,0,0,1-1.6,5.22c-1.76,3-3.9,5.79-5.9,8.66-1,1.39-2,2.75-3,4.13a5.92,5.92,0,0,0,4.09-2.37,69.32,69.32,0,0,0,5.28-6.47C675.52-27,678.22-31.45,681-35.8Zm-3.9-.54-.09-.58c-1.75.47-3.49,1-5.26,1.39-4.93,1-9.89,1.8-14.82,2.81-6,1.23-12,2.65-18,3.88-3.36.69-6.76,1.17-10.14,1.75-4.4.76-8.78,1.78-13.22,2.22-9.53.93-19.09,1.52-28.64,2.33-5,.43-10,1-15,1.56-6.26.74-12.49,1.73-18.77,2.34-4.83.47-9.7.56-14.56.73-5.66.2-11.32.07-17-.17-9.88-.42-19.78.13-29.67-.57C487-19,482-19,477.09-19.12a14.36,14.36,0,0,1-2.63-.2c-6.34-1.39-12.81-1.66-19.25-2.24-3.58-.33-7.17-.54-10.72-1-3.79-.54-7.54-1.38-11.31-2-.87-.15-1.78-.14-2.67-.21a1.72,1.72,0,0,0,1.21.88c7.62,1.74,15.23,3.61,22.9,5.15,5.55,1.1,11.18,1.87,16.8,2.57,5.38.68,10.8,1.18,16.21,1.57,6.53.48,13.07.82,19.61,1.09,3.66.15,7.34.08,11,0,6.07-.08,12.15,0,18.2-.38,8.44-.5,16.86-1.34,25.29-2,3.74-.29,7.51-.36,11.23-.8,6.58-.79,13.14-1.81,19.71-2.68,9.26-1.24,18.41-3.07,27.59-4.79,7.92-1.48,15.8-3.2,23.69-4.85,3-.64,6-1.48,9.08-2.09,4.3-.85,8.65-1.47,12.94-2.38C669.72-34.35,673.4-35.4,677.1-36.34ZM655.33-63.17a5.3,5.3,0,0,0,1.54,4.4c3.45,3.7,4.78,8.58,7.23,12.82a5.64,5.64,0,0,1,.55,1.83c.48,2.64.92,5.29,1.41,8.17a18.15,18.15,0,0,0,8-1.67c-.32-2.19-.47-4.26-1-6.25A35.18,35.18,0,0,0,668-54.59a23.46,23.46,0,0,0-7.41-7A8.67,8.67,0,0,0,655.33-63.17ZM554.13-20.91c-.72.67-1.26.57-1.75,0a77.28,77.28,0,0,1-5.18-6.56c-1.37-2.15-2.82-4-5.17-5.12-.72-.34-1.31-.91-2-1.3-1.42-.78-2.88-1.51-4.32-2.26a74.94,74.94,0,0,0,5.79,8c2.07,2.61,2.86,5.8,3.69,8.85,3.22.34,15.59-1.14,17.39-2.07-1.58-3.26-3.36-6.32-6.58-8.31-1.69-1.05-3.2-2.38-4.88-3.44-1.92-1.21-3.69-2.75-6.54-3.41C548.88-31.61,552.29-26.7,554.13-20.91ZM622.55-.43c4-1.12,8.54-4.79,11.71-8a59.14,59.14,0,0,1,5.09-5,45.79,45.79,0,0,0,7.18-7.35,59.37,59.37,0,0,1,4.39-4.73c1.4-1.39,2.9-2.68,4.35-4l-.22-.45-10.86,2.62c-.39,1.22-.45,2.3-1,3-3.44,4.3-6.92,8.57-10.53,12.73-2.92,3.38-6,6.58-9.07,9.88C623.2-1.41,622.9-.9,622.55-.43ZM639.9-26.34l-.07-.51c-3.41.72-6.83,1.42-10.23,2.19a1.64,1.64,0,0,0-.87,1c-1.88,5.94-6,10.32-10.4,14.36-4.12,3.79-7.76,8-11.53,12.1a11.74,11.74,0,0,0-1.11,1.83,3.38,3.38,0,0,0,.8,0c.29-.13.56-.31.83-.46a50.5,50.5,0,0,0,10.55-8.55c5.58-5.59,11.22-11.11,16.82-16.67C636.44-22.82,638.16-24.58,639.9-26.34Zm-45,7.71a46.78,46.78,0,0,0-10.84,1.75c-.42.1-.78.65-1.08,1.06a33.86,33.86,0,0,1-3.43,4.55c-4,3.68-7.85,7.5-12.5,10.4C564.92.48,563,2.22,561,3.78l.27.45a16.64,16.64,0,0,0,2.46-.73C571.1,0,578.38-3.62,584.52-9.11,588-12.18,591.31-15.32,594.93-18.63ZM574.06-22.1c-2-2.23-3.6-4.23-5.43-6a68.51,68.51,0,0,0-5.88-4.85c-1.07-.81-2.38-1.32-3.45-2.13a33.09,33.09,0,0,0-9.7-5.08,37.84,37.84,0,0,0-4-.9l-.18.45c5.31,2.77,9.55,6.84,13.76,11a19.36,19.36,0,0,1,5.45,8.5Zm100-45.67-.41.47a11,11,0,0,0,1.27,1,6.54,6.54,0,0,1,2.84,3.44,18.3,18.3,0,0,0,.87,1.71,23.9,23.9,0,0,1,2.76,9.83c.23,3.79.63,7.57,1,11.69l7.92-2.5C688.6-53.25,682.76-61.45,674.06-67.77ZM595.5,4.16l.25.42c.69-.38,1.35-.78,2-1.12,2.42-1.18,4.25-3.09,6.22-4.83,2.62-2.31,5.3-4.57,7.86-6.95s5.09-4.84,7.54-7.34c2.18-2.22,4.25-4.55,6.35-6.84a12.53,12.53,0,0,0,.87-1.16l-.25-.44c-2.64.54-5.27,1.13-7.92,1.59a2.24,2.24,0,0,0-1.82,1.6,38.34,38.34,0,0,1-7.79,11.07C604.37-5.21,600-.51,595.5,4.16Zm19.61-30.43a37.48,37.48,0,0,0,9.13-1.24c-2.07-5.51-17.53-17.06-24.72-18.57,1.4,1.07,2.52,1.8,3.49,2.68a39.33,39.33,0,0,1,3.3,3.41c1.34,1.57,2.4,3.44,3.92,4.8,2.36,2.12,4,4.47,4.42,7.68A6.29,6.29,0,0,0,615.11-26.27Zm66-46.82-.58.53c8.27,7.88,11.19,18.11,12.89,28.86,3.59-1,5-3,4.28-6.26a43.15,43.15,0,0,0-2.2-6.3c-.53-1.33-1.38-2.53-1.93-3.85-1.78-4.26-4.92-7.4-8.4-10.24A48.88,48.88,0,0,0,681.13-73.09ZM588.54-44.54l-.08.36c2.43,2.5,4.92,5,7.27,7.53a91.9,91.9,0,0,1,6.76,8c1.55,2.15,3,3.84,5.92,2.81a10.42,10.42,0,0,1,2.39-.12,13.56,13.56,0,0,0,1.67-.33,7.21,7.21,0,0,0-.61-1.46,45.8,45.8,0,0,0-9.72-9.14,101.82,101.82,0,0,0-9.74-6A33,33,0,0,0,588.54-44.54Zm78.19-19.39c.53.88,1.12,1.74,1.59,2.66,1.35,2.62,2.72,5.24,4,7.91A25,25,0,0,1,675.08-43a17,17,0,0,0,.29,3.34,2,2,0,0,0,1.06,1.36,3.26,3.26,0,0,0,4-3,17,17,0,0,0-.23-3.33c-.16-1.27-.52-2.51-.64-3.78A9.56,9.56,0,0,0,677-54c-2.15-2.46-4.29-4.92-6.32-7.47A6.75,6.75,0,0,0,666.73-63.93Zm-41.6,13.7c.32.37.4.57.52.6,1.54.41,3.07.84,4.63,1.17,7.8,1.64,13.52,6.11,17.55,12.88a32.4,32.4,0,0,1,1.39,3c2-.37,4-.26,6-1.7-1.12-1.25-2.07-2.41-3.13-3.46a104.09,104.09,0,0,0-8.41-8.14,23.11,23.11,0,0,0-15.45-4.8A27.48,27.48,0,0,0,625.13-50.23ZM646.31-32l.08-.44c-.67-.37-1.35-.72-2-1.12-1.49-.92-3-1.77-4.44-2.81A69.44,69.44,0,0,0,626-45a36.68,36.68,0,0,0-9.52-2.71c4.49,3,8.83,5.68,12.88,8.73,3.27,2.47,6.92,4.66,8.83,8.8Zm-82.9-11.4c1.16,1,2.36,1.9,3.47,2.93a42.69,42.69,0,0,0,10.61,7.33,28.88,28.88,0,0,1,10.36,8.33,2.54,2.54,0,0,0,1.8.83,23.77,23.77,0,0,0,3.58-.48A59.22,59.22,0,0,0,563.41-43.41Zm12.29,21c3.25-.39,6.49-.09,9.72-1.26-1.3-1.18-2.44-2.16-3.52-3.21a13.43,13.43,0,0,0-4.93-3.3,11,11,0,0,1-3-1.43c-3.82-2.85-8.27-4.49-12.43-6.68a14.63,14.63,0,0,0-2.74-.89,109.08,109.08,0,0,0,8.67,7.34C570.74-29.25,574.27-26.82,575.7-22.45ZM537.8,8.71l.26.41A69.52,69.52,0,0,0,550.15,2.2c6.91-5.26,13.72-10.66,20.55-16a5.54,5.54,0,0,0,.85-1.27c-2.62,0-5,0-7.34,0A2.12,2.12,0,0,0,562-13.64,23.11,23.11,0,0,1,557.39-7a95,95,0,0,1-14.82,12.4C541,6.46,539.39,7.6,537.8,8.71Zm8.34,1.58a37.47,37.47,0,0,0,11.58-6.46L570.26-6.9c2.73-2.33,5.48-4.63,8.21-6.95.88-.75,1.72-1.53,2.88-2.57-1.9.14-3.34.14-4.73.39a3.91,3.91,0,0,0-2.26,1.1,67.94,67.94,0,0,1-13.23,13A39.75,39.75,0,0,1,556,2C552.1,4.05,549.39,7.44,546.14,10.29Zm89.8-39.86a6.55,6.55,0,0,0-3.26-4.24c-3-1.87-5.91-3.77-8.94-5.53a33.59,33.59,0,0,0-11.42-4.54c6.27,4.16,12.91,7.62,14.1,16.14Zm-85.7,15.94c-.81-.11-1.33-.21-1.84-.23a4,4,0,0,0-4.28,2.25,20.76,20.76,0,0,1-6.51,7.23,20.72,20.72,0,0,0-3,2.39,101.17,101.17,0,0,1-10.16,8.68c-1.91,1.44-3.77,3-5.61,4.46a6.12,6.12,0,0,0-.9,1.24A70.7,70.7,0,0,0,535.24,1C540.44-3.54,545.74-7.92,550.24-13.63ZM663.88-35.19c-.5-1.28-.8-2.24-1.24-3.12-1.27-2.59-3.28-4.67-4.9-7a13.67,13.67,0,0,0-5.86-5c-1.17-.51-2.25-1.2-3.39-1.77-.67-.34-1.38-.61-2.09-.91,1,1.36,1.89,2.65,2.86,3.87a12.43,12.43,0,0,0,1.82,1.88A14.12,14.12,0,0,1,656-39.07l1,5ZM560.39-14.51a17.22,17.22,0,0,0-6.76.31c-.56.09-1,.86-1.48,1.39-1.94,2.31-3.68,4.82-5.81,6.93s-4.67,3.85-7,5.76a13.31,13.31,0,0,0-4,5.2C539.83,3.16,544.14,1,547.26-3a4.75,4.75,0,0,1,.7-.64c3.41-2.88,6.83-5.74,10.22-8.63C558.88-12.87,559.48-13.58,560.39-14.51Zm18.42-28c3.08,2.64,6.37,5.08,9.19,8s5.29,6.34,8,9.71c1.77-.14,3.83.2,5.76-.61C595.82-33.54,588.31-39.41,578.81-42.53ZM571.92,7.74l.27.48c1.18-.78,2.37-1.51,3.52-2.33q5-3.54,9.89-7.14A19.33,19.33,0,0,0,587.85-3q7.95-7.79,15.86-15.61a7.72,7.72,0,0,0,.65-.86c-1.62,0-3-.05-4.47,0a3,3,0,0,0-2.81,1.73A46.32,46.32,0,0,1,587.64-6.1c-1.41,1.29-2.71,2.69-4.09,4-3.31,3.22-6.46,6.63-10.56,8.93A6.92,6.92,0,0,0,571.92,7.74ZM590.06,0l.36.41a11.3,11.3,0,0,0,1-.59q5.16-3.9,10.3-7.83a12,12,0,0,0,1.2-1.17l10.23-10.75c.36-.38.68-.79,1.2-1.39-3-.37-5.24.95-7.63,1.43a25.43,25.43,0,0,1-6.89,9.48,32.48,32.48,0,0,0-2.8,2.94l-2.94,3.15ZM699.39-40.59l-2.56.6c-2.63.66-2.64.66-2.76,3.29-.25,5.07-1.11,10-3.68,14.46-1.21,2.12-2.38,4.27-3.57,6.41A13.71,13.71,0,0,0,691-19.22C695.72-25.44,697.71-32.79,699.39-40.59ZM647.92-2l.41.38a78.6,78.6,0,0,0,6.45-5.9c3-3.39,5.91-6.93,8.58-10.61,2.53-3.48,4.74-7.19,7-10.86a7.39,7.39,0,0,0,1.26-4.24c-1.34-.29-1.81.39-2.26,1.36-1.24,2.67-2.2,5.58-4,7.88-5,6.54-10.31,12.81-15.48,19.2C649.23-3.9,648.6-2.93,647.92-2Zm59.44-43.76-.09-.56a4.45,4.45,0,0,0-1.61-.09q-9.58,3.22-19.15,6.56a5.44,5.44,0,0,0-1.11.7C693.2-39.93,700.62-41.77,707.36-45.76Zm-91.94,5.63-.36.41,7.74,6.83.36-.4C621.12-36.17,618.16-38,615.42-40.13ZM623-17.33l.39.3,1-1.43-.27-.2Z" transform="translate(-428.94 81.51)"/><path class="cls-1" d="M677.1-36.34c-3.7.94-7.38,2-11.12,2.79-4.29.91-8.64,1.53-12.94,2.38-3,.61-6,1.45-9.08,2.09-7.89,1.65-15.77,3.37-23.69,4.85-9.18,1.72-18.33,3.55-27.59,4.79-6.57.87-13.13,1.89-19.71,2.68-3.72.44-7.49.51-11.23.8-8.43.67-16.85,1.51-25.29,2-6.05.36-12.13.3-18.2.38-3.67.05-7.35.12-11,0-6.54-.27-13.08-.61-19.61-1.09-5.41-.39-10.83-.89-16.21-1.57-5.62-.7-11.25-1.47-16.8-2.57-7.67-1.54-15.28-3.41-22.9-5.15a1.72,1.72,0,0,1-1.21-.88c.89.07,1.8.06,2.67.21,3.77.67,7.52,1.51,11.31,2,3.55.5,7.14.71,10.72,1,6.44.58,12.91.85,19.25,2.24a14.36,14.36,0,0,0,2.63.2c5,.15,9.91.13,14.85.47,9.89.7,19.79.15,29.67.57,5.67.24,11.33.37,17,.17,4.86-.17,9.73-.26,14.56-.73,6.28-.61,12.51-1.6,18.77-2.34,5-.59,10-1.13,15-1.56,9.55-.81,19.11-1.4,28.64-2.33,4.44-.44,8.82-1.46,13.22-2.22,3.38-.58,6.78-1.06,10.14-1.75,6-1.23,12-2.65,18-3.88,4.93-1,9.89-1.83,14.82-2.81,1.77-.35,3.51-.92,5.26-1.39Z" transform="translate(-428.94 81.51)"/><path class="cls-1" d="M655.33-63.17a8.67,8.67,0,0,1,5.28,1.58,23.46,23.46,0,0,1,7.41,7,35.18,35.18,0,0,1,5.12,10.72c.48,2,.63,4.06,1,6.25a18.15,18.15,0,0,1-8,1.67c-.49-2.88-.93-5.53-1.41-8.17a5.64,5.64,0,0,0-.55-1.83c-2.45-4.24-3.78-9.12-7.23-12.82A5.3,5.3,0,0,1,655.33-63.17Z" transform="translate(-428.94 81.51)"/><path class="cls-1" d="M554.13-20.91c-1.84-5.79-5.25-10.7-9.56-15.66,2.85.66,4.62,2.2,6.54,3.41,1.68,1.06,3.19,2.39,4.88,3.44,3.22,2,5,5,6.58,8.31-1.8.93-14.17,2.41-17.39,2.07-.83-3.05-1.62-6.24-3.69-8.85a74.94,74.94,0,0,1-5.79-8c1.44.75,2.9,1.48,4.32,2.26.7.39,1.29,1,2,1.3,2.35,1.1,3.8,3,5.17,5.12a77.28,77.28,0,0,0,5.18,6.56C552.87-20.34,553.41-20.24,554.13-20.91Z" transform="translate(-428.94 81.51)"/><path class="cls-1" d="M622.55-.43c.35-.47.65-1,1-1.41,3-3.3,6.15-6.5,9.07-9.88,3.61-4.16,7.09-8.43,10.53-12.73.55-.69.61-1.77,1-3l10.86-2.62.22.45c-1.45,1.34-2.95,2.63-4.35,4a59.37,59.37,0,0,0-4.39,4.73,45.79,45.79,0,0,1-7.18,7.35,59.14,59.14,0,0,0-5.09,5C631.09-5.22,626.51-1.55,622.55-.43Z" transform="translate(-428.94 81.51)"/><path class="cls-1" d="M639.9-26.34c-1.74,1.76-3.46,3.52-5.21,5.26-5.6,5.56-11.24,11.08-16.82,16.67a50.5,50.5,0,0,1-10.55,8.55c-.27.15-.54.33-.83.46a3.38,3.38,0,0,1-.8,0,11.74,11.74,0,0,1,1.11-1.83c3.77-4.1,7.41-8.31,11.53-12.1,4.41-4,8.52-8.42,10.4-14.36a1.64,1.64,0,0,1,.87-1c3.4-.77,6.82-1.47,10.23-2.19Z" transform="translate(-428.94 81.51)"/><path class="cls-1" d="M594.93-18.63c-3.62,3.31-7,6.45-10.41,9.52C578.38-3.62,571.1,0,563.72,3.5a16.64,16.64,0,0,1-2.46.73L561,3.78c2-1.56,3.93-3.3,6.09-4.65,4.65-2.9,8.53-6.72,12.5-10.4A33.86,33.86,0,0,0,583-15.82c.3-.41.66-1,1.08-1.06A46.78,46.78,0,0,1,594.93-18.63Z" transform="translate(-428.94 81.51)"/><path class="cls-1" d="M574.06-22.1l-9.39,1a19.36,19.36,0,0,0-5.45-8.5c-4.21-4.14-8.45-8.21-13.76-11l.18-.45a37.84,37.84,0,0,1,4,.9A33.09,33.09,0,0,1,559.3-35c1.07.81,2.38,1.32,3.45,2.13a68.51,68.51,0,0,1,5.88,4.85C570.46-26.33,572.06-24.33,574.06-22.1Z" transform="translate(-428.94 81.51)"/><path class="cls-1" d="M674.06-67.77c8.7,6.32,14.54,14.52,16.23,25.65l-7.92,2.5c-.35-4.12-.75-7.9-1-11.69a23.9,23.9,0,0,0-2.76-9.83,18.3,18.3,0,0,1-.87-1.71,6.54,6.54,0,0,0-2.84-3.44,11,11,0,0,1-1.27-1Z" transform="translate(-428.94 81.51)"/><path class="cls-1" d="M595.5,4.16c4.45-4.67,8.87-9.37,13.36-14a38.34,38.34,0,0,0,7.79-11.07,2.24,2.24,0,0,1,1.82-1.6c2.65-.46,5.28-1,7.92-1.59l.25.44a12.53,12.53,0,0,1-.87,1.16c-2.1,2.29-4.17,4.62-6.35,6.84-2.45,2.5-5,5-7.54,7.34s-5.24,4.64-7.86,7c-2,1.74-3.8,3.65-6.22,4.83-.7.34-1.36.74-2,1.12Z" transform="translate(-428.94 81.51)"/><path class="cls-1" d="M615.11-26.27a6.29,6.29,0,0,1-.46-1.24c-.37-3.21-2.06-5.56-4.42-7.68-1.52-1.36-2.58-3.23-3.92-4.8A39.33,39.33,0,0,0,603-43.4c-1-.88-2.09-1.61-3.49-2.68,7.19,1.51,22.65,13.06,24.72,18.57A37.48,37.48,0,0,1,615.11-26.27Z" transform="translate(-428.94 81.51)"/><path class="cls-1" d="M681.06-35.75c3.1-1.84,6.53-2.29,10.37-2.62-.34.87-.52,1.44-.77,2-1.39,3-2.72,6-4.22,8.86a32.31,32.31,0,0,1-9.58,11.77,6.28,6.28,0,0,1-3,1.14,5.23,5.23,0,0,1,.48-.87A36.8,36.8,0,0,0,682.32-34c.14-1,.26-2.05-1.32-1.83Z" transform="translate(-428.94 81.51)"/><path class="cls-1" d="M681.13-73.09a48.88,48.88,0,0,1,4.06,2.74c3.48,2.84,6.62,6,8.4,10.24.55,1.32,1.4,2.52,1.93,3.85a43.15,43.15,0,0,1,2.2,6.3c.77,3.29-.69,5.3-4.28,6.26-1.7-10.75-4.62-21-12.89-28.86Z" transform="translate(-428.94 81.51)"/><path class="cls-1" d="M588.54-44.54a33,33,0,0,1,3.86,1.66,101.82,101.82,0,0,1,9.74,6,45.8,45.8,0,0,1,9.72,9.14,7.21,7.21,0,0,1,.61,1.46,13.56,13.56,0,0,1-1.67.33,10.42,10.42,0,0,0-2.39.12c-3,1-4.37-.66-5.92-2.81a91.9,91.9,0,0,0-6.76-8c-2.35-2.58-4.84-5-7.27-7.53Z" transform="translate(-428.94 81.51)"/><path class="cls-1" d="M666.73-63.93a6.75,6.75,0,0,1,4,2.5c2,2.55,4.17,5,6.32,7.47a9.56,9.56,0,0,1,2.56,5.55c.12,1.27.48,2.51.64,3.78a17,17,0,0,1,.23,3.33,3.26,3.26,0,0,1-4,3,2,2,0,0,1-1.06-1.36,17,17,0,0,1-.29-3.34,25,25,0,0,0-2.8-10.33c-1.24-2.67-2.61-5.29-4-7.91C667.85-62.19,667.26-63,666.73-63.93Z" transform="translate(-428.94 81.51)"/><path class="cls-1" d="M625.13-50.23a27.48,27.48,0,0,1,3.07-.43,23.11,23.11,0,0,1,15.45,4.8,104.09,104.09,0,0,1,8.41,8.14c1.06,1,2,2.21,3.13,3.46-1.94,1.44-4,1.33-6,1.7a32.4,32.4,0,0,0-1.39-3c-4-6.77-9.75-11.24-17.55-12.88-1.56-.33-3.09-.76-4.63-1.17C625.53-49.66,625.45-49.86,625.13-50.23Z" transform="translate(-428.94 81.51)"/><path class="cls-1" d="M646.31-32l-8.14,1.81c-1.91-4.14-5.56-6.33-8.83-8.8-4.05-3-8.39-5.71-12.88-8.73A36.68,36.68,0,0,1,626-45a69.44,69.44,0,0,1,14,8.64c1.4,1,2.95,1.89,4.44,2.81.65.4,1.33.75,2,1.12Z" transform="translate(-428.94 81.51)"/><path class="cls-1" d="M563.41-43.41a59.22,59.22,0,0,1,29.82,18.94,23.77,23.77,0,0,1-3.58.48,2.54,2.54,0,0,1-1.8-.83,28.88,28.88,0,0,0-10.36-8.33,42.69,42.69,0,0,1-10.61-7.33C565.77-41.51,564.57-42.43,563.41-43.41Z" transform="translate(-428.94 81.51)"/><path class="cls-1" d="M575.7-22.45c-1.43-4.37-5-6.8-8.26-9.43a109.08,109.08,0,0,1-8.67-7.34,14.63,14.63,0,0,1,2.74.89c4.16,2.19,8.61,3.83,12.43,6.68a11,11,0,0,0,3,1.43,13.43,13.43,0,0,1,4.93,3.3c1.08,1.05,2.22,2,3.52,3.21C582.19-22.54,579-22.84,575.7-22.45Z" transform="translate(-428.94 81.51)"/><path class="cls-1" d="M537.8,8.71c1.59-1.11,3.16-2.25,4.77-3.33A95,95,0,0,0,557.39-7,23.11,23.11,0,0,0,562-13.64a2.12,2.12,0,0,1,2.19-1.46c2.36,0,4.72,0,7.34,0a5.54,5.54,0,0,1-.85,1.27c-6.83,5.36-13.64,10.76-20.55,16a69.52,69.52,0,0,1-12.09,6.92Z" transform="translate(-428.94 81.51)"/><path class="cls-1" d="M546.14,10.29c3.25-2.85,6-6.24,9.84-8.32a39.75,39.75,0,0,0,5.15-3.89,67.94,67.94,0,0,0,13.23-13,3.91,3.91,0,0,1,2.26-1.1c1.39-.25,2.83-.25,4.73-.39-1.16,1-2,1.82-2.88,2.57-2.73,2.32-5.48,4.62-8.21,7L557.72,3.83A37.47,37.47,0,0,1,546.14,10.29Z" transform="translate(-428.94 81.51)"/><path class="cls-1" d="M635.94-29.57l-9.52,1.83c-1.19-8.52-7.83-12-14.1-16.14a33.59,33.59,0,0,1,11.42,4.54c3,1.76,6,3.66,8.94,5.53A6.55,6.55,0,0,1,635.94-29.57Z" transform="translate(-428.94 81.51)"/><path class="cls-1" d="M550.24-13.63c-4.5,5.71-9.8,10.09-15,14.65A70.7,70.7,0,0,1,518,12.39a6.12,6.12,0,0,1,.9-1.24c1.84-1.51,3.7-3,5.61-4.46A101.17,101.17,0,0,0,534.64-2a20.72,20.72,0,0,1,3-2.39,20.76,20.76,0,0,0,6.51-7.23,4,4,0,0,1,4.28-2.25C548.91-13.84,549.43-13.74,550.24-13.63Z" transform="translate(-428.94 81.51)"/><path class="cls-1" d="M663.88-35.19,657.05-34l-1-5a14.12,14.12,0,0,0-4.94-8.22,12.43,12.43,0,0,1-1.82-1.88c-1-1.22-1.86-2.51-2.86-3.87.71.3,1.42.57,2.09.91,1.14.57,2.22,1.26,3.39,1.77a13.67,13.67,0,0,1,5.86,5c1.62,2.34,3.63,4.42,4.9,7C663.08-37.43,663.38-36.47,663.88-35.19Z" transform="translate(-428.94 81.51)"/><path class="cls-1" d="M560.39-14.51c-.91.93-1.51,1.64-2.21,2.23-3.39,2.89-6.81,5.75-10.22,8.63a4.75,4.75,0,0,0-.7.64c-3.12,4-7.43,6.17-11.91,8.09a13.31,13.31,0,0,1,4-5.2c2.35-1.91,4.88-3.64,7-5.76s3.87-4.62,5.81-6.93c.44-.53.92-1.3,1.48-1.39A17.22,17.22,0,0,1,560.39-14.51Z" transform="translate(-428.94 81.51)"/><path class="cls-1" d="M578.81-42.53c9.5,3.12,17,9,23,17.07-1.93.81-4,.47-5.76.61-2.76-3.37-5.18-6.76-8-9.71S581.89-39.89,578.81-42.53Z" transform="translate(-428.94 81.51)"/><path class="cls-1" d="M571.92,7.74A6.92,6.92,0,0,1,573,6.85c4.1-2.3,7.25-5.71,10.56-8.93,1.38-1.33,2.68-2.73,4.09-4a46.32,46.32,0,0,0,9.44-11.66,3,3,0,0,1,2.81-1.73c1.43-.06,2.85,0,4.47,0a7.72,7.72,0,0,1-.65.86Q595.79-10.82,587.85-3a19.33,19.33,0,0,1-2.25,1.78q-4.94,3.6-9.89,7.14c-1.15.82-2.34,1.55-3.52,2.33Z" transform="translate(-428.94 81.51)"/><path class="cls-1" d="M590.06,0l4.05-4.32,2.94-3.15a32.48,32.48,0,0,1,2.8-2.94,25.43,25.43,0,0,0,6.89-9.48c2.39-.48,4.67-1.8,7.63-1.43-.52.6-.84,1-1.2,1.39L602.94-9.19A12,12,0,0,1,601.74-8q-5.13,3.93-10.3,7.83a11.3,11.3,0,0,1-1,.59Z" transform="translate(-428.94 81.51)"/><path class="cls-1" d="M699.39-40.59c-1.68,7.8-3.67,15.15-8.41,21.37a13.71,13.71,0,0,1-4.16,3.39c1.19-2.14,2.36-4.29,3.57-6.41,2.57-4.48,3.43-9.39,3.68-14.46.12-2.63.13-2.63,2.76-3.29Z" transform="translate(-428.94 81.51)"/><path class="cls-1" d="M681-35.8c-2.78,4.35-5.48,8.76-8.39,13a69.32,69.32,0,0,1-5.28,6.47,5.92,5.92,0,0,1-4.09,2.37c1-1.38,2-2.74,3-4.13,2-2.87,4.14-5.66,5.9-8.66a16.44,16.44,0,0,0,1.6-5.22A3.5,3.5,0,0,1,676.85-35c1.4-.26,2.8-.49,4.21-.73Z" transform="translate(-428.94 81.51)"/><path class="cls-1" d="M647.92-2c.68-.93,1.31-1.9,2-2.79,5.17-6.39,10.5-12.66,15.48-19.2,1.75-2.3,2.71-5.21,4-7.88.45-1,.92-1.65,2.26-1.36A7.39,7.39,0,0,1,670.38-29c-2.28,3.67-4.49,7.38-7,10.86-2.67,3.68-5.56,7.22-8.58,10.61a78.6,78.6,0,0,1-6.45,5.9Z" transform="translate(-428.94 81.51)"/><path class="cls-1" d="M522.07,2.57c2.09-1.94,4.16-3.9,6.28-5.81,2.82-2.57,6-4.85,8.43-7.74,1.67-2,3.28-2,5.39-1.73C540.34-8.86,529.91-1.34,522,2.52Z" transform="translate(-428.94 81.51)"/><path class="cls-1" d="M707.36-45.76c-6.74,4-14.16,5.83-22,6.61a5.44,5.44,0,0,1,1.11-.7q9.57-3.32,19.15-6.56a4.45,4.45,0,0,1,1.61.09Z" transform="translate(-428.94 81.51)"/><path class="cls-1" d="M615.42-40.13c2.74,2.1,5.7,4,7.74,6.84l-.36.4-7.74-6.83Z" transform="translate(-428.94 81.51)"/><path class="cls-1" d="M522,2.52l-2,1.82-.33-.42a3.63,3.63,0,0,1,2.35-1.35Z" transform="translate(-428.94 81.51)"/><path class="cls-1" d="M572.93-7.07l1.57-1.8c0,1.17-.72,1.57-1.63,1.74Z" transform="translate(-428.94 81.51)"/><path class="cls-1" d="M572.87-7.13l-1.54,1.77-.41-.47,2-1.24Z" transform="translate(-428.94 81.51)"/><path class="cls-1" d="M623-17.33l1.15-1.33.27.2-1,1.43Z" transform="translate(-428.94 81.51)"/></g></g></svg>