<svg xmlns="http://www.w3.org/2000/svg" viewBox="0 0 63.41 234.88"><defs><style>.cls-1{fill:#fff;}</style></defs><title>Slang</title><g id="Laag_2" data-name="Laag 2"><g id="Laag_1-2" data-name="Laag 1"><path d="M33.74,45.93a2.28,2.28,0,0,1,.31-2.59,45.23,45.23,0,0,0,5.54-7.09,4.22,4.22,0,0,1,1.47-1.44C44.22,33,46,30,48.18,27.31c1.75-2.18,1.37-4.24.14-6.4a6.22,6.22,0,0,0-1.15-1.73c-3.85-3.15-3.76-7.74-4.4-12a4.52,4.52,0,0,1,1.32-3.83A33.16,33.16,0,0,1,46.59.93,3.48,3.48,0,0,1,51.06.7a8.12,8.12,0,0,1,3.32,3.48c2.48,6,5.39,11.75,6.81,18.14a12.85,12.85,0,0,1-1,9.4c-.89,1.62-1.71,3.29-2.46,5a13,13,0,0,1-2.81,3.91c-2.45,2.46-4.79,5-7.19,7.55a11.66,11.66,0,0,0-2.78,3.92,7.29,7.29,0,0,1-2.07,2.72c-2,1.74-3.14,4-4.45,6.18a14.41,14.41,0,0,0-2,8.67,4.49,4.49,0,0,0,1.83,3.53c2.4,1.82,4.63,3.85,7,5.64,2,1.51,4.06,3,6.68,3.56s4.45,2.32,5.89,4.54A19.65,19.65,0,0,1,61,94.53c.77,4.56,1.85,9.06,2.28,13.69a30.17,30.17,0,0,1-3.92,18.63c-3,5.12-7.12,9.07-11,13.3a4.61,4.61,0,0,1-1.75,1.12c-3.88,1.42-6.34,4.55-9,7.45a9.32,9.32,0,0,0-2.3,7.08A14.29,14.29,0,0,0,41,166.45a5.2,5.2,0,0,0,1.16.77c3.06,1.33,4.41,4,5.29,6.93A34.19,34.19,0,0,1,49,181.6c.36,5.08.54,10.18-.9,15.18a20.09,20.09,0,0,0-1,5.44c0,5.57-2.59,9.69-6.83,13-1.29,1-2.5,2.08-3.84,3a11.31,11.31,0,0,1-3.07,1.53,27.67,27.67,0,0,0-9.23,4.68C22,226,19.58,226.94,17,226s-4.39.46-6.14,2c-1.14,1-1.23,1.47-.54,3a18.21,18.21,0,0,1,1,2.52,1.39,1.39,0,0,1-.54,1.12,2.25,2.25,0,0,1-1.28.14c-.18,0-.4-.25-.51-.44-1.56-2.66-3.57-4.17-6.8-2.75a1.76,1.76,0,0,1-1.31-.1,1.77,1.77,0,0,1-.86-1,1.38,1.38,0,0,1,.35-1.19,5,5,0,0,1,2.42-1.21,12,12,0,0,0,8.6-3.87,3,3,0,0,0,1.13-2.37c-.11-2.32,1.07-3.94,2.78-5.31a12.2,12.2,0,0,0,2.6-2.28c2.81-4.14,6.77-6.92,10.91-9.5a7,7,0,0,0,2.31-2.48,22,22,0,0,0,3.39-11.87c0-2.05.67-4.15-.24-6.18-1.41-3.11-1.62-6.69-4.08-9.4-2.65-2.91-4.09-6.7-6.76-9.65-1.9-2.1-2.55-4.9-3.11-7.64a5.94,5.94,0,0,1,0-2.06c.25-1.59.57-3.17.9-4.74a8.41,8.41,0,0,1,.64-2c1.06-2.06,2.16-4.1,3.28-6.12a7.48,7.48,0,0,1,1.21-1.68c3.45-3.42,6.73-7,11.05-9.41a40.59,40.59,0,0,0,12.85-11.47c1.57-2.1,2.69-4.32,2.43-7a15.86,15.86,0,0,1-.05-2.07c.1-2.52.8-5-.16-7.54-2.76-3.1-5.16-6.54-9.1-8.39C40.86,94,38.43,92.62,36,91.28a10.46,10.46,0,0,1-2.19-1.68A13.37,13.37,0,0,0,28,85.91a6.73,6.73,0,0,1-2.66-2.11c-3.5-3.76-3.87-8.31-2.8-13a146.83,146.83,0,0,1,5.57-17.88,22.72,22.72,0,0,1,2.52-4.1,30.1,30.1,0,0,1,2-2.85c.2-.23.8-.13,1.21-.18a10.11,10.11,0,0,1-.76,2.61,41.9,41.9,0,0,0-2.43,4.94C28,59.52,26.55,66.1,24.47,72.47c-1.4,4.3.87,8.94,4.93,11.15,1.42.77,3.11,1.29,4.2,2.39,2.5,2.55,5.61,4,8.65,5.71,1.82,1,3.88,1.69,5.47,3a46.07,46.07,0,0,1,4.64,5.1,8.32,8.32,0,0,0,1,.94A4.62,4.62,0,0,1,55,104.42c.06,2.78-.09,5.57.14,8.33a11.22,11.22,0,0,1-2.7,8.35c-1.47,1.79-2.92,3.61-4.52,5.27a36.58,36.58,0,0,1-9.19,7.3,31.9,31.9,0,0,0-8.81,6.7,27.23,27.23,0,0,0-7.17,14.73,10.82,10.82,0,0,0,.4,4.1c.83,3.24,3.11,5.65,5.14,8.16.34.42,1.2.49,1.84.54.43,0,.87-.29,1.32-.38,1.52-.29,3,.49,3.24,1.78a51.53,51.53,0,0,1,.81,6.86c0,1.39-.22,2.68.6,4a6.44,6.44,0,0,1,.69,2.68,40.15,40.15,0,0,1-2.1,17.76,10.52,10.52,0,0,1-3.53,5.06c-1.67,1.25-3.19,2.7-4.9,3.87-3.87,2.63-6.73,6.34-10.19,9.41a2.44,2.44,0,0,0-.55,2.59,3.09,3.09,0,0,0,2.53,2.1,5,5,0,0,0,3.33-.64c2.63-1.48,5.16-3.28,8-4.23,4.32-1.45,7.75-4.12,11.16-6.89,2.85-2.32,4.49-5.27,4-9.08a6.89,6.89,0,0,1,.43-3.39c1.86-4.87,1.91-10,1.66-15.06a33.4,33.4,0,0,0-1.75-10.23c-.77-2.05-1.72-3.73-3.82-4.67a13.67,13.67,0,0,1-5.63-5,18.73,18.73,0,0,1-2.91-9.13c-.21-2.53,1.21-4.92,2.55-7.09,2-3.21,4.89-5.53,7.77-7.86,4.53-1.29,6.47-5.79,10.11-8.19,3.13-5.34,7.49-10.11,7.67-16.81,0-.44.38-.86.43-1.31a14.39,14.39,0,0,0,.21-3.45C60.29,104,59.33,97.33,57,91c-1.1-3-2.92-5.34-6-6.22a21,21,0,0,1-7.85-4.32c-2.48-2.07-4.56-4.61-7.45-6.22a3.22,3.22,0,0,1-1.14-1.69,10.08,10.08,0,0,1-.33-6.82c1-2.82,2.39-5.52,3.6-8.26,4.6-5.8,8.4-12.2,13.89-17.3a26.9,26.9,0,0,0,6.52-9.75,8.31,8.31,0,0,0,.79-4,24.55,24.55,0,0,0-.92-5.45c-1.7-4.8-3.58-9.53-5.56-14.22a15.18,15.18,0,0,0-2.47-3.31,2,2,0,0,0-2.53,0,5,5,0,0,0-2.24,4.12c.13,3.47.32,6.88,3.17,9.58,1.3,1.23,2.07,3,3,4.61a2.91,2.91,0,0,1,.2,2.67c-1.41,3.45-3,6.76-6,9.21a36.24,36.24,0,0,0-6.15,6.58A23.66,23.66,0,0,1,33.74,45.93Z"/><path class="cls-1" d="M33.74,45.93a23.66,23.66,0,0,0,5.84-5.8,36.24,36.24,0,0,1,6.15-6.58c3-2.45,4.57-5.76,6-9.21a2.91,2.91,0,0,0-.2-2.67c-1-1.58-1.75-3.38-3-4.61-2.85-2.7-3-6.11-3.17-9.58a5,5,0,0,1,2.24-4.12,2,2,0,0,1,2.53,0,15.18,15.18,0,0,1,2.47,3.31c2,4.69,3.86,9.42,5.56,14.22A24.55,24.55,0,0,1,59,26.36a8.31,8.31,0,0,1-.79,4,26.9,26.9,0,0,1-6.52,9.75c-5.49,5.1-9.29,11.5-13.89,17.3-1.21,2.74-2.59,5.44-3.6,8.26a10.08,10.08,0,0,0,.33,6.82,3.22,3.22,0,0,0,1.14,1.69c2.89,1.61,5,4.15,7.45,6.22A21,21,0,0,0,51,84.76c3.1.88,4.92,3.2,6,6.22,2.33,6.35,3.29,13,4.27,19.61a14.39,14.39,0,0,1-.21,3.45c-.05.45-.41.87-.43,1.31-.18,6.7-4.54,11.47-7.67,16.81-3.64,2.4-5.58,6.9-10.11,8.19-2.88,2.33-5.8,4.65-7.77,7.86-1.34,2.17-2.76,4.56-2.55,7.09a18.73,18.73,0,0,0,2.91,9.13,13.67,13.67,0,0,0,5.63,5c2.1.94,3,2.62,3.82,4.67a33.4,33.4,0,0,1,1.75,10.23c.25,5.09.2,10.19-1.66,15.06a6.89,6.89,0,0,0-.43,3.39c.48,3.81-1.16,6.76-4,9.08-3.41,2.77-6.84,5.44-11.16,6.89-2.8.95-5.33,2.75-8,4.23a5,5,0,0,1-3.33.64,3.09,3.09,0,0,1-2.53-2.1,2.44,2.44,0,0,1,.55-2.59c3.46-3.07,6.32-6.78,10.19-9.41,1.71-1.17,3.23-2.62,4.9-3.87a10.52,10.52,0,0,0,3.53-5.06,40.15,40.15,0,0,0,2.1-17.76,6.44,6.44,0,0,0-.69-2.68c-.82-1.3-.57-2.59-.6-4a51.53,51.53,0,0,0-.81-6.86c-.2-1.29-1.72-2.07-3.24-1.78-.45.09-.89.42-1.32.38-.64-.05-1.5-.12-1.84-.54-2-2.51-4.31-4.92-5.14-8.16a10.82,10.82,0,0,1-.4-4.1A27.23,27.23,0,0,1,30,140.37a31.9,31.9,0,0,1,8.81-6.7,36.58,36.58,0,0,0,9.19-7.3c1.6-1.66,3-3.48,4.52-5.27a11.22,11.22,0,0,0,2.7-8.35C55,110,55.1,107.2,55,104.42a4.62,4.62,0,0,0-1.65-3.68,8.32,8.32,0,0,1-1-.94,46.07,46.07,0,0,0-4.64-5.1c-1.59-1.29-3.65-2-5.47-3-3-1.67-6.15-3.16-8.65-5.71-1.09-1.1-2.78-1.62-4.2-2.39-4.06-2.21-6.33-6.85-4.93-11.15C26.55,66.1,28,59.52,30.66,53.34a41.9,41.9,0,0,1,2.43-4.94,10.11,10.11,0,0,0,.76-2.61ZM24.65,216.79l.47-.38-.39-.45-.49.58Z"/><path d="M24.65,216.79l-.41-.25.49-.58.39.45Z"/></g></g></svg>