<svg xmlns="http://www.w3.org/2000/svg" viewBox="0 0 102.49 87.02"><defs><style>.cls-1{fill:#fff;}</style></defs><title>Ster</title><g id="Laag_2" data-name="Laag 2"><g id="Laag_1-2" data-name="Laag 1"><path d="M91.48,57.57a23.72,23.72,0,0,0-9,.4,25.77,25.77,0,0,1-4.13.52c-5.12.49-5.34-.73-4.35,5.8.7,4.66.21,9.23.06,13.83a20.82,20.82,0,0,1-1.68,6.71c-1.07,2.78-2.63,2.56-4.18,1.27C63.26,82,58.51,77.58,53.93,73a9.08,9.08,0,0,0-2.13-1.75,2.77,2.77,0,0,0-1.93-.09,4.59,4.59,0,0,0-1.71,1.14c-3.67,3.53-7.28,7.1-10.95,10.62a47.8,47.8,0,0,1-3.69,3.14,2.22,2.22,0,0,1-3-.91c-1.27-3.2-2.75-6.27-3.3-9.79s-2-6.62-3.15-9.88a4.1,4.1,0,0,0-2.92-2.71c-2.89-.84-5.73-1.68-8.83-1.35-2.75.3-5.54.29-8.31.42A5.3,5.3,0,0,1,.79,61a1.85,1.85,0,0,1-.52-2.42Q3.65,55,7.06,51.59a31.58,31.58,0,0,1,2.57-2.33,33.45,33.45,0,0,0,5.88-6.8A2.46,2.46,0,0,0,16,40.57c-.75-2.17-1.1-4.48-2.52-6.42-2.62-3.57-4-7.77-5.79-11.78C6.66,20.11,6.44,17.51,6,15c0-.24.49-.63.8-.89A.85.85,0,0,1,7.41,14c3.18.91,6.34.63,9.58.2a24.53,24.53,0,0,1,10.33.38,18.5,18.5,0,0,0,3.44.43,5,5,0,0,0,3.88-1.12Q42.08,7.67,49.57,1.48C50.11,1,50.68.65,51.25.26a2.73,2.73,0,0,1,2.64.18,13.85,13.85,0,0,1,2.35,2.5,50.36,50.36,0,0,0,8,9.55,1.93,1.93,0,0,0,3,.11c4.25-3.41,9.32-5,14.36-6.72.27-.08.92.36,1.08.7a5.19,5.19,0,0,1,.48,2c.1,2.54.11,5.08.17,7.63A1.94,1.94,0,0,0,85,18a19.45,19.45,0,0,0,3.41.63c4.61.08,8.43,2.22,12.21,4.5a7.38,7.38,0,0,1,1.45,1.45A1.72,1.72,0,0,1,101.9,27c-3,1.75-5.85,3.67-8.93,5.17a22.47,22.47,0,0,0-6,4.59c-.94.94-1,1.86-.12,3.07,1.91,2.61,3.79,5.25,5.8,7.79a28.48,28.48,0,0,1,4.72,8.41,1.38,1.38,0,0,1-1,1.51Zm-87.71.51-.71,1a8.31,8.31,0,0,0,1.15.41c.17,0,.39-.17.59-.26,4.17.12,8.33.25,12.5.36A17.32,17.32,0,0,1,24.07,61a3.3,3.3,0,0,1,1.85,2Q28,69.57,30.07,76.2c.34,1.1.56,2.25.87,3.36.19.67.46,1.31.69,2,.49,1.41,1.6,1.82,2.53.85,3-3.17,6.35-6.06,9.46-9.15,2-2,3.93-3.93,5.91-5.89a1.88,1.88,0,0,1,2.51,0,17.19,17.19,0,0,1,1.54,1.4c3.77,4.44,8.24,8.15,12.53,12,.69.62,1.42,1.19,2.15,1.77A1.7,1.7,0,0,0,70.61,82a13.17,13.17,0,0,0,1.46-5.32c.12-6.24.51-12.51-1.62-18.56a6.86,6.86,0,0,1-.12-.68A1.41,1.41,0,0,1,72,55.81c6.77.73,13.38-.88,20.06-1.31a1.42,1.42,0,0,0,.88-1.58,26.43,26.43,0,0,0-2-3.62C88,45.38,85,41.55,82.1,37.67a1.59,1.59,0,0,1,.62-2.33c2.38-.92,4.74-1.83,6.58-3.71,2-2.05,5.09-2.23,7.21-4.1.52-.45,1-.94,1.54-1.38s.55-.84.1-1.22a15.83,15.83,0,0,0-8.72-3.81c-2.3-.26-4.61-.39-6.91-.65a2.24,2.24,0,0,1-2.16-2.25c-.06-2.54-.06-5.08-.17-7.61,0-.29-.58-.58-.94-.81a.91.91,0,0,0-.67-.07c-3.34.92-6.71,1.75-9.21,4.46a19.7,19.7,0,0,1-2.69,2.18,2.46,2.46,0,0,1-2.6-.16c-3-3.24-6.24-6.2-8.64-9.94a14,14,0,0,0-3-2.87,1.31,1.31,0,0,0-1.26-.06c-2,1.56-3.92,3.24-5.94,4.78a56.55,56.55,0,0,0-8.38,7.29,5.17,5.17,0,0,1-4.35,1.71A36.16,36.16,0,0,1,28.37,17c-6.25-1-12.49-.11-18.73.15a1.4,1.4,0,0,0-1,1.5c1.4,3.91,2.66,7.92,5.08,11.34,2.74,3.86,3.94,8.31,5.27,12.72a1.4,1.4,0,0,1-.81,1.7,12.54,12.54,0,0,0-2.38,1.35c-3.53,3.33-7,6.72-10.46,10.13A15.6,15.6,0,0,0,3.77,58.08Z"/><path class="cls-1" d="M3.77,58.08a15.6,15.6,0,0,1,1.59-2.24c3.45-3.41,6.93-6.8,10.46-10.13a12.54,12.54,0,0,1,2.38-1.35,1.4,1.4,0,0,0,.81-1.7c-1.33-4.41-2.53-8.86-5.27-12.72-2.42-3.42-3.68-7.43-5.08-11.34a1.4,1.4,0,0,1,1-1.5C15.88,16.84,22.12,16,28.37,17a36.16,36.16,0,0,0,4.17.17,5.17,5.17,0,0,0,4.35-1.71,56.55,56.55,0,0,1,8.38-7.29c2-1.54,3.93-3.22,5.94-4.78a1.31,1.31,0,0,1,1.26.06,14,14,0,0,1,3,2.87c2.4,3.74,5.68,6.7,8.64,9.94a2.46,2.46,0,0,0,2.6.16,19.7,19.7,0,0,0,2.69-2.18c2.5-2.71,5.87-3.54,9.21-4.46a.91.91,0,0,1,.67.07c.36.23.93.52.94.81.11,2.53.11,5.07.17,7.61a2.24,2.24,0,0,0,2.16,2.25c2.3.26,4.61.39,6.91.65a15.83,15.83,0,0,1,8.72,3.81c.45.38.35.83-.1,1.22s-1,.93-1.54,1.38c-2.12,1.87-5.2,2-7.21,4.1-1.84,1.88-4.2,2.79-6.58,3.71a1.59,1.59,0,0,0-.62,2.33C85,41.55,88,45.38,90.91,49.3a26.43,26.43,0,0,1,2,3.62A1.42,1.42,0,0,1,92,54.5c-6.68.43-13.29,2-20.06,1.31a1.41,1.41,0,0,0-1.63,1.65,6.86,6.86,0,0,0,.12.68c2.13,6,1.74,12.32,1.62,18.56A13.17,13.17,0,0,1,70.61,82a1.7,1.7,0,0,1-2.35.57c-.73-.58-1.46-1.15-2.15-1.77-4.29-3.89-8.76-7.6-12.53-12A17.19,17.19,0,0,0,52,67.38a1.88,1.88,0,0,0-2.51,0c-2,2-3.94,3.93-5.91,5.89-3.11,3.09-6.42,6-9.46,9.15-.93,1-2,.56-2.53-.85-.23-.66-.5-1.3-.69-2-.31-1.11-.53-2.26-.87-3.36Q28,69.57,25.92,63a3.3,3.3,0,0,0-1.85-2,17.32,17.32,0,0,0-6.77-1.41c-4.17-.11-8.33-.24-12.5-.36C4.45,58.85,4.11,58.46,3.77,58.08ZM42.61,50.6c1.94-.12,3.1-.26,4.25-.23,4.2.11,7.63-1.7,10.74-4.25a36.8,36.8,0,0,0,3.45-3.39,2,2,0,0,0,.48-1.26A2.11,2.11,0,0,0,61,40.4c-.09-.1-.42-.07-.63,0-1.5.35-2.07,1.75-3,2.73A16.12,16.12,0,0,1,45,48.5c-2.07,0-4.15.13-6.22.2-.69,0-.88.32-.54.89.1.18.2.47.33.49C40.17,50.31,41.77,50.49,42.61,50.6Zm1-18.38c.15,0,.36,0,.42-.15s.19-.46.11-.59c-.31-.51-.62-.44-.74.17C43.35,31.82,43.52,32,43.59,32.22Zm-8,3.55c.07-.13.23-.29.2-.37S35.5,35,35.37,35s-.29.22-.43.34Z"/><path class="cls-1" d="M4.8,59.23c-.2.09-.42.29-.59.26a8.31,8.31,0,0,1-1.15-.41l.71-1C4.11,58.46,4.45,58.85,4.8,59.23Z"/><path d="M42.61,50.6c-.84-.11-2.44-.29-4-.52-.13,0-.23-.31-.33-.49-.34-.57-.15-.87.54-.89,2.07-.07,4.15-.21,6.22-.2a16.12,16.12,0,0,0,12.31-5.39c.93-1,1.5-2.38,3-2.73.21-.05.54-.08.63,0a2.11,2.11,0,0,1,.58,1.07,2,2,0,0,1-.48,1.26,36.8,36.8,0,0,1-3.45,3.39c-3.11,2.55-6.54,4.36-10.74,4.25C45.71,50.34,44.55,50.48,42.61,50.6Z"/><path d="M43.59,32.22c-.07-.19-.24-.4-.21-.57.12-.61.43-.68.74-.17.08.13,0,.42-.11.59S43.74,32.18,43.59,32.22Z"/><path d="M35.55,35.77l-.61-.4c.14-.12.29-.34.43-.34s.31.21.38.37S35.62,35.64,35.55,35.77Z"/></g></g></svg>