<svg xmlns="http://www.w3.org/2000/svg" viewBox="0 0 128.47 134.01"><defs><style>.cls-1{fill:#fff;}</style></defs><title>tas</title><g id="Laag_2" data-name="Laag 2"><g id="Laag_1-2" data-name="Laag 1"><path d="M345,151.36c-2.25-3.83-4.39-7.38-6.44-11-1-1.8-1.9-3.68-2.77-5.57a7.28,7.28,0,0,0-2.47-2.84,25,25,0,0,1-7.84-8.61c-1.64-3.19-3.41-6.31-5.13-9.46a12.45,12.45,0,0,0-.72-1c-.65,3.72-1.25,7-.52,10.47.51,2.37,1.51,3.27,3.84,3.43s2.36.2,1.76,2.7l-2.82.19.51,1.74c2.14.22,3.93.8,4.94,2.9-1.81.21-1.81.21-4.51-1.56a19.38,19.38,0,0,0,1.69,3c1.46,1.76,2.72,3.55,2.75,6,0,.28.27.56.41.82,4.92-1.92,4.92-1.92,8-1.74.86,2.21-.28,3.77-1.72,5.24-3.42,3.46-6.78,7-10.25,10.39-2.14,2.1-2.73,4.81-3.37,7.53-.15.62-.08,1.28-.23,1.9a3.17,3.17,0,0,0,1.12,3.23,15.16,15.16,0,0,0,6.8,3.85q5.92,1.48,11.87,2.89a7.42,7.42,0,0,0,4.59-.22c-.25-.47-.44-.89-.68-1.27q-6-9.53-12-19.06a26.72,26.72,0,0,1-1.32-2.55,2,2,0,0,1,.63-2.57c.9-.81,1.63-.09,2.29.47a5.08,5.08,0,0,1,1.13,1.23c1.69,2.8,3.3,5.65,5,8.42,1.47,2.38,3.11,4.65,4.62,7,1.25,1.94,2.42,3.93,3.63,5.9.37.6.77,1.19,1.19,1.85,1.87-.27,3.67-.55,5.48-.78,3.83-.49,4.91.32,5.45,4.08.05.39.1.77.17,1.29-2.43-.38-4,1.25-5.88,2,0,.29-.12.48-.05.59,2.3,4.07,4.23,8.28,7.69,11.72,3.16,3.13,5.9,6.69,9.49,9.4a7.66,7.66,0,0,1,1.24,1.46c2,2.47,2,2.6,1.74,6a1.18,1.18,0,0,1-1.75-.48,14.14,14.14,0,0,0-1.62-1.76l-12.66-12.76a22.39,22.39,0,0,1-4.83-7.37c-.73-1.76-1.76-3.39-2.65-5.08a2.24,2.24,0,0,0-.76,0c-4.18,1.44-8.42,1.31-12.78,1-6.89-.53-12.71-3.49-18.31-7.11-4.15-2.68-6.7-6.43-6.67-11.51a13.26,13.26,0,0,1,1-5.1,52.36,52.36,0,0,1,9-14.08c.74-.82,1.6-1.54,2.56-2.46-.76-1.39-1.57-2.75-2.27-4.17q-3.69-7.51-7.32-15.06c-.07-.14-.07-.34-.17-.44-2-1.92-1.26-4-.55-6.18a29.5,29.5,0,0,0,.72-3.51,23.44,23.44,0,0,1,.65-3c.72-2,2.27-2.37,4-.91.14-.07.38-.1.41-.2.67-2.17,2.39-3.19,4.26-4.14,5.7-2.88,11.44-5.7,17-8.79,4.57-2.53,9.48-4.21,14.21-6.32s8.94-4.64,13.34-7.08c3.36-1.86,6.62-3.89,9.95-5.78,2.67-1.52,6-1.08,7.68,1.47,1.78,2.71,3.67,5.62,4.37,8.71,1.37,6,5,10.42,8.67,15a85.27,85.27,0,0,1,9,13.26,7,7,0,0,1,.74,1.5c1.16,4.37,3.61,8.16,5.32,12.28a12,12,0,0,0,1.36,2.24c1.74,2.48,3.51,5,5.28,7.4.51.71,1.08,1.38,1.62,2.07,1,1.25,1.95,2.53,3,3.75,1.85,2.2,3.8,4.31,5.59,6.55,2.39,3,4.65,6.09,7,9.1a10.56,10.56,0,0,0,1.9,1.45,23,23,0,0,1,.16,2.44,4,4,0,0,1-.52,1.44c-.13.27-.55.53-.51.73.52,2.6-.93,4.66-1.94,6.77-1.72,3.61-3.67,7.1-5.56,10.62a3.61,3.61,0,0,1-1,.9c-.24.19-.71.33-.71.52-.11,2-1.86,2.13-3.14,2.82-1.75.94-3.48,1.94-5.24,2.87-3.82,2-7.63,4-11.48,5.95A87.77,87.77,0,0,1,396.11,204a26.47,26.47,0,0,0-3.29,1.44c-2.83,1.27-5.66,2.57-8.51,3.8-.65.28-1.41.28-2.09.5a6,6,0,0,0-1.89.8c-.87.67-1.73,1.23-2.83.74a4.11,4.11,0,0,1-1.48-3.34c.34-1.3.8-2.58,1.23-3.86.1-.3.28-.57.4-.87,1.11-2.75.93-5.21-1.31-7.44-3.49-3.47-6-7.69-8.31-12-.69-1.26-1.46-2.48-2.15-3.74a15.13,15.13,0,0,1-1.62-4.17c-.34-1.53-1.55-2.92-2.53-4.26-1.74-2.38-3.59-4.68-5.4-7l-.86-1.09-.54.14c-.37,1.67-.74,3.34-1.14,5.12l-2.47,1.3a5.47,5.47,0,0,1-1.53-1c-2-2.6-3.84-5.28-5.8-7.89C341.38,157.71,342.8,154.29,345,151.36Zm-21.59-39.79a17.11,17.11,0,0,0,2.07,3.5,16.57,16.57,0,0,1,3.65,5.85,16.35,16.35,0,0,0,4,5.64c.32.32.8.75,1.16.71,2.76-.3,3.32,1.64,3.89,3.63a21.88,21.88,0,0,0,1.1,3.41c1.23,2.59,2.54,5.16,3.92,7.67.77,1.4,1.75,2.68,2.64,4a1.74,1.74,0,0,0,2.67.56c2.93-1.76,5.89-3.47,8.8-5.26,1.68-1,3.19-.77,3.83,1.06.95,2.73,2.91,4.77,4.49,7,1.41,2,1.37,4.47-.5,6.1a32,32,0,0,1-2.9,2.1c-1.61,1.12-3.24,2.22-5.07,3.46,2.93,4.11,5.54,8.13,8.53,11.84a43.59,43.59,0,0,1,5.84,9.57c1.85,4.11,4.92,7.37,7.28,11.24l1.77-1.15c2.2-1.45,4.32-3,6.6-4.31,4.37-2.5,8.82-4.86,13.25-7.24,2.39-1.29,4.81-2.5,7.22-3.76a27.78,27.78,0,0,0,2.73-1.5q9-6.06,18.06-12.17c.63-.43,1.29-.83,2-1.26l1.37,2.45c1.84-.53,3.73-.71,5.4-2.13-.45-.66-.83-1.25-1.26-1.8-1.26-1.64-2.54-3.27-3.82-4.9a42.31,42.31,0,0,0-2.68-3.38,36.22,36.22,0,0,1-5.65-6.81,11.55,11.55,0,0,0-1.82-1.89c-.76-.81-1.56-1.6-2.26-2.47-2-2.51-3.93-5-5.84-7.58-.72-1-1.27-2-1.92-3s-1.33-2-2-3a25.91,25.91,0,0,1-2.57-4.29c-2.41-6.4-6.4-11.79-10.71-16.93a84,84,0,0,1-8.33-11.71,13.41,13.41,0,0,1-1.12-3.36c-.65-2.46-1.13-5-1.91-7.39A4.32,4.32,0,0,0,382.19,81c-.48,2.83-3.72,2.51-4.94,4.5.07.14.1.34.21.41a8.53,8.53,0,0,1,4,7.5,4,4,0,0,0,.79,2.2c1,1.33,2.17,2.53,3.28,3.78.51.57,1,1.12,1.71,1.84-1.5.35-2.71,1.23-3.84,0a38.6,38.6,0,0,1-3.75-4.35c-1.57-2.32-2.89-4.79-2.45-7.81.17-1.18-.55-2.07-1.45-3l-3.09,2.15A5.09,5.09,0,0,1,375.09,94a3.38,3.38,0,0,0,1.5,3.89,12.67,12.67,0,0,0,2.14,1.53c2.79,1.33,3.81,4,4.9,6.54a3.48,3.48,0,0,1,0,1.17,4,4,0,0,1-2.92-2.18c-1.7-3.76-5.51-5.36-8.33-8.54l-.59,3a10.07,10.07,0,0,0,1.5.61,6.84,6.84,0,0,1,4.19,3c1.9,2.64,3.72,5.32,5.63,8.08a5.35,5.35,0,0,1-4.27-2.74,16.17,16.17,0,0,0-7-6.58A5.21,5.21,0,0,1,368.41,96c.12-1.47.16-2.94.25-4.72l2.67,1.26c.8-1.26,1.21-2.43.11-3.52-4.05,2.33-7.94,4.68-11.94,6.83a71.46,71.46,0,0,1-7.44,3.28c-2.67,1.06-5.47,1.81-8.11,3-5.57,2.4-11.07,5-16.59,7.47C326.13,110.12,325,110.79,323.45,111.57ZM318.91,158l-.41-.15c-.6,1.11-1.1,2.29-1.8,3.34a8.81,8.81,0,0,0,2.76,12.35c2.86,1.74,5.78,3.38,8.72,5A10.15,10.15,0,0,0,331.7,180c3.94.48,7.84,1.36,11.9.8a13.83,13.83,0,0,0,5.87-2.27,23.39,23.39,0,0,1-11.15.4c-1.65-.28-3.28-.64-4.92-1-2.35-.47-4.71-.85-7-1.44a13,13,0,0,1-8.1-6.32c-1.76-3-.87-6.35-.4-9.55A11.56,11.56,0,0,1,318.91,158Zm40.43-12.42-9.22,5c.57,1,1,1.72,1.43,2.44l6.68-1.13.68,2.48c1.58-.87,3.28-1.21,4.26-3.06ZM426.41,172l-.46-.48c-1.39,1-2.82,2-4.14,3.13a2,2,0,0,0-.49,1.48,17.64,17.64,0,0,1-1.93,8.32c-.64,1.42-1.25,2.76-.05,4-.93,1.71-2.3.24-3.31.71-.35,1.42-.07,1.89,1,1.44,1.59-.7,3.07-1.62,4.67-2.48-.74-4.3.72-7.86,2.73-11.33A39.39,39.39,0,0,0,426.41,172Zm6.12,4.08c1.65-2.79,3.32-5.14,4.27-7.84a13.77,13.77,0,0,1-3.72-.26,2.38,2.38,0,0,0-2.43.28c-.85.56-1.68,1.17-2.56,1.8,1.4,4.45-1.62,7.79-2.55,11.65a28.94,28.94,0,0,0,5.18-9.81c.25-1,.25-2.1,1.78-2.19C433.31,171.7,432.06,173.64,432.53,176Zm-50.16,29.75c4.85-1.3,8.58-3.66,12.58-5.38-.6-1.76-2-1.72-3.18-2.1-2.65-.89-3.81-.31-4.45,2.44a3.64,3.64,0,0,1-1.67,2.5l-2.53-1.5Zm4-8.08c.06-.09.21-.27.33-.48,1.07-1.85,2.29-3.43,4.76-3.41a2.13,2.13,0,0,0,1.48-1c.86-1.48,2-2,3.58-1.08l1.6-2.36a28.65,28.65,0,0,0-8.16,2.82c-1.54.79-3.2,1.35-4.81,2-1.07.45-2.13.92-3.39,1.47l1.22,2.79Zm22.06-10.84c2.09-1.13,2-4,4.24-4.82l1.59,2.39c.44-.66.71-1.12,1-1.55,1.28-1.76,1.46-4.25,3.61-5.43,0,0,0-.26-.1-.55l-11.21,6.88a8.15,8.15,0,0,0,.18.85C408,185.32,408.17,186,408.43,186.86Zm-3.84,9.51-.34-.82c-.95-.07-1.15,1.37-1.94,1.41a18.91,18.91,0,0,1-3.08-.39l.23,2.06ZM352,159.48c-1.05.4-2.18,2.74-2.06,3.58,0,.27.47.48,1,.95C351.31,162.28,351.65,160.88,352,159.48Zm71.66,25.57c-.15.6-.3,1.2-.49,2C424.75,186.74,424.3,186,423.64,185.05ZM348,155l-.42-.15-.16,1,.17.06Zm55.78,31.38c-.28-.18-.41-.32-.48-.3a3.51,3.51,0,0,0-.52.33c.14.11.28.32.41.31A1.92,1.92,0,0,0,403.77,186.36Z" transform="translate(-312.38 -77.46)"/><path class="cls-1" d="M323.45,111.57c1.51-.78,2.68-1.45,3.91-2,5.52-2.52,11-5.07,16.59-7.47,2.64-1.14,5.44-1.89,8.11-3a71.46,71.46,0,0,0,7.44-3.28c4-2.15,7.89-4.5,11.94-6.83,1.1,1.09.69,2.26-.11,3.52l-2.67-1.26c-.09,1.78-.13,3.25-.25,4.72a5.21,5.21,0,0,0,3.47,5.69,16.17,16.17,0,0,1,7,6.58,5.35,5.35,0,0,0,4.27,2.74c-1.91-2.76-3.73-5.44-5.63-8.08a6.84,6.84,0,0,0-4.19-3,10.07,10.07,0,0,1-1.5-.61l.59-3c2.82,3.18,6.63,4.78,8.33,8.54a4,4,0,0,0,2.92,2.18,3.48,3.48,0,0,0,0-1.17c-1.09-2.58-2.11-5.21-4.9-6.54a12.67,12.67,0,0,1-2.14-1.53,3.38,3.38,0,0,1-1.5-3.89,5.09,5.09,0,0,0-2.47-5.67l3.09-2.15c.9.9,1.62,1.79,1.45,3-.44,3,.88,5.49,2.45,7.81a38.6,38.6,0,0,0,3.75,4.35c1.13,1.21,2.34.33,3.84,0-.67-.72-1.2-1.27-1.71-1.84-1.11-1.25-2.28-2.45-3.28-3.78a4,4,0,0,1-.79-2.2,8.53,8.53,0,0,0-4-7.5c-.11-.07-.14-.27-.21-.41,1.22-2,4.46-1.67,4.94-4.5a4.32,4.32,0,0,1,3.16,3.07c.78,2.42,1.26,4.93,1.91,7.39a13.41,13.41,0,0,0,1.12,3.36,84,84,0,0,0,8.33,11.71c4.31,5.14,8.3,10.53,10.71,16.93a25.91,25.91,0,0,0,2.57,4.29c.63,1,1.32,2,2,3s1.2,2.08,1.92,3c1.91,2.55,3.87,5.07,5.84,7.58.7.87,1.5,1.66,2.26,2.47a11.55,11.55,0,0,1,1.82,1.89,36.22,36.22,0,0,0,5.65,6.81,42.31,42.31,0,0,1,2.68,3.38c1.28,1.63,2.56,3.26,3.82,4.9.43.55.81,1.14,1.26,1.8-1.67,1.42-3.56,1.6-5.4,2.13l-1.37-2.45c-.68.43-1.34.83-2,1.26q-9,6.09-18.06,12.17a27.78,27.78,0,0,1-2.73,1.5c-2.41,1.26-4.83,2.47-7.22,3.76-4.43,2.38-8.88,4.74-13.25,7.24-2.28,1.3-4.4,2.86-6.6,4.31l-1.77,1.15c-2.36-3.87-5.43-7.13-7.28-11.24a43.59,43.59,0,0,0-5.84-9.57c-3-3.71-5.6-7.73-8.53-11.84,1.83-1.24,3.46-2.34,5.07-3.46a32,32,0,0,0,2.9-2.1c1.87-1.63,1.91-4.07.5-6.1-1.58-2.28-3.54-4.32-4.49-7-.64-1.83-2.15-2.09-3.83-1.06-2.91,1.79-5.87,3.5-8.8,5.26a1.74,1.74,0,0,1-2.67-.56c-.89-1.32-1.87-2.6-2.64-4-1.38-2.51-2.69-5.08-3.92-7.67a21.88,21.88,0,0,1-1.1-3.41c-.57-2-1.13-3.93-3.89-3.63-.36,0-.84-.39-1.16-.71a16.35,16.35,0,0,1-4-5.64,16.57,16.57,0,0,0-3.65-5.85A17.11,17.11,0,0,1,323.45,111.57Z" transform="translate(-312.38 -77.46)"/><path class="cls-1" d="M318.91,158a11.56,11.56,0,0,0-1,2.59c-.47,3.2-1.36,6.53.4,9.55a13,13,0,0,0,8.1,6.32c2.31.59,4.67,1,7,1.44,1.64.34,3.27.7,4.92,1a23.39,23.39,0,0,0,11.15-.4,13.83,13.83,0,0,1-5.87,2.27c-4.06.56-8-.32-11.9-.8a10.15,10.15,0,0,1-3.52-1.42c-2.94-1.61-5.86-3.25-8.72-5a8.81,8.81,0,0,1-2.76-12.35c.7-1,1.2-2.23,1.8-3.34Z" transform="translate(-312.38 -77.46)"/><path class="cls-1" d="M359.34,145.62l3.83,5.78c-1,1.85-2.68,2.19-4.26,3.06l-.68-2.48-6.68,1.13c-.43-.72-.86-1.46-1.43-2.44Z" transform="translate(-312.38 -77.46)"/><path class="cls-1" d="M426.41,172a39.39,39.39,0,0,1-2,4.81c-2,3.47-3.47,7-2.73,11.33-1.6.86-3.08,1.78-4.67,2.48-1,.45-1.3,0-1-1.44,1-.47,2.38,1,3.31-.71-1.2-1.26-.59-2.6.05-4a17.64,17.64,0,0,0,1.93-8.32,2,2,0,0,1,.49-1.48c1.32-1.11,2.75-2.1,4.14-3.13Z" transform="translate(-312.38 -77.46)"/><path class="cls-1" d="M432.53,176c-.47-2.39.78-4.33,0-6.37-1.53.09-1.53,1.2-1.78,2.19a28.94,28.94,0,0,1-5.18,9.81c.93-3.86,3.95-7.2,2.55-11.65.88-.63,1.71-1.24,2.56-1.8a2.38,2.38,0,0,1,2.43-.28,13.77,13.77,0,0,0,3.72.26C435.85,170.89,434.18,173.24,432.53,176Z" transform="translate(-312.38 -77.46)"/><path class="cls-1" d="M382.37,205.78l.75-4,2.53,1.5a3.64,3.64,0,0,0,1.67-2.5c.64-2.75,1.8-3.33,4.45-2.44,1.17.38,2.58.34,3.18,2.1C391,202.12,387.22,204.48,382.37,205.78Z" transform="translate(-312.38 -77.46)"/><path class="cls-1" d="M386.37,197.7l-3.39.75-1.22-2.79c1.26-.55,2.32-1,3.39-1.47,1.61-.67,3.27-1.23,4.81-2a28.65,28.65,0,0,1,8.16-2.82l-1.6,2.36c-1.61-.88-2.72-.4-3.58,1.08a2.13,2.13,0,0,1-1.48,1c-2.47,0-3.69,1.56-4.76,3.41C386.58,197.43,386.43,197.61,386.37,197.7Z" transform="translate(-312.38 -77.46)"/><path class="cls-1" d="M408.43,186.86c-.26-.86-.47-1.54-.66-2.23a8.15,8.15,0,0,1-.18-.85l11.21-6.88c.05.29.14.53.1.55-2.15,1.18-2.33,3.67-3.61,5.43-.32.43-.59.89-1,1.55L412.67,182C410.4,182.91,410.52,185.73,408.43,186.86Z" transform="translate(-312.38 -77.46)"/><path class="cls-1" d="M404.59,196.37l-5.13,2.26-.23-2.06a18.91,18.91,0,0,0,3.08.39c.79,0,1-1.48,1.94-1.41Z" transform="translate(-312.38 -77.46)"/><path class="cls-1" d="M352,159.48c-.33,1.4-.67,2.8-1.09,4.53-.5-.47-.93-.68-1-.95C349.8,162.22,350.93,159.88,352,159.48Z" transform="translate(-312.38 -77.46)"/><path class="cls-1" d="M423.64,185.05c.66.91,1.11,1.69-.49,2C423.34,186.25,423.49,185.65,423.64,185.05Z" transform="translate(-312.38 -77.46)"/><path class="cls-1" d="M348,155l-.41.92-.17-.06.16-1Z" transform="translate(-312.38 -77.46)"/><path class="cls-1" d="M403.77,186.36a1.92,1.92,0,0,1-.59.34c-.13,0-.27-.2-.41-.31a3.51,3.51,0,0,1,.52-.33C403.36,186,403.49,186.18,403.77,186.36Z" transform="translate(-312.38 -77.46)"/></g></g></svg>