<svg xmlns="http://www.w3.org/2000/svg" viewBox="0 0 233.64 280.21"><defs><style>.cls-1{fill:#fff;}</style></defs><title>Treurwilg</title><g id="Laag_2" data-name="Laag 2"><g id="Laag_1-2" data-name="Laag 1"><path d="M635.36,575.89c-1.86.64-3.73,1.24-5.57,2a1.26,1.26,0,0,0-.6,1.07c.07.31.62.62,1,.71a1.9,1.9,0,0,0,1.15-.21c1.66-.8,3.23-1.72,3.95-3.57.7-.41,1.36-.83.9-1.62l-.68-.16C635.47,574.67,635.42,575.28,635.36,575.89Zm-20-19.77c-.53-.32-1-.68-1.59-1a23.75,23.75,0,0,1-7.24-5.82,79.31,79.31,0,0,1-9.21-12.84c-.9-1.6-1.78-3.22-2.81-4.74a73.9,73.9,0,0,1-8-15.53,217.48,217.48,0,0,0-17.86-35.77,80.38,80.38,0,0,1-9.82-23.58,66.67,66.67,0,0,0-7.61-19.08,163.29,163.29,0,0,1-16-36.33c-1.41-4.67-2.71-9.37-4.29-14-1.35-3.93-3.23-7.68-4.51-11.62a138.15,138.15,0,0,0-10.73-24.56c-2.42-4.32-4.72-8.71-7.08-13.07-.33-.6-.73-1.17-1.09-1.75a28.26,28.26,0,0,0,.45,7.39,91.48,91.48,0,0,0,6.28,17.54c2.05,4.51,4.25,9,6,13.57,1.9,4.9,3.94,9.73,4.79,15,.66,4.14,2.29,8.12,3.45,12.18a221.9,221.9,0,0,0,7.74,22.4,155,155,0,0,0,11.44,22.64,159.65,159.65,0,0,1,10.33,20.27c2.62,6.07,4.59,12.43,6.74,18.7q5.1,14.85,10,29.76a92,92,0,0,0,8.44,19,35.15,35.15,0,0,0,5.18,6.85A68.25,68.25,0,0,0,605,553.6C608.19,555.26,611.53,556.62,615.38,556.12ZM490.2,379.62l-.37.13c.26.9.51,1.8.77,2.7,1.73,6.07,3.57,12.11,5.16,18.22,2.2,8.43,4.13,16.92,6.3,25.36,2.77,10.73,7.47,20.72,12,30.76a50.22,50.22,0,0,1,2.83,6.6A88.67,88.67,0,0,0,522,476.31c2.37,5.06,4.47,10.23,6.81,15.3,1.71,3.7,3.89,7.2,5.35,11A86.83,86.83,0,0,0,542,518.71c4.24,6.59,8.19,13.36,12.36,20a48.14,48.14,0,0,0,8.25,9.92c-.29-1-.42-1.65-.63-2.22q-2.72-7.3-5.46-14.59a4.85,4.85,0,0,0-1.08-1.84c-2.34-2.15-3.77-5-5.45-7.56-1.17-1.8-2.23-3.67-3.22-5.57a35.13,35.13,0,0,1-1.83-4.17c-1.44-3.8-3.22-7.53-4.13-11.47-1.54-6.71-4.47-12.81-7.44-18.9-2.52-5.17-5.44-10.14-8.07-15.26a82.12,82.12,0,0,1-4.64-10c-2.6-7.29-4.75-14.74-7.33-22.05-2.65-7.53-5.36-15.06-8.45-22.42-4.52-10.76-9.4-21.37-14.13-32A10.72,10.72,0,0,0,490.2,379.62Zm73,148.83.56-.24,3.65,5.38a1,1,0,0,0,.13-1c-2.26-5.8-4.46-11.63-6.81-17.39-1.91-4.66-3.94-9.26-6-13.85-3.37-7.41-7.17-14.64-9.63-22.44Q540.65,465,536.25,451c-.62-2-1.09-4-1.65-6a44.8,44.8,0,0,0-1.35-4.59c-2.37-6-4.82-12-7.25-18-.08-.21-.17-.41-.25-.61a5,5,0,0,0,0,2.58c.66,3.12,1.34,6.24,2,9.37.87,4.05,1.66,8.13,2.63,12.16.87,3.65,2.11,7.21,2.88,10.88a62.39,62.39,0,0,0,4.94,14.94,191.53,191.53,0,0,1,9.2,20.54c.48,1.36,1,2.7,1.54,4,2.54,6.29,5.15,12.56,7.64,18.87,2,5,3.84,10.13,5.9,15.61C562.79,529.71,563,529.08,563.16,528.45Zm78.19-133.52a2.83,2.83,0,0,0,.1,3c.92,1.6,1.86,3.18,2.74,4.79a63.48,63.48,0,0,1,3.65,7A74.79,74.79,0,0,1,651.63,424a31.69,31.69,0,0,0,4.25,10.61,137.87,137.87,0,0,1,7.36,14.24,76.92,76.92,0,0,0,4.62,9.7c1.54,2.46,3.17,4.86,4.75,7.29l.44-.23a46.85,46.85,0,0,0-2.44-8.68c-1.53-4.53-3.38-9-4-13.77a97.93,97.93,0,0,0-1.63-9.69c-1.55-6.41-3.79-12.52-8.42-17.5a50.17,50.17,0,0,1-4.6-6.12c-2.19-3.24-4.21-6.61-6.42-9.83C644.31,398.32,642.85,396.76,641.35,394.93ZM584.81,317.8a5.77,5.77,0,0,0,.18,3.86c1,2.67,1.92,5.37,2.91,8,.51,1.41,1.1,2.79,1.63,4.19a6.44,6.44,0,0,1,.66,2,25.37,25.37,0,0,0,3.34,11.6c2.05,3.78,4.17,7.52,6.28,11.27a66.74,66.74,0,0,1,3.45,6c2,4.44,3.62,9,5.51,13.48,1.19,2.82,2.56,5.57,3.86,8.35a2.07,2.07,0,0,0,.16-1.64c-.55-2-1.5-3.95-1.64-6a63.24,63.24,0,0,0-4.8-20.4c-2.3-5.44-4.31-11-6.44-16.5-1.44-3.73-2.81-7.47-4.28-11.19a37.57,37.57,0,0,0-7-10.79A6.07,6.07,0,0,0,584.81,317.8Zm1.86,232,.37-.4c-.62-.67-1.28-1.3-1.86-2-2.56-3.16-5.53-6.09-7.54-9.58a89.37,89.37,0,0,1-6.28-13.92c-3.35-9.14-6.28-18.44-9.54-27.62-2.78-7.83-5.48-15.7-9.51-23a25.89,25.89,0,0,1-1.91-3.6c-1.41-3.87-3.83-7.17-5.81-10.73a8.83,8.83,0,0,0-1-1.23,1.56,1.56,0,0,0-.11,1.23c2.09,6.71,4.15,13.43,6.33,20.11.71,2.19,1.71,4.3,2.64,6.42,3.5,8,7.95,15.49,10.93,23.71,1.8,5,3.89,9.8,5.84,14.7,2.68,6.75,5.2,13.58,9.38,19.63A19,19,0,0,0,586.67,549.78Zm41.39,31.53c-1.27.62-2.33,1.13-3.39,1.66-.14.06-.33.15-.38.27a13.45,13.45,0,0,1-.82,2.2,11.89,11.89,0,0,1-1.83,2.18c-.92.89-1.95,1.66-2.89,2.52a20.61,20.61,0,0,1-9.08,4.64c-5.23,1.35-10.5.77-15.7-.11-3.44-.58-6.76-1.93-10.2-2.58a29.12,29.12,0,0,1-12.62-5.93,10.57,10.57,0,0,1-3.27-4,19.17,19.17,0,0,0-8.18-9.36,51.17,51.17,0,0,1-5.2-3.8c-.29-.21-.62-.36-.92-.54a2,2,0,0,0,.41,1.37c1.3,1.91,2.64,3.8,3.92,5.73,2,3,3.81,6.1,5.93,9s4.4,5.6,7.81,6.88a57.38,57.38,0,0,0,19.59,4.12c3.91.06,7.82.33,11.48,2a5.11,5.11,0,0,0,2.81.4c3.15-.47,6.28-1.07,9.4-1.7,4.36-.89,7.67-3.84,11.4-5.94a3.83,3.83,0,0,0,1.28-1.66c.46-.93.76-1.93,1.18-3C626.87,584.66,627.87,583,628.06,581.31Zm-7.16-76,.5-.3c-.46-1.23-.88-2.49-1.4-3.7-1.29-3-2.68-6-3.92-9-2.51-6.15-5.12-12.22-9-17.67a39.27,39.27,0,0,1-3.78-6.92c-1.65-3.72-3-7.55-4.59-11.31a11.42,11.42,0,0,0-4.25-5c.82,3.58,1.74,7.11,2.82,10.58,1.28,4.12,2.88,8.14,4,12.29a100.41,100.41,0,0,0,4.48,11.87,23.35,23.35,0,0,0,5.63,8.26,63.73,63.73,0,0,1,8,9.19A21.42,21.42,0,0,0,620.9,505.35Zm4.07,72.9c-6.14-1.58-12.26-2.94-18.15-5.19a33.42,33.42,0,0,0-5.47-1.74,38.82,38.82,0,0,0-8.27-1,19.39,19.39,0,0,1-8.19-1.19,7.27,7.27,0,0,0-1.16-.28c6.17,6.7,14.07,10.06,22.68,11.5C612.65,581.36,618.93,580.35,625,578.25ZM484.36,319.48l-.62.29c1.36,2.76,2.57,5.6,4.13,8.25a24.93,24.93,0,0,1,2.9,7.05,31.53,31.53,0,0,0,1.24,4.37c2.48,6.4,4.75,12.91,7.62,19.14,4.35,9.42,9.15,18.64,13.72,28,.74,1.5,1.32,3.07,2,4.61.92,2.15,1.86,4.29,2.79,6.44l.46-.16a22.1,22.1,0,0,0-.69-3.48q-3.78-10.32-7.7-20.6c-.57-1.48-1.55-2.83-1.94-4.35-1.26-4.86-3.71-9.12-6.3-13.36a92.89,92.89,0,0,1-5.85-10.43c-2.79-6.27-5.18-12.72-7.73-19.09A17.25,17.25,0,0,0,484.36,319.48ZM678.27,560.3a8.64,8.64,0,0,0,1.07-.72c4.09-5,7-10.62,9.8-16.39A13,13,0,0,0,690,540c.94-5.12-.42-10.06-1.13-15.59a12.77,12.77,0,0,0-.54,1.36,20.62,20.62,0,0,1-3.68,7.7,12.85,12.85,0,0,0-1.82,4.37c-.68,2.46-1.18,5-1.68,7.47C680.2,550.1,679.3,554.94,678.27,560.3ZM616.7,374.37A57.58,57.58,0,0,0,623.47,395c3.11,5.83,10.13,16.43,12.11,17.75C635.18,408.51,622.4,382.48,616.7,374.37Zm65.46,133.26-.4.17q-1.74,18-3.49,36a6,6,0,0,0,1.15-2.73,24.2,24.2,0,0,1,4.22-11.32,9.36,9.36,0,0,0,1.81-5.8c0-2.38.23-4.77.33-7.15a4.3,4.3,0,0,0-.1-1.87C684.56,512.44,683.34,510,682.16,507.63Zm-34.67-78.36c-.44,2.25-.36,3.86.74,5.57a95.14,95.14,0,0,1,9.62,19.48,62.73,62.73,0,0,0,5.81,12.32c1.23,2,2.34,4,3.54,6,.8,1.33,1.65,2.63,2.48,3.94a1.5,1.5,0,0,0,.38-1.23,34.21,34.21,0,0,0-4.68-12.2,99.83,99.83,0,0,1-7-12.54,167.09,167.09,0,0,0-9.6-19ZM469.67,391l.4-.16c-.33-1.2-.67-2.41-1-3.61s-.69-2.46-1-3.7c-1.8-6.62-3.49-13.28-5.43-19.87a53.12,53.12,0,0,0-4.79-12.24,10.08,10.08,0,0,0-.92-1.15,11,11,0,0,0,0,4.16c.26,1.57.62,3.13,1,4.66.35,1.3.8,2.58,1.26,3.84a91.05,91.05,0,0,1,3.2,8.76,89,89,0,0,0,6.28,17.54C468.93,389.82,469.32,390.39,469.67,391ZM597.14,564.26l.21-.72a16.93,16.93,0,0,0-2.2-1.3,27.52,27.52,0,0,0-4.72-1.71c-5.87-1.24-10.79-4.3-15.35-8a23.27,23.27,0,0,1-3.56-3.85c-1.4-1.8-2.64-3.74-4-5.71-.14.34-.28.51-.24.62a21.16,21.16,0,0,0,.7,2,36.48,36.48,0,0,0,8.37,11.86,22.74,22.74,0,0,0,6.76,4.47C587.61,564,592.53,563,597.14,564.26ZM571,391.43c-.28-3-1.61-5.55-2.89-8.1-1.55-3.06-2.9-6.22-4.45-9.28-.89-1.76-2-3.42-3-5.1-.8-1.28-2.07-2.43-2.39-3.81-.63-2.71-2-5-3.15-7.47a13.26,13.26,0,0,0-1.2-1.74c.51,3.52.94,6.59,1.4,9.66.07.47.13,1.17.42,1.33,1.19.64,1.07,1.88,1.56,2.84.33.64.67,1.27,1,1.87q5,7.89,10,15.76C569.13,388.76,570.06,390.09,571,391.43Zm45.37,178.82c2.4,1.94,9.85,3.23,13.64,2.23-.34-1.42-.25-3.33-1.16-4.18a8.12,8.12,0,0,1-2.07-3.57c-3.66-1.18-7.13.72-10.75.54l6.26,2.94ZM620.4,400.6c1.34,6.08,7,13.9,10.63,14.94Zm-147.55,1c0,3.57,5.14,21.46,6.85,23.71C477.75,417.27,475,409.49,472.85,401.57Zm69.84,8.73c.87,4.56,5.56,14.38,7.47,15.89A81.74,81.74,0,0,0,542.69,410.3Zm25.79-9.18c2,4.59,3.64,9.36,7.41,12.91C574.21,409.27,571.37,405.18,568.48,401.12Zm-82.94-13.23a6.85,6.85,0,0,0,2.63,5.68C487.36,390.2,487.1,389.59,485.54,387.89ZM647,442.47l-.65.24a16.94,16.94,0,0,0,2.77,5.37l.43-.21ZM630.49,573.11l2-1C631,571.17,631,571.17,630.49,573.11ZM559.62,382.35c-.13,1.11-.13,1.11.67,1.76C560,383.42,559.82,382.88,559.62,382.35Zm62.76,154.22-.16.17.55.58.17-.16Z" transform="translate(-456.68 -317.8)"/><path class="cls-1" d="M489.2,401.63c-.08-.63-.17-1.27-.31-2.25,2,.92,1.85,2.41,2.44,3.72-1.32.22-1.62-.44-1.82-1.24A.92.92,0,0,1,489.2,401.63Z" transform="translate(-456.68 -317.8)"/><path class="cls-1" d="M563.16,528.45c-.19.63-.37,1.26-.7,2.34-2.06-5.48-3.91-10.57-5.9-15.61-2.49-6.31-5.1-12.58-7.64-18.87-.54-1.33-1.06-2.67-1.54-4a191.53,191.53,0,0,0-9.2-20.54,62.39,62.39,0,0,1-4.94-14.94c-.77-3.67-2-7.23-2.88-10.88-1-4-1.76-8.11-2.63-12.16-.68-3.13-1.36-6.25-2-9.37a5,5,0,0,1,0-2.58c.08.2.17.4.25.61,2.43,6,4.88,12,7.25,18A44.8,44.8,0,0,1,534.6,445c.56,2,1,4,1.65,6q4.37,14,8.79,27.89c2.46,7.8,6.26,15,9.63,22.44,2.08,4.59,4.11,9.19,6,13.85,2.35,5.76,4.55,11.59,6.81,17.39a1,1,0,0,1-.13,1l-3.65-5.38Z" transform="translate(-456.68 -317.8)"/><path class="cls-1" d="M628.06,581.31c-.19,1.68-1.19,3.35.73,4.34-.42,1.08-.72,2.08-1.18,3a3.83,3.83,0,0,1-1.28,1.66c-3.73,2.1-7,5-11.4,5.94-3.12.63-6.25,1.23-9.4,1.7a5.11,5.11,0,0,1-2.81-.4c-3.66-1.7-7.57-2-11.48-2a57.38,57.38,0,0,1-19.59-4.12c-3.41-1.28-5.73-4-7.81-6.88s-3.94-6-5.93-9c-1.28-1.93-2.62-3.82-3.92-5.73a2,2,0,0,1-.41-1.37c.3.18.63.33.92.54a51.17,51.17,0,0,0,5.2,3.8,19.17,19.17,0,0,1,8.18,9.36,10.57,10.57,0,0,0,3.27,4,29.12,29.12,0,0,0,12.62,5.93c3.44.65,6.76,2,10.2,2.58,5.2.88,10.47,1.46,15.7.11a20.61,20.61,0,0,0,9.08-4.64c.94-.86,2-1.63,2.89-2.52a11.89,11.89,0,0,0,1.83-2.18,13.45,13.45,0,0,0,.82-2.2c.05-.12.24-.21.38-.27C625.73,582.44,626.79,581.93,628.06,581.31Z" transform="translate(-456.68 -317.8)"/><path class="cls-1" d="M620.9,505.35a21.42,21.42,0,0,1-1.48-1.68,63.73,63.73,0,0,0-8-9.19,23.35,23.35,0,0,1-5.63-8.26,100.41,100.41,0,0,1-4.48-11.87c-1.15-4.15-2.75-8.17-4-12.29-1.08-3.47-2-7-2.82-10.58a11.42,11.42,0,0,1,4.25,5c1.56,3.76,2.94,7.59,4.59,11.31a39.27,39.27,0,0,0,3.78,6.92c3.91,5.45,6.52,11.52,9,17.67,1.24,3,2.63,6,3.92,9,.52,1.21.94,2.47,1.4,3.7Z" transform="translate(-456.68 -317.8)"/><path class="cls-1" d="M625,578.25c-6,2.1-12.32,3.11-18.56,2.08-8.61-1.44-16.51-4.8-22.68-11.5a7.27,7.27,0,0,1,1.16.28,19.39,19.39,0,0,0,8.19,1.19,38.82,38.82,0,0,1,8.27,1,33.42,33.42,0,0,1,5.47,1.74C612.71,575.31,618.83,576.67,625,578.25Z" transform="translate(-456.68 -317.8)"/><path class="cls-1" d="M484.36,319.48a17.25,17.25,0,0,1,4,6.65c2.55,6.37,4.94,12.82,7.73,19.09A92.89,92.89,0,0,0,502,355.65c2.59,4.24,5,8.5,6.3,13.36.39,1.52,1.37,2.87,1.94,4.35q3.9,10.27,7.7,20.6a22.1,22.1,0,0,1,.69,3.48l-.46.16c-.93-2.15-1.87-4.29-2.79-6.44-.67-1.54-1.25-3.11-2-4.61-4.57-9.33-9.37-18.55-13.72-28-2.87-6.23-5.14-12.74-7.62-19.14a31.53,31.53,0,0,1-1.24-4.37,24.93,24.93,0,0,0-2.9-7.05c-1.56-2.65-2.77-5.49-4.13-8.25Z" transform="translate(-456.68 -317.8)"/><path class="cls-1" d="M678.27,560.3c1-5.36,1.93-10.2,2.88-15,.5-2.5,1-5,1.68-7.47a12.85,12.85,0,0,1,1.82-4.37,20.62,20.62,0,0,0,3.68-7.7,12.77,12.77,0,0,1,.54-1.36c.71,5.53,2.07,10.47,1.13,15.59a13,13,0,0,1-.86,3.23c-2.75,5.77-5.71,11.42-9.8,16.39A8.64,8.64,0,0,1,678.27,560.3Z" transform="translate(-456.68 -317.8)"/><path class="cls-1" d="M682.16,507.63c1.18,2.41,2.4,4.81,3.52,7.26a4.3,4.3,0,0,1,.1,1.87c-.1,2.38-.31,4.77-.33,7.15a9.36,9.36,0,0,1-1.81,5.8A24.2,24.2,0,0,0,679.42,541a6,6,0,0,1-1.15,2.73q1.74-18,3.49-36Z" transform="translate(-456.68 -317.8)"/><path class="cls-1" d="M647.49,429.27l1.33,2.33a167.09,167.09,0,0,1,9.6,19,99.83,99.83,0,0,0,7,12.54,34.21,34.21,0,0,1,4.68,12.2,1.5,1.5,0,0,1-.38,1.23c-.83-1.31-1.68-2.61-2.48-3.94-1.2-2-2.31-4-3.54-6a62.73,62.73,0,0,1-5.81-12.32,95.14,95.14,0,0,0-9.62-19.48C647.13,433.13,647.05,431.52,647.49,429.27Z" transform="translate(-456.68 -317.8)"/><path class="cls-1" d="M469.67,391c-.35-.59-.74-1.16-1.05-1.77a89,89,0,0,1-6.28-17.54,91.05,91.05,0,0,0-3.2-8.76c-.46-1.26-.91-2.54-1.26-3.84-.41-1.53-.77-3.09-1-4.66a11,11,0,0,1,0-4.16,10.08,10.08,0,0,1,.92,1.15,53.12,53.12,0,0,1,4.79,12.24c1.94,6.59,3.63,13.25,5.43,19.87.33,1.24.68,2.47,1,3.7s.68,2.41,1,3.61Z" transform="translate(-456.68 -317.8)"/><path class="cls-1" d="M597.14,564.26c-4.61-1.3-9.53-.25-14-2.3a22.74,22.74,0,0,1-6.76-4.47A36.48,36.48,0,0,1,568,545.63a21.16,21.16,0,0,1-.7-2c0-.11.1-.28.24-.62,1.38,2,2.62,3.91,4,5.71a23.27,23.27,0,0,0,3.56,3.85c4.56,3.69,9.48,6.75,15.35,8a27.52,27.52,0,0,1,4.72,1.71,16.93,16.93,0,0,1,2.2,1.3Z" transform="translate(-456.68 -317.8)"/><path class="cls-1" d="M616.33,570.25l5.92-2L616,565.27c3.62.18,7.09-1.72,10.75-.54a8.12,8.12,0,0,0,2.07,3.57c.91.85.82,2.76,1.16,4.18C626.18,573.48,618.73,572.19,616.33,570.25Z" transform="translate(-456.68 -317.8)"/><path class="cls-1" d="M620.4,400.6,631,415.54C627.41,414.5,621.74,406.68,620.4,400.6Z" transform="translate(-456.68 -317.8)"/><path class="cls-1" d="M472.85,401.57c2.16,7.92,4.9,15.7,6.85,23.71C478,423,472.81,405.14,472.85,401.57Z" transform="translate(-456.68 -317.8)"/><path class="cls-1" d="M542.69,410.3a81.74,81.74,0,0,1,7.47,15.89C548.25,424.68,543.56,414.86,542.69,410.3Z" transform="translate(-456.68 -317.8)"/><path class="cls-1" d="M568.48,401.12c2.89,4.06,5.73,8.15,7.41,12.91C572.12,410.48,570.45,405.71,568.48,401.12Z" transform="translate(-456.68 -317.8)"/><path class="cls-1" d="M635.3,575.84c-.72,1.85-2.29,2.77-3.95,3.57a1.9,1.9,0,0,1-1.15.21c-.39-.09-.94-.4-1-.71a1.26,1.26,0,0,1,.6-1.07c1.84-.71,3.71-1.31,5.57-2Z" transform="translate(-456.68 -317.8)"/><path class="cls-1" d="M485.54,387.89c1.56,1.7,1.82,2.31,2.63,5.68A6.85,6.85,0,0,1,485.54,387.89Z" transform="translate(-456.68 -317.8)"/><path class="cls-1" d="M647,442.47l2.55,5.4-.43.21a16.94,16.94,0,0,1-2.77-5.37Z" transform="translate(-456.68 -317.8)"/><path class="cls-1" d="M490.76,407.65,491,406c1.41.62,1.29,1.74,1.49,2.84-1.34.38-1.29-.78-1.79-1.24Z" transform="translate(-456.68 -317.8)"/><path class="cls-1" d="M630.49,573.11c.51-1.94.51-1.94,2-1Z" transform="translate(-456.68 -317.8)"/><path class="cls-1" d="M559.62,382.35c.2.53.4,1.07.67,1.76C559.49,383.46,559.49,383.46,559.62,382.35Z" transform="translate(-456.68 -317.8)"/><path class="cls-1" d="M635.36,575.89l.16-1.83.68.16c.46.79-.2,1.21-.9,1.62Z" transform="translate(-456.68 -317.8)"/><path class="cls-1" d="M622.38,536.57l.56.59-.17.16-.55-.58Z" transform="translate(-456.68 -317.8)"/></g></g></svg>