<svg xmlns="http://www.w3.org/2000/svg" xmlns:xlink="http://www.w3.org/1999/xlink" viewBox="0 0 100.88 220.33"><defs><style>.cls-1{fill:none;}.cls-2{clip-path:url(#clip-path);}.cls-3{fill:#fff;}</style><clipPath id="clip-path" transform="translate(-511.6 -377.77)"><rect class="cls-1" width="612.48" height="821.76"/></clipPath></defs><title>Varen</title><g id="Laag_2" data-name="Laag 2"><g id="Laag_1-2" data-name="Laag 1"><g class="cls-2"><path d="M612.48,466.1c-.57.22-1.17.69-1.69.61-4.92-.67-9.74-1.57-14.09-4.26a69.87,69.87,0,0,0-6.73-3.12,34.52,34.52,0,0,1-3.8-2c-3.56-2.29-7.06-4.66-10.59-7-2.8-1.85-5.59-3.7-8.4-5.52a5.86,5.86,0,0,0-2.7-.94c.32.75.65,1.5.94,2.26.84,2.15,1.71,4.29,2.48,6.46a3.46,3.46,0,0,0,1.27,1.88c5.09,3.74,10.72,6.53,16.25,9.52,2,1.09,4,2.34,5.94,3.56,2.78,1.73,5.59,3.43,8.31,5.26a15.09,15.09,0,0,1,5.87,7.39,9.93,9.93,0,0,1,.59,2.31c.23,2.14.45,4.29.52,6.44a28.42,28.42,0,0,1-.34,3.7,2.4,2.4,0,0,1-3.24-1,86.61,86.61,0,0,0-10.68-12.27c0-.06-.12-.1-.17-.17-2.44-3.75-5.88-6.47-9.39-9.12a9.47,9.47,0,0,0-1.93-1.4A21.41,21.41,0,0,1,574,464a10.35,10.35,0,0,0-1.49-1.05,1.88,1.88,0,0,0-1.35,2.32c.41,2.6.91,5.19,1.33,7.79a2.06,2.06,0,0,0,1.74,1.75c3,.66,4.83,3.13,7.45,4.39a42,42,0,0,1,7.57,4.59c3.41,2.64,5.64,6.27,7.45,10.16,1.21,2.61,2.32,5.28,3.77,7.76,1.77,3,1.69,6.46,2.66,9.65a2.41,2.41,0,0,1-1.11,2.11,2.64,2.64,0,0,1-2.28-.76,19.86,19.86,0,0,1-2.59-3.73,109.27,109.27,0,0,0-12.86-17.29,49.36,49.36,0,0,0-5.95-5.2,12.36,12.36,0,0,0-2.2-1.1c.28,4.63.41,8.93,1.65,13.39l2-1.29c.6.37,1.35.78,2,1.29s1.54,1.37,2.38,2a21.85,21.85,0,0,1,5.78,6.66c1.46,2.37,2.69,4.9,4.24,7.22,2.42,3.61,3.54,7.7,4.47,11.81.47,2.08.74,4.44-.72,6.38-1.22.32-1.45-.55-1.81-1.24-1.83-3.55-3.53-7.18-5.52-10.64q-3.81-6.64-8-13a7.58,7.58,0,0,0-3.75-3.43c-.46,5.56.84,10.68,1.31,15.95h2.26c1.76,1.81,3.4,3.45,5,5.15a16,16,0,0,1,3.43,6.25,15.14,15.14,0,0,0,1.23,3.36,16,16,0,0,1,2.11,9.66c-.18,2.76.3,5.23,2.57,7.13a4.11,4.11,0,0,1,1.22,2,2,2,0,0,1-.5,1.69,1.71,1.71,0,0,1-1.55,0,5.45,5.45,0,0,1-2.07-1.58c-1.69-2.5-3.26-5.09-4.84-7.67-.29-.47-.35-1.09-.68-1.53-2.75-3.77-3.77-8.23-5.08-12.58a14.22,14.22,0,0,0-.66-1.79,5.55,5.55,0,0,0-.78-.94c-.19.73-.36,1.22-.44,1.72a12.35,12.35,0,0,0-.33,2.61c.19,3.45-1.24,7,.6,10.33a103,103,0,0,0,5.32,9.1A22.85,22.85,0,0,1,591,571.45a5.43,5.43,0,0,1-1.75,3.24c-1.57-3.07-1.77-6.53-3.55-9.45a89.35,89.35,0,0,1-4.35-9.22l-.59.06a15.18,15.18,0,0,0-.33,1.63c-.16,1.82-.32,3.64-.39,5.47a3.94,3.94,0,0,0,.42,1.77,17.22,17.22,0,0,0,1.4,2.22c2.8,4,3.76,8.6,4.1,13.35a12.28,12.28,0,0,1-.48,3.54c-.08.38-.61,1-.86.92a1.79,1.79,0,0,1-1.21-.84c-.72-1.6-1.32-3.26-2-4.89l-3-7.56c-.8,2.28-1.31,4-.95,5.94a25.24,25.24,0,0,1,.77,6.64,34.6,34.6,0,0,1-1.92,8.59c-.41,1.14-2,2-3.26,2.64-1.91,1-4,1.73-6.06,2.6-.78-.79-.36-1.67-.2-2.48.64-3.11,1-6.32,2.6-9.15,1.3-2.28,2.73-4.49,4.11-6.72a6.3,6.3,0,0,0,1-1.61c.47-2,.81-4,1.23-6.09a5.51,5.51,0,0,0-1.52,0c-2.46.7-4.89,1.47-7.34,2.2a21.36,21.36,0,0,1-2.08.58c-1.92.38-2.71-.05-3.87-2.18,1.36-2.15,3.62-3.13,5.93-3.93,3.24-1.11,6.46-2.39,10-2.41a1.4,1.4,0,0,0,1.37-1.65,9.47,9.47,0,0,1,.59-3.15,21.79,21.79,0,0,0,.07-4.56,60,60,0,0,1-5.16,3.25,90,90,0,0,1-8.94,4c-.88.32-2.11-.32-3.21-.53a2.87,2.87,0,0,1,1.21-2.91c2.21-1.57,4.46-3.09,6.7-4.63,2.43-1.66,4.9-3.27,7.26-5,.59-.44.84-1.33,1.26-2a10.1,10.1,0,0,0,1.15-8.83c-.44,1-.73,1.62-1.06,2.27-.5,1-1,2-1.55,3a10.16,10.16,0,0,1-5.84,4.25,21.57,21.57,0,0,1-7.23,1.39,7.26,7.26,0,0,1-2.14-.67,6.55,6.55,0,0,1,.84-2.13,35,35,0,0,1,4.53-4.26,9.49,9.49,0,0,0,3.51-5.28,10.91,10.91,0,0,1,2.37-4.37,14.91,14.91,0,0,0,1.35-2c1.26-1.93,2.57-3.84,3.74-5.83a9.34,9.34,0,0,0,1.64-6.12,72.63,72.63,0,0,0-2.17-10.38c-.14.79-.35,1.58-.42,2.37-.28,2.93-.72,5.82-.86,8.77a29.72,29.72,0,0,1-2,8.58c-.86,2.36-5.95,5-8.14,4.62s-2.87-1.46-2-3.37c1.25-2.84,2.8-5.55,4.14-8.35a15.58,15.58,0,0,0,.75-2.68c.25-.92.49-1.84.78-2.74a8.34,8.34,0,0,0,.88-2.45c-.11-3.81,2-6.83,3.4-10.11a4.67,4.67,0,0,1,1.28-1.71,3.06,3.06,0,0,0,1.16-3.17c-.58-3.22-1.1-6.46-1.66-9.68,0-.21-.26-.39-.64-.93a19.28,19.28,0,0,0-1,2.21c-.48,1.77-.87,3.56-1.31,5.33-.32,1.32-.66,2.64-1,4-.4,1.62-.87,3.23-1.19,4.87s-.52,3.28-.75,4.93c-.33,2.36-.4,4.79-2.52,6.48a3,3,0,0,1-4.82-1.69,9,9,0,0,1,0-2.38,49.47,49.47,0,0,1,.48-5.45c.43-2.42,1-4.82,1.67-7.19.42-1.53,1.1-3,1.58-4.51q2.16-7,4.24-13.95c.44-1.47.91-2.88,2.75-3.36l-.77-1.38c-.14-.26-.48-.63-.41-.75,1-1.73-.25-3.23-.46-4.81s-.67-3.27-1.14-5.44a16,16,0,0,0-.81,1.86c-.57,2.07-1.14,4.14-1.62,6.23a7.56,7.56,0,0,0,0,1.9c.09,2.79.36,5.59.2,8.36a14.2,14.2,0,0,1-1.49,4.25c-1,2.42-2.08,4.83-3.14,7.23-.8,1.82-1.63,3.62-2.41,5.44a4.57,4.57,0,0,0-.52,1.76,1.83,1.83,0,0,1-1.61,2,6.55,6.55,0,0,0-4,3.47c-1.45,2.56-1.47,2.69-4.13,1,2.07-4.23,2.87-8.85,3.85-13.42a9.53,9.53,0,0,1,.79-2.74c2.64-4.5,3.78-9.65,6.2-14.24a20.57,20.57,0,0,0,1.83-6.87,40.48,40.48,0,0,1,2.27-8.28c.54-1.42,1.83-2.54,3.11-4.24-1.23-3.24-1.79-7.23-3.35-11a21.34,21.34,0,0,0-1.54,9.14c0,3.4-.07,6.68-2,9.7a14.6,14.6,0,0,0-1.38,3.8,34.61,34.61,0,0,1-5.13,10.23,6.5,6.5,0,0,0-.92,1.4c-.95,2.65-3.14,3.7-5.59,4.41-1.16.34-2.51.68-3.35-.42-.73-.94-.26-2.11.2-3.16.93-2.13,1.83-4.26,2.66-6.42.45-1.18.67-2.45,1.09-3.65A20.17,20.17,0,0,1,550,469.5a43.11,43.11,0,0,0,3.56-7.83,21.63,21.63,0,0,1,1.32-3.08c2.53-4.23,3-8.81,2.68-13.62a6.69,6.69,0,0,1,2.29-5.65c-1-4.88-4.11-8.64-6.71-12.53-1.66.24-2.19,1-2.11,2.34.18,3.35,0,6.77.58,10,.74,4,.08,7.8-.21,11.69a36.47,36.47,0,0,0-.27,4.29,10.42,10.42,0,0,1-2.77,7.7,38.57,38.57,0,0,0-4.95,7.89c-.15.28-.2.65-.42.84a53.14,53.14,0,0,1-5,4,12.44,12.44,0,0,0-3.58,3.08c-.94,1.31-1.51,1.2-2.67-.33,1.86-3.22,3.93-6.37,5.56-9.74a29.44,29.44,0,0,0,3.09-8.22,107.77,107.77,0,0,1,3-12.31,26.72,26.72,0,0,0,.95-6.35c.13-3.5.56-7,1-10.47a12.11,12.11,0,0,1,1.16-3.13c.6-1.45,1.78-2.66,1.7-4.4,0-.37.51-.76.8-1.12.88-1.13.75-1.74-.5-2.42-.88-.48-1.73-1-2.74-1.56a1.45,1.45,0,0,0-.32.57c-.45,3-.86,6-1.29,9a1.94,1.94,0,0,1,0,.24c-.86,2.88-1.71,5.78-2.61,8.65-.29.91-.7,1.78-1.08,2.66q-1.11,2.64-2.25,5.26c-.19.44-.46.85-.61,1.3-.6,1.72-1.11,3.48-1.75,5.19-.78,2.08-1.68,4.12-2.49,6.2-.43,1.1-.93,2.13-.38,3.44a2.22,2.22,0,0,1-.91,2.53c-1.48,1.23-2.82,2.63-4.38,3.74a23.81,23.81,0,0,1-4.38,2.39c-1.11.49-1.9-.08-1.95-1.3a11,11,0,0,1,.95-5.36c1.73-3.58,3.31-7.23,4.94-10.86a1.75,1.75,0,0,0,.13-.93C527,449,528,447,529.06,445c.9-1.78,1.92-3.5,2.75-5.32a9.21,9.21,0,0,0,.85-3.2,47.35,47.35,0,0,1,2.84-12.84,39.73,39.73,0,0,1,6.26-12.08c1.55-1.91,1.55-2.87.22-4.95-.85-1.32-1.84-2.54-2.86-3.94a12.55,12.55,0,0,0-2.78,5c-1,2.87-1.88,5.76-2.91,8.6-.71,2-1.67,3.8-2.36,5.75S530,426,529.3,428c-1.38,4.08-2.75,8.14-5.48,11.63a37.77,37.77,0,0,1-6.44,6.69,8.37,8.37,0,0,1-5.32,1.84c-.45-1.44-.76-2.66,0-4.14a17.63,17.63,0,0,0,1.32-4.58c.47-2.34.78-4.72,1.18-7.08a26.43,26.43,0,0,1,4.13-9.63q4-6.27,7.86-12.59a5.28,5.28,0,0,0,.72-1.76c.63-3.26,2.53-5.87,4.38-8.45.91-1.25,2.34-2.12,3.81-3.41-4.12-6.76-9.87-12.46-15-18.71a4.71,4.71,0,0,1,3,1.68c3.52,3.92,7,7.85,10.52,11.82,1.1,1.27,2,2.68,3,4a12.22,12.22,0,0,1,.66,1.2c2.61-1.79,4.81-3.36,7.07-4.84,3.47-2.26,6.73-5,11-5.55a30.24,30.24,0,0,1,14.63,1.46,59.69,59.69,0,0,0,13.6,3.6,80.3,80.3,0,0,1,10.93,2.5c2.47.63,4.88,1.53,7.34,2.2a6.86,6.86,0,0,1,4.29,3.56c-1.29,1.64-3.08,2-4.89,2.32a15.55,15.55,0,0,0-2.81.57c-6.29,2.32-12.54,1.73-18.81-.12a66.21,66.21,0,0,0-9.51-2.4,76.12,76.12,0,0,0-11-.53c-5.27,0-10.54.33-15.81.53-.78,0-1.55.16-2.56.26.86,2.26,2.41,3.77,3.66,5.46.22.3,1,.33,1.5.24a28.31,28.31,0,0,0,3-.89,13.67,13.67,0,0,1,8.29-.22c4.3,1.34,8.8,1.6,13.11,2.75,3.93,1,7.77,2.45,11.67,3.61,3.43,1,6.87,2.08,10.37,2.84a51.51,51.51,0,0,0,8.3,1.07,16.13,16.13,0,0,1,8,3c1.12.73,1.83,2.11,2.79,3.27-1.8,1.84-4.05,2-6.11,2.12-3.58.21-7.18,0-10.78,0a89.33,89.33,0,0,1-19.66-2.68c-2.71-.62-5.37-1.51-8-2.38-5.15-1.7-10.27-3.49-15.42-5.18a12.66,12.66,0,0,0-2.59-.24,7.8,7.8,0,0,0,4.73,6.61c3.18,1.31,6.38,2.59,9.46,4.1a51.9,51.9,0,0,0,14,4.15c4.65.82,9.31,1.58,13.68,3.47,5.51,2.37,11.09,4.61,15.28,9.19a7,7,0,0,0,2.38,1.56c1.77.76,2.55,2,2.43,4.2a7.59,7.59,0,0,1-1.71.25c-8-.63-15.39-3.28-22.62-6.58a34.76,34.76,0,0,0-8.62-2.85c-7.15-1.21-13.27-4.5-19.1-8.54-.46-.31-.91-.64-1.38-.94-.11-.06-.29,0-.77,0,.51,1,.93,1.94,1.41,2.81.69,1.26,1.52,2.46,2.13,3.75s1.22,1.87,2.71,1.33c.28,1.72,1.44,2.49,2.76,3.14a13.88,13.88,0,0,1,2.25,1.36c6,4.62,13,7.12,20.31,8.63a50.39,50.39,0,0,1,13.35,5.23,20.43,20.43,0,0,1,8,7.34,31.71,31.71,0,0,0,2.53,3.15Zm-38.63,12.11a8.38,8.38,0,0,0,2.51,3.22,131.06,131.06,0,0,1,10.45,8.29c2.27,2.08,4,4.74,6,7.09C593.82,498,595,499,596,500a36.75,36.75,0,0,0-3.34-8.31c-1.26-2.18-2.67-4.54-4.63-6a90.46,90.46,0,0,0-10.5-6.12A30.19,30.19,0,0,0,573.85,478.21Zm29.47,7.07c.36-4.67-.92-8.23-4.48-10.72-2.86-2-5.93-3.73-8.79-5.73a41.75,41.75,0,0,0-10.64-5.11,42.11,42.11,0,0,0,4.22,3,47.18,47.18,0,0,1,10.55,8.87c2.64,3.07,5.39,6.05,8.11,9.06A6.27,6.27,0,0,0,603.32,485.28ZM575.25,591.64c1.85-6.07,2.11-9.55.83-12.08a28.79,28.79,0,0,0-6.29,10.35c-.63,1.78-1.75,3.54-1.34,5.76C571.2,595,571.8,591,575.25,591.64Zm-20.61-88.41.4.26a19.11,19.11,0,0,0,1.32-1.82c.76-1.31,1.47-2.65,2.17-4,.45-.84.89-1.69,1.26-2.57,1.29-3,2.48-6.05,3.84-9a9.66,9.66,0,0,0,.6-7.28c-2.54,3-3.4,6.66-4.91,10,.44,1.79-1.12,3.07-1.23,4.73a1,1,0,0,1-.53.73c-1.46.24-1.58,1.44-1.79,2.49C555.33,498.88,555,501.06,554.64,503.23Zm34.3,63.24.56-.13a7.37,7.37,0,0,0,.26-2.29,31.27,31.27,0,0,0-1.75-6.39,54.07,54.07,0,0,0-4-6.48c-.68-1-1.46-2-2.36-3.23-.89,1.4-1.17,2.38-.1,3.45a4.56,4.56,0,0,1,.86,1.4c1.71,3.84,3.38,7.69,5.11,11.52A17.1,17.1,0,0,0,588.94,566.47ZM577.27,532l-.41-.22c-1.33,2.68-3.83,4.49-4.86,7.45-.9,2.62-2,5.19-4.48,6.9a9.58,9.58,0,0,0-1.7,2.06,12.83,12.83,0,0,0,3.2-.7,7.54,7.54,0,0,0,5.56-5.42C575.65,538.73,576.39,535.32,577.27,532ZM549.2,480.79l.52.3c.78-1.08,1.62-2.12,2.32-3.25,2.7-4.37,4-9.33,6-14a6.59,6.59,0,0,0,.33-5.07,8.4,8.4,0,0,0-1.22,2c-1.35,5.77-5.67,10.34-6.51,16.31a8.16,8.16,0,0,1-.65,1.54C549.68,479.32,549.45,480.06,549.2,480.79Zm34.92,44.74c.5,1.46.87,2.57,1.26,3.67.54,1.5,1.17,3,1.64,4.49.67,2.14,1.1,4.35,1.87,6.43a44.89,44.89,0,0,0,2.55,4.91c1.53-3,.31-5.39-.33-7.75a28,28,0,0,0-2.35-5.73C587.65,529.44,587.06,526.87,584.12,525.53Zm-19.79-11.7a2.31,2.31,0,0,0,1.43-2.42,28.8,28.8,0,0,1,1.85-9.08,6.57,6.57,0,0,0,.16-1.18c.45-2.17.92-4.34,1.39-6.5.2-.93.41-1.86.62-2.79l-.6-.15c-.43,1.42-.86,2.83-1.3,4.25a34.41,34.41,0,0,1-1.83,5.64,13.39,13.39,0,0,0-1.47,4.74c-.12,1.18.06,2.39,0,3.58S564.44,512.4,564.33,513.83Zm17.4-11.58a57.46,57.46,0,0,1,4.17,5.19c2.82,4.44,5.44,9,8.15,13.5.24.4.54.77.81,1.15l.42-.25a36.34,36.34,0,0,0-1.45-3.45c-1.84-3.35-3.61-6.75-5.68-9.95C586.57,506,584.94,503.46,581.73,502.25Zm-10.19,16.1a4.66,4.66,0,0,0-.65,1.66c.11,2.14-.85,3.76-2,5.47a8,8,0,0,0-1.78,5.19,4.58,4.58,0,0,0,3.18-2.81C571.56,524.84,572.46,521.8,571.54,518.35Zm3.21,50.7c-2.7-.2-8.38,1.77-9.92,3.48C568.37,570.94,571.84,570.83,574.75,569.05ZM566,560.34l.34.4c4.67-1.79,7.71-3.8,8.39-5.25-1.12.6-2.57,1.36-4,2.16S567.61,559.44,566,560.34Zm17.57,16.75c.09-3.92-.41-5.24-2.65-7C582,572.73,582.78,574.91,583.61,577.09Zm-10.19-91.44c.08-1.21.21-2.08-1-2.64-.36.79-.7,1.52-1.15,2.52Z" transform="translate(-511.6 -377.77)"/><path class="cls-3" d="M573.85,478.21a30.19,30.19,0,0,1,3.69,1.39,90.46,90.46,0,0,1,10.5,6.12c2,1.45,3.37,3.81,4.63,6A36.75,36.75,0,0,1,596,500c-1.06-1.07-2.19-2.07-3.17-3.21-2-2.35-3.76-5-6-7.09a131.06,131.06,0,0,0-10.45-8.29A8.38,8.38,0,0,1,573.85,478.21Z" transform="translate(-511.6 -377.77)"/><path class="cls-3" d="M603.32,485.28a6.27,6.27,0,0,1-1-.67c-2.72-3-5.47-6-8.11-9.06a47.18,47.18,0,0,0-10.55-8.87,42.11,42.11,0,0,1-4.22-3,41.75,41.75,0,0,1,10.64,5.11c2.86,2,5.93,3.72,8.79,5.73C602.4,477.05,603.68,480.61,603.32,485.28Z" transform="translate(-511.6 -377.77)"/><path class="cls-3" d="M575.25,591.64c-3.45-.63-4,3.32-6.8,4-.41-2.22.71-4,1.34-5.76a28.79,28.79,0,0,1,6.29-10.35C577.36,582.09,577.1,585.57,575.25,591.64Z" transform="translate(-511.6 -377.77)"/><path class="cls-3" d="M554.64,503.23c.37-2.17.69-4.35,1.13-6.51.21-1.05.33-2.25,1.79-2.49a1,1,0,0,0,.53-.73c.11-1.66,1.67-2.94,1.23-4.73,1.51-3.3,2.37-6.93,4.91-10a9.66,9.66,0,0,1-.6,7.28c-1.36,3-2.55,6-3.84,9-.37.88-.81,1.73-1.26,2.57-.7,1.34-1.41,2.68-2.17,4a19.11,19.11,0,0,1-1.32,1.82Z" transform="translate(-511.6 -377.77)"/><path class="cls-3" d="M588.94,566.47a17.1,17.1,0,0,1-1.39-2.15c-1.73-3.83-3.4-7.68-5.11-11.52a4.56,4.56,0,0,0-.86-1.4c-1.07-1.07-.79-2,.1-3.45.9,1.22,1.68,2.19,2.36,3.23a54.07,54.07,0,0,1,4,6.48,31.27,31.27,0,0,1,1.75,6.39,7.37,7.37,0,0,1-.26,2.29Z" transform="translate(-511.6 -377.77)"/><path class="cls-3" d="M577.27,532c-.88,3.36-1.62,6.77-2.69,10.07a7.54,7.54,0,0,1-5.56,5.42,12.83,12.83,0,0,1-3.2.7,9.58,9.58,0,0,1,1.7-2.06c2.45-1.71,3.58-4.28,4.48-6.9,1-3,3.53-4.77,4.86-7.45Z" transform="translate(-511.6 -377.77)"/><path class="cls-3" d="M549.2,480.79c.25-.73.48-1.47.74-2.19a8.16,8.16,0,0,0,.65-1.54c.84-6,5.16-10.54,6.51-16.31a8.4,8.4,0,0,1,1.22-2,6.59,6.59,0,0,1-.33,5.07c-1.91,4.7-3.25,9.66-6,14-.7,1.13-1.54,2.17-2.32,3.25Z" transform="translate(-511.6 -377.77)"/><path class="cls-3" d="M584.12,525.53c2.94,1.34,3.53,3.91,4.64,6a28,28,0,0,1,2.35,5.73c.64,2.36,1.86,4.77.33,7.75a44.89,44.89,0,0,1-2.55-4.91c-.77-2.08-1.2-4.29-1.87-6.43-.47-1.52-1.1-3-1.64-4.49C585,528.1,584.62,527,584.12,525.53Z" transform="translate(-511.6 -377.77)"/><path class="cls-3" d="M564.33,513.83c.11-1.43.24-2.67.28-3.91s-.15-2.4,0-3.58a13.39,13.39,0,0,1,1.47-4.74,34.41,34.41,0,0,0,1.83-5.64c.44-1.42.87-2.83,1.3-4.25l.6.15c-.21.93-.42,1.86-.62,2.79-.47,2.16-.94,4.33-1.39,6.5a6.57,6.57,0,0,1-.16,1.18,28.8,28.8,0,0,0-1.85,9.08A2.31,2.31,0,0,1,564.33,513.83Z" transform="translate(-511.6 -377.77)"/><path class="cls-3" d="M581.73,502.25c3.21,1.21,4.84,3.75,6.42,6.19,2.07,3.2,3.84,6.6,5.68,9.95a36.34,36.34,0,0,1,1.45,3.45l-.42.25c-.27-.38-.57-.75-.81-1.15-2.71-4.5-5.33-9.06-8.15-13.5A57.46,57.46,0,0,0,581.73,502.25Z" transform="translate(-511.6 -377.77)"/><path class="cls-3" d="M571.54,518.35c.92,3.45,0,6.49-1.25,9.51a4.58,4.58,0,0,1-3.18,2.81,8,8,0,0,1,1.78-5.19c1.15-1.71,2.11-3.33,2-5.47A4.66,4.66,0,0,1,571.54,518.35Z" transform="translate(-511.6 -377.77)"/><path class="cls-3" d="M574.75,569.05c-2.91,1.78-6.38,1.89-9.92,3.48C566.37,570.82,572.05,568.85,574.75,569.05Z" transform="translate(-511.6 -377.77)"/><path class="cls-3" d="M566,560.34c1.57-.9,3.14-1.81,4.72-2.69s2.89-1.56,4-2.16c-.68,1.45-3.72,3.46-8.39,5.25Z" transform="translate(-511.6 -377.77)"/><path class="cls-3" d="M583.61,577.09c-.83-2.18-1.65-4.36-2.65-7C583.2,571.85,583.7,573.17,583.61,577.09Z" transform="translate(-511.6 -377.77)"/><path class="cls-3" d="M573.42,485.65l-2.2-.12c.45-1,.79-1.73,1.15-2.52C573.63,483.57,573.5,484.44,573.42,485.65Z" transform="translate(-511.6 -377.77)"/></g></g></g></svg>