<svg xmlns="http://www.w3.org/2000/svg" viewBox="0 0 178.1 149.13"><defs><style>.cls-1{fill:#fff;}</style></defs><title>Vlinder</title><g id="Laag_2" data-name="Laag 2"><g id="Laag_1-2" data-name="Laag 1"><path d="M664.55,203.54c-.56.7-1.12,1.33-1.6,2a12.36,12.36,0,0,1-1.27,2C657,211.92,654.24,218,649.11,222a18.87,18.87,0,0,0-2.24,2.79,38.26,38.26,0,0,1-3.64,4.08c-2.52,2.2-5.27,4.14-7.81,6.32-4.55,3.88-9.77,6.6-15.16,9.07a43.79,43.79,0,0,1-13.43,3.25,61.85,61.85,0,0,0-6.57,1.26c-2.88.65-5.74,1.4-8.61,2.11a7.33,7.33,0,0,0-2,.65,7.91,7.91,0,0,1-7.49.77c-.2-.53-.53-1.32-.8-2.14-.63-1.91-.1-3.08,1.71-3.84a3.11,3.11,0,0,1,.91-.29c3.34-.29,6.25-1.9,9.27-3.1a9.05,9.05,0,0,0,3.06-2.2c1.49-1.55,2.69-3.4,4.2-4.92,2-2,3.89-4.17,6.26-5.53,4.26-2.45,7.61-5.83,10.89-9.3a97.56,97.56,0,0,1,8-7.26c5.6-4.75,11.18-9.55,16.44-14.67a75.46,75.46,0,0,0,10-12,62.38,62.38,0,0,1,4.6-5.81,8.91,8.91,0,0,0,2.44-5.33c-.68.15-1.26.3-1.85.41a18.07,18.07,0,0,1-3.06.5c-1.22,0-1.64-.82-1.17-2,1.17-2.83.81-3.82-1.71-5.48a18.41,18.41,0,0,0-8.12-2.6,41.66,41.66,0,0,1-5.11-1.12,25.58,25.58,0,0,0-3.42-1c-4.59-.48-9.15-1.32-13.83-.67a19,19,0,0,1-6-.25c-4.37-.83-8.74-.58-13.12-.56a24.1,24.1,0,0,1-5.23-.51c-2.81-.61-5.56-1.46-8.34-2.21a9.38,9.38,0,0,0-1.62-.41,23.85,23.85,0,0,1-10.91-3.26c-1.73-1.05-3.72-.74-5.63-.47a4.3,4.3,0,0,1-3.43-.59,4,4,0,0,1-1-5.71,8.14,8.14,0,0,1,2.29-2,13.51,13.51,0,0,1,2.88-1.18c5.85-1.86,11.68-3.82,17.6-5.48,3.91-1.09,7.95-1.7,11.93-2.57,3-.65,5.92-1.35,8.86-2.07,3.5-.85,6.94-2,10.47-2.57a44.78,44.78,0,0,1,23.34,2.37,19.27,19.27,0,0,0,7.75,1.33c-2.12-1.35-4.27-2.67-6.37-4.07-2.25-1.51-4.56-3-6.64-4.69-2.56-2.11-2.11-5.32.89-6.78a48.25,48.25,0,0,1,15.8-4.58c5.16-.6,10.37-.82,15.51-1.56a81.22,81.22,0,0,0,9.75-2.43,72.11,72.11,0,0,0,10-4,119.66,119.66,0,0,1,14.41-5.23c3.72-1.12,7.63-.63,11.43,0a2.65,2.65,0,0,1,2.41,2.85,9.28,9.28,0,0,1-.69,3.46,25.31,25.31,0,0,1-4.77,6.86c-2.78,3-5.54,6-8.09,9.14a86.11,86.11,0,0,1-7,7.4c-1.19,1.17-2.21,2.51-3.34,3.76a6,6,0,0,1-1.53,1.48c-2.68,1.28-4.37,3.71-6.56,5.55a1.82,1.82,0,0,0-.6.73q-1.46,4.26-2.83,8.54c-.06.2.06.45.1.76a3.88,3.88,0,0,0,3.18-.61,5.55,5.55,0,0,1,4.32-.86c1.12.3,1.58-.2,1.58-1.75a11,11,0,0,1,1.7-5.42A3,3,0,0,1,696,145a2.11,2.11,0,0,1,1.28,2.55,44.59,44.59,0,0,1-2.24,4.94,4.56,4.56,0,0,1-.5.74c1.07,2.31,2.79,2.84,6.7,2.1-2.58-5.31-2.79-6.39-1.13-7.73a21.59,21.59,0,0,1-.13,2.21,4.28,4.28,0,0,0,2.07,4.72c1.31.79,1.73,1.88,2,3.66l-2-.9c-1.2,1.53-2,1.71-3.77,1.37a28,28,0,0,0-4.75-.42c-1.2,0-2.38.1-3.06-.9-1.86,0-1.53,1.82-2.29,2.36a63.07,63.07,0,0,1,5.47,4.37,5.39,5.39,0,0,0,5.21,1.65c2.81-.61,5.58-1.4,8.36-2.11,1.69-.43,3.38-.89,5.09-1.25,3-.62,6-1.16,8.93-1.76a3.22,3.22,0,0,0,1.09-.48c2.77-1.83,6-2.18,9.14-2.55a19.84,19.84,0,0,0,3.55-.5,8.92,8.92,0,0,1,4.94.16,3.64,3.64,0,0,1,2.8,2.93,2.92,2.92,0,0,1-1.29,3.33,4.82,4.82,0,0,0-1.35,1.35c-1.92,3.29-5,5.35-8,7.48-4.24,3-8.43,6.06-12.69,9-2.22,1.55-4.55,2.94-6.79,4.45-1.39.94-2.68,2-4.09,2.93a68.42,68.42,0,0,1-6.15,3.68c-3,1.5-6.1,2.76-9.14,4.17-1.88.88-3.7,1.88-5.57,2.76-4,1.87-7.88,3.94-12,5.45a50.59,50.59,0,0,1-8.88,1.88c-1.91.33-2.15,0-1.87-2.05a3.28,3.28,0,0,0,0-.7C664.88,203.88,664.79,203.82,664.55,203.54Zm-21.67-76a41.54,41.54,0,0,0,12.56,8.06,14.92,14.92,0,0,1,2.66,1.58c3.12,2.22,6.16,4.55,9.34,6.69a4.33,4.33,0,0,1,1.94,4.08c0,1.43-2.17,2.88-3.45,2.25a46.7,46.7,0,0,1-6.46-3.59,24.1,24.1,0,0,0-10.3-4.21,55.09,55.09,0,0,1-9-2.22,38.72,38.72,0,0,0-21.46-1.49c-5.53,1.23-10.93,3-16.4,4.48a16.75,16.75,0,0,1-3.28.67c-5.19.41-9.85,2.67-14.78,4a75.53,75.53,0,0,0,19.12-1.26c4.3-.84,8.5-2.21,12.79-3.13,4-.87,8.16-1.5,12.26-2.13a15.67,15.67,0,0,1,3.35.06,37.74,37.74,0,0,1,5,.41c3.74.72,7.45,1.61,11.17,2.43a1.35,1.35,0,0,1,.44.2,52,52,0,0,0,10.76,5.16,13.77,13.77,0,0,1,3.71,2.58,2.08,2.08,0,0,1-.08,2.78c-.82.64-1.48.18-2.1-.41a21.34,21.34,0,0,0-2.69-2.36,6.59,6.59,0,0,0-3-1.19,8.75,8.75,0,0,1-4.7-1.41c-2.92-2-6-3.55-9.69-3.66a42.62,42.62,0,0,1-7.1-.86c-4.84-1-9.51.17-14.21,1-2.43.43-4.83,1.07-7.22,1.69a24.71,24.71,0,0,0-6.2,2.08c1.88,0,3.29.13,4.67,0,5.31-.56,10.56-1.47,16-.8s10.84.76,16.26,1.22a22.79,22.79,0,0,1,4.66,1c4,1.2,7.9,2.5,12.15,3.86l.52,4a4.52,4.52,0,0,1-1.26.06q-5.58-1.77-11.14-3.58a24.53,24.53,0,0,0-3.61-1.18c-2.61-.4-5.24-.62-7.86-.84-2.06-.18-4.14-.27-6.21-.38-2.38-.12-4.77-.21-7.15-.3-.75,0-1.49,0-2.54,0,1.72,2.32,4.64.49,6.24,2.45a24.12,24.12,0,0,1-2,2.18c-1.14,1-2.05.68-2.75-.73-.23-.47-.56-.89-.9-1.44a3.08,3.08,0,0,1-3.46.63c-1.82-.79-3.59-.32-5.3.4a5.28,5.28,0,0,1-3.3.29l.2-2.66c-6.44.79-12.65,1.91-19.48,2.59a20.08,20.08,0,0,0,8.12,1.67c2.95,0,5.92,0,8.86.3,3.42.29,6.81,1,10.23,1.21,3.58.26,7.19.19,10.78.34a30.09,30.09,0,0,1,10.11,1.76,13.53,13.53,0,0,0,2.55.6,35.63,35.63,0,0,1,5.41,1c4.07,1.44,8.62,2.27,10.58,7,.4,1,1.29.82,2.06.46,2.81-1.32,5.65-2.5,7.87-4.88s4.68-4.35,7-6.52a10.6,10.6,0,0,1,4.5-2.65,3.15,3.15,0,0,0,1.79-1c1.52-2.55,2.59-5.24,1.35-8.31,2.82-3.94,5.64-7.91,8.47-11.86.76-1.05,1.36-2,.89-3.49a5.28,5.28,0,0,1,.39-2.77c1.06-3.57,2.18-7.12,3.42-11.12-1.44.54-2.62.92-3.75,1.42a23.54,23.54,0,0,1-7.33,2.09,25.56,25.56,0,0,0-4.38,1.17c-1.29.39-2.55.93-3.86,1.24-2.8.67-5.69,1-8.4,1.88a39.12,39.12,0,0,1-18.38,2C646.32,127.79,644.82,127.7,642.88,127.52Zm5.73,71.68a4.51,4.51,0,0,0,3.33-1.86c1.27-1.54,2.54-3.09,3.84-4.6,2.85-3.33,5.78-6.6,8.55-10a34.31,34.31,0,0,0,2.39-4.08c.92-1.55,1.82-3.14,3.78-3.72.76,2.82-1.87,4.41-2.48,7.08,1.13-.77,1.88-1.26,2.74-1.84l1.18,2.27c.76-1.07,1.38-1.88,1.92-2.74a4.78,4.78,0,0,1,4.56-2.5c.12.74.21,1.5.38,2.24s.17,1.6.61,2c1.58,1.37,1.48,3,1.19,4.8-.15.91-.17,1.84-.26,3,3.61-1,6.92-1.79,10.2-2.72a27.14,27.14,0,0,0,3.34-1.3c2.8-1.17,5.57-2.38,8.37-3.54s6-2.24,8.83-3.63a56.66,56.66,0,0,0,13.43-8.71c-.65-2.46-.38-2.7,1.76-4a11.18,11.18,0,0,1,4.14-1.63c1.22-.21,2.08.1,2.29,1.32a16.45,16.45,0,0,1,0,2.81,14.52,14.52,0,0,0,5.18-4.41c.64-.91,1.39-2,.7-3.07s-2-.71-3.08-.46c-3.47.85-6.92,1.8-10.39,2.67a5,5,0,0,1-1.87.23c-3.56-.45-6.95.51-10.38,1.17a8.12,8.12,0,0,0-3.16,1,18.25,18.25,0,0,1-6.14,2.54,22.5,22.5,0,0,0-2.76,1.1,31.68,31.68,0,0,1,2.58,2.92c.92,1.34.49,2.57-1,2.94-2.78.68-5.58,1.29-8.4,1.79a6.36,6.36,0,0,1-3.07-.13c-3.66-1.29-7.27-2.74-10.93-4.13l-.1-2.08-.79.16,3.19-3.93,2.83,1.56c.73-1.7,2-1.28,3.31-1,1.73.3,3.47.57,5.2.86-1.5-1.95-2.47-4.44-5.45-4.12-.12,0-.28-.09-.4-.18-1-.78-2-1.57-3-2.31-3.7,2.3-7.1,4.53-10.62,6.56-2.26,1.31-4.71,2.29-7,3.5-2,1-3.86,2.14-6,3.3,1.8,3.22.51,5.8-1.07,8.29-1.11,1.75-2.39,3.4-3.49,5.15-1.7,2.69-3.07,5.59-5.29,8C650.39,196.63,649.65,197.81,648.61,199.2Zm-27.92,32.73.32.59c.86-.36,1.73-.66,2.56-1.07a68.11,68.11,0,0,0,11.29-7.2c2.2-1.7,4.53-3.23,6.78-4.88,1.15-.85,2.28-1.74,3.35-2.7,2-1.8,4-3.65,6-5.52,1.38-1.31,2.74-2.67,4.06-4.05,1.49-1.56,2.93-3.16,4.38-4.75a12.34,12.34,0,0,0,1.69-2,27,27,0,0,1,5-6.35,7.7,7.7,0,0,0,2.45-4.69,16.1,16.1,0,0,0-4.5,3.86,63.6,63.6,0,0,1-4.78,4.65c-2,1.8-4.19,3.44-6.18,5.28-2.68,2.48-5.24,5.09-7.88,7.61a17.4,17.4,0,0,1-1.6,1c-1.58,1.21-3.54,2.17-4.59,3.74-1.83,2.74-4.39,4.62-6.69,6.8a52.72,52.72,0,0,1-5.33,4A32.31,32.31,0,0,0,620.69,231.93Zm-44.17-78.32a21.38,21.38,0,0,0,2.9,1.12c.47.11,1.33,0,1.51-.32,1-1.7,2.68-1.87,4.57-2.25C582.34,151.7,579.5,151.37,576.52,153.61Zm82.4,39.88.46.48a6.61,6.61,0,0,0,1.32-.92q3-3.26,5.85-6.62c.16-.18-.09-.73-.21-1.44Zm64.79-18.91a6,6,0,0,0-4.58,3Zm-90.34,42c1.22-.83,2.86-1.2,3.2-3Zm-5.18,4.31.34.41,2.93-2.47-.28-.33Zm83-39.14c2-.45,2-.45,3.1-1.91-.79.42-1.42.72-2,1.08A12.52,12.52,0,0,0,711.23,181.74Zm-139.86-30.5c1.55.49,1.55.49,2.11-.76Z" transform="translate(-564.69 -103.77)"/><path class="cls-1" d="M642.88,127.52c1.94.18,3.44.27,4.91.48a39.12,39.12,0,0,0,18.38-2c2.71-.9,5.6-1.21,8.4-1.88,1.31-.31,2.57-.85,3.86-1.24a25.56,25.56,0,0,1,4.38-1.17,23.54,23.54,0,0,0,7.33-2.09c1.13-.5,2.31-.88,3.75-1.42-1.24,4-2.36,7.55-3.42,11.12a5.28,5.28,0,0,0-.39,2.77c.47,1.47-.13,2.44-.89,3.49-2.83,3.95-5.65,7.92-8.47,11.86,1.24,3.07.17,5.76-1.35,8.31a3.15,3.15,0,0,1-1.79,1,10.6,10.6,0,0,0-4.5,2.65c-2.34,2.17-4.84,4.19-7,6.52s-5.06,3.56-7.87,4.88c-.77.36-1.66.51-2.06-.46-2-4.72-6.51-5.55-10.58-7a35.63,35.63,0,0,0-5.41-1,13.53,13.53,0,0,1-2.55-.6A30.09,30.09,0,0,0,627.48,160c-3.59-.15-7.2-.08-10.78-.34-3.42-.26-6.81-.92-10.23-1.21-2.94-.25-5.91-.27-8.86-.3a20.08,20.08,0,0,1-8.12-1.67c6.83-.68,13-1.8,19.48-2.59l-.2,2.66a5.28,5.28,0,0,0,3.3-.29c1.71-.72,3.48-1.19,5.3-.4a3.08,3.08,0,0,0,3.46-.63c.34.55.67,1,.9,1.44.7,1.41,1.61,1.7,2.75.73a24.12,24.12,0,0,0,2-2.18c-1.6-2-4.52-.13-6.24-2.45,1,0,1.79,0,2.54,0,2.38.09,4.77.18,7.15.3,2.07.11,4.15.2,6.21.38,2.62.22,5.25.44,7.86.84a24.53,24.53,0,0,1,3.61,1.18q5.57,1.81,11.14,3.58A4.52,4.52,0,0,0,660,159l-.52-4c-4.25-1.36-8.19-2.66-12.15-3.86a22.79,22.79,0,0,0-4.66-1c-5.42-.46-10.87-.56-16.26-1.22s-10.66.24-16,.8c-1.38.15-2.79,0-4.67,0a24.71,24.71,0,0,1,6.2-2.08c2.39-.62,4.79-1.26,7.22-1.69,4.7-.83,9.37-2,14.21-1a42.62,42.62,0,0,0,7.1.86c3.7.11,6.77,1.64,9.69,3.66a8.75,8.75,0,0,0,4.7,1.41,6.59,6.59,0,0,1,3,1.19,21.34,21.34,0,0,1,2.69,2.36c.62.59,1.28,1.05,2.1.41a2.08,2.08,0,0,0,.08-2.78,13.77,13.77,0,0,0-3.71-2.58,52,52,0,0,1-10.76-5.16,1.35,1.35,0,0,0-.44-.2c-3.72-.82-7.43-1.71-11.17-2.43a37.74,37.74,0,0,0-5-.41,15.67,15.67,0,0,0-3.35-.06c-4.1.63-8.21,1.26-12.26,2.13-4.29.92-8.49,2.29-12.79,3.13a75.53,75.53,0,0,1-19.12,1.26c4.93-1.32,9.59-3.58,14.78-4a16.75,16.75,0,0,0,3.28-.67c5.47-1.49,10.87-3.25,16.4-4.48a38.72,38.72,0,0,1,21.46,1.49,55.09,55.09,0,0,0,9,2.22,24.1,24.1,0,0,1,10.3,4.21,46.7,46.7,0,0,0,6.46,3.59c1.28.63,3.42-.82,3.45-2.25a4.33,4.33,0,0,0-1.94-4.08c-3.18-2.14-6.22-4.47-9.34-6.69a14.92,14.92,0,0,0-2.66-1.58A41.54,41.54,0,0,1,642.88,127.52Zm28,7.26c1.2-1.62-.36-2.92-.36-4.44-1.61.6-1.73.72-1.69,1.61a2.82,2.82,0,0,0,2.15,2.78,9.74,9.74,0,0,0-1.31,1.34c-.72,1.08-.38,2,1,2.8C671.33,137.51,671.8,136.2,670.87,134.78Zm3.3.78a5.62,5.62,0,0,0-.7-3.44c-1.22,1.13-1.49,1.79-1.17,2.87s1.06,1.27,1.94.49c0,2.05,0,4.11,0,6.16,0,1.1-.06,2.23,1.4,2.86a7.81,7.81,0,0,1,3.19-3.64,5.85,5.85,0,0,0,1.17-1.49c.62-.83,1.16-1.73,1.85-2.49,2.31-2.54,3.41-5.73,4.74-8.79a3.42,3.42,0,0,0-1.28-4.2,3.08,3.08,0,0,0-4,.3,16.33,16.33,0,0,0-2.92,3.69C676.88,130.38,675.56,133,674.17,135.56Zm-5.3,19.31c-3.86.95-4.7,1.5-6.82,4.34s-2.3,4.13-.66,6.74c.65-.85,1.09-2,1.89-2.36,2.51-1.22,3.78-3.57,5.56-5.46A2.12,2.12,0,0,0,668.87,154.87Zm5.56,1.44c1.57-1.37,3.44-2.09,3.73-4.32a8.2,8.2,0,0,0-1-5.92c-.7.56-1.56,1.43-1.69,1.33-1.31-1-1.6.29-1.83.9A8,8,0,0,0,674.43,156.31Zm-45.37-1.1c-.63,2.41-.63,2.41,1,3.47l2-2.7ZM667,139.94c1.47-1.44,1.16-2.82.93-4.21-2.39-.07-2.78.41-1.95,2.29C666.2,138.59,666.53,139.11,667,139.94ZM633.6,159.35c2.16-.37,2.49-1.85,3.46-3l-2.75-.52C634.07,157,633.87,158,633.6,159.35Zm30.15-28.1c-.79.68-1.3,1.25-.92,2.14a2.61,2.61,0,0,0,2.18,1.93C665.6,133.6,664.42,132.63,663.75,131.25Zm-8.49,32.8c1.63-.75.57-2.16,1-3.27C654.2,161.09,653.88,162.27,655.26,164.05Zm11.86-30.79c.79-1.7-.09-2.87-.51-4.3C665.28,130.66,665.42,131.76,667.12,133.26Zm7.61-6.09c-2.09,1.17-2.3,2-1,3.5C674.63,129.63,674.63,129.63,674.73,127.17Zm-18.27,2.24-.64-.47c-.43.35-1.1.62-1.23,1.06a2.06,2.06,0,0,0,.94,2.66Zm-11.67,29.08c-1.3-.77-1.49-.84-1.81-.37a1.59,1.59,0,0,0,.34,2.5Zm-6.18.69c1.41-.07,1.49-1.32,2.12-2.16C638.4,156.45,638.08,156.79,638.61,159.18Zm8.39,1.24c1.43-.3,1.37-1.62,2.07-2.62C646.73,158.26,646.73,158.26,647,160.42Zm4.8-1.68c-2.24.32-2.32.46-1.92,2.77C651.43,161.29,651.1,159.89,651.8,158.74ZM659.58,132l-.39.41.86,1.67c.42-.72.64-1.1.94-1.64Z" transform="translate(-564.69 -103.77)"/><path class="cls-1" d="M648.61,199.2c1-1.39,1.78-2.57,2.71-3.57,2.22-2.37,3.59-5.27,5.29-8,1.1-1.75,2.38-3.4,3.49-5.15,1.58-2.49,2.87-5.07,1.07-8.29,2.09-1.16,4-2.29,6-3.3,2.33-1.21,4.78-2.19,7-3.5,3.52-2,6.92-4.26,10.62-6.56,1,.74,2,1.53,3,2.31.12.09.28.2.4.18,3-.32,4,2.17,5.45,4.12-1.73-.29-3.47-.56-5.2-.86-1.28-.23-2.58-.65-3.31,1l-2.83-1.56L679.07,170l.79-.16L680,172c3.66,1.39,7.27,2.84,10.93,4.13a6.36,6.36,0,0,0,3.07.13c2.82-.5,5.62-1.11,8.4-1.79,1.54-.37,2-1.6,1-2.94a31.68,31.68,0,0,0-2.58-2.92,22.5,22.5,0,0,1,2.76-1.1,18.25,18.25,0,0,0,6.14-2.54,8.12,8.12,0,0,1,3.16-1c3.43-.66,6.82-1.62,10.38-1.17a5,5,0,0,0,1.87-.23c3.47-.87,6.92-1.82,10.39-2.67,1.05-.25,2.34-.72,3.08.46s-.06,2.16-.7,3.07a14.52,14.52,0,0,1-5.18,4.41,16.45,16.45,0,0,0,0-2.81c-.21-1.22-1.07-1.53-2.29-1.32a11.18,11.18,0,0,0-4.14,1.63c-2.14,1.34-2.41,1.58-1.76,4A56.66,56.66,0,0,1,711.08,178c-2.85,1.39-5.89,2.41-8.83,3.63s-5.57,2.37-8.37,3.54a27.14,27.14,0,0,1-3.34,1.3c-3.28.93-6.59,1.77-10.2,2.72.09-1.13.11-2.06.26-3,.29-1.78.39-3.43-1.19-4.8-.44-.39-.46-1.3-.61-2s-.26-1.5-.38-2.24a4.78,4.78,0,0,0-4.56,2.5c-.54.86-1.16,1.67-1.92,2.74l-1.18-2.27c-.86.58-1.61,1.07-2.74,1.84.61-2.67,3.24-4.26,2.48-7.08-2,.58-2.86,2.17-3.78,3.72a34.31,34.31,0,0,1-2.39,4.08c-2.77,3.4-5.7,6.67-8.55,10-1.3,1.51-2.57,3.06-3.84,4.6A4.51,4.51,0,0,1,648.61,199.2ZM719,166.94a11.19,11.19,0,0,0,.28-1.5,10.69,10.69,0,0,0-.09-1.5c-2.8,0-4.25.71-4.64,2.52a3.12,3.12,0,0,0,.36,2.21c.25.36,1.2.25,1.83.36l.67,1.78c3.2-1.16,3.48-1.46,3.77-3.87Zm-6.63,7.8c2-2.29,2.09-3.81.37-4.9C710.93,171.63,710.81,173.29,712.36,174.74Zm-22.81,6.6c1.92.29,2.81-.64,3.67-2.4l-1.43-1.32C690,178.45,689.33,179.52,689.55,181.34Zm6.9-1.07.59.4,2.56-2.93a1.53,1.53,0,0,0-2.23-.5C696,178,696.66,179.24,696.45,180.27Zm-11.7,0a4.49,4.49,0,0,0,3.32-2L687,176.78A4.06,4.06,0,0,0,684.75,180.23Zm-.2-4.71c-1.71,1.13-1.72,1.16-1.42,2.94C684.84,177.59,684.84,177.59,684.55,175.52Zm31.93-5.33c-2.61,1.86-2.79,2.45-1.32,4.13Zm-34.31,3.44c-.95,1.43-.95,1.43-.24,2.31C682.38,175.27,683.2,174.74,682.17,173.63Z" transform="translate(-564.69 -103.77)"/><path class="cls-1" d="M620.69,231.93a32.31,32.31,0,0,1,6.36-5.65,52.72,52.72,0,0,0,5.33-4c2.3-2.18,4.86-4.06,6.69-6.8,1-1.57,3-2.53,4.59-3.74a17.4,17.4,0,0,0,1.6-1c2.64-2.52,5.2-5.13,7.88-7.61,2-1.84,4.16-3.48,6.18-5.28a63.6,63.6,0,0,0,4.78-4.65,16.1,16.1,0,0,1,4.5-3.86,7.7,7.7,0,0,1-2.45,4.69,27,27,0,0,0-5,6.35,12.34,12.34,0,0,1-1.69,2c-1.45,1.59-2.89,3.19-4.38,4.75-1.32,1.38-2.68,2.74-4.06,4.05-2,1.87-4,3.72-6,5.52-1.07,1-2.2,1.85-3.35,2.7-2.25,1.65-4.58,3.18-6.78,4.88a68.11,68.11,0,0,1-11.29,7.2c-.83.41-1.7.71-2.56,1.07Z" transform="translate(-564.69 -103.77)"/><path class="cls-1" d="M576.52,153.61c3-2.24,5.82-1.91,9-1.45-1.89.38-3.6.55-4.57,2.25-.18.31-1,.43-1.51.32A21.38,21.38,0,0,1,576.52,153.61Z" transform="translate(-564.69 -103.77)"/><path class="cls-1" d="M658.92,193.49l7.42-8.5c.12.71.37,1.26.21,1.44q-2.87,3.36-5.85,6.62a6.61,6.61,0,0,1-1.32.92Z" transform="translate(-564.69 -103.77)"/><path class="cls-1" d="M723.71,174.58l-4.58,3A6,6,0,0,1,723.71,174.58Z" transform="translate(-564.69 -103.77)"/><path class="cls-1" d="M633.37,216.57l3.2-3C636.23,215.37,634.59,215.74,633.37,216.57Z" transform="translate(-564.69 -103.77)"/><path class="cls-1" d="M628.19,220.88l3-2.39.28.33-2.93,2.47Z" transform="translate(-564.69 -103.77)"/><path class="cls-1" d="M711.23,181.74a12.52,12.52,0,0,1,1.09-.83c.59-.36,1.22-.66,2-1.08C713.26,181.29,713.26,181.29,711.23,181.74Z" transform="translate(-564.69 -103.77)"/><path class="cls-1" d="M571.37,151.24l2.11-.76C572.92,151.73,572.92,151.73,571.37,151.24Z" transform="translate(-564.69 -103.77)"/><path class="cls-1" d="M685.05,196l1.72-.63.09.37-1.86.23S685.05,196,685.05,196Z" transform="translate(-564.69 -103.77)"/><path d="M674.17,135.55c1.39-2.56,2.71-5.17,4.21-7.67a16.33,16.33,0,0,1,2.92-3.69,3.08,3.08,0,0,1,4-.3,3.42,3.42,0,0,1,1.28,4.2c-1.33,3.06-2.43,6.25-4.74,8.79-.69.76-1.23,1.66-1.85,2.49a5.85,5.85,0,0,1-1.17,1.49,7.81,7.81,0,0,0-3.19,3.64c-1.46-.63-1.4-1.76-1.4-2.86,0-2,0-4.11,0-6.16Z" transform="translate(-564.69 -103.77)"/><path d="M668.87,154.87a2.12,2.12,0,0,1,0,3.26c-1.78,1.89-3.05,4.24-5.56,5.46-.8.39-1.24,1.51-1.89,2.36-1.64-2.61-1.49-3.86.66-6.74S665,155.82,668.87,154.87Z" transform="translate(-564.69 -103.77)"/><path d="M674.43,156.31a8,8,0,0,1-.84-8c.23-.61.52-1.9,1.83-.9.13.1,1-.77,1.69-1.33a8.2,8.2,0,0,1,1,5.92C677.87,154.22,676,154.94,674.43,156.31Z" transform="translate(-564.69 -103.77)"/><path d="M671,134.73a2.82,2.82,0,0,1-2.15-2.78c0-.89.08-1,1.69-1.61,0,1.52,1.56,2.82.36,4.44Z" transform="translate(-564.69 -103.77)"/><path d="M629.06,155.21l3,.77-2,2.7C628.43,157.62,628.43,157.62,629.06,155.21Z" transform="translate(-564.69 -103.77)"/><path d="M667,139.94c-.44-.83-.77-1.35-1-1.92-.83-1.88-.44-2.36,1.95-2.29C668.13,137.12,668.44,138.5,667,139.94Z" transform="translate(-564.69 -103.77)"/><path d="M633.6,159.35c.27-1.37.47-2.38.71-3.57l2.75.52C636.09,157.5,635.76,159,633.6,159.35Z" transform="translate(-564.69 -103.77)"/><path d="M674.24,135.48c-.88.78-1.57.73-1.94-.49s0-1.74,1.17-2.87a5.61,5.61,0,0,1,.7,3.43Z" transform="translate(-564.69 -103.77)"/><path d="M671,134.73l-.1.05c.93,1.42.46,2.73-.19,4.09-1.4-.82-1.74-1.72-1-2.8A9.74,9.74,0,0,1,671,134.73Z" transform="translate(-564.69 -103.77)"/><path d="M663.75,131.25c.67,1.38,1.85,2.35,1.26,4.07a2.61,2.61,0,0,1-2.18-1.93C662.45,132.5,663,131.93,663.75,131.25Z" transform="translate(-564.69 -103.77)"/><path d="M655.26,164.05c-1.38-1.78-1.06-3,1-3.27C655.83,161.89,656.89,163.3,655.26,164.05Z" transform="translate(-564.69 -103.77)"/><path d="M667.12,133.26c-1.7-1.5-1.84-2.6-.51-4.3C667,130.39,667.91,131.56,667.12,133.26Z" transform="translate(-564.69 -103.77)"/><path d="M674.73,127.17c-.1,2.46-.1,2.46-1,3.5C672.43,129.22,672.64,128.34,674.73,127.17Z" transform="translate(-564.69 -103.77)"/><path d="M656.46,129.41l-.93,3.25a2.06,2.06,0,0,1-.94-2.66c.13-.44.8-.71,1.23-1.06Z" transform="translate(-564.69 -103.77)"/><path d="M644.79,158.49l-1.47,2.13a1.59,1.59,0,0,1-.34-2.5C643.3,157.65,643.49,157.72,644.79,158.49Z" transform="translate(-564.69 -103.77)"/><path d="M638.61,159.18c-.53-2.39-.21-2.73,2.12-2.16C640.1,157.86,640,159.11,638.61,159.18Z" transform="translate(-564.69 -103.77)"/><path d="M647,160.42c-.27-2.16-.27-2.16,2.07-2.62C648.37,158.8,648.43,160.12,647,160.42Z" transform="translate(-564.69 -103.77)"/><path d="M651.8,158.74c-.7,1.15-.37,2.55-1.92,2.77C649.48,159.2,649.56,159.06,651.8,158.74Z" transform="translate(-564.69 -103.77)"/><path d="M659.58,132l1.41.44c-.3.54-.52.92-.94,1.64l-.86-1.67Z" transform="translate(-564.69 -103.77)"/><path d="M719,166.94h2.18c-.29,2.41-.57,2.71-3.77,3.87l-.67-1.78c-.63-.11-1.58,0-1.83-.36a3.12,3.12,0,0,1-.36-2.21c.39-1.81,1.84-2.55,4.64-2.52a10.69,10.69,0,0,1,.09,1.5A11.19,11.19,0,0,1,719,166.94Z" transform="translate(-564.69 -103.77)"/><path d="M712.36,174.74c-1.55-1.45-1.43-3.11.37-4.9C714.45,170.93,714.34,172.45,712.36,174.74Z" transform="translate(-564.69 -103.77)"/><path d="M689.55,181.34c-.22-1.82.48-2.89,2.24-3.72l1.43,1.32C692.36,180.7,691.47,181.63,689.55,181.34Z" transform="translate(-564.69 -103.77)"/><path d="M696.45,180.27c.21-1-.5-2.24.92-3a1.53,1.53,0,0,1,2.23.5L697,180.67Z" transform="translate(-564.69 -103.77)"/><path d="M684.75,180.23a4.06,4.06,0,0,1,2.21-3.45l1.11,1.47A4.49,4.49,0,0,1,684.75,180.23Z" transform="translate(-564.69 -103.77)"/><path d="M684.55,175.52c.29,2.07.29,2.07-1.42,2.94C682.83,176.68,682.84,176.65,684.55,175.52Z" transform="translate(-564.69 -103.77)"/><path d="M716.48,170.19l-1.32,4.13C713.69,172.64,713.87,172.05,716.48,170.19Z" transform="translate(-564.69 -103.77)"/><path d="M682.17,173.63c1,1.11.21,1.64-.24,2.31C681.22,175.06,681.22,175.06,682.17,173.63Z" transform="translate(-564.69 -103.77)"/></g></g></svg>