<svg xmlns="http://www.w3.org/2000/svg" viewBox="0 0 117.84 137.54"><defs><style>.cls-1{fill:#fff;}</style></defs><title>Zeeplant7</title><g id="Laag_2" data-name="Laag 2"><g id="Laag_1-2" data-name="Laag 1"><path d="M56.7,88.67a2.41,2.41,0,0,1-2.27-.15c-.69-.39-1.36-.82-2-1.23l-6.91-4.21a2,2,0,0,0-1.83-.16c-1.18.46-2.36.93-3.53,1.42a2.44,2.44,0,0,0-1.52,1.71,22.8,22.8,0,0,0-.54,3.29A1.65,1.65,0,0,0,38.83,91l.41.23a9.75,9.75,0,0,1,4,3.25,6.54,6.54,0,0,0,1.31,1.37,21.87,21.87,0,0,0,3.56,2.38c1.11.6,2.23,1.22,3.3,1.89a14.86,14.86,0,0,0,7.65,2.33,8.19,8.19,0,0,1,2.36.27l-.12-.12a2.32,2.32,0,0,1-2,1.09c-.79,0-1.6-.13-2.39-.06A12.39,12.39,0,0,1,50,101.82a76.77,76.77,0,0,1-7.51-4.22,1.5,1.5,0,0,0-1.38-.15A12.14,12.14,0,0,0,37.65,99,17.27,17.27,0,0,1,32,101.5a9.19,9.19,0,0,1-1.39.25.48.48,0,0,1-.37-.21.62.62,0,0,1,0-.46,12.14,12.14,0,0,0,.77-1.74,6.21,6.21,0,0,0-.12-1.4,1.48,1.48,0,0,1,.59-1.23A12.84,12.84,0,0,1,34,95.43c.42-.22.81-.49,1.22-.74a1.52,1.52,0,0,0,.45-1.29c-.15-.46-.36-.9-.47-1.36A3.29,3.29,0,0,1,35,90.63a45,45,0,0,0,.66-4.74,3.19,3.19,0,0,1,.88-1.68,7,7,0,0,1,2.28-1.72c1-.5,2-.95,3-1.47a3.83,3.83,0,0,0,.7-.64.64.64,0,0,0,.1-.87,14.28,14.28,0,0,0-1.76-2.26,19.16,19.16,0,0,1-1.46-1.9,5.34,5.34,0,0,1-.87-3.66c.26-1.73.56-3.47,1-5.17a10.57,10.57,0,0,1,2.51-4.59,6.45,6.45,0,0,1,3.18-2A4.37,4.37,0,0,0,47,59.24a1.13,1.13,0,0,0,.51-.78,29.4,29.4,0,0,0-.07-4.3c-.07-1.27-.19-2.55-.3-3.82a2.78,2.78,0,0,0-.83-1.68c-.33-.35-.62-.73-1-1.07a.83.83,0,0,0-.45-.15,4.17,4.17,0,0,0-2.71.77,14.13,14.13,0,0,0-3.05,3,4.49,4.49,0,0,0-.69,1.25,54.46,54.46,0,0,0-2.11,6.36c-.54,2.33-1.31,4.61-1.72,7a54.85,54.85,0,0,0-1,7.12,45.42,45.42,0,0,1-1.85,9.39c-.31,1.07-.69,2.13-1,3.19a6.06,6.06,0,0,0-.33,2.83,10.47,10.47,0,0,1-.11,3.35c-.49,3.15-.75,6.34-1.27,9.5A14.63,14.63,0,0,1,28.4,104c-.69,1.79-1.43,3.56-2.09,5.35a10.53,10.53,0,0,0-.62,2.31,14.76,14.76,0,0,1-1.17,4.14c-1.47,3.37-2.43,6.93-3.88,10.31a6.17,6.17,0,0,0-.48,1.84,23.76,23.76,0,0,1-2.1,6.85,5.71,5.71,0,0,1-1.16,1.5c-.44.49-1.19.25-1.44-.47-.05-.15-.08-.31-.13-.47.16-.22.33-.43.5-.64l-.29-.07-.09.83c-1,.37-1.29,1.41-2.1,1.92-.12.09-.36.2-.42.15a.73.73,0,0,1-.14-.84c.25-.75.55-1.5.79-2.26s.43-1.53.6-2.31a39.22,39.22,0,0,1,2.17-7.33,16.69,16.69,0,0,0,.85-2.74,95.64,95.64,0,0,1,2.46-9.26,8.3,8.3,0,0,0,.38-4.25,5.78,5.78,0,0,1,.06-2.38c.4-1.87.77-3.76,1.22-5.62A25.26,25.26,0,0,0,22,96.77a28.44,28.44,0,0,1,1.09-5.15,17.14,17.14,0,0,0,.68-2.29c.22-1.43,1-2.72,1-4.18a51.65,51.65,0,0,0,0-6.7,2.15,2.15,0,0,0-.89-1.61c-2.22-1.56-4.42-3.14-6.64-4.69a.62.62,0,0,0-.86.14,6.59,6.59,0,0,0-.82,1.16,9.7,9.7,0,0,0-.88,3.22,11.67,11.67,0,0,1-.56,2.81,1.86,1.86,0,0,1-1.25,1.34A8.29,8.29,0,0,0,10.33,82a3.43,3.43,0,0,1-2.78.33,1.57,1.57,0,0,1-.81-.47,6.36,6.36,0,0,1-1.26-2.55,5.44,5.44,0,0,1,.92.27,3.65,3.65,0,0,0,2.32.32c.62-.11,1.25-.22,1.87-.37A2,2,0,0,0,12,78.3a32,32,0,0,0,1.11-3.16,17.68,17.68,0,0,1,2.17-4.76,12.15,12.15,0,0,0,2-5.32,4.47,4.47,0,0,1,1.3-2.49c.21-.24.38-.51.57-.77a1.75,1.75,0,0,0-.33-1.33,2.54,2.54,0,0,0-1.73-.69,9.15,9.15,0,0,0-3.67.94,7,7,0,0,1-2.76.67,4.34,4.34,0,0,0-.95.12A4.17,4.17,0,0,0,7,63.38c-.83,1.35-1.45,2.83-2.42,4.11a4.75,4.75,0,0,0-.76,3.18c0,1.45.49,2.83.6,4.26a9,9,0,0,0,1.11,3.6,3.14,3.14,0,0,1,.13.94,1.35,1.35,0,0,1-1.11-.79c-.75-2.08-1.68-4.1-2.23-6.26A3.2,3.2,0,0,1,2.26,71a17.78,17.78,0,0,1,2-5.82c.42-.67.75-1.4,1.12-2.1a5.83,5.83,0,0,1,2.81-2.47A12.33,12.33,0,0,1,10,60a25.39,25.39,0,0,0,4.45-1.67,5.32,5.32,0,0,1,4.61-.16l.89.34a2,2,0,0,1,1.19,1.89A5,5,0,0,1,21,61.8c-.82,2.23-1.68,4.45-2.53,6.67A1.58,1.58,0,0,0,19,70.13c.26.18.54.35.81.5a1.49,1.49,0,0,0,.44.17A1.53,1.53,0,0,0,22,70.21a.6.6,0,0,1,0,.12c.88,0,1.34.81,2.1,1a.65.65,0,0,0,.79-.3,2.53,2.53,0,0,0,.26-.9,7.71,7.71,0,0,0,.05-1.44,36.74,36.74,0,0,1,.72-9.53,8.8,8.8,0,0,1,1.34-3.56,13.82,13.82,0,0,0,1.87-3.33,12.71,12.71,0,0,1,3.15-4.76A38.71,38.71,0,0,0,36.41,43a.57.57,0,0,0-.19-.83,4.51,4.51,0,0,0-.82-.48,4.79,4.79,0,0,0-.91-.28,9.93,9.93,0,0,0-1.42-.21,35.28,35.28,0,0,1-6.62-1.07,3.58,3.58,0,0,0-1.89-.1c-.27.09-.63.35-.68.59a7.55,7.55,0,0,0-.09,1.9A25.12,25.12,0,0,1,22.88,51a20.12,20.12,0,0,1-.81,2.25A5.26,5.26,0,0,1,20.3,55.5a2.28,2.28,0,0,1-3.43-.2,33.28,33.28,0,0,1-4.67-5.45,18.57,18.57,0,0,1-1.84-3.36c-.3-.74-.66-1.45-1-2.18a1.66,1.66,0,0,0-1-1A44.33,44.33,0,0,1,2.61,41,7.85,7.85,0,0,1,1,39.89a2.35,2.35,0,0,1-.91-1.63C0,37.15,0,36,0,34.91s.05-2.23.1-3.35a5.58,5.58,0,0,1,1-3.16C3.42,25.34,5.28,22,7.75,19a10.55,10.55,0,0,1,2.07-2c1.58-1.09,3.15-2.18,4.76-3.22a3.55,3.55,0,0,1,1.35-.46,1.84,1.84,0,0,1,1.75.55,6.13,6.13,0,0,1,1.55,3.93,4.33,4.33,0,0,1-.2.92c-.14.53-1.2.77-1.64.42a6.37,6.37,0,0,1-1.27-1.42,8.57,8.57,0,0,0-.9-1.11.78.78,0,0,0-.88-.2,10.68,10.68,0,0,0-4.85,3.75,14.24,14.24,0,0,1-1.19,1.5,13,13,0,0,0-1.88,2.77,10.35,10.35,0,0,1-1.18,2.08,10.23,10.23,0,0,0-2.13,6.23c0,.8-.11,1.59-.1,2.39a2,2,0,0,0,.9,1.61A8.8,8.8,0,0,0,7,38.11a1.36,1.36,0,0,0,1.66-1.25c0-.15.06-.31.07-.47a7.71,7.71,0,0,0,0-1,7.63,7.63,0,0,1,1.42-4.49A16.35,16.35,0,0,1,14,26.68a4,4,0,0,1,.85-.42.91.91,0,0,1,1.15.51c.08.47.18.93.25,1.4A2.51,2.51,0,0,0,17,29.86a36,36,0,0,1,5.19,5.64,2.4,2.4,0,0,0,1.65.84,10,10,0,0,0,1.43.11,65.36,65.36,0,0,1,8.62.48c2.38.24,4.78.31,7.17.44a1,1,0,0,0,.8-.39c.23-.25-.12-.91-.67-1.11a44.87,44.87,0,0,1-4.33-2,21.81,21.81,0,0,0-3.09-1.27,25.44,25.44,0,0,1-6.43-3.15,17.19,17.19,0,0,0-4.28-2.1C22,27,21,26.42,20,26c-.73-.3-1.49-.55-2.24-.83-1.44.05-2.32-.9-3.22-1.79a.61.61,0,0,1-.11-.44c0-.36.28-.48.67-.47.64,0,1.28,0,1.91,0a1.62,1.62,0,0,1,1.28.46,3.7,3.7,0,0,0,1.2.76c2.27.77,4.47,1.74,6.69,2.62a102.61,102.61,0,0,0,11,3.52c2.93.8,5.88,1.49,8.83,2.2.12,0,.3-.1.41-.2a.75.75,0,0,0,.24-.83,4.54,4.54,0,0,0-.69-1.26,67.92,67.92,0,0,1-6.25-9.07,4,4,0,0,0-.94-1.06,1.15,1.15,0,0,0-.88-.25c-.9.32-1.78.73-2.64,1.13s-1.41.75-2.14,1.09a5.79,5.79,0,0,1-3.74.33,1.89,1.89,0,0,1-1.18-1.38c0-.63,0-1.27-.05-1.91a4.56,4.56,0,0,1,1.13-3.08A.65.65,0,0,1,30,15.2c.09,0,.16.27.14.4-.19,1.1-.42,2.19-.6,3.3a2.23,2.23,0,0,0,.35,1.36.78.78,0,0,0,.76.49,2.56,2.56,0,0,0,.93-.09,19.8,19.8,0,0,0,4.33-3,2.15,2.15,0,0,0,.51-.8,2.9,2.9,0,0,0,.19-.92,2.41,2.41,0,0,1,1.56-2.21c.53-.26.59-.65.3-1.18a6.19,6.19,0,0,1-1-2.14A2.67,2.67,0,0,0,35.69,8.3c-.4-.19-.37-.89,0-1.23.11-.1.2-.26.33-.33A5.83,5.83,0,0,0,38.4,4.45a6.14,6.14,0,0,1,3.29-2.66,8.48,8.48,0,0,1,3.22-.9A11.25,11.25,0,0,0,48.62.05,1.8,1.8,0,0,1,50.56,1.1a4.24,4.24,0,0,1,.16,3.26A13.6,13.6,0,0,1,50,6.11a17.81,17.81,0,0,1-2.71,3.94,1.87,1.87,0,0,0-.37,1.36,34.22,34.22,0,0,0,2.3,9.76.49.49,0,0,0,.29.29.59.59,0,0,0,.44-.14,2.32,2.32,0,0,0,.65-1.26,33.87,33.87,0,0,1,2.38-5.74,11.76,11.76,0,0,1,1.34-2A16.74,16.74,0,0,0,55.89,10a1.82,1.82,0,0,0,0-1.82c-.58-1-1.26-1.85-1.84-2.8a4.26,4.26,0,0,1-.52-1.83,2.65,2.65,0,0,1,1.3-2.39,5.36,5.36,0,0,1,2.3-.58c1.28,0,2.56.12,3.82.25a4.09,4.09,0,0,1,1.36.44c.86.42,1.68.94,2.54,1.36a8.55,8.55,0,0,1,4.21,5,3.63,3.63,0,0,1,.16.94,2,2,0,0,1-.68,1.71,3.69,3.69,0,0,1-3,1.12c-1-.11-1.9-.27-2.85-.41a11.46,11.46,0,0,0-1.41-.22,2.29,2.29,0,0,0-2.06,1A9.08,9.08,0,0,0,58.47,13a11.92,11.92,0,0,1-1.83,2.81,16.12,16.12,0,0,0-3.13,5.33.65.65,0,0,0,.29.85.68.68,0,0,0,.86-.15,8,8,0,0,1,1.13-.88,2.47,2.47,0,0,1,2.72,0A19.13,19.13,0,0,1,60.09,22a23.38,23.38,0,0,0,5.31,3.22,18.31,18.31,0,0,1,4.07,2.53c1.26,1,2.54,1.93,3.84,2.86.52.36,1.1.64,1.66,1a1.76,1.76,0,0,0,1.4.08,19.31,19.31,0,0,0,2.19-.95,7.13,7.13,0,0,0,2.33-1.62.64.64,0,0,0,0-.89,1.67,1.67,0,0,0-2.14-.4,6.8,6.8,0,0,1-.83.47,2,2,0,0,1-.93.13,7.5,7.5,0,0,1-3.47-1.53,1.59,1.59,0,0,1-.23-2.14C75.09,22.34,77,20,78.8,17.54A9.72,9.72,0,0,1,81.62,15c.42-.24.79-.54,1.2-.79a6.07,6.07,0,0,0,2-2c.58-1,1.19-1.89,1.82-2.82a2.17,2.17,0,0,1,1.6-.93c.47-.05,1,0,1.43,0A3.27,3.27,0,0,0,91,8,14.25,14.25,0,0,1,94.9,6.18,5.45,5.45,0,0,1,97.27,6,17,17,0,0,1,101,6.9c1.79.7,3.63,1.27,5.38,2s3.45,1.66,5.23,2.38a12.94,12.94,0,0,1,2.76,1.88,7.47,7.47,0,0,1,2.58,3.38c.17.45.36.89.55,1.33a3.36,3.36,0,0,1,.09,2.79,18.81,18.81,0,0,0-1.07,3.67A7.63,7.63,0,0,1,112,29.67a18.08,18.08,0,0,1-7.89,1.76.75.75,0,0,0-.67.55.88.88,0,0,0,.18.9c.21.24.4.5.63.72s.49.41.74.61a6,6,0,0,1,1.79,2.22c.21.43.45.85.62,1.29A45.67,45.67,0,0,0,109.79,43a10,10,0,0,1,1.11,3.14.51.51,0,0,1-.22.38.45.45,0,0,1-.39,0,2.55,2.55,0,0,1-1-1,5.78,5.78,0,0,1-1-2.19A4.41,4.41,0,0,0,106,39.86c-.14-.08-.26-.18-.4-.27A4.26,4.26,0,0,1,104,37.3a10,10,0,0,0-.39-1.38c-.36-.7-.88-1.33-1.26-2-.3-.55-.43-1.2-.75-1.74a1.44,1.44,0,0,0-1.2-.68,19,19,0,0,0-2.39.06,2.44,2.44,0,0,0-1.66.84,8.59,8.59,0,0,1-1.91,2.12,1,1,0,0,1-.91.09.52.52,0,0,1-.25-.37c-.07-.47-.1-.94-.16-1.41a3.13,3.13,0,0,0-.17-.93,2.57,2.57,0,0,0-.63-.69,1,1,0,0,0-.44-.2,21.52,21.52,0,0,0-9.51-.13,6.11,6.11,0,0,0-3.26,1.9,1.49,1.49,0,0,0-.39.84c-.11,1.6-.52,3.15-.57,4.75a.68.68,0,0,0,.51.71,5,5,0,0,0,.9.31,6.28,6.28,0,0,0,1.43.12,18,18,0,0,1,5.72.4,8.47,8.47,0,0,0,1.42.17,2.53,2.53,0,0,0,2.18-.73,3.94,3.94,0,0,1,1.44-1.22.67.67,0,0,1,.86.24,12.68,12.68,0,0,0,2,2.46,1.09,1.09,0,0,1,.29.35c.07.14.15.39.09.45a9.23,9.23,0,0,1-1.11.87c-.8.51-1.81.74-2.32,1.64-.41.72-.2,1.56-.36,2.33,0,.16-.09.31-.13.46l.11-.06c-.28-.13-.66-.19-.81-.41-.55-.77-1-1.6-1.52-2.41a1.53,1.53,0,0,0-1.15-.75A19.88,19.88,0,0,1,84,42.48a6.58,6.58,0,0,0-2.83-.25,32.17,32.17,0,0,1-4.28.13c-1.43-.08-2.86-.08-4.29-.08-2.38,0-4.76,0-7.15,0a34.79,34.79,0,0,0-9,.86c-.39.1-1-.12-1,.54,0,.23.3.55.55.69,5.8,3.3,11.34,7,17.16,10.3,1,.54,1.87,1.21,2.79,1.83,1.31.9,2.6,1.83,3.92,2.7.66.44,1.38.78,2.08,1.16A1.51,1.51,0,0,0,84.06,60h0a4.46,4.46,0,0,1,.82.2c.55.26.57.82,0,1.32.07.15.2.32.17.44-.14.44-.35.86-.5,1.29,0,.06.12.19.19.28.08-.07.21-.14.22-.22.1-.6-.43-1.2,0-1.8.31.33.73.61.89,1,.36.84.56,1.74.88,2.6s.81,2,1.2,3a6.41,6.41,0,0,1,.21.89l.06-.15-.4-.27a1.46,1.46,0,0,0-1.74-.21,5.16,5.16,0,0,1-1.3.56A2.08,2.08,0,0,1,83,68.57c-.62-.5-1.17-1.08-1.76-1.6a4.2,4.2,0,0,0-1.68-.89,7.62,7.62,0,0,0-1.39-.34,5.73,5.73,0,0,1-4.41-2.52c-1-.8-2-1.57-3-2.41a23.21,23.21,0,0,0-4.66-3.32,10.05,10.05,0,0,1-2-1.35,31.37,31.37,0,0,0-4.33-3c-1.77-1.06-3.49-2.21-5.24-3.31a.82.82,0,0,0-.91,0,.85.85,0,0,0-.33.85c.24,1.42.46,2.83.75,4.24a20.7,20.7,0,0,0,.65,2.3A2.45,2.45,0,0,0,56,58.71c1,.54,2,1,3,1.55q2.71,1.52,5.39,3.1a13.2,13.2,0,0,1,1.94,1.39,28.36,28.36,0,0,1,7.22,9.42,3.79,3.79,0,0,1-1,4.36,6.33,6.33,0,0,1-1.15.85,24.45,24.45,0,0,1-2.58,1.24c-1.64.62-3.34,1.09-5,1.77s-2.71,1.66-4.19,2.29a7.88,7.88,0,0,1-3.24.71l-.95,0a.88.88,0,0,0-.79.41.72.72,0,0,0,.06.88c.62.72,1.28,1.41,1.93,2.11ZM17.69,131c-.11-.09-.25-.16-.31-.28s0-.23,0-.34c.29.12.36.35.19.68l-.17.35c-.09-.08-.28-.16-.27-.21C17.22,130.75,17.43,130.69,17.69,131Zm.72-90c.14.26.38.51.39.77A4.57,4.57,0,0,1,18.57,43a4.7,4.7,0,0,0-.18,2.23c-.41-.23-.82-.46-1.25-.67a.82.82,0,0,0-.46-.08,5.39,5.39,0,0,0-2.63.94,1,1,0,0,0-.43.82,2.56,2.56,0,0,0,.06.92,11.1,11.1,0,0,0,3.83,5.29,1.4,1.4,0,0,0,.43.2,1.26,1.26,0,0,0,.47.05.55.55,0,0,0,.47-.64c-.26-1.88-.6-3.74-.84-5.61a5.74,5.74,0,0,1,.19-1.4,1.33,1.33,0,0,1,.89-.2c.81,0,1.12-.4,1.08-1.15,0-.16,0-.32,0-.48a2.42,2.42,0,0,1-.05-.47c.05-1.2-.74-1.6-1.72-1.83A10.34,10.34,0,0,0,19,39.69a2.47,2.47,0,0,0,0-.9.37.37,0,0,0-.27-.23c-.1,0-.3.08-.32.15C18.28,39.46,18.8,40.21,18.41,41Zm1.16,83.11-.27-.21.2.22c.68-1.4,1.6-2.69,1.8-4.31a5.93,5.93,0,0,1,.75-1.7c.2-.42.5-.8.67-1.23a1.86,1.86,0,0,0,0-.91.75.75,0,0,0-.57-.63.67.67,0,0,0-.79.35,48.29,48.29,0,0,0-2.12,5.71A3.35,3.35,0,0,0,19.57,124.07ZM68.12,34.32l-.11.11c.75-.24,1.51-.46,2.25-.72a5.6,5.6,0,0,0,.84-.44,1.09,1.09,0,0,0,.26-1.61,8,8,0,0,0-3.09-2.14,11.51,11.51,0,0,1-4.37-2.77,2.65,2.65,0,0,0-.75-.58,14.38,14.38,0,0,0-4.42-1.65,1.2,1.2,0,0,0-1.22,1.14,13.1,13.1,0,0,0,.1,3.31,9.71,9.71,0,0,0,2.11,5.2c.4.48.68,1.07,1.08,1.55a2,2,0,0,0,1.67.75,7.33,7.33,0,0,0,4-1.15C67,35,67.58,34.65,68.12,34.32ZM42.18,72.73c0,.76,0,.92,0,1.07a4.08,4.08,0,0,0,1,2.63,13,13,0,0,0,4,3.31,41.5,41.5,0,0,0,7.54,3c.3.08.62.12.93.17a3.6,3.6,0,0,0,1.87-.24A5.13,5.13,0,0,0,58.82,82a16.09,16.09,0,0,1,6-2.74,14.35,14.35,0,0,0,3.94-1.66,5.33,5.33,0,0,0,1.46-1.21,1.47,1.47,0,0,0,.3-1.34,11.47,11.47,0,0,0-2.75-4.94,25.9,25.9,0,0,0-9.9-6.46,1,1,0,0,0-.47-.07,1.72,1.72,0,0,0-.86.28c-.52.59-.95,1.26-1.45,1.87a1.12,1.12,0,0,1-1.64-.19,10.71,10.71,0,0,1-.63-1.27c-.23-.59-.36-1.23-.63-1.8a1.67,1.67,0,0,0-1.08-.87,2.4,2.4,0,0,0-2.26.36c-1.08.93-2.16,1.87-3.26,2.78A8.79,8.79,0,0,0,42.53,70C42.33,71.1,42.25,72.22,42.18,72.73ZM100.27,29c2.72-.23,5.11-.42,7.49-.64a9.92,9.92,0,0,0,3.63-1.13,8.47,8.47,0,0,0,.79-.54.74.74,0,0,0,.33-.81.94.94,0,0,0-.5-.76c-.87-.39-1.76-.75-2.65-1.07-1.51-.53-3.09-.88-4.52-1.55a42.11,42.11,0,0,0-7.31-2.21,9.38,9.38,0,0,0-1.9-.22,17.67,17.67,0,0,0-4.76.24,3.06,3.06,0,0,1-1,.08c-.63-.07-1.25-.19-1.87-.31-.39-.07-.59-.33-.49-.69a1.36,1.36,0,0,1,.4-.8,16.18,16.18,0,0,1,2.12-1.07,3.94,3.94,0,0,1,2.35-.19c.78.16,1.54.43,2.31.6a6.24,6.24,0,0,0,1.43.12c.38,0,.58-.25.54-.54a.74.74,0,0,0-.19-.41,19.31,19.31,0,0,0-4.19-2.27,3.93,3.93,0,0,0-2.8-.16c-1.83.58-3.65,1.17-5.46,1.79a6.91,6.91,0,0,0-1.28.63,3.68,3.68,0,0,0-1.52,4.55A4.12,4.12,0,0,0,83,23.78a36.63,36.63,0,0,0,5.12,2.58,7.16,7.16,0,0,0,5.58.32,7.15,7.15,0,0,1,1.39-.29.67.67,0,0,1,.77.42,13.81,13.81,0,0,0,.7,1.25,1.6,1.6,0,0,0,1.16.75C98.7,28.89,99.65,28.92,100.27,29Zm12.86-8,.94-.08c.4,0,.93-.58.88-.95a6.25,6.25,0,0,0-.27-1.38A5.55,5.55,0,0,0,112.61,16c-1.16-.82-2.63-1.14-3.57-2.31a1.87,1.87,0,0,0-.82-.45,17.7,17.7,0,0,1-3.43-1.64,4,4,0,0,0-1.8-.55,20.76,20.76,0,0,1-2.35-.33c-.92-.21-1.82-.52-2.74-.78a7.68,7.68,0,0,0-1.38-.33,6.72,6.72,0,0,0-1.41.12.71.71,0,0,0-.61.63,1,1,0,0,0,.17.89c1.93,2.36,4.08,4.43,7.07,5.41a2.65,2.65,0,0,1,1.57,1.68,2,2,0,0,0,1.38,1.19,3.9,3.9,0,0,0,.46.12,69.22,69.22,0,0,1,7,1.19A7.46,7.46,0,0,0,113.13,20.94Zm-85,55.39c0,1,0,1.91,0,2.86a.53.53,0,0,0,.19.33,1,1,0,0,0,.61-.68,7.7,7.7,0,0,0,.54-2.31c.06-1,.08-1.92.15-2.87a26.23,26.23,0,0,1,.27-3.33,52.66,52.66,0,0,1,1.4-6.06,59,59,0,0,0,2-7.38,17.34,17.34,0,0,1,2.55-6.15c.6-.94,1.19-1.89,1.81-2.82a4.51,4.51,0,0,1,1.38-1.3l1.21-.77.38-.29a1.39,1.39,0,0,0,.18-1.31c-.15-.4-.85-.46-1.25-.08-1.84,1.76-3.69,3.5-5.48,5.31a7.9,7.9,0,0,0-1.33,2,24,24,0,0,1-2.15,3.71,6.78,6.78,0,0,0-1.14,2.61,30.31,30.31,0,0,0-.81,6.64c0,1.43.05,2.87,0,4.3a17.6,17.6,0,0,1-.25,3.33A15,15,0,0,0,28.08,76.33ZM46,21.36a16.82,16.82,0,0,0-.21-2.11c-.59-2.77-1.22-5.52-1.83-8.28-.11-.47-.63-.49-1.12-.07A2.4,2.4,0,0,0,42,12.06c-.27.89-.07,1.87-.5,2.75a2.9,2.9,0,0,0,.4,3.11c1,1.4,1.72,3,2.85,4.32a.77.77,0,0,0,.86.22c.1,0,.16-.26.2-.41A6.57,6.57,0,0,0,46,21.36ZM12.53,38.8a19.06,19.06,0,0,0,.12,3.94,1,1,0,0,0,1.12.65,2.79,2.79,0,0,0,1.62-.92,1.27,1.27,0,0,0,.34-.86,15.16,15.16,0,0,0-.34-1.86A5.5,5.5,0,0,1,16,36c.3-.56.65-1.1.91-1.68a1.68,1.68,0,0,0-1-2,.89.89,0,0,0-.89.1,6.47,6.47,0,0,0-2.45,5C12.52,38.13,12.53,38.77,12.53,38.8Zm56.87.26c1.52-.06,2.48-.08,3.43-.14a3.71,3.71,0,0,0,.91-.24,1.09,1.09,0,0,0,.65-.66,3.9,3.9,0,0,0,.09-2.34,1.31,1.31,0,0,0-1-.84,11.18,11.18,0,0,0-4.54,1.32c-.54.33-1.14.55-1.71.83a4.85,4.85,0,0,0-.83.48.86.86,0,0,0-.36.79.59.59,0,0,0,.63.61ZM59.24,2.62l-1.19.07a.85.85,0,0,0-.54,1.1c.55,1,1.09,1.93,1.69,2.86a1.23,1.23,0,0,0,.76.5,14.73,14.73,0,0,1,3.62,1.11A4.63,4.63,0,0,0,65,8.4c.47,0,.91-.61.73-1a3.86,3.86,0,0,0-.44-.83,15.36,15.36,0,0,0-4.44-3.53A7.38,7.38,0,0,0,59.24,2.62ZM47,2.61c-.49.07-1.13.12-1.75.26A9.47,9.47,0,0,0,41.36,4.6a2.49,2.49,0,0,0-.8,3.34.64.64,0,0,0,.32.31A.7.7,0,0,0,41.73,8c.34-.53.61-1.1,1-1.62a1.81,1.81,0,0,1,2.14-.51c.53.33,1,.73,1.53,1.11a1,1,0,0,0,1.27-.12,3.69,3.69,0,0,0,1.18-3,1.31,1.31,0,0,0-1.23-1.2A5.32,5.32,0,0,1,47,2.61Zm8.81,32.33c-.12-.28-.31-.72-.49-1.16L54.56,32A12.19,12.19,0,0,1,53.49,27c0-.14-.13-.28-.21-.41-.12.1-.3.19-.34.32a15.31,15.31,0,0,0-1.17,3.6A2.49,2.49,0,0,0,52,31.85a2.75,2.75,0,0,0,.54.77A4.41,4.41,0,0,1,53.94,36a2.44,2.44,0,0,0,.07.46c.07.43.61.51,1.15.17A1.23,1.23,0,0,0,55.79,34.94Zm-32,67.28h.07c-.14.62-.28,1.23-.4,1.85a5,5,0,0,0-.09.94.73.73,0,0,0,.42.74.64.64,0,0,0,.79-.34,11.05,11.05,0,0,0,.9-2.17c.49-2.15.9-4.32,1.28-6.49a8,8,0,0,0,0-1.89c0-.37-.25-.6-.51-.57a.82.82,0,0,0-.69.58,2.3,2.3,0,0,0-.18.43Q24.55,98.76,23.76,102.22Z"/><path d="M91.09,46.9a3.76,3.76,0,0,1,.69.62c.33.54.56,1.14.89,1.68a3.28,3.28,0,0,0,.92,1.09,39,39,0,0,1,5.3,4.09A4,4,0,0,0,103,55a8.79,8.79,0,0,0,1.68-.9,6.62,6.62,0,0,1,2.67-1c.11,0,.29.15.37.27a.43.43,0,0,1,0,.4,2.58,2.58,0,0,1-.6.71,22.6,22.6,0,0,0-3.1,2.24,2.07,2.07,0,0,0-.35,1.35c.06.15.11.3.18.44a21.37,21.37,0,0,1,2.21,6.8,18.28,18.28,0,0,1,.32,2.85c0,1.12,0,2.24,0,3.36a7.54,7.54,0,0,1-.25,1.89,22.35,22.35,0,0,1-1.72,4.46A2.77,2.77,0,0,1,103,79.15a6.51,6.51,0,0,1-6-.31,29.23,29.23,0,0,1-4.54-3.53,3.89,3.89,0,0,1-1.31-2.49l-.1,0c.4.25.82.48,1.21.75,1.45,1,2.88,2,4.35,3a12.22,12.22,0,0,0,3.95,1.67,2.58,2.58,0,0,0,2.47-1.12c.28-.57.49-1.18.77-1.75a8.1,8.1,0,0,0,.6-4.68,1.46,1.46,0,0,0-.74-1.17c-1.16-.54-2.34-1-3.52-1.51a1.64,1.64,0,0,0-2.27,1.08c-.19.93-.33,1.88-.55,2.81a14.81,14.81,0,0,1-.66,1.79c0,.13-.25.31-.35.3a2.19,2.19,0,0,1-.82-.3,1.19,1.19,0,0,1-.38-.86,21.49,21.49,0,0,1,.29-6.2,4.25,4.25,0,0,0-.63-2.73,1.62,1.62,0,0,0-.63-.69c-.58-.29-1.17-.44-.71-1.33a1.81,1.81,0,0,0-.64-2.52c-.68-.44-.54-1-.54-1.57a4,4,0,0,0-.39-1.37c-.24-.59-.53-1.16-.79-1.74a1,1,0,0,1,.55-1.17,4.9,4.9,0,0,0,1.77-.68c.08,1.06.15,2.13.23,3.2l2.5,5a1.25,1.25,0,0,0,1.15.62l2.27-.62L99.5,61a1.76,1.76,0,0,1-.58,1.71,12.14,12.14,0,0,1-1.17.81,1,1,0,0,0,0,1.6,9.44,9.44,0,0,0,1.27.64,23.78,23.78,0,0,0,4.18.91,1.09,1.09,0,0,0,1-.86,4.92,4.92,0,0,0,0-.94c-.21-1.1-.45-2.18-.69-3.27A5.21,5.21,0,0,0,101,58.18a1,1,0,0,0-1.3.08c-.22.22-.41.48-.62.71a.76.76,0,0,1-.81.3c-.36-.16-.33-.46-.19-.83.5-1.35.35-1.69-.87-2.14a18.24,18.24,0,0,0-1.82-.55,2.12,2.12,0,0,0-1.78.35,5.38,5.38,0,0,0-.08-1.88c-.08-.46-.09-.93-.13-1.39-1.14-.3-1.78-1.24-2.56-2-.35-.35-.43-.39,0-1.21s0-1.88.36-2.78Z"/><path d="M100.1,42.39a8.42,8.42,0,0,1,.8-1.15,2.67,2.67,0,0,1,2.1-.86.6.6,0,0,1,.61.55.66.66,0,0,1-.18.42,2.67,2.67,0,0,1-2.06.94c-.46,0-.93,0-1.4,0Z"/><path d="M100,42.26c-.48.61-1,1.22-1.44,1.82a.72.72,0,0,1-.86.18.86.86,0,0,1-.41-1.13,2.51,2.51,0,0,1,.27-.37,2,2,0,0,1,2.12-.56c.15,0,.29.12.44.18Z"/><path d="M63.39,95.31c.15.42.31.85.44,1.28a2.31,2.31,0,0,1-.73,2.83c-.11.08-.13.28-.19.42v0a1.83,1.83,0,0,0,.47-1.26,12.5,12.5,0,0,1,.23-3.23Z"/><path d="M62.91,99.84c0,.45,0,.91-.07,1.36a1.28,1.28,0,0,1-1.1,1.25l-.44.11.12.12a1.38,1.38,0,0,1,.71-1.15,1.78,1.78,0,0,0,.77-1.65A.1.1,0,0,1,62.91,99.84Z"/><path d="M100.41,47.29c-.09-.09-.24-.17-.25-.27a.47.47,0,0,1,.48-.56c.09,0,.28.15.28.23A.61.61,0,0,1,100.41,47.29Z"/><path d="M91.19,72.82l-.8-2-.16,0c.29.67.58,1.34.86,2Z"/><path d="M59.2,92.68l.34-.08c-.19-.37-.32-.34-.4.08Z"/><path d="M59.14,92.68a1,1,0,0,0,0-.83c-.12-.26-.22-.53-.33-.8l-.12,0c.08.27.17.54.26.8l.27.79Z"/><path d="M63.6,95.37l-.33.18c.31.2.35.12.13-.24Z"/><path d="M58.79,91.05l-1.24-.73-.07.12a.84.84,0,0,0,1.18.66Z"/><path d="M56.66,88.81l.82,1.62.07-.11c-.29-.53-.57-1.08-.85-1.64C56.7,88.67,56.66,88.81,56.66,88.81Z"/><path d="M89.26,69.76l-1-.92L88.2,69l1,.92Z"/><path d="M90.39,70.8c-.2-.54-.71-.74-1.13-1l0,.15,1,.93Z"/><path d="M21.19,68.86c.25.48.5,1,.75,1.46,0,0,0-.12,0-.11a1.31,1.31,0,0,0-.64-1.27Z"/><path d="M21.32,68.94,21,68.88a1.49,1.49,0,0,0,.21,0Z"/><path class="cls-1" d="M90.23,70.84l-1-.93-1-.92A6.41,6.41,0,0,0,88,68.1c-.39-1-.83-2-1.2-3s-.52-1.76-.88-2.6c-.16-.4-.58-.68-.89-1H85c.52-.5.5-1.06,0-1.32a4.46,4.46,0,0,0-.82-.2,10.7,10.7,0,0,1,.08-1.39c.08-.49,0-.64-.34-.42,0,0,0,.29.08.44a2.49,2.49,0,0,1,.14.44c0,.31,0,.61,0,.92A1.51,1.51,0,0,1,82,60.4c-.7-.38-1.42-.72-2.08-1.16-1.32-.87-2.61-1.8-3.92-2.7-.92-.62-1.82-1.29-2.79-1.83-5.82-3.26-11.36-7-17.16-10.3-.25-.14-.56-.46-.55-.69,0-.66.63-.44,1-.54a34.79,34.79,0,0,1,9-.86c2.39,0,4.77,0,7.15,0,1.43,0,2.86,0,4.29.08a32.17,32.17,0,0,0,4.28-.13,6.58,6.58,0,0,1,2.83.25,19.88,19.88,0,0,0,3.72.79,1.53,1.53,0,0,1,1.15.75c.49.81,1,1.64,1.52,2.41.15.22.53.28.81.41-.34.9.08,1.87-.36,2.78s-.31.86,0,1.21c.78.76,1.42,1.7,2.56,2h0a4.9,4.9,0,0,1-1.77.68,1,1,0,0,0-.55,1.17c.26.58.55,1.15.79,1.74a4,4,0,0,1,.39,1.37c0,.61-.14,1.13.54,1.57a1.81,1.81,0,0,1,.64,2.52c-.46.89.13,1,.71,1.33a1.62,1.62,0,0,1,.63.69,4.25,4.25,0,0,1,.63,2.73,21.49,21.49,0,0,0-.29,6.2,1.19,1.19,0,0,0,.38.86,2.19,2.19,0,0,0,.82.3c.1,0,.3-.17.35-.3a14.81,14.81,0,0,0,.66-1.79c.22-.93.36-1.88.55-2.81A1.64,1.64,0,0,1,100.18,68c1.18.49,2.36,1,3.52,1.51a1.46,1.46,0,0,1,.74,1.17,8.1,8.1,0,0,1-.6,4.68c-.28.57-.49,1.18-.77,1.75a2.58,2.58,0,0,1-2.47,1.12,12.22,12.22,0,0,1-3.95-1.67c-1.47-1-2.9-2-4.35-3-.39-.27-.81-.5-1.21-.75C90.81,72.18,90.52,71.51,90.23,70.84Z"/><path class="cls-1" d="M42.18,72.73c.07-.51.15-1.63.35-2.72a8.79,8.79,0,0,1,3.1-5.24c1.1-.91,2.18-1.85,3.26-2.78a2.4,2.4,0,0,1,2.26-.36,1.67,1.67,0,0,1,1.08.87c.27.57.4,1.21.63,1.8a10.71,10.71,0,0,0,.63,1.27,1.12,1.12,0,0,0,1.64.19c.5-.61.93-1.28,1.45-1.87a1.72,1.72,0,0,1,.86-.28,1,1,0,0,1,.47.07,25.9,25.9,0,0,1,9.9,6.46,11.47,11.47,0,0,1,2.75,4.94,1.47,1.47,0,0,1-.3,1.34,5.33,5.33,0,0,1-1.46,1.21,14.35,14.35,0,0,1-3.94,1.66,16.09,16.09,0,0,0-6,2.74,5.13,5.13,0,0,1-1.29.62,3.6,3.6,0,0,1-1.87.24c-.31,0-.63-.09-.93-.17a41.5,41.5,0,0,1-7.54-3,13,13,0,0,1-4-3.31,4.08,4.08,0,0,1-1-2.63C42.18,73.65,42.18,73.49,42.18,72.73ZM54.07,68.5c.11,0,.27,0,.32,0s.13-.28.08-.36c-.18-.32-.39-.29-.51.07C53.93,68.25,54,68.39,54.07,68.5ZM55,72.34c.07.08.14.22.22.23s.21-.08.32-.12c-.08-.09-.14-.23-.22-.24S55.11,72.29,55,72.34Z"/><path class="cls-1" d="M100.27,29c-.62,0-1.57-.07-2.52-.15a1.6,1.6,0,0,1-1.16-.75,13.81,13.81,0,0,1-.7-1.25.67.67,0,0,0-.77-.42,7.15,7.15,0,0,0-1.39.29,7.16,7.16,0,0,1-5.58-.32A36.63,36.63,0,0,1,83,23.78a4.12,4.12,0,0,1-1.76-2.18,3.68,3.68,0,0,1,1.52-4.55,6.91,6.91,0,0,1,1.28-.63c1.81-.62,3.63-1.21,5.46-1.79a3.93,3.93,0,0,1,2.8.16,19.31,19.31,0,0,1,4.19,2.27.74.74,0,0,1,.19.41c0,.29-.16.53-.54.54a6.24,6.24,0,0,1-1.43-.12c-.77-.17-1.53-.44-2.31-.6a3.94,3.94,0,0,0-2.35.19A16.18,16.18,0,0,0,88,18.55a1.36,1.36,0,0,0-.4.8c-.1.36.1.62.49.69.62.12,1.24.24,1.87.31a3.06,3.06,0,0,0,1-.08A17.67,17.67,0,0,1,95.63,20a9.38,9.38,0,0,1,1.9.22,42.11,42.11,0,0,1,7.31,2.21c1.43.67,3,1,4.52,1.55.89.32,1.78.68,2.65,1.07a.94.94,0,0,1,.5.76.74.74,0,0,1-.33.81,8.47,8.47,0,0,1-.79.54,9.92,9.92,0,0,1-3.63,1.13C105.38,28.54,103,28.73,100.27,29Z"/><path class="cls-1" d="M5.66,79.47a3.14,3.14,0,0,0-.13-.94,9,9,0,0,1-1.11-3.6c-.11-1.43-.56-2.81-.6-4.26a4.75,4.75,0,0,1,.76-3.18c1-1.28,1.59-2.76,2.42-4.11a4.17,4.17,0,0,1,2.67-1.87,4.34,4.34,0,0,1,.95-.12,7,7,0,0,0,2.76-.67,9.15,9.15,0,0,1,3.67-.94,2.54,2.54,0,0,1,1.73.69,1.75,1.75,0,0,1,.33,1.33c-.19.26-.36.53-.57.77a4.47,4.47,0,0,0-1.3,2.49,12.15,12.15,0,0,1-2,5.32,17.68,17.68,0,0,0-2.17,4.76A32,32,0,0,1,12,78.3a2,2,0,0,1-1.37,1.23c-.62.15-1.25.26-1.87.37a3.65,3.65,0,0,1-2.32-.32,5.44,5.44,0,0,0-.92-.27Z"/><path class="cls-1" d="M113.13,20.94a7.46,7.46,0,0,1-.95-.1,69.22,69.22,0,0,0-7-1.19,3.9,3.9,0,0,1-.46-.12,2,2,0,0,1-1.38-1.19,2.65,2.65,0,0,0-1.57-1.68c-3-1-5.14-3.05-7.07-5.41a1,1,0,0,1-.17-.89.71.71,0,0,1,.61-.63,6.72,6.72,0,0,1,1.41-.12,7.68,7.68,0,0,1,1.38.33c.92.26,1.82.57,2.74.78a20.76,20.76,0,0,0,2.35.33,4,4,0,0,1,1.8.55,17.7,17.7,0,0,0,3.43,1.64,1.87,1.87,0,0,1,.82.45c.94,1.17,2.41,1.49,3.57,2.31a5.55,5.55,0,0,1,2.07,2.53,6.25,6.25,0,0,1,.27,1.38c0,.37-.48.92-.88.95Z"/><path class="cls-1" d="M68.12,34.32c-.54.33-1.09.64-1.61,1a7.33,7.33,0,0,1-4,1.15,2,2,0,0,1-1.67-.75c-.4-.48-.68-1.07-1.08-1.55A9.71,9.71,0,0,1,57.61,29a13.1,13.1,0,0,1-.1-3.31,1.2,1.2,0,0,1,1.22-1.14,14.38,14.38,0,0,1,4.42,1.65,2.65,2.65,0,0,1,.75.58,11.51,11.51,0,0,0,4.37,2.77,8,8,0,0,1,3.09,2.14,1.09,1.09,0,0,1-.26,1.61,5.6,5.6,0,0,1-.84.44c-.74.26-1.5.48-2.25.72.06-.29.14-.58.18-.88a1,1,0,0,0-.75-1,2.68,2.68,0,0,0-1.76.28A1.24,1.24,0,0,0,65.23,34a1,1,0,0,0,.68.54A3,3,0,0,0,68.12,34.32Z"/><path class="cls-1" d="M28.08,76.33a15,15,0,0,1,.23-4.28,17.6,17.6,0,0,0,.25-3.33c0-1.43,0-2.87,0-4.3a30.31,30.31,0,0,1,.81-6.64,6.78,6.78,0,0,1,1.14-2.61,24,24,0,0,0,2.15-3.71,7.9,7.9,0,0,1,1.33-2c1.79-1.81,3.64-3.55,5.48-5.31.4-.38,1.1-.32,1.25.08a1.39,1.39,0,0,1-.18,1.31l-.38.29-1.21.77a4.51,4.51,0,0,0-1.38,1.3c-.62.93-1.21,1.88-1.81,2.82a17.34,17.34,0,0,0-2.55,6.15,59,59,0,0,1-2,7.38,52.66,52.66,0,0,0-1.4,6.06,26.23,26.23,0,0,0-.27,3.33c-.07,1-.09,1.91-.15,2.87a7.7,7.7,0,0,1-.54,2.31,1,1,0,0,1-.61.68.53.53,0,0,1-.19-.33C28.07,78.24,28.08,77.28,28.08,76.33Z"/><path class="cls-1" d="M46,21.36a6.57,6.57,0,0,1-.12.69c0,.15-.1.37-.2.41a.77.77,0,0,1-.86-.22c-1.13-1.33-1.85-2.92-2.85-4.32a2.9,2.9,0,0,1-.4-3.11c.43-.88.23-1.86.5-2.75a2.4,2.4,0,0,1,.77-1.16c.49-.42,1-.4,1.12.07.61,2.76,1.24,5.51,1.83,8.28A16.82,16.82,0,0,1,46,21.36Z"/><path class="cls-1" d="M12.53,38.8s0-.67,0-1.3a6.47,6.47,0,0,1,2.45-5,.89.89,0,0,1,.89-.1,1.68,1.68,0,0,1,1,2c-.26.58-.61,1.12-.91,1.68a5.5,5.5,0,0,0-.56,3.71,15.16,15.16,0,0,1,.34,1.86,1.27,1.27,0,0,1-.34.86,2.79,2.79,0,0,1-1.62.92,1,1,0,0,1-1.12-.65A19.06,19.06,0,0,1,12.53,38.8Z"/><path class="cls-1" d="M69.4,39.06l-2.77-.19a.59.59,0,0,1-.63-.61.86.86,0,0,1,.36-.79,4.85,4.85,0,0,1,.83-.48c.57-.28,1.17-.5,1.71-.83a11.18,11.18,0,0,1,4.54-1.32,1.31,1.31,0,0,1,1,.84A3.9,3.9,0,0,1,74.39,38a1.09,1.09,0,0,1-.65.66,3.71,3.71,0,0,1-.91.24C71.88,39,70.92,39,69.4,39.06Z"/><path class="cls-1" d="M59.24,2.62a7.38,7.38,0,0,1,1.59.45A15.36,15.36,0,0,1,65.27,6.6a3.86,3.86,0,0,1,.44.83c.18.36-.26,1-.73,1a4.63,4.63,0,0,1-1.4-.14A14.73,14.73,0,0,0,60,7.15a1.23,1.23,0,0,1-.76-.5c-.6-.93-1.14-1.9-1.69-2.86a.85.85,0,0,1,.54-1.1Z"/><path class="cls-1" d="M47,2.61a5.32,5.32,0,0,0,.61,0,1.31,1.31,0,0,1,1.23,1.2,3.69,3.69,0,0,1-1.18,3A1,1,0,0,1,46.37,7c-.51-.38-1-.78-1.53-1.11a1.81,1.81,0,0,0-2.14.51c-.36.52-.63,1.09-1,1.62a.7.7,0,0,1-.85.28.64.64,0,0,1-.32-.31,2.49,2.49,0,0,1,.8-3.34,9.47,9.47,0,0,1,3.87-1.73C45.85,2.73,46.49,2.68,47,2.61Z"/><path class="cls-1" d="M18.24,45.1a5.19,5.19,0,0,0-.2,1.39c.24,1.87.58,3.73.84,5.61a.55.55,0,0,1-.47.64,1.26,1.26,0,0,1-.47-.05,1.4,1.4,0,0,1-.43-.2,11.1,11.1,0,0,1-3.83-5.29,2.56,2.56,0,0,1-.06-.92,1,1,0,0,1,.43-.82,5.39,5.39,0,0,1,2.63-.94.82.82,0,0,1,.46.08c.43.21.84.44,1.25.66Z"/><path class="cls-1" d="M55.79,34.94a1.23,1.23,0,0,1-.63,1.73c-.54.34-1.08.26-1.15-.17a2.44,2.44,0,0,1-.07-.46,4.41,4.41,0,0,0-1.38-3.42,2.75,2.75,0,0,1-.54-.77,2.49,2.49,0,0,1-.25-1.38,15.31,15.31,0,0,1,1.17-3.6c0-.13.22-.22.34-.32.08.13.22.27.21.41A12.19,12.19,0,0,0,54.56,32l.74,1.74C55.48,34.22,55.67,34.66,55.79,34.94Z"/><path class="cls-1" d="M23.76,102.22q.78-3.47,1.58-6.91a2.3,2.3,0,0,1,.18-.43.82.82,0,0,1,.69-.58c.26,0,.49.2.51.57a8,8,0,0,1,0,1.89c-.38,2.17-.79,4.34-1.28,6.49a11.05,11.05,0,0,1-.9,2.17.64.64,0,0,1-.79.34.73.73,0,0,1-.42-.74,5,5,0,0,1,.09-.94c.12-.62.26-1.23.4-1.85Z"/><path class="cls-1" d="M19.6,124.08a3.27,3.27,0,0,1-.32-2.72,48.29,48.29,0,0,1,2.12-5.71.67.67,0,0,1,.79-.35.75.75,0,0,1,.57.63,1.86,1.86,0,0,1,0,.91c-.17.43-.47.81-.67,1.23a5.93,5.93,0,0,0-.75,1.7c-.2,1.62-1.12,2.91-1.8,4.31Z"/><path class="cls-1" d="M18.4,41c1,.22,1.78.62,1.73,1.82a2.42,2.42,0,0,0,.05.47c0,.16,0,.32,0,.48,0,.75-.27,1.14-1.08,1.15a1.29,1.29,0,0,0-.88.2l.15.17A4.67,4.67,0,0,1,18.57,43a4.57,4.57,0,0,0,.23-1.31c0-.26-.25-.51-.39-.77Z"/><path class="cls-1" d="M85,61.53c-.41.6.12,1.2,0,1.8,0,.08-.14.15-.22.22-.07-.09-.21-.22-.19-.28.15-.43.36-.85.5-1.29,0-.12-.1-.29-.17-.44Z"/><path class="cls-1" d="M18.41,41c.39-.75-.13-1.5,0-2.25,0-.07.22-.16.32-.15a.37.37,0,0,1,.27.23,2.47,2.47,0,0,1,0,.9A10.34,10.34,0,0,1,18.41,41Z"/><path class="cls-1" d="M15.45,135.46l.09-.83.29.07c-.17.21-.34.42-.5.64Z"/><path class="cls-1" d="M17.71,131c-.28-.27-.49-.21-.55.2,0,.05.18.13.27.21l.17-.35Z"/><path class="cls-1" d="M17.6,131c.17-.33.1-.56-.19-.68,0,.11-.08.26,0,.34s.2.19.32.28Z"/><path class="cls-1" d="M19.5,124.08l-.2-.22.28.22Z"/><path class="cls-1" d="M93.64,56.12a2.09,2.09,0,0,1,1.79-.37,18.24,18.24,0,0,1,1.82.55c1.22.45,1.37.79.87,2.14-.14.37-.17.67.19.83a.76.76,0,0,0,.81-.3c.21-.23.4-.49.62-.71a1,1,0,0,1,1.3-.08,5.21,5.21,0,0,1,2.42,3.38c.24,1.09.48,2.17.69,3.27a4.92,4.92,0,0,1,0,.94,1.09,1.09,0,0,1-1,.86A23.78,23.78,0,0,1,99,65.72a9.44,9.44,0,0,1-1.27-.64,1,1,0,0,1,0-1.6,12.14,12.14,0,0,0,1.17-.81A1.77,1.77,0,0,0,99.51,61l.36.21-.29-.11-2.27.62a1.25,1.25,0,0,1-1.15-.62l-2.5-5Z"/><path class="cls-1" d="M93.66,56c-.08-1.07-.15-2.14-.23-3.2h0c0,.46,0,.93.13,1.39a5.38,5.38,0,0,1,.08,1.88S93.66,56,93.66,56Z"/><path d="M84.06,60c0-.31,0-.61,0-.92a2.49,2.49,0,0,0-.14-.44c0-.15-.13-.41-.08-.44.34-.22.42-.07.34.42A10.7,10.7,0,0,0,84.09,60Z"/><path d="M54.07,68.5c0-.11-.14-.25-.11-.34.12-.36.33-.39.51-.07.05.08,0,.27-.08.36S54.18,68.49,54.07,68.5Z"/><path d="M55,72.34c.11,0,.22-.15.32-.13s.14.15.22.24c-.11,0-.23.14-.32.12S55.07,72.42,55,72.34Z"/><path d="M68.12,34.32a3,3,0,0,1-2.21.26,1,1,0,0,1-.68-.54,1.24,1.24,0,0,1,.45-1.19,2.68,2.68,0,0,1,1.76-.28,1,1,0,0,1,.75,1c0,.3-.12.59-.18.88Z"/><path d="M99.58,61.08l.29.11L99.51,61Z"/></g></g></svg>