<svg xmlns="http://www.w3.org/2000/svg" viewBox="0 0 157.48 180.54"><defs><style>.cls-1{fill:#fff;}</style></defs><title>Zeeplant4</title><g id="Laag_2" data-name="Laag 2"><g id="Laag_1-2" data-name="Laag 1"><path d="M109.3,132.84a1.5,1.5,0,0,0-.45-1.3c-3-2.66-5.77-5.54-8.68-8.28-2.57-2.41-4.83-5.11-7.16-7.75-1.58-1.8-3.12-3.64-4.77-5.38A36.64,36.64,0,0,1,81.41,99.2a18,18,0,0,0-2.16-4.79,21.51,21.51,0,0,0-2-3.3.72.72,0,0,0-1.18.06,6.67,6.67,0,0,1-1.75,1.6,2.3,2.3,0,0,0-1.13,1.48,14.72,14.72,0,0,1-.75,2.27,5.28,5.28,0,0,1-1.06,1.58,14.94,14.94,0,0,1-2.22,1.82C67.62,101,66,102,64.34,103a19.52,19.52,0,0,1-3.08,1.31,5.55,5.55,0,0,1-1.41.24c-1.11.11-2.23.21-3.34.3s-2.23.16-3.34.24a.74.74,0,0,0-.71.56,53.15,53.15,0,0,1-3.7,9.33,1.43,1.43,0,0,0-.11.93,22.94,22.94,0,0,0,1.83,5.44c.91,1.68,1.74,3.42,2.74,5.06a24.65,24.65,0,0,1,3.06,7.51c.53,2.33,1.34,4.61,2,6.91.44,1.54.84,3.09,1.22,4.64a15.56,15.56,0,0,1,.43,2.36,123.74,123.74,0,0,1,.74,13.88c-.09,2.72.07,5.44.11,8.16,0,1.12,0,2.23,0,3.35,0,.09-.12.18-.18.27-.09-.12-.24-.22-.27-.36a24.43,24.43,0,0,0-.61-4.26,5.07,5.07,0,0,1-.17-2.83,21.08,21.08,0,0,0,.28-5.26,7.53,7.53,0,0,0-.12-1.43,22.19,22.19,0,0,1-.73-5.21c0-1.59-.36-3.17-.48-4.76a12.29,12.29,0,0,0-1-4.18,13,13,0,0,1-.87-2.74,12.7,12.7,0,0,0-1.23-3.62c-.47-.84-.25-1.91-.8-2.73a.48.48,0,0,0-.42-.15.44.44,0,0,0-.24.36c.36,2.06.14,4.15.38,6.21s.56,4.13.78,6.19c.15,1.43.26,2.87.27,4.31a63.72,63.72,0,0,0,.64,9.56c.13,4.16.33,8.31.06,12.47a19,19,0,0,1-1,5.17.59.59,0,0,1-.32.3c-.27.1-.45-.09-.52-.5a18.27,18.27,0,0,1-.29-3.83c.09-3-.07-6.07.17-9.11a22.58,22.58,0,0,0-.08-5.26A23.28,23.28,0,0,1,53.9,157a20.49,20.49,0,0,0-.18-3.83c-.53-4.28-1-8.57-1.53-12.86a44.29,44.29,0,0,0-1.5-8.49c-.24-.76-.29-1.57-.46-2.36a24.78,24.78,0,0,0-2.24-6.3,1.68,1.68,0,0,0-1.05-.88.59.59,0,0,0-.46.11,2.29,2.29,0,0,0-.64.68,18.15,18.15,0,0,1-3.45,4.57,7.84,7.84,0,0,1-1.49,1.2c-.94.6-1.92,1.16-2.9,1.68a6.5,6.5,0,0,1-2.75.78c-1.44.07-2.88.15-4.32.18a10.12,10.12,0,0,1-3.32-.44,51.74,51.74,0,0,0-6-1.7,3.26,3.26,0,0,1-.89-.36,6.3,6.3,0,0,0-2.77-.65c-1.6,0-3.19-.14-4.79-.23a5.92,5.92,0,0,1-.94-.14,2.67,2.67,0,0,1-1.94-1.27A10.33,10.33,0,0,0,8.38,124c-5-5.09-4.26-4.41-6.38-10.46a12.38,12.38,0,0,1-.7-3.76A14.32,14.32,0,0,0,.66,106,35.09,35.09,0,0,1,0,98.86c.13-1.75.29-3.51.43-5.26a34,34,0,0,1,.68-4.26c.46-2.19.83-4.4,1.26-6.6.21-1.1.45-2.19.71-3.28.23-.93.58-1.83.78-2.77a10.42,10.42,0,0,1,3-5.86,5.78,5.78,0,0,0,.88-1.14A8,8,0,0,1,12,66.75a3.9,3.9,0,0,1,.46-.12,16.23,16.23,0,0,1,5.25.13c.79.16,1.56.39,2.32.61a10.13,10.13,0,0,0,2.84.43,19.9,19.9,0,0,1,4.27.61c2,.44,4.07.85,6.11,1.25a3.71,3.71,0,0,0,2.34-.3,1.71,1.71,0,0,0,.95-1c.26-.92.41-1.87.67-2.79a2.11,2.11,0,0,1,.57-.75.66.66,0,0,1,.43-.17c.28,0,.48.21.55.58a4.37,4.37,0,0,1,.09,1A15.07,15.07,0,0,1,38.61,69a2.77,2.77,0,0,0,1.44,3.22.63.63,0,0,0,.47,0c.31-.12.59-.42.52-.73a6.16,6.16,0,0,0-.58-1.29.87.87,0,0,1,0-.92c.18-.26.39-.5.58-.76-.16-.82.58-1.51.43-2.28-.21-1.14.23-2.2.23-3.31a4.1,4.1,0,0,1,.5-1.33,2.22,2.22,0,0,0,.21-1.39,11.8,11.8,0,0,1,.15-5.22.81.81,0,0,0-.9-.88.76.76,0,0,0-.41.2,3.16,3.16,0,0,0-.45.8,37.13,37.13,0,0,0-1.21,5.61.49.49,0,0,1-.73.38.6.6,0,0,1-.35-.29,4.57,4.57,0,0,1-.23-.9.83.83,0,0,1,0-.47,51.6,51.6,0,0,0,2.13-9.83c.3-2.06.67-4.1,1.17-6.12a26.17,26.17,0,0,1,3.6-7.81,3.08,3.08,0,0,1,.65-.7c1.38-1.08,2.76-2.17,4.18-3.21a4.69,4.69,0,0,1,3.14-1,12.88,12.88,0,0,1,3.32.44c1.07.33,2.14.65,3.21,1a20.37,20.37,0,0,0,5.21.75c4.16.08,8.31,0,12.47,0a1.2,1.2,0,0,0,1.18-1.23c-.15-1-.36-1.89-.45-2.84a2.66,2.66,0,0,1,.22-1.4c1.25-2.41,2.29-4.92,3.53-7.34a21.63,21.63,0,0,1,6.88-7.86,15.08,15.08,0,0,1,1.65-1c.85-.45,1.74-.82,2.56-1.32a73.06,73.06,0,0,1,7.63-4,18.17,18.17,0,0,0,2.9-1.67A20.34,20.34,0,0,1,109,1.46c1.06-.34,2-.93,3.09-1.32a3.82,3.82,0,0,1,1.4-.13,2.26,2.26,0,0,1,1.65.87,4.15,4.15,0,0,1,.55.77c.94,1.68,2,3.28,3.06,4.88s2,3.26,3,4.91a9.22,9.22,0,0,1,.75,1.77c.49,1.52,1,3,1.39,4.58a26.14,26.14,0,0,0,1.51,4,18.7,18.7,0,0,1,1.77,5.94,6.63,6.63,0,0,0,.27,1.41,16.53,16.53,0,0,1,.59,4.74,17.9,17.9,0,0,1-.84,5.66,13.29,13.29,0,0,1-3.12,5.32,6.89,6.89,0,0,1-1.51,1.16c-1.24.73-2.51,1.41-3.78,2.07a14.91,14.91,0,0,1-9.32,1.51,11.32,11.32,0,0,1-4-1.47c-.34-.2-.61-.25-.83,0,0,.07,0,.32.14.43.82,1,1.64,1.95,2.52,2.88a13.45,13.45,0,0,1,2.69,3.94,17.58,17.58,0,0,0,2.56,4,32.48,32.48,0,0,1,3,4.31,8.44,8.44,0,0,1,1.23,4.57c0,.63-.06,1.27-.07,1.91a7,7,0,0,1-2,4.79,51.42,51.42,0,0,1-6.52,6.34c-1.41,1-2.75,2.19-4.13,3.28a4,4,0,0,1-2.65,1c-1.63-.08-3.15.57-4.75.57a32.9,32.9,0,0,0-4.75.66A13.43,13.43,0,0,1,90,87a1.27,1.27,0,0,1-1.16-.68,2.37,2.37,0,0,0-1-.94,7.24,7.24,0,0,0-3.71-.79c-.41,0-.64.16-.59.46,0,.12.17.25.29.29.6.2,1.29.2,1.68.79a.57.57,0,0,1,.08.45.43.43,0,0,1-.37.23,5.92,5.92,0,0,1-.87-.36A4.6,4.6,0,0,0,82,86.17a1.21,1.21,0,0,0-1.1,1.29,10.88,10.88,0,0,0,.3,1.4,49.39,49.39,0,0,0,3.32,7.43,52.65,52.65,0,0,0,4.56,7.32,62.4,62.4,0,0,1,5.16,8.07l-2.27,0a1.16,1.16,0,0,1-.15-1.6l.23-.39a4.46,4.46,0,0,1-2,0,12.47,12.47,0,0,0-.18-1.85,2.88,2.88,0,0,0-2-2.34,2.83,2.83,0,0,0-.2-.89c-.64-1.06-1.33-2.1-2-3.14-.21-.32-.47-.38-.71-.13a.52.52,0,0,0-.07.41,7.71,7.71,0,0,0,2.21,3.5.89.89,0,0,0,.86.16,1.43,1.43,0,0,0,.26,1.3c.49.6,1,1.14,1.52,1.74a1.69,1.69,0,0,1,.34,1.29,2,2,0,0,1,1.88,0,3.86,3.86,0,0,1,0,2,1.08,1.08,0,0,1,.86-.2c.46.07.91.09,1.37.13,1.07,1.18,2.16,2.34,3.21,3.54a1.08,1.08,0,0,1,.09,1.31c-.15.28-.32.55-.46.82.31-.15.37-.26.21-.36l-.12.31a23.6,23.6,0,0,0,5.07,4.65l-.07-.13,1.1,1.1-.13-.06a22.74,22.74,0,0,0,4.38,5.93,9.65,9.65,0,0,1,1.18,1.43,2.17,2.17,0,0,1,.4,1.74,2.81,2.81,0,0,0,.15.88ZM49.93,53.05l-.45-1.45c-.5-.45-1.14-.33-1.72-.44a1.11,1.11,0,0,1-.15-1.45c.06-.13.11-.25.17-.37h-2a6.48,6.48,0,0,0,1-2.6A4.17,4.17,0,0,1,48.42,44a1.23,1.23,0,0,0,.25-1.29c-.09-.46-.13-.92-.19-1.39l-.13.11c.29,0,.66,0,.86.13a7,7,0,0,1,2.6,3.1l.21-.19-.29.16a3.35,3.35,0,0,0,.33-2.74,29,29,0,0,1-1-4.63,5.76,5.76,0,0,0-.31-.88,1.24,1.24,0,0,0-1.22-.47A3.25,3.25,0,0,0,48.11,37c-.81,1.16-1.55,2.37-2.4,3.51a13,13,0,0,0-1.63,3.4,3.59,3.59,0,0,0-.11.93.8.8,0,0,0,.38.82,2.52,2.52,0,0,1,1.45,2.26c0,.46,0,.94.06,1.41l1.85-.05c0,.63.09,1.26.2,1.87.59-.13,1.1.23,1.64.33.17.55.33,1.1.5,1.63l.23-.21ZM107,6.8l.14,2.85a1.14,1.14,0,0,1-.76-.51c-.5-.79-1-1.6-1.5-2.38,0-.09-.31-.09-.45,0a.55.55,0,0,0-.29.31c-.39,1.08.25,2.18,0,3.27a1.11,1.11,0,0,1-.71-.56,11.41,11.41,0,0,0-.81-1.12.66.66,0,0,0-.84-.18c-.08,0-.11.3-.08.44a50.22,50.22,0,0,0,1.92,6.22c.43,1.17,1,2.28,1.41,3.45a4.53,4.53,0,0,1,0,1.38,3.74,3.74,0,0,1-1.3-1.91c-.84-2-1.59-4.09-2.38-6.13-.34-.88-.7-1.75-1.07-2.61-.06-.12-.24-.19-.34-.3a.82.82,0,0,0-1.18.21,5.18,5.18,0,0,0-.15,3.23c.28,1.21.88,2.36.72,3.66a3.44,3.44,0,0,1-.68-.63,8.63,8.63,0,0,1-1.26-3.59,2.77,2.77,0,0,0-.49-1.33,1,1,0,0,0-1.27-.13,1.85,1.85,0,0,0-.68,1.21,6.19,6.19,0,0,0,0,1.43,22,22,0,0,1,.66,4.25c-.24-.18-.58-.32-.72-.57a34.27,34.27,0,0,1-1.54-4,.52.52,0,0,0-.36-.29,4.76,4.76,0,0,0-3.18.81,18.27,18.27,0,0,0-4.24,3.85,3.32,3.32,0,0,0-.72,1.74,15.48,15.48,0,0,0,0,4.3c.11.63.12,1.27.17,1.91-.28-.38-.58-.74-.84-1.14s-.23-.61-.42-.85a2.33,2.33,0,0,0-.74-.53c-.35-.19-.82.11-1.1.67-.78,1.57-1.57,3.13-2.31,4.72a2.34,2.34,0,0,0,0,1.87c.48,1.18,1,2.34,1.55,3.49a1.41,1.41,0,0,0,.69.63q3.12,1.19,6.27,2.28A1.46,1.46,0,0,0,89,36a4.55,4.55,0,0,0,.79-.53,3.32,3.32,0,0,1,.78.52,14.51,14.51,0,0,0,4.33,3.62,21.05,21.05,0,0,1,4.49,3.47,2.27,2.27,0,0,0,1.26.59,4.3,4.3,0,0,1,1.76.64c1.28.92,2.73,1.58,4,2.58a6.35,6.35,0,0,0,3.5,1.32,6,6,0,0,1,.94.11,7.31,7.31,0,0,0,3.29,0c.77-.17,1.55-.31,2.3-.54a6.26,6.26,0,0,0,1.28-.61,1.63,1.63,0,0,0,.78-1.12,7.12,7.12,0,0,0,4-1.36,3,3,0,0,0,1.16-1.47.64.64,0,0,0-.22-.84,6,6,0,0,0-3.14-1,19.65,19.65,0,0,1-6.91-1.82,66.33,66.33,0,0,1-6.95-3.23,11.71,11.71,0,0,0-1.29-.61,1.27,1.27,0,0,0-.94,0,1.34,1.34,0,0,0-.78,1.54c.18.78.84,1.37.8,2.22-.44,0-.87,0-1.3-.12a1.39,1.39,0,0,0-1.48.65c-.18.23-.38.45-.56.67l.12-.11a7.18,7.18,0,0,1-1.29-.5,2.28,2.28,0,0,0-1.77-.14,1.3,1.3,0,0,1-1.23-.49,10.32,10.32,0,0,1-2.07-3.07,4.44,4.44,0,0,1-.17-.91,2.57,2.57,0,0,1,.81.34c.66.61,1.27,1.28,1.92,1.89.45,0,.51,0,.17-.09-.07,0-.18.15-.27.23a2.34,2.34,0,0,0,0-2.21c-.68-1.38-1.46-2.72-2.13-4.11a10,10,0,0,1-.49-1.77c.28.14.67.2.81.42,1,1.47,1.86,3,2.78,4.47a9.35,9.35,0,0,0,1.73,2.27c.09.08.32,0,.47,0a.94.94,0,0,0,.52-1.14A28.85,28.85,0,0,0,97.06,29a28.34,28.34,0,0,1-3.2-5.87C93,21.1,92.39,19,91.72,16.82a4.22,4.22,0,0,1,0-1.42c0-.36.21-.62.46-.65s.31.17.35.3c.73,2.44,1.41,4.9,2.16,7.33a12.25,12.25,0,0,0,1.92,3.84,43.77,43.77,0,0,1,3.83,6.05,11.25,11.25,0,0,0,1.1,1.56.77.77,0,0,0,.86.21,1,1,0,0,0,.42-1.22c-.25-.41-.52-.8-.77-1.21a11.1,11.1,0,0,1-1.8-3.88,4.19,4.19,0,0,1,.81.44c.68.64,1.31,1.35,2,2a1.64,1.64,0,0,0,1.29.44,7.37,7.37,0,0,1,.94,0c0,.79-.11,1.58-.09,2.37a1.39,1.39,0,0,0,.36.85,14.93,14.93,0,0,0,5.13,3.38c1,.4,2.08.78,3.1,1.22a28.53,28.53,0,0,0,10.66,2.26,1.45,1.45,0,0,0,1.21-.65,2.79,2.79,0,0,0,.43-2.69,1,1,0,0,0-.7-.53c-1.26,0-2.54.17-3.8.08a26.77,26.77,0,0,1-3.75-.66,1.31,1.31,0,0,1-.91-1l-.1.1,5.72.5a9.81,9.81,0,0,0,2.86-.14,1.79,1.79,0,0,0,1.28-1.27,8.13,8.13,0,0,0,.15-1.9c-.1-1.11-.4-2.2-.48-3.31a19.44,19.44,0,0,0-1-4.18,21.76,21.76,0,0,0-1.45-3.54A20.72,20.72,0,0,1,122.25,17c-.29-1.24-.66-2.46-1.06-3.67a11.46,11.46,0,0,0-.87-1.71,1.31,1.31,0,0,0-1.63-.47,34.33,34.33,0,0,1-5.3,3.24,6.65,6.65,0,0,0-1.16.83.69.69,0,0,0-.17.43.57.57,0,0,0,.58.56,5.19,5.19,0,0,0,1.42,0,8.2,8.2,0,0,0,1.34-.47l2.69-1a.6.6,0,0,1,.79.32c0,.06-.15.28-.27.37a10.49,10.49,0,0,1-4.37,1.78c-.94.17-1.87.4-2.8.63-.14,0-.25.18-.38.27-.34.23-.55,1-.29,1.28a2.09,2.09,0,0,0,.81.45,2.28,2.28,0,0,0,.94.05,50.46,50.46,0,0,0,6.55-1.37c.1,0,.29.13.39.24s-.07.27-.16.33A14.37,14.37,0,0,1,113.45,21c-.79.11-1.58.2-2.36.34a.81.81,0,0,0-.38.27,1.09,1.09,0,0,0-.21.38.53.53,0,0,0,.34.76,7.14,7.14,0,0,0,4.24.12,32,32,0,0,0,5.07-1.38,2.19,2.19,0,0,1,.92-.09c.13,0,.38.22.36.27a1.44,1.44,0,0,1-1,.93,26.15,26.15,0,0,1-7,1.47c-1.43,0-2.86.08-4.29.17a1.43,1.43,0,0,0-.79.46,4,4,0,0,0-.86,1.7,1.71,1.71,0,0,0,.67,1.68,4.79,4.79,0,0,0,.81.48,35.69,35.69,0,0,0,11.26,2.06,15.22,15.22,0,0,1,1.9.16c.37.05.61.26.58.47s-.25.24-.39.24c-1.28.06-2.55.12-3.83.11a18,18,0,0,1-5.2-.71,45.68,45.68,0,0,0-4.67-1,6.85,6.85,0,0,0-1.43-.12,2.14,2.14,0,0,0-.91.25c-.42.22-.8.51-1.2.77,0-.46-.08-.93-.06-1.4a3.78,3.78,0,0,0-.82-2.61c-.29-.37-.55-.76-.87-1.11a19,19,0,0,1-4-7.87,12.41,12.41,0,0,1-.26-1.83,4.89,4.89,0,0,1,.91,1c.45,1,.82,2,1.18,3.07A12.1,12.1,0,0,0,103,23.35a13.31,13.31,0,0,0,.92,1.07,2.54,2.54,0,0,0,.74.56,1.31,1.31,0,0,0,.87.19c.18-.07.33-.54.28-.79-.27-1.53-.94-3-1-4.57a2.14,2.14,0,0,1,1.11.83c.26.39.43.85.87,1.09a.55.55,0,0,0,.45,0c.12-.06.27-.31.23-.38a8.69,8.69,0,0,1-.78-2.23,22.35,22.35,0,0,0-2-6.28,7.67,7.67,0,0,1-.75-2.72,5.23,5.23,0,0,1,.92,1c.78,1.52,1.47,3.09,2.22,4.62.33.69.72,1.36,1.12,2a.47.47,0,0,0,.43.13.9.9,0,0,0,.48-.7,5,5,0,0,0-.24-2.3,11.39,11.39,0,0,1-.93-3.59l1,.89c.27.23.54.27.73.05a.62.62,0,0,0,0-.81c-.43-.6-.89-1.19-1.35-1.76-.08-.09-.29-.07-.43-.1a9.23,9.23,0,0,0,0-1.39,1.54,1.54,0,0,0-1.1-1.36c.21-.81.13-1.16-.21-1.06a.36.36,0,0,0-.21.31A.72.72,0,0,0,107,6.8ZM97.88,84.62l-.34-.09.25.14a3.77,3.77,0,0,1,1.73-.53c.7-.06,1-.56,1.31-1.1a5.47,5.47,0,0,0,1.21.38c.27,0,.91.08.51-.58,0-.07-.27-.06-.41,0-.42.08-.84.19-1.26.28-.68.24-1.35.47-2,.72A2,2,0,0,0,97.88,84.62ZM79.43,60.45c-.29-.07-.29-.12,0-.13l-.09.23a6.6,6.6,0,0,0-1.5,1.53,1.78,1.78,0,0,0-.29,1.61c-.88-.08-.88-.08-1.21.38a2.59,2.59,0,0,0-.25.39c0,.12-.12.32-.06.39a.44.44,0,0,0,.74-.07,7.58,7.58,0,0,0,.67-1.22ZM53.58,38.06a8,8,0,0,1-.44-2.66c0-.39-.23-.61-.42-.49s-.3.45-.28.79A2.68,2.68,0,0,0,53.64,38a2.06,2.06,0,0,0-.3,1.29c0,.41.19.59.51.46a.45.45,0,0,0,.11-.39C53.86,38.91,53.71,38.49,53.58,38.06Zm64-28.54c.33,0,.39,0,.16-.18l0,.29a2.49,2.49,0,0,0-1.83.3,5.92,5.92,0,0,1-3.13,1c-.59,0-1,.78-.79,1.46a1,1,0,0,0,1,.71A8.67,8.67,0,0,0,117,10.79,1.62,1.62,0,0,0,117.53,9.52ZM69.28,62.31l.32-.09h-.21a5.06,5.06,0,0,1-1.32,1.33c-.53.32-1.07.64-1.58,1a.77.77,0,0,0-.26.85,4.3,4.3,0,0,0,1.39,2.39.84.84,0,0,0,.87.15c.53-.19.92-.62.79-1a6.05,6.05,0,0,1,0-3.67A3.28,3.28,0,0,0,69.28,62.31ZM13.76,78.72a11.85,11.85,0,0,0-2.66-2.63A5.94,5.94,0,0,0,9,75a1.44,1.44,0,0,0-1.25.45,2.18,2.18,0,0,0-.45,1.75.82.82,0,0,0,.53.69,53.4,53.4,0,0,0,6,.88l.19,0Zm27.18-3a2.69,2.69,0,0,0,1,2.05,3.39,3.39,0,0,0,2.11.94,21.59,21.59,0,0,1,3.76.38,22.67,22.67,0,0,0,2.3.56,5,5,0,0,0,1.39,0,.51.51,0,0,0,.37-.28.48.48,0,0,0-.19-.39c-1.66-1-3.59-1.15-5.32-1.88-1.89-.18-3.6-1.22-5.54-1.19l-.09-.14Zm65.81-5.94a1.11,1.11,0,0,0,.85.13c.33-.08.54-.25.57-.54,0-.07-.18-.2-.28-.21a.63.63,0,0,0-.41.13c-.22.17-.42.39-.63.59a37.53,37.53,0,0,1-3.44,2.49c-1.36.79-2.85,1.34-4.27,2-1,.48-2,1-3,1.48a.68.68,0,0,0-.27.35.34.34,0,0,0,.1.32,1.8,1.8,0,0,0,1.36.19,18.06,18.06,0,0,0,7.74-3.37,5.63,5.63,0,0,0,1.53-1.79A1.94,1.94,0,0,0,106.75,69.8ZM92.87,55a2.75,2.75,0,0,0,.37-2.63,1.26,1.26,0,0,0,1.25-.49,15,15,0,0,0,2.65-7.06,2.45,2.45,0,0,0-.83-2.14,16,16,0,0,0-4.38-2.84,1.15,1.15,0,0,0-1.25.38,6.78,6.78,0,0,0-.45.84,51.61,51.61,0,0,1-4.74,9.85,13.55,13.55,0,0,0-.88,1.69q-1.31,3.08-2.56,6.15a.76.76,0,0,0,0,.47.71.71,0,0,0,.24.39.52.52,0,0,0,.44,0,2.82,2.82,0,0,0,.79-.51,36.82,36.82,0,0,0,7-10.73c.3-.73.51-1.5.85-2.21a1.67,1.67,0,0,1,1.06-.89,3.32,3.32,0,0,1,1.4-.17,1.32,1.32,0,0,1,.94.92,5.85,5.85,0,0,1-.19,2.36c-.36,1.38-.79,2.75-1.17,4.14a2.93,2.93,0,0,0-.4,2.61,1,1,0,0,0-.9.09,3.25,3.25,0,0,0-.7.63A56,56,0,0,1,87.2,61c-1.48,1.65-2.79,3.46-4.17,5.21-.09.12-.16.27-.25.4-.32.45-.21,1.17.18,1.19a1.09,1.09,0,0,0,.87-.28c1.73-1.85,3.41-3.76,5.29-5.48a11.82,11.82,0,0,0,2.65-3.92A26.75,26.75,0,0,0,92.87,55Zm-71,21.11c.66-1.07,1.33-2.12,2-3.21a7.35,7.35,0,0,0,.49-1.31,1.13,1.13,0,0,0-.84-1.4l-.47,0c-.79,0-1.33.39-1.35,1-.05,1.25-.07,2.5-.1,3.76A3.09,3.09,0,0,0,22,76.22a2.53,2.53,0,0,0-.89.12,13.18,13.18,0,0,0-2.92,2.22,1,1,0,0,0-.15.86,20.53,20.53,0,0,0,2.66,4.3A2.53,2.53,0,0,1,21.09,85c.84.92,2,1.58,2.44,2.84.11.3.48.4.8.45a7.38,7.38,0,0,1,.94.16,2.2,2.2,0,0,0,2.13-.72,12,12,0,0,0,2.69-3.9q1.35-3,2.9-6a9.52,9.52,0,0,0,.73-1.75,14.33,14.33,0,0,0,.46-2.33,1.17,1.17,0,0,0-.37-.81,3.62,3.62,0,0,0-2.15-.9,1.48,1.48,0,0,0-1.59.76c-.79,1.73-1.6,3.45-2.36,5.19a21.42,21.42,0,0,1-3.39,5.16,4.2,4.2,0,0,1-1.95,1.31c-.45.14-.87.37-1.27.52a7.2,7.2,0,0,1,1.39-2.45,18.3,18.3,0,0,0,2.44-3.48c.78-1.72,1.48-3.47,2.19-5.22a2.87,2.87,0,0,0,.14-.93.63.63,0,0,0-.38-.71c-.11,0-.32.1-.4.21-1,1.6-2,3.23-3,4.81A15.24,15.24,0,0,1,22,79a.62.62,0,0,1-.82,0,.58.58,0,0,1-.22-.36A6.09,6.09,0,0,1,21.88,76.09Zm25.06-19a2.16,2.16,0,0,0,.33,2.23,12,12,0,0,0,.93,1.08A38.59,38.59,0,0,0,58,67.07a9.47,9.47,0,0,0,5.59.65,1.31,1.31,0,0,0,.94-.94,1.52,1.52,0,0,0-.78-1.55,5,5,0,0,0-.91-.26c-1.42-.17-2.83-.33-4.25-.44-3.18-.26-3.47-.37-6.13-2.23a24.2,24.2,0,0,1-4-3.4c-.53-.58-1.09-1.14-1.67-1.66-.35.15-.38.21-.11.13C46.81,57.34,46.87,57.2,46.94,57.12Zm59.8,11.54a2.61,2.61,0,0,0-2.31,0,63.37,63.37,0,0,1-11.5,4.73,38.75,38.75,0,0,0-5.71,2.44.58.58,0,0,0-.26.38c0,.24.2.47.58.43,2.55-.29,4.87-1.5,7.41-1.88a8.06,8.06,0,0,0,1.79-.66c.44-.18.87-.39,1.31-.6s.55-.32.85-.42a18.75,18.75,0,0,0,6.92-4.15c.2-.19.6-.19.9-.27.1-.3.12-.68.31-.88a34.49,34.49,0,0,0,3.79-4.31,4.26,4.26,0,0,1,1.51-1.12c.41-.25.79-.55,1.18-.82,0,1.13-.65,2.12-.63,3.26a4.07,4.07,0,0,1-.32,1.4c-.62,1.64-1.21,3.3-1.91,4.91a13.24,13.24,0,0,1-6.51,6.76,18.5,18.5,0,0,1-6.84,2c-1,.07-1.91.23-2.87.25-3.84.05-7.64.56-11.46.94-1.11.11-2.21.3-3.31.48a.5.5,0,0,0-.33.32c-.06.25.11.51.45.66a7.12,7.12,0,0,0,2.8.57,31.51,31.51,0,0,1,7.11.94,2,2,0,0,0,.47.1,12.16,12.16,0,0,0,1.91,0,14.23,14.23,0,0,0,2.31-.59,51.1,51.1,0,0,1,7.36-2.12,7.43,7.43,0,0,0,3.8-1.95,60.62,60.62,0,0,1,5.53-4.59,12.78,12.78,0,0,0,1.74-1.63,5.46,5.46,0,0,0,1.69-4.33,4,4,0,0,1,.14-1.41,4.38,4.38,0,0,0-.65-3.65,5,5,0,0,1-.56-1.32,3.64,3.64,0,0,1,0-.88,1.26,1.26,0,0,1-1.25-.44c-1.07-1.36-2.12-2.75-3.18-4.12-.48-.61-1-1.22-1.49-1.82a1,1,0,0,0-1.27-.06,6.84,6.84,0,0,0-1.78,3.76.92.92,0,0,0,.85.94l1.87.16a1.19,1.19,0,0,1,.9,1,7.4,7.4,0,0,1,0,.94,9.49,9.49,0,0,1-1.27,4A3.65,3.65,0,0,0,106.74,68.66ZM85.37,49.08H85l.23.12c.29-.56.54-1.15.88-1.68,1.64-2.6,2.27-5.54,3-8.47,0-.11-.12-.31-.24-.4a18.67,18.67,0,0,0-5.57-2.56,3.54,3.54,0,0,0-.47-.07,1.58,1.58,0,0,0-1.19.65c-.56,1.3-1.11,2.62-1.68,3.92a2.36,2.36,0,0,1-1,1c.09-.63.13-1.27.27-1.89.2-.93.49-1.85.72-2.78a1.77,1.77,0,0,0-1.17-1.84,13.94,13.94,0,0,0-1.41-.26,9.45,9.45,0,0,0-2.86.1,17.81,17.81,0,0,1-6.67,0,7.58,7.58,0,0,0-1.9-.14,15.87,15.87,0,0,0-4.21.82,1.33,1.33,0,0,0-.68.64,85.27,85.27,0,0,0-2.89,9.11,9,9,0,0,0-.31,3.32,3.39,3.39,0,0,0,.15.45c.14.49.71.95,1,.79a1.54,1.54,0,0,0,.74-.51,20.85,20.85,0,0,0,2-6.36c.13-.79.21-1.59.4-2.36A1.77,1.77,0,0,1,63,39.52a4.93,4.93,0,0,1,1.75-.71c.37-.06,1,.37,1.07.74A6.8,6.8,0,0,1,65.89,41,32.77,32.77,0,0,1,62.53,51.4c-.56,1.15-1.2,2.25-1.79,3.38a1.94,1.94,0,0,0-.08,1.4,4,4,0,0,0,1.2,2,1,1,0,0,0,1.27,0,7.92,7.92,0,0,0,.57-.76,24,24,0,0,0,1.84-4.93c1-3.52,2-7.05,3.17-10.53.36-1.06.78-2.09,1.17-3.14a1.24,1.24,0,0,1,1.17-.66,11.27,11.27,0,0,0,2.84.14c1,0,1.56.48,1.55,1.36,0,1.28,0,2.56,0,3.83A16.11,16.11,0,0,1,73.84,50c-.46,1-.9,2-1.43,3a19,19,0,0,0-1.48,4,7.83,7.83,0,0,0-.15,1.89.54.54,0,0,0,.26.39.46.46,0,0,0,.38-.12,2.37,2.37,0,0,0,.58-.73c.45-1.19.83-2.41,1.29-3.6.93-2.38,1.87-4.75,2.72-7.15A36.54,36.54,0,0,1,78.42,42c.14-.25.47-.39.72-.59a4,4,0,0,1-.34,2.32c-1.62,3.62-2.72,7.44-4.15,11.13a8.26,8.26,0,0,0-.72,3.22.48.48,0,0,0,.75.25,51.36,51.36,0,0,0,4.62-7.74A28.62,28.62,0,0,0,81.94,44a14.19,14.19,0,0,1,.56-1.82,3.09,3.09,0,0,1,1.2-1.43,1.19,1.19,0,0,1,1.6.46,6.45,6.45,0,0,1,.33,3.28c-.14.94-.4,1.86-.57,2.79A3.33,3.33,0,0,0,85.37,49.08Zm-74.2,74.64a2.85,2.85,0,0,0,.37.85A14.28,14.28,0,0,0,13,125.85a2.8,2.8,0,0,0,1.73.72c1.43.05,2.86.09,4.3.09a11.47,11.47,0,0,1,3.28.48,74.52,74.52,0,0,0,8.34,2,9.26,9.26,0,0,0,3.32,0c.63-.11,1.25-.24,1.88-.34a7.7,7.7,0,0,0,3-1.34,10,10,0,0,0,1.48-1.19,36,36,0,0,1,4.14-4c.54-.39.65-1.86.27-2.69a.66.66,0,0,0-.79-.37,7.09,7.09,0,0,0-2,1.19,19.77,19.77,0,0,1-5.62,2.58c-1.23.33-2.43.77-3.65,1.13-2.91.84-5.82,1.65-8.92,1.29a12.66,12.66,0,0,0-2.38.08,16.76,16.76,0,0,1-6.14-.71c-.91-.26-1.8-.63-2.72-.89a6.65,6.65,0,0,0-1.42-.1Zm61.45-49a1.45,1.45,0,0,0,1.16.71c1.12,0,2.24,0,3.35-.15a21.11,21.11,0,0,0,5.18-.93c2.4-.87,4.88-1.47,7.26-2.44a12.31,12.31,0,0,0,4.15-2.28,6.7,6.7,0,0,1,1.63-1c.57-.29,1.19-.48,1.75-.78A3.44,3.44,0,0,0,98.21,67c1.22-1.67,2.4-3.38,3.57-5.1a5.12,5.12,0,0,0,.62-1.29c.8-2.43,1.89-4.74,2.91-7.07a1.66,1.66,0,0,0-.24-1.8,44.23,44.23,0,0,0-5-5.17c-.12-.11-.27-.18-.39-.28-.39-.31-1.08-.25-1.24.13-.67,1.62-1.3,3.26-2,4.85S94.83,54.41,94,56a6.85,6.85,0,0,0-.4.87A17.82,17.82,0,0,1,87.93,65a1.8,1.8,0,0,0-.3.37c-.22.29-.29.6-.1.82a.64.64,0,0,0,.86.08,29.31,29.31,0,0,0,7.4-6.73,7.78,7.78,0,0,0,1-1.64c.33-.72.52-1.51.85-2.23a20.16,20.16,0,0,1,1.17-2.08,3.18,3.18,0,0,1,1.9-1.37,1,1,0,0,1,1.28,1,20,20,0,0,1-1.06,4.16,12.26,12.26,0,0,1-1.71,3.41,25.74,25.74,0,0,1-9.73,8.32c-.85.44-1.74.81-2.61,1.21-1.73.82-3.43,1.72-5.2,2.45s-3.88,1.43-5.85,2.1a4.66,4.66,0,0,1-1.41.15c-.63,0-1.27-.06-1.91-.08l-.17-.17ZM40.17,78.16a2.85,2.85,0,0,0-.37.87,26.7,26.7,0,0,0,.64,8.07,13.3,13.3,0,0,0,.84,2.73c1,2,1.67,4.14,2.51,6.2a3.63,3.63,0,0,0,.73,1.21,17.72,17.72,0,0,0,5.76,4.2c.59.25,1.18.48,1.77.74a5.62,5.62,0,0,0,2.32.46c1.92,0,3.83,0,5.74,0a5.76,5.76,0,0,0,2.32-.5,11.46,11.46,0,0,0,1.74-.8A62.77,62.77,0,0,0,70.49,97a5.44,5.44,0,0,0,1.88-3.75,4.26,4.26,0,0,0-.23-1.39.57.57,0,0,0-.28-.35.73.73,0,0,0-.89.16c-.73.84-1.45,1.69-2.13,2.57a12.69,12.69,0,0,1-4.41,3.6c-1.71.86-3.47,1.6-5.23,2.36a7.18,7.18,0,0,1-2.8.52,21.23,21.23,0,0,1-5.2-.65,1.08,1.08,0,0,1-.7-.6.48.48,0,0,1,.3-.72,4.08,4.08,0,0,1,1.87-.23,8.2,8.2,0,0,0,3.71-.81c.87-.39,1.73-.81,2.58-1.24a6.41,6.41,0,0,0,1.21-.78,36.28,36.28,0,0,0,5.94-6.19,4.27,4.27,0,0,0,.44-.85,2.21,2.21,0,0,0,.11-1.39c.42,0,.47-.12.16-.26l0,.36a3,3,0,0,0-.94-.07c-1.08.3-2.14.65-3.2,1a5.16,5.16,0,0,0-2.61,2c-.75,1-1.45,2.11-2.25,3.1a4.13,4.13,0,0,1-1.93,1.38,43.29,43.29,0,0,1-7.44,1.77c-.27,0-.59-.18-.86-.32a.61.61,0,0,1-.26-.83.5.5,0,0,1,.32-.25A15.48,15.48,0,0,0,50,95a43.69,43.69,0,0,0,5.09-1.32,4.2,4.2,0,0,0,2.82-3,.58.58,0,0,0-.11-.46c-.21-.22-.44-.52-.7-.55-1.43-.19-2.84.35-4.29.15s-3.19-.27-4.78-.4l-1-.1A8.45,8.45,0,0,1,43.49,88a2.1,2.1,0,0,1-.52-.76c-.19-.35,0-.64.37-.69a4.19,4.19,0,0,1,1.41-.06,45.36,45.36,0,0,0,7.63.67A11.85,11.85,0,0,0,54.76,87c1.58-.27,3.14-.6,4.7-.94a2,2,0,0,0,.77-.51.43.43,0,0,0,.1-.4.5.5,0,0,0-.35-.29c-1.11.05-2.23.16-3.34.2a27.36,27.36,0,0,0-5.7.71,4,4,0,0,1-2.79-.39c-1.71-.86-3.38-1.81-5.06-2.73a1.35,1.35,0,0,1-.37-.3c-.24-.3-.24-.59,0-.79a.49.49,0,0,1,.41-.12c1.71.49,3.11,1.61,4.7,2.34a5.13,5.13,0,0,0,3.71.48,21.38,21.38,0,0,1,5.68-.78c.48,0,1,0,1.43-.06a8.27,8.27,0,0,0,3.19-1,.58.58,0,0,0,.24-.38c0-.27-.17-.46-.57-.47-2.4-.07-4.79-.15-7.19-.19-1.92,0-3.85.09-5.67-.69-1.27-.14-2.54-.31-3.81-.43a7.9,7.9,0,0,1-4.37-1.77,1.1,1.1,0,0,0-.4-.24c-.31.27-.32.35-.07.19C40.11,78.42,40.13,78.27,40.17,78.16ZM2.59,101.05c0,.26.11,1.21.22,2.16a1.27,1.27,0,0,0,1.4,1c2-.64,4-1.21,5.92-1.93a25.61,25.61,0,0,1,6.51-1.53,51,51,0,0,0,6.12-1.11,5.71,5.71,0,0,0,3.2-2,1.53,1.53,0,0,0,.15-1.33,5,5,0,0,0-1.58-1.77,2.07,2.07,0,0,0-.86-.38,18,18,0,0,0-7.57.64,24.05,24.05,0,0,1-2.78.7,12,12,0,0,1-6.16-.12c-.76-.24-1.54-.38-2.32-.56a1.26,1.26,0,0,0-1.5.87A14.44,14.44,0,0,0,2.59,101.05Zm10.89,13a53.57,53.57,0,0,0,6.76-.59,24.72,24.72,0,0,1,2.86-.28,28.94,28.94,0,0,0,10.12-2.73c.14-.07.27-.17.41-.24a1.56,1.56,0,0,0,.57-1.67,7.57,7.57,0,0,0-1.27-2,1.27,1.27,0,0,0-1.26-.51,39.1,39.1,0,0,0-5.53,1.55,71.67,71.67,0,0,1-6.92,1.94,14.22,14.22,0,0,1-3.31.48,57.83,57.83,0,0,1-9.58-.29,17.24,17.24,0,0,0-1.91-.07c-.34,0-.87.58-.92.93a2.7,2.7,0,0,0,.38,1.83,1.34,1.34,0,0,0,.7.61c1.07.29,2.16.53,3.26.74A16.32,16.32,0,0,0,13.48,114.07ZM5.19,105.6c-.44,0-.91,0-1.37,0a.54.54,0,0,0-.39.23.64.64,0,0,0,.22.83,2,2,0,0,0,1.32.45,39.14,39.14,0,0,1,6.67.24,39.11,39.11,0,0,0,5.73.11,16.4,16.4,0,0,0,4.23-.63c2-.56,4-1.17,6-1.57a19.1,19.1,0,0,0,2.67-1,1.07,1.07,0,0,0,.51-1.2,8.22,8.22,0,0,0-1.38-2.49,1.21,1.21,0,0,0-1.66-.4,15.06,15.06,0,0,1-7.56,2.69l-1,.11A47.25,47.25,0,0,0,9,105.11l-.45.15A8.17,8.17,0,0,1,5.19,105.6Zm22,18.05a10,10,0,0,0,1.4-.14,70.65,70.65,0,0,0,7.84-2.07,10.08,10.08,0,0,0,3.76-2,10.69,10.69,0,0,0,1.31-1.38,1.81,1.81,0,0,0-1-2.67,2,2,0,0,0-.92,0,2.81,2.81,0,0,0-.87.38,20.83,20.83,0,0,1-7.13,2.61c-1.56.28-3.09.73-4.63,1.15a53.93,53.93,0,0,1-6.06,1.29c-.47.07-.94.13-1.41.23a4.17,4.17,0,0,0-.91.28.73.73,0,0,0-.47.74.62.62,0,0,0,.57.61C21.28,123,24,123.29,27.14,123.65Zm-12.2-5.05a2.25,2.25,0,0,0,.45,0c2.66-.47,5.4-.45,8-1.25A31.57,31.57,0,0,1,30,115.93a19.81,19.81,0,0,0,2.82-.56A12.22,12.22,0,0,0,36.31,114a5.86,5.86,0,0,0,1-1,.83.83,0,0,0-.24-1.22c-.27-.15-.63-.36-.87-.28-1.2.4-2.38.91-3.57,1.35a29.91,29.91,0,0,1-7.42,1.8c-3.81.4-7.61.91-11.4,1.43a22,22,0,0,1-5.25.13,6.57,6.57,0,0,0-2.38,0,.71.71,0,0,0-.5.67.65.65,0,0,0,.24.4.82.82,0,0,0,.42.2l7.57,1C14.27,118.56,14.59,118.57,14.94,118.6ZM41,110.88c.07.15.14.29.22.43A16.38,16.38,0,0,0,44,114.63a2,2,0,0,0,2.59-.17,7,7,0,0,0,.79-1.19,20.57,20.57,0,0,0,1.52-5A8.29,8.29,0,0,1,50,105.11a1.26,1.26,0,0,0-.3-1.31c-.13-.09-.26-.18-.4-.26s-.54-.34-.82-.49a1.54,1.54,0,0,0-1.76.19c-.62.73-1.26,1.44-1.84,2.2s-1.29,1.83-2,2.73-1.16,1.51-1.72,2.27A1.33,1.33,0,0,0,41,110.88ZM11.75,88.75c-.63,0-1.27.06-1.9.14a7.06,7.06,0,0,1-3.29-.33,4.27,4.27,0,0,0-.94-.14,1.46,1.46,0,0,0-1.11.77,5.2,5.2,0,0,0-.32,2.34,1.8,1.8,0,0,0,.87,1.06,6.18,6.18,0,0,0,1.38.29c2.23,0,4.46-.11,6.68-.18a3.76,3.76,0,0,0,1-.14c2.29-.7,4.68-.93,7-1.44.31-.07.56-.92.34-1.24a1.58,1.58,0,0,0-1.11-.82c-1.1-.09-2.24.07-3.32-.11A22.43,22.43,0,0,0,11.75,88.75ZM36.94,84a6.58,6.58,0,0,0-1-3.78c-.08-.12-.22-.29-.33-.29a.89.89,0,0,0-.76.51c-.45.84-.9,1.67-1.31,2.53A17.51,17.51,0,0,1,30,88c-.68.66-1.32,1.37-2,2.06a3,3,0,0,0-.74,1.72c-.06.47-.14.94-.19,1.41a1.72,1.72,0,0,0,1.34,1.72,2.24,2.24,0,0,0,.93,0,3.61,3.61,0,0,0,2.23-1.67,55.51,55.51,0,0,1,4.93-7.57A2.49,2.49,0,0,0,36.94,84Zm3.83,23.23c.52-.72.88-1.24,1.27-1.74.24-.3.31-.57.07-.8-.08-.07-.29-.05-.42,0-.77.19-1.36.84-2.19.89a1,1,0,0,1-.84-.31c-.21-.24-.13-.49.2-.74a2.11,2.11,0,0,1,.36-.31,16.08,16.08,0,0,0,4-3.34A1.16,1.16,0,0,0,43,99.18a6.24,6.24,0,0,0-2.2-.86,1,1,0,0,0-.89.21,33.06,33.06,0,0,1-5,3.66,1.17,1.17,0,0,0-.33,1.28A12.4,12.4,0,0,0,38,108.53a.73.73,0,0,0,.41.24,1.81,1.81,0,0,0,.9-.06A4.06,4.06,0,0,0,40.77,107.19ZM38.22,92.88c-.28-1-.45-1.58-.63-2.19a.62.62,0,0,0-.73-.49,1,1,0,0,0-.76.48c-.33.55-.67,1.09-1,1.66a5.7,5.7,0,0,1-2.72,2.59,7.39,7.39,0,0,0-2.07,1.16.68.68,0,0,0-.17.87,11.6,11.6,0,0,0,2.54,3.43,1.68,1.68,0,0,0,1.79.12,5.63,5.63,0,0,0,2.12-1.9c.68-1.08,1.29-2.2,1.88-3.33a1.72,1.72,0,0,0,.06-1.39C38.42,93.44,38.26,93,38.22,92.88ZM71.47,42.25c0-.41,0-.73-.07-1,0-.15-.12-.39-.22-.41a.67.67,0,0,0-.73.41,7.58,7.58,0,0,0-.42.86c-1.13,3.5-2.33,7-3.22,10.53a43.53,43.53,0,0,1-2,5.91c-.23.59-.46,1.19-.67,1.79a1.48,1.48,0,0,0-.05.47.7.7,0,0,0,.43.77.74.74,0,0,0,.83-.33,7.2,7.2,0,0,0,1-2.66,27.25,27.25,0,0,1,2-5.88c.39-.87.83-1.72,1.2-2.61A23.08,23.08,0,0,0,71.47,42.25ZM5.54,85a.87.87,0,0,0,1,.74,29.22,29.22,0,0,1,4.29-.21c1.43,0,2.87-.09,4.3-.13.41,0,.6-.23.54-.64a.89.89,0,0,0-.15-.42A3.42,3.42,0,0,0,13.55,83a51.12,51.12,0,0,1-6.21-2.47.6.6,0,0,0-.83.26A8.24,8.24,0,0,0,5.54,85ZM54.91,35.1a30.86,30.86,0,0,0,1.65,7.33c.09.33.41.42.76.28a.64.64,0,0,0,.36-.3,27.6,27.6,0,0,0,1.76-5.83,1.67,1.67,0,0,0-.69-1.64,7.87,7.87,0,0,0-2.5-1.27,1.05,1.05,0,0,0-1.3,1A3.57,3.57,0,0,1,54.91,35.1ZM19.39,71.73c0-.17,0-.49,0-.81s-.58-.87-1-.88c-.64,0-1.08.18-1.2.55a37.1,37.1,0,0,0-1.16,3.62A1.91,1.91,0,0,0,17,76.27a.67.67,0,0,0,.87,0,2.46,2.46,0,0,0,.85-1.11A12.14,12.14,0,0,0,19.39,71.73ZM41.83,50.52a2.7,2.7,0,0,0,.35.83,5,5,0,0,0,1.94,1.23.8.8,0,0,0,.46,0,1.35,1.35,0,0,0,1.11-.69.91.91,0,0,0,0-.9c-.56-.93-1.13-1.86-1.7-2.78-.4-.65-1-.59-1.43.09A3.67,3.67,0,0,0,41.83,50.52Zm17.29,9h0c-.47,0-.95,0-1.43,0A.73.73,0,0,0,57,60a.88.88,0,0,0,.25.89,3.75,3.75,0,0,0,3.88,1.2,1,1,0,0,0,.6-1.11,1.94,1.94,0,0,0-1.66-1.48A7.69,7.69,0,0,0,59.12,59.52Zm-6.95,16c.13,0,.43,0,.72-.12a.47.47,0,0,0,.34-.71,5,5,0,0,0-3.42-2.1.79.79,0,0,0-.82.88c.26,1.35.85,1.93,2.09,2C51.38,75.59,51.69,75.56,52.17,75.56Zm4.47-21.2c-.15,0-.31.06-.45.11-.3.1-.59.23-.9.3a1.06,1.06,0,0,0-.74.52c-.13.23.22.8.69,1.1a11.13,11.13,0,0,0,1.62,1,9.28,9.28,0,0,0,1.81.48.61.61,0,0,0,.61-.9c-.88-.67-1.26-1.81-2.2-2.42A2.07,2.07,0,0,0,56.64,54.36ZM110.18,6.84c-.22-1.29-.05-2.24-.45-3.13a.5.5,0,0,0-.75-.3,1.27,1.27,0,0,0-.9,1.43,10.85,10.85,0,0,0,1.48,3.38.57.57,0,0,0,.4.2.44.44,0,0,0,.44-.58C110.32,7.38,110.2,6.93,110.18,6.84Zm-47.53,70c-.39,0-1,.08-1.65.15-.14,0-.38.14-.39.23a.75.75,0,0,0,.46.76,2.94,2.94,0,0,0,2.29.35,2.51,2.51,0,0,0,.8-.47.64.64,0,0,0,.22-.39c.06-.31-.14-.5-.54-.55Zm38.17-10.42c.12.1.22.25.35.28a.62.62,0,0,0,.46-.07,3.64,3.64,0,0,0,1.75-2.7.54.54,0,0,0-.19-.38.48.48,0,0,0-.41-.11,4.52,4.52,0,0,0-2,2.54A1.1,1.1,0,0,0,100.82,66.41ZM11.33,69.92a1.56,1.56,0,0,0-.44.08,1,1,0,0,0-.45,1.52,1.56,1.56,0,0,0,.72.47c.36.14.66-.3.67-.91S11.65,70,11.33,69.92ZM112.49,4.22c-.07-.14-.12-.34-.23-.39a.6.6,0,0,0-.42.12.68.68,0,0,0-.3.81c.11.37.39.51.69.3A.78.78,0,0,0,112.49,4.22Zm-38,78.45a.66.66,0,0,0-.56.58.87.87,0,0,0,.77,1,.65.65,0,0,0,.75-.83C75.29,82.84,74.94,82.59,74.5,82.67Zm40.18-79.4c-.13,0-.3,0-.38.1a.75.75,0,0,0,.23,1.11.57.57,0,0,0,.77-.21c.07-.09,0-.29,0-.42A.93.93,0,0,0,114.68,3.27ZM61.34,72.36c-.13.07-.38.15-.37.2a.81.81,0,0,0,.53.69.48.48,0,0,0,.41,0,.45.45,0,0,0,.12-.39A.62.62,0,0,0,61.34,72.36ZM74,69.14c-.11,0-.28-.14-.32-.1-.31.33-.24.52.17.48C73.91,69.51,74,69.27,74,69.14ZM114.68,6.9l-.36.21c.1.09.19.26.3.27.38,0,.55-.11.42-.35S114.8,6.94,114.68,6.9Z"/><path d="M136.8,140.93a40.07,40.07,0,0,1,.61-6.52c.43-2.19.55-4.44,1-6.63a7.63,7.63,0,0,0,.09-1.91,42.8,42.8,0,0,0-.91-7.13c-.28-1.24-.6-2.48-.9-3.72a1.17,1.17,0,0,0-1.58-.54,6.12,6.12,0,0,0-.83.47c-2,1.65-4.17,3-6.22,4.47a16.91,16.91,0,0,1-3.76,2.1,4.4,4.4,0,0,1-4.54-.45c-.65-.47-1.26-1-1.88-1.48a3.6,3.6,0,0,1-1.35-1.92,4.46,4.46,0,0,0-.87-1.69,5.06,5.06,0,0,1-.86-1.7,25.45,25.45,0,0,1-1.54-6.5,32.86,32.86,0,0,0-.66-3.78,14.08,14.08,0,0,1,0-5.71c.23-.93.43-1.87.63-2.8a17.78,17.78,0,0,0,.36-1.88c.36-3.5,1.1-6.94,1.78-10.38.41-2,.59-4.11.92-6.16a2.5,2.5,0,0,1,1-1.61,1.46,1.46,0,0,1,1.32-.4,121.77,121.77,0,0,1,11.75,4.08A13.69,13.69,0,0,1,133.73,81a10.49,10.49,0,0,0,1.57,1.09c3.56,1.86,6.64,4.43,9.95,6.65a14.12,14.12,0,0,1,2.88,2.51,60.31,60.31,0,0,0,5.31,5.53,6,6,0,0,1,1.68,2.31,6.72,6.72,0,0,0,2.28,3,.43.43,0,0,1,.06.39c-.33.73-1.13,1.13-1.36,1.94-.18.61-.34,1.23-.54,1.84a6,6,0,0,1-2.68,3.25,9.35,9.35,0,0,1-3.59,1.26,5.79,5.79,0,0,1-1.9-.09,16.51,16.51,0,0,0-5.25,0,5.48,5.48,0,0,0-1.34.47,1.86,1.86,0,0,0-.91,1.58c.33,1.88.59,3.79,1,5.65a19.31,19.31,0,0,1,.45,4.27c0,2.24.1,4.48,0,6.71-.07,2.07-.27,4.14-.2,6.22a4.89,4.89,0,0,1-.12,1.43c-.4,1.56-.4,3.17-.67,4.74a14.14,14.14,0,0,1-1.64,5,1,1,0,0,1-.38.26c-.28.16-.52.05-.74-.29a4.09,4.09,0,0,1-.73-1.75c0-.48-.1-1-.11-1.43C136.79,142.68,136.8,141.88,136.8,140.93Zm-13-53.46c-.34.13-.4.09-.18-.14l.11.32a1.56,1.56,0,0,1-1.62.58l-.08,0Zm-.45,17.28a1.5,1.5,0,0,0,.83-1.33,2,2,0,0,0,1.39.06,50.87,50.87,0,0,0,6.66-3.66,2.38,2.38,0,0,0,.56-.75,1,1,0,0,0,.09-.46,1.22,1.22,0,0,0-1.58-1.21,10.11,10.11,0,0,0-4.37,2.79,17.11,17.11,0,0,0-2.63,3.36,1.48,1.48,0,0,0-.83,1.34Zm-1,12.45.06-.17-.06.32-.19,0S122.41,117.21,122.39,117.2ZM121,98.49c.37,0,.41.08.13.18l0-.3-.61,1.77a2.41,2.41,0,0,0-1.32.54l-.09-.07a1.59,1.59,0,0,0,1.31-.62C120.68,99.48,120.86,99,121,98.49Zm-4.44-1.43a2.58,2.58,0,0,1,1.67-.75,2.12,2.12,0,0,1,.65-1.23,5.58,5.58,0,0,1,1.13-.87,17.53,17.53,0,0,0,5-4.3.76.76,0,0,0,.16-.43.57.57,0,0,0-.13-.4.45.45,0,0,0-.37-.11,10,10,0,0,0-1.59,1,47.13,47.13,0,0,0-4.63,4.07,1.12,1.12,0,0,0-.25.4,3.17,3.17,0,0,0-.16.91c0,.31.13.61.15.91a1.76,1.76,0,0,0-1.55.91Zm.51,4.14c-.35-.11-.39-.18-.12-.2l0,.3-2.14-.07c.39.11.4.23,0,.35a2,2,0,0,1,0-.35A4.14,4.14,0,0,0,117.11,101.2Zm-.77,6.07a1.08,1.08,0,0,0,1.37-.7,5.86,5.86,0,0,0,2-1.29q2.3-2.06,4.52-4.19c1.26-1.2,2.49-2.43,3.71-3.67a.45.45,0,0,0-.13-.78c-.1-.06-.31,0-.44.11a43.71,43.71,0,0,0-3.59,3.07c-1.38,1.06-2.73,2.15-4.08,3.26a6.79,6.79,0,0,0-1,1,8.33,8.33,0,0,0-.77,1.19,1.79,1.79,0,0,0-.12,1.36,1.31,1.31,0,0,0-1.35.71c0,.23-.85.49,0,.7A.67.67,0,0,0,116.34,107.27Zm27.31.47,0-.23v.38c-.15,0-.34-.11-.42,0S143.28,108,143.65,107.74ZM120.58,77.61a.66.66,0,0,0,.37.78,3.87,3.87,0,0,0,1.85.12c.51,0,.49-.25,0-.43l-.45-.13a3.13,3.13,0,0,0-1.84-.19l-.08-.07Zm13.23,6a3.89,3.89,0,0,0-2.37-2,.74.74,0,0,0-.44,0,.57.57,0,0,0-.36.22c0,.08,0,.32,0,.36a7.44,7.44,0,0,0,3.27,1.33,6,6,0,0,0,.08.94,1.15,1.15,0,0,0,1,.9,7.62,7.62,0,0,0,.93.18c.37,0,.58-.18.57-.51a.73.73,0,0,0-.13-.43A2.71,2.71,0,0,0,133.81,83.57Zm7.39,10-.23-.15.09.28a2.36,2.36,0,0,1,.67-1.24c.55-.57,1.13-1.12,1.65-1.71a.84.84,0,0,0,.07-.89c-.13-.35-.87-.37-1.28-.06a3.5,3.5,0,0,0-1.3,1.94,2.3,2.3,0,0,0,0,.94A6.65,6.65,0,0,0,141.2,93.53Zm2,5.07.19.19-.1-.32a4.32,4.32,0,0,0,.94.06,13.86,13.86,0,0,0,4.89-1.72.9.9,0,0,0,.34-.33.92.92,0,0,0,0-.87.71.71,0,0,0-.77-.47,5.48,5.48,0,0,0-2.93,1.41A12.38,12.38,0,0,1,143.17,98.6Zm-3,32.49c0-.29-.06-.59-.07-.88s.07-.3.07-.44-.11-.17-.16-.26a3.52,3.52,0,0,0-.07.79,5.2,5.2,0,0,0,.23.86,1.59,1.59,0,0,0-1.44,1.58c-.17,1.56-.4,3.11-.7,4.66a11.57,11.57,0,0,0-.11,4.69.6.6,0,0,0,.27.37.67.67,0,0,0,.78-.19,2.18,2.18,0,0,0,.59-1.26,43.19,43.19,0,0,0,.53-6.11C140.07,133.64,140.12,132.38,140.14,131.09ZM126.2,105.6c.38-.16.43-.25.14-.23a2.85,2.85,0,0,0,0,.35,4.46,4.46,0,0,0-1.39.17,19.91,19.91,0,0,0-7.17,6,4.52,4.52,0,0,0-.51,1.3.59.59,0,0,0,.37.76.73.73,0,0,0,.84-.23c.39-.5.77-1,1.12-1.52a8.12,8.12,0,0,1,2.77-2.54,3.24,3.24,0,0,1,.89-.23c0,.15,0,.34-.11.45a16.94,16.94,0,0,1-1.24,1.43,11.85,11.85,0,0,0-3,4.83c-.15.45,0,1.23.34,1.27a1,1,0,0,0,.86-.31c.84-.95,1.69-1.9,2.5-2.88a28.82,28.82,0,0,1,3.72-3.69c1.23-1,2.39-2.12,3.68-3,1-.72,2.25-1.18,3.36-1.8a6.6,6.6,0,0,0,1.11-.88,1.24,1.24,0,0,0,.13-1.33,1.68,1.68,0,0,0-.77-.48,1.84,1.84,0,0,0-.93,0,5.15,5.15,0,0,0-2.05,1.18c-2,1.8-4.3,3.28-6.46,4.91a4.57,4.57,0,0,1-1.32.45,3.74,3.74,0,0,1,1-1.56C124.78,107.23,125.75,106.65,126.2,105.6Zm13.34-6c-.2.41-.18.49,0,.21,0,0-.12-.21-.19-.31a1.39,1.39,0,0,0,1.32-.3c.6-.52,1.12-1.13,1.72-1.65q2.16-1.87,4.35-3.71a1.12,1.12,0,0,0,.15-1.66c-.33-.41-.94-.56-1.22-.28a12.93,12.93,0,0,1-1.34,1.33A14.35,14.35,0,0,0,139.54,99.64Zm-3.11-1.48A.85.85,0,0,1,136,97c.58-1.11,1.23-2.19,1.9-3.25a44,44,0,0,0,2.83-4.89,2,2,0,0,0,.09-.92.78.78,0,0,0-.56-.66.65.65,0,0,0-.85.21c-.64,1.08-1.21,2.2-1.84,3.29-1,1.76-1.71,3.71-3.1,5.25-.24.27-.07,1,.31,1.26a2.09,2.09,0,0,0,.78.44,1.32,1.32,0,0,1,.81.41c.17.47-.26.76-.33,1.16h.34a1.87,1.87,0,0,0-.13-.4A.5.5,0,0,1,136.43,98.16ZM152.59,106a21.52,21.52,0,0,0-2.76.37,7.22,7.22,0,0,0-1.35.34,3.08,3.08,0,0,0-1.5,1,.62.62,0,0,0,0,.84,1.69,1.69,0,0,0,.69.57,5.5,5.5,0,0,0,5.47-1.67,1.44,1.44,0,0,0,.21-.41C153.47,106.78,152.92,106,152.59,106Zm-17.09.84a1.28,1.28,0,0,0-.47,0,16.1,16.1,0,0,0-6.59,3.7c-.45.44-1,.82-1.4,1.28a.52.52,0,0,0,0,.8.69.69,0,0,0,.86,0c.54-.33,1.07-.68,1.6-1,1.2-.77,2.41-1.53,3.6-2.32a8.43,8.43,0,0,1,2.64-1.07.49.49,0,0,0,.38-.74A.87.87,0,0,0,135.5,106.84Zm-11.57,12.38c.1.11.18.25.3.31a.6.6,0,0,0,.42.1,16.36,16.36,0,0,0,6.67-4.29.55.55,0,0,0,0-.79.81.81,0,0,0-.87-.22,17.48,17.48,0,0,0-5.37,2.9A3.4,3.4,0,0,0,123.93,119.22Zm2.88-39.93c-.29.09-.68.09-.87.29A11.31,11.31,0,0,0,123.75,82c0,.07.14.28.26.37a.81.81,0,0,0,.43.14,3.66,3.66,0,0,1,1.35.13c.46.25.21.85.25,1.31a3.73,3.73,0,0,0,.09.46c.09.31.31.61.64.6a1.09,1.09,0,0,0,.75-.45,8.67,8.67,0,0,0,1.2-3.53,1.22,1.22,0,0,0-.27-.87A2.5,2.5,0,0,0,126.81,79.29Zm-8,18.46c.09.12.17.31.29.36a.63.63,0,0,0,.45-.1,34.55,34.55,0,0,0,4.23-3.07,7.93,7.93,0,0,0,1.19-1.44c.06-.08,0-.31-.09-.4a.4.4,0,0,0-.38-.06q-2.2,1.39-4.39,2.83a3.75,3.75,0,0,0-1.24,1.41A1.41,1.41,0,0,0,118.76,97.75Zm2.61-14a2,2,0,0,0-.44.07,1,1,0,0,0-.37.29,9.37,9.37,0,0,0-1.9,3.22.83.83,0,0,0,.1.87c.22.21.52.13.78-.12a13.41,13.41,0,0,0,2.15-2.49,9.28,9.28,0,0,0,.39-.85C122.25,84.4,121.83,83.8,121.37,83.78Zm8.53,2.34c-.09,0-.52.23-.94.44a1,1,0,0,0-.34.31,1,1,0,0,0-.14.88,1.58,1.58,0,0,0,.94,1,.84.84,0,0,0,.86-.15,1.08,1.08,0,0,0,.34-.33c.28-.57.52-1.15.78-1.72.15-.32.23-.69,0-.87C131,85.28,130.59,85.69,129.9,86.12ZM146.61,102c.12.1.22.28.35.29a5.41,5.41,0,0,0,3.17-.65.53.53,0,0,0,.18-.42.48.48,0,0,0-.23-.32,2.85,2.85,0,0,0-2.27-.08,1.78,1.78,0,0,0-1.13.76A1.37,1.37,0,0,0,146.61,102ZM128,94.3a3,3,0,0,0,1.67-.69.7.7,0,0,0,.13-.84.68.68,0,0,0-.78-.39,2.25,2.25,0,0,0-1.49,1,.54.54,0,0,0,.06.8C127.67,94.27,127.85,94.27,128,94.3Zm6.66,16.31a4.68,4.68,0,0,0-1,.08,1.3,1.3,0,0,0-.92,1c-.05.3.65.43,1.29.25a1.15,1.15,0,0,0,.74-.55.68.68,0,0,0,.13-.44C134.91,110.82,134.74,110.71,134.65,110.61Zm-1.17-20.44c-.14.07-.32.11-.39.22a7.41,7.41,0,0,0-.69,1.18.57.57,0,0,0,.3.76.62.62,0,0,0,.79-.2,1.74,1.74,0,0,0,.3-1.7C133.75,90.32,133.58,90.25,133.48,90.17Zm5.3,28.46a6.39,6.39,0,0,0,.18.87.38.38,0,0,0,.33.17.52.52,0,0,0,.27-.33,3.11,3.11,0,0,0,0-.91,2.25,2.25,0,0,0-.33-.82C139.1,117.34,138.78,117.93,138.78,118.63Zm12.66-20.46c-.36,0-.62.14-.52.35a.62.62,0,0,0,.74.21c.12,0,.32-.11.33-.19C152,98.25,151.8,98.16,151.44,98.17ZM116.7,90.72c-.08-.11-.15-.31-.25-.33-.37-.07-.58.13-.54.52,0,.14.12.39.19.39A.58.58,0,0,0,116.7,90.72Zm.23-5.53c-.06.29,0,.49.32.46a.5.5,0,0,0,.28-.26c.14-.32,0-.52-.32-.51C117.13,84.89,117.05,85.06,116.93,85.19ZM119,81.47a.68.68,0,0,0-.2.79c.15.44.37.46.6,0a.66.66,0,0,0-.07-.81A.35.35,0,0,0,119,81.47Zm34,19.84c.12.09.23.24.35.25s.24-.13.37-.2c-.11-.09-.22-.25-.34-.26S153.09,101.23,153,101.31Z"/><path d="M113.68,137.15a9,9,0,0,1-2.42-2.53,1.63,1.63,0,0,1-.21-1.26l-.12.11a5.92,5.92,0,0,1,2.59,3.36,1.6,1.6,0,0,1,0,.44Z"/><path d="M120.5,144.85a1.77,1.77,0,0,1-1.54-.7,1.23,1.23,0,0,1-.27-1.22l-.1.1A1.81,1.81,0,0,1,120.4,145Z"/><path d="M115.31,137.83c0,.3,0,.6.09.9,0,.45.12.9.18,1.35l.11-.1a1,1,0,0,1-.5-1.37,7.4,7.4,0,0,0,.21-.81Z"/><path d="M102.21,122c.13-.33.34-.48.61-.38s.21.19.31.28l.13-.06-1.12,0Z"/><path d="M103.13,121.87c.45.35.43.68,0,1l.13.06c0-.37,0-.75,0-1.13Z"/><path d="M109.22,132.86l.4,0a1.2,1.2,0,0,1,1.31.63l.12-.11c-.57-.19-1.13-.37-1.72-.54Z"/><path d="M115.4,137.8a1.57,1.57,0,0,1-1.71-.65l-.13.12c.56.19,1.13.39,1.72.57Z"/><path d="M116.14,141.26l-.45-1.28-.11.1c.47.33.47.33.46,1.12Z"/><path d="M116,141.2l1.38.85.13-.13c-.41-.31-.76-.75-1.39-.66Z"/><path d="M118.69,142.93c-.68,0-.91-.5-1.13-1l-.14.13c.54.14,1,.36,1.17,1Z"/><path d="M121.61,145.64a.85.85,0,0,1-1.11-.79l-.1.11a1.06,1.06,0,0,1,1.08.79Z"/><path d="M121.48,145.75c.2.15,0-.1.12-.1Z"/><path class="cls-1" d="M105.12,30.75c.4-.26.78-.55,1.2-.77a2.14,2.14,0,0,1,.91-.25,6.85,6.85,0,0,1,1.43.12,45.68,45.68,0,0,1,4.67,1,18,18,0,0,0,5.2.71c1.28,0,2.55-.05,3.83-.11.14,0,.37-.13.39-.24s-.21-.42-.58-.47a15.22,15.22,0,0,0-1.9-.16A35.69,35.69,0,0,1,109,28.55a4.79,4.79,0,0,1-.81-.48,1.71,1.71,0,0,1-.67-1.68,4,4,0,0,1,.86-1.7,1.43,1.43,0,0,1,.79-.46c1.43-.09,2.86-.13,4.29-.17a26.15,26.15,0,0,0,7-1.47,1.44,1.44,0,0,0,1-.93c0-.05-.23-.27-.36-.27a2.19,2.19,0,0,0-.92.09,32,32,0,0,1-5.07,1.38,7.14,7.14,0,0,1-4.24-.12.53.53,0,0,1-.34-.76,1.09,1.09,0,0,1,.21-.38.81.81,0,0,1,.38-.27c.78-.14,1.57-.23,2.36-.34a14.37,14.37,0,0,0,5.85-1.91c.09-.06.19-.28.16-.33s-.29-.27-.39-.24a50.46,50.46,0,0,1-6.55,1.37,2.28,2.28,0,0,1-.94-.05,2.09,2.09,0,0,1-.81-.45c-.26-.24,0-1.05.29-1.28.13-.09.24-.24.38-.27.93-.23,1.86-.46,2.8-.63a10.49,10.49,0,0,0,4.37-1.78c.12-.09.3-.31.27-.37a.6.6,0,0,0-.79-.32l-2.69,1a8.2,8.2,0,0,1-1.34.47,5.19,5.19,0,0,1-1.42,0,.57.57,0,0,1-.58-.56.69.69,0,0,1,.17-.43,6.65,6.65,0,0,1,1.16-.83,34.33,34.33,0,0,0,5.3-3.24,1.31,1.31,0,0,1,1.63.47,11.46,11.46,0,0,1,.87,1.71c.4,1.21.77,2.43,1.06,3.67a20.72,20.72,0,0,0,1.64,4.48,21.76,21.76,0,0,1,1.45,3.54,19.44,19.44,0,0,1,1,4.18c.08,1.11.38,2.2.48,3.31a8.13,8.13,0,0,1-.15,1.9,1.79,1.79,0,0,1-1.28,1.27,9.81,9.81,0,0,1-2.86.14l-5.73-.49a2.32,2.32,0,0,0-2.26-.72,1.67,1.67,0,0,0-1.42-.92,4.2,4.2,0,0,0-1.76.24,1.42,1.42,0,0,0-.63-1.16,1.64,1.64,0,0,0-1.27-.28.53.53,0,0,0-.26.34.59.59,0,0,0,.11.44,4,4,0,0,0,2.19.55,7.65,7.65,0,0,0,3.15.67,1.7,1.7,0,0,0,2.26.73,1.31,1.31,0,0,0,.91,1,26.77,26.77,0,0,0,3.75.66c1.26.09,2.54-.09,3.8-.08a1,1,0,0,1,.7.53,2.79,2.79,0,0,1-.43,2.69,1.45,1.45,0,0,1-1.21.65,28.53,28.53,0,0,1-10.66-2.26c-1-.44-2.06-.82-3.1-1.22a14.93,14.93,0,0,1-5.13-3.38,1.39,1.39,0,0,1-.36-.85c0-.79.06-1.58.09-2.37Zm8.13-3a47.28,47.28,0,0,0,8-.84c.33-.06.66-.17.77-.49.05-.17-.29-.37-.65-.39a19.37,19.37,0,0,0-5.21.43,11.74,11.74,0,0,1-4.72.19.86.86,0,0,0-.45.07c-.13.07-.3.21-.31.32a.54.54,0,0,0,.23.4A3.92,3.92,0,0,0,113.25,27.73Z"/><path class="cls-1" d="M40.11,78.22l.38.3a7.9,7.9,0,0,0,4.37,1.77c1.27.12,2.54.29,3.81.43,1.82.78,3.75.66,5.67.69,2.4,0,4.79.12,7.19.19.4,0,.62.2.57.47a.58.58,0,0,1-.24.38,8.27,8.27,0,0,1-3.19,1c-.47,0-1,0-1.43.06a21.38,21.38,0,0,0-5.68.78,5.13,5.13,0,0,1-3.71-.48c-1.59-.73-3-1.85-4.7-2.34a.49.49,0,0,0-.41.12c-.26.2-.26.49,0,.79a1.35,1.35,0,0,0,.37.3c1.68.92,3.35,1.87,5.06,2.73a4,4,0,0,0,2.79.39,27.36,27.36,0,0,1,5.7-.71c1.11,0,2.23-.15,3.34-.2a.5.5,0,0,1,.35.29.43.43,0,0,1-.1.4,2,2,0,0,1-.77.51c-1.56.34-3.12.67-4.7.94a11.85,11.85,0,0,1-2.38.15,45.36,45.36,0,0,1-7.63-.67,4.19,4.19,0,0,0-1.41.06c-.42,0-.56.34-.37.69a2.1,2.1,0,0,0,.52.76,8.45,8.45,0,0,0,3.56,1.35l1,.1c1.59.13,3.2.19,4.78.4s2.86-.34,4.29-.15c.26,0,.49.33.7.55a.58.58,0,0,1,.11.46,4.2,4.2,0,0,1-2.82,3A43.69,43.69,0,0,1,50,95a15.48,15.48,0,0,1-2.37.14.5.5,0,0,0-.32.25.61.61,0,0,0,.26.83c.27.14.59.36.86.32a43.29,43.29,0,0,0,7.44-1.77,4.13,4.13,0,0,0,1.93-1.38c.8-1,1.5-2.06,2.25-3.1a5.16,5.16,0,0,1,2.61-2c1.06-.35,2.12-.7,3.2-1a3,3,0,0,1,.94.07l-.11-.1a2.21,2.21,0,0,1-.11,1.39,4.27,4.27,0,0,1-.44.85,36.28,36.28,0,0,1-5.94,6.19A6.41,6.41,0,0,1,59,96.5c-.85.43-1.71.85-2.58,1.24a8.2,8.2,0,0,1-3.71.81,4.08,4.08,0,0,0-1.87.23.48.48,0,0,0-.3.72,1.08,1.08,0,0,0,.7.6,21.23,21.23,0,0,0,5.2.65,7.18,7.18,0,0,0,2.8-.52c1.76-.76,3.52-1.5,5.23-2.36a12.69,12.69,0,0,0,4.41-3.6c.68-.88,1.4-1.73,2.13-2.57a.73.73,0,0,1,.89-.16.57.57,0,0,1,.28.35,4.26,4.26,0,0,1,.23,1.39A5.44,5.44,0,0,1,70.49,97a62.77,62.77,0,0,1-6.32,4.3,11.46,11.46,0,0,1-1.74.8,5.76,5.76,0,0,1-2.32.5c-1.91,0-3.82,0-5.74,0a5.62,5.62,0,0,1-2.32-.46c-.59-.26-1.18-.49-1.77-.74a17.72,17.72,0,0,1-5.76-4.2A3.63,3.63,0,0,1,43.79,96c-.84-2.06-1.55-4.18-2.51-6.2a13.3,13.3,0,0,1-.84-2.73A26.7,26.7,0,0,1,39.8,79a2.85,2.85,0,0,1,.37-.87Z"/><path class="cls-1" d="M85,25.05c0-.64-.06-1.28-.17-1.91a15.48,15.48,0,0,1,0-4.3,3.32,3.32,0,0,1,.72-1.74,18.27,18.27,0,0,1,4.24-3.85A4.76,4.76,0,0,1,93,12.44a.52.52,0,0,1,.36.29,34.27,34.27,0,0,0,1.54,4c.14.25.48.39.72.57l-.14-.15a4,4,0,0,0,0,.91,16,16,0,0,0,2.61,5.77,1.47,1.47,0,0,0,.38.25l-.13-.2c0,.28.06.57.1.85a1.53,1.53,0,0,0,1,1.27l-.13-.21a2.22,2.22,0,0,0,1.09,2.14l-.15-.19a11.1,11.1,0,0,0,1.8,3.88c.25.41.52.8.77,1.21a1,1,0,0,1-.42,1.22.77.77,0,0,1-.86-.21,11.25,11.25,0,0,1-1.1-1.56,43.77,43.77,0,0,0-3.83-6.05,12.25,12.25,0,0,1-1.92-3.84c-.75-2.43-1.43-4.89-2.16-7.33,0-.13-.24-.31-.35-.3s-.44.29-.46.65a4.22,4.22,0,0,0,0,1.42C92.39,19,93,21.1,93.86,23.16A28.34,28.34,0,0,0,97.06,29a28.85,28.85,0,0,1,3.71,6.67.94.94,0,0,1-.52,1.14c-.15,0-.38.09-.47,0a9.35,9.35,0,0,1-1.73-2.27c-.92-1.49-1.83-3-2.78-4.47-.14-.22-.53-.28-.81-.42l.15.15A5.16,5.16,0,0,0,94.3,28c-.86-2.21-1.7-4.43-2.58-6.64a28.59,28.59,0,0,1-1.32-4.05c-.06-.28-.5-.3-.79-.14a2.18,2.18,0,0,0-.89,1.07l.15-.06c-.31-.08-.61-.17-.92-.23a.72.72,0,0,0-.93.74,48.14,48.14,0,0,0,1.11,6.53,7.93,7.93,0,0,0,1,2.14c.13.25.47.39.71.58l-.13-.22a4.81,4.81,0,0,0,2,4.05l-.15-.18c.17.59.45,1.06,1.13,1.12l-.15-.18a3.58,3.58,0,0,0,2.06,3.08l-.16-.18a4.44,4.44,0,0,0,.17.91,10.32,10.32,0,0,0,2.07,3.07,1.3,1.3,0,0,0,1.23.49,2.28,2.28,0,0,1,1.77.14,6.21,6.21,0,0,0,1.31.49,8,8,0,0,0,2.32,2.35,33,33,0,0,0,8.7,3.79,2.35,2.35,0,0,0,.91,0c.08,0,.2-.25.17-.29a3.35,3.35,0,0,0-1.6-.94A38.8,38.8,0,0,1,103.07,41a6.68,6.68,0,0,0-.82-.47,1.72,1.72,0,0,0-1.37.06c.18-.22.38-.44.56-.67a1.39,1.39,0,0,1,1.48-.65c.43.08.86.08,1.3.12l-.17-.17c.16.25.25.61.48.76a42.59,42.59,0,0,0,12.27,5.59c.6.14,1.2.34,1.79.51l-.13-.11a1.63,1.63,0,0,1-.78,1.12,6.26,6.26,0,0,1-1.28.61c-.75.23-1.53.37-2.3.54a7.31,7.31,0,0,1-3.29,0,6,6,0,0,0-.94-.11,6.35,6.35,0,0,1-3.5-1.32c-1.24-1-2.69-1.66-4-2.58a4.3,4.3,0,0,0-1.76-.64,2.27,2.27,0,0,1-1.26-.59,21.05,21.05,0,0,0-4.49-3.47A14.51,14.51,0,0,1,90.56,36a3.32,3.32,0,0,0-.78-.52l0,.13a3.53,3.53,0,0,0-1.08-2.13l.11.2a3.4,3.4,0,0,0-1.08-2.12l.12.21c0-.15,0-.31-.06-.45a19.19,19.19,0,0,0-2.57-6.22c-.08-.12-.25-.17-.38-.25Z"/><path class="cls-1" d="M79.13,41.4c-.24.19-.57.33-.71.58A36.54,36.54,0,0,0,76,47.71c-.85,2.4-1.79,4.77-2.72,7.15-.46,1.19-.84,2.41-1.29,3.6a2.37,2.37,0,0,1-.58.73.46.46,0,0,1-.38.12.54.54,0,0,1-.26-.39A7.83,7.83,0,0,1,70.93,57a19,19,0,0,1,1.48-4c.53-1,1-2,1.43-3a16.11,16.11,0,0,0,1.56-6.47c0-1.27,0-2.55,0-3.83,0-.88-.53-1.36-1.55-1.36a11.27,11.27,0,0,1-2.84-.14,1.24,1.24,0,0,0-1.17.66c-.39,1-.81,2.08-1.17,3.14-1.16,3.48-2.15,7-3.17,10.53a24,24,0,0,1-1.84,4.93,7.92,7.92,0,0,1-.57.76,1,1,0,0,1-1.27,0,4,4,0,0,1-1.2-2,1.94,1.94,0,0,1,.08-1.4c.59-1.13,1.23-2.23,1.79-3.38A32.77,32.77,0,0,0,65.89,41a6.8,6.8,0,0,0-.07-1.42c0-.37-.7-.8-1.07-.74a4.93,4.93,0,0,0-1.75.71,1.77,1.77,0,0,0-.81,1.13c-.19.77-.27,1.57-.4,2.36a20.85,20.85,0,0,1-2,6.36,1.54,1.54,0,0,1-.74.51c-.33.16-.9-.3-1-.79a3.39,3.39,0,0,1-.15-.45,9,9,0,0,1,.31-3.32,85.27,85.27,0,0,1,2.89-9.11,1.33,1.33,0,0,1,.68-.64A15.87,15.87,0,0,1,66,34.75a7.58,7.58,0,0,1,1.9.14,17.81,17.81,0,0,0,6.67,0,9.45,9.45,0,0,1,2.86-.1,13.94,13.94,0,0,1,1.41.26A1.77,1.77,0,0,1,80,36.92c-.23.93-.52,1.85-.72,2.78-.14.62-.18,1.26-.26,1.88Z"/><path class="cls-1" d="M72.5,74.88c.64,0,1.28.09,1.91.09a4.66,4.66,0,0,0,1.41-.15c2-.67,3.94-1.31,5.85-2.1s3.47-1.63,5.2-2.45c.87-.4,1.76-.77,2.61-1.21a25.74,25.74,0,0,0,9.73-8.32,12.26,12.26,0,0,0,1.71-3.41A20,20,0,0,0,102,53.17a1,1,0,0,0-1.28-1,3.18,3.18,0,0,0-1.9,1.37,20.16,20.16,0,0,0-1.17,2.08c-.33.72-.52,1.51-.85,2.23a7.78,7.78,0,0,1-1,1.64,29.31,29.31,0,0,1-7.4,6.73.64.64,0,0,1-.86-.08c-.19-.22-.12-.53.1-.82a1.8,1.8,0,0,1,.3-.37,17.82,17.82,0,0,0,5.7-8.13A6.85,6.85,0,0,1,94,56c.8-1.56,1.65-3.1,2.39-4.69s1.37-3.23,2-4.85c.16-.38.85-.44,1.24-.13.12.1.27.17.39.28a44.23,44.23,0,0,1,5,5.17,1.66,1.66,0,0,1,.24,1.8c-1,2.33-2.11,4.64-2.91,7.07a5.12,5.12,0,0,1-.62,1.29c-1.17,1.72-2.35,3.43-3.57,5.1a3.44,3.44,0,0,1-1.11.88c-.56.3-1.18.49-1.75.78a6.7,6.7,0,0,0-1.63,1,12.31,12.31,0,0,1-4.15,2.28c-2.38,1-4.86,1.57-7.26,2.44a21.11,21.11,0,0,1-5.18.93c-1.11.11-2.23.13-3.35.15a1.45,1.45,0,0,1-1.16-.71Z"/><path class="cls-1" d="M2.59,101.05a14.44,14.44,0,0,1,.75-5.39,1.26,1.26,0,0,1,1.5-.87c.78.18,1.56.32,2.32.56a12,12,0,0,0,6.16.12,24.05,24.05,0,0,0,2.78-.7,18,18,0,0,1,7.57-.64,2.07,2.07,0,0,1,.86.38,5,5,0,0,1,1.58,1.77A1.53,1.53,0,0,1,26,97.61a5.71,5.71,0,0,1-3.2,2,51,51,0,0,1-6.12,1.11,25.61,25.61,0,0,0-6.51,1.53c-2,.72-3.94,1.29-5.92,1.93a1.27,1.27,0,0,1-1.4-1C2.7,102.26,2.61,101.31,2.59,101.05Z"/><path class="cls-1" d="M13.48,114.07a16.32,16.32,0,0,1-5.64-.32c-1.1-.21-2.19-.45-3.26-.74a1.34,1.34,0,0,1-.7-.61,2.7,2.7,0,0,1-.38-1.83c0-.35.58-.93.92-.93a17.24,17.24,0,0,1,1.91.07,57.83,57.83,0,0,0,9.58.29,14.22,14.22,0,0,0,3.31-.48,71.67,71.67,0,0,0,6.92-1.94A39.1,39.1,0,0,1,31.67,106a1.27,1.27,0,0,1,1.26.51,7.57,7.57,0,0,1,1.27,2,1.56,1.56,0,0,1-.57,1.67c-.14.07-.27.17-.41.24A28.94,28.94,0,0,1,23.1,113.2a24.72,24.72,0,0,0-2.86.28A53.57,53.57,0,0,1,13.48,114.07Z"/><path class="cls-1" d="M113.5,61.56a3.05,3.05,0,0,0-.07.94,5,5,0,0,0,.56,1.32,4.38,4.38,0,0,1,.65,3.65,4,4,0,0,0-.14,1.41,5.46,5.46,0,0,1-1.69,4.33,12.78,12.78,0,0,1-1.74,1.63,60.62,60.62,0,0,0-5.53,4.59,7.43,7.43,0,0,1-3.8,1.95,51.1,51.1,0,0,0-7.36,2.12,14.23,14.23,0,0,1-2.31.59,12.16,12.16,0,0,1-1.91,0,2,2,0,0,1-.47-.1,31.51,31.51,0,0,0-7.11-.94,7.12,7.12,0,0,1-2.8-.57c-.34-.15-.51-.41-.45-.66a.5.5,0,0,1,.33-.32c1.1-.18,2.2-.37,3.31-.48,3.82-.38,7.62-.89,11.46-.94,1,0,1.91-.18,2.87-.25a18.5,18.5,0,0,0,6.84-2,13.24,13.24,0,0,0,6.51-6.76c.7-1.61,1.29-3.27,1.91-4.91a4.07,4.07,0,0,0,.32-1.4c0-1.14.64-2.13.63-3.26Z"/><path class="cls-1" d="M11.05,123.86a7.36,7.36,0,0,1,1.42.11c.92.26,1.81.63,2.72.89a16.76,16.76,0,0,0,6.14.71,12.66,12.66,0,0,1,2.38-.08c3.1.36,6-.45,8.92-1.29,1.22-.36,2.42-.8,3.65-1.13a19.77,19.77,0,0,0,5.62-2.58,7.09,7.09,0,0,1,2-1.19.66.66,0,0,1,.79.37c.38.83.27,2.3-.27,2.69a36,36,0,0,0-4.14,4,10,10,0,0,1-1.48,1.19,7.7,7.7,0,0,1-3,1.34c-.63.1-1.25.23-1.88.34a9.26,9.26,0,0,1-3.32,0,74.52,74.52,0,0,1-8.34-2,11.47,11.47,0,0,0-3.28-.48c-1.44,0-2.87,0-4.3-.09a2.8,2.8,0,0,1-1.73-.72,14.28,14.28,0,0,1-1.41-1.28,2.85,2.85,0,0,1-.37-.85Z"/><path class="cls-1" d="M85.37,49.09a3.38,3.38,0,0,1-.31-1.85c.17-.93.43-1.85.57-2.79a6.45,6.45,0,0,0-.33-3.28,1.19,1.19,0,0,0-1.6-.46,3.09,3.09,0,0,0-1.2,1.43A14.19,14.19,0,0,0,81.94,44a28.62,28.62,0,0,1-2.64,6.61,51.36,51.36,0,0,1-4.62,7.74.48.48,0,0,1-.75-.25,8.26,8.26,0,0,1,.72-3.22c1.43-3.69,2.53-7.51,4.15-11.13a4,4,0,0,0,.34-2.31,1.3,1.3,0,0,0-.15.18,2.32,2.32,0,0,0,1-1c.57-1.3,1.12-2.62,1.68-3.92A1.58,1.58,0,0,1,82.82,36a3.54,3.54,0,0,1,.47.07,18.67,18.67,0,0,1,5.57,2.56c.12.09.27.29.24.4-.69,2.93-1.32,5.87-3,8.47-.34.53-.59,1.12-.88,1.68Z"/><path class="cls-1" d="M5.19,105.6a8.17,8.17,0,0,0,3.34-.34l.45-.15A47.25,47.25,0,0,1,19.24,103l1-.11a15.06,15.06,0,0,0,7.56-2.69,1.21,1.21,0,0,1,1.66.4,8.22,8.22,0,0,1,1.38,2.49,1.07,1.07,0,0,1-.51,1.2,19.1,19.1,0,0,1-2.67,1c-2,.4-4,1-6,1.57a16.4,16.4,0,0,1-4.23.63,39.11,39.11,0,0,1-5.73-.11A39.14,39.14,0,0,0,5,107.12a2,2,0,0,1-1.32-.45.64.64,0,0,1-.22-.83.54.54,0,0,1,.39-.23C4.28,105.59,4.75,105.6,5.19,105.6Z"/><path class="cls-1" d="M93.36,52.49c.4-1.37.83-2.74,1.19-4.12A5.85,5.85,0,0,0,94.74,46a1.32,1.32,0,0,0-.94-.92,3.32,3.32,0,0,0-1.4.17,1.67,1.67,0,0,0-1.06.89c-.34.71-.55,1.48-.85,2.21a36.82,36.82,0,0,1-7,10.73,2.82,2.82,0,0,1-.79.51.52.52,0,0,1-.44,0A.71.71,0,0,1,82,59.2a.76.76,0,0,1,0-.47q1.26-3.07,2.56-6.15a13.55,13.55,0,0,1,.88-1.69A51.61,51.61,0,0,0,90.23,41a6.78,6.78,0,0,1,.45-.84,1.15,1.15,0,0,1,1.25-.38,16,16,0,0,1,4.38,2.84,2.45,2.45,0,0,1,.83,2.14,15,15,0,0,1-2.65,7.06,1.3,1.3,0,0,1-1.24.51Z"/><path class="cls-1" d="M21.07,85.06a10.68,10.68,0,0,1,1.3-.57,4.2,4.2,0,0,0,1.95-1.31A21.42,21.42,0,0,0,27.71,78c.76-1.74,1.57-3.46,2.36-5.19a1.48,1.48,0,0,1,1.59-.76,3.62,3.62,0,0,1,2.15.9,1.17,1.17,0,0,1,.37.81,14.33,14.33,0,0,1-.46,2.33A9.52,9.52,0,0,1,33,77.86q-1.55,3-2.9,6a12,12,0,0,1-2.69,3.9,2.2,2.2,0,0,1-2.13.72,7.38,7.38,0,0,0-.94-.16c-.32,0-.69-.15-.8-.45-.46-1.26-1.6-1.92-2.42-2.87Z"/><path class="cls-1" d="M27.14,123.65c-3.17-.36-5.86-.66-8.54-1a.62.62,0,0,1-.57-.61.73.73,0,0,1,.47-.74,4.17,4.17,0,0,1,.91-.28c.47-.1.94-.16,1.41-.23a53.93,53.93,0,0,0,6.06-1.29c1.54-.42,3.07-.87,4.63-1.15a20.83,20.83,0,0,0,7.13-2.61,2.81,2.81,0,0,1,.87-.38,2,2,0,0,1,.92,0,1.81,1.81,0,0,1,1,2.67,10.69,10.69,0,0,1-1.31,1.38,10.08,10.08,0,0,1-3.76,2,70.65,70.65,0,0,1-7.84,2.07A10,10,0,0,1,27.14,123.65Z"/><path class="cls-1" d="M14.94,118.6c-.35,0-.67,0-1-.08l-7.57-1a.82.82,0,0,1-.42-.2.65.65,0,0,1-.24-.4.71.71,0,0,1,.5-.67,6.57,6.57,0,0,1,2.38,0,22,22,0,0,0,5.25-.13c3.79-.52,7.59-1,11.4-1.43a29.91,29.91,0,0,0,7.42-1.8c1.19-.44,2.37-.95,3.57-1.35.24-.08.6.13.87.28a.83.83,0,0,1,.24,1.22,5.86,5.86,0,0,1-1,1,12.22,12.22,0,0,1-3.54,1.42,19.81,19.81,0,0,1-2.82.56,31.57,31.57,0,0,0-6.53,1.42c-2.63.8-5.37.78-8,1.25A2.25,2.25,0,0,1,14.94,118.6Z"/><path class="cls-1" d="M104.22,39.43c0-.85-.62-1.44-.8-2.22a1.34,1.34,0,0,1,.78-1.54,1.27,1.27,0,0,1,.94,0,11.71,11.71,0,0,1,1.29.61,66.33,66.33,0,0,0,6.95,3.23,19.65,19.65,0,0,0,6.91,1.82,6,6,0,0,1,3.14,1,.64.64,0,0,1,.22.84,3,3,0,0,1-1.16,1.47,7.12,7.12,0,0,1-4,1.36l.13.11a9.28,9.28,0,0,0,.22-.91.73.73,0,0,0-.74-.93,19.72,19.72,0,0,1-6.73-1.93c-2-.89-3.94-1.92-5.92-2.85a5.11,5.11,0,0,0-1.37-.24Z"/><path class="cls-1" d="M89.78,35.46A4.55,4.55,0,0,1,89,36a1.46,1.46,0,0,1-.9.2q-3.15-1.09-6.27-2.28a1.41,1.41,0,0,1-.69-.63c-.55-1.15-1.07-2.31-1.55-3.49a2.34,2.34,0,0,1,0-1.87c.74-1.59,1.53-3.15,2.31-4.72.28-.56.75-.86,1.1-.67a2.33,2.33,0,0,1,.74.53c.19.24.25.59.42.85s.56.76.84,1.14l-.11-.22a17.9,17.9,0,0,0,2.64,6.66c.07.12.24.17.37.26l-.12-.21c.08.42.13.84.24,1.24a1.36,1.36,0,0,0,.84.88l-.11-.2A10.74,10.74,0,0,0,89,34.72a1.34,1.34,0,0,0,.85.87ZM82.88,30c-.17,0-.35,0-.4.12a.49.49,0,0,0-.08.42c.15.44.36.86.53,1.3a.81.81,0,0,0,.62.58c.28,0,.39-.8.11-1.28S83.13,30.4,82.88,30Z"/><path class="cls-1" d="M41,110.88a1.33,1.33,0,0,1,.14-.44c.56-.76,1.16-1.5,1.72-2.27s1.27-1.84,2-2.73,1.22-1.47,1.84-2.2a1.54,1.54,0,0,1,1.76-.19c.28.15.55.32.82.49s.27.17.4.26a1.26,1.26,0,0,1,.3,1.31,8.29,8.29,0,0,0-1.09,3.13,20.57,20.57,0,0,1-1.52,5,7,7,0,0,1-.79,1.19,2,2,0,0,1-2.59.17,16.38,16.38,0,0,1-2.72-3.32C41.18,111.17,41.11,111,41,110.88Z"/><path class="cls-1" d="M11.75,88.75A22.43,22.43,0,0,1,17,89c1.08.18,2.22,0,3.32.11a1.58,1.58,0,0,1,1.11.82c.22.32,0,1.17-.34,1.24-2.33.51-4.72.74-7,1.44a3.76,3.76,0,0,1-1,.14c-2.22.07-4.45.15-6.68.18a6.18,6.18,0,0,1-1.38-.29,1.8,1.8,0,0,1-.87-1.06,5.2,5.2,0,0,1,.32-2.34,1.46,1.46,0,0,1,1.11-.77,4.27,4.27,0,0,1,.94.14,7.06,7.06,0,0,0,3.29.33C10.48,88.81,11.12,88.8,11.75,88.75Z"/><path class="cls-1" d="M105.27,30.61a7.37,7.37,0,0,0-.94,0,1.64,1.64,0,0,1-1.29-.44c-.69-.64-1.32-1.35-2-2a4.19,4.19,0,0,0-.81-.44l.15.19c0-.29,0-.57-.1-.86a1.55,1.55,0,0,0-1-1.28l.13.21a2.1,2.1,0,0,0-1.09-2.12l.13.2a2.28,2.28,0,0,0,0-.45A7.73,7.73,0,0,0,98,21.87c-.72-1.49-1.06-3.17-2.16-4.47a1.37,1.37,0,0,0-.37-.26l.14.15A22,22,0,0,0,94.94,13a6.19,6.19,0,0,1,0-1.43,1.85,1.85,0,0,1,.68-1.21,1,1,0,0,1,1.27.13,2.77,2.77,0,0,1,.49,1.33,8.63,8.63,0,0,0,1.26,3.59,3.44,3.44,0,0,0,.68.63l-.14-.16a13.82,13.82,0,0,0,.27,1.84,19,19,0,0,0,4,7.87c.32.35.58.74.87,1.11a3.78,3.78,0,0,1,.82,2.61c0,.47,0,.94.06,1.4Z"/><path class="cls-1" d="M36.94,84a2.49,2.49,0,0,1-.46,1.63,55.51,55.51,0,0,0-4.93,7.57,3.61,3.61,0,0,1-2.23,1.67,2.24,2.24,0,0,1-.93,0,1.72,1.72,0,0,1-1.34-1.72c.05-.47.13-.94.19-1.41A3,3,0,0,1,28,90c.65-.69,1.29-1.4,2-2.06a17.51,17.51,0,0,0,3.56-5c.41-.86.86-1.69,1.31-2.53a.89.89,0,0,1,.76-.51c.11,0,.25.17.33.29A6.58,6.58,0,0,1,36.94,84Z"/><path class="cls-1" d="M40.77,107.19a4.06,4.06,0,0,1-1.45,1.52,1.81,1.81,0,0,1-.9.06.73.73,0,0,1-.41-.24,12.4,12.4,0,0,1-3.46-5.06,1.17,1.17,0,0,1,.33-1.28,33.06,33.06,0,0,0,5-3.66,1,1,0,0,1,.89-.21,6.24,6.24,0,0,1,2.2.86,1.16,1.16,0,0,1,.28,1.64,16.08,16.08,0,0,1-4,3.34,2.11,2.11,0,0,0-.36.31c-.33.25-.41.5-.2.74a1,1,0,0,0,.84.31c.83,0,1.42-.7,2.19-.89.13,0,.34,0,.42,0,.24.23.17.5-.07.8C41.65,106,41.29,106.47,40.77,107.19Z"/><path class="cls-1" d="M38.22,92.88c0,.11.2.56.35,1a1.72,1.72,0,0,1-.06,1.39c-.59,1.13-1.2,2.25-1.88,3.33a5.63,5.63,0,0,1-2.12,1.9,1.68,1.68,0,0,1-1.79-.12A11.6,11.6,0,0,1,30.18,97a.68.68,0,0,1,.17-.87,7.39,7.39,0,0,1,2.07-1.16,5.7,5.7,0,0,0,2.72-2.59c.29-.57.63-1.11,1-1.66a1,1,0,0,1,.76-.48.62.62,0,0,1,.73.49C37.77,91.3,37.94,91.92,38.22,92.88Z"/><path class="cls-1" d="M45.84,49.35c0-.47,0-1,0-1.41a2.52,2.52,0,0,0-1.45-2.26.8.8,0,0,1-.38-.82,3.59,3.59,0,0,1,.11-.93,13,13,0,0,1,1.63-3.4c.85-1.14,1.59-2.35,2.4-3.51a3.25,3.25,0,0,1,1.47-1.14,1.24,1.24,0,0,1,1.22.47,5.76,5.76,0,0,1,.31.88,29,29,0,0,0,1,4.63,3.35,3.35,0,0,1-.33,2.74l.07,0a6.9,6.9,0,0,0-2.59-3.11c-.2-.16-.57-.09-.86-.14.12-.36.06-.46-.16-.31l.29.21c.06.47.1.93.19,1.39A1.23,1.23,0,0,1,48.42,44a4.17,4.17,0,0,0-1.59,2.76,6.48,6.48,0,0,1-1,2.6Z"/><path class="cls-1" d="M99.27,16.08c.16-1.3-.44-2.45-.72-3.66a5.18,5.18,0,0,1,.15-3.23A.82.82,0,0,1,99.88,9c.1.11.28.18.34.3.37.86.73,1.73,1.07,2.61.79,2,1.54,4.11,2.38,6.13A3.76,3.76,0,0,0,105,19.94l-.14-.14c0,1.59.69,3.05,1,4.58,0,.25-.1.72-.28.79a1.31,1.31,0,0,1-.87-.19,2.54,2.54,0,0,1-.74-.56,13.31,13.31,0,0,1-.92-1.07A12.1,12.1,0,0,1,101.23,20c-.36-1-.73-2.07-1.18-3.07a4.89,4.89,0,0,0-.91-1Z"/><path class="cls-1" d="M113.51,61.5c-.39.27-.77.57-1.18.82a4.26,4.26,0,0,0-1.51,1.12A34.49,34.49,0,0,1,107,67.75c-.19.2-.21.58-.31.88l.07.06A3.49,3.49,0,0,1,106.9,66a9.49,9.49,0,0,0,1.27-4,7.4,7.4,0,0,0,0-.94,1.19,1.19,0,0,0-.9-1l-1.87-.16a.92.92,0,0,1-.85-.94,6.84,6.84,0,0,1,1.78-3.76,1,1,0,0,1,1.27.06c.51.6,1,1.21,1.49,1.82,1.06,1.37,2.11,2.76,3.18,4.12a1.2,1.2,0,0,0,1.26.41A.29.29,0,0,0,113.51,61.5Z"/><path class="cls-1" d="M46.86,57.18c.55.58,1.11,1.14,1.64,1.72a24.2,24.2,0,0,0,4,3.4c2.66,1.86,2.95,2,6.13,2.23,1.42.11,2.83.27,4.25.44a5,5,0,0,1,.91.26,1.52,1.52,0,0,1,.78,1.55,1.31,1.31,0,0,1-.94.94A9.47,9.47,0,0,1,58,67.07a38.59,38.59,0,0,1-9.8-6.64,12,12,0,0,1-.93-1.08,2.16,2.16,0,0,1-.33-2.23Z"/><path class="cls-1" d="M21.91,76.12a5.55,5.55,0,0,0-1,2.6.58.58,0,0,0,.22.36A.62.62,0,0,0,22,79a15.24,15.24,0,0,0,1.53-1.79c1-1.58,2-3.21,3-4.81.08-.11.29-.24.4-.21a.63.63,0,0,1,.38.71,2.87,2.87,0,0,1-.14.93c-.71,1.75-1.41,3.5-2.19,5.22a18.3,18.3,0,0,1-2.44,3.48A7.49,7.49,0,0,0,21.08,85s.05-.06,0,0a2.74,2.74,0,0,0-.4-1.28,20.53,20.53,0,0,1-2.66-4.3,1,1,0,0,1,.15-.86,13.18,13.18,0,0,1,2.92-2.22,2.53,2.53,0,0,1,.89-.12Z"/><path class="cls-1" d="M97.18,37.68c-.63-.65-1.24-1.32-1.9-1.93a2.57,2.57,0,0,0-.81-.34l.16.18a4.21,4.21,0,0,0-2.06-3.08l.15.18a1.28,1.28,0,0,0-1.13-1.12l.15.18a7.08,7.08,0,0,0-1.64-3.81c-.08-.12-.27-.16-.41-.24l.13.22a6,6,0,0,0-.43-2.31,10.59,10.59,0,0,1-.69-4.16c0-1.1.11-2.2.17-3.29l-.15.06a8.12,8.12,0,0,1,.78,1.16c.71,1.57,1.38,3.15,2,4.75a42.23,42.23,0,0,0,2.17,4.68,2.59,2.59,0,0,0,.91,1l-.15-.15A10,10,0,0,0,95,31.46c.67,1.39,1.45,2.73,2.13,4.11a2.34,2.34,0,0,1,0,2.21Z"/><path class="cls-1" d="M71.47,42.25a23.08,23.08,0,0,1-1.81,7.81c-.37.89-.81,1.74-1.2,2.61a27.25,27.25,0,0,0-2,5.88,7.2,7.2,0,0,1-1,2.66.74.74,0,0,1-.83.33.7.7,0,0,1-.43-.77,1.48,1.48,0,0,1,.05-.47c.21-.6.44-1.2.67-1.79a43.53,43.53,0,0,0,2-5.91c.89-3.56,2.09-7,3.22-10.53a7.58,7.58,0,0,1,.42-.86.67.67,0,0,1,.73-.41c.1,0,.2.26.22.41C71.45,41.52,71.44,41.84,71.47,42.25Z"/><path class="cls-1" d="M5.54,85a8.24,8.24,0,0,1,1-4.22.6.6,0,0,1,.83-.26A51.12,51.12,0,0,0,13.55,83a3.42,3.42,0,0,1,1.92,1.35.89.89,0,0,1,.15.42c.06.41-.13.62-.54.64-1.43,0-2.87.13-4.3.13a29.22,29.22,0,0,0-4.29.21A.87.87,0,0,1,5.54,85Z"/><path class="cls-1" d="M106.72,68.63c-.3.08-.7.08-.9.27a18.75,18.75,0,0,1-6.92,4.15c-.3.1-.56.29-.85.42s-.87.42-1.31.6a8.06,8.06,0,0,1-1.79.66c-2.54.38-4.86,1.59-7.41,1.88-.38,0-.62-.19-.58-.43a.58.58,0,0,1,.26-.38,38.75,38.75,0,0,1,5.71-2.44,63.37,63.37,0,0,0,11.5-4.73,2.62,2.62,0,0,1,2.33,0S106.72,68.63,106.72,68.63Z"/><path class="cls-1" d="M54.91,35.1a3.57,3.57,0,0,0,0-.47,1.05,1.05,0,0,1,1.3-1,7.87,7.87,0,0,1,2.5,1.27,1.67,1.67,0,0,1,.69,1.64,27.6,27.6,0,0,1-1.76,5.83.64.64,0,0,1-.36.3c-.35.14-.67,0-.76-.28A30.86,30.86,0,0,1,54.91,35.1Z"/><path class="cls-1" d="M92.9,55c-.37,1.05-.67,2.13-1.13,3.13a11.82,11.82,0,0,1-2.65,3.92c-1.88,1.72-3.56,3.63-5.29,5.48a1.09,1.09,0,0,1-.87.28c-.39,0-.5-.74-.18-1.19.09-.13.16-.28.25-.4,1.38-1.75,2.69-3.56,4.17-5.21a56,56,0,0,0,4.18-5.18,3.25,3.25,0,0,1,.7-.63,1,1,0,0,1,.9-.09Z"/><path class="cls-1" d="M103.92,10.15a7.89,7.89,0,0,0,.76,2.73,22.35,22.35,0,0,1,2,6.28,8.69,8.69,0,0,0,.78,2.23c0,.07-.11.32-.23.38a.55.55,0,0,1-.45,0c-.44-.24-.61-.7-.87-1.09a2.12,2.12,0,0,0-1.12-.83l.14.13a4.92,4.92,0,0,0,0-1.39c-.42-1.17-1-2.28-1.41-3.45a50.22,50.22,0,0,1-1.92-6.22c0-.14,0-.4.08-.44a.66.66,0,0,1,.84.18,11.41,11.41,0,0,1,.81,1.12,1.11,1.11,0,0,0,.71.56Z"/><path class="cls-1" d="M104.05,10.3c.3-1.09-.34-2.19,0-3.27a.55.55,0,0,1,.29-.31c.14,0,.4,0,.45,0,.52.78,1,1.59,1.5,2.38a1.14,1.14,0,0,0,.76.51L107,9.5c0,.28.05.56.1.84a1.44,1.44,0,0,0,1,1.24l-.13-.21a11.39,11.39,0,0,0,.93,3.59,5,5,0,0,1,.24,2.3.9.9,0,0,1-.48.7.47.47,0,0,1-.43-.13c-.4-.66-.79-1.33-1.12-2-.75-1.53-1.44-3.1-2.22-4.62a5.58,5.58,0,0,0-.92-1A1.58,1.58,0,0,0,104.05,10.3Z"/><path class="cls-1" d="M106.74,69.78a1.94,1.94,0,0,1-.11,1.8,5.63,5.63,0,0,1-1.53,1.79,18.06,18.06,0,0,1-7.74,3.37A1.8,1.8,0,0,1,96,76.55a.34.34,0,0,1-.1-.32.68.68,0,0,1,.27-.35c1-.5,2-1,3-1.48,1.42-.67,2.91-1.22,4.27-2a37.53,37.53,0,0,0,3.44-2.49Z"/><path class="cls-1" d="M40.83,75.87c1.93,0,3.64,1,5.53,1.2C48.09,77.8,50,78,51.68,79a.48.48,0,0,1,.19.39.51.51,0,0,1-.37.28,5,5,0,0,1-1.39,0,22.67,22.67,0,0,1-2.3-.56,21.59,21.59,0,0,0-3.76-.38,3.39,3.39,0,0,1-2.11-.94,2.69,2.69,0,0,1-1-2.05Z"/><path class="cls-1" d="M19.39,71.73a12.14,12.14,0,0,1-.69,3.41,2.46,2.46,0,0,1-.85,1.11.67.67,0,0,1-.87,0,1.91,1.91,0,0,1-.89-2.06,37.1,37.1,0,0,1,1.16-3.62c.12-.37.56-.56,1.2-.55.4,0,1,.55,1,.88S19.4,71.56,19.39,71.73Z"/><path class="cls-1" d="M13.87,78.81a55.64,55.64,0,0,1-6-.89.82.82,0,0,1-.53-.69,2.18,2.18,0,0,1,.45-1.75A1.44,1.44,0,0,1,9,75a5.94,5.94,0,0,1,2.08,1.06,11.85,11.85,0,0,1,2.66,2.63Z"/><path class="cls-1" d="M41.83,50.52a3.67,3.67,0,0,1,.68-2.19c.47-.68,1-.74,1.43-.09.57.92,1.14,1.85,1.7,2.78a.91.91,0,0,1,0,.9,1.35,1.35,0,0,1-1.11.69.8.8,0,0,1-.46,0,5,5,0,0,1-1.94-1.23A2.7,2.7,0,0,1,41.83,50.52Z"/><path class="cls-1" d="M59.12,59.52a7.69,7.69,0,0,1,1,0A1.94,1.94,0,0,1,61.74,61a1,1,0,0,1-.6,1.11,3.75,3.75,0,0,1-3.88-1.2A.88.88,0,0,1,57,60a.73.73,0,0,1,.68-.51c.48,0,1,0,1.43,0Z"/><path class="cls-1" d="M52.17,75.56c-.48,0-.79,0-1.09,0-1.24-.12-1.83-.7-2.09-2a.79.79,0,0,1,.82-.88,5,5,0,0,1,3.42,2.1.47.47,0,0,1-.34.71C52.6,75.51,52.3,75.54,52.17,75.56Z"/><path class="cls-1" d="M22,76.22a3.09,3.09,0,0,1-.44-1.32c0-1.26.05-2.51.1-3.76,0-.61.56-1,1.35-1l.47,0a1.13,1.13,0,0,1,.84,1.4,7.35,7.35,0,0,1-.49,1.31c-.63,1.09-1.3,2.14-1.95,3.23Z"/><path class="cls-1" d="M56.64,54.36a2.07,2.07,0,0,1,.44.15c.94.61,1.32,1.75,2.2,2.42a.61.61,0,0,1-.61.9,9.28,9.28,0,0,1-1.81-.48,11.13,11.13,0,0,1-1.62-1c-.47-.3-.82-.87-.69-1.1a1.06,1.06,0,0,1,.74-.52c.31-.07.6-.2.9-.3C56.33,54.42,56.49,54.4,56.64,54.36Z"/><path class="cls-1" d="M69.28,62.31a3.28,3.28,0,0,1,0,.94,6.05,6.05,0,0,0,0,3.67c.13.4-.26.83-.79,1a.84.84,0,0,1-.87-.15,4.3,4.3,0,0,1-1.39-2.39.77.77,0,0,1,.26-.85c.51-.37,1.05-.69,1.58-1a5.06,5.06,0,0,0,1.32-1.33Z"/><path class="cls-1" d="M117.53,9.52a1.62,1.62,0,0,1-.51,1.27,8.67,8.67,0,0,1-4.09,2.31,1,1,0,0,1-1-.71c-.17-.68.2-1.45.79-1.46a5.92,5.92,0,0,0,3.13-1,2.49,2.49,0,0,1,1.83-.3Z"/><path class="cls-1" d="M110.18,6.84c0,.09.14.54.22,1a.44.44,0,0,1-.44.58.57.57,0,0,1-.4-.2,10.85,10.85,0,0,1-1.48-3.38,1.27,1.27,0,0,1,.9-1.43.5.5,0,0,1,.75.3C110.13,4.6,110,5.55,110.18,6.84Z"/><path class="cls-1" d="M62.65,76.83l1.19.08c.4,0,.6.24.54.55a.64.64,0,0,1-.22.39,2.51,2.51,0,0,1-.8.47A2.94,2.94,0,0,1,61.07,78a.75.75,0,0,1-.46-.76c0-.09.25-.21.39-.23C61.63,76.91,62.26,76.87,62.65,76.83Z"/><path class="cls-1" d="M87.94,105.43a.89.89,0,0,1-.86-.16,7.71,7.71,0,0,1-2.21-3.5.52.52,0,0,1,.07-.41c.24-.25.5-.19.71.13.67,1,1.36,2.08,2,3.14a2.83,2.83,0,0,1,.2.89Z"/><path class="cls-1" d="M100.82,66.41a1.1,1.1,0,0,1,0-.44,4.52,4.52,0,0,1,2-2.54.48.48,0,0,1,.41.11.54.54,0,0,1,.19.38,3.64,3.64,0,0,1-1.75,2.7.62.62,0,0,1-.46.07C101,66.66,100.94,66.51,100.82,66.41Z"/><path class="cls-1" d="M90.06,109.77a1.7,1.7,0,0,0-.34-1.3c-.48-.6-1-1.14-1.52-1.74a1.43,1.43,0,0,1-.26-1.3l-.09.09a2.88,2.88,0,0,1,2,2.34,12.47,12.47,0,0,1,.18,1.85Z"/><path class="cls-1" d="M11.33,69.92c.32.07.51.5.5,1.16s-.31,1-.67.91a1.56,1.56,0,0,1-.72-.47A1,1,0,0,1,10.89,70,1.56,1.56,0,0,1,11.33,69.92Z"/><path class="cls-1" d="M53.67,38a2.58,2.58,0,0,1-1.23-2.27c0-.34,0-.64.28-.79s.39.1.42.49a8,8,0,0,0,.44,2.66Z"/><path class="cls-1" d="M112.49,4.22a.78.78,0,0,1-.26.84c-.3.21-.58.07-.69-.3a.68.68,0,0,1,.3-.81.6.6,0,0,1,.42-.12C112.37,3.88,112.42,4.08,112.49,4.22Z"/><path class="cls-1" d="M107.93,9.64c.14,0,.35,0,.43.1.46.57.92,1.16,1.35,1.76a.62.62,0,0,1,0,.81c-.19.22-.46.18-.73-.05l-1-.89.13.21V9.51Z"/><path class="cls-1" d="M74.5,82.67c.44-.08.79.17,1,.7a.65.65,0,0,1-.75.83.87.87,0,0,1-.77-1A.66.66,0,0,1,74.5,82.67Z"/><path class="cls-1" d="M77.46,63.58a11,11,0,0,1-.69,1.2.44.44,0,0,1-.74.07c-.06-.07,0-.27.06-.39a2.59,2.59,0,0,1,.25-.39c.33-.46.33-.46,1.21-.38Z"/><path class="cls-1" d="M77.55,63.69a1.78,1.78,0,0,1,.29-1.61,6.6,6.6,0,0,1,1.5-1.53l.11-.12c-.67,1-1.34,2.08-2,3.14Z"/><path class="cls-1" d="M100.8,83c-.26.57-.58,1.07-1.28,1.13a3.77,3.77,0,0,0-1.73.53l.1,0a1.93,1.93,0,0,1,1-.81c.67-.25,1.34-.48,2-.72Z"/><path class="cls-1" d="M114.68,3.27a.93.93,0,0,1,.61.58c0,.13.08.33,0,.42a.57.57,0,0,1-.77.21.75.75,0,0,1-.23-1.11C114.38,3.29,114.55,3.3,114.68,3.27Z"/><path class="cls-1" d="M61.34,72.36a.62.62,0,0,1,.69.47.45.45,0,0,1-.12.39.48.48,0,0,1-.41,0,.81.81,0,0,1-.53-.69S61.21,72.43,61.34,72.36Z"/><path class="cls-1" d="M53.58,38.06c.13.43.28.85.38,1.29a.45.45,0,0,1-.11.39c-.32.13-.49-.05-.51-.46a2,2,0,0,1,.32-1.3Z"/><path class="cls-1" d="M106.83,6.9a1.51,1.51,0,0,1,1.11,1.35,9.23,9.23,0,0,1,0,1.39l.12-.13H107l.14.15c0-1-.1-1.9-.14-2.85Z"/><path class="cls-1" d="M106.85,69.9c.21-.2.41-.42.63-.59a.63.63,0,0,1,.41-.13c.1,0,.29.14.28.21,0,.29-.24.46-.57.54a1.1,1.1,0,0,1-.86-.14A1.14,1.14,0,0,1,106.85,69.9Z"/><path class="cls-1" d="M100.88,83.09c.42-.09.84-.2,1.26-.28.14,0,.37,0,.41,0,.4.66-.24.6-.51.58a5.47,5.47,0,0,1-1.23-.39S100.88,83.09,100.88,83.09Z"/><path class="cls-1" d="M74,69.14c0,.13-.09.37-.15.38-.41,0-.48-.15-.17-.48C73.72,69,73.89,69.1,74,69.14Z"/><path class="cls-1" d="M114.68,6.9c.12,0,.32,0,.36.13s0,.4-.42.35c-.11,0-.2-.18-.3-.27Z"/><path class="cls-1" d="M107,6.8a.72.72,0,0,1-.54-.66.36.36,0,0,1,.21-.31c.34-.1.42.25.21,1.06Z"/><path class="cls-1" d="M93,55.12a3,3,0,0,1,.39-2.62l-.12-.13A2.85,2.85,0,0,1,92.89,55Z"/><path class="cls-1" d="M11.17,123.72l-.12.15Z"/><path class="cls-1" d="M13.76,78.72l.29,0a1,1,0,0,0-.18,0Z"/><path class="cls-1" d="M40.17,78.16c0,.11-.06.26-.15.31-.25.16-.24.08.08-.22A.4.4,0,0,1,40.17,78.16Z"/><polygon class="cls-1" points="40.94 75.74 40.73 75.73 40.83 75.87 40.94 75.74"/><path class="cls-1" d="M46.94,57.12c-.07.08-.13.22-.22.25-.27.08-.24,0,.12-.16A.65.65,0,0,1,46.94,57.12Z"/><path class="cls-1" d="M47.72,49.29l-1.87.06,0,0h2Z"/><path class="cls-1" d="M47.78,49.34c-.06.12-.11.24-.17.37a1.1,1.1,0,0,0,.16,1.45l.08,0c-.05-.63-.09-1.26-.13-1.89Z"/><path class="cls-1" d="M49.56,51.48c-.55-.08-1.06-.44-1.68-.3,0,0-.1,0-.11,0,.57.11,1.21,0,1.71.44Z"/><path class="cls-1" d="M49.48,51.6l.45,1.45.12.1c-.17-.55-.33-1.1-.49-1.66A1,1,0,0,0,49.48,51.6Z"/><path class="cls-1" d="M49.93,53.05l.35-.13-.23.22Z"/><path class="cls-1" d="M51.73,44.6l.29-.16-.21.2Z"/><path class="cls-1" d="M66.77,87.39l0-.36c.31.14.26.23-.16.26Z"/><polygon class="cls-1" points="69.39 62.21 69.6 62.22 69.28 62.31 69.39 62.21"/><polygon class="cls-1" points="72.61 74.75 72.33 74.72 72.5 74.89 72.61 74.75"/><path class="cls-1" d="M79.34,60.55l.09-.23c-.29,0-.29.06,0,.12Z"/><path class="cls-1" d="M85.26,49.19,85,49.07s.34,0,.34,0Z"/><path class="cls-1" d="M90,109.71a4.41,4.41,0,0,0,2,0l-.07,0a2,2,0,0,0-1.89.05Z"/><path class="cls-1" d="M92,111.77a3.86,3.86,0,0,0,0-2s.08,0,.08,0-.14.26-.22.39a1.16,1.16,0,0,0,.15,1.6Z"/><path class="cls-1" d="M92,111.73l2.27,0s0,0,0,0c-.45,0-.9-.07-1.36-.14a1.08,1.08,0,0,0-.86.2Z"/><path class="cls-1" d="M97.14,117.32l.12-.31c.16.1.1.21-.21.36Z"/><path class="cls-1" d="M97.79,84.67l-.25-.14.35.09Z"/><path class="cls-1" d="M97.1,37.78c.09-.08.2-.24.27-.23.34.07.28.12-.18.11Z"/><path class="cls-1" d="M103.26,121.81c0,.38,0,.76,0,1.13l-1.1-1.1Z"/><path class="cls-1" d="M117.64,9.63l0-.29c.23.14.17.2-.16.18Z"/><path class="cls-1" d="M123.11,109.63a4.9,4.9,0,0,0,1.32-.46c2.16-1.63,4.43-3.11,6.46-4.91a5.15,5.15,0,0,1,2.05-1.18,1.84,1.84,0,0,1,.93,0,1.68,1.68,0,0,1,.77.48,1.24,1.24,0,0,1-.13,1.33,6.6,6.6,0,0,1-1.11.88c-1.11.62-2.32,1.08-3.36,1.8-1.29.91-2.45,2-3.68,3a28.82,28.82,0,0,0-3.72,3.69c-.81,1-1.66,1.93-2.5,2.88a1,1,0,0,1-.86.31c-.31,0-.49-.82-.34-1.27a11.85,11.85,0,0,1,3-4.83,16.94,16.94,0,0,0,1.24-1.43c.09-.11.08-.3.12-.46Z"/><path class="cls-1" d="M124.31,103.54a17.79,17.79,0,0,1,2.64-3.35,10.11,10.11,0,0,1,4.37-2.79,1.22,1.22,0,0,1,1.58,1.21,1,1,0,0,1-.09.46,2.38,2.38,0,0,1-.56.75,50.87,50.87,0,0,1-6.66,3.66,2,2,0,0,1-1.39-.06A1.31,1.31,0,0,0,124.31,103.54Z"/><path class="cls-1" d="M136.38,98.13a1.32,1.32,0,0,0-.81-.41,2.09,2.09,0,0,1-.78-.44c-.38-.3-.55-1-.31-1.26,1.39-1.54,2.08-3.49,3.1-5.25.63-1.09,1.2-2.21,1.84-3.29a.65.65,0,0,1,.85-.21.78.78,0,0,1,.56.66,2,2,0,0,1-.09.92,44,44,0,0,1-2.83,4.89c-.67,1.06-1.32,2.14-1.9,3.25a.85.85,0,0,0,.42,1.17Z"/><path class="cls-1" d="M117.81,106.67a1.76,1.76,0,0,1,.11-1.37,8.33,8.33,0,0,1,.77-1.19,6.79,6.79,0,0,1,1-1c1.35-1.11,2.7-2.2,4.08-3.26a43.71,43.71,0,0,1,3.59-3.07c.13-.08.34-.17.44-.11a.45.45,0,0,1,.13.78c-1.22,1.24-2.45,2.47-3.71,3.67q-2.22,2.13-4.52,4.19a5.81,5.81,0,0,1-2,1.29Z"/><path class="cls-1" d="M152.59,106c.33,0,.88.78.75,1.08a1.44,1.44,0,0,1-.21.41,5.5,5.5,0,0,1-5.47,1.67,1.69,1.69,0,0,1-.69-.57.62.62,0,0,1,0-.84,3.08,3.08,0,0,1,1.5-1,7.22,7.22,0,0,1,1.35-.34A21.52,21.52,0,0,1,152.59,106Z"/><path class="cls-1" d="M135.5,106.84a.87.87,0,0,1,.63.59.49.49,0,0,1-.38.74,8.43,8.43,0,0,0-2.64,1.07c-1.19.79-2.4,1.55-3.6,2.32-.53.35-1.06.7-1.6,1a.69.69,0,0,1-.86,0,.52.52,0,0,1,0-.8c.43-.46.95-.84,1.4-1.28a16.1,16.1,0,0,1,6.59-3.7A1.28,1.28,0,0,1,135.5,106.84Z"/><path class="cls-1" d="M139.52,99.62a14.6,14.6,0,0,1,4.85-6.35,12.93,12.93,0,0,0,1.34-1.33c.28-.28.89-.13,1.22.28a1.12,1.12,0,0,1-.15,1.66q-2.19,1.83-4.35,3.71c-.6.52-1.12,1.13-1.72,1.65a1.39,1.39,0,0,1-1.32.3Z"/><path class="cls-1" d="M126.2,105.61c-.45,1-1.42,1.62-2.12,2.45a3.74,3.74,0,0,0-1,1.56l.15-.17a3.6,3.6,0,0,0-.9.24,8.12,8.12,0,0,0-2.77,2.54c-.35.51-.73,1-1.12,1.52a.73.73,0,0,1-.84.23.59.59,0,0,1-.37-.76,4.52,4.52,0,0,1,.51-1.3,19.91,19.91,0,0,1,7.17-6,4.46,4.46,0,0,1,1.39-.17Z"/><path class="cls-1" d="M140.15,131.12c0,1.26-.08,2.52-.09,3.78a43.19,43.19,0,0,1-.53,6.11,2.18,2.18,0,0,1-.59,1.26.67.67,0,0,1-.78.19.6.6,0,0,1-.27-.37,11.57,11.57,0,0,1,.11-4.69c.3-1.55.53-3.1.7-4.66a1.59,1.59,0,0,1,1.44-1.58Z"/><path class="cls-1" d="M123.93,119.22a3.4,3.4,0,0,1,1.18-2,17.48,17.48,0,0,1,5.37-2.9.81.81,0,0,1,.87.22.55.55,0,0,1,0,.79,16.36,16.36,0,0,1-6.67,4.29.6.6,0,0,1-.42-.1C124.11,119.47,124,119.33,123.93,119.22Z"/><path class="cls-1" d="M126.81,79.29a2.5,2.5,0,0,1,1.64.84,1.22,1.22,0,0,1,.27.87,8.67,8.67,0,0,1-1.2,3.53,1.09,1.09,0,0,1-.75.45c-.33,0-.55-.29-.64-.6a3.73,3.73,0,0,1-.09-.46c0-.46.21-1.06-.25-1.31a3.66,3.66,0,0,0-1.35-.13.81.81,0,0,1-.43-.14c-.12-.09-.29-.3-.26-.37a11.31,11.31,0,0,1,2.19-2.39C126.13,79.38,126.52,79.38,126.81,79.29Z"/><path class="cls-1" d="M118.29,96.29a5,5,0,0,1-.2-.92,3.17,3.17,0,0,1,.16-.91,1.12,1.12,0,0,1,.25-.4A47.13,47.13,0,0,1,123.13,90a10,10,0,0,1,1.59-1,.45.45,0,0,1,.37.11.57.57,0,0,1,.13.4.76.76,0,0,1-.16.43,17.53,17.53,0,0,1-5,4.3,5.58,5.58,0,0,0-1.13.87,2.35,2.35,0,0,0-.68,1.22S118.29,96.29,118.29,96.29Z"/><path class="cls-1" d="M118.76,97.75a1.41,1.41,0,0,1,.06-.47,3.75,3.75,0,0,1,1.24-1.41q2.19-1.44,4.39-2.83a.4.4,0,0,1,.38.06c.08.09.15.32.09.4a7.93,7.93,0,0,1-1.19,1.44A34.55,34.55,0,0,1,119.5,98a.63.63,0,0,1-.45.1C118.93,98.06,118.85,97.87,118.76,97.75Z"/><path class="cls-1" d="M143.15,98.6a12,12,0,0,0,2.6-2,5.48,5.48,0,0,1,2.93-1.41.71.71,0,0,1,.77.47.92.92,0,0,1,0,.87.9.9,0,0,1-.34.33,13.86,13.86,0,0,1-4.89,1.72,4.32,4.32,0,0,1-.94-.06Z"/><path class="cls-1" d="M121.37,83.78c.46,0,.88.62.71,1a9.28,9.28,0,0,1-.39.85,13.41,13.41,0,0,1-2.15,2.49c-.26.25-.56.33-.78.12a.83.83,0,0,1-.1-.87,9.37,9.37,0,0,1,1.9-3.22,1,1,0,0,1,.37-.29A2,2,0,0,1,121.37,83.78Z"/><path class="cls-1" d="M129.9,86.12c.69-.43,1.07-.84,1.53-.44.2.18.12.55,0,.87-.26.57-.5,1.15-.78,1.72a1.08,1.08,0,0,1-.34.33.84.84,0,0,1-.86.15,1.58,1.58,0,0,1-.94-1,1,1,0,0,1,.14-.88,1,1,0,0,1,.34-.31C129.38,86.35,129.81,86.16,129.9,86.12Z"/><path class="cls-1" d="M146.61,102a1.37,1.37,0,0,1,.07-.42,1.78,1.78,0,0,1,1.13-.76,2.85,2.85,0,0,1,2.27.08.48.48,0,0,1,.23.32.53.53,0,0,1-.18.42,5.41,5.41,0,0,1-3.17.65C146.83,102.26,146.73,102.08,146.61,102Z"/><path class="cls-1" d="M141.2,93.55a8.06,8.06,0,0,1-.3-.91,2.3,2.3,0,0,1,0-.94,3.5,3.5,0,0,1,1.3-1.94c.41-.31,1.15-.29,1.28.06a.84.84,0,0,1-.07.89c-.52.59-1.1,1.14-1.65,1.71a2.36,2.36,0,0,0-.67,1.24Z"/><path class="cls-1" d="M128,94.3c-.14,0-.32,0-.41-.11a.54.54,0,0,1-.06-.8,2.25,2.25,0,0,1,1.49-1,.68.68,0,0,1,.78.39.7.7,0,0,1-.13.84A3,3,0,0,1,128,94.3Z"/><path class="cls-1" d="M133.94,83.44a7.44,7.44,0,0,1-3.27-1.33c-.07,0-.08-.28,0-.36a.57.57,0,0,1,.36-.22.74.74,0,0,1,.44,0,3.89,3.89,0,0,1,2.37,2Z"/><path class="cls-1" d="M134.65,110.61c.09.1.26.21.29.34a.68.68,0,0,1-.13.44,1.15,1.15,0,0,1-.74.55c-.64.18-1.34,0-1.29-.25a1.3,1.3,0,0,1,.92-1A4.68,4.68,0,0,1,134.65,110.61Z"/><path class="cls-1" d="M133.48,90.17c.1.08.27.15.31.26a1.74,1.74,0,0,1-.3,1.7.62.62,0,0,1-.79.2.57.57,0,0,1-.3-.76,7.41,7.41,0,0,1,.69-1.18C133.16,90.28,133.34,90.24,133.48,90.17Z"/><path class="cls-1" d="M133.81,83.57a2.71,2.71,0,0,1,2.54,1,.73.73,0,0,1,.13.43c0,.33-.2.53-.57.51a7.62,7.62,0,0,1-.93-.18,1.15,1.15,0,0,1-1-.9,6,6,0,0,1-.08-.94Z"/><path class="cls-1" d="M138.78,118.63c0-.7.32-1.29.49-1a2.25,2.25,0,0,1,.33.82,3.11,3.11,0,0,1,0,.91.52.52,0,0,1-.27.33.38.38,0,0,1-.33-.17A6.39,6.39,0,0,1,138.78,118.63Z"/><path class="cls-1" d="M120.48,77.75a3.22,3.22,0,0,1,1.84.2l.45.13c.52.18.54.4,0,.43a3.87,3.87,0,0,1-1.85-.12.66.66,0,0,1-.37-.78Z"/><path class="cls-1" d="M151.44,98.17c.36,0,.57.08.55.37,0,.08-.21.16-.33.19a.62.62,0,0,1-.74-.21C150.82,98.31,151.08,98.19,151.44,98.17Z"/><path class="cls-1" d="M116.7,90.72a.58.58,0,0,1-.6.58c-.07,0-.18-.25-.19-.39,0-.39.17-.59.54-.52C116.55,90.41,116.62,90.61,116.7,90.72Z"/><path class="cls-1" d="M116.93,85.19c.12-.13.2-.3.28-.31.33,0,.46.19.32.51a.5.5,0,0,1-.28.26C117,85.68,116.87,85.48,116.93,85.19Z"/><path class="cls-1" d="M119,81.47a.35.35,0,0,1,.33,0,.66.66,0,0,1,.07.81c-.23.41-.45.39-.6,0A.68.68,0,0,1,119,81.47Z"/><path class="cls-1" d="M140.14,131.16a5.2,5.2,0,0,1-.23-.86,3.52,3.52,0,0,1,.07-.79c.05.09.15.17.16.26s-.07.29-.07.44.05.59.08.9Z"/><path class="cls-1" d="M136.43,98.16a.5.5,0,0,0-.17.73,1.87,1.87,0,0,1,.13.4h-.34c.07-.4.5-.69.33-1.16Z"/><path class="cls-1" d="M143.66,107.76c-.38.19-.58.17-.47.08s.27,0,.42,0Z"/><path class="cls-1" d="M153,101.31c.13-.08.26-.21.38-.21s.23.17.34.26c-.13.07-.25.21-.37.2S153.08,101.4,153,101.31Z"/><path class="cls-1" d="M116.33,107.25a.69.69,0,0,1,.14.82c-.87-.21-.07-.47,0-.7Z"/><path class="cls-1" d="M114.88,101.23v.35c.39-.12.38-.24,0-.35Z"/><path class="cls-1" d="M117.13,101.19a4.15,4.15,0,0,1-2.24,0h0l2.13.07Z"/><path class="cls-1" d="M116.6,97.07l.09.12Z"/><path class="cls-1" d="M116.45,107.37a1.29,1.29,0,0,1,1.35-.7.47.47,0,0,0-.1-.1,1.06,1.06,0,0,1-1.36.69Z"/><path class="cls-1" d="M117,101.3l0-.3c-.27,0-.23.09.13.19A1,1,0,0,1,117,101.3Z"/><path class="cls-1" d="M116.69,97.19a1.77,1.77,0,0,1,1.58-.91s-.06,0,0,0a2.64,2.64,0,0,0-1.64.76Z"/><path class="cls-1" d="M119.17,100.6l.12.08Z"/><path class="cls-1" d="M120.51,100a1.61,1.61,0,0,1-1.33.6l.11.08a2.44,2.44,0,0,1,1.31-.55Z"/><polygon class="cls-1" points="120.58 77.61 120.4 77.69 120.48 77.76 120.58 77.61"/><path class="cls-1" d="M121,98.47q-.27.75-.54,1.53a1.47,1.47,0,0,1,.1.13c.21-.58.41-1.17.61-1.76Z"/><polygon class="cls-1" points="122.41 117.21 122.2 117.33 122.39 117.35 122.41 117.21"/><path class="cls-1" d="M121.21,98.37l0,.3c.28-.1.24-.16-.13-.19A1.63,1.63,0,0,1,121.21,98.37Z"/><path class="cls-1" d="M122,88.2l.11,0Z"/><path class="cls-1" d="M122.39,117.35l.06-.32a1,1,0,0,0,0,.18A.66.66,0,0,1,122.39,117.35Z"/><path class="cls-1" d="M123.38,104.76l.11.13Z"/><path class="cls-1" d="M123.83,87.46c-.59.25-1.18.5-1.79.74l.1,0a1.58,1.58,0,0,0,1.61-.59Z"/><path class="cls-1" d="M143.61,107.89v-.38s0,.23,0,.24A.57.57,0,0,1,143.61,107.89Z"/><path class="cls-1" d="M123.49,104.89a1.49,1.49,0,0,1,.82-1.34s-.11-.12-.11-.13a1.51,1.51,0,0,1-.82,1.33A1.71,1.71,0,0,0,123.49,104.89Z"/><path class="cls-1" d="M123.75,87.65l-.11-.32c-.22.23-.16.27.19.14C123.83,87.46,123.75,87.65,123.75,87.65Z"/><path class="cls-1" d="M143.26,98.47l.1.32-.2-.19A1.13,1.13,0,0,1,143.26,98.47Z"/><path class="cls-1" d="M126.33,105.72a2.85,2.85,0,0,1,0-.35c.29,0,.24.07-.14.23Z"/><path class="cls-1" d="M141.06,93.66l-.09-.28s.23.15.23.16Z"/><path class="cls-1" d="M139.39,99.54c.07.1.21.27.19.31-.22.28-.24.2-.05-.22Z"/><path d="M113.25,27.73a3.92,3.92,0,0,1-2.29-.31.54.54,0,0,1-.23-.4c0-.11.18-.25.31-.32a.86.86,0,0,1,.45-.07,11.74,11.74,0,0,0,4.72-.19,19.37,19.37,0,0,1,5.21-.43c.36,0,.7.22.65.39-.11.32-.44.43-.77.49A47.28,47.28,0,0,1,113.25,27.73Z"/><path d="M111.49,33.86a4,4,0,0,1-2.18-.56.59.59,0,0,1-.11-.44.53.53,0,0,1,.26-.34,1.64,1.64,0,0,1,1.27.28,1.45,1.45,0,0,1,.64,1.15Z"/><path d="M114.65,34.52a7.65,7.65,0,0,1-3.15-.67l-.13.1a4.29,4.29,0,0,1,1.75-.23,1.67,1.67,0,0,1,1.42.92Z"/><path d="M116.91,35.25a1.7,1.7,0,0,1-2.26-.73l-.11.12a2.32,2.32,0,0,1,2.26.72Z"/><path d="M104.05,39.26a5.11,5.11,0,0,1,1.37.24c2,.93,3.92,2,5.92,2.85a19.72,19.72,0,0,0,6.73,1.93.73.73,0,0,1,.74.93,9.28,9.28,0,0,1-.22.91c-.59-.17-1.19-.37-1.79-.51A42.59,42.59,0,0,1,104.53,40C104.3,39.87,104.21,39.51,104.05,39.26Z"/><path d="M100.88,40.63a1.72,1.72,0,0,1,1.37-.06,6.68,6.68,0,0,1,.82.47,38.8,38.8,0,0,0,8.45,4.34,3.35,3.35,0,0,1,1.6.94s-.09.28-.17.29a2.35,2.35,0,0,1-.91,0,33,33,0,0,1-8.7-3.79A8,8,0,0,1,101,40.51Z"/><path d="M94.61,29.84a2.59,2.59,0,0,1-.91-1,42.23,42.23,0,0,1-2.17-4.68c-.65-1.6-1.32-3.18-2-4.75a8.12,8.12,0,0,0-.78-1.16,2.18,2.18,0,0,1,.89-1.07c.29-.16.73-.14.79.14a28.59,28.59,0,0,0,1.32,4.05c.88,2.21,1.72,4.43,2.58,6.64A5.16,5.16,0,0,1,94.61,29.84Z"/><path d="M88.87,18.16c-.06,1.09-.16,2.19-.17,3.29a10.59,10.59,0,0,0,.69,4.16,6,6,0,0,1,.43,2.31c-.24-.19-.58-.33-.71-.58a7.93,7.93,0,0,1-1-2.14A48.14,48.14,0,0,1,87,18.67a.72.72,0,0,1,.93-.74C88.26,18,88.56,18.08,88.87,18.16Z"/><path d="M87.9,31.75c-.13-.09-.3-.14-.37-.26a17.9,17.9,0,0,1-2.64-6.66c.13.08.3.13.38.25a19.19,19.19,0,0,1,2.57,6.22C87.87,31.44,87.88,31.6,87.9,31.75Z"/><path d="M95.46,17.14a1.37,1.37,0,0,1,.37.26c1.1,1.3,1.44,3,2.16,4.47a7.73,7.73,0,0,1,.43,1.75,2.28,2.28,0,0,1,0,.45,1.47,1.47,0,0,1-.38-.25,16,16,0,0,1-2.61-5.77A4,4,0,0,1,95.46,17.14Z"/><path d="M89.69,27.7c.14.08.33.12.41.24a7.08,7.08,0,0,1,1.64,3.81A4.81,4.81,0,0,1,89.69,27.7Z"/><path d="M92.57,32.51a4.21,4.21,0,0,1,2.06,3.08A3.58,3.58,0,0,1,92.57,32.51Z"/><path d="M99.29,25.78a1.55,1.55,0,0,1,1,1.28c0,.29.07.57.1.86A2.22,2.22,0,0,1,99.29,25.78Z"/><path d="M98.33,23.87A2.1,2.1,0,0,1,99.42,26a1.53,1.53,0,0,1-1-1.27C98.39,24.44,98.36,24.15,98.33,23.87Z"/><path d="M89.83,35.59a1.34,1.34,0,0,1-.85-.87,10.74,10.74,0,0,1-.23-1.26A3.53,3.53,0,0,1,89.83,35.59Z"/><path d="M88.86,33.66a1.36,1.36,0,0,1-.84-.88c-.11-.4-.16-.82-.24-1.24A3.4,3.4,0,0,1,88.86,33.66Z"/><path d="M91.59,31.57a1.28,1.28,0,0,1,1.13,1.12C92,32.63,91.76,32.16,91.59,31.57Z"/><path d="M82.88,30c.25.37.55.73.78,1.14s.17,1.32-.11,1.28a.81.81,0,0,1-.62-.58c-.17-.44-.38-.86-.53-1.3a.49.49,0,0,1,.08-.42C82.53,30.07,82.71,30.07,82.88,30Z"/><path d="M48.48,41.29l-.29-.21c.22-.15.28,0,.16.31Z"/><path d="M107,9.5h1.09v2.07a1.44,1.44,0,0,1-1-1.24C107,10.06,107,9.78,107,9.5Z"/></g></g></svg>