<svg xmlns="http://www.w3.org/2000/svg" viewBox="0 0 136.01 159.42"><defs><style>.cls-1{fill:#fff;}</style></defs><title>Zeeplant15</title><g id="Laag_2" data-name="Laag 2"><g id="Laag_1-2" data-name="Laag 1"><path d="M128.43,107.45a1.05,1.05,0,0,1,.78.48,39,39,0,0,1,2.64,5.63,24.07,24.07,0,0,1,1.49,5.52c.27,2.37.85,4.71,1,7.11a6.25,6.25,0,0,0,.26,1.41,17.06,17.06,0,0,1,.48,4.27,13.05,13.05,0,0,0,.35,3.8,17.71,17.71,0,0,1,.62,5.69q0,6.94-.08,13.9c0,1.27,0,2.55,0,3.82,0,.12-.1.23-.15.34-.12-.1-.33-.2-.33-.3-.1-1.43-.15-2.87-.26-4.3a1.3,1.3,0,0,0-.36-.85c-.21-.17-.6-.12-.91-.16-.9-.12-1.24-.41-1.26-1.11,0-1-.1-1.92,0-2.87a46.51,46.51,0,0,0-.08-7.18c-.05-.63-.06-1.27-.1-1.91a41.73,41.73,0,0,0-.32-5.26c-.47-2.67-.72-5.37-1.34-8-.3-1.24-.55-2.48-.95-3.7-.7-2.12-1.22-4.3-2-6.4a4.69,4.69,0,0,1-.27-2.35l-.11.07c.25.19.59.31.72.56a25.5,25.5,0,0,1,1.62,4.48,52.31,52.31,0,0,1,2.59,10.64,20.74,20.74,0,0,0,.55,2.33,11.27,11.27,0,0,1,.37,2.83c0,1.28,0,2.55,0,3.83a9.78,9.78,0,0,0,.17,2.37,19.79,19.79,0,0,1,.4,6.18,4.43,4.43,0,0,0,.2,1.4.6.6,0,0,0,.65.46c.12,0,.26-.2.31-.34a2.72,2.72,0,0,0,.2-.92c0-3.19-.12-6.37-.22-9.56a7.91,7.91,0,0,0-.28-1.88,16.16,16.16,0,0,1-.49-4.26,17.32,17.32,0,0,0-.64-5.21,8.14,8.14,0,0,1-.24-1.41c-.35-2.68-.68-5.37-1-8a13.13,13.13,0,0,0-.41-1.86,19.86,19.86,0,0,0-1.53-4c-.58-1.14-1.12-2.29-1.65-3.45a3.07,3.07,0,0,1-.21-1.87Z"/><path d="M23.78,51.72a3.12,3.12,0,0,1-.93-.15A8,8,0,0,1,19.2,48a.72.72,0,0,1,.14-.87,3.12,3.12,0,0,1,.74-.57,25,25,0,0,1,7.24-2.3A13.09,13.09,0,0,0,33,42a14.66,14.66,0,0,1,4.76-2.12q.91-.27,1.8-.6a.66.66,0,0,0,.28-.33c.17-.34,0-.57-.4-.64a10.72,10.72,0,0,0-3.79.09q-4.44.86-8.88,1.76a4,4,0,0,0-.91.26c-2.72,1.3-5.72,1.91-8.37,3.4a1.37,1.37,0,0,1-1.61-.65A17.63,17.63,0,0,1,14.78,41a21.93,21.93,0,0,1-1.66-6.43l-.1.09a1.28,1.28,0,0,1,1.09.78c.32.73.59,1.47.84,2.23.2.6.26,1.25.5,1.83a6.23,6.23,0,0,0,1.21,2,1.66,1.66,0,0,0,1.28.45c1-.4,2.06-.84,3.1-1.21s1.86-.48,2.72-.86a42.17,42.17,0,0,1,8.74-2.3c2.49-.5,5-.73,7.57-1a12.31,12.31,0,0,1,2.84.11,4,4,0,0,1,1.28.57.87.87,0,0,1,.09,1.22,4.06,4.06,0,0,1-1.93,1.34,31.19,31.19,0,0,1-3.67,1,12.78,12.78,0,0,0-5.6,2.51,9.84,9.84,0,0,1-3.87,1.74,29.79,29.79,0,0,1-3.25.69,12.92,12.92,0,0,0-4.05,1.32,1.23,1.23,0,0,0-.38,1.66c.62.72,1.27,1.41,1.9,2.12a1.07,1.07,0,0,1,.26.87Z"/><path d="M27.44,4.87A3.47,3.47,0,0,1,27,4.7a10.19,10.19,0,0,0-6.4-1.26,6.74,6.74,0,0,1-1.42,0,6.82,6.82,0,0,1-3.58-1.1,10.06,10.06,0,0,0-1.19-.77,2.62,2.62,0,0,0-1.85-.16,4.64,4.64,0,0,0-1.33.45,4.77,4.77,0,0,1-3.67.47C6.78,2.19,6,2,5.23,1.89a11.92,11.92,0,0,0-1.89,0,.76.76,0,0,0-.74.44.83.83,0,0,0,.13.88,11,11,0,0,1,.74,1.17c.07.12,0,.31,0,.47l.11-.11c-.41.24-.88.45-.94,1a1.79,1.79,0,0,0,.1.92,34.09,34.09,0,0,1,1.55,3.45,27.43,27.43,0,0,1,.47,3.29,33.2,33.2,0,0,0,.84,3.71C6.23,19.2,6.88,21.33,8.5,23a7.35,7.35,0,0,1,1,1.59,57.64,57.64,0,0,1,3.62,8.25A2.43,2.43,0,0,1,13,34.67l.09-.08a4.08,4.08,0,0,1-1.22-2A37.53,37.53,0,0,0,10,27.67a21.2,21.2,0,0,0-2.71-4.5A12.93,12.93,0,0,1,4.79,18a30.88,30.88,0,0,1-1.14-5.63A8.07,8.07,0,0,0,2,8,10.8,10.8,0,0,1,0,2.13C0,2,0,1.81,0,1.65A1.45,1.45,0,0,1,1.47.15c1.9.27,3.8.5,5.69.82A6.33,6.33,0,0,0,11.35.4,4.43,4.43,0,0,1,13.68,0a4.22,4.22,0,0,1,1.84.47c.42.24.85.46,1.24.73a4.91,4.91,0,0,0,2.71.85A23.6,23.6,0,0,1,25.61,3a3.94,3.94,0,0,1,1.23.72A1.27,1.27,0,0,1,27.32,5Z"/><path d="M104.62,85.49a5.24,5.24,0,0,1-1.18,2c-.22.23-.45.44-.69.65a47.36,47.36,0,0,0-5.66,5.67,11.29,11.29,0,0,1-3.28,2.67,2.42,2.42,0,0,1-.91.12.68.68,0,0,1-.72-.49,3.46,3.46,0,0,1,0-2.75,22.08,22.08,0,0,1,1.28-2.52,3.87,3.87,0,0,0,.32-2.3c-.09-.75-.29-1-1.18-1.18a3.73,3.73,0,0,0-.47,0l.11.11c0-.31-.12-.68,0-.91,1-1.77,2.1-3.53,3.18-5.27.35-.57,1-.56,1.63,0a1.38,1.38,0,0,1,.41,1.29,2.9,2.9,0,0,1-.26.9c-.51,1-1.07,1.94-1.57,2.92a5.51,5.51,0,0,0-.75,2.24,11.44,11.44,0,0,1-1.57,4.93.82.82,0,0,0-.06.47,1.07,1.07,0,0,0,.15.41.68.68,0,0,0,.8.33,2.64,2.64,0,0,0,.86-.37,6,6,0,0,0,1.08-.92c2.29-2.63,4.93-4.92,7.28-7.49a1.29,1.29,0,0,1,1.28-.37Z"/><path d="M57.67,74.19a1.55,1.55,0,0,1,.46.11c1.76,1.1,3.57,2.11,5.23,3.34a33.12,33.12,0,0,0,6.56,3.88,13.64,13.64,0,0,1,3.91,2.69c.35.32.67.68,1,1A27.47,27.47,0,0,0,77.49,88c1.63,1.27,3.4,2.35,5.1,3.54.78.55,1.87.48,2.51,1.28a.62.62,0,0,1,.12.45.57.57,0,0,1-.64.5,2.39,2.39,0,0,1-.92-.22c-1.1-.63-2.2-1.27-3.28-2-.8-.52-1.54-1.13-2.34-1.65a13.44,13.44,0,0,1-2.87-2.5c-.4-.49-.9-.9-1.32-1.38a14.6,14.6,0,0,0-5.35-3.9A16.57,16.57,0,0,1,64,79.44a25.6,25.6,0,0,0-4.78-3.14,4.73,4.73,0,0,1-1.86-1.43.47.47,0,0,1,0-.4C57.38,74.35,57.55,74.29,57.67,74.19Z"/><path d="M87.23,37.32a3.92,3.92,0,0,1,1.36.27,21.69,21.69,0,0,1,2.3,1.67,2.72,2.72,0,0,1,.74,3c-.39,1-.84,2-1.25,3.07S89.45,47.7,89,48.89a3.37,3.37,0,0,0,.07,2.32,1.19,1.19,0,0,0,1.62.42l.36-.3a1.47,1.47,0,0,0,.32-.34c1.27-2.37,3.19-4.32,4.35-6.76.07-.14.14-.28.22-.42a1.17,1.17,0,0,1,1.61-.37,2.48,2.48,0,0,1,1.11,1.47l.1-.11a4.32,4.32,0,0,1-.9.3,1.82,1.82,0,0,0-1.22.65,58.45,58.45,0,0,0-3.93,5.42,5.75,5.75,0,0,1-2,2,3.42,3.42,0,0,1-.9.31,1.43,1.43,0,0,1-1.53-.84,6.67,6.67,0,0,1,0-4.68c.67-1.79,1.44-3.54,2.1-5.33A2.37,2.37,0,0,0,89.73,40c-.68-.67-1.45-1.24-2.16-1.88a1,1,0,0,1-.24-.88Z"/><path d="M55.39,15.28a5.35,5.35,0,0,1-1.3-.52,59.74,59.74,0,0,0-6.4-4A30.1,30.1,0,0,0,38,7.12c-1.86-.34-3.71-.67-5.6-.84a11.36,11.36,0,0,1-4.95-1.42L27.32,5a7.42,7.42,0,0,1,1.39-.21c2.87.13,5.66.87,8.51,1.13,3.06.86,6.2,1.47,9.08,2.89a40.12,40.12,0,0,1,8.41,5.39,1.35,1.35,0,0,1,.57,1.22Z"/><path d="M66.11,21.94A3.5,3.5,0,0,1,67,22a19.45,19.45,0,0,1,6.69,4.39,45.82,45.82,0,0,0,9.77,7.42,13.1,13.1,0,0,1,3,2.29,2.75,2.75,0,0,1,.72,1.19l.1-.11A2,2,0,0,1,86,37c-2.59-1.83-5.37-3.35-7.88-5.28a42.68,42.68,0,0,1-4-3.32c-.57-.55-1.18-1.06-1.75-1.61a16.62,16.62,0,0,0-4.23-3,10.81,10.81,0,0,1-1.57-1.06,1,1,0,0,1-.32-.83Z"/><path d="M118.93,97.7c-.14-.07-.34-.1-.41-.21a50.16,50.16,0,0,1-5.14-9,32.61,32.61,0,0,0-1.41-3A10.27,10.27,0,0,0,110.86,84a3.46,3.46,0,0,0-1.58-1,2.25,2.25,0,0,0-2.24.29c-.86.68-1.63,1.47-2.43,2.23l.12.13a1.8,1.8,0,0,1,.28-1.72c.38-.47.8-.92,1.23-1.36a3.74,3.74,0,0,1,3.84-.81c.74.17,1.35.74,2.14.78l-.14-.17a1.47,1.47,0,0,0,0,.47c2.54,5.76,1.76,4.89,5,10.2.57.94,1,2,1.5,3a3.34,3.34,0,0,1,.23,1.85Z"/><path d="M117.86,61.46a1.19,1.19,0,0,1,.8,1.5,13.88,13.88,0,0,1-1.76,4.42A34.68,34.68,0,0,0,114.45,72,27.42,27.42,0,0,1,112,76.66a.55.55,0,0,1-.79.12.65.65,0,0,1-.23-.39.75.75,0,0,1,0-.47c.27-.57.56-1.14.86-1.7a36.06,36.06,0,0,0,2.46-4.64,7.37,7.37,0,0,1,.92-1.67A17.79,17.79,0,0,0,118,61.35Z"/><path d="M23.69,51.82a6.82,6.82,0,0,1,1.42,0c2,.39,4,1,6.05,1.38a9.51,9.51,0,0,1,3.94,1.68c1,.73,2.07,1.48,3.07,2.27a1.39,1.39,0,0,1,.33.8c0,.33-.89.47-1.26.19-.13-.09-.28-.16-.4-.25s-.24-.21-.36-.32c-3.58-3-3.38-2.59-8.53-4-.92-.24-1.87-.37-2.8-.62a2,2,0,0,1-1.37-1.21Z"/><path d="M112.14,56.47a3.05,3.05,0,0,1-2.19-.65c-1.23-1-2.41-2-3.61-3a30.38,30.38,0,0,0-5.12-4.76,7.72,7.72,0,0,1-1-1,1.59,1.59,0,0,1-.33-1.3l-.12.11a16.35,16.35,0,0,1,3.36,2.51c1.23,1.19,2.47,2.38,3.77,3.49,1.54,1.32,3.16,2.54,4.72,3.83.22.18.29.53.42.8Z"/><path d="M55.28,15.39a2.26,2.26,0,0,1,1.36.12,23.85,23.85,0,0,1,4,2.33,43,43,0,0,0,4.62,3.06,1.73,1.73,0,0,1,.85,1l.09-.1a2,2,0,0,1-1.39-.08c-1-.53-2-1.09-2.88-1.71-2-1.33-4-2.7-5.9-4.07a4.69,4.69,0,0,1-.63-.7Z"/><path d="M124.69,109.22a3.13,3.13,0,0,1-.74-.54,6.79,6.79,0,0,1-.73-1.22c-1-2.13-2.1-4.26-3.1-6.41a5.25,5.25,0,0,1-.23-1.39l-.11.07c.26.14.61.22.77.43a33.15,33.15,0,0,1,4,7.81,4.68,4.68,0,0,1,.08,1.36Z"/><path d="M112.22,82.5c0-.61-.08-1.22-.09-1.83,0-.12.15-.27.27-.35a.49.49,0,0,1,.36,0,.76.76,0,0,1,.39.22,37.81,37.81,0,0,1,3.52,5.42,4.43,4.43,0,0,1,.22,1.34l.12-.08a2,2,0,0,1-1.09-.86c-.74-1-1.46-2.08-2.24-3.08a2.13,2.13,0,0,0-1.6-.91Z"/><path d="M124.59,99.78a2.18,2.18,0,0,1,1,.89,30.65,30.65,0,0,1,2.71,5.4,4.48,4.48,0,0,1,.1,1.38l.11-.11c-.14-.07-.33-.1-.41-.22-1.25-1.94-2.17-4.06-3.22-6.11a4.61,4.61,0,0,1-.21-1.36Z"/><path d="M112,56.58a5.29,5.29,0,0,1,1.34.16,11,11,0,0,1,3.4,2.27,3.5,3.5,0,0,1,1.09,2.44l.11-.1a5,5,0,0,1-.78-.45,42.22,42.22,0,0,0-4.34-3.32,1.63,1.63,0,0,1-.71-1.11Z"/><path d="M116.89,87.26c.15,0,.33,0,.44.12a12.47,12.47,0,0,1,3.25,4.3,4.44,4.44,0,0,1,.16,1.34l.12-.08c-.16,0-.36-.06-.45-.16a26.44,26.44,0,0,1-3.25-4.68,3,3,0,0,1-.15-.92Z"/><path d="M92.15,87.33c-.53.58-1.1,1.13-1.58,1.75s-.66,1.06-1,1.58a.78.78,0,0,1-.37.27.41.41,0,0,1-.36,0,.44.44,0,0,1-.13-.38,6.27,6.27,0,0,1,1.79-2.73,1.76,1.76,0,0,1,1.77-.35Z"/><path d="M64.92,48c-1.44-.63-2.89-1.24-4.31-1.9a1.44,1.44,0,0,1-1-1.47l-.1.13c1.15.49,2.31,1,3.43,1.48a9.93,9.93,0,0,1,1.55,1,.88.88,0,0,1,.26.84Z"/><path d="M76.85,56.2a1.38,1.38,0,0,1-1.31-.07,7.07,7.07,0,0,1-2.69-2.43l-.11.12a4.05,4.05,0,0,1,1.28.27,7.93,7.93,0,0,1,2.72,2.23Z"/><path d="M3.46,4.84a1.75,1.75,0,0,1,1.7.37C6,5.89,6.79,6.6,7.59,7.3l.08-.12a2.39,2.39,0,0,1-.89,0A7.19,7.19,0,0,1,3.57,4.73Z"/><path d="M78.3,58.8a1.42,1.42,0,0,1,1.24,0A2.17,2.17,0,0,1,80.7,60a7.63,7.63,0,0,1,.17.83l.1-.08c-.87-.68-1.73-1.37-2.58-2.06Z"/><path d="M85.5,63.14A10,10,0,0,1,88.15,65l.1-.13a2.55,2.55,0,0,1-2.56-1.38c-.07-.11,0-.29-.06-.44Z"/><path d="M80.87,60.82a2,2,0,0,1,2.17.11,2.54,2.54,0,0,0,1.67.64s0,0,0,0a3.52,3.52,0,0,1-2.5-.31A4.65,4.65,0,0,0,81,60.72Z"/><path d="M37.1,26.24a.87.87,0,0,0,.33.79l1.74,1.43.08-.12a1.7,1.7,0,0,1-1.89-1.68c0-.15-.16-.28-.24-.41Z"/><path d="M96.57,72.24a2,2,0,0,1,2.15.43l1,1,.11-.13a2.09,2.09,0,0,1-1.69-.38c-.5-.32-1-.69-1.47-1Z"/><path d="M64.8,48.11a2.09,2.09,0,0,1,1.82.26c.54.34,1,.75,1.54,1.14l.08-.13a1.76,1.76,0,0,1-1.37-.05,6.35,6.35,0,0,1-2-1.34Z"/><path d="M122.65,96.9c.15,0,.35,0,.45.1a3.82,3.82,0,0,1,1.49,2.78l.11-.13a1.28,1.28,0,0,1-.43-.15,4,4,0,0,1-1.5-2.72Z"/><path d="M72.23,52a7.86,7.86,0,0,0-.84.19,1.31,1.31,0,0,1-1.23-.16A3.32,3.32,0,0,1,69,50.84l-.11.12a1.67,1.67,0,0,1,1.31.21,4.28,4.28,0,0,0,2,.95Z"/><path d="M44.23,32.24a2,2,0,0,1-1.74-.39,3.39,3.39,0,0,0-1.66-.75s0,.08,0,.08a3.53,3.53,0,0,1,3.28,1.17Z"/><path d="M101.44,76a1.79,1.79,0,0,1,1.76.29c.47.37,1,.76,1,1.47l.14-.11a6.05,6.05,0,0,1-2.8-1.77Z"/><path d="M105.19,79a6.09,6.09,0,0,1,.81-.22.45.45,0,0,1,.36.18c.19.36,0,.53-.38.37a4,4,0,0,1-.71-.47Z"/><path d="M127.57,115a1.17,1.17,0,0,1-1-1.11,5.35,5.35,0,0,1,0-.8l-.12.07a1.18,1.18,0,0,1,1,1.11,5.31,5.31,0,0,1,0,.8Z"/><path d="M126.62,113.1a.93.93,0,0,1-.72-.54,2.47,2.47,0,0,1-.24-1.39l-.13.08a1,1,0,0,1,.85.74,7.74,7.74,0,0,1,.12,1.18Z"/><path d="M125.66,111.17a1.23,1.23,0,0,1-1-1.15,7.06,7.06,0,0,1,0-.8l-.11.11a1.17,1.17,0,0,1,1,1.12,5.38,5.38,0,0,1,0,.8Z"/><path d="M121.69,95a1,1,0,0,1,.86.73,6.86,6.86,0,0,1,.1,1.2l.12-.12a1.76,1.76,0,0,1-1-1.92Z"/><path d="M120.74,93a1.17,1.17,0,0,1,1,1.13,5.63,5.63,0,0,1,0,.82l.13-.11a1.56,1.56,0,0,1-1-1.92Z"/><path d="M119.89,99.66a1.22,1.22,0,0,1-1-1.15,7.3,7.3,0,0,1,0-.81l-.11.11a1.2,1.2,0,0,1,1,1.12,5.4,5.4,0,0,1,0,.8Z"/><path d="M95.26,69.31a2.4,2.4,0,0,1-2.43-.1l-.11.13a6.29,6.29,0,0,1,2.52,0Z"/><path d="M90.06,67.22c.75.12,1.49.24,2.22.39,0,0,.06-.11.06-.11-.31,0-.61,0-.92.06a1.68,1.68,0,0,1-1.24-.46Z"/><path d="M59.66,44.63c-.66.39-1,.39-1,0,0-.08.12-.25.2-.25a.83.83,0,0,1,.68.39Z"/><path d="M37.12,26.25a3.13,3.13,0,0,0-.44,0,1.8,1.8,0,0,1-2-.63l-.12.08a5.26,5.26,0,0,0,2.48.5Z"/><path d="M34.73,25.66c-.75-.1-1.2-.68-1.78-1.09l-.14.07,1.79,1.1Z"/><path d="M30.86,23.66c.64.34,1.28.67,1.93,1l.16-.08c-1.09-.11-1.09-.11-2-1Z"/><path d="M28.45,23.28a3.62,3.62,0,0,1,2.39.39l.15-.1a3.69,3.69,0,0,1-2.45-.42Z"/><path d="M28.05,21.27a7.14,7.14,0,0,0-.93.09,2.33,2.33,0,0,1-1.38-.14l-.08.13c.8,0,1.6,0,2.38,0C28,21.36,28.05,21.27,28.05,21.27Z"/><path d="M24,18.47a5.61,5.61,0,0,1-2.16,0l0,.14c.74,0,1.49-.05,2.24,0C24,18.57,24,18.47,24,18.47Z"/><path d="M16.94,14.84c.6.09,1.26,0,1.77.46l.14-.07-1.93-.51Z"/><path d="M11.06,11.15a.74.74,0,0,0,.69.21,1.54,1.54,0,0,1,1.11.21l.12,0A1.93,1.93,0,0,0,11,11.12S11.06,11.15,11.06,11.15Z"/><path d="M8.36,8.81A6.48,6.48,0,0,1,10.64,9l0-.12c-.31.06-.61.13-.92.17a1.45,1.45,0,0,1-1.28-.37Z"/><path d="M8.46,8.68a2.92,2.92,0,0,1-.79-1.49s-.08.12-.08.11a3.66,3.66,0,0,1,.78,1.5Z"/><path d="M10.64,9l.42,2.13s0,0,0,0Q10.85,10,10.65,8.9S10.64,9,10.64,9Z"/><path d="M12.86,11.57l.36-.11-.22.13A.52.52,0,0,1,12.86,11.57Z"/><path d="M16.14,13.07,16,13l.08.16Z"/><path d="M16.92,14.72a3.06,3.06,0,0,0-.78-1.65l-.09.1c.3.54.59,1.09.89,1.65A.87.87,0,0,1,16.92,14.72Z"/><path d="M20.26,15.6a1.38,1.38,0,0,0-1.4-.38l-.15.08c.52.12,1.05.24,1.56.38C20.26,15.71,20.26,15.6,20.26,15.6Z"/><path d="M20.69,17.18a2.65,2.65,0,0,1-.43-1.56s0,.09,0,.06c.1.51.18,1,.27,1.57Z"/><path d="M21.81,18.45a1.91,1.91,0,0,0-1.11-1.27l-.16.07,1.25,1.33S21.81,18.45,21.81,18.45Z"/><path d="M24.85,19.7c-.29-.4-.59-.8-.88-1.21,0,0,.05.08.06.06-.07.58.38.9.74,1.27Z"/><path d="M25.74,21.22l-.89-1.51a.76.76,0,0,0-.08.11l.9,1.52Z"/><path d="M28.54,23.15A2.53,2.53,0,0,1,28,21.3s0,.06,0,0c.15.62.28,1.28.41,1.94A1.25,1.25,0,0,0,28.54,23.15Z"/><path d="M39.17,28.46c.29.36.59.71.89,1.07l.11-.12c-.46-.22-.6-.72-.92-1.07Z"/><path d="M40.06,29.53a2,2,0,0,1,.77,1.63s0-.09,0-.06c-.23-.54-.44-1.11-.66-1.68A1.14,1.14,0,0,0,40.06,29.53Z"/><path d="M44.1,32.35c.33.23.4.42.18.56,0,0-.18-.16-.18-.25a1.41,1.41,0,0,1,.12-.42Z"/><path d="M69,50.84a1.31,1.31,0,0,1-.72-1.45l-.08.12A2,2,0,0,1,68.85,51Z"/><path d="M72.19,52.12c.19.56.37,1.12.55,1.69l.11-.11A1.41,1.41,0,0,1,72.22,52Z"/><path d="M77.56,57.39a.89.89,0,0,1-.72-1.18l-.1.11a1.21,1.21,0,0,1,.7,1.18Z"/><path d="M77.44,57.5a1,1,0,0,1,.87,1.29l.08-.11a2.7,2.7,0,0,1-.83-1.29Z"/><path d="M85.63,63.05c-.82-.17-.93-.79-.94-1.5,0,0,0,0,0,0a2.1,2.1,0,0,0,.78,1.57Z"/><path d="M88.15,65l1.07.89a.94.94,0,0,1,.09-.12c-.64,0-.93-.33-1.06-.9Z"/><path d="M90.18,67.1a1.25,1.25,0,0,1-.87-1.32.48.48,0,0,0-.09.11,2.28,2.28,0,0,1,.84,1.32Z"/><path d="M92.83,69.21a1.71,1.71,0,0,1-.5-1.69s-.07.11,0,.09a2.69,2.69,0,0,1,.45,1.72Z"/><path d="M95.91,70.68c-.34,0-.57-.18-.62-.47a6.26,6.26,0,0,1,0-.88s0,.08,0,0c0,.53.41.92.56,1.41Z"/><path d="M96.66,72.11a2.8,2.8,0,0,1-.75-1.43l-.11.11a1.4,1.4,0,0,1,.78,1.44Z"/><path d="M98.7,44.91a1.76,1.76,0,0,1,1.06,1l.12-.11a1,1,0,0,1-1.08-1Z"/><path d="M99.71,73.65a1.22,1.22,0,0,1,.76,1.14l.12-.11a1,1,0,0,1-.77-1.15A1.31,1.31,0,0,0,99.71,73.65Z"/><path d="M100.47,74.79a1,1,0,0,1,1,1.16l.1-.11a1.77,1.77,0,0,1-1-1.16Z"/><path d="M105.27,78.87l-.92-1.26-.14.11a1.13,1.13,0,0,1,1,1.28Z"/><path class="cls-1" d="M119.78,99.73a5.4,5.4,0,0,0,0-.8,1.2,1.2,0,0,0-1-1.12,3.34,3.34,0,0,0-.23-1.85c-.48-1-.93-2-1.5-3-3.21-5.31-2.43-4.44-5-10.2a1.47,1.47,0,0,1,0-.47,2.13,2.13,0,0,1,1.6.91c.78,1,1.5,2.05,2.24,3.08a2,2,0,0,0,1.09.86,3,3,0,0,0,.15.92,26.44,26.44,0,0,0,3.25,4.68c.09.1.29.11.45.16a1.56,1.56,0,0,0,1,1.92,1.76,1.76,0,0,0,1,1.92,4,4,0,0,0,1.5,2.72,1.28,1.28,0,0,0,.43.15,4.61,4.61,0,0,0,.21,1.36c1,2,2,4.17,3.22,6.11.08.12.27.15.41.22a3.07,3.07,0,0,0,.21,1.87c.53,1.16,1.07,2.31,1.65,3.45a19.86,19.86,0,0,1,1.53,4,13.13,13.13,0,0,1,.41,1.86c.37,2.68.7,5.37,1,8a8.14,8.14,0,0,0,.24,1.41,17.32,17.32,0,0,1,.64,5.21,16.16,16.16,0,0,0,.49,4.26,7.91,7.91,0,0,1,.28,1.88c.1,3.19.17,6.37.22,9.56a2.72,2.72,0,0,1-.2.92c-.05.14-.19.32-.31.34a.6.6,0,0,1-.65-.46,4.43,4.43,0,0,1-.2-1.4,19.79,19.79,0,0,0-.4-6.18,9.78,9.78,0,0,1-.17-2.37c0-1.28,0-2.55,0-3.83a11.27,11.27,0,0,0-.37-2.83,20.74,20.74,0,0,1-.55-2.33,52.31,52.31,0,0,0-2.59-10.64,25.5,25.5,0,0,0-1.62-4.48c-.13-.25-.47-.37-.72-.56a5.31,5.31,0,0,0,0-.8,1.18,1.18,0,0,0-1-1.11,7.74,7.74,0,0,0-.12-1.18,1,1,0,0,0-.85-.74,5.38,5.38,0,0,0,0-.8,1.17,1.17,0,0,0-1-1.12,4.68,4.68,0,0,0-.08-1.36,33.15,33.15,0,0,0-4-7.81C120.39,100,120,99.87,119.78,99.73Z"/></g></g></svg>