<svg xmlns="http://www.w3.org/2000/svg" viewBox="0 0 68.6 125.33"><defs><style>.cls-1{fill:#fff;}</style></defs><title>Zeeplant1</title><g id="Laag_2" data-name="Laag 2"><g id="Laag_1-2" data-name="Laag 1"><path d="M49.24,110.71c.31.73.67,1.45.93,2.2a1.54,1.54,0,0,1-1.46,2,3.16,3.16,0,0,1-2.87-1.4,14.34,14.34,0,0,1-.9-1.69.6.6,0,0,0-.81-.3.76.76,0,0,0-.35.8c.07.64.19,1.26.27,1.9a4.31,4.31,0,0,1-.22,1.88.67.67,0,0,1-.69.54,1.17,1.17,0,0,1-.88-.25,4.33,4.33,0,0,1-1.12-1.53c-.17-.45-.31-.91-.49-1.35a.93.93,0,0,0-1.57-.18c-.1.11-.25.26-.24.38.08,1.12.21,2.23.29,3.34a11.23,11.23,0,0,1-.05,1.42,1.2,1.2,0,0,1-1.81.84,4,4,0,0,1-1.07-.92,3.75,3.75,0,0,1-.77-2.7,1.51,1.51,0,0,0-.27-1.34.53.53,0,0,0-.38-.13.63.63,0,0,0-.39.19c-.38.58-.15,1.24-.21,1.87a2.12,2.12,0,0,1-.52,1.33c-.5-.13-.66-.63-1-.91a.68.68,0,0,0-.84,0,1.49,1.49,0,0,0-.62,1.63.55.55,0,0,0,.68.43c.79-.17,1.2-.93,1.91-1.24a4.39,4.39,0,0,1-2.11,3,1.35,1.35,0,0,1-1.92-.75,3.8,3.8,0,0,1-.15-1.89c.1-.46.26-.92.35-1.38a.54.54,0,0,0-.19-.39c-.23-.19-.51-.13-.75.17a2.21,2.21,0,0,0-.37,1.36,4.61,4.61,0,0,1-1.17,2.57,1.51,1.51,0,0,1-1.67.61,1.44,1.44,0,0,1-1-1c-.13-.46-.24-.92-.4-1.38,0-.1-.19-.24-.28-.23a.54.54,0,0,0-.39.23c-.41.86-.78,1.74-1.17,2.61a1,1,0,0,1-1.27.2c-.52-.6-1-1.24-1.55-1.82a.65.65,0,0,0-.86-.09c-.26.18-.58.36-.69.62a27.83,27.83,0,0,0-1.5,5c0,.13-.23.22-.34.33-.1-.11-.25-.21-.29-.34a3.57,3.57,0,0,1,0-1.89c.16-.77.4-1.54.6-2.31.23-.93.44-1.86.65-2.79a.81.81,0,0,0-.29-.86,1.15,1.15,0,0,0-1.31-.14c-.42.21-.81.52-1.25.69a10.37,10.37,0,0,1-1.39.29l.07.12a4,4,0,0,1,.34-.79c.25-.37.6-.66.84-1a1.58,1.58,0,0,0,.21-.83c0-.26-.64-.52-1.12-.49l-1.32.11.13.08c.16-.44.33-.87.47-1.31a.82.82,0,0,0,0-.44A.58.58,0,0,0,12,113c-.91.2-1.81.5-2.72.64a1.81,1.81,0,0,1-1.62-.77,1.53,1.53,0,0,1-.26-1.33,6.87,6.87,0,0,1,.53-1.29,1.71,1.71,0,0,0,0-1.33.78.78,0,0,0,.75.34.43.43,0,0,0,.3-.21c.12-.25,0-.28-1,0a4.58,4.58,0,0,1-2.75-.64,1.13,1.13,0,0,1-.39-1.24,10.14,10.14,0,0,1,1.66-2.34v-.26l-.06.39c-.92-.26-1.85-.49-2.76-.78a1.8,1.8,0,0,1-.84-2.76,8.54,8.54,0,0,1,.62-.73.82.82,0,0,0-.1-1.26c-.66-.69-1.36-1.35-2-2a11,11,0,0,1-.86-1.14,1.26,1.26,0,0,1,.1-1.71c.36-.31.76-.58,1.13-.88a1,1,0,0,0,.36-1.26c-.21-.43-.47-.84-.67-1.27a1.43,1.43,0,0,1,.44-1.71c.23-.21.54-.34.79-.54a.73.73,0,0,0,0-1.18,15.16,15.16,0,0,1-1.75-.76,1.85,1.85,0,0,1-.72-2.48c.14-.29.34-.55.48-.83A2,2,0,0,0,.9,82.22a3.93,3.93,0,0,1-.06-.48c0-1.78.78-2.57,2.62-2.41.83.07,1.24-.3,1.33-1,0-.31,0-.63.06-1s0-.64,0-1,0-.57,0-.84.11-.27.13-.4S5,75,5,75c-.21.07-.22.28-.14.64a5.91,5.91,0,0,1,0,.85,3.59,3.59,0,0,0-.36-.32,2.49,2.49,0,0,1-.85-3A1.5,1.5,0,0,1,6,72.48a2.51,2.51,0,0,1,1,2.06A9.71,9.71,0,0,1,6.77,76c-.07.47-.17.94-.25,1.41-.1.64.32,1.15,1.08,1.3.47.09.94.15,1.4.27a1.44,1.44,0,0,1,.88,1.51,3.34,3.34,0,0,0,0,1.88,2.69,2.69,0,0,1,0,2.32A2.87,2.87,0,0,0,10,87.38a1.62,1.62,0,0,1-.23,1.79l-.31.36-.93,1.08c.2.46.66.6,1,.85a2.65,2.65,0,0,1,.7.63,3.13,3.13,0,0,1,.62,1.27,6.63,6.63,0,0,1-.43,3.75c-.71,1.4.13,2.43,1,3.42a2.92,2.92,0,0,0,.78.56,2,2,0,0,1,.89,1.6c.08.63.07,1.27.1,1.91a2.8,2.8,0,0,0,.5,1.31l-.24-.16.09.28a1.15,1.15,0,0,1,.84-.36,1.4,1.4,0,0,1,1.22,1.23c-.06,1.28-.68,2.44-.85,3.69a.57.57,0,0,0,.47.67.72.72,0,0,0,.43-.06,1.32,1.32,0,0,0,.36-.31c.22-.23.41-.48.64-.7a.93.93,0,0,1,1.26-.2,1.48,1.48,0,0,1,.54,1.25c-.08.63-.28,1.24-.37,1.87a13.19,13.19,0,0,0-.05,1.41.91.91,0,0,0,1,.83.89.89,0,0,0,.78-.43,48.62,48.62,0,0,0,3.75-10.25,15.94,15.94,0,0,0,.53-3.76.79.79,0,0,0-.43-.79,1.31,1.31,0,0,0-.87-.05c-.43.19-.78.54-1.2.77a11.67,11.67,0,0,1-1.26.57c.17-1,.92-1.63,1.36-2.44a2.93,2.93,0,0,0,.47-1.75.53.53,0,0,0-.28-.35.64.64,0,0,0-.45-.05A2.88,2.88,0,0,0,20,98c-.54.85-.74,1.7.16,2.48a.76.76,0,0,1,.13.85,3.3,3.3,0,0,1-.84.42,1.12,1.12,0,0,1-1.38-1A8.7,8.7,0,0,1,18.42,98c.12-.54-.05-.84-.59-1.11-.14-.07-.31-.1-.45-.17-1.21-.59-1.52-1.15-1.19-2.21.1-.3.26-.58.38-.88a1.94,1.94,0,0,0,.06-1.4,2.52,2.52,0,0,1,0-1.85,3.12,3.12,0,0,0,0-1.89,2.35,2.35,0,0,1-.06-1.41,3.48,3.48,0,0,0-.19-2.79,4,4,0,0,1-.16-.94,1.64,1.64,0,0,1,.88-1.55c.75-.26,1.52-.46,2.26-.72a.77.77,0,0,0,.48-.77A1.56,1.56,0,0,0,19.38,79a15.12,15.12,0,0,0-1.55-1.11,2.42,2.42,0,0,1-1.11-1.5,3.23,3.23,0,0,0-1.25-2c-.13-.1-.24-.22-.36-.32a2.29,2.29,0,0,1-.86-2.53c.3-1.15.22-1.18-.75-2a3.57,3.57,0,0,0-.37-.31,1.73,1.73,0,0,1-.78-2.06c.1-.36.13-.64-.13-.88a10.29,10.29,0,0,1-1.77-1.57,33.78,33.78,0,0,1-1.92-3.3A1.82,1.82,0,0,1,9,59.69c.39-.27.82-.5,1.23-.73a2.27,2.27,0,0,0,1.05-2.47,1.49,1.49,0,0,0-.15-.45,1.68,1.68,0,0,0-1.05-.9c-.3-.08-.76.43-.88,1-.06.31-.05.64-.14,1a.48.48,0,0,1-.36.27c-.09,0-.26-.18-.29-.31a4.22,4.22,0,0,1,.22-2.8,1.45,1.45,0,0,1,1.61-.69A3.21,3.21,0,0,1,12,55.06c.44.85.76,1.76,1.19,2.62a1.25,1.25,0,0,0,1.16.69l1.44.06c1.18.09,1.47.43,1.46,1.89,0,.4.11.64.45.7a2.43,2.43,0,0,0,.47.08,1.49,1.49,0,0,1,1.59,1.44,2.32,2.32,0,0,0,1.11,2c1.37.85,1.09,2.44.67,3.43s-1.27,1.46-1.33,2.5a.77.77,0,0,0,.37.78.64.64,0,0,0,.47,0c.29-.12.56-.3.84-.45s.55-.31.83-.45a.85.85,0,0,1,.92.06,1.29,1.29,0,0,1,.46,1.25A6.17,6.17,0,0,1,23,73.75c-.31.36-.61.74-.9,1.12a1.12,1.12,0,0,0,.53,1.58c.46.15.93.25,1.38.41a1.33,1.33,0,0,1,.59,1.62,8.45,8.45,0,0,1-.49.82c-.28.38-.6.74-.89,1.12s-.27.73.42,1c.29.12.61.18.9.31a1.41,1.41,0,0,1,.85,1.56,13.46,13.46,0,0,1-.44,1.36c-.19.6-.06,1,.5,1.13.87.2,1.5.59,1.58,1.51a3.24,3.24,0,0,0,1,2.11c.46.47.39,1.2.62,1.78a.69.69,0,0,0,.68.49.75.75,0,0,0,.44-.17,46.14,46.14,0,0,0,3.07-4.27,1.27,1.27,0,0,0,.23-.41,9,9,0,0,0,.42-4.25,1.38,1.38,0,0,0-.9-1c-.62-.11-1.26-.17-1.87-.33a2.14,2.14,0,0,1-1.57-1.64,1.73,1.73,0,0,1,0-.93c.19-.61.44-1.2.69-1.79A.77.77,0,0,0,29.7,76c-.43-.47-.9-.9-1.3-1.4A1.82,1.82,0,0,1,28,72.79,5.94,5.94,0,0,0,27.83,70,4.22,4.22,0,0,0,27,67.77a3.44,3.44,0,0,1-.63-1.27,4.92,4.92,0,0,0-1.84-2.71,3.09,3.09,0,0,1-1-2.13,3,3,0,0,1,0-.95,2.78,2.78,0,0,0-.64-2.22,7,7,0,0,1-.54-.8,1.82,1.82,0,0,1,0-1.82c.31-.56.7-1.07,1-1.62a1.65,1.65,0,0,0,.09-1.39,3.74,3.74,0,0,0-1.71-2.21.87.87,0,0,1-.26-1.21,2.9,2.9,0,0,1,.95-1,1.23,1.23,0,0,1,1.35,0,2.59,2.59,0,0,0,3,.82,1.21,1.21,0,0,1,1.5,1.35,7.27,7.27,0,0,0,.59,3.74,2.65,2.65,0,0,1,.27.92c.11,1.11.87,1.6,1.76,2.06a1.28,1.28,0,0,1,.61,1.21c0,1.15-.72,2.12-.74,3.25a.57.57,0,0,0,.25.39.6.6,0,0,0,.42,0c.8-.2,1.16-1.13,2-1.24a1.07,1.07,0,0,1,.82.32,1.4,1.4,0,0,1,.3.88c0,.79,0,1.59-.05,2.39s.12,1.12,1,2.05a2.7,2.7,0,0,1,.6,2.23A12,12,0,0,1,35.28,71a1.21,1.21,0,0,0,.32,1.3,3.57,3.57,0,0,0,.38.3,2,2,0,0,1,.93,1A4.07,4.07,0,0,1,37,76a16.1,16.1,0,0,1-1.56,3,2.7,2.7,0,0,0-.23,1.86,1,1,0,0,0,1,.8c.31,0,.63,0,.94,0a4.1,4.1,0,0,1-.14.93,7.61,7.61,0,0,1-.67,1.26c-2.17,3.33-4.28,6.71-6.66,9.91a3.1,3.1,0,0,0-.4.84.53.53,0,0,0,.38.77A1.83,1.83,0,0,0,31.9,94.2c.12-.3.19-.61.31-.91a3,3,0,0,1,2.13-1.73,2.79,2.79,0,0,1,1.4.15c.47.09.95.11,1.25-.38a6,6,0,0,1,3.18-2.76,4.92,4.92,0,0,0,1.17-.79c0,.33,0,.4-.16.18l.28,0a1.74,1.74,0,0,1-.22-1.79,2.46,2.46,0,0,1,.89-1.07,20.09,20.09,0,0,0,4.17-3.16,6.39,6.39,0,0,1,2.92-1.53.71.71,0,0,0,.16-1.16c-.44-.46-.87-.94-1.34-1.36a1.63,1.63,0,0,0-.84-.39A15.33,15.33,0,0,1,43.9,77a1,1,0,0,0-.9.16,4,4,0,0,1-2.22.74,1.93,1.93,0,0,0-1.55,1c-.51.81-1,1.63-1.55,2.41a3.3,3.3,0,0,1-.74.57A4.1,4.1,0,0,1,37.38,80c.61-1.3,1.26-2.58,1.88-3.88.41-.86.81-1.73,1.19-2.61a1.77,1.77,0,0,0,.11-1.39,5,5,0,0,1-.21-3.28,8.44,8.44,0,0,0,.27-1.4A2.09,2.09,0,0,0,40,65.69a14.38,14.38,0,0,0-1.51-1.16,2.68,2.68,0,0,1-1.11-2,3.1,3.1,0,0,0-1.29-2.44,7.59,7.59,0,0,1-2.27-3,4.2,4.2,0,0,1-.45-1.85,6.91,6.91,0,0,0-2.65-5.88,2.16,2.16,0,0,1-.29-.37,1.39,1.39,0,0,1,.08-1.76,2.26,2.26,0,0,0,.31-2.23,8.61,8.61,0,0,0-1.36-2.51,1.78,1.78,0,0,0-.28-.38,1.4,1.4,0,0,0-1.3-.44,11.17,11.17,0,0,1-5.19.51,1.37,1.37,0,0,1-.74-.53,4.12,4.12,0,0,1-.35-.89c-.46-1.21-.81-1.4-2.16-1.17-.31.05-.62.14-.93.21a2.79,2.79,0,0,1-2.93-1.17A2.54,2.54,0,0,1,15,36.3a5.07,5.07,0,0,0-.3-3.26,1.62,1.62,0,0,1,.16-1.37c.24-.51,1.22-.89,1.62-.62.93.62,1.87,1.23,2.77,1.89a3.1,3.1,0,0,0,2.7.52,2.34,2.34,0,0,1,2.55,1.7c.13.46.21.93.33,1.39s.55.53,1.1,0a3.51,3.51,0,0,0,.33-.34A1.46,1.46,0,0,1,28,35.83a6.17,6.17,0,0,1,.87.4A2.47,2.47,0,0,1,30.36,38a7,7,0,0,0,.39,1.38,1.45,1.45,0,0,0,1.08.83A1,1,0,0,0,33,39.56c.07-.3.1-.62.16-.93a1.39,1.39,0,0,1,1.2-1.27A2.89,2.89,0,0,0,35.7,37a.69.69,0,0,0,.26-.81,4.91,4.91,0,0,0-1.31-2,2.29,2.29,0,0,0-1.21-.71c-1.89-.25-3.74-.94-5.69-.65-1.73-.26-3.47-.47-5.19-.8a5.26,5.26,0,0,1-1.7-.83,1.27,1.27,0,0,1-.67-1.2c.21-1.39,0-2.86.71-4.17.2-.35,0-.61-.34-.75a4.29,4.29,0,0,1-.86-.42,2.44,2.44,0,0,1-.64-.68,2.26,2.26,0,0,1,.05-2.67c.31-.37.67-.7,1-1a1.34,1.34,0,0,0,.36-1.3,3.57,3.57,0,0,0-.11-.47,4.56,4.56,0,0,1,.49-3.69,7.68,7.68,0,0,1,.51-.8,1.54,1.54,0,0,1,2.44.17A4.29,4.29,0,0,1,24.47,16c.08,1,.08,1.91.14,2.86a.68.68,0,0,0,.58.65.94.94,0,0,0,.89-.18c.36-.3.7-.65,1.08-.94a5.11,5.11,0,0,1,.83-.45,1.2,1.2,0,0,1,1.23.49A2.29,2.29,0,0,1,29,20.7,6.81,6.81,0,0,1,26,23c-.65.24-.65,1-.12,1.53a8.76,8.76,0,0,0,3.68,2.16l.46.13a2.85,2.85,0,0,1,1.42,1.21c.61.94.73,2.14,1.51,3q1.64,1.76,3.31,3.46a3.88,3.88,0,0,0,.81.49.46.46,0,0,0,.76-.27,1,1,0,0,0,.09-.45.7.7,0,0,0-.1-.44c-.4-.49-.83-1-1.24-1.45a1.05,1.05,0,0,1,0-1.31c.41-.49.86-.94,1.25-1.45a3.15,3.15,0,0,0,.42-.84,1.09,1.09,0,0,0-.91-1.4,6,6,0,0,1-.95,0A2.37,2.37,0,0,1,34.59,26a5.57,5.57,0,0,1-.15-4.64A1.36,1.36,0,0,0,34.53,20a6.43,6.43,0,0,1-1-2.16,1,1,0,0,0-.15-.45,2.23,2.23,0,0,0-.61-.71c-.54-.33-1.15-.55-1.7-.87A9.34,9.34,0,0,1,30,15a1.46,1.46,0,0,1,.2-2.11c.72-.33,1.47-.6,2.2-.9.46-.19.66-.92.32-1.16s-.52-.35-.79-.51C29.76,9,29,7,28.83,4.64a1.56,1.56,0,0,1,1.51-1.52c.32,0,.64,0,1,0a1,1,0,0,0,1-1.23c-.08-.47-.22-.93-.29-1.4a.5.5,0,0,1,.15-.38A.53.53,0,0,1,33,.23c.36.52.65,1.1,1,1.65A2.19,2.19,0,0,0,35.4,3a5.29,5.29,0,0,1,3.11,2.1,1.7,1.7,0,0,1,.11,1.8c-.21.43-.48.83-.72,1.24-.57,1-1.62,1.53-2.3,2.43a.64.64,0,0,0,.08.85.49.49,0,0,0,.38.16,4.75,4.75,0,0,0,.92-.22c.3-.1.58-.29.88-.37a1.25,1.25,0,0,1,1.28.39,1.27,1.27,0,0,1,.43,1.29,11.66,11.66,0,0,1-1,2.17,2.83,2.83,0,0,0,0,2.75,1.42,1.42,0,0,0,1.42,1c.32,0,.64-.06,1-.06a1.62,1.62,0,0,1,1.55,2A6,6,0,0,1,42,21.87c-.53,1.14-.35,1.45.59,1.9a2.5,2.5,0,0,1,.74.56.9.9,0,0,1,.17.9,5.68,5.68,0,0,1-1.37,1.93,1.62,1.62,0,0,0-.27,1.77,4.37,4.37,0,0,1,.29.91,2,2,0,0,1-.55,1.76,8.09,8.09,0,0,1-1.08.94,2.6,2.6,0,0,0-.79,1.17,8.36,8.36,0,0,0-.61,2.79,3.74,3.74,0,0,0,.31,1.87,6,6,0,0,1,.81,2.22c-.4-.23-.79-.46-1.19-.67a.69.69,0,0,0-1,.51,1.35,1.35,0,0,0,.84,1.82A.79.79,0,0,0,40,41.79c.07-.45.09-.9.13-1.35a2,2,0,0,1,1.42,1.17c.59,1.13,1,2.33,1.59,3.48a4.76,4.76,0,0,0,.8,1.17.64.64,0,0,0,.86,0A3,3,0,0,0,46,43.34a30.25,30.25,0,0,0-.72-3.27,3.15,3.15,0,0,1,.22-2.33,9.54,9.54,0,0,0,1.22-4.08,4.7,4.7,0,0,1,.45-1.84,5.63,5.63,0,0,0,.36-2.8,2.41,2.41,0,0,1,.58-1.79,5.17,5.17,0,0,0,1.37-3,4,4,0,0,1,.87-2.19,4.53,4.53,0,0,0,1.24-3.95,2.49,2.49,0,0,1,0-.47,1.65,1.65,0,0,1,1.5-1.58,3.16,3.16,0,0,0,2.17-.81,6,6,0,0,1,.79-.52,1.4,1.4,0,0,1,1.69.46,3.19,3.19,0,0,1,.37.86,4.74,4.74,0,0,0,1.14,2.57,1.25,1.25,0,0,1-.38,1.69,5.73,5.73,0,0,1-1.21.73,5.72,5.72,0,0,0-1.71.81,1.38,1.38,0,0,0-.53,1.26,1.13,1.13,0,0,0,.83,1c.31.08.61.17.92.28a4.14,4.14,0,0,1,.43.2,1.38,1.38,0,0,1,.31,1.3A2.87,2.87,0,0,1,57,27a1.68,1.68,0,0,0-.35,2.5,1,1,0,0,1-.4,1.23,6.15,6.15,0,0,1-1.72.81,3.35,3.35,0,0,0-.87.37c-.56.37-.89,1.15-.48,1.63.1.12.16.29.25.41a2.6,2.6,0,0,1,.43,3.1c-.6,1-.35,2.19-.66,3.25a.9.9,0,0,1-.61.68c-.46.13-.92.22-1.38.34-.8.19-.87.47-.33,1.32.17.27.35.53.49.81a1.4,1.4,0,0,1-.58,1.66c-.57.27-1.17.49-1.73.78s-1.39.78-2.06,1.22a3.3,3.3,0,0,0-1.21,1.45c-.25.58-.5,1.17-.72,1.77a5,5,0,0,0-.29,2.35c.14,1.11.39,2.2.5,3.31a16.12,16.12,0,0,1,.08,2.86c-.13,1.59-.34,3.17-.6,4.75-.18,1.09-.5,2.16-.75,3.24a1.28,1.28,0,0,0,1,1.41,11,11,0,0,0,3.32.41.63.63,0,0,0,.61-.56c0-.15,0-.36-.07-.45a7.09,7.09,0,0,0-.74-.59,3.11,3.11,0,0,1-1.23-3.77,11.93,11.93,0,0,0,.85-3.2,1.76,1.76,0,0,1,.72-1.2,1.69,1.69,0,0,0,.74-2,4.31,4.31,0,0,1-.21-.93,2.2,2.2,0,0,1,.8-2.13,1.56,1.56,0,0,0,.32-2.13c-.35-.71-.76-1.39-1.08-2.11-.15-.34.06-.61.4-.76.62-.27,1.26.08,1.87-.09a1.2,1.2,0,0,0,.7-.54,9.86,9.86,0,0,0,.39-1.37,1.29,1.29,0,0,1,1-.93,2.63,2.63,0,0,1,.47-.1,2.07,2.07,0,0,0,1.62-.85c.19-.26.4-.5.59-.75a3.48,3.48,0,0,1,2.49-1.26,2.11,2.11,0,0,1,2.1.83,2.25,2.25,0,0,1,.2,2.28c-.23.58-.6,1.11-.88,1.68a.8.8,0,0,0,.09.89c.2.24.47.43.65.69a1.64,1.64,0,0,1,0,2.19,11.45,11.45,0,0,0-2.6,3.38c-.13.27-.44.44-.67.66-.84.82-.82.82-.06,1.95q.41.59.75,1.2a1,1,0,0,1-.46,1.22c-.43.2-.86.38-1.29.57a.59.59,0,0,0-.54-.6c-.06,0-.21.24-.19.26a.83.83,0,0,0,.82.23,2,2,0,0,0,.34,1.8c.09.12.21.29.34.31a12.85,12.85,0,0,1,2.72.79,1.07,1.07,0,0,0,.86-.25c.83-.74,1.6-1.54,2.42-2.3a1.24,1.24,0,0,1,1.33-.18,2.15,2.15,0,0,1,1,1.55c-.06.31-.09.63-.18.93-.29.91-.59,1.82-.88,2.69a4.45,4.45,0,0,0,1.75.85,1.34,1.34,0,0,1,.65,1.6,4.29,4.29,0,0,1-.42.86,3.14,3.14,0,0,0-.63,2.68,2.29,2.29,0,0,1-.09,1.4,10.52,10.52,0,0,0-.9,3.68,1.53,1.53,0,0,1-.91,1,6.86,6.86,0,0,1-1.33.5,4.83,4.83,0,0,0-2.08,1.11,19,19,0,0,1-1.91,1.43c-.65.45-1.53.66-1.89,1.4a9.86,9.86,0,0,0-1.46,3.5,2.72,2.72,0,0,1-2.09,2.35,3.35,3.35,0,0,0-1.62,1c-.92,1.11-1.84,2.2-2.8,3.27a3.3,3.3,0,0,1-1.12.84,3.57,3.57,0,0,0-2.32,2.22,4.32,4.32,0,0,0-1.28,2.49,2.24,2.24,0,0,1-2,1.78,5.5,5.5,0,0,1-1.9,0,2.2,2.2,0,0,0-2.19.57,2.63,2.63,0,0,1-.81.48,1.62,1.62,0,0,1-1.38,0,3.83,3.83,0,0,1-.8-.53c-.36-.3-.7-.64-1.07-.95A1.34,1.34,0,0,0,32.43,99c-.53.35-1,.73-1.58,1.08a1.13,1.13,0,0,1-1.62-.41c-.2-.44-.33-.9-.51-1.34a1.18,1.18,0,0,0-1.94-.43A2.93,2.93,0,0,0,25.92,99c-.46,1.52-.88,3.06-1.21,4.62-.3,1.4-.48,2.83-.67,4.25a1.53,1.53,0,0,0,.46,1.3,3.18,3.18,0,0,1,1,2.1c0,.63.09,1.27.2,1.9a.73.73,0,0,0,.59.61.64.64,0,0,0,.77-.42,3.8,3.8,0,0,0,.31-1.37,9.69,9.69,0,0,1,.25-1.41A2.39,2.39,0,0,1,29.22,109a.79.79,0,0,1,.86.23c.72.7.61,1.8,1.27,2.54a1,1,0,0,0,.81.39,1.08,1.08,0,0,0,1.2-1.16c0-.63-.07-1.27-.07-1.9a2.65,2.65,0,0,1,1.33-2.38,5.21,5.21,0,0,1,.08.87,8.63,8.63,0,0,1-.2.88c-.09.48.1.61.5.35.07,0,0-.28,0-.41-.15-.55-.68-1-.32-1.68.59-.51.62-.58,1.22-.27a1.57,1.57,0,0,0,2.14-.18,2.6,2.6,0,0,1,3-.59.82.82,0,0,0,.86-.26,5.38,5.38,0,0,0,.57-.76,2.27,2.27,0,0,1,1.94-1.17,1.38,1.38,0,0,0,1.48-.89c.29-.75.56-1.49.84-2.23s.38-.82,1.41-1.08l.91-.24A20.9,20.9,0,0,0,49,101.4a4.11,4.11,0,0,0,.45,1.3c.17.39.43.46.7.2a.65.65,0,0,0,.1-.81c-.28-.56-.64-1.07-.87-1.65a7.17,7.17,0,0,1-.26-1.35,1.78,1.78,0,0,1,1.13-1.82,1.32,1.32,0,0,1,.9-.09c.59.15,1.15.46,1.75.58.42.09.9-.05,1.29.26l-.49,1.24c-.17.43,0,.6.43.46,0,0,0-.26,0-.39a1.59,1.59,0,0,1,.07-1.3c-.83-.66-.87-1.4,0-1.83a2.12,2.12,0,0,0,1.41-1.74,5.08,5.08,0,0,1,.14-.94,2.54,2.54,0,0,1,1.79-2,2.76,2.76,0,0,0,2-1.81,2.44,2.44,0,0,1,.59-.74.66.66,0,0,1,.39-.26,2,2,0,0,1,.91.08c.6.27.8,1,1.25,1.41s.85.61,1.21.31A11.66,11.66,0,0,1,66.1,88.7a.92.92,0,0,1,.91,0,1.37,1.37,0,0,1,.55,1.21,10.44,10.44,0,0,1-1.44,2.46,1.07,1.07,0,0,0,.15,1.3,12.29,12.29,0,0,1,2.24,1.77,1.5,1.5,0,0,1-.16,1.33,5.88,5.88,0,0,1-.77.57c-.42.22-.89.35-1.31.59a1,1,0,0,0-.62,1.14,7.46,7.46,0,0,1,.11,1,1.45,1.45,0,0,1-.89,1.52,10.86,10.86,0,0,1-1.38.39,1.55,1.55,0,0,0-1.25,1.27c-.07.31-.11.63-.2.93a1,1,0,0,1-1.1.61A11.25,11.25,0,0,1,58.07,103a1.22,1.22,0,0,0-.9-.18.89.89,0,0,0,.06-.35c0-.07-.13-.12-.2-.18-.13.16,0,.3.26.42.26.9.54,1.79.76,2.7a1.71,1.71,0,0,1-.31,1.32,1.2,1.2,0,0,1-1.23.41c-1.36-.53-2.22-1.71-3.38-2.49-.1-.07-.31,0-.45,0a.69.69,0,0,0-.45,1.06c.29.54.63,1.07.89,1.63a3.12,3.12,0,0,1,.16,1.84,1.29,1.29,0,0,1-.86,1c-.62.07-1.24.14-1.86.16a3,3,0,0,0-1.31.41l.19-.26ZM8,96.53l.18.25-.12-.36.21.12ZM51.21,31.1c.07.3,0,.35-.24.14l.17-.19-.2.16Zm5.51,22.38s-.12,0-.14,0l-.17.15Zm-12.51,3c.16-3.08-.82-6-1.42-9a1.86,1.86,0,0,0-.43-.85,10.34,10.34,0,0,0-3.72-2.93,3.21,3.21,0,0,0-2.32-.21c-.76.24-1.55.41-2.29.69a1.52,1.52,0,0,0-.64.64,1.91,1.91,0,0,0,.36,1.79c.53.35,1.1.65,1.63,1a2.33,2.33,0,0,1,1.06,2.88c-.14.46-.3.91-.41,1.37a5,5,0,0,0-.12.95.82.82,0,0,0,.43.79c.37.2.61.06.74-.34A11.72,11.72,0,0,1,37.61,52a1,1,0,0,1,1.6-.3A2.27,2.27,0,0,1,40,53.39a6,6,0,0,1-.14,1.41c-.15.62-.42,1.2-.6,1.81a1.61,1.61,0,0,0,1.19,1.81,5,5,0,0,1,2.7.72c.32.22.6,0,.77-.31A4.81,4.81,0,0,0,44.21,56.49ZM61.27,74.87c-.67,0-.83,0-1,0l-.46,0c-.61,0-1,.38-.93.79a1.45,1.45,0,0,0,.72,1.09,2.78,2.78,0,0,0,3.43-.18.67.67,0,0,0,.17-.42,1.26,1.26,0,0,0-.65-1.11ZM50,73c-.49,0-.81,0-1.13,0A1,1,0,0,0,48,74.33a5.34,5.34,0,0,0,.69,1.24,1.2,1.2,0,0,0,.79.41,1.83,1.83,0,0,0,1.84-2.22.75.75,0,0,0-.59-.66A6.93,6.93,0,0,0,50,73ZM56.66,46a1.11,1.11,0,0,0,1,.84,2.29,2.29,0,0,0,2-1.62.75.75,0,0,0-.28-.82,1.41,1.41,0,0,0-1.27-.35,2.07,2.07,0,0,0-1.54,1.57A1.19,1.19,0,0,0,56.66,46ZM22.2,15.08c-.13.08-.31.13-.38.25-.92,1.52-.92,2.14,0,3.37a.48.48,0,0,0,.8,0,3,3,0,0,0,.79-2.56,1.33,1.33,0,0,0-.82-1A1.42,1.42,0,0,0,22.2,15.08ZM62,71a1.22,1.22,0,0,0-1.15,1.26,1.27,1.27,0,0,0,.93.86,3.08,3.08,0,0,0,1.8-.13A.83.83,0,0,0,64,71.84,2.09,2.09,0,0,0,62,71Zm.48,26.91a.82.82,0,0,0-.83.35.74.74,0,0,0,.11.84,11.48,11.48,0,0,0,.94,1,1,1,0,0,0,.41.22.75.75,0,0,0,.84-.14.84.84,0,0,0,.2-.86A2,2,0,0,0,62.52,97.89Zm-36-6.75a1.33,1.33,0,0,0-.45,0,3,3,0,0,0-1.58,1.63.61.61,0,0,0,.64.9A2.79,2.79,0,0,0,27,91.78C27.09,91.45,26.9,91.22,26.54,91.14ZM36.09,5c-.38-.09-.59.07-.69.45a2.61,2.61,0,0,0,0,1.36,1,1,0,0,0,1.05.68A.79.79,0,0,0,37.18,7a1.27,1.27,0,0,0-.65-1.89A3.15,3.15,0,0,0,36.09,5Zm6.57,68.33a6.75,6.75,0,0,1,.82-.48A.91.91,0,0,1,44,72.8a.79.79,0,0,0,.8-.4c-.21-.21-.42-.43-.64-.63a4,4,0,0,0-.4-.27,1,1,0,0,0-1.26.39c-.29.41-.39,1.09-.15,1.33C42.38,73.3,42.54,73.3,42.66,73.34Zm6.08,39.11a2.65,2.65,0,0,0-1.22-1.88.85.85,0,0,0-.86,0,.57.57,0,0,0-.28.78c.15.44.28.89.47,1.31a1.29,1.29,0,0,0,1.12.69A.82.82,0,0,0,48.74,112.45ZM54,72.5a3.52,3.52,0,0,0-.35.31A1.37,1.37,0,0,0,54.32,75a.76.76,0,0,0,1-.62,1.36,1.36,0,0,0-.85-1.86A1.76,1.76,0,0,0,54,72.5Zm-3.8,35.19a1.49,1.49,0,0,0,1.1,1.23.69.69,0,0,0,.45,0,.67.67,0,0,0,.37-.74,1.86,1.86,0,0,0-.7-1.09.67.67,0,0,0-.82-.14A.76.76,0,0,0,50.23,107.69Zm7.62-14.24a.65.65,0,0,0-.67.45,2.13,2.13,0,0,0,1.31,2.58.53.53,0,0,0,.64-.44,2.55,2.55,0,0,0-.85-2.47C58.18,93.48,58,93.49,57.85,93.45ZM4.37,96.13a.93.93,0,0,0-.45-.82A3.71,3.71,0,0,0,3.07,95a.84.84,0,0,0-.84.31.81.81,0,0,0,0,.84,1.47,1.47,0,0,0,.22.41,1.72,1.72,0,0,0,.32.34c.37.3.86.61,1.25.42S4.42,96.57,4.37,96.13ZM31,5.23c-.12.11-.28.19-.34.32-.48,1-.26,1.61.79,2.36.35.26.6.22.76-.19a1.64,1.64,0,0,0-.75-2.38A1.41,1.41,0,0,0,31,5.23Zm1.18,72.69a1.21,1.21,0,0,0-.44-.1,1.29,1.29,0,0,0-1,1.3c.07.32.68.54,1.19.44a1,1,0,0,0,.72-.51A.93.93,0,0,0,32.21,77.92ZM11,110.46a1.81,1.81,0,0,0-.46,0,2,2,0,0,0-1.16.76c-.25.32-.25.59.05.81a.81.81,0,0,0,.43.14,1.59,1.59,0,0,0,1.47-1C11.46,110.86,11.33,110.62,11,110.46ZM61,90.88c-.13,0-.3-.06-.38,0a1.37,1.37,0,0,0,.23,2,.66.66,0,0,0,.42.12.53.53,0,0,0,.5-.59A1.69,1.69,0,0,0,61,90.88ZM19.53,66.17c-1,0-1.53.61-1.42,1.48a.82.82,0,0,0,1,.69,1.7,1.7,0,0,0,1.05-.89c.13-.26.27-.66.16-.87S19.81,66.3,19.53,66.17Zm-2.48,5.67a.78.78,0,0,0-.87.76.87.87,0,0,0,.83.87,1,1,0,0,0,1-.6.54.54,0,0,0-.21-.77A4.16,4.16,0,0,0,17.05,71.84Zm39-7.21a.51.51,0,0,0-.59.49,1.48,1.48,0,0,0,.38,1.29.5.5,0,0,0,.45,0,.67.67,0,0,0,.43-.74A1.09,1.09,0,0,0,56.07,64.63Zm1.73,6.6c.1-.14.25-.27.26-.4A1.82,1.82,0,0,0,56.94,69a.71.71,0,0,0-.81.25.68.68,0,0,0-.05.81,2,2,0,0,0,1.33,1.14A1.28,1.28,0,0,0,57.8,71.23ZM29.56,30a1,1,0,0,0-1.09.64c-.16.35-.08.66.31.75a1.73,1.73,0,0,0,.9-.06.64.64,0,0,0,.44-.72A.66.66,0,0,0,29.56,30Zm19.5,4.39a3.09,3.09,0,0,0-.13-.46.64.64,0,0,0-.77-.42c-.12,0-.22.23-.27.37a1.28,1.28,0,0,0-.07.47c0,.71.37,1.08.82.84A.74.74,0,0,0,49.06,34.34ZM34,14.85c0-.13,0-.32-.14-.38a1.86,1.86,0,0,0-1.24-.57.47.47,0,0,0-.31.29.59.59,0,0,0,.37.77C33.25,15.18,33.88,15.12,34,14.85ZM37.74,116a1.35,1.35,0,0,0-.45,0,.66.66,0,0,0-.32.32,1,1,0,0,0,.35,1.23c.32.25.62.12.72-.28A1.27,1.27,0,0,0,37.74,116Zm-19-25.55c.11.09.2.24.33.27a1.17,1.17,0,0,0,1.3-.93c0-.1-.12-.25-.22-.3a1,1,0,0,0-1.2.18A.7.7,0,0,0,18.77,90.49ZM59.58,100.8a.57.57,0,0,0-.5.58,1.09,1.09,0,0,0,.67,1,.54.54,0,0,0,.42-.08.62.62,0,0,0,.27-.75C60.28,101,60,100.75,59.58,100.8ZM21.1,22.09a.92.92,0,0,0-.85.21.73.73,0,0,0-.21.82.81.81,0,0,0,1.14.37.76.76,0,0,0,.29-1.14A1.74,1.74,0,0,0,21.1,22.09Zm36.23,56a.56.56,0,0,0-.78.32,1,1,0,0,0-.09.85.58.58,0,0,0,.79.3,2.18,2.18,0,0,0,.73-.45C58.21,78.86,57.84,78.28,57.33,78.09ZM22.87,30.17a.46.46,0,0,0,.37-.63.45.45,0,0,0-.3-.27.43.43,0,0,0-.59.4C22.33,30,22.53,30.17,22.87,30.17Zm32.21,73.22a1.36,1.36,0,0,0-.36.25.65.65,0,0,0-.08.45.9.9,0,0,0,1.1.61.48.48,0,0,0,.23-.35.82.82,0,0,0-.46-.76A4.28,4.28,0,0,0,55.08,103.39ZM1.74,85.29a1.94,1.94,0,0,0,.07.42.56.56,0,0,0,.75.29.52.52,0,0,0,.37-.71.64.64,0,0,0-.62-.51A.55.55,0,0,0,1.74,85.29ZM26.23,61.61a1.57,1.57,0,0,0-.44,0c-.36.14-.43.4-.25.75.28.52.8.67,1.05.3A.72.72,0,0,0,26.23,61.61ZM26.32,119a.78.78,0,0,0,.76-.48c.17-.38,0-.64-.38-.67a.73.73,0,0,0-.75.47.58.58,0,0,0,0,.45A.51.51,0,0,0,26.32,119ZM51.85,23.84a.5.5,0,0,0-.27-.33.49.49,0,0,0-.7.36.6.6,0,0,0,.2.79c.09.06.3,0,.42-.07A.63.63,0,0,0,51.85,23.84Zm.28,11.82c-.14.05-.34.06-.4.15a3.19,3.19,0,0,0-.38.84c0,.09.13.29.25.36.38.22.86-.12,1-.7A.5.5,0,0,0,52.13,35.66Zm-.26,41.48a.52.52,0,0,0-.33.27.64.64,0,0,0,.74.86.51.51,0,0,0,.35-.25C52.79,77.63,52.3,77.06,51.87,77.14ZM30.05,70.21a.48.48,0,0,0,.63.42c.11,0,.28-.18.27-.26a.49.49,0,0,0-.62-.46C30.22,69.93,30.14,70.1,30.05,70.21ZM5.12,101.94c-.31-.12-.59-.06-.69.24a.43.43,0,0,0,.4.58.45.45,0,0,0,.34-.12A.43.43,0,0,0,5.12,101.94ZM52.18,85.5c-.33,0-.58.24-.54.55s.34.46.69.44a.78.78,0,0,0,.71-.42C53.21,85.75,52.71,85.42,52.18,85.5Zm-23,25.73c-.13,0-.32.07-.37.16a.56.56,0,0,0,.19.8c.07,0,.3-.06.36-.15A.57.57,0,0,0,29.15,111.23Zm-21.26-4.9a2.44,2.44,0,0,0-.46.07.57.57,0,0,0-.43.74c0,.11.23.21.37.26a.62.62,0,0,0,.83-.27A.57.57,0,0,0,7.89,106.33ZM49,64.55c-.14,0-.32,0-.41,0-.26.19-.23.46.1.64s.55,0,.54-.36C49.23,64.77,49.08,64.66,49,64.55Zm4.31,4.63-.05.33.34-.06Zm-45.87,19c-.35.07-.66.34-.55.63s.52.3.83.13A.51.51,0,0,0,8,88.62C8,88.24,7.81,88.09,7.44,88.17Zm-4.8-7.29a.51.51,0,0,0-.26.79c.16.33.43.57.76.44s.37-.48.24-.82A.55.55,0,0,0,2.64,80.88ZM54.37,62c-.12-.05-.31-.17-.36-.13a.47.47,0,0,0-.06.71c.07.08.28.15.34.11A.44.44,0,0,0,54.37,62Zm-7.74,44.16c-.13-.05-.35-.19-.4-.14a.7.7,0,0,0-.14.83.48.48,0,0,0,.29.25.45.45,0,0,0,.37-.15A.59.59,0,0,0,46.63,106.12ZM64.79,95.64a.86.86,0,0,0,1.12.26c.11,0,.28-.22.26-.31a.64.64,0,0,0-.6-.51.8.8,0,0,0-.76.25C64.76,95.4,64.79,95.54,64.79,95.64Zm-53,7.56c-.13,0-.3-.06-.37,0a.51.51,0,0,0-.11.76.37.37,0,0,0,.37,0A.6.6,0,0,0,11.79,103.2ZM45.26,91.13a2.22,2.22,0,0,0-.45,0c-.33.08-.57.29-.49.52a.64.64,0,0,0,.74.4A3.11,3.11,0,0,0,45.5,92c.34-.09.59-.3.51-.5A.74.74,0,0,0,45.26,91.13ZM40.65,20.71a.42.42,0,0,0-.29-.3.58.58,0,0,0-.71.42c-.1.35.1.56.46.51A.57.57,0,0,0,40.65,20.71Zm-4.48,4.68c.11,0,.31-.13.32-.22,0-.42-.55-.91-.77-.68a.48.48,0,0,0-.11.37A.55.55,0,0,0,36.17,25.39ZM18.51,37.89c0-.15,0-.34-.07-.44a.77.77,0,0,0-1.17-.11.68.68,0,0,0-.13.39c0,.4.48.58,1,.41A1.29,1.29,0,0,0,18.51,37.89Zm20.9,69.31a1.5,1.5,0,0,0-.29.32c-.24.45,0,1.14.35,1.17a.54.54,0,0,0,.36-.19.82.82,0,0,0,0-1.2C39.71,107.22,39.55,107.23,39.41,107.2Zm24-44.5c-.39-.06-.88.42-.9.88,0,.11.18.29.3.32a.78.78,0,0,0,.87-.85A.47.47,0,0,0,63.45,62.7Zm-.57,5.79c.08.1.14.27.26.32.48.22,1.12,0,1.15-.29a.53.53,0,0,0-.26-.34.82.82,0,0,0-.84,0A1.58,1.58,0,0,0,62.88,68.49Zm-24.6,42.28c0-.52-.42-1.07-.8-.93a.67.67,0,0,0-.43.71.63.63,0,0,0,.52.64A.59.59,0,0,0,38.28,110.77ZM7.67,93.49a.46.46,0,0,0,.72.32c.14-.06.36-.22.35-.28A.51.51,0,0,0,8,93.15C7.87,93.19,7.79,93.36,7.67,93.49ZM13,63.62c-.13,0-.27-.09-.37,0a.35.35,0,0,0-.16.3.34.34,0,0,0,.28.19.42.42,0,0,0,.32-.16S13.06,63.72,13,63.62ZM17,63.56c-.42.07-.44.2-.05.34.08,0,.22-.09.33-.14Zm1.69,30.59c-.11.07-.29.13-.32.23a.37.37,0,0,0,.16.33c.37.07.57-.09.5-.38C19,94.24,18.77,94.21,18.65,94.15ZM26,52.21c-.24.29-.19.46.14.45.05,0,.12-.21.12-.32S26.1,52.25,26,52.21Zm1.08-24.44c.21-.32.15-.48-.19-.44,0,0-.1.22-.08.33S27,27.73,27.09,27.77Zm1.95,39c.05-.12.15-.25.13-.36s-.26-.17-.3-.14a1,1,0,0,0-.2.36Zm13.41,42c-.12.07-.3.11-.34.2a.48.48,0,0,0,.06.41c.24.25.45.15.49-.26C42.66,109,42.52,108.86,42.45,108.74Zm4.81-70.22c-.12.06-.28.1-.34.2-.16.28-.08.63.21.67s.47-.26.39-.58C47.5,38.7,47.35,38.61,47.26,38.52Zm1.1,50.32a.88.88,0,0,0,.4.12c.13,0,.24-.14.37-.22-.11-.09-.21-.23-.33-.27a.56.56,0,0,0-.41.08S48.37,88.74,48.36,88.84Zm2.78,10.32c-.11.06-.28.1-.31.19a.43.43,0,0,0,.06.4c.22.25.41.15.44-.25C51.34,99.39,51.21,99.28,51.14,99.16Zm7.56-49c-.37,0-.46.16-.22.39,0,0,.21-.06.32-.1ZM54.24,82,54,81.72c-.11.09-.29.18-.3.29s.17.21.26.32ZM37.48,12.91l.23.16,0-.26ZM23.22,83.64l-.28.24c.08.09.15.24.23.25s.18-.13.28-.21Zm-4.61-.56-.21-.16,0,.23Z"/><path d="M13.1,118a1.52,1.52,0,0,1-.94.86,1.24,1.24,0,0,1-1.52-1.2,3.55,3.55,0,0,1,1.19-2.32,1.42,1.42,0,0,1,.42-.17l-.13-.08a1.57,1.57,0,0,1,.12.46,3.4,3.4,0,0,0,.93,2.57Z"/><path class="cls-1" d="M36.94,81.84a3.3,3.3,0,0,0,.74-.57c.55-.78,1-1.6,1.55-2.41a1.93,1.93,0,0,1,1.55-1A4,4,0,0,0,43,77.16a1,1,0,0,1,.9-.16,15.33,15.33,0,0,0,3.3.45,1.63,1.63,0,0,1,.84.39c.47.42.9.9,1.34,1.36a.71.71,0,0,1-.16,1.16,6.39,6.39,0,0,0-2.92,1.53,20.09,20.09,0,0,1-4.17,3.16,2.46,2.46,0,0,0-.89,1.07,1.74,1.74,0,0,0,.22,1.79l-.11-.13a5.18,5.18,0,0,1-1.18.79A6,6,0,0,0,37,91.33c-.3.49-.78.47-1.25.38a2.79,2.79,0,0,0-1.4-.15,3,3,0,0,0-2.13,1.73c-.12.3-.19.61-.31.91a1.83,1.83,0,0,1-2.29,1.17.53.53,0,0,1-.38-.77,3.1,3.1,0,0,1,.4-.84c2.38-3.2,4.49-6.58,6.66-9.91A7.61,7.61,0,0,0,37,82.59a4.1,4.1,0,0,0,.14-.93S36.94,81.84,36.94,81.84Z"/><path class="cls-1" d="M44.21,56.49a4.81,4.81,0,0,1-.31,2.34c-.17.32-.45.53-.77.31a5,5,0,0,0-2.7-.72,1.61,1.61,0,0,1-1.19-1.81c.18-.61.45-1.19.6-1.81A6,6,0,0,0,40,53.39a2.27,2.27,0,0,0-.77-1.69,1,1,0,0,0-1.6.3,11.72,11.72,0,0,0-.53,1.32c-.13.4-.37.54-.74.34a.82.82,0,0,1-.43-.79,5,5,0,0,1,.12-.95c.11-.46.27-.91.41-1.37a2.33,2.33,0,0,0-1.06-2.88c-.53-.35-1.1-.65-1.63-1a1.91,1.91,0,0,1-.36-1.79,1.52,1.52,0,0,1,.64-.64c.74-.28,1.53-.45,2.29-.69a3.21,3.21,0,0,1,2.32.21,10.34,10.34,0,0,1,3.72,2.93,1.86,1.86,0,0,1,.43.85C43.39,50.5,44.37,53.41,44.21,56.49Z"/><path class="cls-1" d="M61.27,74.87l1.3.22a1.26,1.26,0,0,1,.65,1.11.67.67,0,0,1-.17.42,2.78,2.78,0,0,1-3.43.18,1.45,1.45,0,0,1-.72-1.09c-.06-.41.32-.74.93-.79l.46,0C60.44,74.86,60.6,74.87,61.27,74.87Z"/><path class="cls-1" d="M50,73a6.93,6.93,0,0,1,.77.14.75.75,0,0,1,.59.66A1.83,1.83,0,0,1,49.52,76a1.2,1.2,0,0,1-.79-.41A5.34,5.34,0,0,1,48,74.33,1,1,0,0,1,48.87,73C49.19,72.94,49.51,73,50,73Z"/><path class="cls-1" d="M56.66,46a1.19,1.19,0,0,1,0-.38,2.07,2.07,0,0,1,1.54-1.57,1.41,1.41,0,0,1,1.27.35.75.75,0,0,1,.28.82,2.29,2.29,0,0,1-2,1.62A1.11,1.11,0,0,1,56.66,46Z"/><path class="cls-1" d="M20.29,101.36a.76.76,0,0,0-.13-.85c-.9-.78-.7-1.63-.16-2.48a2.88,2.88,0,0,1,1.37-1.21.64.64,0,0,1,.45.05.53.53,0,0,1,.28.35A2.93,2.93,0,0,1,21.63,99c-.44.81-1.19,1.45-1.36,2.44C20.25,101.43,20.29,101.36,20.29,101.36Z"/><path class="cls-1" d="M22.2,15.08a1.42,1.42,0,0,1,.42.06,1.33,1.33,0,0,1,.82,1,3,3,0,0,1-.79,2.56.48.48,0,0,1-.8,0c-1-1.23-1-1.85,0-3.37C21.89,15.21,22.07,15.16,22.2,15.08Z"/><path class="cls-1" d="M62,71a2.09,2.09,0,0,1,1.92.86A.83.83,0,0,1,63.62,73a3.08,3.08,0,0,1-1.8.13,1.27,1.27,0,0,1-.93-.86A1.22,1.22,0,0,1,62,71Z"/><path class="cls-1" d="M62.52,97.89a2,2,0,0,1,1.67,1.44.84.84,0,0,1-.2.86.75.75,0,0,1-.84.14,1,1,0,0,1-.41-.22,11.48,11.48,0,0,1-.94-1,.74.74,0,0,1-.11-.84A.82.82,0,0,1,62.52,97.89Z"/><path class="cls-1" d="M26.54,91.14c.36.08.55.31.45.64a2.79,2.79,0,0,1-1.84,1.92.61.61,0,0,1-.64-.9,3,3,0,0,1,1.58-1.63A1.33,1.33,0,0,1,26.54,91.14Z"/><path class="cls-1" d="M36.09,5a3.15,3.15,0,0,1,.44.11A1.27,1.27,0,0,1,37.18,7a.79.79,0,0,1-.73.49,1,1,0,0,1-1.05-.68,2.61,2.61,0,0,1,0-1.36C35.5,5.08,35.71,4.92,36.09,5Z"/><path class="cls-1" d="M42.66,73.34c-.12,0-.28,0-.36-.12-.24-.24-.14-.92.15-1.33a1,1,0,0,1,1.26-.39,4,4,0,0,1,.4.27c.22.2.43.42.64.63a.79.79,0,0,1-.8.4.91.91,0,0,0-.47.06A6.75,6.75,0,0,0,42.66,73.34Z"/><path class="cls-1" d="M48.74,112.45a.82.82,0,0,1-.77.92,1.29,1.29,0,0,1-1.12-.69c-.19-.42-.32-.87-.47-1.31a.57.57,0,0,1,.28-.78.85.85,0,0,1,.86,0A2.65,2.65,0,0,1,48.74,112.45Z"/><path class="cls-1" d="M54,72.5a1.76,1.76,0,0,1,.46.06,1.36,1.36,0,0,1,.85,1.86.76.76,0,0,1-1,.62,1.37,1.37,0,0,1-.64-2.23A3.52,3.52,0,0,1,54,72.5Z"/><path class="cls-1" d="M50.23,107.69a.76.76,0,0,1,.4-.75.67.67,0,0,1,.82.14,1.86,1.86,0,0,1,.7,1.09.67.67,0,0,1-.37.74.69.69,0,0,1-.45,0A1.49,1.49,0,0,1,50.23,107.69Z"/><path class="cls-1" d="M40.13,40.44c0,.45-.06.9-.13,1.35a.79.79,0,0,1-1.08.46,1.35,1.35,0,0,1-.84-1.82.69.69,0,0,1,1-.51c.4.21.79.44,1.19.67Z"/><path class="cls-1" d="M57.85,93.45c.15,0,.33,0,.43.12A2.55,2.55,0,0,1,59.13,96a.53.53,0,0,1-.64.44,2.13,2.13,0,0,1-1.31-2.58A.65.65,0,0,1,57.85,93.45Z"/><path class="cls-1" d="M4.37,96.13c0,.44,0,1-.37,1.21s-.88-.12-1.25-.42a1.72,1.72,0,0,1-.32-.34,1.47,1.47,0,0,1-.22-.41.81.81,0,0,1,0-.84A.84.84,0,0,1,3.07,95a3.71,3.71,0,0,1,.85.29A.93.93,0,0,1,4.37,96.13Z"/><path class="cls-1" d="M31,5.23a1.41,1.41,0,0,1,.46.11,1.64,1.64,0,0,1,.75,2.38c-.16.41-.41.45-.76.19-1.05-.75-1.27-1.38-.79-2.36C30.75,5.42,30.91,5.34,31,5.23Z"/><path class="cls-1" d="M32.21,77.92a.93.93,0,0,1,.45,1.13,1,1,0,0,1-.72.51c-.51.1-1.12-.12-1.19-.44a1.29,1.29,0,0,1,1-1.3A1.21,1.21,0,0,1,32.21,77.92Z"/><path class="cls-1" d="M33.77,117.47c-.71.31-1.12,1.07-1.91,1.24a.55.55,0,0,1-.68-.43,1.49,1.49,0,0,1,.62-1.63.68.68,0,0,1,.84,0c.36.28.52.78,1,.91Z"/><path class="cls-1" d="M11,110.46c.35.16.48.4.33.71a1.59,1.59,0,0,1-1.47,1,.81.81,0,0,1-.43-.14c-.3-.22-.3-.49-.05-.81a2,2,0,0,1,1.16-.76A1.81,1.81,0,0,1,11,110.46Z"/><path class="cls-1" d="M61,90.88a1.69,1.69,0,0,1,.77,1.49.53.53,0,0,1-.5.59.66.66,0,0,1-.42-.12,1.37,1.37,0,0,1-.23-2C60.7,90.82,60.87,90.88,61,90.88Z"/><path class="cls-1" d="M13.17,118.1a3.4,3.4,0,0,1-.93-2.57,1.57,1.57,0,0,0-.12-.46l1.32-.11c.48,0,1.12.23,1.12.49a1.58,1.58,0,0,1-.21.83c-.24.37-.59.66-.84,1A4,4,0,0,0,13.17,118.1Z"/><path class="cls-1" d="M19.53,66.17c.28.13.69.19.8.41s0,.61-.16.87a1.7,1.7,0,0,1-1.05.89.82.82,0,0,1-1-.69C18,66.78,18.57,66.19,19.53,66.17Z"/><path class="cls-1" d="M17.05,71.84a4.16,4.16,0,0,1,.8.26.54.54,0,0,1,.21.77,1,1,0,0,1-1,.6.87.87,0,0,1-.83-.87A.78.78,0,0,1,17.05,71.84Z"/><path class="cls-1" d="M56.07,64.63a1.09,1.09,0,0,1,.67,1.08.67.67,0,0,1-.43.74.5.5,0,0,1-.45,0,1.48,1.48,0,0,1-.38-1.29A.51.51,0,0,1,56.07,64.63Z"/><path class="cls-1" d="M57.8,71.23a1.28,1.28,0,0,1-.39,0,2,2,0,0,1-1.33-1.14.68.68,0,0,1,.05-.81.71.71,0,0,1,.81-.25,1.82,1.82,0,0,1,1.12,1.81C58.05,71,57.9,71.09,57.8,71.23Z"/><path class="cls-1" d="M29.56,30a.66.66,0,0,1,.56.61.64.64,0,0,1-.44.72,1.73,1.73,0,0,1-.9.06c-.39-.09-.47-.4-.31-.75A1,1,0,0,1,29.56,30Z"/><path class="cls-1" d="M49.09,99.09a7.17,7.17,0,0,0,.26,1.35c.23.58.59,1.09.87,1.65a.65.65,0,0,1-.1.81c-.27.26-.53.19-.7-.2a4.11,4.11,0,0,1-.45-1.3,20.9,20.9,0,0,1,.12-2.35S49.09,99.09,49.09,99.09Z"/><path class="cls-1" d="M49.06,34.34a.74.74,0,0,1-.42.8c-.45.24-.81-.13-.82-.84a1.28,1.28,0,0,1,.07-.47c0-.14.15-.35.27-.37a.64.64,0,0,1,.77.42A3.09,3.09,0,0,1,49.06,34.34Z"/><path class="cls-1" d="M34,14.85c-.12.27-.75.33-1.32.11a.59.59,0,0,1-.37-.77.47.47,0,0,1,.31-.29,1.86,1.86,0,0,1,1.24.57C34,14.53,34,14.72,34,14.85Z"/><path class="cls-1" d="M37.74,116a1.27,1.27,0,0,1,.3,1.28c-.1.4-.4.53-.72.28a1,1,0,0,1-.35-1.23.66.66,0,0,1,.32-.32A1.35,1.35,0,0,1,37.74,116Z"/><path class="cls-1" d="M18.77,90.49a.7.7,0,0,1,.21-.78,1,1,0,0,1,1.2-.18c.1,0,.23.2.22.3a1.17,1.17,0,0,1-1.3.93C19,90.73,18.88,90.58,18.77,90.49Z"/><path class="cls-1" d="M59.58,100.8c.4,0,.7.23.86.79a.62.62,0,0,1-.27.75.54.54,0,0,1-.42.08,1.09,1.09,0,0,1-.67-1A.57.57,0,0,1,59.58,100.8Z"/><path class="cls-1" d="M21.1,22.09a1.74,1.74,0,0,1,.37.26.76.76,0,0,1-.29,1.14A.81.81,0,0,1,20,23.12a.73.73,0,0,1,.21-.82A.92.92,0,0,1,21.1,22.09Z"/><path class="cls-1" d="M57.33,78.09c.51.19.88.77.65,1a2.18,2.18,0,0,1-.73.45.58.58,0,0,1-.79-.3,1,1,0,0,1,.09-.85A.56.56,0,0,1,57.33,78.09Z"/><path class="cls-1" d="M22.87,30.17c-.34,0-.54-.17-.52-.5a.43.43,0,0,1,.59-.4.45.45,0,0,1,.3.27A.46.46,0,0,1,22.87,30.17Z"/><path class="cls-1" d="M55.08,103.39a4.28,4.28,0,0,1,.43.2.82.82,0,0,1,.46.76.48.48,0,0,1-.23.35.9.9,0,0,1-1.1-.61.65.65,0,0,1,.08-.45A1.36,1.36,0,0,1,55.08,103.39Z"/><path class="cls-1" d="M1.74,85.29a.55.55,0,0,1,.57-.51.64.64,0,0,1,.62.51.52.52,0,0,1-.37.71.56.56,0,0,1-.75-.29A1.94,1.94,0,0,1,1.74,85.29Z"/><path class="cls-1" d="M26.23,61.61a.72.72,0,0,1,.36,1.09c-.25.37-.77.22-1.05-.3-.18-.35-.11-.61.25-.75A1.57,1.57,0,0,1,26.23,61.61Z"/><path class="cls-1" d="M26.32,119a.51.51,0,0,1-.36-.23.58.58,0,0,1,0-.45.73.73,0,0,1,.75-.47c.41,0,.55.29.38.67A.78.78,0,0,1,26.32,119Z"/><path class="cls-1" d="M51.85,23.84a.63.63,0,0,1-.35.75c-.12.07-.33.13-.42.07a.6.6,0,0,1-.2-.79.49.49,0,0,1,.7-.36A.5.5,0,0,1,51.85,23.84Z"/><path class="cls-1" d="M52.13,35.66a.5.5,0,0,1,.44.65c-.11.58-.59.92-1,.7-.12-.07-.27-.27-.25-.36a3.19,3.19,0,0,1,.38-.84C51.79,35.72,52,35.71,52.13,35.66Z"/><path class="cls-1" d="M51.87,77.14c.43-.08.92.49.76.88a.51.51,0,0,1-.35.25.64.64,0,0,1-.74-.86A.52.52,0,0,1,51.87,77.14Z"/><path class="cls-1" d="M30.05,70.21c.09-.11.17-.28.28-.3a.49.49,0,0,1,.62.46c0,.08-.16.24-.27.26A.48.48,0,0,1,30.05,70.21Z"/><path class="cls-1" d="M5.12,101.94a.43.43,0,0,1,0,.7.45.45,0,0,1-.34.12.43.43,0,0,1-.4-.58C4.53,101.88,4.81,101.82,5.12,101.94Z"/><path class="cls-1" d="M52.18,85.5c.53-.08,1,.25.86.57a.78.78,0,0,1-.71.42c-.35,0-.65-.11-.69-.44S51.85,85.55,52.18,85.5Z"/><path class="cls-1" d="M29.15,111.23a.57.57,0,0,1,.18.81c-.06.09-.29.19-.36.15a.56.56,0,0,1-.19-.8C28.83,111.3,29,111.28,29.15,111.23Z"/><path class="cls-1" d="M7.89,106.33a.57.57,0,0,1,.31.8.62.62,0,0,1-.83.27c-.14-.05-.34-.15-.37-.26a.57.57,0,0,1,.43-.74A2.44,2.44,0,0,1,7.89,106.33Z"/><path class="cls-1" d="M49,64.55c.08.11.23.22.23.33,0,.36-.22.53-.54.36s-.36-.45-.1-.64C48.68,64.53,48.86,64.56,49,64.55Z"/><polygon class="cls-1" points="53.31 69.18 53.6 69.45 53.26 69.51 53.31 69.18"/><path class="cls-1" d="M7.44,88.17c.37-.08.58.07.55.45a.51.51,0,0,1-.27.31c-.31.17-.72.16-.83-.13S7.09,88.24,7.44,88.17Z"/><path class="cls-1" d="M2.64,80.88a.55.55,0,0,1,.74.41c.13.34.09.7-.24.82s-.6-.11-.76-.44A.51.51,0,0,1,2.64,80.88Z"/><path class="cls-1" d="M54.37,62a.44.44,0,0,1-.08.69c-.06,0-.27,0-.34-.11a.47.47,0,0,1,.06-.71C54.06,61.79,54.25,61.91,54.37,62Z"/><path class="cls-1" d="M46.63,106.12a.59.59,0,0,1,.12.79.45.45,0,0,1-.37.15.48.48,0,0,1-.29-.25.7.7,0,0,1,.14-.83C46.28,105.93,46.5,106.07,46.63,106.12Z"/><path class="cls-1" d="M34.68,106.72c-.36.65.17,1.13.32,1.68,0,.13.07.37,0,.41-.4.26-.59.13-.5-.35a8.63,8.63,0,0,0,.2-.88,5.21,5.21,0,0,0-.08-.87Z"/><path class="cls-1" d="M64.79,95.64c0-.1,0-.24,0-.31a.8.8,0,0,1,.76-.25.64.64,0,0,1,.6.51c0,.09-.15.27-.26.31A.86.86,0,0,1,64.79,95.64Z"/><path class="cls-1" d="M11.79,103.2a.6.6,0,0,1-.11.78.37.37,0,0,1-.37,0,.51.51,0,0,1,.11-.76C11.49,103.14,11.66,103.2,11.79,103.2Z"/><path class="cls-1" d="M45.26,91.13a.74.74,0,0,1,.75.4c.08.2-.17.41-.51.5a3.11,3.11,0,0,1-.44.06.64.64,0,0,1-.74-.4c-.08-.23.16-.44.49-.52A2.22,2.22,0,0,1,45.26,91.13Z"/><path class="cls-1" d="M40.65,20.71a.57.57,0,0,1-.54.63c-.36.05-.56-.16-.46-.51a.58.58,0,0,1,.71-.42A.42.42,0,0,1,40.65,20.71Z"/><path class="cls-1" d="M36.17,25.39a.55.55,0,0,1-.56-.53.48.48,0,0,1,.11-.37c.22-.23.79.26.77.68C36.48,25.26,36.28,25.39,36.17,25.39Z"/><path class="cls-1" d="M18.51,37.89a1.29,1.29,0,0,1-.34.25c-.55.17-1,0-1-.41a.68.68,0,0,1,.13-.39.77.77,0,0,1,1.17.11C18.52,37.55,18.49,37.74,18.51,37.89Z"/><path class="cls-1" d="M39.41,107.2c.14,0,.3,0,.38.1a.82.82,0,0,1,0,1.2.54.54,0,0,1-.36.19c-.37,0-.59-.72-.35-1.17A1.5,1.5,0,0,1,39.41,107.2Z"/><path class="cls-1" d="M63.45,62.7a.47.47,0,0,1,.27.35.78.78,0,0,1-.87.85c-.12,0-.31-.21-.3-.32C62.57,63.12,63.06,62.64,63.45,62.7Z"/><path class="cls-1" d="M62.88,68.49a1.58,1.58,0,0,1,.31-.32.82.82,0,0,1,.84,0,.53.53,0,0,1,.26.34c0,.34-.67.51-1.15.29C63,68.76,63,68.59,62.88,68.49Z"/><path class="cls-1" d="M38.28,110.77a.59.59,0,0,1-.71.42.63.63,0,0,1-.52-.64.67.67,0,0,1,.43-.71C37.86,109.7,38.33,110.25,38.28,110.77Z"/><path class="cls-1" d="M4.87,76.48a5.91,5.91,0,0,0,0-.85c-.08-.36-.07-.57.14-.64,0,0,.1.14.08.21s-.12.26-.13.4,0,.55,0,.84A.15.15,0,0,1,4.87,76.48Z"/><path class="cls-1" d="M7.67,93.49c.12-.13.2-.3.33-.34a.51.51,0,0,1,.74.38c0,.06-.21.22-.35.28A.46.46,0,0,1,7.67,93.49Z"/><path class="cls-1" d="M8,109c1-.24,1.1-.21,1,0a.43.43,0,0,1-.3.21.78.78,0,0,1-.75-.34S8,109,8,109Z"/><path class="cls-1" d="M13,63.62c0,.1.11.24.07.28a.42.42,0,0,1-.32.16.34.34,0,0,1-.28-.19.35.35,0,0,1,.16-.3C12.76,63.53,12.9,63.6,13,63.62Z"/><path class="cls-1" d="M17,63.56l.28.2c-.11.05-.25.16-.33.14C16.52,63.76,16.54,63.63,17,63.56Z"/><path class="cls-1" d="M18.65,94.15c.12.06.32.09.34.18.07.29-.13.45-.5.38a.37.37,0,0,1-.16-.33C18.36,94.28,18.54,94.22,18.65,94.15Z"/><path class="cls-1" d="M26,52.21c.09,0,.26.09.26.13s-.07.32-.12.32C25.82,52.67,25.77,52.5,26,52.21Z"/><path class="cls-1" d="M27.09,27.77c-.1,0-.27-.06-.27-.11s0-.32.08-.33C27.24,27.29,27.3,27.45,27.09,27.77Z"/><path class="cls-1" d="M29,66.72l-.37-.14a1,1,0,0,1,.2-.36s.29.07.3.14S29.09,66.6,29,66.72Z"/><path class="cls-1" d="M42.45,108.74c.07.12.21.24.21.35,0,.41-.25.51-.49.26a.48.48,0,0,1-.06-.41C42.15,108.85,42.33,108.81,42.45,108.74Z"/><path class="cls-1" d="M47.26,38.52c.09.09.24.18.26.29.08.32-.09.62-.39.58s-.37-.39-.21-.67C47,38.62,47.14,38.58,47.26,38.52Z"/><path class="cls-1" d="M48.36,88.84c0-.1,0-.27,0-.29a.56.56,0,0,1,.41-.08c.12,0,.22.18.33.27-.13.08-.24.2-.37.22A.88.88,0,0,1,48.36,88.84Z"/><path class="cls-1" d="M51.14,99.16c.07.12.2.23.19.34,0,.4-.22.5-.44.25a.43.43,0,0,1-.06-.4C50.86,99.26,51,99.22,51.14,99.16Z"/><path class="cls-1" d="M54.17,98a1.59,1.59,0,0,0-.07,1.3c0,.13,0,.37,0,.39-.45.14-.6,0-.43-.46L54.16,98Z"/><path class="cls-1" d="M56.46,60.35a.83.83,0,0,1-.82-.23s.13-.27.19-.26a.59.59,0,0,1,.54.6Z"/><path class="cls-1" d="M58.7,50.18l.1.29c-.11,0-.28.13-.32.1C58.24,50.34,58.33,50.2,58.7,50.18Z"/><path class="cls-1" d="M56.6,53.47h0Z"/><path class="cls-1" d="M57.29,102.72c-.3-.12-.39-.26-.26-.42.07.06.19.11.2.18a.89.89,0,0,1-.06.35Z"/><path class="cls-1" d="M56.72,53.48l-.31.16.18-.16Z"/><path class="cls-1" d="M54.24,82l-.32.29c-.09-.11-.26-.22-.26-.32s.19-.2.3-.29Z"/><path class="cls-1" d="M51.14,31l-.17.2c.22.21.31.16.24-.14Z"/><path class="cls-1" d="M51.21,31.1l-.27.11.2-.16S51.21,31.1,51.21,31.1Z"/><path class="cls-1" d="M49.24,110.71l.2-.18-.19.26Z"/><path class="cls-1" d="M41.46,87.91l-.28,0c.13.22.18.15.16-.18A1.42,1.42,0,0,1,41.46,87.91Z"/><polygon class="cls-1" points="37.48 12.91 37.74 12.81 37.71 13.07 37.48 12.91"/><path class="cls-1" d="M23.22,83.64l.23.28c-.1.08-.19.22-.28.21s-.15-.16-.23-.25Z"/><polygon class="cls-1" points="18.61 83.08 18.35 83.15 18.4 82.92 18.61 83.08"/><path class="cls-1" d="M13.51,106l-.09-.28.24.16A1.58,1.58,0,0,1,13.51,106Z"/><polygon class="cls-1" points="8.02 96.52 8.31 96.54 8.11 96.42 8.02 96.52"/><path class="cls-1" d="M8.1,96.42l.12.36S8,96.53,8,96.53,8.1,96.42,8.1,96.42Z"/><path class="cls-1" d="M6.49,104.94l.06-.39v.26Z"/></g></g></svg>