<svg xmlns="http://www.w3.org/2000/svg" viewBox="0 0 87.37 108.19"><defs><style>.cls-1{fill:#fff;}</style></defs><title>Zeeplant2</title><g id="Laag_2" data-name="Laag 2"><g id="Laag_1-2" data-name="Laag 1"><path d="M33.71,36.43c.68.08,1.06.65,1.61,1a1,1,0,0,0,1.46-.7c0-.15.08-.31.09-.46a21.59,21.59,0,0,1,.69-5.17,12.59,12.59,0,0,0,.35-3.31A13.21,13.21,0,0,1,38.54,24c.24-.75.42-1.53.66-2.29a9.9,9.9,0,0,0,.46-2.81c0-1.58,0-3.17,0-4.76,0-1.43-.12-2.86-.13-4.29a22.79,22.79,0,0,1,.86-7.06A12.18,12.18,0,0,1,41,.5a.77.77,0,0,1,.75-.5.83.83,0,0,1,.69.52,7.83,7.83,0,0,1,.67,1.78c.24,1.24.36,2.51.52,3.76-.32-.37-.65-.72-1-1.07-.52-.59-1.09-.48-1.41.24A7,7,0,0,0,40.52,8c-.07,3.18,0,6.36.21,9.55,0,.14.11.39.19.4s.36-.23.41-.61c0-.16.05-.32.06-.48a61.86,61.86,0,0,0,.24-6.67,3.59,3.59,0,0,1,.86-2.65,12.08,12.08,0,0,0,1-1.59,3.18,3.18,0,0,1,.44.83,66.25,66.25,0,0,1,1.25,7.52l.14,0c-.61-.31-.78-1-1.23-1.41a.5.5,0,0,0-.79.09,10.25,10.25,0,0,0-.9,4.12,22.82,22.82,0,0,1-.91,5.12,34.78,34.78,0,0,0-1,4.15A5.12,5.12,0,0,0,41,30l0-.07-1.41.25a1.2,1.2,0,0,0-1,.9c-.27.92-.49,1.85-.71,2.78a11.37,11.37,0,0,0-.19,4.27c.13.94.34,1.88.52,2.81a24.33,24.33,0,0,1,.5,5.7A19.35,19.35,0,0,0,40.31,55a4.26,4.26,0,0,1,.33,1.86,9.39,9.39,0,0,0,0,2.85,18.66,18.66,0,0,0,1.79,4.91.53.53,0,0,0,.39.25c.27,0,.5-.19.64-.52a10.64,10.64,0,0,0,.84-3.22,37.15,37.15,0,0,1,.31-3.81,22.18,22.18,0,0,0,0-9,31.22,31.22,0,0,1,.58-10c.08-.3.21-.59.3-.89a.56.56,0,0,1,.74-.44c.3.06.63.17.71.5.5,1.84,1,3.68,1.45,5.52a.45.45,0,0,0,.4.2.49.49,0,0,0,.3-.35,13,13,0,0,0-.48-5.65,12.39,12.39,0,0,1-.44-3.78l-.14.13c.13.1.3.17.37.3a24.58,24.58,0,0,1,1.4,3,21.13,21.13,0,0,1,.51,2.79.74.74,0,0,0,.31.35.69.69,0,0,0,.85,0,5.42,5.42,0,0,0,1.55-3.38,29,29,0,0,0,0-4.75,36.42,36.42,0,0,1,.16-6.18A2.76,2.76,0,0,1,54,24l-.12-.14c0,.8,0,1.6-.06,2.4a44.14,44.14,0,0,0,0,7.18q0,.72.06,1.44a12,12,0,0,1-.7,4.7A23.77,23.77,0,0,0,52,44.19a16.49,16.49,0,0,0,.23,7.13c.38,1.39.77,2.77,1.14,4.16a12,12,0,0,1,.45,1.86,54.09,54.09,0,0,0,1.39,6.55l.09-.09a1.21,1.21,0,0,1-1.13-.71,12.78,12.78,0,0,1-.92-3.71A9.26,9.26,0,0,0,52.8,57a11.39,11.39,0,0,0-2-3.78.81.81,0,0,0-.38-.26A.66.66,0,0,0,50,53c-.13.06-.3.22-.3.33.09,1.76.88,3.4.9,5.18a.5.5,0,0,1-.26.35.4.4,0,0,1-.37-.09c-.72-1.43-.64-3.11-1.38-4.54a3.23,3.23,0,0,1-.21-.93,5.13,5.13,0,0,1-.11-.95c-.09-3.21-.77-6.34-1.13-9.51,0-.43-.32-.56-.68-.38a1.09,1.09,0,0,0-.36.28,2,2,0,0,0-.45,1.33q.18,3.1.42,6.21a25.45,25.45,0,0,1-.19,6.7c-.51,2.67-.53,5.41-1.12,8.07a6.17,6.17,0,0,0-.15,1.42c0,3.52.08,7,.13,10.55a26.74,26.74,0,0,1,.41,5.72c.07,2.72.15,5.44.11,8.15a56,56,0,0,0,1.06,9.5.61.61,0,0,0,.62.53.77.77,0,0,0,.77-.49c.63-1.52,1-3,0-4.56A3.18,3.18,0,0,1,47.22,94c0-1.12.1-2.23.14-3.35a2,2,0,0,1,1.35-1.8l0-.06a5.41,5.41,0,0,0-.39,3.69,1,1,0,0,0,.54.65.75.75,0,0,0,.79-.4,2.6,2.6,0,0,0,.45-.81,17,17,0,0,0,.62-2.77,25,25,0,0,1,1.45-6A2.18,2.18,0,0,1,53.5,82L53.43,82a4.76,4.76,0,0,0-.56,2.77.8.8,0,0,0,.5.76.88.88,0,0,0,.82-.25,4.32,4.32,0,0,0,1.4-2.46,12.53,12.53,0,0,0,.33-2.37,58.45,58.45,0,0,1,.71-6.18c.34-2.21.65-4.42,1.09-6.62A31.41,31.41,0,0,1,59,63c.84-2.25,1.45-4.57,2.18-6.85a8.28,8.28,0,0,0,.39-3.31c-.15-1.75-.36-3.5-.53-5.25a12.36,12.36,0,0,1,.1-4.29,32.94,32.94,0,0,0,.76-6.17,3,3,0,0,1,.74-1.73l-.12,0a57.41,57.41,0,0,1,.1,6.69c0,.78-.21,1.57-.28,2.36a.49.49,0,0,0,.28.36.51.51,0,0,0,.67-.45c.07-1,.1-1.91.11-2.86a9.59,9.59,0,0,1,1.1-4.13c.14-.28.27-.58.43-.85l3.19-5.33a.57.57,0,0,1,.82-.26.5.5,0,0,1,.17.38,11.33,11.33,0,0,1,0,1.43,71.15,71.15,0,0,0,.23,12.89,8,8,0,0,0,.34,1.88,9.64,9.64,0,0,1-.12,6.1A7.42,7.42,0,0,1,69,54.91c-.14.24-.48.37-.73.55l.12.12c0-.64,0-1.28.07-1.9.13-1,.39-1.88.51-2.82a4.28,4.28,0,0,0-.12-1.42,13.57,13.57,0,0,0-.48-1.35c-.13-.34-.33-.57-.6-.53-.1,0-.21.24-.24.39-.14.94-.25,1.89-.4,2.83,0,.08-.25.17-.38.16s-.17-.21-.18-.32a34.75,34.75,0,0,1,.51-9,12.44,12.44,0,0,0,.26-3.8.69.69,0,0,0-.53-.64.87.87,0,0,0-.85.36,2.41,2.41,0,0,0-.29.36,14.08,14.08,0,0,0-1.27,5.07,41.75,41.75,0,0,1-.47,5.71c-.34,1.88-.63,3.77-.93,5.66a26.24,26.24,0,0,1-2.18,7.31,24.31,24.31,0,0,0-2.38,8.21c-.13,1.42-.63,2.81-.75,4.23-.23,2.86-1,5.65-1,8.53a4,4,0,0,1-.79,2.23c-.44.66-.88,1.33-1.38,2S53.44,87.91,53,88.54a7.11,7.11,0,0,0-1,1.62,42.25,42.25,0,0,0-2.67,8.65,1.47,1.47,0,0,0,.86,1.49l.91.3c.07.14.13.27.21.4a.81.81,0,0,0,1.1.43c.77-.48,1.52-1,2.31-1.42A6,6,0,0,1,56,99.62a2.61,2.61,0,0,1-.77,1.16,11.09,11.09,0,0,0-2,2,1,1,0,0,0-.08.88c-.38-.15-.5-.1-.37.16l.27-.28a6.7,6.7,0,0,0,1.37-.34c.71-.35,1.36-.83,2-1.22a5.24,5.24,0,0,0,2.23-2.4,7.06,7.06,0,0,1,2,.15l-.13-.09a2.51,2.51,0,0,1-.36.85,12,12,0,0,1-1.77,1.57c-1.45,1-2.93,1.89-4.44,2.76-1.92,1.11-3.89,2.15-5.83,3.21a1.23,1.23,0,0,1-1.34-.17,6.3,6.3,0,0,1-1.41-1.26,14.4,14.4,0,0,1-1.19-2A5.34,5.34,0,0,0,41.6,102a7.06,7.06,0,0,1-1.67-.9,21.72,21.72,0,0,0-7.71-3.57c-3.5-1-6.95-2.18-10.39-3.41a4.7,4.7,0,0,1-2-1.26,4.59,4.59,0,0,1-.46-.81c1,0,1.7.68,2.57,1a15.84,15.84,0,0,1,3.09,1,15.42,15.42,0,0,0,4.41,1.39A37.42,37.42,0,0,1,40,99.57a.6.6,0,0,0,.83-.24.58.58,0,0,0-.05-.44A4.92,4.92,0,0,0,38,96.39a29,29,0,0,0-3.11-1.14,8.06,8.06,0,0,0-5.56.15,1.52,1.52,0,0,0,0-1.76A8.83,8.83,0,0,0,26,90.91c-1-.51-2-.92-3-1.41a12.28,12.28,0,0,1-3.18-2.1,1.83,1.83,0,0,1-.55-1.27,2.85,2.85,0,0,1,.9.25,23.47,23.47,0,0,0,4.17,2.35,16.49,16.49,0,0,1,6,3.81,2.43,2.43,0,0,0,1.73.75,12.9,12.9,0,0,1,6,1.58c.43.22.87.42,1.3.61s.59.24.89.36a.63.63,0,0,0,.85-.22,1,1,0,0,0,.09-.9,6,6,0,0,0-1.62-2.34c-.94-.86-1.94-1.66-2.91-2.51A3.16,3.16,0,0,0,34.06,89a1.49,1.49,0,0,1-.93-.16,13.88,13.88,0,0,0-4-1.54,6.56,6.56,0,0,1-1.75-.75,26.72,26.72,0,0,0-3.93-1.78c-1.05-.36-2.08-.81-3.11-1.26s-2-.95-3-1.42a.76.76,0,0,0-.47-.06.56.56,0,0,0-.38.75c.58,1.2,1.92,1.65,2.68,2.68a3.33,3.33,0,0,1,.32.87,2.35,2.35,0,0,1-.91-.14,17.4,17.4,0,0,1-2.72-1.9c-2-1.84-4.22-3.33-6.23-5.11a.5.5,0,0,0-.8.11A.66.66,0,0,0,9,80.1,35.8,35.8,0,0,1,13.44,85c.79,1,1.63,1.94,2.49,2.87,1.07,1.17,2.18,2.3,3.25,3.47a3.14,3.14,0,0,1,.38.85,3.3,3.3,0,0,1-1.73-.75,12.54,12.54,0,0,1-1.43-1.28c-1.5-1.65-3.08-3.26-4.42-5A22.91,22.91,0,0,0,4.3,78.74,21.76,21.76,0,0,1,.23,76.25,1,1,0,0,1,.26,75,8.42,8.42,0,0,1,1,74.36a7.32,7.32,0,0,1,2.68-1,2.34,2.34,0,0,1,1,0,21,21,0,0,1,4.88,2A5.31,5.31,0,0,1,11,76.59a13.93,13.93,0,0,0,4.26,3c1.69.88,3.51,1.51,5.2,2.41a1.17,1.17,0,0,0,.46.07.74.74,0,0,0,.74-.42.59.59,0,0,0-.1-.45,3.25,3.25,0,0,0-.63-.7c-1.29-1-2.6-1.86-3.88-2.81a1.72,1.72,0,0,1-.7-1.19,2.67,2.67,0,0,1,.91.16c1.61,1,3.22,2,4.8,3a5.84,5.84,0,0,1,2.43,2.8A4.23,4.23,0,0,0,27.69,85a.88.88,0,0,0,.44-.08c.35-.12.42-.37.29-.76a4.91,4.91,0,0,1-.48-1.8,2.83,2.83,0,0,1,.86.31,12.33,12.33,0,0,1,2.08,2.58,1.26,1.26,0,0,0,.67.59.69.69,0,0,0,.45,0,.51.51,0,0,0,.25-.38,2.58,2.58,0,0,0-.15-.92,43,43,0,0,0-3.64-7.74,28.81,28.81,0,0,1-2.74-5,7.46,7.46,0,0,0-1.22-2,14.82,14.82,0,0,0-7.9-5,1,1,0,0,0-1,.7,4,4,0,0,0,.23,2.33,6.23,6.23,0,0,1,.8,2.22,2.09,2.09,0,0,1-1.74-1.4c-.29-.72-.42-1.5-.67-2.24a6.11,6.11,0,0,0-1.36-2.45,1.67,1.67,0,0,0-1.21-.6l-.06-.3.19.2a3.57,3.57,0,0,0,.65,2.19A10.87,10.87,0,0,1,14,69.77c.06.61.28,1.21.39,1.82a7.59,7.59,0,0,0,1,2.6c.31.54.66,1.06.93,1.62a3.26,3.26,0,0,1,.16.9A1.85,1.85,0,0,1,15.28,76a8.89,8.89,0,0,1-1.59-2.93,30.12,30.12,0,0,1-.82-3.24,12.43,12.43,0,0,0-1.74-4.42c-.74-1.22-1.46-2.47-2.22-3.68A38.82,38.82,0,0,1,5.31,54a4.84,4.84,0,0,1-.22-2.36c.06-.37.76-.78,1.08-.58a3.07,3.07,0,0,1,.78.53,24,24,0,0,1,1.8,2.23c1,1.43,1.92,2.93,2.92,4.37a26.34,26.34,0,0,0,2,2.67,9.78,9.78,0,0,0,3.84,2.78c1.8.67,3.41,1.72,5.13,2.55a.71.71,0,0,0,.87-.16.76.76,0,0,0,0-.87c-.31-.55-.61-1.11-1-1.65-.61-.93-1.25-1.84-1.86-2.78a2.31,2.31,0,0,1-.33-1.37l-.12.09c.27.14.63.21.81.43.91,1.11,1.8,2.24,2.64,3.39A31.27,31.27,0,0,1,29.3,74.77a6.09,6.09,0,0,0,1.85,3.28,3.37,3.37,0,0,1,1,2.11c.07.47.15,1,.23,1.42a8.89,8.89,0,0,0,2.36,4.6A53.88,53.88,0,0,0,40,91.12a10.43,10.43,0,0,1,2.69,3.3,2.62,2.62,0,0,0,.66.67.6.6,0,0,0,.43.11A.4.4,0,0,0,44,95a12.42,12.42,0,0,0,.17-3.8,1.61,1.61,0,0,0-.55-1.28,8.93,8.93,0,0,1-2.86-3.74,6.94,6.94,0,0,0-1.72-2.27c-.91-.89-1.79-1.81-2.66-2.73a3,3,0,0,1-.79-1.7,3.36,3.36,0,0,1,.81.45c.7.65,1.31,1.39,2,2a27.18,27.18,0,0,1,4.19,4.52.68.68,0,0,0,.86.12.91.91,0,0,0,.57-.7,12.7,12.7,0,0,0-.1-4.26,1.45,1.45,0,0,0-.44-.8,11.66,11.66,0,0,1-1.49-1.17,19.53,19.53,0,0,1-2.44-3.47,1.42,1.42,0,0,1,0-.47l-.1.08a1.61,1.61,0,0,1,1.34.34,15.51,15.51,0,0,1,1.42,1.27c.28.28.57.38.85.11a1.4,1.4,0,0,0,.42-.78c.07-1.91.11-3.82.14-5.73a3.66,3.66,0,0,0-1.28-3,1.77,1.77,0,0,1-.56-.76,46.74,46.74,0,0,1-2.12-7.83,49.83,49.83,0,0,0-.95-5.16,24.79,24.79,0,0,1-.84-8.05,6.87,6.87,0,0,0,0-1.43,5.43,5.43,0,0,0-.27-1.4,13.86,13.86,0,0,0-2.81-5,2.57,2.57,0,0,1-.6-.73,8.85,8.85,0,0,1-.34-1.37ZM7.84,55.57a3.81,3.81,0,0,0-.1.94,6.6,6.6,0,0,0,1.82,3.77.54.54,0,0,0,.79.09.75.75,0,0,0,.24-.38,2.29,2.29,0,0,0,0-.94,7.13,7.13,0,0,0-2-3.17,1.06,1.06,0,0,0-.87-.22.53.53,0,0,0-.13-.79s-.32.08-.32.14C7.26,55.37,7.46,55.56,7.84,55.57ZM3.35,74.82a.85.85,0,0,0-.75.45.83.83,0,0,0,.07.87,2.06,2.06,0,0,0,1.12.77c.33.13.64.16.81-.07a.93.93,0,0,0,0-.88,3.29,3.29,0,0,0-.16-.44A1.23,1.23,0,0,0,3.35,74.82Zm45.16,29.11a.86.86,0,0,0-.76.42c-.21.34-.16.6.21.74a.57.57,0,0,0,.43-.08.69.69,0,0,0,.41-.75C48.79,104.14,48.61,104,48.51,103.93Z"/><path d="M17.5,55.48c-.27-.14-.65-.22-.8-.44-.53-.79-1-1.62-1.47-2.46a14.07,14.07,0,0,1-1.79-6.38A43.8,43.8,0,0,0,13.1,41a2.54,2.54,0,0,1,0-.48,19.42,19.42,0,0,1,1.11-4.6c0-.11.24-.19.37-.22a.7.7,0,0,1,.43,0,.73.73,0,0,1,.32.35,16,16,0,0,1,1,2.7,22.25,22.25,0,0,0,2,5.86c.94,2,1.89,4,2.95,6a10.3,10.3,0,0,0,3,3.67,16.77,16.77,0,0,1,4,4,2.29,2.29,0,0,0,.69.66,2.21,2.21,0,0,0,.87.31c.3,0,.9-.6,1-1a4.32,4.32,0,0,0,.09-1.89c-.91-4.2-1.33-8.5-2.56-12.64-.31-2-.75-4.08-.89-6.14-.16-2.39-.38-4.77-.69-7.14a11.54,11.54,0,0,1,.12-3.8,23.66,23.66,0,0,1,1.65-6c.05-.11.23-.18.36-.21a.83.83,0,0,1,.47,0,.65.65,0,0,1,.3.35,13.06,13.06,0,0,1,.86,2.22,39.56,39.56,0,0,0,1.09,4.15,5.89,5.89,0,0,1,.24,3.3l.11-.06a2.45,2.45,0,0,1-.35.29,2.8,2.8,0,0,0-1.34,2.7c0,.45,0,.91,0,1.35a2.47,2.47,0,0,1-1.16-2.45c.22-1.9.42-3.8.8-5.67a1.58,1.58,0,0,0-.2-.91.77.77,0,0,0-.8-.35c-.15,0-.38,0-.45.13a2.29,2.29,0,0,0-.4.85,19,19,0,0,0-.09,4.76c.18,2.38.46,4.75.58,7.14A29.29,29.29,0,0,0,29.32,44q1.34,5.33,2.29,10.73a11.87,11.87,0,0,1-.13,5.68c-.38,1.23,0,2.51-.18,3.77a3.06,3.06,0,0,0,.35,1.37,14.42,14.42,0,0,0,3.14,4.75,7.56,7.56,0,0,0,2.34,1.62c.72.33,1.3,0,1.41-.69a5.94,5.94,0,0,0-.19-2.37c-1-3.69-2-7.37-2.92-11.07-.32-1.23-.4-2.52-.73-3.75s-.87-2.39-1.25-3.6c-.24-.76-.35-1.55-.53-2.33-.28-1.24-.5-2.5-.85-3.72-.52-1.83-1.38-3.57-1.21-5.55-.25-.75-.5-1.51-.73-2.26a3.09,3.09,0,0,1,0-1.88,4.81,4.81,0,0,1,1.51,3.4,18.3,18.3,0,0,0,1.19,5.59,10.56,10.56,0,0,1,.66,2.3,32.6,32.6,0,0,0,1.81,6.44,17.35,17.35,0,0,1,1,3.69A36.88,36.88,0,0,0,38,63.57,71.34,71.34,0,0,1,40,72a4.54,4.54,0,0,1-.07,1.42c-.11.79-.26,1.57-.4,2.35l.1-.08c-.29-.09-.67-.08-.86-.27-1.51-1.56-3.3-2.8-4.9-4.26-.23-.21-.49-.37-.74-.56a1.5,1.5,0,0,0-1.72,0c.1-.3.2-.58.3-.85l-.19,0a.83.83,0,0,1-.13.84,9.58,9.58,0,0,1,1.57,4.25c-.12-.11-.29-.18-.36-.31a35.16,35.16,0,0,1-2.93-6c-.36-1.06-1-2-1.28-3.1a23.23,23.23,0,0,0-3.2-5.87,4.88,4.88,0,0,0-1-1,10.65,10.65,0,0,0-1.2-.77,8.57,8.57,0,0,1-3.23-3.47C19.09,53.12,18.51,52,18,50.82a9.68,9.68,0,0,1-1-4.64,8.7,8.7,0,0,0-1.6-5.41c-.06-.09-.28-.11-.42-.09s-.31.11-.34.21a13,13,0,0,0-.27,4.26,16.5,16.5,0,0,0,2,7.33,13.67,13.67,0,0,1,.88,1.7,6.39,6.39,0,0,1,.2,1.4Zm10,6.21-.22-.3c.1-.07.24-.22.3-.19.35.16.36.38.05.59,0-.4.1-.45.22-.15ZM23.76,56a1.56,1.56,0,0,0-1.56-1.28c-.1,0-.28.19-.27.28a1.32,1.32,0,0,0,1.5,1.24C23.54,56.25,23.65,56.1,23.76,56Z"/><path d="M55,19.07A48.27,48.27,0,0,1,55.72,10c.4-1.88.1-3.83.51-5.71a.39.39,0,0,1,.28-.25.62.62,0,0,1,.44.08,1,1,0,0,1,.3.37A1.83,1.83,0,0,1,57.4,5c.2,1.42.34,2.86.62,4.26s.67,2.8,1.06,4.18a11.9,11.9,0,0,1,.41,3.8,52.57,52.57,0,0,0,.14,5.75l.13-.08a1.57,1.57,0,0,1-.45-.13c-.26-.17-.47-.43-.74-.58a.48.48,0,0,0-.74.28A2.21,2.21,0,0,0,58.35,25v0a2,2,0,0,1-1.53-2.07,30.92,30.92,0,0,1,.06-3.73,7.23,7.23,0,0,0-.17-1.38c0-.09-.22-.2-.35-.22a.41.41,0,0,0-.34.14c-.37.46-.44,1.19-1.19,1.31Z"/><path d="M81.84,29.64a3.45,3.45,0,0,1,.41-.84c1.56-1.82,3-3.75,4.34-5.71A.57.57,0,0,1,87,22.9c.26,0,.44.22.35.62a15.58,15.58,0,0,0-.72,4.7,13.55,13.55,0,0,1-.41,3.8,46.78,46.78,0,0,0-.86,4.7,12.15,12.15,0,0,1-1.35,4c-.07.13-.24.2-.37.3l.12.13a8.57,8.57,0,0,1,.55-3.58,4.2,4.2,0,0,0,.23-1.79c0-.35-.24-.61-.57-.6a10.1,10.1,0,0,0-1.32.22,9.68,9.68,0,0,1,.69-2.22,11,11,0,0,0,1-3.08.78.78,0,0,0-.8-.85c-.6.08-1.16.44-1.8.28Z"/><path d="M68.27,55.46a4.85,4.85,0,0,1,0,1.86c-.24,1.22-.49,2.44-.7,3.66a.58.58,0,0,0,.4.69.8.8,0,0,0,.86-.23c.54-.56,1-1.15,1.62-1.67a2.67,2.67,0,0,1,.85-.3l-.11-.13a5.25,5.25,0,0,1-.32,1.34,10.81,10.81,0,0,1-1.33,1.9A22,22,0,0,0,67,65.89c-.64,1-1.44,2-2.18,3-.08.11-.27.15-.41.22a13.73,13.73,0,0,1,.45-3.78,14.4,14.4,0,0,0,.39-4.24,16.79,16.79,0,0,1,.53-5.64.46.46,0,0,1,.34-.08c.32.38.27.88.4,1.33,0,.14.16.34.27.36.3,0,.5-.18.63-.53a1.28,1.28,0,0,1,1-.92Z"/><path d="M71.27,59.47a6.47,6.47,0,0,1,.18-1.4c.32-.89.74-1.74,1.1-2.61A5.19,5.19,0,0,0,73,54.12c.23-2.21,1.13-4.27,1.38-6.47.22-1.88.58-3.75,1-5.59a5.14,5.14,0,0,1,1.24-2.5,1.8,1.8,0,0,1,.4-.25l-.1-.13a4.68,4.68,0,0,1-.1,1.41,19,19,0,0,0-1.15,5.57,25.56,25.56,0,0,1-1.1,5.61,17.49,17.49,0,0,0-.63,2.78,8.71,8.71,0,0,1-2,4.25,3.78,3.78,0,0,1-.75.54Z"/><path d="M75,71.84a5.68,5.68,0,0,1-.53,1.79,15.68,15.68,0,0,0-1.77,5.83c-.09.78-.32,1.55-.4,2.33A16.72,16.72,0,0,1,69,89.52c-.16.23-.51.33-.77.49l.13.13a6.91,6.91,0,0,1,.3-1.38c.47-1,1.07-1.94,1.53-2.93a11.76,11.76,0,0,0,1.17-3.58c.21-1.72.52-3.43.8-5.14a5.31,5.31,0,0,1,.35-1.37,16.13,16.13,0,0,1,1.83-3.3,4.23,4.23,0,0,1,.75-.54Z"/><path d="M80.73,46.84a17.61,17.61,0,0,1-.39,4.75,14.27,14.27,0,0,0-.26,4.27,11.87,11.87,0,0,1-.59,4.7c-.07.25-.43.42-.66.63l.12.14c.07-1.75.22-3.49.19-5.23a34.43,34.43,0,0,1,.94-8,2.17,2.17,0,0,1,.79-1.15Z"/><path d="M47.15,20.14a7.69,7.69,0,0,1,.66,1.23A5,5,0,0,1,48,22.76a43.85,43.85,0,0,0,.37,7.06,10.57,10.57,0,0,1-.27,3.75l.14-.13c-.17-.26-.45-.5-.48-.78a51.5,51.5,0,0,1-.45-7c0-1.88,0-3.76,0-5.64Z"/><path d="M78.83,61.19a12.35,12.35,0,0,1-.72,4.11,33.64,33.64,0,0,1-1.49,3.92c-.12.25-.43.41-.66.61l.12.14a4.69,4.69,0,0,1,0-.92c.53-2.25,1.52-4.36,2.07-6.62a2.89,2.89,0,0,1,.41-.8c.07-.12.23-.2.34-.3Z"/><path d="M65.38,94.84a1.83,1.83,0,0,1-.25,1.3,12.8,12.8,0,0,1-3.69,3.3,4,4,0,0,1-.87.23l.13.09a1.78,1.78,0,0,1,.59-1.22c1.24-1.16,2.51-2.31,3.77-3.45.11-.1.29-.1.44-.15Z"/><path d="M60.6,24.9c.23.19.54.32.68.56a8.09,8.09,0,0,1,1.25,3.84c0,.76,0,1.51,0,2.27l.13-.05c-.19-.25-.49-.48-.55-.76-.33-1.71-.86-3.36-1.35-5a3.34,3.34,0,0,1,0-.95Z"/><path d="M31.78,30.57a1.8,1.8,0,0,1,.94.94,10.32,10.32,0,0,1,1,4.92l.12-.12c-.23-.19-.57-.32-.67-.56a11.14,11.14,0,0,1-1.27-5.24Z"/><path d="M20.4,59.33a2.78,2.78,0,0,1-.85-.32A6.53,6.53,0,0,1,17.5,56a1.24,1.24,0,0,1,0-.47l-.1.1a2.9,2.9,0,0,1,.82.35,8.69,8.69,0,0,1,1.89,2.6,3.19,3.19,0,0,1,.17.89Z"/><path d="M77,39.31a8.62,8.62,0,0,1,1.57-3.6c.07-.11.25-.15.38-.22l-.13-.14a6.19,6.19,0,0,1-.09,1.37,3.27,3.27,0,0,1-1.83,2.46Z"/><path d="M54,24c0-1.09.06-2.19.13-3.28A2.33,2.33,0,0,1,55,19.07L54.83,19a11.52,11.52,0,0,1-.14,3.21,3.25,3.25,0,0,1-.81,1.61Z"/><path d="M62.51,31.57a2.06,2.06,0,0,1,.71,1.64,3.12,3.12,0,0,1-.71,2.15l.12,0a25.13,25.13,0,0,1,0-3.88Z"/><path d="M79.92,32.54a2.91,2.91,0,0,1,1.92-2.9l-.12-.08a1.41,1.41,0,0,1,0,.46,5,5,0,0,1-1.92,2.45Z"/><path d="M79,35.49a6.51,6.51,0,0,1,.12-2.11,1.24,1.24,0,0,1,.84-.84l-.13-.07a3,3,0,0,1-1,2.88Z"/><path d="M45.22,14.28a3.55,3.55,0,0,1,1,2.9l.13-.07A1.55,1.55,0,0,1,45.58,16c-.1-.59-.15-1.2-.22-1.8Z"/><path d="M46.18,17.18A1.36,1.36,0,0,1,47,18.26c.1.62.12,1.25.18,1.88l.12-.14a3.4,3.4,0,0,1-1-2.89Z"/><path d="M59.63,22.94a1.1,1.1,0,0,1,.83.77,8,8,0,0,1,.13,1.19l.13-.12a.92.92,0,0,1-.73-.54,2.36,2.36,0,0,1-.23-1.38Z"/><path d="M67.3,92a4.53,4.53,0,0,1-.09.91,1.24,1.24,0,0,1-.83,1l.1.12a2.26,2.26,0,0,1,.24-1.37,1.07,1.07,0,0,1,.72-.57Z"/><path d="M68.26,90a6.67,6.67,0,0,1-.12,1.19,1.07,1.07,0,0,1-.84.77l.14.08a4.77,4.77,0,0,1,.08-.92,1.23,1.23,0,0,1,.87-1Z"/><path d="M76,69.83a2.59,2.59,0,0,1-1,2l.14.06a2.12,2.12,0,0,1,1-1.93Z"/><path d="M81.71,45c-.09.46-.16.93-.27,1.38a.71.71,0,0,1-.71.51l.14.08A7.14,7.14,0,0,1,81,46a1.17,1.17,0,0,1,.88-1Z"/><path d="M82.66,43a1.88,1.88,0,0,1-1,1.93l.13.07a2.33,2.33,0,0,1,.24-1.37,1,1,0,0,1,.72-.55Z"/><path d="M83.64,41.05c-.09.47-.15.94-.28,1.4a.84.84,0,0,1-.7.57l.14.08c.08-.46.14-.92.26-1.37a.79.79,0,0,1,.7-.55Z"/><path d="M66.38,93.87c-.09.58-.33,1-1,1l.12.1c.06-.59.33-1,1-1Z"/><path class="cls-1" d="M59.76,22.86A2.36,2.36,0,0,0,60,24.24a.92.92,0,0,0,.73.54,3.34,3.34,0,0,0,0,.95c.49,1.67,1,3.32,1.35,5,.06.28.36.51.55.76a25.13,25.13,0,0,0,0,3.88,3,3,0,0,0-.74,1.73,32.94,32.94,0,0,1-.76,6.17,12.36,12.36,0,0,0-.1,4.29c.17,1.75.38,3.5.53,5.25a8.28,8.28,0,0,1-.39,3.31c-.73,2.28-1.34,4.6-2.18,6.85a31.41,31.41,0,0,0-1.27,4.61c-.44,2.2-.75,4.41-1.09,6.62a58.45,58.45,0,0,0-.71,6.18,12.53,12.53,0,0,1-.33,2.37,4.32,4.32,0,0,1-1.4,2.46.88.88,0,0,1-.82.25.8.8,0,0,1-.5-.76,5,5,0,0,1,.54-2.79c.1-.8.23-1.58.32-2.37a.43.43,0,0,0-.18-.35c-.31-.1-.44.1-.48.53A3.48,3.48,0,0,0,53.5,82a2.18,2.18,0,0,0-1.36,1.2,25,25,0,0,0-1.45,6A17,17,0,0,1,50.07,92a2.6,2.6,0,0,1-.45.81.75.75,0,0,1-.79.4,1,1,0,0,1-.54-.65,5.54,5.54,0,0,1,.38-3.71,29.94,29.94,0,0,0,.17-7.2c0-.32,0-.64-.06-1a45,45,0,0,1,.42-9.56,7.83,7.83,0,0,1,.47-1.36c.11-1.9.22-3.81.34-5.71a.74.74,0,0,0-.41-.79,1.64,1.64,0,0,0-.18.38,13.84,13.84,0,0,0,.26,6.14,2.16,2.16,0,0,0-1.32,1.8,13,13,0,0,1-.28,2.34c-.67,2.65-.28,5.33-.25,8a23.91,23.91,0,0,1,.44,4.7,7.57,7.57,0,0,0,.44,2.31,2,2,0,0,0-1.35,1.8c0,1.12-.11,2.23-.14,3.35a3.18,3.18,0,0,0,.47,1.83c1,1.53.62,3,0,4.56a.77.77,0,0,1-.77.49.61.61,0,0,1-.62-.53,56,56,0,0,1-1.06-9.5c0-2.71,0-5.43-.11-8.15A26.74,26.74,0,0,0,44.71,77c-.05-3.52-.1-7-.13-10.55a6.17,6.17,0,0,1,.15-1.42c.59-2.66.61-5.4,1.12-8.07a25.45,25.45,0,0,0,.19-6.7q-.24-3.11-.42-6.21a2,2,0,0,1,.45-1.33,1.09,1.09,0,0,1,.36-.28c.36-.18.63-.05.68.38.36,3.17,1,6.3,1.13,9.51a5.13,5.13,0,0,0,.11.95,3.23,3.23,0,0,0,.21.93c.74,1.43.66,3.11,1.38,4.54a.4.4,0,0,0,.37.09.5.5,0,0,0,.26-.35c0-1.78-.81-3.42-.9-5.18,0-.11.17-.27.3-.33a.66.66,0,0,1,.44,0,.81.81,0,0,1,.38.26,11.39,11.39,0,0,1,2,3.78,9.26,9.26,0,0,1,.41,2.35,12.78,12.78,0,0,0,.92,3.71,1.23,1.23,0,0,0,1.12.72,4.09,4.09,0,0,0-.33.9c-.21,1.56-.45,3.12-.56,4.68-.13,1.72-.13,3.45-.17,5.18,0,.1.14.21.21.31.13-.09.33-.16.36-.27a15,15,0,0,0,.6-2.76c.14-2.2.18-4.41.2-6.61a4.92,4.92,0,0,0-.39-1.35,54.09,54.09,0,0,1-1.39-6.55,12,12,0,0,0-.45-1.86c-.37-1.39-.76-2.77-1.14-4.16A16.49,16.49,0,0,1,52,44.19a23.77,23.77,0,0,1,1.23-4.63,12,12,0,0,0,.7-4.7q0-.72-.06-1.44a44.14,44.14,0,0,1,0-7.18c.07-.8,0-1.6.06-2.4a3.25,3.25,0,0,0,.81-1.61A11.52,11.52,0,0,0,54.83,19c.75-.12.82-.85,1.19-1.31a.41.41,0,0,1,.34-.14c.13,0,.33.13.35.22a7.23,7.23,0,0,1,.17,1.38,30.92,30.92,0,0,0-.06,3.73A2.05,2.05,0,0,0,58.35,25,9.64,9.64,0,0,0,58,30c.08.45.18.91.27,1.36a1.41,1.41,0,0,1-.34.31,1.28,1.28,0,0,0-.88,1.39,4.54,4.54,0,0,0,.18,1.35,11.86,11.86,0,0,1,1,4.45,4.5,4.5,0,0,1,.31,2.34c-.43,2.67-.61,5.36-.78,8.06,0,.63-.19,1.25-.28,1.87a21.25,21.25,0,0,0-.33,2.36c-.09,1.9-.11,3.8-.13,5.71,0,.14.12.29.19.43a1,1,0,0,0,.42-.76,111.1,111.1,0,0,0,.9-11.39,11.75,11.75,0,0,1,.53-3.76,9,9,0,0,0,.25-2.83,2.52,2.52,0,0,0-1.07-2,6.11,6.11,0,0,0-.22-4.09A5.25,5.25,0,0,1,57.65,33a2,2,0,0,1,.66-1.64,3.19,3.19,0,0,1,0-.92,11.3,11.3,0,0,0,0-4.56,3.5,3.5,0,0,1,.05-.91,2.21,2.21,0,0,1-.52-2.56.48.48,0,0,1,.74-.28c.27.15.48.41.74.58A1.57,1.57,0,0,0,59.76,22.86Z"/><path class="cls-1" d="M46.31,17.11a3.4,3.4,0,0,0,1,2.89c0,1.88,0,3.76,0,5.64a51.5,51.5,0,0,0,.45,7c0,.28.31.52.48.78a12.39,12.39,0,0,0,.44,3.78,13,13,0,0,1,.48,5.65.49.49,0,0,1-.3.35.45.45,0,0,1-.4-.2c-.49-1.84-1-3.68-1.45-5.52-.08-.33-.41-.44-.71-.5a.56.56,0,0,0-.74.44c-.09.3-.22.59-.3.89a31.22,31.22,0,0,0-.58,10,22.18,22.18,0,0,1,0,9,37.15,37.15,0,0,0-.31,3.81,10.64,10.64,0,0,1-.84,3.22c-.14.33-.37.54-.64.52a.53.53,0,0,1-.39-.25,18.66,18.66,0,0,1-1.79-4.91,9.39,9.39,0,0,1,0-2.85A4.26,4.26,0,0,0,40.31,55a19.35,19.35,0,0,1-1.59-8.36,24.33,24.33,0,0,0-.5-5.7c-.18-.93-.39-1.87-.52-2.81a11.37,11.37,0,0,1,.19-4.27c.22-.93.44-1.86.71-2.78a1.2,1.2,0,0,1,1-.9c.47-.08.94-.17,1.4-.23a8.33,8.33,0,0,0-.29,1.42c0,1.43,0,2.86,0,4.29,0,.46.14.63.35.45a.58.58,0,0,0,.18-.41A26.54,26.54,0,0,0,41,30a5.12,5.12,0,0,1-.41-3.68,34.78,34.78,0,0,1,1-4.15A22.82,22.82,0,0,0,42.44,17a10.25,10.25,0,0,1,.9-4.12.5.5,0,0,1,.79-.09c.45.42.62,1.1,1.23,1.41.07.6.12,1.21.22,1.8A1.55,1.55,0,0,0,46.31,17.11ZM40,41.8a3.06,3.06,0,0,1,.49.74A8.75,8.75,0,0,1,41,45.66c-.12.77-.27,1.55-.35,2.33,0,.47,0,.94,0,1.41,0,1,.58,1.38,1.42,1.58a9.39,9.39,0,0,0-.71,4.56c0,.43.24.58.52.42a.51.51,0,0,0,.22-.32c.08-1.56-.22-3.1,0-4.66a2.62,2.62,0,0,1-.63-1.73c0-.93.11-1.87.09-2.81,0-.25-.34-.5-.52-.77A6.24,6.24,0,0,0,41.18,43a.89.89,0,0,0-.47-.71c-.26-.15-.5-.32-.75-.49.07-.36.44-.65.24-1.07a1.52,1.52,0,0,0-.09.25C40.05,41.27,40,41.54,40,41.8Z"/><path class="cls-1" d="M68.39,55.58a1.28,1.28,0,0,0-1,.92c-.13.35-.33.57-.63.53-.11,0-.23-.22-.27-.36-.13-.45-.08-1-.4-1.33a.46.46,0,0,0-.34.08,16.79,16.79,0,0,0-.53,5.64,14.4,14.4,0,0,1-.39,4.24,13.73,13.73,0,0,0-.45,3.78l.16-.22c-.23.2-.56.35-.68.6a16,16,0,0,0-1.28,3c-.63,2.56-1.28,5.12-1.9,7.68a8.06,8.06,0,0,0-.11,1.39l.13-.16a1.26,1.26,0,0,0-.35.29,9.85,9.85,0,0,0-1.58,4.79c0,.62-.06,1.24-.09,1.86l.09-.22a2.85,2.85,0,0,0-.8,1.69c-.09.78-.16,1.57-.25,2.36l.13-.18a2,2,0,0,0-1.13,1.11l.14-.16a5.31,5.31,0,0,0-2,3.06l.16-.18a1.7,1.7,0,0,0-1.14,1.12l.15-.17a4.36,4.36,0,0,0-2,3.07l.15-.17A1.24,1.24,0,0,0,51,100.76l.09-.16-.91-.3a1.47,1.47,0,0,1-.86-1.49A42.25,42.25,0,0,1,52,90.16a7.11,7.11,0,0,1,1-1.62c.49-.63,1.09-1.17,1.58-1.79s.94-1.29,1.38-2a4,4,0,0,0,.79-2.23c0-2.88.76-5.67,1-8.53.12-1.42.62-2.81.75-4.23a24.31,24.31,0,0,1,2.38-8.21A26.24,26.24,0,0,0,63,54.29c.3-1.89.59-3.78.93-5.66a41.75,41.75,0,0,0,.47-5.71,14.08,14.08,0,0,1,1.27-5.07,2.41,2.41,0,0,1,.29-.36.87.87,0,0,1,.85-.36.69.69,0,0,1,.53.64,12.44,12.44,0,0,1-.26,3.8,34.75,34.75,0,0,0-.51,9c0,.11.11.32.18.32s.37-.08.38-.16c.15-.94.26-1.89.4-2.83,0-.15.14-.38.24-.39.27,0,.47.19.6.53a13.57,13.57,0,0,1,.48,1.35A4.28,4.28,0,0,1,69,50.86c-.12.94-.38,1.87-.51,2.82C68.38,54.3,68.41,54.94,68.39,55.58Z"/><path class="cls-1" d="M66.48,94c-.65,0-.92.36-1,1-.15,0-.33,0-.44.15-1.26,1.14-2.53,2.29-3.77,3.45a1.78,1.78,0,0,0-.59,1.22,7.06,7.06,0,0,0-2-.15l.09.16A6.4,6.4,0,0,1,60.46,97c1.75-1.87,2.74-4.2,4-6.38a16.67,16.67,0,0,0,1.23-4c.34-1.21.72-2.41,1.08-3.61a9.41,9.41,0,0,0,.39-1.35c.44-3,1.24-5.86,1.21-8.87l-.09.22a2.92,2.92,0,0,0,.83-1.68c.07-.47.15-1,.22-1.42l-.1.18a6.69,6.69,0,0,0,3-4l-.13.21A2.86,2.86,0,0,0,73,64.54c.08-.48.16-1,.23-1.42l-.1.2a4.24,4.24,0,0,0,1.08-2.1l-.11.18a5.55,5.55,0,0,0,1-3.09l-.1.21a1.68,1.68,0,0,0,.7-1c.13-.69.24-1.38.35-2.08l-.08.2a1.88,1.88,0,0,0,.71-1.19c.13-1.27.22-2.54.33-3.81l-.09.2a2.43,2.43,0,0,0,.87-1.64L78,47.76l-.1.18a1.53,1.53,0,0,0,.79-.9,12.33,12.33,0,0,0,.29-1.2l-.1.21c.18-.24.46-.46.53-.73a30.08,30.08,0,0,0,1.47-6.2l-.09.19a3.07,3.07,0,0,0,1.08-2.1l-.12.2a3.4,3.4,0,0,0,1.08-2.12l-.15.13A12.07,12.07,0,0,1,84,35.21c.33,0,.53.25.57.6a4.2,4.2,0,0,1-.23,1.79,8.57,8.57,0,0,0-.55,3.58.79.79,0,0,0-.7.55c-.12.45-.18.91-.26,1.37a1,1,0,0,0-.72.55A2.33,2.33,0,0,0,81.84,45,1.17,1.17,0,0,0,81,46a7.14,7.14,0,0,0-.09.93,2.17,2.17,0,0,0-.79,1.15,34.43,34.43,0,0,0-.94,8c0,1.74-.12,3.48-.19,5.23-.11.1-.27.18-.34.3a2.89,2.89,0,0,0-.41.8c-.55,2.26-1.54,4.37-2.07,6.62a4.69,4.69,0,0,0,0,.92,2.12,2.12,0,0,0-1,1.93,4.23,4.23,0,0,0-.75.54,16.13,16.13,0,0,0-1.83,3.3,5.31,5.31,0,0,0-.35,1.37c-.28,1.71-.59,3.42-.8,5.14a11.76,11.76,0,0,1-1.17,3.58c-.46,1-1.06,1.93-1.53,2.93a6.91,6.91,0,0,0-.3,1.38,1.23,1.23,0,0,0-.87,1,4.77,4.77,0,0,0-.08.92,1.07,1.07,0,0,0-.72.57A2.26,2.26,0,0,0,66.48,94Z"/><path class="cls-1" d="M20.28,59.42a3.19,3.19,0,0,0-.17-.89,8.69,8.69,0,0,0-1.89-2.6,2.9,2.9,0,0,0-.82-.35,6.39,6.39,0,0,0-.2-1.4,13.67,13.67,0,0,0-.88-1.7,16.5,16.5,0,0,1-2-7.33,13,13,0,0,1,.27-4.26c0-.1.21-.19.34-.21s.36,0,.42.09A8.7,8.7,0,0,1,17,46.18a9.68,9.68,0,0,0,1,4.64c.54,1.16,1.12,2.3,1.73,3.42a8.57,8.57,0,0,0,3.23,3.47,10.65,10.65,0,0,1,1.2.77,4.88,4.88,0,0,1,1,1,23.23,23.23,0,0,1,3.2,5.87c.32,1.06.92,2,1.28,3.1a35.16,35.16,0,0,0,2.93,6c.07.13.24.2.36.31l-.15-.15a5.64,5.64,0,0,0,3,5l-.15-.19a3,3,0,0,0,.79,1.7c.87.92,1.75,1.84,2.66,2.73a6.94,6.94,0,0,1,1.72,2.27,8.93,8.93,0,0,0,2.86,3.74,1.61,1.61,0,0,1,.55,1.28A12.42,12.42,0,0,1,44,95a.4.4,0,0,1-.3.23.6.6,0,0,1-.43-.11,2.62,2.62,0,0,1-.66-.67A10.43,10.43,0,0,0,40,91.12a53.88,53.88,0,0,1-5.2-4.94,8.89,8.89,0,0,1-2.36-4.6c-.08-.47-.16-1-.23-1.42a3.37,3.37,0,0,0-1-2.11,6.09,6.09,0,0,1-1.85-3.28,31.27,31.27,0,0,0-5.57-11.53C22.89,62.09,22,61,21.09,59.85,20.91,59.63,20.55,59.56,20.28,59.42Z"/><path class="cls-1" d="M31.89,30.51a11.14,11.14,0,0,0,1.27,5.24c.1.24.44.37.67.56a8.85,8.85,0,0,0,.34,1.37,2.57,2.57,0,0,0,.6.73,13.86,13.86,0,0,1,2.81,5,5.43,5.43,0,0,1,.27,1.4,6.87,6.87,0,0,1,0,1.43,24.79,24.79,0,0,0,.84,8.05,49.83,49.83,0,0,1,.95,5.16,46.74,46.74,0,0,0,2.12,7.83,1.77,1.77,0,0,0,.56.76,3.66,3.66,0,0,1,1.28,3c0,1.91-.07,3.82-.14,5.73a1.4,1.4,0,0,1-.42.78c-.28.27-.57.17-.85-.11a15.51,15.51,0,0,0-1.42-1.27,1.61,1.61,0,0,0-1.34-.34c.14-.78.29-1.56.4-2.35A4.54,4.54,0,0,0,40,72,71.34,71.34,0,0,0,38,63.57a36.88,36.88,0,0,1-1.8-7.44,17.35,17.35,0,0,0-1-3.69A32.6,32.6,0,0,1,33.45,46a10.56,10.56,0,0,0-.66-2.3,18.3,18.3,0,0,1-1.19-5.59,4.81,4.81,0,0,0-1.51-3.4l.12.15c0-.45,0-.91,0-1.36a2.8,2.8,0,0,1,1.34-2.7A2.45,2.45,0,0,0,31.89,30.51Z"/><path class="cls-1" d="M16.59,70a6.23,6.23,0,0,0-.8-2.22,4,4,0,0,1-.23-2.33,1,1,0,0,1,1-.7,14.82,14.82,0,0,1,7.9,5,7.46,7.46,0,0,1,1.22,2,28.81,28.81,0,0,0,2.74,5A43,43,0,0,1,32.1,84.5a2.58,2.58,0,0,1,.15.92.51.51,0,0,1-.25.38.69.69,0,0,1-.45,0,1.26,1.26,0,0,1-.67-.59,12.33,12.33,0,0,0-2.08-2.58,2.83,2.83,0,0,0-.86-.31l.15.17a2.81,2.81,0,0,0-.66-1.7,40.7,40.7,0,0,0-4.5-4.69,2.15,2.15,0,0,0-1.73-.51l.18.17a1.42,1.42,0,0,0-.05-.47,19.84,19.84,0,0,0-4-5.15,2.91,2.91,0,0,0-.87-.33Z"/><path class="cls-1" d="M19.46,86.3a3.39,3.39,0,0,0-.32-.86c-.76-1-2.1-1.48-2.68-2.68a.56.56,0,0,1,.38-.75.76.76,0,0,1,.47.06c1,.47,2,1,3,1.42s2.06.9,3.11,1.26a26.72,26.72,0,0,1,3.93,1.78,6.56,6.56,0,0,0,1.75.75,13.88,13.88,0,0,1,4,1.54,1.49,1.49,0,0,0,.93.16,3.16,3.16,0,0,1,2.62.89c1,.85,2,1.65,2.91,2.51a6,6,0,0,1,1.62,2.34,1,1,0,0,1-.09.9.63.63,0,0,1-.85.22c-.3-.12-.6-.23-.89-.36s-.87-.39-1.3-.61a12.9,12.9,0,0,0-6-1.58,2.43,2.43,0,0,1-1.73-.75,16.49,16.49,0,0,0-6-3.81,23.47,23.47,0,0,1-4.17-2.35,2.85,2.85,0,0,0-.9-.25Z"/><path class="cls-1" d="M32.91,74.79a9.58,9.58,0,0,0-1.57-4.25v0a1.5,1.5,0,0,1,1.73,0c.25.19.51.35.74.56,1.6,1.46,3.39,2.7,4.9,4.26.19.19.57.18.86.27a1.42,1.42,0,0,0,0,.47,19.53,19.53,0,0,0,2.44,3.47,11.66,11.66,0,0,0,1.49,1.17,1.45,1.45,0,0,1,.44.8,12.7,12.7,0,0,1,.1,4.26.91.91,0,0,1-.57.7.68.68,0,0,1-.86-.12,27.18,27.18,0,0,0-4.19-4.52c-.73-.6-1.34-1.34-2-2a3.36,3.36,0,0,0-.81-.45l.15.19a6,6,0,0,0-.39-1.31c-.71-1.18-1.48-2.31-2.24-3.45-.07-.12-.25-.16-.38-.24Z"/><path class="cls-1" d="M19.56,92.17a3.14,3.14,0,0,0-.38-.85C18.11,90.15,17,89,15.93,87.85c-.86-.93-1.7-1.88-2.49-2.87A35.8,35.8,0,0,0,9,80.1a.66.66,0,0,1-.15-.83.5.5,0,0,1,.8-.11c2,1.78,4.26,3.27,6.23,5.11a17.4,17.4,0,0,0,2.72,1.9,2.35,2.35,0,0,0,.91.14l-.18-.18a1.83,1.83,0,0,0,.55,1.27A12.28,12.28,0,0,0,23,89.5c1,.49,2,.9,3,1.41a8.83,8.83,0,0,1,3.28,2.73,1.52,1.52,0,0,1,0,1.76l.09-.06a16.2,16.2,0,0,1-4.39-1.41A15.84,15.84,0,0,0,22,93c-.87-.28-1.59-1-2.57-1Z"/><path class="cls-1" d="M11.61,63.34a1.67,1.67,0,0,1,1.21.6,6.11,6.11,0,0,1,1.36,2.45c.25.74.38,1.52.67,2.24A2.09,2.09,0,0,0,16.59,70l-.18-.19a2.89,2.89,0,0,0,.2.91,26.25,26.25,0,0,0,3.89,4.77c.18.19.58.18.88.27l-.18-.17c.11.29.14.67.34.85a49,49,0,0,1,3.69,3.66c.64.69,1.32,1.35,2,2a3.26,3.26,0,0,0,.84.4l-.15-.17a4.91,4.91,0,0,0,.48,1.8c.13.39.06.64-.29.76a.88.88,0,0,1-.44.08,4.23,4.23,0,0,1-3.23-2.48A5.84,5.84,0,0,0,22,79.71c-1.58-1-3.19-2-4.8-3a2.67,2.67,0,0,0-.91-.16l.18.16a3.26,3.26,0,0,0-.16-.9c-.27-.56-.62-1.08-.93-1.62a7.59,7.59,0,0,1-1-2.6c-.11-.61-.33-1.21-.39-1.82a10.87,10.87,0,0,0-1.61-4.34,3.57,3.57,0,0,1-.65-2.19Z"/><path class="cls-1" d="M56,99.62a6,6,0,0,0-1.28.39c-.79.43-1.54.94-2.31,1.42a.81.81,0,0,1-1.1-.43c-.08-.13-.14-.26-.21-.4l-.09.16a1.7,1.7,0,0,0,1.13-1.14l-.15.17c1.09-.75,2-1.6,2-3.07l-.15.17A1.29,1.29,0,0,0,55,95.77l-.16.18a3.69,3.69,0,0,0,2-3.06l-.14.16a2.05,2.05,0,0,0,1.13-1.11l-.13.18A3.31,3.31,0,0,0,58.61,90c0-.63.11-1.27.17-1.9l-.09.22a4,4,0,0,0,.67-1.18,31.75,31.75,0,0,1,1.15-4.41,7.58,7.58,0,0,0,.2-1.35l-.13.16.88.34A1.15,1.15,0,0,1,62.2,83c-.11,1.89-.28,3.78-.44,5.67a7.66,7.66,0,0,1-.81,2.7,30.86,30.86,0,0,1-4,6.42,4.46,4.46,0,0,0-1.18,2Z"/><path class="cls-1" d="M29.35,95.4a8.06,8.06,0,0,1,5.56-.15A29,29,0,0,1,38,96.39a4.92,4.92,0,0,1,2.71,2.5.58.58,0,0,1,.05.44.6.6,0,0,1-.83.24,37.42,37.42,0,0,0-10.49-4.25Z"/><path class="cls-1" d="M43.53,5.93a12.08,12.08,0,0,1-1,1.59,3.59,3.59,0,0,0-.86,2.65,61.86,61.86,0,0,1-.24,6.67c0,.16,0,.32-.06.48,0,.38-.19.64-.41.61s-.19-.26-.19-.4c-.16-3.19-.28-6.37-.21-9.55a7,7,0,0,1,.71-2.75c.32-.72.89-.83,1.41-.24.32.35.65.7,1,1.07Z"/><path class="cls-1" d="M7.72,55.67a1,1,0,0,1,.88.21,7.13,7.13,0,0,1,2,3.17,2.29,2.29,0,0,1,0,.94.75.75,0,0,1-.24.38.54.54,0,0,1-.79-.09,6.6,6.6,0,0,1-1.82-3.77,3.81,3.81,0,0,1,.1-.94Z"/><path class="cls-1" d="M58.7,99.61a5.24,5.24,0,0,1-2.23,2.4c-.69.39-1.34.87-2,1.22a6.7,6.7,0,0,1-1.37.34l.1.13a1,1,0,0,1,.08-.89,11.09,11.09,0,0,1,2-2A2.61,2.61,0,0,0,56,99.62l-.2.15a15.34,15.34,0,0,1,3,0Z"/><path class="cls-1" d="M3.35,74.82a1.23,1.23,0,0,1,1.13.7,3.29,3.29,0,0,1,.16.44.93.93,0,0,1,0,.88c-.17.23-.48.2-.81.07a2.06,2.06,0,0,1-1.12-.77.83.83,0,0,1-.07-.87A.85.85,0,0,1,3.35,74.82Z"/><path class="cls-1" d="M48.51,103.93c.1.11.28.21.29.33a.69.69,0,0,1-.41.75.57.57,0,0,1-.43.08c-.37-.14-.42-.4-.21-.74A.86.86,0,0,1,48.51,103.93Z"/><path class="cls-1" d="M7.84,55.57c-.38,0-.58-.2-.56-.56,0-.06.27-.18.32-.14a.53.53,0,0,1,.12.8Z"/><path class="cls-1" d="M53.05,103.57l-.27.28c-.13-.26,0-.31.37-.16A1.27,1.27,0,0,1,53.05,103.57Z"/><polygon class="cls-1" points="11.74 63.24 11.55 63.04 11.61 63.34 11.74 63.24"/><path class="cls-1" d="M30.09,34.71a3.09,3.09,0,0,0,0,1.88c.23.75.48,1.51.73,2.26-.17,2,.69,3.72,1.21,5.55.35,1.22.57,2.48.85,3.72.18.78.29,1.57.53,2.33.38,1.21.92,2.38,1.25,3.6s.41,2.52.73,3.75c.94,3.7,1.94,7.38,2.92,11.07a5.94,5.94,0,0,1,.19,2.37c-.11.74-.69,1-1.41.69a7.56,7.56,0,0,1-2.34-1.62,14.42,14.42,0,0,1-3.14-4.75,3.06,3.06,0,0,1-.35-1.37c.2-1.26-.2-2.54.18-3.77a11.87,11.87,0,0,0,.13-5.68Q30.67,49.33,29.32,44a29.29,29.29,0,0,1-.83-5.66c-.12-2.39-.4-4.76-.58-7.14A19,19,0,0,1,28,26.45a2.29,2.29,0,0,1,.4-.85c.07-.1.3-.1.45-.13a.77.77,0,0,1,.8.35,1.58,1.58,0,0,1,.2.91c-.38,1.87-.58,3.77-.8,5.67a2.47,2.47,0,0,0,1.16,2.45Z"/><path class="cls-1" d="M23.76,56c-.11.08-.22.23-.33.24A1.32,1.32,0,0,1,21.93,55c0-.09.17-.27.27-.28A1.56,1.56,0,0,1,23.76,56Z"/><path class="cls-1" d="M27.65,61.81c.3-.23.29-.45-.06-.61-.06,0-.2.12-.3.19l.22.3Z"/><path class="cls-1" d="M31.34,70.54a.83.83,0,0,0,.13-.84l.19,0c-.1.27-.2.55-.3.85C31.35,70.59,31.34,70.54,31.34,70.54Z"/><path class="cls-1" d="M27.51,61.69l.35,0c-.12-.3-.19-.25-.22.16Z"/><path class="cls-1" d="M78.83,35.35a3,3,0,0,0,1-2.88A5,5,0,0,0,81.71,30a1.41,1.41,0,0,0,0-.46c.64.16,1.2-.2,1.8-.28a.78.78,0,0,1,.8.85,11,11,0,0,1-1,3.08,9.68,9.68,0,0,0-.69,2.22l.15-.14a1.46,1.46,0,0,0-.83.89c-.12.4-.17.82-.25,1.23l.12-.2a1.33,1.33,0,0,0-.8.88c-.11.4-.19.81-.28,1.22l.09-.19a17.7,17.7,0,0,0-2,6.93l.1-.21a3.77,3.77,0,0,0-1.08,2.1l.1-.18a5.72,5.72,0,0,0-1,3.07l.09-.2a6.17,6.17,0,0,0-.85,2.66c0,.78-.12,1.56-.19,2.34l.08-.2a8,8,0,0,0-1,3.09l.1-.21a5.08,5.08,0,0,0-1,3.09l.11-.18a1.53,1.53,0,0,0-.79.9c-.12.39-.19.8-.29,1.2l.1-.2a2.62,2.62,0,0,0-.8,1.44c-.1.55-.17,1.1-.26,1.66l.13-.21a1.75,1.75,0,0,0-.44.17A7.65,7.65,0,0,0,69.23,70l.1-.18a7,7,0,0,0-1,3.1l.09-.22a4.23,4.23,0,0,0-.63,1.23,24.78,24.78,0,0,1-1,5,3.17,3.17,0,0,0-.16.92,14.4,14.4,0,0,1-1.11,4.53c-.43,1.17-.82,2.35-1.19,3.54-.14.44-.68.59-1.17.58l0,0A65.93,65.93,0,0,0,63.32,81c0-1.57,0-3.15,0-4.73a13.3,13.3,0,0,1,.72-4.18,7.17,7.17,0,0,0,.49-3.25l-.16.22c.14-.07.33-.11.41-.22.74-1,1.54-1.92,2.18-3a22,22,0,0,1,2.53-3.31,10.81,10.81,0,0,0,1.33-1.9,5.25,5.25,0,0,0,.32-1.34,3.78,3.78,0,0,0,.75-.54,8.71,8.71,0,0,0,2-4.25,17.49,17.49,0,0,1,.63-2.78,25.56,25.56,0,0,0,1.1-5.61,19,19,0,0,1,1.15-5.57,4.68,4.68,0,0,0,.1-1.41,3.27,3.27,0,0,0,1.83-2.46A6.19,6.19,0,0,0,78.83,35.35Z"/><path d="M58.27,38.92a2.44,2.44,0,0,1,1.08,2,9,9,0,0,1-.25,2.83,11.75,11.75,0,0,0-.53,3.76,111.1,111.1,0,0,1-.9,11.39,1,1,0,0,1-.42.76c-.07-.14-.2-.29-.19-.43,0-1.91,0-3.81.13-5.71a21.25,21.25,0,0,1,.33-2.36c.09-.62.24-1.24.28-1.87.17-2.7.35-5.39.78-8.06a4.7,4.7,0,0,0-.3-2.36S58.27,38.92,58.27,38.92Z"/><path d="M48.71,88.89a7.57,7.57,0,0,1-.44-2.31,23.91,23.91,0,0,0-.44-4.7c0-2.66-.42-5.34.25-8a13,13,0,0,0,.28-2.34,2.16,2.16,0,0,1,1.32-1.8h0a7.46,7.46,0,0,0-.47,1.35,45,45,0,0,0-.42,9.56c0,.32,0,.64.06,1a29.94,29.94,0,0,1-.17,7.2Z"/><path d="M55.17,63.89a4.92,4.92,0,0,1,.39,1.35c0,2.2-.06,4.41-.2,6.61a15,15,0,0,1-.6,2.76c0,.11-.23.18-.36.27-.07-.1-.21-.21-.21-.31,0-1.73,0-3.46.17-5.18.11-1.56.35-3.12.56-4.68a4.09,4.09,0,0,1,.33-.9Z"/><path d="M58.31,31.38A2,2,0,0,0,57.65,33a5.25,5.25,0,0,0,.41,1.79,6.11,6.11,0,0,1,.22,4.09s0,0,0,0a12.06,12.06,0,0,0-1-4.43,4.54,4.54,0,0,1-.18-1.35A1.28,1.28,0,0,1,58,31.7a1.41,1.41,0,0,0,.34-.31Z"/><path d="M49.68,69.75a13.84,13.84,0,0,1-.26-6.14,1.64,1.64,0,0,1,.18-.38A.74.74,0,0,1,50,64c-.12,1.9-.23,3.81-.34,5.71Z"/><path d="M58.35,25a3.5,3.5,0,0,0-.05.91,11.3,11.3,0,0,1,0,4.56,3.19,3.19,0,0,0,0,.92h0c-.09-.45-.19-.91-.27-1.36A9.64,9.64,0,0,1,58.35,25Z"/><path d="M53.5,82a3.48,3.48,0,0,1-.43-2.28c0-.43.17-.63.48-.53a.43.43,0,0,1,.18.35c-.09.79-.22,1.57-.32,2.37Z"/><path d="M41,30a26.54,26.54,0,0,1,.25,5.7.58.58,0,0,1-.18.41c-.21.18-.35,0-.35-.45,0-1.43,0-2.86,0-4.29A8.33,8.33,0,0,1,41,29.93Z"/><path d="M41,45.69c.18.25.51.5.52.75,0,.94-.09,1.88-.09,2.81A2.62,2.62,0,0,0,42,51v0c-.84-.18-1.43-.59-1.42-1.56,0-.47,0-.94,0-1.41.08-.78.23-1.56.35-2.33Z"/><path d="M42,51c-.19,1.56.11,3.1,0,4.66a.51.51,0,0,1-.22.32c-.28.16-.49,0-.52-.42A9.45,9.45,0,0,1,42,51Z"/><path d="M41,45.66a8.75,8.75,0,0,0-.53-3.12A3.06,3.06,0,0,0,40,41.8v0c.25.16.49.33.75.48a.89.89,0,0,1,.47.71A6.3,6.3,0,0,1,41,45.68Z"/><path d="M40,41.8c0-.26.1-.53.16-.8a1.52,1.52,0,0,1,.09-.25c.2.42-.17.71-.24,1.07Z"/><path d="M63.15,88.55c.49,0,1-.14,1.17-.58.37-1.19.76-2.37,1.19-3.54a14.4,14.4,0,0,0,1.11-4.53,3.17,3.17,0,0,1,.16-.92,24.78,24.78,0,0,0,1-5,4.23,4.23,0,0,1,.63-1.23c0,3-.77,5.91-1.21,8.87a9.41,9.41,0,0,1-.39,1.35c-.36,1.2-.74,2.4-1.08,3.61a16.67,16.67,0,0,1-1.23,4c-1.26,2.18-2.25,4.51-4,6.38a6.4,6.4,0,0,0-1.67,2.81,15.34,15.34,0,0,0-3,0,4.46,4.46,0,0,1,1.18-2,30.86,30.86,0,0,0,4-6.42,7.66,7.66,0,0,0,.81-2.7c.16-1.89.33-3.78.44-5.67a1.15,1.15,0,0,0-.74-1.11l-.88-.34a8.06,8.06,0,0,1,.11-1.39c.62-2.56,1.27-5.12,1.9-7.68a16,16,0,0,1,1.28-3c.12-.25.45-.4.68-.6a7.17,7.17,0,0,1-.49,3.25,13.3,13.3,0,0,0-.72,4.18c0,1.58-.05,3.16,0,4.73a66.16,66.16,0,0,1-.19,7.58c.06.22.12.42.17.63Z"/><path d="M60.71,81.35a7.58,7.58,0,0,1-.2,1.35,31.75,31.75,0,0,0-1.15,4.41,4,4,0,0,1-.67,1.18c0-.62.07-1.24.09-1.86a9.85,9.85,0,0,1,1.58-4.79A1.26,1.26,0,0,1,60.71,81.35Z"/><path d="M58.78,88.07c-.06.63-.12,1.27-.17,1.9a3.31,3.31,0,0,1-.88,2.15c.09-.79.16-1.58.25-2.36A2.85,2.85,0,0,1,58.78,88.07Z"/><path d="M56.87,92.89a3.69,3.69,0,0,1-2,3.06A5.31,5.31,0,0,1,56.87,92.89Z"/><path d="M54,96.72c0,1.47-1,2.32-2,3.07A4.36,4.36,0,0,1,54,96.72Z"/><path d="M57.86,91.94a2.05,2.05,0,0,1-1.13,1.11A2,2,0,0,1,57.86,91.94Z"/><path d="M55,95.77a1.29,1.29,0,0,1-1.14,1.12A1.7,1.7,0,0,1,55,95.77Z"/><path d="M52.1,99.62A1.7,1.7,0,0,1,51,100.76,1.24,1.24,0,0,1,52.1,99.62Z"/><path d="M78.85,46.05a17.7,17.7,0,0,1,2-6.93,30.08,30.08,0,0,1-1.47,6.2C79.31,45.59,79,45.81,78.85,46.05Z"/><path d="M69.23,70a7.65,7.65,0,0,1,2.58-3.83,1.75,1.75,0,0,1,.44-.17A6.69,6.69,0,0,1,69.23,70Z"/><path d="M76,55.63c.07-.78.14-1.56.19-2.34A6.17,6.17,0,0,1,77,50.63c-.11,1.27-.2,2.54-.33,3.81A1.88,1.88,0,0,1,76,55.63Z"/><path d="M75,58.52a8,8,0,0,1,1-3.09c-.11.7-.22,1.39-.35,2.08A1.68,1.68,0,0,1,75,58.52Z"/><path d="M76.92,50.83a5.72,5.72,0,0,1,1-3.07l-.18,1.43A2.43,2.43,0,0,1,76.92,50.83Z"/><path d="M74.05,61.4a5.08,5.08,0,0,1,1-3.09A5.55,5.55,0,0,1,74.05,61.4Z"/><path d="M72.12,66.22c.09-.56.16-1.11.26-1.66a2.62,2.62,0,0,1,.8-1.44c-.07.47-.15.94-.23,1.42A2.86,2.86,0,0,1,72.12,66.22Z"/><path d="M68.28,72.93a7,7,0,0,1,1-3.1c-.07.47-.15,1-.22,1.42A2.92,2.92,0,0,1,68.28,72.93Z"/><path d="M73.08,63.32c.1-.4.17-.81.29-1.2a1.53,1.53,0,0,1,.79-.9A4.24,4.24,0,0,1,73.08,63.32Z"/><path d="M77.87,47.94A3.77,3.77,0,0,1,79,45.84a12.33,12.33,0,0,1-.29,1.2A1.53,1.53,0,0,1,77.87,47.94Z"/><path d="M80.76,39.31c.09-.41.17-.82.28-1.22a1.33,1.33,0,0,1,.8-.88A3.07,3.07,0,0,1,80.76,39.31Z"/><path d="M81.72,37.41c.08-.41.13-.83.25-1.23a1.46,1.46,0,0,1,.83-.89A3.4,3.4,0,0,1,81.72,37.41Z"/><path d="M32.76,74.64c.13.08.31.12.38.24.76,1.14,1.53,2.27,2.24,3.45a6,6,0,0,1,.39,1.31A5.64,5.64,0,0,1,32.76,74.64Z"/><path d="M28.09,82.52a3.26,3.26,0,0,1-.84-.4c-.7-.64-1.38-1.3-2-2a49,49,0,0,0-3.69-3.66c-.2-.18-.23-.56-.34-.85a2.15,2.15,0,0,1,1.73.51,40.7,40.7,0,0,1,4.5,4.69A2.81,2.81,0,0,1,28.09,82.52Z"/><path d="M21.38,75.79c-.3-.09-.7-.08-.88-.27a26.25,26.25,0,0,1-3.89-4.77,2.89,2.89,0,0,1-.2-.91,2.91,2.91,0,0,1,.87.33,19.84,19.84,0,0,1,4,5.15A1.42,1.42,0,0,1,21.38,75.79Z"/><path class="cls-1" d="M63.15,88.55l.15.68c0-.21-.11-.41-.17-.63Z"/></g></g></svg>