<svg xmlns="http://www.w3.org/2000/svg" viewBox="0 0 122.14 64.58"><defs><style>.cls-1{fill:#fff;}</style></defs><title>Zeeplant10</title><g id="Laag_2" data-name="Laag 2"><g id="Laag_1-2" data-name="Laag 1"><path d="M41.63,38.93a1.23,1.23,0,0,1,.22-.88c.54-.84,1.52-1.12,2.21-1.76a.61.61,0,0,0,.2-.41c-.07-.33-.32-.39-.68-.26A31.42,31.42,0,0,0,35.79,39a13,13,0,0,0-5.1,3.33,3.89,3.89,0,0,1-.77.56,32,32,0,0,1-6.23,3.37,3.17,3.17,0,0,1,1-1.56,5.91,5.91,0,0,1,.8-.54,25.67,25.67,0,0,0,5.89-4.09,7.6,7.6,0,0,1,2-1.3c2-1,3.88-2.21,5.85-3.27a.5.5,0,0,0,.14-.42c0-.12-.17-.32-.25-.31-4.34.14-7.93,2.16-11.33,4.62a1.37,1.37,0,0,0-.34.34,38.42,38.42,0,0,1-3.57,3.87,1.31,1.31,0,0,0-.28,1.31c.14.45.39.88,0,1.33a3.58,3.58,0,0,1-2.32.34.84.84,0,0,1-.72-.54.92.92,0,0,1,.08-.89,4.28,4.28,0,0,1,.63-.72c.91-.89,1.81-1.8,2.75-2.66A19.71,19.71,0,0,0,26.74,39a7.79,7.79,0,0,1,1.41-1.27c.49-.4,1-.76,1.52-1.16a.83.83,0,0,0,.33-.86c-.09-.3-.42-.41-.77-.4a5.25,5.25,0,0,0-2.68.91c-1.6,1-3.16,2.17-4.77,3.19a4.29,4.29,0,0,1-1.38.32l.09.12a3.4,3.4,0,0,1,.4-.81c.53-.56,1.11-1.08,1.67-1.61a9.16,9.16,0,0,0,1-.94,1,1,0,0,0,.18-.84.67.67,0,0,0-.81-.31,28.38,28.38,0,0,0-5,2.32,3.66,3.66,0,0,1-1.35.16l.11.1c0-.47.1-.93.1-1.4s-.25-.55-.62-.61a3.34,3.34,0,0,0-1.88.13c-1.33.52-2.64,1.08-3.95,1.65-1,.45-2,1-3,1.42A5.16,5.16,0,0,1,5,39.7c-1.59-.05-3.17.21-4.76.08l.11.11a1,1,0,0,1,.32-.8c1.19-1,2.37-1.93,3.59-2.85.21-.16.56-.13.85-.19L5,36c.24.48,0,.9-.13,1.35a.85.85,0,0,0,1.1,1,11,11,0,0,0,1.77-.65,37.4,37.4,0,0,1,9.61-3.8.84.84,0,0,0,.35-.29,2.47,2.47,0,0,0-.57-.67,3.64,3.64,0,0,0-.87-.33,6.42,6.42,0,0,0-3.71-.28,16.19,16.19,0,0,1-3.7.74l.11.1a1.47,1.47,0,0,1,.78-1.1,8.66,8.66,0,0,1,1.28-.58c.6-.2,1.22-.32,1.82-.52a1,1,0,0,0,.57-.71.71.71,0,0,0-.21-.85c-.64-.46-1.33-.84-2-1.32A30.44,30.44,0,0,1,6,22.71a4.72,4.72,0,0,1-.88-3.14,1.87,1.87,0,0,1,2.06-1.48,10.68,10.68,0,0,1,3.31,1.81,34.27,34.27,0,0,1,5,5.63c.15.24.08.61.11.92l.1-.09a1.73,1.73,0,0,1-1.21-.64c-1.17-1.28-2.31-2.59-3.49-3.85a9.14,9.14,0,0,0-2.63-2,3.72,3.72,0,0,0-.9-.24c-.55-.12-1.26.66-1.14,1.19a4.28,4.28,0,0,0,1.1,2.05q1.8,1.88,3.66,3.69a4.14,4.14,0,0,0,1.15.81A38.08,38.08,0,0,1,16.76,30a2.35,2.35,0,0,0,1.82.19l.1.27-.22-.16a2.87,2.87,0,0,0-.28-.81c-.38-.47-.85-.86-1.22-1.32a2.9,2.9,0,0,1-.31-.81l-.09.1a1.54,1.54,0,0,1,.48,0,12.37,12.37,0,0,1,4.08,2.37c0-.37.05-.42.17-.16l-.32.06a2.13,2.13,0,0,0-.29-1.77,8.68,8.68,0,0,1-.75-1.18,8.34,8.34,0,0,1-.38-1.32l-.12.07a3.51,3.51,0,0,1,.83.38c1.08.93,2.11,1.91,3.19,2.83a11.12,11.12,0,0,0,3.18,2,.71.71,0,0,0,.85-.25c.26-.38.48-.8.72-1.2l-.1.1a1.55,1.55,0,0,1,.46.15,14.13,14.13,0,0,0,1.88,1.43,14.89,14.89,0,0,0,1.86.41c2.31.82,4.72.69,7.11.77.4,0,.63-.15.64-.5a.76.76,0,0,0-.17-.39c-.38-.51-.78-1-1.13-1.52-.08-.1,0-.31,0-.47l-.1.1a4.75,4.75,0,0,1,.93.15c.45.16.86.42,1.31.57a3.32,3.32,0,0,0,.94.12.76.76,0,0,0,.76-.45.56.56,0,0,0-.11-.45c-.85-1.15-1.74-2.28-2.56-3.45a1.74,1.74,0,0,1-.22-1.38l-.09.1a2.82,2.82,0,0,1,.84.32,7.83,7.83,0,0,1,.94,1.05c.41.48.8,1,1.22,1.44a8.46,8.46,0,0,0,6.62,3.07.63.63,0,0,0,.41-.17c.08-.09.16-.33.11-.39-.9-1.08-2-2-3-3-.64-.69-1.32-1.35-1.94-2.06a1.61,1.61,0,0,1-.36-1.31l-.1.07a2.18,2.18,0,0,1,.85.27c1.25,1.14,2.46,2.33,3.69,3.49A6.62,6.62,0,0,0,53,29.26s-.1.15-.1.15a2.06,2.06,0,0,0,0-1.32c-.5-1.1-1.06-2.17-1.51-3.28a4.42,4.42,0,0,1-.15-1.32l-.1.09a1,1,0,0,1,.82.39,13.59,13.59,0,0,1,1,1.6,16.6,16.6,0,0,0,1.76,2.84,6,6,0,0,0,3,2.21,23.13,23.13,0,0,0,4.16,1.08,1.66,1.66,0,0,0,1.37-.19c.24-.19,0-.8-.48-1.21-.25-.2-.52-.38-.75-.59-1.05-1-2.12-1.94-3.12-3a17.58,17.58,0,0,1-1.84-2.2,50.15,50.15,0,0,1-6.35-12.27,4.69,4.69,0,0,1-.2-1.4A1.78,1.78,0,0,1,52.74,9a4.17,4.17,0,0,1,.9.31,8.83,8.83,0,0,1,3.44,3.23c.24.41.49.82.7,1.25a48.35,48.35,0,0,0,3.9,6.57,24.52,24.52,0,0,1,2.76,5,8,8,0,0,0,3.8,4.14c1.94,1.08,3.91,2.12,5.77,3.36a.75.75,0,0,0,.45.12,3.07,3.07,0,0,0,.91-.19c.28-.12.3-.43.16-.79a2.81,2.81,0,0,1-.31-1.84l-.1.07a1.61,1.61,0,0,1,1.25.53c.7.63,1.06,1.58,1.94,2a.66.66,0,0,0,.46,0,.59.59,0,0,0,.46-.66A2.2,2.2,0,0,0,79,31.3c-.5-.8-1.09-1.55-1.57-2.36-1-1.63-1.88-3.29-2.78-4.94-.6-1.11-1.22-2.21-1.72-3.37-1-2.32-2.09-4.58-3.31-6.79a2.47,2.47,0,0,1-.12-.92l-.1.1a1.51,1.51,0,0,1,1.2.64,26.91,26.91,0,0,1,2.53,4.58c.42.86.73,1.76,1.11,2.64A11.79,11.79,0,0,0,75,22.59c1.33,2,2.5,4.06,3.75,6.08.92,1.49,1.94,2.91,3,4.33a4.66,4.66,0,0,0,1,.92A.92.92,0,0,0,84,33.6a1.85,1.85,0,0,0,.29-1.35,7.15,7.15,0,0,0-1.08-2.63,2,2,0,0,1-.34-1.35l-.1.1a1.45,1.45,0,0,1,1.25.51c.4.49.73,1,1.09,1.56a7.73,7.73,0,0,0,2.31,2.35.58.58,0,0,0,.44.07c.4-.14.4-.4.23-.78-1.36-3-2.72-6.06-4-9.12a5.25,5.25,0,0,1-.22-1.39l-.13.12a1.15,1.15,0,0,1,.8.44A19.81,19.81,0,0,1,87.1,27.2a23.05,23.05,0,0,0,2.68,5,6.81,6.81,0,0,0,1,1,.63.63,0,0,0,.44.07.61.61,0,0,0,.55-.61,2.68,2.68,0,0,0-.07-.94C90,26.32,88.4,20.84,86.75,15.39a20.84,20.84,0,0,0-1.63-3.94,4.77,4.77,0,0,1-.29-1.39l-.12.07a2,2,0,0,1,1.43,1.15,23.13,23.13,0,0,1,2.11,5.33C89,19.7,90.1,22.72,91,25.79a48.68,48.68,0,0,0,1.67,5,10.75,10.75,0,0,1,.55,7c-.34,1.24-.59,2.49-.91,3.73a7.2,7.2,0,0,1-.47,1.35,22.05,22.05,0,0,1-5.92,8q-1.68,1.35-3.34,2.74a10.13,10.13,0,0,0-1.42,1.27A67.41,67.41,0,0,1,75,61a5.22,5.22,0,0,0-.86,1.12.53.53,0,0,0,.27.8,1.69,1.69,0,0,0,1.37.12,21,21,0,0,0,6.76-3.53c.32-.28.89-.27,1.34-.39L83.74,59a3,3,0,0,1-.32.86,11.56,11.56,0,0,1-3.77,2.88c-1.15.53-2.29,1.13-3.48,1.57a4,4,0,0,1-4.06-.59,1.08,1.08,0,0,1-.25-1.28A11.27,11.27,0,0,1,73,60.89a22.39,22.39,0,0,1,1.81-1.55,31,31,0,0,0,4.78-4.66,5.64,5.64,0,0,1,1.38-1.29c2-1.3,3.62-3.11,5.48-4.61a3.51,3.51,0,0,0,.34-.33,22.21,22.21,0,0,0,4.4-7.31,3.46,3.46,0,0,0,0-1.4.51.51,0,0,0-.69-.46,4.41,4.41,0,0,0-.89.29A14.26,14.26,0,0,0,86.09,42a33.33,33.33,0,0,1-4,3.36c-.77.55-1.44,1.24-2.2,1.82a2.68,2.68,0,0,1-.88.29l.09.09a1.56,1.56,0,0,1,.38-1.3c.65-.68,1.32-1.34,2-2,.94-.83,1.93-1.61,2.87-2.43S86.42,40,87.45,39a.46.46,0,0,0,.06-.41c-.05-.12-.24-.29-.33-.27a9.4,9.4,0,0,0-3.75,1.87,15,15,0,0,1-3.56,2.29,4.32,4.32,0,0,1-.91.17l.11.1a1.92,1.92,0,0,1,1-1.53,53.23,53.23,0,0,0,4.55-3.49.87.87,0,0,0,.26-.39.71.71,0,0,0-.19-.83,3.41,3.41,0,0,0-1.83-.42,1.6,1.6,0,0,0-1.3.47,6.83,6.83,0,0,0-.6.73,6.66,6.66,0,0,1-2.15,1.87c-.28.15-.55.33-.84.46a12.1,12.1,0,0,0-3.52,2.43,23.93,23.93,0,0,1-3.71,3,21.06,21.06,0,0,0-2.23,1.79,68.5,68.5,0,0,1-7.32,5.34,1.38,1.38,0,0,1-.47.06l.09.09a2,2,0,0,1,.43-1.31,4.32,4.32,0,0,1,.65-.7c2.61-2.06,5.21-4.15,7.86-6.15a35.52,35.52,0,0,0,3.69-3,15,15,0,0,1,3.41-2.56,13.7,13.7,0,0,0,1.2-.78,8.3,8.3,0,0,0,.73-.6,1.48,1.48,0,0,0,.29-.37.7.7,0,0,0,0-.85.66.66,0,0,0-.85-.18c-2,1.26-3.85,2.8-6.16,3.53-1.91,1.15-3.81,2.3-5,4.33a8.45,8.45,0,0,1-.84,1.15,9.55,9.55,0,0,1-2.13,1.88,13.24,13.24,0,0,1-3.42,1.62,3.66,3.66,0,0,1-.94.05l.11.1a1.48,1.48,0,0,1,.75-1.13,23.2,23.2,0,0,1,2.07-1.15,7.32,7.32,0,0,0,2.85-2.44l.84-1.16a12.47,12.47,0,0,1,4.21-3.76,8.12,8.12,0,0,0,2.32-1.63.69.69,0,0,0,.16-.43c0-.3-.24-.49-.61-.48a2.65,2.65,0,0,0-.93.12A55.46,55.46,0,0,0,58,43.28a27.74,27.74,0,0,0-3.16,2.87,2.77,2.77,0,0,1-.84.36l.09.1a1.84,1.84,0,0,1,.29-1.36,13.64,13.64,0,0,1,3.73-3.65A44.56,44.56,0,0,1,62.68,39c.71-.35,1.41-.73,2.1-1.13a2.44,2.44,0,0,0,.93-1.05c.19-.4.1-.64-.34-.7a6.82,6.82,0,0,0-4.14.75,29.24,29.24,0,0,1-3.9,1.79,6.39,6.39,0,0,1-1.4.16l.1.1a1.2,1.2,0,0,1,.36-.85c.9-.94,2.31-1.13,3.17-2.11a.57.57,0,0,0-.05-.8.73.73,0,0,0-.42-.21,3.79,3.79,0,0,0-1,0,18.57,18.57,0,0,0-7.26,2.27,5.72,5.72,0,0,0-1.54,1.13,28.77,28.77,0,0,1-5.23,4.17,30.89,30.89,0,0,0-6.55,5.57c-.18.21-.56.24-.85.35l.11.12a3.28,3.28,0,0,1,.22-.91,12.11,12.11,0,0,1,3.34-3.95c1.64-1.23,3.27-2.5,5-3.63a13.28,13.28,0,0,0,2.9-2.42,10.32,10.32,0,0,1,3.48-2.41c.85-.42,1.74-.75,2.59-1.17.41-.2.42-.48.07-.64a.77.77,0,0,0-.44-.1,13.39,13.39,0,0,0-4.39,1.63,69.18,69.18,0,0,1-6.67,3.6,6.81,6.81,0,0,1-1.37.3ZM64,29.74a2.08,2.08,0,0,0,.31-1.37,6,6,0,0,0-.32-.9,28.59,28.59,0,0,0-4.64-8.34,10.78,10.78,0,0,1-1.24-2c-.6-1.13-1.12-2.3-1.72-3.43a7.31,7.31,0,0,0-2.56-2.79,3.27,3.27,0,0,0-.9-.29c-.38-.11-.6.05-.75.42a2.52,2.52,0,0,0,0,1.87A49.46,49.46,0,0,0,57.47,23a19.21,19.21,0,0,0,5.32,5.46,3.69,3.69,0,0,1,1.34,1.32l.13-.18Zm4.87,4.68c.09.1.16.24.28.3a.49.49,0,0,0,.73-.17c0-.07-.07-.27-.16-.37a.53.53,0,0,0-.75-.13C68.91,34.11,68.92,34.29,68.89,34.42Z"/><path d="M97.19,27.47a1.8,1.8,0,0,1,.75,1.16c.17,1.59.29,3.17.47,4.75a11.8,11.8,0,0,0,.38,1.86,1.3,1.3,0,0,0,1,.94,34.18,34.18,0,0,0,6.16.57c2.9-.19,5.67.66,8.42,1.44a2.72,2.72,0,0,1,1.51,1.12,2.37,2.37,0,0,1,.19.88l.11-.11a10.32,10.32,0,0,0-4.39-1.54,22.75,22.75,0,0,0-7-.8,40.38,40.38,0,0,0-5.16,0,2.12,2.12,0,0,0-1.52,1,8,8,0,0,1-.57.73,2.6,2.6,0,0,1-.36.3l.11.13A9.39,9.39,0,0,0,96.94,38a3.94,3.94,0,0,1,.11-3.19,6.16,6.16,0,0,0,.37-2.79,23.3,23.3,0,0,1-.11-4.72Z"/><path d="M70.41,24.43a2.39,2.39,0,0,1-.85-.32,10.59,10.59,0,0,1-1.64-1.71c-1.2-1.67-2.33-3.39-3.46-5.1A10.64,10.64,0,0,1,62.61,12c-.06-1.1-.24-2.19-.36-3.29-.08-.65.63-1.3,1.17-1.08a6.06,6.06,0,0,0,.86.4,8.41,8.41,0,0,1,4.79,3.66,1.13,1.13,0,0,1,.2.43c0,.3.06.61.09.92l.1-.1a2.83,2.83,0,0,1-.85-.36c-.81-.74-1.55-1.57-2.4-2.26A2.86,2.86,0,0,0,64.87,10c-.36,0-1,.51-1,.86a4.53,4.53,0,0,0,0,1.87,12.71,12.71,0,0,0,1.74,4.36,46.22,46.22,0,0,0,3.56,5,8.75,8.75,0,0,1,1.06,1.56,2.63,2.63,0,0,1,.15.91Z"/><path d="M40.65,17.69a1.2,1.2,0,0,1-.44-.14,6.6,6.6,0,0,1-2.17-4c-.07-.38.5-.89.92-.86a8.66,8.66,0,0,1,2.73.65c1.15.5,2.25,1.13,3.36,1.72a3.09,3.09,0,0,1,.76.54A27.69,27.69,0,0,1,51,22.2a2,2,0,0,1,.09,1.38l.1-.09c-.27-.14-.64-.2-.8-.42-.74-1-1.37-2.11-2.15-3.09s-1.7-1.86-2.54-2.8a9,9,0,0,0-4-2.4,1.73,1.73,0,0,0-.93,0,.66.66,0,0,0-.51.68c0,.78.16,1.55.24,2.32Z"/><path d="M53.05,47.48a2.62,2.62,0,0,1-1.38,2.35,8,8,0,0,1-6.3,1.43.83.83,0,0,1-.45-1.12,20.72,20.72,0,0,1,1.74-2.82c1.34-1.58,2.54-3.25,3.72-4.94a6.89,6.89,0,0,1,1-1,2,2,0,0,1,1.74-.52l-.08-.1c0,.15,0,.36-.12.46A71.37,71.37,0,0,0,47.74,48a3.89,3.89,0,0,0-.36.86c-.15.34.36,1,.72,1A4.74,4.74,0,0,0,50.76,49c.52-.37,1-.83,1.49-1.19a2.65,2.65,0,0,1,.88-.23Z"/><path d="M19.55,25.41c-.26-.16-.61-.25-.78-.48A15.39,15.39,0,0,1,16,19a3.7,3.7,0,0,1,0-.94,1.34,1.34,0,0,1,1.77-1,16.93,16.93,0,0,1,5.95,4.58,9.2,9.2,0,0,1,1.06,1.57,6.71,6.71,0,0,1,.36,1.35l.12-.07c-.28-.12-.65-.17-.82-.38a26,26,0,0,0-4-4,5.11,5.11,0,0,0-2-1.13c-.39-.09-.61,0-.73.38a2,2,0,0,0,0,1.37c.5,1.16,1.07,2.28,1.54,3.44a5.67,5.67,0,0,1,.16,1.38Z"/><path d="M29.14,18.66a1,1,0,0,1-.84-.34,6.53,6.53,0,0,1-.81-1.16,7.74,7.74,0,0,1-.94-2.67,1.8,1.8,0,0,1,.27-.87,1.21,1.21,0,0,1,1.27-.41,13.13,13.13,0,0,1,2.58,1.17A36.21,36.21,0,0,1,36.13,19a1.94,1.94,0,0,1,.58,1.72l.11-.08a2.94,2.94,0,0,1-.86-.32C34.27,18.87,32.6,17.44,30.9,16a7.2,7.2,0,0,0-1.2-.72,2.26,2.26,0,0,0-.45-.1c-.44-.12-.9.39-.88.85,0,1,.86,1.7.67,2.69Z"/><path d="M58.79,54.19a2.4,2.4,0,0,1-.11.9,13.5,13.5,0,0,1-1.06,1.57,1.68,1.68,0,0,1-1.63.73c-1.09-.18-2.16-.45-3.23-.69a1.45,1.45,0,0,1-.65-1.17,3.1,3.1,0,0,1,.11-.46,9.52,9.52,0,0,1,2.5-3.41,21.44,21.44,0,0,1,4.24-3,3,3,0,0,1,.92-.13l-.11-.1a3.28,3.28,0,0,1-.38.85,7.41,7.41,0,0,1-1.06.95c-.89.68-1.8,1.31-2.68,2a5.45,5.45,0,0,0-1.5,1.83,1.35,1.35,0,0,0,1,1.81,2.12,2.12,0,0,0,1.81-.33c.38-.29.71-.65,1.1-.92a4.65,4.65,0,0,1,.86-.33Z"/><path d="M20.4,39.77a2.64,2.64,0,0,1-.34.84c-1,1-6.83,5.5-8.52,6.63a3.29,3.29,0,0,1-.44.16c-.3.14-1.12-.26-1.14-.6A3.72,3.72,0,0,1,10,45.42a10,10,0,0,1,2-3.17,2.52,2.52,0,0,1,.8-.41l-.11-.12A5.42,5.42,0,0,1,12.1,44a.61.61,0,0,0,.05.44.62.62,0,0,0,.85.2,32.68,32.68,0,0,0,4.61-3.24,9.14,9.14,0,0,1,2-1.26,3.69,3.69,0,0,1,.9-.2Z"/><path d="M38.75,29.23a2.4,2.4,0,0,1-.91-.1,17.91,17.91,0,0,1-5-4.21,52.61,52.61,0,0,1-3.4-4.47,2.31,2.31,0,0,1-.33-1.79l-.1.09c.27.14.64.21.79.42C31,20.85,32.27,22.43,33.56,24a15.11,15.11,0,0,0,2.68,2.62,9.6,9.6,0,0,1,2.13,1.84,2.9,2.9,0,0,1,.28.86Z"/><path d="M89.5,9.2a3,3,0,0,1,.78.48,12.86,12.86,0,0,1,2.28,3.65,64.3,64.3,0,0,0,3.16,6.46,5.06,5.06,0,0,1,.51,2.79l.12,0c-.22-.21-.53-.38-.66-.64a35.54,35.54,0,0,0-2.66-5,6.31,6.31,0,0,1-.62-1.28c-.74-1.75-1.6-3.44-2.49-5.12a5.05,5.05,0,0,1-.3-1.38Z"/><path d="M68.39,57.07a1.65,1.65,0,0,1-.53,1.25,4.1,4.1,0,0,1-2,1.09.94.94,0,0,1-1-.77,5.86,5.86,0,0,1,.06-.94c.14-.61.38-1.19.51-1.81a7.46,7.46,0,0,1,2-3.69c.43-.46.81-1,1.27-1.39a2.74,2.74,0,0,1,.84-.34l-.11-.12a6.2,6.2,0,0,1-.44,1.32c-.66,1.07-1.41,2.09-2.09,3.15a3.15,3.15,0,0,0-.27.9,1.16,1.16,0,0,0,1,1.28c.31,0,.61.12.92.18Z"/><path d="M84.83,10.06c-.13-.08-.32-.14-.39-.26a57.64,57.64,0,0,1-3-5.94A3.19,3.19,0,0,1,82,.31.85.85,0,0,1,83.24.24a1.34,1.34,0,0,1,.5,1.24l.1-.11a8,8,0,0,0-.78.51,1.24,1.24,0,0,0-.55,1.2A8,8,0,0,0,83,4.88c.47,1.15,1,2.26,1.53,3.41a3.8,3.8,0,0,1,.2,1.84Z"/><path d="M79,47.47a2.68,2.68,0,0,1-.17.91,32.64,32.64,0,0,1-4.75,5.92,8.16,8.16,0,0,1-2.33,1.61,2.29,2.29,0,0,1-1.39.2l.07.1c.13-.27.19-.65.4-.79a22.86,22.86,0,0,0,5.32-5.16c.58-.71,1.11-1.49,1.7-2.2a1.49,1.49,0,0,1,1.24-.5Z"/><path d="M32,50.33a1.56,1.56,0,0,1-.7-1.12,3.72,3.72,0,0,1,1.06-3.39c1.2-1.2,2.46-2.33,3.7-3.48a2.17,2.17,0,0,1,1.71-.53l-.07-.1c-.09.28-.1.65-.29.83A32.06,32.06,0,0,1,33.71,46a6.4,6.4,0,0,0-1,.95A2.58,2.58,0,0,0,32,48.62c0,.61,0,1.23-.05,1.84Z"/><path d="M77.14,19.6A1.75,1.75,0,0,1,76,18.84a20.3,20.3,0,0,1-1.49-2.32c-.69-1.37-1.3-2.79-1.92-4.2a3.81,3.81,0,0,1-.27-2.26l-.12,0c.24.2.58.34.7.59,1.27,2.73,2.55,5.45,4,8.09a2.78,2.78,0,0,1,.09.93Z"/><path d="M116.07,40.19c.29-.09.62-.3.89-.25a9.28,9.28,0,0,1,5.13,2.13.39.39,0,0,1,0,.38c-.07.11-.27.23-.37.2a22.19,22.19,0,0,1-5.54-2.58Z"/><path d="M72.35,10.06a1.51,1.51,0,0,1-.77-1.12,18.88,18.88,0,0,1,.1-4.75,2.28,2.28,0,0,1,.47-.8.94.94,0,0,1,1.28-.18,1.31,1.31,0,0,1,.7,1.14l.12-.1c-.28.16-.55.33-.83.48a1.79,1.79,0,0,0-.82,1.12,6.07,6.07,0,0,0-.26,1.4c-.07.95-.08,1.91-.11,2.86Z"/><path d="M80.88,14c.23.19.57.33.69.57a37.66,37.66,0,0,1,2.2,6.19,3.25,3.25,0,0,1,0,.93l.13-.12a2.78,2.78,0,0,1-.72-.58A14.77,14.77,0,0,1,81,14.35a2.53,2.53,0,0,1,0-.47Z"/><path d="M91.42,49.38a2.46,2.46,0,0,1-.17.91c-.92,1.48-1.88,2.94-2.84,4.4a1,1,0,0,1-.8.44l.09.11a2.88,2.88,0,0,1,.07-.89,13.64,13.64,0,0,1,2.59-4.25,2,2,0,0,1,1.18-.62Z"/><path d="M44.5,23.49c-.27-.12-.63-.17-.78-.37-1-1.35-1.93-2.71-2.81-4.12a3.86,3.86,0,0,1-.26-1.31l-.1.11c.28.11.63.14.81.34a16.2,16.2,0,0,1,3,4.53,2.39,2.39,0,0,1,0,.89Z"/><path d="M75.22,30.21c-.15,0-.34,0-.44-.12a15.74,15.74,0,0,1-3.26-3.83,2.07,2.07,0,0,1-.12-.88l-.12.1a1.67,1.67,0,0,1,.45.13A8.23,8.23,0,0,1,74.85,29a2.2,2.2,0,0,1,.27,1.33Z"/><path d="M87.61,55.13a3.06,3.06,0,0,1-.18.87A8,8,0,0,1,85,58.69a1.77,1.77,0,0,1-1.29.29l.11.11c0-.15,0-.35.13-.45,1-1,1.9-2.07,2.88-3.06.2-.2.56-.23.84-.34Z"/><path d="M78,9.2a1.38,1.38,0,0,1,.43.17,9.06,9.06,0,0,1,2.31,3.3A4.06,4.06,0,0,1,80.88,14l.11-.12c-.14-.05-.33-.05-.42-.15a8.92,8.92,0,0,1-2.45-4.2,1.76,1.76,0,0,1,0-.46Z"/><path d="M80,24.43a1.48,1.48,0,0,1-1.11-.69,15.06,15.06,0,0,1-1.67-3.24,3.77,3.77,0,0,1-.09-.9l-.11.12a1.58,1.58,0,0,1,1.06.77c.61,1,1.21,2.08,1.77,3.15a2.11,2.11,0,0,1,.06.88Z"/><path d="M25.19,24.51a1.6,1.6,0,0,1,.42.17A11.66,11.66,0,0,1,28,28.46a2.6,2.6,0,0,1,.08.89l.1-.1a1.43,1.43,0,0,1-1.13-.69,30.89,30.89,0,0,1-1.63-2.77,4,4,0,0,1-.13-1.35Z"/><path d="M37.76,41.81a1.5,1.5,0,0,1,.13-.44A8,8,0,0,1,40.73,39a2.63,2.63,0,0,1,.9-.09l-.1-.1a1.3,1.3,0,0,1-.09.46,5.58,5.58,0,0,1-3.29,2.43,1.78,1.78,0,0,1-.46,0Z"/><path d="M36.71,20.68c.16,0,.34,0,.46.08a6.38,6.38,0,0,1,2.44,3.31,1.48,1.48,0,0,1,0,.47l.09-.1a2.65,2.65,0,0,1-.86-.29,6.29,6.29,0,0,1-1.92-2.63,3.42,3.42,0,0,1-.1-.92Z"/><path d="M71.4,48.53a1.56,1.56,0,0,1,.11-.45,6.43,6.43,0,0,1,3.26-2.38,1.4,1.4,0,0,1,.46,0l-.11-.13A1.55,1.55,0,0,1,75,46a6.4,6.4,0,0,1-2.8,2.32,3.76,3.76,0,0,1-.9.12Z"/><path d="M75.12,5.36A5.26,5.26,0,0,1,78,8.75a1.68,1.68,0,0,1,0,.45l.11-.13a3,3,0,0,1-.8-.38,8.43,8.43,0,0,1-1.89-2.58,3.63,3.63,0,0,1-.19-.88Z"/><path d="M5.11,36.05a2.67,2.67,0,0,1,.28-.88,7.28,7.28,0,0,1,2.23-1.78A2.05,2.05,0,0,1,9,33.17l-.11-.1a1.09,1.09,0,0,1-.14.43,14.41,14.41,0,0,1-2.84,2.32c-.22.15-.58.1-.87.14Z"/><path d="M96.23,22.58a1.87,1.87,0,0,1,.69,1.16,15.56,15.56,0,0,1,.27,3.73l.12-.13a1.73,1.73,0,0,1-.74-1.12c-.1-1.23-.15-2.46-.22-3.69Z"/><path d="M95.26,42.68c0,1.43-.9,2.43-1.53,3.57-.06.12-.25.16-.37.23l.11.12A4.28,4.28,0,0,1,95,42.93a1.11,1.11,0,0,1,.43-.17Z"/><path d="M12.82,41.84a2.21,2.21,0,0,1,.88-2,3.16,3.16,0,0,1,2-.94l-.09-.11a2.62,2.62,0,0,1-.28.87,6.73,6.73,0,0,1-2.61,2Z"/><path d="M97.21,39.75a3.86,3.86,0,0,1-1.51,2.77,1.21,1.21,0,0,1-.44.16l.13.08A3.42,3.42,0,0,1,96.88,40a1.42,1.42,0,0,1,.44-.14Z"/><path d="M86.66,4.39a3.78,3.78,0,0,1,1.89,2.84l.12-.07c-.15,0-.34,0-.44-.14a3.45,3.45,0,0,1-1.48-2.76Z"/><path d="M81.93,27.3a1.2,1.2,0,0,1-.44-.14A3.91,3.91,0,0,1,80,24.89a2.37,2.37,0,0,1,0-.46l-.09.09a2.24,2.24,0,0,1,.78.25,2.8,2.8,0,0,1,1.13,2.64Z"/><path d="M76.2,44.67a3.3,3.3,0,0,1,2.87-1.9l-.11-.1a1.79,1.79,0,0,1-.83,1.44,2.68,2.68,0,0,1-2,.46Z"/><path d="M53.13,40.85c0-.15,0-.35.1-.46A3,3,0,0,1,56,38.93l-.1-.1c0,.15,0,.34-.12.45a3.32,3.32,0,0,1-2.76,1.47Z"/><path d="M36.71,48.41c-.23,1.47-.46,1.7-1.88,1.94l.07.1a2.14,2.14,0,0,1,.2-.79,2.32,2.32,0,0,1,1.72-1.13Z"/><path d="M69.47,50.47c.23-1.44.42-1.62,1.93-1.94l-.12-.11a2.3,2.3,0,0,1-1.92,1.93Z"/><path d="M34.83,50.35a1.39,1.39,0,0,1-1.44,1,1.24,1.24,0,0,1-1.4-1l-.08.13h3Z"/><path d="M83.74,1.48c1.39.23,1.58.42,1.93,1.92l.11-.09a2,2,0,0,1-1.94-1.94Z"/><path d="M93.36,46.48a1.73,1.73,0,0,1-1,1.94l.1.11a7.74,7.74,0,0,1,.1-1.19,1,1,0,0,1,.86-.74Z"/><path d="M88.55,7.23c1,.36,1.07,1.11,1,2l.12-.12a1,1,0,0,1-.72-.55,2.24,2.24,0,0,1-.23-1.37Z"/><path d="M70.33,56.11a1,1,0,0,1-.73.87,6.11,6.11,0,0,1-1.21.09l.09.11a1.18,1.18,0,0,1,1.11-1,4.41,4.41,0,0,1,.81.05Z"/><path d="M.24,39.78l-.06.34c-.29-.15-.23-.23.17-.23Z"/><path d="M15.69,38.94a.92.92,0,0,1,1-1l-.11-.1c-.15.81-.15.81-1,1Z"/><path d="M15.6,26.45c.85.08.88.11,1,1l.09-.1c-.84-.11-.84-.11-.95-.95Z"/><path d="M54,46.51c-.13.87-.13.87-1,1l.08.08c.1-.86.12-.88,1-1Z"/><path d="M59.76,53.23c-.08.85-.11.88-1,1l.09.09c.15-.81.15-.81,1-1Z"/><path d="M60.72,52.27c-.09.86-.12.89-1,1l.09.09c.14-.82.14-.82,1-1Z"/><path d="M71.4,25.38c-.83-.07-.83-.08-1-.95l-.09.1c.77.12.77.12,1,.95Z"/><path d="M74.13,4.35c.66,0,.94.4,1,1l.11-.13a.92.92,0,0,1-1-1Z"/><path d="M75.23,45.68a1,1,0,0,1,1-1l-.12-.1c0,.63-.38.9-1,1Z"/><path d="M82.91,28.27c-.67,0-1-.34-1-1l-.1.11a.85.85,0,0,1,1,1Z"/><path d="M85.67,3.4a1.07,1.07,0,0,1,1,1l.09-.13c-.8-.13-.8-.13-1-.95Z"/><path d="M92.41,48.42c-.23.86-.23.86-1,1l.12.1c0-.59.29-1,1-.95Z"/><path class="cls-1" d="M92.51,48.53c-.68-.05-.92.36-1,.95a2,2,0,0,0-1.18.62,13.64,13.64,0,0,0-2.59,4.25,2.88,2.88,0,0,0-.07.89c-.28.11-.64.14-.84.34-1,1-1.93,2-2.88,3.06-.09.1-.09.3-.13.45-.45.12-1,.11-1.34.39A21,21,0,0,1,75.75,63a1.69,1.69,0,0,1-1.37-.12.53.53,0,0,1-.27-.8A5.22,5.22,0,0,1,75,61a67.41,67.41,0,0,0,6.15-6,10.13,10.13,0,0,1,1.42-1.27q1.67-1.39,3.34-2.74a22.05,22.05,0,0,0,5.92-8,7.2,7.2,0,0,0,.47-1.35c.32-1.24.57-2.49.91-3.73a10.75,10.75,0,0,0-.55-7,48.68,48.68,0,0,1-1.67-5c-.86-3.07-1.93-6.09-2.71-9.18a23.13,23.13,0,0,0-2.11-5.33,2,2,0,0,0-1.43-1.15,3.8,3.8,0,0,0-.2-1.84C84,7.14,83.45,6,83,4.88a8,8,0,0,1-.47-1.8,1.24,1.24,0,0,1,.55-1.2,8,8,0,0,1,.78-.51,2,2,0,0,0,1.94,1.94c.17.82.17.82,1,.95A3.45,3.45,0,0,0,88.23,7c.1.1.29.09.44.14a2.24,2.24,0,0,0,.23,1.37,1,1,0,0,0,.72.55,5.05,5.05,0,0,0,.3,1.38c.89,1.68,1.75,3.37,2.49,5.12A6.31,6.31,0,0,0,93,16.86a35.54,35.54,0,0,1,2.66,5c.13.26.44.43.66.64.07,1.23.12,2.46.22,3.69a1.73,1.73,0,0,0,.74,1.12,23.3,23.3,0,0,0,.11,4.72,6.16,6.16,0,0,1-.37,2.79A3.94,3.94,0,0,0,96.94,38a9.39,9.39,0,0,1,.38,1.84,1.42,1.42,0,0,0-.44.14,3.42,3.42,0,0,0-1.49,2.74,1.11,1.11,0,0,0-.43.17,4.28,4.28,0,0,0-1.49,3.67,1,1,0,0,0-.86.74A7.74,7.74,0,0,0,92.51,48.53Z"/><path class="cls-1" d="M82.81,28.37a.85.85,0,0,0-1-1,2.8,2.8,0,0,0-1.13-2.64,2.24,2.24,0,0,0-.78-.25,2.11,2.11,0,0,0-.06-.88c-.56-1.07-1.16-2.11-1.77-3.15A1.58,1.58,0,0,0,77,19.72a2.78,2.78,0,0,0-.09-.93c-1.46-2.64-2.74-5.36-4-8.09-.12-.25-.46-.39-.7-.59,0-.95,0-1.91.11-2.86a6.07,6.07,0,0,1,.26-1.4,1.79,1.79,0,0,1,.82-1.12c.28-.15.55-.32.83-.48a.92.92,0,0,0,1,1,3.63,3.63,0,0,0,.19.88,8.43,8.43,0,0,0,1.89,2.58,3,3,0,0,0,.8.38,1.76,1.76,0,0,0,0,.46,8.92,8.92,0,0,0,2.45,4.2c.09.1.28.1.42.15a2.53,2.53,0,0,0,0,.47A14.77,14.77,0,0,0,83.15,21a2.78,2.78,0,0,0,.72.58A5.25,5.25,0,0,0,84.09,23c1.32,3.06,2.68,6.09,4,9.12.17.38.17.64-.23.78a.58.58,0,0,1-.44-.07,7.73,7.73,0,0,1-2.31-2.35c-.36-.53-.69-1.07-1.09-1.56A1.45,1.45,0,0,0,82.81,28.37Z"/><path class="cls-1" d="M71.28,25.48c-.19-.83-.19-.83-1-.95a2.63,2.63,0,0,0-.15-.91,8.75,8.75,0,0,0-1.06-1.56,46.22,46.22,0,0,1-3.56-5,12.71,12.71,0,0,1-1.74-4.36,4.53,4.53,0,0,1,0-1.87c.07-.35.66-.9,1-.86a2.86,2.86,0,0,1,1.34.33c.85.69,1.59,1.52,2.4,2.26a2.83,2.83,0,0,0,.85.36,2.47,2.47,0,0,0,.12.92c1.22,2.21,2.31,4.47,3.31,6.79.5,1.16,1.12,2.26,1.72,3.37.9,1.65,1.82,3.31,2.78,4.94.48.81,1.07,1.56,1.57,2.36a2.2,2.2,0,0,1,.27.89.59.59,0,0,1-.46.66.66.66,0,0,1-.46,0c-.88-.45-1.24-1.4-1.94-2a1.61,1.61,0,0,0-1.25-.53A2.2,2.2,0,0,0,74.85,29a8.23,8.23,0,0,0-3.12-3.34A1.67,1.67,0,0,0,71.28,25.48Z"/><path class="cls-1" d="M75.12,45.55c.58-.08.95-.35,1-1a2.68,2.68,0,0,0,2-.46A1.79,1.79,0,0,0,79,42.67a4.32,4.32,0,0,0,.91-.17,15,15,0,0,0,3.56-2.29,9.4,9.4,0,0,1,3.75-1.87c.09,0,.28.15.33.27a.46.46,0,0,1-.06.41c-1,1-2.06,1.92-3.11,2.85s-1.93,1.6-2.87,2.43c-.71.62-1.38,1.28-2,2a1.56,1.56,0,0,0-.38,1.3,1.49,1.49,0,0,0-1.24.5c-.59.71-1.12,1.49-1.7,2.2a22.86,22.86,0,0,1-5.32,5.16c-.21.14-.27.52-.4.79a4.41,4.41,0,0,0-.81-.05,1.18,1.18,0,0,0-1.11,1c-.31-.06-.61-.14-.92-.18a1.16,1.16,0,0,1-1-1.28,3.15,3.15,0,0,1,.27-.9c.68-1.06,1.43-2.08,2.09-3.15a6.2,6.2,0,0,0,.44-1.32,2.3,2.3,0,0,0,1.92-1.93,3.76,3.76,0,0,0,.9-.12A6.4,6.4,0,0,0,75,46,1.55,1.55,0,0,0,75.12,45.55Z"/><path class="cls-1" d="M60.81,52.36c-.82.14-.82.14-1,1-.81.15-.81.15-1,1a4.65,4.65,0,0,0-.86.33c-.39.27-.72.63-1.1.92a2.12,2.12,0,0,1-1.81.33,1.35,1.35,0,0,1-1-1.81,5.45,5.45,0,0,1,1.5-1.83c.88-.69,1.79-1.32,2.68-2a7.41,7.41,0,0,0,1.06-.95,3.28,3.28,0,0,0,.38-.85,3.66,3.66,0,0,0,.94-.05,13.24,13.24,0,0,0,3.42-1.62,9.55,9.55,0,0,0,2.13-1.88,8.45,8.45,0,0,0,.84-1.15c1.15-2,3.05-3.18,5-4.33,2.31-.73,4.15-2.27,6.16-3.53a.66.66,0,0,1,.85.18.7.7,0,0,1,0,.85,1.48,1.48,0,0,1-.29.37,8.3,8.3,0,0,1-.73.6,13.7,13.7,0,0,1-1.2.78,15,15,0,0,0-3.41,2.56,35.52,35.52,0,0,1-3.69,3c-2.65,2-5.25,4.09-7.86,6.15a4.32,4.32,0,0,0-.65.7A2,2,0,0,0,60.81,52.36Z"/><path class="cls-1" d="M64.13,29.84a3.59,3.59,0,0,0-1.34-1.34A19.21,19.21,0,0,1,57.47,23a49.46,49.46,0,0,1-5.31-10.17,2.52,2.52,0,0,1,0-1.87c.15-.37.37-.53.75-.42a3.27,3.27,0,0,1,.9.29,7.31,7.31,0,0,1,2.56,2.79c.6,1.13,1.12,2.3,1.72,3.43a10.78,10.78,0,0,0,1.24,2A28.59,28.59,0,0,1,64,27.47a6,6,0,0,1,.32.9A2.08,2.08,0,0,1,64,29.74Z"/><path class="cls-1" d="M54.1,46.61c-.85.07-.87.09-1,1a2.65,2.65,0,0,0-.88.23c-.53.36-1,.82-1.49,1.19a4.74,4.74,0,0,1-2.66.89c-.36,0-.87-.69-.72-1a3.89,3.89,0,0,1,.36-.86,71.37,71.37,0,0,1,5.19-6.77c.1-.1.09-.31.12-.46a3.32,3.32,0,0,0,2.76-1.47c.09-.11.08-.3.12-.45a6.39,6.39,0,0,0,1.4-.16,29.24,29.24,0,0,0,3.9-1.79,6.82,6.82,0,0,1,4.14-.75c.44.06.53.3.34.7a2.44,2.44,0,0,1-.93,1.05c-.69.4-1.39.78-2.1,1.13a44.56,44.56,0,0,0-4.56,2.59,13.64,13.64,0,0,0-3.73,3.65A1.84,1.84,0,0,0,54.1,46.61Z"/><path class="cls-1" d="M44.4,23.56a2.39,2.39,0,0,0,0-.89,16.2,16.2,0,0,0-3-4.53c-.18-.2-.53-.23-.81-.34-.08-.77-.19-1.54-.24-2.32a.66.66,0,0,1,.51-.68,1.73,1.73,0,0,1,.93,0,9,9,0,0,1,4,2.4c.84.94,1.76,1.81,2.54,2.8s1.41,2.08,2.15,3.09c.16.22.53.28.8.42a4.42,4.42,0,0,0,.15,1.32c.45,1.11,1,2.18,1.51,3.28a2.06,2.06,0,0,1,0,1.32l.09-.14a6.68,6.68,0,0,1-4.08-1.95c-1.23-1.16-2.44-2.35-3.69-3.49A2.18,2.18,0,0,0,44.4,23.56Z"/><path class="cls-1" d="M34.9,50.45h-3c0-.61,0-1.23.05-1.84A2.58,2.58,0,0,1,32.71,47a6.4,6.4,0,0,1,1-.95,32.06,32.06,0,0,0,3.69-3.49c.19-.18.2-.55.29-.83a1.78,1.78,0,0,0,.46,0,5.58,5.58,0,0,0,3.29-2.43,1.3,1.3,0,0,0,.09-.46,6.81,6.81,0,0,0,1.37-.3,69.18,69.18,0,0,0,6.67-3.6A13.39,13.39,0,0,1,54,33.3a.77.77,0,0,1,.44.1c.35.16.34.44-.07.64-.85.42-1.74.75-2.59,1.17a10.32,10.32,0,0,0-3.48,2.41A13.28,13.28,0,0,1,45.36,40c-1.71,1.13-3.34,2.4-5,3.63A12.11,12.11,0,0,0,37,47.62a3.28,3.28,0,0,0-.22.91,2.32,2.32,0,0,0-1.72,1.13A2.14,2.14,0,0,0,34.9,50.45Z"/><path class="cls-1" d="M36.82,20.6a3.42,3.42,0,0,0,.1.92,6.29,6.29,0,0,0,1.92,2.63,2.65,2.65,0,0,0,.86.29,1.74,1.74,0,0,0,.22,1.38c.82,1.17,1.71,2.3,2.56,3.45a.56.56,0,0,1,.11.45.76.76,0,0,1-.76.45,3.32,3.32,0,0,1-.94-.12c-.45-.15-.86-.41-1.31-.57a4.75,4.75,0,0,0-.93-.15,2.9,2.9,0,0,0-.28-.86,9.6,9.6,0,0,0-2.13-1.84A15.11,15.11,0,0,1,33.56,24c-1.29-1.58-2.57-3.16-3.73-4.84-.15-.21-.52-.28-.79-.42.19-1-.63-1.74-.67-2.69,0-.46.44-1,.88-.85a2.26,2.26,0,0,1,.45.1,7.2,7.2,0,0,1,1.2.72c1.7,1.41,3.37,2.84,5.06,4.25A2.94,2.94,0,0,0,36.82,20.6Z"/><path class="cls-1" d="M25.31,24.44a4,4,0,0,0,.13,1.35,30.89,30.89,0,0,0,1.63,2.77,1.43,1.43,0,0,0,1.13.69c-.24.4-.46.82-.72,1.2a.71.71,0,0,1-.85.25,11.12,11.12,0,0,1-3.18-2c-1.08-.92-2.11-1.9-3.19-2.83a3.51,3.51,0,0,0-.83-.38,5.67,5.67,0,0,0-.16-1.38c-.47-1.16-1-2.28-1.54-3.44a2,2,0,0,1,0-1.37c.12-.38.34-.47.73-.38a5.11,5.11,0,0,1,2,1.13,26,26,0,0,1,4,4C24.66,24.27,25,24.32,25.31,24.44Z"/><path class="cls-1" d="M23.68,46.27c.35-.45.1-.88,0-1.33a1.31,1.31,0,0,1,.28-1.31,38.42,38.42,0,0,0,3.57-3.87,1.37,1.37,0,0,1,.34-.34c3.4-2.46,7-4.48,11.33-4.62.08,0,.24.19.25.31a.5.5,0,0,1-.14.42c-2,1.06-3.82,2.31-5.85,3.27a7.6,7.6,0,0,0-2,1.3,25.67,25.67,0,0,1-5.89,4.09,5.91,5.91,0,0,0-.8.54,3.17,3.17,0,0,0-1,1.56Z"/><path class="cls-1" d="M15.7,26.36c.11.84.11.84.95.95a2.9,2.9,0,0,0,.31.81c.37.46.84.85,1.22,1.32a2.87,2.87,0,0,1,.28.81l.12-.11A2.35,2.35,0,0,1,16.76,30a38.08,38.08,0,0,0-4.52-2.57,4.14,4.14,0,0,1-1.15-.81q-1.86-1.82-3.66-3.69a4.28,4.28,0,0,1-1.1-2.05c-.12-.53.59-1.31,1.14-1.19a3.72,3.72,0,0,1,.9.24,9.14,9.14,0,0,1,2.63,2c1.18,1.26,2.32,2.57,3.49,3.85A1.73,1.73,0,0,0,15.7,26.36Z"/><path class="cls-1" d="M5,36c.29,0,.65,0,.87-.14A14.41,14.41,0,0,0,8.75,33.5a1.09,1.09,0,0,0,.14-.43,16.19,16.19,0,0,0,3.7-.74,6.42,6.42,0,0,1,3.71.28,3.64,3.64,0,0,1,.87.33,2.47,2.47,0,0,1,.57.67.84.84,0,0,1-.35.29,37.4,37.4,0,0,0-9.61,3.8A11,11,0,0,1,6,38.35a.85.85,0,0,1-1.1-1C5,36.86,5.28,36.44,5,36Z"/><path class="cls-1" d="M15.6,38.83c.81-.16.81-.16,1-1a3.66,3.66,0,0,0,1.35-.16,28.38,28.38,0,0,1,5-2.32.67.67,0,0,1,.81.31,1,1,0,0,1-.18.84,9.16,9.16,0,0,1-1,.94c-.56.53-1.14,1.05-1.67,1.61a3.4,3.4,0,0,0-.4.81,3.69,3.69,0,0,0-.9.2,9.14,9.14,0,0,0-2,1.26A32.68,32.68,0,0,1,13,44.59a.62.62,0,0,1-.85-.2A.61.61,0,0,1,12.1,44a5.42,5.42,0,0,0,.61-2.23,6.73,6.73,0,0,0,2.61-2A2.62,2.62,0,0,0,15.6,38.83Z"/><path class="cls-1" d="M68.89,34.42c0-.13,0-.31.1-.37a.53.53,0,0,1,.75.13c.09.1.2.3.16.37a.49.49,0,0,1-.73.17C69.05,34.66,69,34.52,68.89,34.42Z"/><polygon class="cls-1" points="18.46 30.25 18.68 30.41 18.58 30.14 18.46 30.25"/><path class="cls-1" d="M21,29.68l.32-.06c-.12-.26-.18-.21-.17.16Z"/><path class="cls-1" d="M52.93,29.41s.1-.16.1-.15Z"/><path class="cls-1" d="M64,29.74l.24-.1-.13.19A.87.87,0,0,1,64,29.74Z"/></g></g></svg>