<svg xmlns="http://www.w3.org/2000/svg" viewBox="0 0 54.16 56.6"><defs><style>.cls-1{fill:#fff;}</style></defs><title>Zeeplant12</title><g id="Laag_2" data-name="Laag 2"><g id="Laag_1-2" data-name="Laag 1"><path d="M33.42,31.29a7.68,7.68,0,0,1-.41.81.9.9,0,0,1-.36.31c-2.58,1.25-4.79,3.08-7.22,4.58a.6.6,0,0,0-.32.73.5.5,0,0,0,.41.18,16.61,16.61,0,0,0,7.27-2c2.34-1.35,4.86-2.33,7.14-3.79a7.72,7.72,0,0,1,1.76-.71c1.8-.58,3.63-1.07,5.4-1.8a11.42,11.42,0,0,1,5.59-.86.56.56,0,0,1,.39.19.86.86,0,0,1,0,.89,5.67,5.67,0,0,1-2.36,2.27,2.73,2.73,0,0,1-.92.13l.08.11c0-.31,0-.63,0-.94a.92.92,0,0,0-1.2-1c-.16,0-.32,0-.47.09a35.81,35.81,0,0,1-5.9,2,5.73,5.73,0,0,0-2.21.91c-2.26,1.56-4.86,2.44-7.19,3.85A14.28,14.28,0,0,1,28,39c-1.42.26-2.82.57-4.24.81-1.6.28-3.19-.13-4.78-.11a2.46,2.46,0,0,0-.92.24c-.36.17-.49.44-.37.64a.64.64,0,0,0,.36.31,14.93,14.93,0,0,0,4.76.32c1-.11,1.92-.14,2.87-.2a40.91,40.91,0,0,0,7.51-1.49,90.54,90.54,0,0,0,9-3.29,2.87,2.87,0,0,1,.94-.08l-.1-.1a1.85,1.85,0,0,1-1.1,1.46c-1.57.78-3.18,1.48-4.78,2.2-.73.32-1.59.21-2.26.7a.66.66,0,0,0-.26.8.57.57,0,0,0,.38.28,7.16,7.16,0,0,0,2.34-.41,8.41,8.41,0,0,1,3.8,0,.79.79,0,0,1,.41,1.12,2.09,2.09,0,0,1-.27.39,3.68,3.68,0,0,1-3,1.15l.1.08a3.87,3.87,0,0,0-2.64-.9c-.79.07-1.59.06-2.38.16a79.52,79.52,0,0,1-10,.46c-3.34,0-6.67.24-10,.47-.39,0-.62.18-.66.46a.63.63,0,0,0,.46.73,36.86,36.86,0,0,1,5.06,1.31,37.65,37.65,0,0,0,6.17.56c1.43,0,2.85-.11,4.28-.21A16.44,16.44,0,0,0,36,45a2.28,2.28,0,0,1,1.39-.21l-.1-.08c0,.16.06.37,0,.46-.41.48-.85.94-1.29,1.39a.65.65,0,0,0-.2.8.7.7,0,0,0,.39.25c.91.29,1.91.1,2.77.6a.76.76,0,0,1,.31.35.61.61,0,0,1-.18.84,8.23,8.23,0,0,1-.78.53,4.79,4.79,0,0,1-.88.36c-.77.2-1.55.38-2.32.57L30,52.11c-2.38,0-4.77.11-7.16.09-1.43,0-2.86-.16-4.29,0a13.8,13.8,0,0,1-3.33-.22,24.31,24.31,0,0,0-6.65-.38,1.6,1.6,0,0,0-1.13.79,6.18,6.18,0,0,0-.87,2.2,3.61,3.61,0,0,1-.72,1.75c-.1.12-.23.3-.35.3-.32,0-.47-.23-.43-.62a3.69,3.69,0,0,1,.08-.46c.34-1.23.69-2.45,1-3.68A3.07,3.07,0,0,0,6.06,50a5.44,5.44,0,0,1-.46-2.32,1.93,1.93,0,0,1,.47,0,2.16,2.16,0,0,0,2.1-.79A1.65,1.65,0,0,0,8.43,45c-.53-.78-1.09-1.56-1.62-2.34a10.61,10.61,0,0,1-2-5.77,9.74,9.74,0,0,0-.22-2.36A51.24,51.24,0,0,1,3.5,27.51c-.17-1.26-.42-2.5-.66-3.75a4.68,4.68,0,0,0-1-2.11.58.58,0,0,0-.42-.2c-.08,0-.22.2-.24.33A6.14,6.14,0,0,0,1,23.19c.37,3,.48,6,1,9a21.82,21.82,0,0,1,.53,3.76,9.36,9.36,0,0,0,.6,3.26c.7,1.94,1.36,3.9,2.07,5.84a8,8,0,0,1,.54,2.78c-.23-.2-.58-.36-.68-.62-1-2.52-2-5-2.89-7.58a17.65,17.65,0,0,1-.87-4.19c-.17-1.91-.4-3.81-.71-5.68A59.94,59.94,0,0,1,0,18.79a2.36,2.36,0,0,1,.1-.46,1.86,1.86,0,0,1,1-.93,2.16,2.16,0,0,1,1.19.73c.95,3.19,2.14,6.33,2.28,9.72a18.32,18.32,0,0,0,.69,4.23,44.69,44.69,0,0,1,1.06,6.6,5.55,5.55,0,0,0,1.38,3,2.43,2.43,0,0,0,.79.48.49.49,0,0,0,.75-.28A2.87,2.87,0,0,0,9.38,40c-.67-2.47-.77-5-1.38-7.51a5.91,5.91,0,0,1-.13-.94A7.32,7.32,0,0,1,8,29.17c.33-1.39.59-2.81,1-4.17a19.51,19.51,0,0,0,.72-6.62,20.21,20.21,0,0,1,0-3.81,3.91,3.91,0,0,1,.85-2.19.58.58,0,0,1,.82,0,2.37,2.37,0,0,1,.6.73,3.66,3.66,0,0,1,.37,1.85,2.11,2.11,0,0,0-1.82,2.39c0,1.6-.07,3.2-.11,4.8a10.88,10.88,0,0,1-.51,3.3A45.46,45.46,0,0,0,9,30.6a1.24,1.24,0,0,0,0,.47,29.78,29.78,0,0,0,.86,4.69.6.6,0,0,0,.32.34.74.74,0,0,0,.86-.17,7.48,7.48,0,0,0,1.65-4.4c.06-1.92.28-3.83.3-5.75,0-1.27-.23-2.54-.33-3.81a13.68,13.68,0,0,1,0-1.92,26.48,26.48,0,0,0-.34-5.26,2,2,0,0,1,.92,1.58c.13,1.75.25,3.5.35,5.26a6.68,6.68,0,0,0,.83,2.72.62.62,0,0,0,.37.26c.07,0,.25-.12.28-.22a15.37,15.37,0,0,0,.3-3.32c.07-.95.14-1.91.27-2.85a2.26,2.26,0,0,1,.7-1.22l-.11-.14,0,4.66c0,1.7,0,3.41,0,5.12A7.54,7.54,0,0,1,15.76,28a8.81,8.81,0,0,0-.49,2.32c0,.41.18.63.58.57.1,0,.2-.2.24-.33a2.54,2.54,0,0,0-.45-2.65,1.76,1.76,0,0,0,1.55-.85A22.08,22.08,0,0,0,20,18.64a27.51,27.51,0,0,1,.9-4.6A2.48,2.48,0,0,0,21,13.1a1.31,1.31,0,0,0-.31-.81.63.63,0,0,0-.84.21l-1.86,2.1a1,1,0,0,1-.83.33l.13.06a3.38,3.38,0,0,1,.23-.91C19,11.46,20.36,8.76,21.66,6a.59.59,0,0,1,.82-.32.83.83,0,0,1,.38.77,14.36,14.36,0,0,1-.2,3.34c-.42,2-.83,4.06-1.29,6.08a10.1,10.1,0,0,0-.25,3.79c0,.15.15.4.23.4.36,0,.53-.24.67-.57,1.34-3.07,2.66-6.15,4.17-9.14.71-1.43,1.4-2.88,2.2-4.25a29.89,29.89,0,0,0,1.8-3.9,1.85,1.85,0,0,1,.67-.63.44.44,0,0,1,.4,0,.55.55,0,0,1,.2.42,4.5,4.5,0,0,1-.26,1.38,8.54,8.54,0,0,0-.76,2.75,21.6,21.6,0,0,0-.2,2.39,22.61,22.61,0,0,1-.64,5.68,2.76,2.76,0,0,0,0,1c.06.38.28.58.6.57a.67.67,0,0,0,.43-.13A24.41,24.41,0,0,0,36.24,6.2,15.91,15.91,0,0,1,39.31.31.79.79,0,0,1,40.16,0a.83.83,0,0,1,.68.57A5.45,5.45,0,0,1,41,3.43a1.09,1.09,0,0,1-.6.72c-.19-.24-.35-.51-.55-.74a.58.58,0,0,0-.83-.09,1.83,1.83,0,0,0-.72,2l-.2.22.07-.33a3,3,0,0,0,.87-.19c.53-.32,1-.72,1.5-1.09a9.87,9.87,0,0,1-1.43,3,16.94,16.94,0,0,0-2.07,4.8,5.4,5.4,0,0,1-.84,1.7c-.51.8-1.09,1.56-1.63,2.35-1.43,2.1-2.94,4.15-4.18,6.39A3.66,3.66,0,0,0,30,24.94c-.38,0-.42-.1-.13-.19l-.06.3a4.77,4.77,0,0,1,1.07-1.56,56.86,56.86,0,0,0,5.46-5.94,19.41,19.41,0,0,1,4.18-3.86,53.81,53.81,0,0,0,6-4.62A10,10,0,0,1,49,7.53a16.8,16.8,0,0,1,4.45-1.6.6.6,0,0,1,.7.44.78.78,0,0,1,0,.45,3,3,0,0,1-.52.79,8.65,8.65,0,0,1-3.08,2.16c-.58.22-1.08-.08-1.61-.18a.87.87,0,0,0-1,.5,1.36,1.36,0,0,0-.9,1.26l-.13-.13A1.32,1.32,0,0,0,47.79,10l2.75-.18a20,20,0,0,1-2,2c-2.27,1.7-4.43,3.55-6.85,5a26.5,26.5,0,0,0-3.39,2.57c-.95.83-1.93,1.63-2.87,2.46a17.33,17.33,0,0,0-2.07,1.94c-2,2.43-4.64,4.29-6.4,6.94a1.7,1.7,0,0,0-.18.44l-1,1.25-.21.1.1-.22c.45-.33.93-.64,1-1.25a2,2,0,0,0,1.74.06,19.16,19.16,0,0,0,3.8-2.43,1.83,1.83,0,0,1,1.3-.22l-.07-.09c.05.14.15.3.12.42a3.39,3.39,0,0,1-.33.79c-.22.37-.57.72-.32,1.18a2.94,2.94,0,0,0,.61.61ZM43.66,13H44l-.24-.09a2.57,2.57,0,0,0-.49,1.54l-.12-.17C43.36,13.81,43.71,13.46,43.66,13ZM32.41,16a3.46,3.46,0,0,1,1.83-.62c0-.42,0-.84,0-1.26s0-.83,0-1.24c0,.06.22-.07.1.11a1.45,1.45,0,0,0-.19,1.55,2.25,2.25,0,0,1,.12.81,1.86,1.86,0,0,0-1.7.77A1.06,1.06,0,0,1,32.41,16ZM20.72,31.25l.3-.11h-.19c-.19.34-.62.59-.41,1.08.1,0,.27-.08.28-.14A7.73,7.73,0,0,0,20.72,31.25ZM18.65,27a11.61,11.61,0,0,0-.29,1.3c-.05.36-.12.87.56.64a2.23,2.23,0,0,0,.14-.85,8,8,0,0,0-.53-1.2c.14,0,.28-.1.43-.13.43-.1.87-.18.55-.8l-.3.33A5.46,5.46,0,0,0,18.65,27ZM12.88,41.3a2.29,2.29,0,0,0,.55-1.25c.05-.94.06-1.87.07-2.8a.73.73,0,0,0-.17-.43.54.54,0,0,0-.34-.2c-.12,0-.33,0-.38.09a5.71,5.71,0,0,0-.74,3.13,1.56,1.56,0,0,0,.38.81,2.32,2.32,0,0,0,.75.55l.65-.09a1.36,1.36,0,0,0-.4,0A2,2,0,0,0,12.88,41.3Zm12.2,9.92c.8-.1,1.74-.26,2.69-.34,1.1-.09,2.21-.1,3.32-.19a1.78,1.78,0,0,0,.86-.37.53.53,0,0,0,.08-.79,1.41,1.41,0,0,0-.79-.46A33.83,33.83,0,0,1,26,48.8a7.48,7.48,0,0,0-1.89,0c-.63.06-1.26.2-1.89.28a5.67,5.67,0,0,1-2.35-.2c-.76-.22-1.51-.49-2.27-.71a9.32,9.32,0,0,0-1.84-.45A22.09,22.09,0,0,1,11.57,47a1.84,1.84,0,0,0-.93,0,2.57,2.57,0,0,0-1.92,1.89,1.07,1.07,0,0,0,.6,1.15,6.1,6.1,0,0,0,.9.26c1.58.16,3.17.24,4.74.45a48.11,48.11,0,0,0,5.23.11C21.77,51,23.35,51.11,25.08,51.22Zm3.86-39.87a3.55,3.55,0,0,0-.06-.47.79.79,0,0,0-.57-.64.72.72,0,0,0-.81.37,54.49,54.49,0,0,0-2.73,5c-.71,1.27-1,2.7-1.59,4a35.09,35.09,0,0,1-1.87,5.92,2.08,2.08,0,0,0,0,.93.51.51,0,0,0,.65.49,2.06,2.06,0,0,0,1.19-.73c2.24-2.58,3.37-5.76,4.77-8.8.06-.14.08-.31.13-.46A19.31,19.31,0,0,0,28.94,11.35Z"/><path d="M33.51,28.47a3.24,3.24,0,0,1,.27-.88,6.38,6.38,0,0,1,2.1-1.9c1-.53,2-1,2.92-1.59A17.15,17.15,0,0,1,43.55,22a54.86,54.86,0,0,1,6.92-1.66,2,2,0,0,1,.94,0,1.79,1.79,0,0,1,.67.59.62.62,0,0,1-.11.86,4.13,4.13,0,0,1-.65.67,34.71,34.71,0,0,1-3.2,2.05,44.51,44.51,0,0,1-6.07,2.7,4.54,4.54,0,0,1-1.87.2l.07.12c.16-.27.26-.62.48-.77a9.65,9.65,0,0,1,1.67-.91c1.16-.52,2.35-1,3.5-1.49A4.3,4.3,0,0,0,47,23.47a.49.49,0,0,0,.14-.43.54.54,0,0,0-.4-.23,2.66,2.66,0,0,0-.93-.06,16.72,16.72,0,0,0-4.52,1.41c-1.69.86-3.33,1.82-5,2.78a1.91,1.91,0,0,0-1,1.55l.19-.14a8.52,8.52,0,0,1-2.08,0Z"/><path d="M40.18,27.41c-.17.25-.27.61-.51.74-1.76,1-3.54,2-5.34,3a2.89,2.89,0,0,1-.91.15l.1.09c.06-.3,0-.67.2-.88.39-.5.89-.9,1.31-1.36a5.24,5.24,0,0,0,.49-.79l-.19.14A4.47,4.47,0,0,0,38,27.88a3.38,3.38,0,0,1,2.25-.35Z"/><path d="M46.86,34.15c0,.14,0,.33-.15.43A4,4,0,0,1,43,36.05l.1.1c.14-.26.21-.6.42-.78A5,5,0,0,1,45.6,34.3a6.24,6.24,0,0,1,1.37,0Z"/><path d="M49.79,32.2c0,.15-.06.34-.16.44a3.93,3.93,0,0,1-2.77,1.51l.11.1c0-.16,0-.35.13-.45a3.32,3.32,0,0,1,2.77-1.49Z"/><path d="M16.26,17a2.35,2.35,0,0,1,1-2l-.13-.06c-.09.46-.15.93-.27,1.38a.81.81,0,0,1-.69.55Z"/><path d="M38.27,43.72a.88.88,0,0,1-1,1l.1.08c.12-.86.12-.86,1-1Z"/><path class="cls-1" d="M49.87,32.31A3.32,3.32,0,0,0,47.1,33.8c-.09.1-.09.29-.13.45a6.24,6.24,0,0,0-1.37,0,5,5,0,0,0-2.05,1.07c-.21.18-.28.52-.42.78a2.87,2.87,0,0,0-.94.08,90.54,90.54,0,0,1-9,3.29A40.91,40.91,0,0,1,25.68,41c-.95.06-1.91.09-2.87.2a14.93,14.93,0,0,1-4.76-.32.64.64,0,0,1-.36-.31c-.12-.2,0-.47.37-.64A2.46,2.46,0,0,1,19,39.7c1.59,0,3.18.39,4.78.11,1.42-.24,2.82-.55,4.24-.81a14.28,14.28,0,0,0,4.92-1.8c2.33-1.41,4.93-2.29,7.19-3.85a5.73,5.73,0,0,1,2.21-.91,35.81,35.81,0,0,0,5.9-2c.15-.05.31-.05.47-.09a.92.92,0,0,1,1.2,1C49.88,31.68,49.88,32,49.87,32.31Z"/><path class="cls-1" d="M38.37,43.8c-.87.13-.87.13-1,1A2.28,2.28,0,0,0,36,45a16.44,16.44,0,0,1-7.33,1.84c-1.43.1-2.85.2-4.28.21a37.65,37.65,0,0,1-6.17-.56,36.86,36.86,0,0,0-5.06-1.31.63.63,0,0,1-.46-.73c0-.28.27-.44.66-.46,3.33-.23,6.66-.45,10-.47a79.52,79.52,0,0,0,10-.46c.79-.1,1.59-.09,2.38-.16A3.87,3.87,0,0,1,38.37,43.8Z"/><path class="cls-1" d="M25.08,51.22c-1.73-.11-3.31-.26-4.89-.31A48.11,48.11,0,0,1,15,50.8c-1.57-.21-3.16-.29-4.74-.45a6.1,6.1,0,0,1-.9-.26,1.07,1.07,0,0,1-.6-1.15,2.57,2.57,0,0,1,1.92-1.89,1.84,1.84,0,0,1,.93,0,22.09,22.09,0,0,0,4.21.74,9.32,9.32,0,0,1,1.84.45c.76.22,1.51.49,2.27.71a5.67,5.67,0,0,0,2.35.2c.63-.08,1.26-.22,1.89-.28a7.48,7.48,0,0,1,1.89,0,33.83,33.83,0,0,0,5.22.27,1.41,1.41,0,0,1,.79.46.53.53,0,0,1-.08.79,1.78,1.78,0,0,1-.86.37c-1.11.09-2.22.1-3.32.19C26.82,51,25.88,51.12,25.08,51.22Z"/><path class="cls-1" d="M12.24,14.79a26.48,26.48,0,0,1,.34,5.26,13.68,13.68,0,0,0,0,1.92c.1,1.27.34,2.54.33,3.81,0,1.92-.24,3.83-.3,5.75A7.48,7.48,0,0,1,11,35.93a.74.74,0,0,1-.86.17.6.6,0,0,1-.32-.34A29.78,29.78,0,0,1,9,31.07a1.24,1.24,0,0,1,0-.47,45.46,45.46,0,0,1,1-5.18,10.88,10.88,0,0,0,.51-3.3c0-1.6.12-3.2.11-4.8a2.11,2.11,0,0,1,1.82-2.39Z"/><path class="cls-1" d="M5.76,47.81A8,8,0,0,0,5.22,45c-.71-1.94-1.37-3.9-2.07-5.84a9.36,9.36,0,0,1-.6-3.26A21.82,21.82,0,0,0,2,32.17c-.52-3-.63-6-1-9a6.14,6.14,0,0,1,.11-1.41c0-.13.16-.33.24-.33a.58.58,0,0,1,.42.2,4.68,4.68,0,0,1,1,2.11c.24,1.25.49,2.49.66,3.75a51.24,51.24,0,0,0,1.08,7.06,9.74,9.74,0,0,1,.22,2.36,10.61,10.61,0,0,0,2,5.77c.53.78,1.09,1.56,1.62,2.34a1.65,1.65,0,0,1-.26,1.77,2.16,2.16,0,0,1-2.1.79,1.93,1.93,0,0,0-.47,0Z"/><path class="cls-1" d="M28.94,11.35A19.31,19.31,0,0,1,28,17c-.05.15-.07.32-.13.46-1.4,3-2.53,6.22-4.77,8.8a2.06,2.06,0,0,1-1.19.73.51.51,0,0,1-.65-.49,2.08,2.08,0,0,1,0-.93,35.09,35.09,0,0,0,1.87-5.92c.62-1.3.88-2.73,1.59-4a54.49,54.49,0,0,1,2.73-5,.72.72,0,0,1,.81-.37.79.79,0,0,1,.57.64A3.55,3.55,0,0,1,28.94,11.35Z"/><path class="cls-1" d="M16.15,16.86a.81.81,0,0,0,.69-.55c.12-.45.18-.92.27-1.38a1,1,0,0,0,.83-.33l1.86-2.1a.63.63,0,0,1,.84-.21,1.31,1.31,0,0,1,.31.81,2.48,2.48,0,0,1-.06.94,27.51,27.51,0,0,0-.9,4.6,22.08,22.08,0,0,1-2.8,8.41,1.76,1.76,0,0,1-1.55.85l.1.07a5.78,5.78,0,0,0,.34-1.33c.05-1.71,0-3.42,0-5.12Z"/><path class="cls-1" d="M13,41.24a3.78,3.78,0,0,1-.72-.59,1.56,1.56,0,0,1-.38-.81,5.71,5.71,0,0,1,.74-3.13c.05-.08.26-.11.38-.09a.54.54,0,0,1,.34.2.73.73,0,0,1,.17.43c0,.93,0,1.86-.07,2.8a2.29,2.29,0,0,1-.55,1.25Z"/><path class="cls-1" d="M35.52,28.35a5.24,5.24,0,0,1-.49.79c-.42.46-.92.86-1.31,1.36-.17.21-.14.58-.2.88a2.94,2.94,0,0,1-.61-.61c-.25-.46.1-.81.32-1.18a3.39,3.39,0,0,0,.33-.79c0-.12-.07-.28-.12-.42A8.52,8.52,0,0,0,35.52,28.35Z"/><path class="cls-1" d="M38.33,5.36a1.83,1.83,0,0,1,.72-2,.58.58,0,0,1,.83.09c.2.23.36.5.55.74L40.56,4c-.49.35-1,.75-1.49,1.07a3,3,0,0,1-.87.19Z"/><path class="cls-1" d="M15.64,27.9a2.54,2.54,0,0,1,.45,2.65c0,.13-.14.32-.24.33-.4.06-.56-.16-.58-.57A8.81,8.81,0,0,1,15.76,28Z"/><path class="cls-1" d="M18.61,27l.6-.67.3-.33c.32.62-.12.7-.55.8-.15,0-.29.09-.43.13Z"/><path class="cls-1" d="M20.72,31.25a7.73,7.73,0,0,1,0,.83c0,.06-.18.09-.28.14-.21-.49.22-.74.41-1.08Z"/><path class="cls-1" d="M18.53,26.92a8,8,0,0,1,.53,1.2,2.23,2.23,0,0,1-.14.85c-.68.23-.61-.28-.56-.64s.19-.87.27-1.32Z"/><path class="cls-1" d="M50.54,9.79,47.79,10l.11.12a.89.89,0,0,1,1-.5c.53.1,1,.4,1.61.18Z"/><path class="cls-1" d="M34.17,12.87c0,.42,0,.84,0,1.25s0,.84,0,1.25h0a3.72,3.72,0,0,0-.16-.82A1.45,1.45,0,0,1,34.28,13Z"/><path class="cls-1" d="M12.88,41.3a2,2,0,0,1,.37-.21,1.36,1.36,0,0,1,.4,0c-.21,0-.43.06-.67.11A.58.58,0,0,1,12.88,41.3Z"/><polygon class="cls-1" points="20.83 31.14 21.02 31.14 20.72 31.25 20.83 31.14"/><polygon class="cls-1" points="25.64 32.31 25.54 32.53 25.75 32.43 25.64 32.31"/><path class="cls-1" d="M25.75,32.43l1-1.25-.1-.12c-.1.61-.58.92-1,1.25Z"/><path class="cls-1" d="M29.84,25.05l.06-.3c-.29.09-.25.16.13.19Z"/><path class="cls-1" d="M32.4,16l.11.12Z"/><path class="cls-1" d="M32.51,16.12a1.84,1.84,0,0,1,1.72-.76s0,0,0,0A3.62,3.62,0,0,0,32.4,16Z"/><path class="cls-1" d="M34.28,13c.12-.18-.09-.05-.11-.12Z"/><polygon class="cls-1" points="38.2 5.25 38.13 5.58 38.33 5.36 38.2 5.25"/><path class="cls-1" d="M43.17,14.24l.1.14Z"/><path class="cls-1" d="M43.66,12.94c.05.52-.3.87-.5,1.29l.11.15a2.64,2.64,0,0,1,.5-1.53Z"/><polygon class="cls-1" points="43.77 12.85 44.01 12.94 43.66 12.94 43.77 12.85"/><path class="cls-1" d="M46.89,11.22l.12.13Z"/><path class="cls-1" d="M47.79,10a1.32,1.32,0,0,1-.91,1.25l.13.13a1.36,1.36,0,0,1,.9-1.26Z"/><path class="cls-1" d="M40.25,27.53a3.38,3.38,0,0,0-2.25.35,4.47,4.47,0,0,1-2.67.61,1.91,1.91,0,0,1,1-1.55c1.64-1,3.28-1.92,5-2.78a16.72,16.72,0,0,1,4.52-1.41,2.66,2.66,0,0,1,.93.06.54.54,0,0,1,.4.23.49.49,0,0,1-.14.43,4.3,4.3,0,0,1-1.07.89c-1.15.54-2.34,1-3.5,1.49a9.65,9.65,0,0,0-1.67.91C40.51,26.91,40.41,27.26,40.25,27.53Z"/></g></g></svg>