<svg xmlns="http://www.w3.org/2000/svg" viewBox="0 0 152.47 334.57"><defs><style>.cls-1{fill:#fff;}</style></defs><title>Zeeplant13</title><g id="Laag_2" data-name="Laag 2"><g id="Laag_1-2" data-name="Laag 1"><path d="M44.4,214.14a3.71,3.71,0,0,1-2.18-.89q-1.57-1.47-3.11-3a10.81,10.81,0,0,1-2.64-4,11.5,11.5,0,0,0-1.92-3.3,28.49,28.49,0,0,1-2.24-3.11,26.19,26.19,0,0,0-3.48-4.56,10.64,10.64,0,0,1-1.93-2.73,20.47,20.47,0,0,0-3-4.34,11.61,11.61,0,0,1-2-2.72,29.35,29.35,0,0,0-3.34-5.25c-.19-.25-.33-.54-.5-.81a1.63,1.63,0,0,1,.12-1.79,6.93,6.93,0,0,0,.8-1.17,1.45,1.45,0,0,0,0-.92,3.29,3.29,0,0,0-1.09-1.55c-.86-.72-1.74-1.4-2.65-2.05a13.87,13.87,0,0,1-2.74-2.67,2.92,2.92,0,0,1-.54-.79A27.68,27.68,0,0,1,10.5,164a4.38,4.38,0,0,1,.06-.95l-.11.08c.25.17.64.28.74.52.52,1.16.92,2.38,1.45,3.53a6.68,6.68,0,0,0,1.94,2.69,2.66,2.66,0,0,0,.86.38.49.49,0,0,0,.61-.5,2.92,2.92,0,0,0-.24-1.38c-.74-1.41-1.62-2.75-2.34-4.17-2.16-4.27-4.4-8.5-6.89-12.58a7.74,7.74,0,0,1-.48-.83,13.62,13.62,0,0,1-1.31-4.08A2.57,2.57,0,0,1,6,144.29a4.05,4.05,0,0,1,2.29-.57,21,21,0,0,1,2.85.38c1.87.39,3.73.86,5.6,1.25,1.4.3,2.81.61,4.23.78,2.53.29,5.08.47,7.62.71a15.48,15.48,0,0,1,2.37.26,31.05,31.05,0,0,0,6.65.71,31.71,31.71,0,0,1,4.75.55,59.6,59.6,0,0,1,8.74,2.45c1.81.61,3.63,1.22,5.47,1.73,2.61.74,5.27,1.28,7.8,2.26a6.6,6.6,0,0,0,1.4.31,5.94,5.94,0,0,1,2.21.83,27.3,27.3,0,0,0,7.79,3.59,2,2,0,0,1,.84.42c1.7,1.48,3.79,2.35,5.65,3.58a4.82,4.82,0,0,0,3.22.58l-.16-.1a6.46,6.46,0,0,0,2.35,2.92c1.09.67,2.09,1.46,3.15,2.17s2.41,1.56,3.61,2.33c1.33.21,2.13,1.36,3.32,1.84a3,3,0,0,0,.45.13.86.86,0,0,0,1-1.15,18.07,18.07,0,0,0-1-1.59,1.21,1.21,0,0,1-.23-.89l-.08.1a3.06,3.06,0,0,1,2.37,1.39,1.54,1.54,0,0,1,.36.86c0,.63,0,1.27,0,1.9a8.46,8.46,0,0,1-1.37,5,1.65,1.65,0,0,0-.19.91.58.58,0,0,0,.61.55,2.56,2.56,0,0,0,1.71-.75,18,18,0,0,1,2.81-2.56,3.18,3.18,0,0,1,2.75-.23,3.75,3.75,0,0,1,.86.4A21.26,21.26,0,0,1,112.1,181a1.68,1.68,0,0,1,.22.42,7.38,7.38,0,0,0-2.15.1,6.14,6.14,0,0,0-1.9-2.57,3,3,0,0,0-2.11-.8.85.85,0,0,0-.79.42.47.47,0,0,0,.32.71,8.77,8.77,0,0,1,2.14.85,7.89,7.89,0,0,0,2.47,1.25,2.91,2.91,0,0,0,1,1.54c.56.54,1.13,1.07,1.7,1.6a15.78,15.78,0,0,1,1.85,1.48c1.86,2,4.19,3.36,6.27,5a5.48,5.48,0,0,0,2.64,1,13.43,13.43,0,0,0,.57,1.28,3,3,0,0,0,.67.67,18.3,18.3,0,0,1,4.26,5.05,10.56,10.56,0,0,0,1.81,2.2,5.51,5.51,0,0,0,2.39,1.49.59.59,0,0,0,.78-.32.8.8,0,0,0,.08-.45,1.9,1.9,0,0,0-.27-.88c-.83-.95-1.72-1.85-2.58-2.78a23.14,23.14,0,0,0-3-3,25.92,25.92,0,0,1-2.65-2.69,2.12,2.12,0,0,0-.38-.29,1.65,1.65,0,0,0-1.77-.15,2.26,2.26,0,0,0-.76-1.66,39.88,39.88,0,0,1-5.28-4c-1.11-.62-2.2-1.26-3.34-1.84a1.88,1.88,0,0,0-1.38,0,9.41,9.41,0,0,0,.3-2.35c.93.28,1.54,1.07,2.36,1.52.55.3,1.1.61,1.67.87a.75.75,0,0,0,.85-.17.87.87,0,0,0,.25-.85,4.53,4.53,0,0,0-.3-.9A9.48,9.48,0,0,1,117,179.6l-.1.12a1,1,0,0,1,.75.49,49.71,49.71,0,0,0,3,5.3c.27.39.57.75.85,1.12a1.56,1.56,0,0,0,1.3.37,12.17,12.17,0,0,0,4.17-2.11,3.79,3.79,0,0,0,.62-.7,1.13,1.13,0,0,1,1.17-.52,11,11,0,0,0,2.8-.3,8.28,8.28,0,0,1,2.81-.05l-.11-.11a1.08,1.08,0,0,1-.59.7c-.74.28-1.5.52-2.25.8a1.43,1.43,0,0,0-.6,1.22,8.24,8.24,0,0,1,.66,1.79c.23,1.73.39,3.48.47,5.22a30.89,30.89,0,0,0,.25,3.34,3.34,3.34,0,0,0,.73,1.74c.51.61,1.05,1.2,1.54,1.84a5.37,5.37,0,0,1,.72,1.22,31.08,31.08,0,0,1,1.32,4.1,4.19,4.19,0,0,1-.38,2.79,29.12,29.12,0,0,1-6.63,8.72,2,2,0,0,0-.65,1.23c-.09.79-.28,1.57-.42,2.35a2,2,0,0,0-.07.48,6,6,0,0,0,.14.93,1.4,1.4,0,0,0,.2.43c2.79,4.14,4.55,8.77,6.28,13.41.5,1.34,1,2.7,1.42,4.07.25.75.41,1.53.6,2.31a.8.8,0,0,1-.29.85s-.26-.15-.33-.27a18.06,18.06,0,0,1-.88-1.69c-.49-1.18-.92-2.38-1.39-3.57a2,2,0,0,0-1.35-1.25,3.21,3.21,0,0,1-1.89-1.36c-.63-.93-1.19-1.9-1.88-2.77a6.35,6.35,0,0,0-3-2.34,1.17,1.17,0,0,0-.87.2,1.7,1.7,0,0,0-.59.73,86.66,86.66,0,0,1-4.43,7.93,30,30,0,0,1-4.25,5.77,3.5,3.5,0,0,1-.79.49l.1.12a2.61,2.61,0,0,1,.56-1.73,35.3,35.3,0,0,0,4.8-7.94,6.38,6.38,0,0,1,.74-1.19,2.51,2.51,0,0,1,1.06-.87,3.7,3.7,0,0,1,0-.94c.18-.76.43-1.51.65-2.26a7.37,7.37,0,0,0,.22-.9.63.63,0,0,0-.12-.44.54.54,0,0,0-.39-.24.61.61,0,0,0-.59.57,23.1,23.1,0,0,0,.24,4.23,1.7,1.7,0,0,0-2.12.56c-2.18,2.75-4.35,5.52-6.54,8.27-1.1,1.37-2.23,2.72-3.36,4.06A4.14,4.14,0,0,1,108.8,247c-.44.2-.88.38-1.32.59a1,1,0,0,0-.52,1.17,14.06,14.06,0,0,0,.92,1.66,2.06,2.06,0,0,0,3,.28c.54-.58,1-1.21,1.59-1.77a2.63,2.63,0,0,1,.85-.38l-.13-.06a7.4,7.4,0,0,1-1.64,3.4,1,1,0,0,1-.84.4,9.3,9.3,0,0,1-4.19-.77c-1-.48-2-.91-3.07-1.35A28.44,28.44,0,0,1,99.16,248c-1.21-.77-2.54-1.34-3.82-2a3.08,3.08,0,0,0-.89-.36c-2.25-.31-4.2-1.49-6.33-2.16a21.58,21.58,0,0,1-4-1.72,4.56,4.56,0,0,1-2.4-3.39c-.28-1.57-.33-3.17-.47-4.75,0-.42-.73-.65-1.15-.37-.94.61-1.87,1.22-2.79,1.85-.27.17-.5.41-.78.56a3,3,0,0,1-1.84.38,8.23,8.23,0,0,1-1.86-.41,12.23,12.23,0,0,1-2.12-1.11c-3.2-2.12-6.49-4.09-9.54-6.43a35.47,35.47,0,0,0-6.52-4,14.26,14.26,0,0,1-6.85-6.45,6.05,6.05,0,0,0-2.7-2.6,1.84,1.84,0,0,1-.91-1.06c.95.05,1.9.14,2.86.17a2.19,2.19,0,0,0,1.72-.66,10.73,10.73,0,0,0,1.28-1.42,15.26,15.26,0,0,1,4.09-4c1.17-.82,2.27-1.74,3.39-2.63a2.85,2.85,0,0,0,.62-.72c.15-.26.36-.64.27-.88a26.46,26.46,0,0,0-1.47-4,3.58,3.58,0,0,0-.66-.69,1,1,0,0,0-1.26.25c-.27.57-.5,1.16-.79,1.73,0,.09-.26.15-.39.13s-.33-.1-.35-.2c-.31-1.1.39-2.16.14-3.27a.81.81,0,0,0-.54-.67.75.75,0,0,0-.44.15,5.81,5.81,0,0,0-1.65,1.7,40.06,40.06,0,0,0-2.57,4.56.5.5,0,0,1-.37.24c-.35.05-.55-.16-.49-.53a17.15,17.15,0,0,1,3.21-7.38c1.13-1.54,2.29-3.06,3.49-4.54A56,56,0,0,0,58.24,186a8.41,8.41,0,0,0,.6-1.29.65.65,0,0,0-.05-.43A.58.58,0,0,0,58,184a15.5,15.5,0,0,0-5,3.61c-.85,1-1.77,1.84-2.65,2.76a43,43,0,0,0-6,8c-.41.69-.84,1.36-1.27,2a.71.71,0,0,1-.35.27.6.6,0,0,1-.44,0,.55.55,0,0,1-.26-.39,5.22,5.22,0,0,1,.37-2.34c.6-1.64,1.25-3.26,1.88-4.89a6.19,6.19,0,0,0,1.3-1.74,2.48,2.48,0,0,0,.26-1.69,2,2,0,0,0,1.66-.78c1.46-1.48,2.86-3,4.28-4.52a3.5,3.5,0,0,0,.54-.78.6.6,0,0,0-.21-.82,1.14,1.14,0,0,0-1.32,0,6.7,6.7,0,0,0-1.58,1.78C48,186.2,47,188,45.89,189.75c-.41.59-.83,1.18-1.26,1.76a1.84,1.84,0,0,0-.31,1.62,1.21,1.21,0,0,0-1.25.28c-1.06,1.07-2.08,2.19-3.14,3.26a3.12,3.12,0,0,1-1.51,1,3.31,3.31,0,0,1,.33-2.73,15.9,15.9,0,0,1,1-1.57,69.93,69.93,0,0,0,5.46-8.27,10.84,10.84,0,0,1,1.18-1.45c-.34-.12-.37-.19-.11-.17a2,2,0,0,1,0,.29,1.63,1.63,0,0,0-1.31.39,6.31,6.31,0,0,0-1,1c-2.06,2.6-4.1,5.22-6.16,7.83a2.38,2.38,0,0,1-.74.55c-.12.07-.39.07-.45,0A7.56,7.56,0,0,0,35,191.9c-.19-.12-.25-.58-.23-.88A6.83,6.83,0,0,1,36,188c1.58-2.56,3.14-5.13,4.71-7.7a3.34,3.34,0,0,0,.53-1.79c.45-.2.48-.3.1-.31l0,.41a18.61,18.61,0,0,0-3.34-.06c-1.27-.09-2.54-.11-3.82-.1a1.36,1.36,0,0,0-.84.36,18.65,18.65,0,0,0-2.4,3,8.66,8.66,0,0,1-.89,1.11.59.59,0,0,1-.83.07.82.82,0,0,1-.23-.85c.19-1.14,1-2,1.38-3a.53.53,0,0,0-.1-.41,1.26,1.26,0,0,0-1.18-.67c-1.41.2-2.82.47-4.22.72-.53.09-.87,1-.63,1.58a10.92,10.92,0,0,0,1.54,2.42c.61.73,1.28,1.42,1.9,2.16a15.31,15.31,0,0,1,1.77,2.26,29.32,29.32,0,0,0,3.92,5.42,12.62,12.62,0,0,1,1.07,1.59c.44.67.83,1.36,1.29,2a2.79,2.79,0,0,0,2.85,1.35,2.3,2.3,0,0,0,.35,2.22c1,1.24,2,2.45,2.92,3.68.39.49.75,1,1.13,1.49.35,1.62,1.56,2.68,2.48,3.93a3.38,3.38,0,0,1,.35.85.78.78,0,0,1-.71,1,4.06,4.06,0,0,1-.91-.17,1.14,1.14,0,0,0-1.26.28c-.47.42-.59.88-.32,1.22C43.2,212.71,43.8,213.42,44.4,214.14Zm69.29,22.58a1.85,1.85,0,0,0,1.66-.56,8.91,8.91,0,0,0,2-3.16.39.39,0,0,0-.09-.34.51.51,0,0,0-.43,0,3.82,3.82,0,0,0-1.5,2.28,1.84,1.84,0,0,0,.16,1.34c-.66-.12-1.16.31-1.73.48.17.26.1.34-.2.23A.63.63,0,0,1,113.69,236.72Zm-18.1,1.06.3.15-.19-.16-.11.17S95.57,237.77,95.59,237.78ZM24.84,187.06l0-.14.07.2.17.09Zm51.36,15c.33,0,.38,0,.16.14l0-.27c-.09.45-.21.9-.26,1.35s0,.92-.07,1.37a.94.94,0,0,0-.87.26c-1.5,1.87-3,3.73-4.35,5.71a38.49,38.49,0,0,1-4.54,5.57,4.89,4.89,0,0,1-1.91,1.39.59.59,0,0,1-.42-.1.44.44,0,0,1-.14-.36,2.66,2.66,0,0,1,.45-.83,45,45,0,0,0,6.25-9.05q1.4-2.52,2.76-5a17.3,17.3,0,0,1,2.43-3.55,13.72,13.72,0,0,0,.87-1.14,1.27,1.27,0,0,0,0-1.35,2.63,2.63,0,0,0-.29-.37,1.26,1.26,0,0,0-2,.17c-.78,1.4-1.48,2.84-2.31,4.2-3.32,5.47-6.81,10.83-10.55,16A17.75,17.75,0,0,1,59.76,218a2.39,2.39,0,0,1-1.23.71,6,6,0,0,1,.7-1.76c3.24-5.67,6.44-11.36,9.94-16.87q.77-1.22,1.41-2.49a2.38,2.38,0,0,0-.06-2.27c.35.06.39.12.12.17l0-.28c-.67,1.06-1.36,2.11-2,3.18-1.65,2.67-3.43,5.27-5.29,7.8a39.37,39.37,0,0,1-5,5.61c-.2.17-.58.13-.88.2l.12.11a2.2,2.2,0,0,1,.16-1.84c.58-1.13,1.54-2,1.9-3.3,0-.09-.09-.28-.18-.35a.53.53,0,0,0-.43-.07A8,8,0,0,0,55.63,211a28.9,28.9,0,0,1-1,3.67,2.72,2.72,0,0,0,.47,2.27,5.48,5.48,0,0,0,1.77,1.58,2.1,2.1,0,0,0,1.83.1,7.43,7.43,0,0,0,.28,4.23,2.13,2.13,0,0,0,.52.79,5.29,5.29,0,0,0,2,1.33,1.2,1.2,0,0,0,.93,0,2.62,2.62,0,0,1,2.3,0q.84.45,1.71.87c.28.14.59.23.88.36a1.45,1.45,0,0,0,1.65-.63c.67-1.27,1.29-2.57,2-3.82,1.65-2.92,3.34-5.81,5-8.71a3.31,3.31,0,0,0,.3-.39c.11-1.1.46-2.2,0-3.28a6.8,6.8,0,0,0,.92-.17,1.65,1.65,0,0,0,.79-.44,18.54,18.54,0,0,0,2.64-4.45,2.82,2.82,0,0,0,0-.92c.16,0,.38.06.47,0a4.62,4.62,0,0,0,1.64-2.25.61.61,0,0,0-.1-.43.54.54,0,0,0-.83-.13A3.27,3.27,0,0,0,80.51,203a1.35,1.35,0,0,0,.16.45,1.27,1.27,0,0,0-1.13.61,28.44,28.44,0,0,0-1.9,3.63,4.83,4.83,0,0,1-1.34,1.83c-.1,1.08-.46,2.15,0,3.23a3.85,3.85,0,0,0-.47-.08,1.45,1.45,0,0,0-1.29.41,31.57,31.57,0,0,0-2.89,4.35q-1.34,2.25-2.75,4.45a2.21,2.21,0,0,1-.73.57.45.45,0,0,1-.39,0c-.11-.08-.25-.27-.22-.36a82.82,82.82,0,0,1,5-10.23c.89-1.68,1.76-3.37,2.63-5.06a6.43,6.43,0,0,0,.65-2.28,1.56,1.56,0,0,0,.48-1.6A8.6,8.6,0,0,1,76.2,202.08Zm20.16-6.74a2,2,0,0,0,1.85-.32c.69-.14,1,.07.81.61a53,53,0,0,1-2.58,7.69c-.18.4.14.86.71,1a3.67,3.67,0,0,0,.94.12,1.45,1.45,0,0,0,1.19-.67,13.91,13.91,0,0,0,1.43-3.53c1-3.35,2-6.71,3.08-10.06.66-2.14,1.14-4.32,1.63-6.49a2.54,2.54,0,0,0,0-.95.72.72,0,0,0-.62-.61,1,1,0,0,0-.9.21,5.6,5.6,0,0,0-1,1,81.91,81.91,0,0,0-4.83,9.87,2.16,2.16,0,0,0,.17,1.82c-.67-.18-1.25.18-1.87.31-.09.43-.18.87-.28,1.3a2.39,2.39,0,0,0,.08,1.3,2.5,2.5,0,0,0-.47,0,.83.83,0,0,0-.42.17,12.54,12.54,0,0,0-2.79,3.2.72.72,0,0,0,.18.84,1.32,1.32,0,0,0,2-.27,12.79,12.79,0,0,0,1.34-4,1.88,1.88,0,0,0,.37-2.1A1.33,1.33,0,0,1,96.36,195.34ZM98,228.65c-.32,0-.34-.05-.06-.12l-.14.21a4.33,4.33,0,0,1,.39-.81,2.58,2.58,0,0,0,.56-1.7,1.57,1.57,0,0,0,1.21-.63,13.23,13.23,0,0,0,2.11-3.18,27.58,27.58,0,0,1,4.9-7,6,6,0,0,0,1-1.6c.17-.33-.05-.62-.4-.76a1,1,0,0,0-.9,0,6.86,6.86,0,0,0-2.79,2.55A102.13,102.13,0,0,0,99,224.93a4.9,4.9,0,0,0-.21,1.41,1.55,1.55,0,0,0-.65,1.06C98.08,227.82,98,228.25,98,228.65Zm10.91,5.06a6.29,6.29,0,0,0-.08-3.28,2.38,2.38,0,0,1,.45-.15c1.37-.21,1.43-.24,2-.95,2.29-2.65,4.59-5.29,6.87-7.94.21-.24.37-.52.57-.77a1,1,0,0,0-.55-1.52.9.9,0,0,0-.91.08,7.28,7.28,0,0,0-1.06.93,45.56,45.56,0,0,0-5.62,8.28c-.3.56-.64,1.1-1,1.63a1.07,1.07,0,0,1-.81.43,6,6,0,0,1-.08,1.74,3,3,0,0,0,.29,1.7,3.18,3.18,0,0,1-.43-.06c-.72-.22-.71-.21-1.07.23s-.26.53,0,.63a.48.48,0,0,0,.39-.14C108.23,234.28,108.42,233.84,108.86,233.71Zm-14.8-56.26a.65.65,0,0,0-.61.59s.27.18.28.16a.9.9,0,0,0,.2-.86.88.88,0,0,0,.78-.39c.24-.39.48-.78.69-1.18s.08-.62-.23-.72a.69.69,0,0,0-.8.2A2.74,2.74,0,0,0,94.06,177.45Zm-64.4,15.43a2.33,2.33,0,0,0,0-.91,15.34,15.34,0,0,0-.94-1.61c-.23-.36-.49-.42-.69-.16a.8.8,0,0,0-.16.41,2.24,2.24,0,0,0,1.42,2.19c.13.06.31,0,.47,0a.79.79,0,0,0,0,.34s.24.08.24.07C30.11,193,30,192.84,29.66,192.88Zm62-5a2.31,2.31,0,0,1,.1-1.4c.11-.5,0-.66-.36-.42-.08,0-.06.3,0,.46.08.47.19.93.29,1.4-.49.34-1.18.41-1.37,1.16s-.43,1.19-.63,1.79a.45.45,0,0,0,.09.41c.19.13.34-.1.58-.42a5.57,5.57,0,0,0,.78-2.22A1.24,1.24,0,0,1,91.65,187.84Zm1.11,6.67c-.05.29-.11.59-.16.88.12-.07.32-.11.35-.21a.62.62,0,0,0-.34-.77,1.23,1.23,0,0,0,1.25-.45,40.4,40.4,0,0,0,3.47-6.65,4.29,4.29,0,0,0,.26-2.29l.29,0-.15-.15a5.62,5.62,0,0,1-.92,1,6.07,6.07,0,0,0-2.28,3.35C93.94,191,93.32,192.74,92.76,194.51ZM83,216.34c-.35-.14-.38-.21-.11-.21,0,0,0,.2,0,.31a1.9,1.9,0,0,0-2.08.71,71.36,71.36,0,0,0-5.32,7.16,5.4,5.4,0,0,0-.44.82,2.25,2.25,0,0,0-.11,1.38l-.26.1.15-.22a1.58,1.58,0,0,0,1.26-.53c.9-1.1,1.77-2.22,2.61-3.37a17.47,17.47,0,0,1,2.57-3.37,3.88,3.88,0,0,0,.7-1.23A3.87,3.87,0,0,1,83,216.34Zm7.7,9.38a3.68,3.68,0,0,1,0,.93c-.07.38-.12.63,0,.78a.88.88,0,0,0,.16-.32,1.84,1.84,0,0,0-.06-.47c0-.32-.11-.63-.16-.94a1.79,1.79,0,0,0,1.5-1c.21-.43.47-.82.67-1.25q2.82-6.27,5.62-12.54a4.63,4.63,0,0,0,.21-.91.7.7,0,0,0-.33-.83.74.74,0,0,0-.85.08,2.76,2.76,0,0,0-.65.67,19.7,19.7,0,0,0-2.42,5.12c-.76,2.4-1.48,4.83-2.25,7.23-.28.91-.61,1.79-1,2.67A3.52,3.52,0,0,1,90.66,225.72ZM94,229.23a.75.75,0,0,0-.49.69s.29.09.31.05a.81.81,0,0,0,0-.86,1,1,0,0,0,.81-.43,60.43,60.43,0,0,0,3.63-7.24,56.45,56.45,0,0,1,5-9.2,1.05,1.05,0,0,0,.18-.44,1.5,1.5,0,0,0,0-.47.9.9,0,0,0-1.39-.67,2.4,2.4,0,0,0-.7.64,52.31,52.31,0,0,0-2.42,4.64c-.74,1.76-1.54,3.5-2.39,5.2s-1.47,3.17-2.1,4.81A6.66,6.66,0,0,0,94,229.23Zm20.12-28.66a6.11,6.11,0,0,1,.43-2.31c.68-1.78,1.34-3.55,2-5.34a2.66,2.66,0,0,0,.2-.91,1.74,1.74,0,0,0-.22-.9,3.51,3.51,0,0,0-1.41-1.23,1.31,1.31,0,0,0-1.63.52c-.33.88-.7,1.76-1,2.67-1.19,3.93-2.58,7.8-4.08,11.63-.46,1.17-.88,2.37-1.31,3.56a1.14,1.14,0,0,0,.57,1.17.9.9,0,0,0,.91.06c.93-.39,1.39-1.25,2-2a1,1,0,0,1,.84-.34,3.75,3.75,0,0,1-.31,1.81,7.84,7.84,0,0,0-.46,1.31,1.34,1.34,0,0,0,.51,1.22c.35.31.71.63,1.22.49a1.54,1.54,0,0,0,.79-.41c.78-1,1.49-2,2.26-3a3.41,3.41,0,0,1,.75-.51,8.86,8.86,0,0,1-.78,2.18,9.75,9.75,0,0,0-1.06,2.56,1,1,0,0,0,.23.87,5.75,5.75,0,0,0,3.22,1.69,2.1,2.1,0,0,0,.9-.16l1.32-.39c-.06.32-.11.63-.18.94a1.9,1.9,0,0,0,.9,2,2.26,2.26,0,0,0,.81.48,4.47,4.47,0,0,1,2.74,1.76,7.32,7.32,0,0,0,1,.95,1,1,0,0,0,1.24-.26c.5-1.17,1-2.31.33-3.62-.21-.39,0-.94.32-1.33,1-1.42,2.08-2.82,3.11-4.23a28,28,0,0,0,2.92-5.45,1.26,1.26,0,0,0-1.27-1.55,1.94,1.94,0,0,0-.84.38c-.54.39-.66,1.07-1,1.58a1.53,1.53,0,0,1-1.15.73c-.32,0-.63.09-.94.14h0a1.53,1.53,0,0,0,.42-.22,4.13,4.13,0,0,0,1.27-3.39,1.75,1.75,0,0,0-1.25-1.27,1.22,1.22,0,0,0-1.16.61c-.5.79-1,1.6-1.45,2.42-.78,1.37-1.51,2.76-2.32,4.11-.13.23-.5.31-.77.46a12.1,12.1,0,0,1,.45-1.82c.5-1.15,1.08-2.27,1.67-3.38a22.52,22.52,0,0,0,1.31-3,3.32,3.32,0,0,0-.36-3.14,9.05,9.05,0,0,0-2.08-2.53.58.58,0,0,0-.84,0,3.53,3.53,0,0,0-.7.62,18.92,18.92,0,0,0-1.46,3,27.6,27.6,0,0,1-3.73,6.52c0-.16,0-.32,0-.48a17.54,17.54,0,0,1,2.91-8,10.91,10.91,0,0,0,1-1.65,8.79,8.79,0,0,0,.45-1.34,1,1,0,0,0-.21-.9,2.48,2.48,0,0,0-1.49-1.08,1.17,1.17,0,0,0-1.27.41c-.43.84-.88,1.68-1.28,2.54a26.32,26.32,0,0,1-2.22,4.2A2.49,2.49,0,0,1,114.1,200.57Zm-29.89-25.7a5.58,5.58,0,0,1,.59-1.81c.43-.85.85-1.71,1.25-2.58a1.81,1.81,0,0,0-.64-2.12,3.47,3.47,0,0,0-.37-.3,1.63,1.63,0,0,0-2.49.34c-1,1.78-2.06,3.59-3.09,5.38a29.61,29.61,0,0,0-2.86,7.08c-.75,2.76-1.47,5.54-2.44,8.25a3.43,3.43,0,0,0-.11.46,1.93,1.93,0,0,0,.44,1.78,5.4,5.4,0,0,0,2.34,1.6,1.1,1.1,0,0,0,1.18-.56,6.14,6.14,0,0,0,.48-1.34,74.52,74.52,0,0,1,2-8.85,27.31,27.31,0,0,1,2.84-6.56,1.92,1.92,0,0,1,1-.94,4.78,4.78,0,0,1-.46,2.32,77,77,0,0,0-4.15,16.71,1.28,1.28,0,0,0,.6,1.2c.32.24.93,0,1.19-.43a18.62,18.62,0,0,0,2.08-4.83c.31-1.24.61-2.48.9-3.73a38.13,38.13,0,0,1,2.78-8.65c.58-1.14,1.19-2.26,1.76-3.4.29-.57.53-1.16.76-1.75a.65.65,0,0,0-.09-.46,1.43,1.43,0,0,0-2.38-.29l-.59.76c-.58.76-1.13,1.54-1.75,2.27A2.8,2.8,0,0,1,84.21,174.87ZM54,175.45a4.41,4.41,0,0,1,.48-.82,11.63,11.63,0,0,0,2.74-5,38.6,38.6,0,0,0,1.29-5.11A33.79,33.79,0,0,1,60.15,158a.8.8,0,0,0,0-.46.71.71,0,0,0-.24-.4.5.5,0,0,0-.43,0,1.91,1.91,0,0,0-.7.58c-1.18,2.27-2.07,4.67-3,7-.42,1-.82,2.09-1.31,3.09a3.78,3.78,0,0,1-1,1,.75.75,0,0,1-.88,0,.86.86,0,0,1-.39-.83,13.85,13.85,0,0,1,.2-1.42,35.64,35.64,0,0,1,2.16-6.34,15.45,15.45,0,0,0,1.28-3.6,1.21,1.21,0,0,0-.57-1.2c-.76-.24-1.53-.46-2.3-.66a1.33,1.33,0,0,0-1.21.61c-.24.41-.5.81-.72,1.24a53.75,53.75,0,0,0-3.59,10.4,1.8,1.8,0,0,0,.59,1.74c1.28,1.21,2.58,2.38,3.86,3.59.69.66,1.37,1.33,2,2a.89.89,0,0,1,.06.9,1.21,1.21,0,0,1,1.33.07c1,.81,1.91,1.68,2.89,2.48a6.22,6.22,0,0,0,1.21.74.55.55,0,0,0,.79-.26c.8-1.89,1.55-3.81,2.38-5.7a30.79,30.79,0,0,0,2-6.34A26.84,26.84,0,0,1,66.43,160c.13-.28-.21-1-.54-1.23a2.07,2.07,0,0,0-3.2.82,26.32,26.32,0,0,0-1.23,3.6,44.59,44.59,0,0,1-2.31,6.25c-1.31,3.05-1.88,3.66-4.77,5.71Zm27-8.26a1.33,1.33,0,0,0-.3-1.33,1.42,1.42,0,0,0-2.09-.17,23,23,0,0,0-3.84,5.45,66.46,66.46,0,0,0-5.19,11.27,4.24,4.24,0,0,1-.78,1.18.78.78,0,0,1-.86.23.87.87,0,0,1-.51-.73,1,1,0,0,1,0-.47c.54-1.33,1.13-2.63,1.67-4a78.08,78.08,0,0,1,6.06-11.92c.41-.68.74-1.4,1.09-2.12A1.18,1.18,0,0,0,75.07,163a3.22,3.22,0,0,0-3.4,2.09c-.31.73-.6,1.48-.84,2.23-1.06,3.34-2.09,6.69-3.18,10a35.06,35.06,0,0,0-1.41,6.52,1.79,1.79,0,0,0,.37,1.35,11.77,11.77,0,0,0,4.47,3.49,1.32,1.32,0,0,0,1.27-.38,4,4,0,0,0,.45-.83c.38-1.39.76-2.77,1-4.17a33.52,33.52,0,0,1,3.28-8.95c.53-1,1.09-2,1.61-2.93C79.49,170,80.21,168.6,81,167.19Zm20.62,37.75c-.42,1.14-.13,1.8.5,2.14a4.85,4.85,0,0,0,2.22.8,1.31,1.31,0,0,0,.85-.33,5,5,0,0,0,.85-1.14c2.87-5.4,4.43-11.27,6.07-17.1a2.68,2.68,0,0,0-.64-2.68c-.44-.46-.89-.91-1.37-1.34-.23-.2-.55-.31-.8-.51-.44-.35-1.35,0-1.54.65-.6,1.82-1.2,3.64-1.78,5.46-.48,1.52-1,3-1.38,4.58A51.73,51.73,0,0,1,101.57,204.94Zm-34-13.28a4.12,4.12,0,0,0-1.19.63c-.87.92-1.65,1.93-2.5,2.88a4.75,4.75,0,0,1-1.12.87.55.55,0,0,1-.8-.26.67.67,0,0,1-.09-.43,40.68,40.68,0,0,1,2-4.84,7.89,7.89,0,0,0,.56-1.81,2.64,2.64,0,0,0-.26-1.38A3.56,3.56,0,0,0,62.88,186a1.33,1.33,0,0,0-1.33.09c-1.71,1.89-3.16,4-4.68,6a.86.86,0,0,0-.18.44,2,2,0,0,0-.08.92c.46,1.19,1,2.36,1.52,3.5a43.77,43.77,0,0,0,3.2,5.86.64.64,0,0,0,1.12,0,90.32,90.32,0,0,0,5.58-10,1.59,1.59,0,0,0,0-.89C68,191.86,67.79,191.79,67.6,191.66ZM98.81,239a2.15,2.15,0,0,0,.87,1.08,1.36,1.36,0,0,0,1.73-.21,7,7,0,0,0,.77-1.2,54.61,54.61,0,0,1,4-7.09c2.06-3.42,4.17-6.79,6.43-10.08.64-.91,1.23-1.86,1.81-2.81a8.47,8.47,0,0,0,.38-.87c.19-.41-.18-.92-.72-1a.85.85,0,0,0-.45,0,7.18,7.18,0,0,0-2.16,1.87c-.64.77-1.64.95-2.38,1.56a4.25,4.25,0,0,0-.67.67,45.54,45.54,0,0,0-5.33,8.49c-1.13,2.46-2.39,4.86-3.59,7.29a9,9,0,0,0-.54,1.33A4.08,4.08,0,0,0,98.81,239Zm-11.53-17.2c-.06-.67-.1-1.31-.16-1.94-.08-1-.18-1.9-.27-2.85a.76.76,0,0,0-.58-.69,1,1,0,0,0-.88.11,6,6,0,0,0-1.85,2.15,9.8,9.8,0,0,1-2.17,3.11,2.71,2.71,0,0,0-.62.73c-1,2-2.64,3.58-3.57,5.64a19.91,19.91,0,0,1-1.49,2.44,3.9,3.9,0,0,1-2.2,1.72,5.59,5.59,0,0,0-.86.4.91.91,0,0,0,0,1.55,11.23,11.23,0,0,0,1.71.83,1.22,1.22,0,0,0,.92,0,16.9,16.9,0,0,0,4.56-3.41,4.18,4.18,0,0,0,.58-.75c1.66-2.73,3.17-5.52,3.46-8.8a2.24,2.24,0,0,1,.4-.84.72.72,0,0,1,.39-.24.51.51,0,0,1,.68.4c.15.94.19,1.89.3,2.84,0,.1.24.22.38.26a.67.67,0,0,0,.41-.08,1.57,1.57,0,0,0,.76-1.14C87.22,222.7,87.24,222.22,87.28,221.78Zm-1-19.59a1,1,0,0,0-.89.16,10.8,10.8,0,0,0-2.4,2.94c-1.36,2.15-2.64,4.34-4,6.49-1.88,2.94-3.81,5.86-5.71,8.78-.44.67-.88,1.33-1.3,2A20.82,20.82,0,0,0,70.42,226a7.18,7.18,0,0,0-.2.92,1,1,0,0,0,.67,1.07.63.63,0,0,0,.82-.3A56.91,56.91,0,0,1,75,222.43c1.31-1.79,2.59-3.61,3.85-5.44A59.48,59.48,0,0,1,83,211.23a12.63,12.63,0,0,0,1.35-2c1.05-1.78,2.07-3.58,3.09-5.37a1.2,1.2,0,0,0-.69-1.54C86.64,202.29,86.48,202.25,86.33,202.19Zm5.5-29.33a1.66,1.66,0,0,0-1.15.79,28.49,28.49,0,0,0-2.56,6.17c-.41,1.54-.84,3.07-1.15,4.64a33.94,33.94,0,0,1-2.36,7.76,21.72,21.72,0,0,0-1,2.7,6.55,6.55,0,0,0-.13,1.41,1.25,1.25,0,0,0,.82,1.06,1.6,1.6,0,0,0,1.71-.52,10.68,10.68,0,0,0,.55-1.31c.35-1.23.59-2.48,1-3.7,1.76-5.45,3.13-11,5.31-16.36a4.84,4.84,0,0,0,.22-.93,3.83,3.83,0,0,0,0-.47A1.59,1.59,0,0,0,91.83,172.86ZM23.09,149v-.14l-4.29,0c-.39,0-.58.21-.53.62a.76.76,0,0,0,.17.4,12.59,12.59,0,0,0,6.26,3.26c.5.11.82-.32,1.16-.67.54-.56.57-.54,1.11,0s.8.59,1.11.19a9,9,0,0,0,.55-.78.85.85,0,0,1,.73-.44c.34,0,.63.53.6,1.16-.05,1-.1,1.9-.13,2.85a.77.77,0,0,0,.12.46,1.88,1.88,0,0,0,1.2.68.82.82,0,0,0,.84-.34,8.33,8.33,0,0,0,.65-1.26,6.59,6.59,0,0,1,2.07-2.58c.37-.29.8-.51,1.17-.8a.51.51,0,0,0,.11-.43.5.5,0,0,0-.24-.34,14.46,14.46,0,0,0-4.64-.93,5.44,5.44,0,0,1-1.88-.25,8.38,8.38,0,0,0-2.81-.48C25.31,149.12,24.2,149.05,23.09,149Zm96.7,74.53a4.73,4.73,0,0,0-1.2.47,15.71,15.71,0,0,0-3,3.06,94.5,94.5,0,0,0-7,10.24c-1.09,1.75-2.08,3.56-3.21,5.28a.69.69,0,0,0-.11.46.52.52,0,0,0,.24.34,1.11,1.11,0,0,0,1.31,0,5.5,5.5,0,0,0,1.32-1.36c.76-1.2,1.34-2.53,2.15-3.7,1.17-1.7,2.34-3.39,3.4-5.16a6.42,6.42,0,0,1,2.26-2.42,13.31,13.31,0,0,0,3.8-3.56,8,8,0,0,0,1.34-1.95,1.13,1.13,0,0,0-.4-1.25C120.49,223.78,120.19,223.69,119.79,223.52ZM10.17,149.39a8.94,8.94,0,0,0,2.23,4.12.78.78,0,0,0,.86.27c.3-.09.6-.18.91-.25a.73.73,0,0,1,.81.24.87.87,0,0,1,0,.91,11.09,11.09,0,0,0-.74,1.74,2.35,2.35,0,0,0,0,1.39,27.37,27.37,0,0,0,2.18,4.73.75.75,0,0,0,.39.26.58.58,0,0,0,.75-.31c.57-1.51.23-3.14.59-4.68a1.39,1.39,0,0,1,.82-1.06c.44-.18.89-.3,1.33-.48a1.22,1.22,0,0,0,.32-1.63,6.21,6.21,0,0,0-1-.95,62.13,62.13,0,0,0-8.8-4.65.54.54,0,0,0-.43,0C10.29,149.12,10.24,149.28,10.17,149.39Zm61.2,12.31a.86.86,0,0,0-.52-.73,1.5,1.5,0,0,0-1.7.51,9.44,9.44,0,0,0-.94,1.63c-1.58,3.63-2.85,7.39-4.58,11a9.11,9.11,0,0,0-.91,3.67,7.94,7.94,0,0,1-.8,2.71.76.76,0,0,0,.17.88,9.2,9.2,0,0,0,1,.95.94.94,0,0,0,1.48-.53,9.7,9.7,0,0,1,.57-3.24,56,56,0,0,0,2.47-7.69c.25-.92.46-1.85.73-2.76a15.63,15.63,0,0,1,2.69-5.51A2.53,2.53,0,0,0,71.37,161.7Zm-33-4.88c-.11.39-.45,1.44-.72,2.51a1.62,1.62,0,0,0,.64,1.66,4.85,4.85,0,0,0,1.63.95,1.37,1.37,0,0,0,1.25-.44,6.16,6.16,0,0,0,.58-1.29c.56-2.46,1.08-4.93,1.61-7.4a1.26,1.26,0,0,0-.74-1.1,3.29,3.29,0,0,0-.44-.16A2.23,2.23,0,0,0,39,153.33C38.85,154.26,38.7,155.2,38.41,156.82Zm-10.26,6c.38-.69.58-1.46,1.39-1.82a.72.72,0,0,0,.09-1.16c-1.17-.82-2.31-1.66-3.53-2.41a7.41,7.41,0,0,0-1.79-.61,1.15,1.15,0,0,0-1.1.69c-.12.62-.28,1.24-.38,1.86-.49,3.14-.66,6.32-1.22,9.45,0,.11.11.26.18.39a.68.68,0,0,0,.81.37,2,2,0,0,0,.87-.3,1.41,1.41,0,0,0,.37-.85c.19-1.57.32-3.16.51-4.73.09-.79.27-1.56.43-2.34a1.42,1.42,0,0,1,1.39-1.06,4.19,4.19,0,0,1,.94.15,1.29,1.29,0,0,1,.89,1A12.94,12.94,0,0,1,28.15,162.84Zm18.73-10a1.9,1.9,0,0,0-1.5,1,28.3,28.3,0,0,0-1.67,6.46,2.12,2.12,0,0,0,1.19,1.92c.7.25,1.4.09,1.6-.54.53-1.67,1.3-3.25,1.94-4.88a9.7,9.7,0,0,0,.49-1.83,2.16,2.16,0,0,0-.14-.93A2.4,2.4,0,0,0,46.88,152.88Zm40.75,73.73c-.25.18-.59.31-.71.55a29.94,29.94,0,0,0-2.16,5.77,3.2,3.2,0,0,0,0,1.41c0,.27.32.5.49.75a13.39,13.39,0,0,1,3.17.85c.38.13.92-.24,1.06-.74a16.25,16.25,0,0,0,.44-1.83c.13-.7-.11-1.08-.89-1.39a1.71,1.71,0,0,1-.77-.51,2.75,2.75,0,0,1-.61-2.22,6.86,6.86,0,0,0,.31-2.34C88,226.8,87.75,226.71,87.63,226.61Zm2.92-22.12a1.42,1.42,0,0,0-1.16.69,42.81,42.81,0,0,1-4.57,7.26.6.6,0,0,0-.07.46c.1.39.35.47.72.27a9.44,9.44,0,0,1,3-1.43,1.24,1.24,0,0,0,.69-.6c.46-.83.88-1.69,1.29-2.55a10,10,0,0,1,1.63-2.34c.32-.35.21-.8-.23-1.22A1.71,1.71,0,0,0,90.55,204.49Zm3.74,2.39c-.26.17-.64.29-.75.53-1.51,3.15-2.93,6.35-4.14,9.63a3.06,3.06,0,0,0,0,1.41A.55.55,0,0,0,90,219a.74.74,0,0,0,.43-.15,2.44,2.44,0,0,0,.52-.77,36.65,36.65,0,0,1,3.52-7.82c.33-.54.6-1.12.88-1.69a1,1,0,0,0,.11-.46.92.92,0,0,0-.36-.82A4.24,4.24,0,0,0,94.29,206.88ZM28.17,176a23.93,23.93,0,0,1,3.42.55,5.22,5.22,0,0,0,1.42,0,.69.69,0,0,0,.4-.26.57.57,0,0,0-.09-.79,2.67,2.67,0,0,0-1.18-.76,38.49,38.49,0,0,0-9-1,2.5,2.5,0,0,0-.94.18,1.47,1.47,0,0,0-.68.57.59.59,0,0,0,.18.81C23.65,176.05,25.74,175.94,28.17,176Zm13.68-3.47a.6.6,0,0,0,.28.85A5.77,5.77,0,0,1,44,174.69c.32.37.73.31,1.23-.06l1.5-1.12a.56.56,0,0,0,.16-.82,6.09,6.09,0,0,0-2.36-2.2,1.06,1.06,0,0,0-.87,0A4.4,4.4,0,0,0,41.85,172.49Zm-4.47-1.36a1.34,1.34,0,0,0,.22.41,3.87,3.87,0,0,0,.72.56c.81.48,1.6.16,1.69-.75A2.9,2.9,0,0,1,41.24,169c.42-.27.38-.81,0-1.19a9.93,9.93,0,0,0-1.08-.86,1,1,0,0,0-1.23.36,15.22,15.22,0,0,0-1.5,3.38A2.37,2.37,0,0,0,37.38,171.13ZM88.74,239a4.44,4.44,0,0,0-.68-.59,9.09,9.09,0,0,0-2.66-1,1,1,0,0,0-.47,0,2.45,2.45,0,0,0-1.44,1.19,1.17,1.17,0,0,0,.07.9,4.2,4.2,0,0,0,3,2.19c.54.1,1.07-.14,1.1-.61.05-.74.66-1,1-1.47C88.74,239.45,88.7,239.25,88.74,239ZM32.87,169.79a3.67,3.67,0,0,0,.6.64.78.78,0,0,0,.88-.11,2.66,2.66,0,0,0,.95-1,17.53,17.53,0,0,0,1.49-4.45,1.26,1.26,0,0,0-.59-1.18c-.29-.24-1,0-1.17.46q-1.11,2.6-2.21,5.19C32.77,169.45,32.85,169.63,32.87,169.79Zm3.51-13.63c0-.77,0-1.24,0-1.7a2.49,2.49,0,0,0,0-.47c-.06-.38-.27-.6-.56-.52a1.4,1.4,0,0,0-.79.41,7.29,7.29,0,0,0-1.2,3.47,1.78,1.78,0,0,0,.35.82,1,1,0,0,0,.39.25c1,.45,1.65.18,1.73-.71C36.3,157.09,36.35,156.47,36.38,156.16ZM128,225a.73.73,0,0,0-.7.47.64.64,0,0,0,0,.45,6.25,6.25,0,0,0,2.1,2.43.66.66,0,0,0,1-.44,1.54,1.54,0,0,0-.24-1.32,10,10,0,0,0-1.29-1.31A2.54,2.54,0,0,0,128,225Zm2.6-32.19a5.94,5.94,0,0,0-.3-2.31,1,1,0,0,0-.65-.61.62.62,0,0,0-.82.31,3.53,3.53,0,0,0,.2,3.18.92.92,0,0,0,.8.46.68.68,0,0,0,.64-.53A4.5,4.5,0,0,0,130.63,192.82Zm-5-5.34c-.36.14-.8.28-1.22.47a.84.84,0,0,0-.36,1.47,3.19,3.19,0,0,0,1.93,1.16.56.56,0,0,0,.69-.48,3,3,0,0,0-.18-2.25A.81.81,0,0,0,125.62,187.48ZM88.87,198.92c0-.5,0-1.13,0-1.75,0-.14-.06-.38-.15-.41s-.37.16-.52.52-.42.83-.6,1.25a1,1,0,0,0,0,.46.58.58,0,0,0,.58.57C88.49,199.57,88.72,199.37,88.87,198.92ZM54.34,221.35c-.32-.2-.68-.19-.79.14a.73.73,0,0,0,.42.76,5.93,5.93,0,0,0,1.28.46.42.42,0,0,0,.57-.45.47.47,0,0,0-.23-.34C55.18,221.71,54.76,221.54,54.34,221.35Zm-3.17-3.54a1.9,1.9,0,0,0-.38.17.51.51,0,0,0-.13.75A.71.71,0,0,0,51,219c.36.14.6-.32.45-.9C51.41,218,51.26,217.9,51.17,217.81ZM33.06,161.89a.88.88,0,0,0-.43.75.71.71,0,0,0,.42.75c.31.1,1-.44,1-.76a.51.51,0,0,0-.21-.38A6.47,6.47,0,0,0,33.06,161.89ZM91.61,237l.21.27.09-.28Zm1.11-55.05a3.17,3.17,0,0,0,0-.43s-.18,0-.28,0a2.06,2.06,0,0,0,0,.43A.94.94,0,0,0,92.72,181.94Zm-.88,61.22v.25l.29-.11Zm-48.5-78.89c.07.12.12.29.22.33a.36.36,0,0,0,.32-.18c.09-.38-.06-.58-.36-.51C43.44,163.94,43.4,164.15,43.34,164.27Z"/><path d="M70.06,117a1.88,1.88,0,0,1-1.23-.64,4.37,4.37,0,0,1-1.15-2.56,1.21,1.21,0,0,1,1.13-1.27,6.6,6.6,0,0,1,1.41.09c.77.18,1.51.5,2.29.67a6.13,6.13,0,0,0,3.29-.09,4.52,4.52,0,0,0,.85-.43.93.93,0,0,0,.08-1.25,7.57,7.57,0,0,0-1.17-.8,13.64,13.64,0,0,0-5.5-1.43,8.52,8.52,0,0,1-1.42-.13,1.75,1.75,0,0,1-.85-.39,8.93,8.93,0,0,1-2.46-4,26.17,26.17,0,0,1-.62-2.79,7.48,7.48,0,0,1,0-1.42,2.43,2.43,0,0,1,.08-.47,56.93,56.93,0,0,0,1.64-11.32,30.56,30.56,0,0,1,1-5.62A5.65,5.65,0,0,1,68,81.75c1.29-2.2,1.8-4.76,3.1-7A5.64,5.64,0,0,0,71.72,72a4.52,4.52,0,0,1,.37-2.32.77.77,0,0,1,.79-.38,2.19,2.19,0,0,1,.88.3,7.8,7.8,0,0,1,2.9,4.23l.14-.09a3.92,3.92,0,0,1-.79-.3,2.62,2.62,0,0,0-1.14-.57,1.25,1.25,0,0,0-1-1,1,1,0,0,0-.1-.36c0-.05-.27,0-.27,0,0,.3.13.38.47.27a1,1,0,0,0,1,1,7.44,7.44,0,0,0-.22,1.39c.23,4.07.44,8.16,1.76,12.08a3.74,3.74,0,0,1,.12.45c0,.16.06.31.09.47a2.91,2.91,0,0,1-.91,3l-.16-.12.27,0c0,.16-.09.35,0,.47.38.67.8,1.32,1.2,2a.75.75,0,0,1-.53,1.09,7.22,7.22,0,0,1-.93,0c-.39,0-.63.13-.65.5a.63.63,0,0,0,.17.42c.59.51,1.23,1,1.8,1.51a1.69,1.69,0,0,1,.4.8A3,3,0,0,1,77,99.49h0c-.09-.13-.15-.32-.27-.39a23.39,23.39,0,0,0-2.07-1.17,7,7,0,0,0-1.37-.39c-.47-.11-1-.18-1.31.26s0,.81.59,1c.88.37,1.78.71,2.66,1.09s1.45.65,2.16,1a2.6,2.6,0,0,1,.7.63,1.37,1.37,0,0,1,.11,1.72,1.57,1.57,0,0,1-1.33.33,5.69,5.69,0,0,1-1.76-.7,4.72,4.72,0,0,0-2.3-.54.59.59,0,0,0-.4.25.57.57,0,0,0,.16.79,13.89,13.89,0,0,0,1.28.64c.87.41,1.9.16,2.73.7a.43.43,0,0,1,.05.41c-1.19,1-1.23,1-.6,2.08.22.36.25.6-.08.71-.07,0-.22-.15-.34-.24a3.77,3.77,0,0,1-1.42,0,24.06,24.06,0,0,1-4.54-1.47.68.68,0,0,1-.41-.77c.2-1.77,0-2.39-1.15-3.31a2.78,2.78,0,0,0-.86-.38,1,1,0,0,0-1.06.7c0,.16,0,.32,0,.48a6,6,0,0,0,2.11,4.15,2.17,2.17,0,0,0,.83.45c.77.21,1.55.38,2.33.56a7.43,7.43,0,0,0,4.22-.42c0,.15,0,.31,0,.47a1.77,1.77,0,0,0,.79,1.63,9.58,9.58,0,0,0,1.64,1c1.33.54,2.67,1,4,1.5s2.73.87,4.08,1.35a6.07,6.07,0,0,1,1.24.7.69.69,0,0,1,.31.81.7.7,0,0,1-.62.61,6,6,0,0,1-2.83-.09c-1.39-.35-2.78-.73-4.13-1.18a8.81,8.81,0,0,0-3.77-.45,26.7,26.7,0,0,1-6.19-.1.76.76,0,0,0-.45.13.77.77,0,0,0-.45.74c.09.78.74,1.42.62,2.27ZM73.42,96.4a1.39,1.39,0,0,0-.67-1.59,11.26,11.26,0,0,1-2.67-1.92,2.88,2.88,0,0,0-.29-.9A4.08,4.08,0,0,1,69,88.86c0-.36-.28-.55-.61-.49a.78.78,0,0,0-.39.21,2,2,0,0,0-.24,2.24,3.81,3.81,0,0,0,2,2,1.82,1.82,0,0,0,.47,0c0,.48-.05.95,0,1.43a1.53,1.53,0,0,0,1.07,1.4c.76.22,1.51.45,2.3.64a8.65,8.65,0,0,0,.86.16s.17-.2.14-.26C74.38,95.83,74.19,95.88,73.42,96.4Zm-1.7-15.66c.42.13.86.28,1.32.4s.87-.33.87-.84a1.44,1.44,0,0,0-.57-1.23,8.58,8.58,0,0,0-1.21-.72,1.24,1.24,0,0,0-1.6.54,2.41,2.41,0,0,0-.34,1.81c.08.41.3.5.62.35S71.39,80.85,71.72,80.74ZM68.43,97.38c0,.1,0-.21-.12-.52a.81.81,0,0,0-.61-.6.71.71,0,0,0-.79.35C66,98,66.27,99,67.62,99.72c.66.35,1.28.43,1.3.16a1.13,1.13,0,0,0-.33-.85C68.26,98.67,68,98.29,68.43,97.38Zm1-12.86c-.11.09-.28.17-.32.29a.48.48,0,0,0,.12.39,8,8,0,0,0,.71.6c.29.23.61.27.82,0a.61.61,0,0,0-.1-.83A1.32,1.32,0,0,0,69.44,84.52Zm4.06-8.47a.61.61,0,0,0-.31-.76.5.5,0,0,0-.74.28.54.54,0,0,0,.31.75A.49.49,0,0,0,73.5,76.05Z"/><path d="M136.81,257.92a1.49,1.49,0,0,1,1.25.58,5.43,5.43,0,0,1,.72,1.23,14.5,14.5,0,0,1,.89,2.73,54.66,54.66,0,0,0,1.72,6.48,16.81,16.81,0,0,1,.6,3.3c.24,3.34.94,6.64,1,10a4.89,4.89,0,0,0,.27,1.41,40,40,0,0,1,1.22,6.59A146.24,146.24,0,0,1,146.14,305c.06,1,.2,1.91.3,2.86a21.52,21.52,0,0,1,.23,2.38c0,3.55.89,7,1.48,10.43a2.82,2.82,0,0,0,.41.86.78.78,0,0,0,.72.47c.06,0,.17-.28.16-.42-.11-1.43-.14-2.88-.38-4.29a32.9,32.9,0,0,1-.45-5.24,40.62,40.62,0,0,0-.55-6.69c-.38-2.2-.37-4.45-.75-6.66a5.87,5.87,0,0,1,.21-1.89,6.23,6.23,0,0,0-.06-2.85,6,6,0,0,1-.24-.93c-.18-1.58-.3-3.18-.5-4.76s-.83-3.09-.95-4.7a42.92,42.92,0,0,0-1.91-9.85,17.93,17.93,0,0,1-.42-8.23c.2.79.36,1.24.43,1.71a58.45,58.45,0,0,0,1.66,7.48,30,30,0,0,1,1,4.67c.43,3.17,1.17,6.28,1.74,9.42a41.66,41.66,0,0,1,.75,6.67,59,59,0,0,0,.85,8.09,55.56,55.56,0,0,1,.66,7.16,40.77,40.77,0,0,0,.75,8.1,9.53,9.53,0,0,1,.18,2.39,30.41,30.41,0,0,0,.94,8.55,4.29,4.29,0,0,1,0,.95.66.66,0,0,1-1,.59c-.41-.17-.85-.64-1.24-.36s-.31.88-.26,1.34a4.67,4.67,0,0,0,.35,1.38c.16.36.23.64-.08.82a.89.89,0,0,1-.9-.06,1.57,1.57,0,0,1-1-1.49,19.17,19.17,0,0,0-.79-7.11c-.87-3.41-1.57-6.85-2.16-10.32a40.83,40.83,0,0,1-.54-4.27,31.69,31.69,0,0,0-.56-5.24,5.28,5.28,0,0,1-.11-1.43,44.79,44.79,0,0,0-.33-4.78,69.22,69.22,0,0,0-1.39-10.45c-.17-.78-.2-1.58-.3-2.38a11.77,11.77,0,0,0-.25-1.89,23.21,23.21,0,0,1-.78-6.15,88.51,88.51,0,0,0-1.17-10c-.94-2.56-1.17-5.29-1.83-7.92a19.3,19.3,0,0,0-1.34-3.07Z"/><path d="M105.59,25.77a1.8,1.8,0,0,1-.47,0,18.31,18.31,0,0,1-4.21-2.19,1.37,1.37,0,0,1-.56-1.26A21.5,21.5,0,0,1,101,19a6.78,6.78,0,0,1,1.3-2.53c.5-.61,1.06-1.18,1.54-1.81A16.29,16.29,0,0,0,106.1,11c.06-.15.14-.29.21-.43.87-1.7,1.81-3.37,2.58-5.11s1.21-3.27,1.82-4.91a1.2,1.2,0,0,1,1.62-.44A5.46,5.46,0,0,1,114,1.85a5.18,5.18,0,0,1,1,2.64,8.56,8.56,0,0,0,.36,2.84l.09-.12a1.44,1.44,0,0,1-1.14-.76,7.39,7.39,0,0,0-.47-.76c-.54.14-.53.68-.75,1a6.37,6.37,0,0,0-.78,2.73,27.57,27.57,0,0,0,.26,6.67,21.14,21.14,0,0,0,1.3,4.58A30.27,30.27,0,0,1,116,30.93a25.45,25.45,0,0,0,.35,3.8,34.64,34.64,0,0,1,.5,6.66,36.43,36.43,0,0,1-.69,9,6.8,6.8,0,0,0-.17,1.42,43.56,43.56,0,0,1-1,7.09,50.3,50.3,0,0,0-1.14,8c0,.73-.54,1.1-1.11,1.42v0a16.23,16.23,0,0,0,.67-4.7A22.78,22.78,0,0,1,114,60,62.61,62.61,0,0,0,115.35,51c.07-1.27.27-2.53.45-3.79a47.92,47.92,0,0,0,.29-9,3.77,3.77,0,0,0-.2-.93,2.31,2.31,0,0,0-1.44-1.74,9.63,9.63,0,0,1-2.2-.91c-1.75-1.09-3.63-2-5.28-3.23a11.37,11.37,0,0,0-3-1.54,5,5,0,0,0-2.8-.29c-.47.09-1,.13-1.42.19l.07.11a1.28,1.28,0,0,1,.54-1.21,2,2,0,0,1,1.75-.51,15,15,0,0,1,3.54,1.33c.54.31,1.2.43,1.73.75.93.57,1.45,0,2-.57l-.09.09a4.06,4.06,0,0,1,1.93,0l.36-.14a.5.5,0,0,1,.66.23c.15,0,.37-.08.46,0,.49.39.93.83,1.42,1.23.33.27.59.19.69-.18a.78.78,0,0,0,0-.45,18,18,0,0,0-7.66-8.69.7.7,0,0,0-.45-.12c-.13,0-.35.22-.33.29a2.38,2.38,0,0,0,.31.87c.53.76,1.48,1.19,1.72,2.18a3.12,3.12,0,0,1-2.44-1,22.82,22.82,0,0,0-1.7-1.55c-.64.3-1.16-.07-1.72-.21-.35-.09-.51.1-.35.44,0,.1.25.15.4.17a4.13,4.13,0,0,0,1.72-.4c-.06.29-.11.58-.19.86a.8.8,0,0,0,.23.81c.44.56,1,1.05,1.06,1.86Zm-1.7-9.89,3,.12a2,2,0,0,0,.84,1.6,6.52,6.52,0,0,0,2.45,1.34,1.41,1.41,0,0,0,.46,0,.72.72,0,0,0,.7-.51.62.62,0,0,0,0-.46,2.48,2.48,0,0,0-.57-.71,6.42,6.42,0,0,0-4-1.19,5.28,5.28,0,0,0-2.06-.06c-.24.05-.51-.14-.77-.21a2.39,2.39,0,0,1-.07,1.4,1.13,1.13,0,0,0,.57,1.2,18.82,18.82,0,0,0,1.63,1c.93.13,1.81.63,2.78.3a1.16,1.16,0,0,0,.17,1.3,21.53,21.53,0,0,0,3.06,2.9c.57.42,1.1.48,1.2.07a1,1,0,0,0-.15-.86,13.41,13.41,0,0,0-2.27-2.37,4.28,4.28,0,0,0-2.14-.94,3.34,3.34,0,0,0-2.84-.28,1.73,1.73,0,0,0-.16-1.26C105.15,17.46,104.26,16.86,103.89,15.88Zm5.31-1.37a1,1,0,0,0,0-.43,1.76,1.76,0,0,0-1.86-1,.58.58,0,0,0-.32.3.49.49,0,0,0,0,.43,2.46,2.46,0,0,0,1.93,1C109,14.81,109.1,14.61,109.2,14.51ZM111,5.63c-.11,0-.26,0-.31.1s-.12.31-.07.39c.24.32.46.26.53-.13C111.14,5.88,111,5.75,111,5.63Z"/><path d="M108,105.92c-.11-.29-.35-.62-.29-.87a19.92,19.92,0,0,0,.64-4.68,10.79,10.79,0,0,1,.51-2.79c.28-.91.51-1.83.71-2.76a28.87,28.87,0,0,0,1-6.08c0-1.91.68-3.73.74-5.65a33.47,33.47,0,0,1,.38-5.21c.5-2.66.7-5.34,1.07-8a13.57,13.57,0,0,0,.05-1.44v-.07a13.76,13.76,0,0,1,.38,4.24c0,.8-.06,1.6-.17,2.38A86.73,86.73,0,0,0,112,85.41a17.51,17.51,0,0,1-.26,1.89c-.17,1.09-.43,2.18-.5,3.29A53.35,53.35,0,0,1,110,97.12c-.94,1.8-.74,3.7-.45,5.6a1.32,1.32,0,0,0,.84,1.07q4,1.42,8.1,2.77a13.24,13.24,0,0,1,2.57,1.24c.25.14.38.47.57.71l.12-.12-2.69,0a.67.67,0,0,0-.67-.52s-.12.29-.08.33a.7.7,0,0,0,.86.06.89.89,0,0,0,.28.84c.61.48,1.26.91,1.86,1.4a4.41,4.41,0,0,1,.55.72l.11-.11a2.86,2.86,0,0,1-1.85.08l-.16,0,.26-.15a1.5,1.5,0,0,0,.46,1.27c.92.86,1.85,1.7,2.81,2.5,1.44,1.21,2.93,2.36,4.36,3.59a3.68,3.68,0,0,1,1.25,2.46c.11,1.07.2,1.44-.94,1.77a5.4,5.4,0,0,1-.9.27,1.76,1.76,0,0,1-.91-.15,33,33,0,0,1-3.36-2.55,1.87,1.87,0,0,1-.65-1.67l-.12.1a2.13,2.13,0,0,0,1.83,0c-.06,0,0,.14-.11.09a12,12,0,0,0-1.28-1.38q-2.58-2.08-5.21-4.09a40.3,40.3,0,0,0-4.76-3.08q-1.44-.82-2.88-1.62a2.47,2.47,0,0,1-1.21-1.37,7,7,0,0,0-.74-1.18l.18.08Z"/><path d="M17.19,141.09a14.42,14.42,0,0,1,2.38.18,27,27,0,0,0,5.2.77,95.63,95.63,0,0,1,10,1.47,19.22,19.22,0,0,0,2.37.31,23.81,23.81,0,0,1,8.37,1.87c2.68,1,5.44,1.85,8,3.13a36.77,36.77,0,0,0,6.41,1.93c1.07.3,2.18.51,3.26.76a21.8,21.8,0,0,1,2.72.93c3.43,1.33,6.72,3,10.15,4.29.26.1.42.44.63.67l.11-.12a6.33,6.33,0,0,1-3.7-.59,50.85,50.85,0,0,0-4.81-2.07,27,27,0,0,1-3.51-1.46,5.56,5.56,0,0,0-2.25-.72,18.21,18.21,0,0,1-5.1-1.13c-1.2-.41-2.43-.72-3.65-1.08-2.08-1.2-4.42-1.76-6.61-2.7a48.55,48.55,0,0,0-5.85-2,16.26,16.26,0,0,0-4.2-.75,14.18,14.18,0,0,1-3.76-.59c-2.29-.66-4.75-.38-7-1.15a3.3,3.3,0,0,0-.95-.09c-.95,0-1.9,0-2.86,0a3.61,3.61,0,0,1-1.4-.2c-1.3-.57-2.76-.79-3.86-1.79Z"/><path d="M2.88,151.5a1.92,1.92,0,0,1-.39-.27,5.37,5.37,0,0,1-1.23-2.52A49.69,49.69,0,0,1,0,142.21a9.13,9.13,0,0,1,.11-1.88,2,2,0,0,1,1.14-1.42,2.61,2.61,0,0,1,.88-.33c1.1-.14,2.19-.31,3.3-.35a11,11,0,0,1,2.34.26c.77.16,1.5.48,2.27.66a31,31,0,0,0,6,1.15,1.51,1.51,0,0,1,1.11.79l0-.13a13.92,13.92,0,0,1-6.51-.81,5.78,5.78,0,0,0-1.85-.35c-1.58-.1-3.15-.18-4.73-.19a9.13,9.13,0,0,0-1.86.3,1.7,1.7,0,0,0-1,1.45,2.48,2.48,0,0,0,0,.47c.47,2.47.5,5,1.28,7.45a12.07,12.07,0,0,1,.27,2.34Z"/><path d="M91.8,69.64l1.28-3.09a14.75,14.75,0,0,0,1.43-5,9.77,9.77,0,0,0,0-3.81,10,10,0,0,1-.21-1.9c-.1-2.87-.14-5.74-.27-8.62a11.07,11.07,0,0,1,1-5.1,2.16,2.16,0,0,1,1.37-1.21l0-.07c-.35,1-.68,2.1-1.06,3.13a8.84,8.84,0,0,0-.48,3.26c0,1.58,0,3.15.08,4.73.07,1.42.2,2.83.38,4.24a33.51,33.51,0,0,1,.35,4.24,11,11,0,0,1-.77,4.17,27.73,27.73,0,0,1-2,4.27,1.46,1.46,0,0,1-1.16.7Z"/><path d="M78.63,158.36a5.21,5.21,0,0,1,2.28.29c.45.06.81-.34.76-.91a3.61,3.61,0,0,1-.06-1.39l-.13.08a2.25,2.25,0,0,1,1.54,1,13.43,13.43,0,0,1,1.76,3.38,4,4,0,0,0,2,2,7,7,0,0,0,1.34.5,13,13,0,0,1,4.27,2.11c.76.58,1.59,1.06,2.39,1.58a13.46,13.46,0,0,1,2.65,2,3,3,0,0,1,.39.84l.08-.1a2,2,0,0,1-1.34-.31c-1.84-1.23-3.64-2.49-5.5-3.68A9.37,9.37,0,0,0,85.3,164l.16.1a3.54,3.54,0,0,0-1.32-1.83c-.85-.65-1.76-1.23-2.65-1.82s-1.58-.94-2.33-1.46c-.22-.16-.31-.5-.46-.76Z"/><path d="M120.77,124.8c-.9.32-1.77.64-2.13,1.66a4.63,4.63,0,0,1-.48.79.75.75,0,0,1-.79.39c-.09,0-.19-.24-.21-.39a7,7,0,0,1,0-.92,4.87,4.87,0,0,0,0-.93,2.17,2.17,0,0,0-.44-.8.72.72,0,0,0-.84-.22.79.79,0,0,0-.44.75,14.73,14.73,0,0,0,.72,2.7c.16.92.42,1.82.59,2.74.12.61.16,1.23.24,1.85l.13-.07a1.24,1.24,0,0,1-.4-.25,7.13,7.13,0,0,1-1.39-2.91,48.62,48.62,0,0,0-2.16-6.68c-.27-.73-.55-1.46-.75-2.22a8,8,0,0,1-.1-1.39l-.11.12a4.32,4.32,0,0,1,.69.58,4.8,4.8,0,0,0,1.26,1.32l-.06-.13,1.1,1.11-.11,0a12.89,12.89,0,0,0,1.66.92c1,.38,2.15.63,3.2,1a1.15,1.15,0,0,1,.71,1.12Z"/><path d="M139.67,89.79a4.35,4.35,0,0,0-.53,1.82c-.1,3.37-1,6.62-1.36,10a19.43,19.43,0,0,0-.59,5.21c0,1.28-.11,2.55-.21,3.82a2.89,2.89,0,0,1-.83,1.69,1.38,1.38,0,0,1-1.27.4l.1.12c.22-.42.43-.84.65-1.25a6.45,6.45,0,0,0,.83-3.15c0-1.57,0-3.14.06-4.71A20.45,20.45,0,0,1,137,100a86.92,86.92,0,0,0,1.5-8.8c.06-.54.52-.75.87-1.05.12-.1.25-.18.38-.27Z"/><path d="M134.28,164.18a1.89,1.89,0,0,1,.77,1.13c.08.62.17,1.25.19,1.87,0,1.42.06,2.84.07,4.25a15.14,15.14,0,0,0,.48,3.73c.39,1.53.67,3.07,1,4.62a7.37,7.37,0,0,1,.07,1.41,2,2,0,0,1-2.09,2.05,2.42,2.42,0,0,1-.47,0l.11.11a3.54,3.54,0,0,1,.42-.85,3.45,3.45,0,0,0,.67-2.71,26.18,26.18,0,0,0-.51-3.31,15.89,15.89,0,0,1-.47-4.75c.13-2.56-.05-5.11-.09-7.66Z"/><path d="M130.35,115.56a1.42,1.42,0,0,0,.5,1.24,1.74,1.74,0,0,0,1.23.61,4.39,4.39,0,0,1,1.81.14l-.11-.11a10,10,0,0,0-1.76,4.32c-.19,1.24-.48,2.46-.73,3.69a1.22,1.22,0,0,1-.94.92c-.79,0-1.57,0-2.35,0s-1-.12-1.39-1c-.07-.14-.12-.29-.18-.43l-.05.06a2.88,2.88,0,0,0,2.64.39,1.69,1.69,0,0,0,1.33-1.17c.33-1.18.64-2.38,1-3.58a2.26,2.26,0,0,0-.29-1.77c-.23-.4-.52-.77-.75-1.17a1.85,1.85,0,0,1-.06-1.77l.16-.43Z"/><path d="M77.78,144.74c-.23-.21-.58-.37-.66-.62a15.6,15.6,0,0,1-1.19-5,14.06,14.06,0,0,0-1-4.58c-.2-.6-.5-1.16-.71-1.75a5.11,5.11,0,0,1-.25-2.33l-.13.06c.22.22.53.39.65.65a21.77,21.77,0,0,1,2.39,8.13c0,.78.28,1.55.39,2.32.16,1.1.28,2.2.41,3.29Z"/><path d="M135.72,67.73a2.38,2.38,0,0,0,1.31.48c.48,0,1-.38,1-.77a4.21,4.21,0,0,0,0-.94c-.35-1.7-.73-3.38-1.11-5.07a2.41,2.41,0,0,0-.22-.42l-.05.07c.52.33,1.14.58,1.25,1.29a30.85,30.85,0,0,0,.94,3.15,7,7,0,0,1,.11,3.26,1.29,1.29,0,0,1-1.46.85,2,2,0,0,1-1.68-2Z"/><path d="M91.73,69.55a4.27,4.27,0,0,1,.26.91,21.33,21.33,0,0,1-.32,6.13,34,34,0,0,0-.53,4.22c0,.38-.34.55-.53.44a.57.57,0,0,1-.27-.37,9.93,9.93,0,0,1,.17-3.77,40,40,0,0,0,.8-5.63,15.41,15.41,0,0,1,.5-1.82Z"/><path d="M135.82,67.66a5.48,5.48,0,0,1-2.31.23,13.78,13.78,0,0,0-3.74.15,1.44,1.44,0,0,0-1.18,1.72,7.92,7.92,0,0,0,.19.92l.08-.11a2,2,0,0,1-1-2,1.54,1.54,0,0,1,1.4-1.6c.78-.1,1.56-.21,2.34-.26a4.69,4.69,0,0,1,1.4.13c.91.25,1.8.58,2.71.86Z"/><path d="M135.42,77.48a2.66,2.66,0,0,1-.91-.09A13.08,13.08,0,0,1,128.92,72a2,2,0,0,1-.06-1.38.7.7,0,0,0-.08.1,24.73,24.73,0,0,0,5.68,5.78,2.29,2.29,0,0,1,.85,1.13Z"/><path d="M105.47,107.51a3.83,3.83,0,0,1,.82.38,2.87,2.87,0,0,1,.63.67,70.49,70.49,0,0,1,3.28,6.63,3.47,3.47,0,0,1,.08.92l.12-.09a1.63,1.63,0,0,1-1-.82c-1.34-2.23-2.47-4.58-3.6-6.92a3.77,3.77,0,0,1-.17-.9Z"/><path d="M99.8,29.73a1.19,1.19,0,0,1-.13.44,7.66,7.66,0,0,0-2,4.48c-.06.69-.68.94-1.2,1.23l.09.12c.78-2.09.38-4.27.57-6.41,0-.31.28-.5.65-.51a2.45,2.45,0,0,1,.9.09,10.14,10.14,0,0,1,1.2.67Z"/><path d="M116.45,120.19c-.45-.69-.91-1.37-1.36-2.07l-.1.12c.31,0,.67-.13.91,0a19.6,19.6,0,0,1,5.06,3.44.51.51,0,0,1,0,.8.91.91,0,0,1-.37.24.86.86,0,0,1-.45,0c-.76-.31-1.18-1-1.78-1.53a3.77,3.77,0,0,0-2.06-1.09Z"/><path d="M136.71,61c-.09-.77-.2-1.53-.25-2.3-.09-1.25-.57-2.41-.78-3.63-.19-1.06-.16-2.16-.32-3.23a4.59,4.59,0,0,0-.62-1.23h0c.66.41,1.27.81,1.3,1.74a13.75,13.75,0,0,0,.71,4.11,10.83,10.83,0,0,1,.35,2.29,4.7,4.7,0,0,1-.42,2.29S136.71,61,136.71,61Z"/><path d="M7.67,159.2c-.27-.14-.64-.21-.78-.43-1.29-2-2.55-3.92-3.76-5.92a3.9,3.9,0,0,1-.25-1.35l-.12.12c.15.06.35.07.44.17a27.51,27.51,0,0,1,4.23,6.14,4.13,4.13,0,0,1,.14,1.38Z"/><path d="M139.73,89.86a5,5,0,0,1-.45-1.29,17.56,17.56,0,0,0-1.73-6.14,7.45,7.45,0,0,1-.32-1.79l-.11.11c.14.06.33.09.42.2a17,17,0,0,1,1.91,3.21,4.26,4.26,0,0,1,.42,1.82,26.84,26.84,0,0,1-.21,3.79Z"/><path d="M79.68,152.45a3.06,3.06,0,0,1-.6-.72,14.6,14.6,0,0,1-1.31-6.51c0-.16,0-.32,0-.48l-.13.14a6.84,6.84,0,0,1,.7,1.22c.33,1.06.57,2.13.86,3.2a10.11,10.11,0,0,1,.35,3.28Z"/><path d="M118.93,137.28c.14.07.34.11.41.22A25.62,25.62,0,0,1,121.8,143l.13-.07a1.9,1.9,0,0,1-1.37-1.08,34.8,34.8,0,0,1-1.41-3.32,4.9,4.9,0,0,1-.1-1.34Z"/><path d="M118.18,13c0-.31.11-.7,0-.91-.73-1-1.53-2-2.32-3a2.15,2.15,0,0,1-.42-1.8l-.08.11c1,1.15,2,2.3,2.89,3.5a1.11,1.11,0,0,1,.05,1.27,2.43,2.43,0,0,0-.09.87Z"/><path d="M129,111.86c.78.71,1.58,1.41,2.35,2.14.28.27.3.56.06.7a.43.43,0,0,1-.41,0c-.55-.52-1.08-1-1.6-1.61a1.38,1.38,0,0,1-.3-1.27Z"/><path d="M130.45,156.47a1.26,1.26,0,0,1,.41.17,10.6,10.6,0,0,1,2.38,3.69,2.77,2.77,0,0,1,.08.87l.13-.06c-.25-.14-.6-.22-.74-.44-.65-1-1.28-2-1.85-3.07a5.4,5.4,0,0,1-.3-1.29Z"/><path d="M133.83,43.83c.12.09.25.17.37.27.34.3.74.53.81,1a12.49,12.49,0,0,1-.27,5.47h0c-.13-1.85-.23-3.7-.41-5.55a5,5,0,0,0-.48-1.3Z"/><path d="M83.42,80.64c.14,0,.32.06.42.16a22.35,22.35,0,0,1,3.39,3.62l.13-.09a4.45,4.45,0,0,1-.9-.26A7.41,7.41,0,0,1,84,81.82a5.81,5.81,0,0,1-.5-1.32Z"/><path d="M135.71,248.74a3.08,3.08,0,0,1-1.35-1.08c-.41-.78-.92-1.51-1.39-2.26l0,0a1.89,1.89,0,0,1,1.42,1c.48.77.62,1.72,1.3,2.37Z"/><path d="M125.64,149.76a1.19,1.19,0,0,1,.44.1,5.61,5.61,0,0,1,2.42,3.69l.14-.09a6.17,6.17,0,0,1-2.68-3,3.06,3.06,0,0,1-.2-.88Z"/><path d="M73.94,130.43a1.58,1.58,0,0,1-.36-.26,8,8,0,0,1-1.39-2.75,8.64,8.64,0,0,1-.18-1.77l-.12,0a7.8,7.8,0,0,1,1.92,4.8Z"/><path d="M117,132.42a2.58,2.58,0,0,1,.71.53,6.46,6.46,0,0,1,1.21,3.42c0,.3,0,.61,0,.91l.12-.13c-.22-.19-.52-.35-.64-.59-.4-.8-.75-1.62-1.09-2.45a3.4,3.4,0,0,1-.19-1.76Z"/><path d="M72,122.79a16.53,16.53,0,0,0-.92-4.87l-.15.11a2.91,2.91,0,0,1,1.09.88,2.54,2.54,0,0,1,.65,1.73,2.32,2.32,0,0,1-.78,2.12Z"/><path d="M115.1,244.62a6.14,6.14,0,0,1-1.56,3.65,1.79,1.79,0,0,1-.38.25l.13.06a4,4,0,0,1,1.13-3.4,2.82,2.82,0,0,1,.78-.44Z"/><path d="M89.17,86.39a3,3,0,0,1,.86.14,3.87,3.87,0,0,1,1.84,1.86,3,3,0,0,1,.14.86l.14-.11a6.61,6.61,0,0,1-2.88-2.88Z"/><path d="M135.71,248.76a19.54,19.54,0,0,0,.47,4c0,.27.31.49.48.74h0a2.42,2.42,0,0,1-1.13-2.42c.06-.47.09-.94.12-1.41,0-.31.05-.63.07-.94Z"/><path d="M133.85,43.77c-.12-1.17-.22-2.34-.4-3.5a4.78,4.78,0,0,0-.5-1.2h0a2.23,2.23,0,0,1,1.22,2.36,3.85,3.85,0,0,1,0,.48q-.15.93-.33,1.89S133.85,43.77,133.85,43.77Z"/><path d="M126.43,125a3.49,3.49,0,0,1-1.73.57c-.92,0-1.84,0-2.76-.1a1.93,1.93,0,0,1-1.17-.68l-.1.11a7.33,7.33,0,0,1,1.39-.17c1.42.09,2.84.24,4.29.35Z"/><path d="M110.28,116.11c.15,0,.33,0,.44.15a3.91,3.91,0,0,1,1.5,2.76l.11-.12a1.25,1.25,0,0,1-.45-.13A3.15,3.15,0,0,1,110.4,116Z"/><path d="M123.72,146.87a3.22,3.22,0,0,1,1.92,2.89l.12-.14a4.45,4.45,0,0,1-1.92-2.88Z"/><path d="M99.76,97.91a4,4,0,0,1,1.85,2.87l.14-.12a3.42,3.42,0,0,1-1.9-2.89Z"/><path d="M96.87,94.05a2.61,2.61,0,0,1,1.86,2.87l.14-.1A3.45,3.45,0,0,1,97,94.39a1.77,1.77,0,0,1,0-.46Z"/><path d="M10.56,163.06c-.85-.2-1.21-.93-1.65-1.56a1.75,1.75,0,0,1-.26-1.34l-.11.1a2.87,2.87,0,0,1,1.91,2.88Z"/><path d="M128.5,153.55a1.4,1.4,0,0,1,.45.14,3.35,3.35,0,0,1,1.5,2.78l.11-.13c-.14-.05-.32-.06-.42-.16a4.23,4.23,0,0,1-1.5-2.72Z"/><path d="M96.44,40.88A7,7,0,0,1,96.56,36l-.1-.13a3.65,3.65,0,0,1,.33,2.19c-.13.9-.28,1.8-.4,2.72Z"/><path d="M114.27,114.06a3.46,3.46,0,0,1,2.37,1.27.94.94,0,0,1,.24.84l.11-.11a3.22,3.22,0,0,1-2.49-1.22.9.9,0,0,1-.14-.89Z"/><path d="M130.07,29.47c.61.15,1.16.36,1.28,1.11a2.66,2.66,0,0,0,.56,1.29s0,0,0,0c-.56-.25-1.09-.51-1.22-1.21a1.67,1.67,0,0,0-.64-1.16Z"/><path d="M135.31,77.59a3.56,3.56,0,0,1,1.81,3.15l.11-.1A4.93,4.93,0,0,1,135.41,78a1.55,1.55,0,0,1,0-.48Z"/><path d="M119.13,118.72a.89.89,0,0,0-.24-.81c-.45-.4-.93-.75-1.36-1.15a6.2,6.2,0,0,1-.54-.7l-.11.11a3.53,3.53,0,0,1,.46,0c1.35.23,1.72.69,1.72,2.12a4,4,0,0,0,.07.46Z"/><path d="M136.66,253.53a23.82,23.82,0,0,1,.15,4.39h0a40.08,40.08,0,0,1-.16-4.39Z"/><path d="M133.32,161.2a1.39,1.39,0,0,1,.8,1.09c.09.62.11,1.26.16,1.89l.12-.14a3.6,3.6,0,0,1-1-2.9Z"/><path d="M142.62,261.22c0,.13.07.33,0,.38-.22.18-.32,0-.25-.35C142.39,261.22,142.54,261.23,142.62,261.22Z"/><path d="M131.89,36.24c.92.35,1.41.93,1.12,2a1.56,1.56,0,0,0,0,.43c0,.15,0,.29,0,.44h0a3.15,3.15,0,0,0-1.06-2.87Z"/><path d="M133,245.4a3.23,3.23,0,0,0,0-.93c-.09-.36-.16-.61,0-.78a1,1,0,0,1,.15.31,1.91,1.91,0,0,1,0,.47l-.09.95Z"/><path d="M131.89,36.2c0-.57,0-1.15-.08-1.73a8.55,8.55,0,0,1,.09-2.62s0,0,0,0c.06.56.1,1.14.18,1.72a6.17,6.17,0,0,1-.2,2.63Z"/><path d="M130.05,29.46a3.25,3.25,0,0,0-.89-3l0,.05a2,2,0,0,1,.9,2.45,1.84,1.84,0,0,0,0,.47Z"/><path d="M114.17,120.92a1.78,1.78,0,0,1,2.27-.74l-.11-.1q-.61.9-1.23,1.77l.11.05-1.1-1.11Z"/><path d="M72,125.65a2.19,2.19,0,0,1,0-2.86l-.11,0v2.93Z"/><polygon points="140.53 255.61 140.43 255.21 140.72 255.27 140.53 255.61"/><polygon points="138.54 249.5 138.76 249.49 138.67 249.79 138.54 249.5"/><path d="M134,114.75c.34-.64.68-1.27,1-1.92l-.11-.14a4.13,4.13,0,0,1,.14.42c.25,1,0,1.44-1.13,1.54Z"/><path d="M133.89,114.65a1.76,1.76,0,0,1,.24,1.57c-.12.4-.25.79-.37,1.2l.13.13a2.49,2.49,0,0,1,.12-2.79Z"/><path d="M129.16,26.5a2,2,0,0,0-.27-1.32,1,1,0,0,0-.71-.55h0c.93.76.93.76,1,1.9C129.18,26.55,129.16,26.5,129.16,26.5Z"/><path d="M128.18,24.63a3.05,3.05,0,0,0,0-.85c-.12-.56-.32-1.11-.48-1.68l-.11.12a1.56,1.56,0,0,1,.53,1.14l.06,1.28Z"/><path d="M130.36,115.57a19.23,19.23,0,0,1-3.22.08l.07.07a23.59,23.59,0,0,1,3.14-.16Z"/><path d="M129.14,111.79a3.19,3.19,0,0,1-1.62.17c-.41-.06-.82,0-1.22-.09,0,0,0,.06,0,.06.9-.12,1.8-.5,2.73-.06Z"/><path d="M125.1,20.49a3.63,3.63,0,0,0-.42-2.14l-.1.12a1.24,1.24,0,0,1,.32,1.21,1,1,0,0,0,.12.84Z"/><path d="M123.54,16.61a2.14,2.14,0,0,1,1,1.85l.09-.11a5.51,5.51,0,0,1-1.06-1.85Z"/><path d="M124.45,108.79a1.28,1.28,0,0,0,1.61.92l0-.08a1.45,1.45,0,0,0-1.57-.9Z"/><path d="M123.62,16.5a2.14,2.14,0,0,1-.07-2.17,1.72,1.72,0,0,0,0-.46l0,0a7.23,7.23,0,0,0-.1.91c0,.61,0,1.22.08,1.84Z"/><path d="M125.05,112.75a2.89,2.89,0,0,1-2.45-.21l-.09.11a3,3,0,0,1,2.52.23Z"/><path d="M122.77,145a.79.79,0,0,1,.7.55c.11.45.17.91.25,1.37l.12-.13a1.34,1.34,0,0,1-.87-1,5.52,5.52,0,0,1-.08-.92Z"/><path d="M124.51,108.73a4.81,4.81,0,0,1-.82.32,1.66,1.66,0,0,1-1.92-.66l-.12.12c.91.11,1.83.21,2.77.3Z"/><path d="M121.8,143a2.16,2.16,0,0,1,1,2l.12-.13a.82.82,0,0,1-.7-.55c-.12-.45-.17-.92-.26-1.38Z"/><path d="M121.56,12.82a1.78,1.78,0,0,0,2,1l0,0a3,3,0,0,1-1.25-.07c-.32-.19-.45-.69-.69-1Z"/><path d="M119.13,118.76a2.86,2.86,0,0,1,3.09-.13l.14-.12a3.06,3.06,0,0,1-1.8.19,8.3,8.3,0,0,0-1.41,0A.1.1,0,0,0,119.13,118.76Z"/><path d="M118.17,13a9.24,9.24,0,0,1,3.36-.13l.12-.08a3.87,3.87,0,0,1-2.14.26,9.74,9.74,0,0,0-1.33,0Z"/><path d="M114.36,114a.75.75,0,0,1-.83.17c-.39-.14-.48-.38-.2-.66a.5.5,0,0,1,.42,0,.65.65,0,0,1,.51.66Z"/><path d="M104.54,105.59a1.59,1.59,0,0,1,.93,1.92l.13-.13a.92.92,0,0,1-.72-.54,2.53,2.53,0,0,1-.23-1.38Z"/><path d="M103.57,103.67a2,2,0,0,1,1,1.92l.11-.13a.78.78,0,0,1-.7-.54c-.12-.45-.18-.92-.26-1.38Z"/><path d="M102.64,101.74a1.3,1.3,0,0,1,.82,1c.07.3.07.61.11.91l.12-.13A.92.92,0,0,1,103,103a2.38,2.38,0,0,1-.23-1.39Z"/><path d="M81.61,156.35a1.24,1.24,0,0,1-.86-1,5.63,5.63,0,0,1-.1-.92l-.13.07a1,1,0,0,1,.71.56,2.31,2.31,0,0,1,.25,1.37Z"/><path d="M80.65,154.43a1.37,1.37,0,0,1-.85-1,6,6,0,0,1-.12-.94l-.12.13a1.27,1.27,0,0,1,.87,1,5.75,5.75,0,0,1,.09.93Z"/><path d="M76.67,157.4a4.41,4.41,0,0,1,.81,0,1.26,1.26,0,0,1,1.15,1l.07-.12a5.38,5.38,0,0,1-.8,0,1.18,1.18,0,0,1-1.12-1Z"/><path d="M8.65,160.16c-.81-.11-.81-.11-1-1l-.1.11c.66,0,.92.35,1,.95Z"/><path d="M71.08,117.92a1.07,1.07,0,0,1-1-1l-.09.12a1.08,1.08,0,0,1,1,1Z"/><path d="M76.66,73.86a1.27,1.27,0,0,1,1,1l.14-.09a1.1,1.1,0,0,1-1-1Z"/><path d="M77.62,74.82a1.4,1.4,0,0,1,.94,1l.15-.07a1.24,1.24,0,0,1-.95-1Z"/><path d="M78.56,75.77a2.1,2.1,0,0,1,1,1l.15-.08a1.74,1.74,0,0,1-1-1Z"/><path d="M79.52,76.74a2,2,0,0,1,1,1l.15-.09a1.93,1.93,0,0,1-1-1Z"/><path d="M80.48,77.72a1.17,1.17,0,0,1,1,1l.14-.1a1.26,1.26,0,0,1-1-1Z"/><path d="M81.45,78.68a1.08,1.08,0,0,1,1,1l.15-.1a1.27,1.27,0,0,1-1-1Z"/><path d="M82.4,79.64a1.21,1.21,0,0,1,1,1l.1-.14a1.31,1.31,0,0,1-1-1Z"/><path d="M87.23,84.42a1.11,1.11,0,0,1,1,1l.13-.1a.92.92,0,0,1-1-1Z"/><path d="M88.19,85.39c.56.1,1,.36,1,1l.1-.13a1,1,0,0,1-1-1Z"/><path d="M92,89.25a1,1,0,0,1,1,.94l.14-.1a1.12,1.12,0,0,1-1-1Z"/><path d="M93,90.19a1.07,1.07,0,0,1,1,1l.13-.11a1,1,0,0,1-1-1Z"/><path d="M94,91.16a.92.92,0,0,1,1,1L95,92a.9.9,0,0,1-1-1Z"/><path d="M94.92,92.12a.83.83,0,0,1,1,.95L96,93c-.8-.16-.8-.16-1-1Z"/><path d="M95.88,93.07a1,1,0,0,1,1,1l.09-.12c-.65,0-.95-.33-1-1Z"/><path d="M98.73,96.92a1.38,1.38,0,0,1,1,1l.09-.14a1.23,1.23,0,0,1-1-1Z"/><path d="M101.61,100.78c.62,0,.89.42,1,1l.09-.13c-.6,0-.85-.43-1-1Z"/><path d="M106.55,26.73a.85.85,0,0,1-1-1l-.09.11c.8.15.8.15,1,1Z"/><path d="M107.51,27.69c-.8-.15-.8-.15-1-1l-.1.11c.82.14.82.14,1,1Z"/><path d="M108.48,28.65c-.79-.12-.79-.12-1-1l-.1.11c.66,0,1,.33,1,1Z"/><path d="M109.44,29.63c-.85-.14-.85-.14-1-1l-.1.11c.62,0,1,.3,1,1Z"/><path d="M114.1,117l-.13.12Z"/><path d="M114,117.11c.68.07,1.06.41,1,1.12l.1-.11a1.83,1.83,0,0,1-1-1.13Z"/><path d="M121.88,111.17a1.12,1.12,0,0,1,.64,1.47l.08-.1c-.33-.44-.73-.85-.61-1.47Z"/><path d="M125,112.88l-.14.19s.14-.29.15-.3S125,112.88,125,112.88Z"/><path d="M126.06,109.71q.14,1.08.24,2.19s0-.07,0,0c-.09-.71-.16-1.45-.23-2.22C126.08,109.63,126.06,109.71,126.06,109.71Z"/><path d="M125,20.52c.3,0,.6-.08.9-.1a.83.83,0,0,1,.76.41l.09-.13c-.54-.08-1.07-.16-1.64-.22Z"/><path d="M127.14,115.65l.17-.24s-.1.3-.1.31Z"/><path d="M126.68,20.83l.95,1.38.11-.11a3.91,3.91,0,0,1-1-1.39Z"/><path class="cls-1" d="M101.75,100.66c.13.52.38.92,1,1A2.38,2.38,0,0,0,103,103a.92.92,0,0,0,.73.54c.08.46.14.93.26,1.38a.78.78,0,0,0,.7.54,2.53,2.53,0,0,0,.23,1.38.92.92,0,0,0,.72.54,3.77,3.77,0,0,0,.17.9c1.13,2.34,2.26,4.69,3.6,6.92a1.63,1.63,0,0,0,1,.82,3.15,3.15,0,0,0,1.48,2.75,1.25,1.25,0,0,0,.45.13,8,8,0,0,0,.1,1.39c.2.76.48,1.49.75,2.22a48.62,48.62,0,0,1,2.16,6.68,7.13,7.13,0,0,0,1.39,2.91,1.24,1.24,0,0,0,.4.25,3.4,3.4,0,0,0,.19,1.76c.34.83.69,1.65,1.09,2.45.12.24.42.4.64.59a4.9,4.9,0,0,0,.1,1.34,34.8,34.8,0,0,0,1.41,3.32,1.9,1.9,0,0,0,1.37,1.08c.09.46.14.93.26,1.38a.82.82,0,0,0,.7.55,5.52,5.52,0,0,0,.08.92,1.34,1.34,0,0,0,.87,1,4.45,4.45,0,0,0,1.92,2.88,3.06,3.06,0,0,0,.2.88,6.17,6.17,0,0,0,2.68,3,4.23,4.23,0,0,0,1.5,2.72c.1.1.28.11.42.16a5.4,5.4,0,0,0,.3,1.29c.57,1.05,1.2,2.07,1.85,3.07.14.22.49.3.74.44a3.6,3.6,0,0,0,1,2.9c0,2.55.22,5.1.09,7.66a15.89,15.89,0,0,0,.47,4.75,26.18,26.18,0,0,1,.51,3.31,3.45,3.45,0,0,1-.67,2.71,3.54,3.54,0,0,0-.42.85,8.28,8.28,0,0,0-2.81.05,11,11,0,0,1-2.8.3,1.13,1.13,0,0,0-1.17.52,3.79,3.79,0,0,1-.62.7,12.17,12.17,0,0,1-4.17,2.11,1.56,1.56,0,0,1-1.3-.37c-.28-.37-.58-.73-.85-1.12a49.71,49.71,0,0,1-3-5.3,1,1,0,0,0-.75-.5,4.18,4.18,0,0,0,0-.94,1.29,1.29,0,0,0-.85-1,2.06,2.06,0,0,0-.94-1.92,1.57,1.57,0,0,0-1.27-1.68,2.25,2.25,0,0,0-.42-2.61c-.09-.31-.19-.61-.26-.92-.12-.51-.3-.58-.49-.17a.48.48,0,0,0,.1.44,8.44,8.44,0,0,0,.74.56,5,5,0,0,0,.4,2.62c.46.52.66,1.27,1.3,1.65a2.86,2.86,0,0,0,1,1.92,3.3,3.3,0,0,0,.88,2,9.48,9.48,0,0,0,1.06,3.11,4.53,4.53,0,0,1,.3.9.87.87,0,0,1-.25.85.75.75,0,0,1-.85.17c-.57-.26-1.12-.57-1.67-.87-.82-.45-1.43-1.24-2.36-1.52l.12.15a1.94,1.94,0,0,0-1.14-1.14l.14.13a1.68,1.68,0,0,0-.22-.42,21.26,21.26,0,0,0-4.38-3.64,3.75,3.75,0,0,0-.86-.4,3.18,3.18,0,0,0-2.75.23,18,18,0,0,0-2.81,2.56,2.56,2.56,0,0,1-1.71.75.58.58,0,0,1-.61-.55,1.65,1.65,0,0,1,.19-.91,8.46,8.46,0,0,0,1.37-5c0-.63.06-1.27,0-1.9a1.54,1.54,0,0,0-.36-.86,3.06,3.06,0,0,0-2.37-1.39,3,3,0,0,0-.39-.84,13.46,13.46,0,0,0-2.65-2c-.8-.52-1.63-1-2.39-1.58a13,13,0,0,0-4.27-2.11,7,7,0,0,1-1.34-.5,4,4,0,0,1-2-2A13.43,13.43,0,0,0,83,157.45a2.25,2.25,0,0,0-1.54-1,2.31,2.31,0,0,0-.25-1.37,1,1,0,0,0-.71-.56,5.75,5.75,0,0,0-.09-.93,1.27,1.27,0,0,0-.87-1,10.11,10.11,0,0,0-.35-3.28c-.29-1.07-.53-2.14-.86-3.2a6.84,6.84,0,0,0-.7-1.22c-.13-1.09-.25-2.19-.41-3.29-.11-.77-.35-1.54-.39-2.32a21.77,21.77,0,0,0-2.39-8.13c-.12-.26-.43-.43-.65-.65a7.8,7.8,0,0,0-1.92-4.8v-2.93a2.32,2.32,0,0,0,.78-2.12,2.54,2.54,0,0,0-.65-1.73,2.91,2.91,0,0,0-1.09-.88,1.08,1.08,0,0,0-1-1c.12-.85-.53-1.49-.62-2.27a.77.77,0,0,1,.45-.74.76.76,0,0,1,.45-.13,26.7,26.7,0,0,0,6.19.1,8.81,8.81,0,0,1,3.77.45c1.35.45,2.74.83,4.13,1.18a6,6,0,0,0,2.83.09.7.7,0,0,0,.62-.61.69.69,0,0,0-.31-.81,6.07,6.07,0,0,0-1.24-.7c-1.35-.48-2.72-.88-4.08-1.35s-2.69-1-4-1.5a9.58,9.58,0,0,1-1.64-1,1.77,1.77,0,0,1-.79-1.63c0-.16,0-.32,0-.47h0c.12.09.27.27.34.24.33-.11.3-.35.08-.71-.63-1-.59-1.05.6-2.08a.43.43,0,0,0-.05-.41c-.83-.54-1.86-.29-2.73-.7a13.89,13.89,0,0,1-1.28-.64.57.57,0,0,1-.16-.79.59.59,0,0,1,.4-.25,4.72,4.72,0,0,1,2.3.54,5.69,5.69,0,0,0,1.76.7,1.57,1.57,0,0,0,1.33-.33,1.37,1.37,0,0,0-.11-1.72,2.6,2.6,0,0,0-.7-.63q-1.06-.56-2.16-1c-.88-.38-1.78-.72-2.66-1.09-.58-.23-.84-.7-.59-1s.84-.37,1.31-.26a7,7,0,0,1,1.37.39,23.39,23.39,0,0,1,2.07,1.17c.12.07.18.26.29.37a.81.81,0,0,1,.8-.21c.48.12.57,0,.22-.31-.06,0-.27,0-.38.07s-.47.31-.7.47a3,3,0,0,0,.36-2.67A1.69,1.69,0,0,0,77,96c-.57-.54-1.21-1-1.8-1.51a.63.63,0,0,1-.17-.42c0-.37.26-.52.65-.5a7.22,7.22,0,0,0,.93,0,.75.75,0,0,0,.53-1.09c-.4-.66-.82-1.31-1.2-2-.07-.12,0-.31,0-.47l-.1.14a2.93,2.93,0,0,0,.9-3c0-.16,0-.31-.09-.47a3.74,3.74,0,0,0-.12-.45c-1.32-3.92-1.53-8-1.76-12.08A7.44,7.44,0,0,1,75,72.79l-.11.11a2.62,2.62,0,0,1,1.14.57,3.92,3.92,0,0,0,.79.3,1.1,1.1,0,0,0,1,1,1.24,1.24,0,0,0,.95,1,1.74,1.74,0,0,0,1,1,1.93,1.93,0,0,0,1,1,1.26,1.26,0,0,0,1,1,1.27,1.27,0,0,0,1,1,1.31,1.31,0,0,0,1,1,5.81,5.81,0,0,0,.5,1.32,7.41,7.41,0,0,0,2.44,2.25,4.45,4.45,0,0,0,.9.26.92.92,0,0,0,1,1,1,1,0,0,0,1,1,6.61,6.61,0,0,0,2.88,2.88,1.12,1.12,0,0,0,1,1,1,1,0,0,0,1,1,.9.9,0,0,0,1,1c.16.79.16.79,1,1,0,.63.31,1,1,1a1.77,1.77,0,0,0,0,.46,3.45,3.45,0,0,0,1.91,2.43,1.23,1.23,0,0,0,1,1A3.42,3.42,0,0,0,101.75,100.66Zm6.07,58.4c.31-.15.53-.15.57,0s-.19.2-.29.2-.2-.15-.26-.28a3,3,0,0,0-.1-3c-1-1.16-2-2.32-3.09-3.47a11.37,11.37,0,0,0-1.53-3.08c-.14-.22-.46-.33-.68-.5a4.13,4.13,0,0,0,0-1.68,10.38,10.38,0,0,1,0-1.25c-.26-.12-.61-.17-.78-.37a3.16,3.16,0,0,0-2.34-1.07,3.12,3.12,0,0,0,.19-1.71,5.86,5.86,0,0,1-.13-1.72,2.18,2.18,0,0,1-.63-1.16,1.73,1.73,0,0,0-.72-1.1c-.06-.47-.12-.94-.2-1.41s-.29-.6-.51-.44a.67.67,0,0,0-.17.83,1.31,1.31,0,0,0,1,.93c0,.14,0,.29-.05.43a1.58,1.58,0,0,0,1.31,1.91,16.21,16.21,0,0,0-.08,3.48,3.2,3.2,0,0,1,.43.17,1.88,1.88,0,0,1,.36.27,4.54,4.54,0,0,0,1.08.86,5,5,0,0,0,1.29.1,2.1,2.1,0,0,0,.14,2.85,7,7,0,0,0,1.49,3.21c.18.19.52.22.78.33,0,1.81,1.11,2.77,2.57,3.47.13.06.31,0,.44,0a3.61,3.61,0,0,0-.07,1.76C107.8,158.17,107.79,158.62,107.82,159.06Zm2.06,4.72a1.74,1.74,0,0,1,.84,2,.56.56,0,0,1,.68.39c.16.36.35.47.49.28a.39.39,0,0,0,0-.37c-.07-.09-.26-.19-.35-.15a.55.55,0,0,1-.75-.19c.36-1.28.36-1.29-.85-1.91,0-.38.33-.74.07-1.13,0,.09-.06.2,0,.28A.8.8,0,0,1,109.88,163.78Z"/><path class="cls-1" d="M8.54,160.26c0-.6-.31-1-1-.95a4.13,4.13,0,0,0-.14-1.38,27.51,27.51,0,0,0-4.23-6.14c-.09-.1-.29-.11-.44-.17a12.07,12.07,0,0,0-.27-2.34c-.78-2.43-.81-5-1.28-7.45a2.48,2.48,0,0,1,0-.47,1.7,1.7,0,0,1,1.05-1.45,9.13,9.13,0,0,1,1.86-.3c1.58,0,3.15.09,4.73.19a5.78,5.78,0,0,1,1.85.35,13.92,13.92,0,0,0,6.51.81c1.1,1,2.56,1.22,3.86,1.79a3.61,3.61,0,0,0,1.4.2c1,0,1.91,0,2.86,0a3.3,3.3,0,0,1,.95.09c2.28.77,4.74.49,7,1.15a14.18,14.18,0,0,0,3.76.59,16.26,16.26,0,0,1,4.2.75,48.55,48.55,0,0,1,5.85,2c2.19.94,4.53,1.5,6.61,2.7,1.22.36,2.45.67,3.65,1.08a18.21,18.21,0,0,0,5.1,1.13,5.56,5.56,0,0,1,2.25.72,27,27,0,0,0,3.51,1.46,50.85,50.85,0,0,1,4.81,2.07,6.33,6.33,0,0,0,3.7.59,1.18,1.18,0,0,0,1.12,1,5.38,5.38,0,0,0,.8,0c.15.26.24.6.46.76.75.52,1.56,1,2.33,1.46s1.8,1.17,2.65,1.82a3.54,3.54,0,0,1,1.32,1.83,4.82,4.82,0,0,1-3.22-.58c-1.86-1.23-3.95-2.1-5.65-3.58a2,2,0,0,0-.84-.42A27.3,27.3,0,0,1,68,155.94a5.94,5.94,0,0,0-2.21-.83,6.6,6.6,0,0,1-1.4-.31c-2.53-1-5.19-1.52-7.8-2.26-1.84-.51-3.66-1.12-5.47-1.73a59.6,59.6,0,0,0-8.74-2.45,31.71,31.71,0,0,0-4.75-.55,31.05,31.05,0,0,1-6.65-.71,15.48,15.48,0,0,0-2.37-.26c-2.54-.24-5.09-.42-7.62-.71-1.42-.17-2.83-.48-4.23-.78-1.87-.39-3.73-.86-5.6-1.25a21,21,0,0,0-2.85-.38,4.05,4.05,0,0,0-2.29.57,2.57,2.57,0,0,0-1.19,2.43A13.62,13.62,0,0,0,6.1,150.8a7.74,7.74,0,0,0,.48.83c2.49,4.08,4.73,8.31,6.89,12.58.72,1.42,1.6,2.76,2.34,4.17a2.92,2.92,0,0,1,.24,1.38.49.49,0,0,1-.61.5,2.66,2.66,0,0,1-.86-.38,6.68,6.68,0,0,1-1.94-2.69c-.53-1.15-.93-2.37-1.45-3.53-.1-.24-.49-.35-.74-.52A2.87,2.87,0,0,0,8.54,160.26Z"/><path class="cls-1" d="M44.4,214.14c-.6-.72-1.2-1.43-1.79-2.16-.27-.34-.15-.8.32-1.22a1.14,1.14,0,0,1,1.26-.28,4.06,4.06,0,0,0,.91.17.78.78,0,0,0,.71-1,3.38,3.38,0,0,0-.35-.85c-.92-1.25-2.13-2.31-2.48-3.93-.38-.5-.74-1-1.13-1.49-1-1.23-2-2.44-2.92-3.68a2.33,2.33,0,0,1-.36-2.22l-.14.14a3.13,3.13,0,0,0,1.5-1c1.06-1.07,2.08-2.19,3.14-3.26a1.21,1.21,0,0,1,1.25-.28l-.11-.11c-.63,1.63-1.28,3.25-1.88,4.89a5.22,5.22,0,0,0-.37,2.34.55.55,0,0,0,.26.39.6.6,0,0,0,.44,0,.71.71,0,0,0,.35-.27c.43-.66.86-1.33,1.27-2a43,43,0,0,1,6-8c.88-.92,1.8-1.81,2.65-2.76A15.5,15.5,0,0,1,58,184a.58.58,0,0,1,.83.23.65.65,0,0,1,.05.43,8.41,8.41,0,0,1-.6,1.29,56,56,0,0,1-3.91,5.42c-1.2,1.48-2.36,3-3.49,4.54a17.15,17.15,0,0,0-3.21,7.38c-.06.37.14.58.49.53a.5.5,0,0,0,.37-.24,40.06,40.06,0,0,1,2.57-4.56,5.81,5.81,0,0,1,1.65-1.7.75.75,0,0,1,.44-.15.81.81,0,0,1,.54.67c.25,1.11-.45,2.17-.14,3.27,0,.1.23.19.35.2s.35,0,.39-.13c.29-.57.52-1.16.79-1.73a1,1,0,0,1,1.26-.25,3.58,3.58,0,0,1,.66.69,26.46,26.46,0,0,1,1.47,4c.09.24-.12.62-.27.88a2.85,2.85,0,0,1-.62.72c-1.12.89-2.22,1.81-3.39,2.63a15.26,15.26,0,0,0-4.09,4,10.73,10.73,0,0,1-1.28,1.42,2.19,2.19,0,0,1-1.72.66c-1,0-1.91-.12-2.86-.17Zm8.11-9,.22.11-.14,0a12.16,12.16,0,0,1-4,3.27,2,2,0,0,0-.61.66.38.38,0,0,0,.48.46c1.42-.64,3-1.11,3.73-2.67A2.61,2.61,0,0,0,52.51,205.18Z"/><path class="cls-1" d="M58.54,218.7a2.32,2.32,0,0,0,1.22-.7,17.75,17.75,0,0,0,1.56-1.81c3.74-5.19,7.23-10.55,10.55-16,.83-1.36,1.53-2.8,2.31-4.2a1.26,1.26,0,0,1,2-.17,2.63,2.63,0,0,1,.29.37,1.27,1.27,0,0,1,0,1.35,13.72,13.72,0,0,1-.87,1.14,17.3,17.3,0,0,0-2.43,3.55q-1.36,2.53-2.76,5a45,45,0,0,1-6.25,9.05,2.66,2.66,0,0,0-.45.83.44.44,0,0,0,.14.36.59.59,0,0,0,.42.1,4.89,4.89,0,0,0,1.91-1.39,38.49,38.49,0,0,0,4.54-5.57c1.36-2,2.85-3.84,4.35-5.71a.94.94,0,0,1,.87-.26l-.11-.12a6.67,6.67,0,0,1-.66,2.27c-.87,1.69-1.74,3.38-2.63,5.06a82.82,82.82,0,0,0-5,10.23c0,.09.11.28.22.36a.45.45,0,0,0,.39,0,2.21,2.21,0,0,0,.73-.57q1.41-2.21,2.75-4.45a31.57,31.57,0,0,1,2.89-4.35,1.45,1.45,0,0,1,1.29-.41,3.85,3.85,0,0,1,.47.08l0-.07a1.78,1.78,0,0,0-.34.33c-1.68,2.9-3.37,5.79-5,8.71-.71,1.25-1.33,2.55-2,3.82a1.45,1.45,0,0,1-1.65.63c-.29-.13-.6-.22-.88-.36q-.87-.42-1.71-.87a2.62,2.62,0,0,0-2.3,0,1.2,1.2,0,0,1-.93,0,5.29,5.29,0,0,1-2-1.33,2.13,2.13,0,0,1-.52-.79,7.43,7.43,0,0,1-.28-4.23Z"/><path class="cls-1" d="M81,167.19c-.74,1.41-1.46,2.83-2.21,4.24-.52,1-1.08,1.95-1.61,2.93a33.52,33.52,0,0,0-3.28,8.95c-.29,1.4-.67,2.78-1,4.17a4,4,0,0,1-.45.83,1.32,1.32,0,0,1-1.27.38,11.77,11.77,0,0,1-4.47-3.49,1.79,1.79,0,0,1-.37-1.35,35.06,35.06,0,0,1,1.41-6.52c1.09-3.34,2.12-6.69,3.18-10,.24-.75.53-1.5.84-2.23a3.22,3.22,0,0,1,3.4-2.09,1.18,1.18,0,0,1,1.11,1.64c-.35.72-.68,1.44-1.09,2.12A78.08,78.08,0,0,0,69,178.66c-.54,1.33-1.13,2.63-1.67,4a1,1,0,0,0,0,.47.87.87,0,0,0,.51.73.78.78,0,0,0,.86-.23,4.24,4.24,0,0,0,.78-1.18,66.46,66.46,0,0,1,5.19-11.27,23,23,0,0,1,3.84-5.45,1.42,1.42,0,0,1,2.09.17A1.33,1.33,0,0,1,81,167.19Z"/><path class="cls-1" d="M46.45,183.62a10.19,10.19,0,0,0-1.19,1.45,69.93,69.93,0,0,1-5.46,8.27,15.9,15.9,0,0,0-1,1.57,3.31,3.31,0,0,0-.33,2.73l.15-.14a2.78,2.78,0,0,1-2.84-1.35c-.46-.66-.85-1.35-1.29-2a12.62,12.62,0,0,0-1.07-1.59,29.32,29.32,0,0,1-3.92-5.42,15.31,15.31,0,0,0-1.77-2.26c-.62-.74-1.29-1.43-1.9-2.16a10.92,10.92,0,0,1-1.54-2.42c-.24-.54.1-1.49.63-1.58,1.4-.25,2.81-.52,4.22-.72a1.26,1.26,0,0,1,1.18.67.53.53,0,0,1,.1.41c-.38,1.05-1.19,1.9-1.38,3a.82.82,0,0,0,.23.85.59.59,0,0,0,.83-.07,8.66,8.66,0,0,0,.89-1.11,18.65,18.65,0,0,1,2.4-3,1.36,1.36,0,0,1,.84-.36c1.28,0,2.55,0,3.82.1a18.61,18.61,0,0,1,3.34.06l-.11-.1a3.44,3.44,0,0,1-.54,1.79c-1.57,2.57-3.13,5.14-4.71,7.7a6.83,6.83,0,0,0-1.22,3c0,.3,0,.76.23.88a7.56,7.56,0,0,1,1.69,1.6c.06.08.33.08.45,0a2.38,2.38,0,0,0,.74-.55c2.06-2.61,4.1-5.23,6.16-7.83a6.31,6.31,0,0,1,1-1,1.63,1.63,0,0,1,1.31-.39ZM36,180.7a1,1,0,0,0-.81.43,14.93,14.93,0,0,0-2.24,4.65.7.7,0,0,0,.38.79c.1.06.31,0,.44-.1a3.2,3.2,0,0,0,.74-.56,14.19,14.19,0,0,0,2.06-3.71,1.68,1.68,0,0,0,0-.92A.73.73,0,0,0,36,180.7Z"/><path class="cls-1" d="M54,175.44a.89.89,0,0,0-.06-.9c-.65-.7-1.33-1.37-2-2-1.28-1.21-2.58-2.38-3.86-3.59a1.8,1.8,0,0,1-.59-1.74A53.75,53.75,0,0,1,51,156.78c.22-.43.48-.83.72-1.24a1.33,1.33,0,0,1,1.21-.61c.77.2,1.54.42,2.3.66a1.21,1.21,0,0,1,.57,1.2,15.45,15.45,0,0,1-1.28,3.6,35.64,35.64,0,0,0-2.16,6.34,13.85,13.85,0,0,0-.2,1.42.86.86,0,0,0,.39.83.75.75,0,0,0,.88,0,3.78,3.78,0,0,0,1-1c.49-1,.89-2,1.31-3.09,1-2.37,1.85-4.77,3-7a1.91,1.91,0,0,1,.7-.58.5.5,0,0,1,.43,0,.71.71,0,0,1,.24.4.8.8,0,0,1,0,.46,33.79,33.79,0,0,0-1.66,6.49,38.6,38.6,0,0,1-1.29,5.11,11.63,11.63,0,0,1-2.74,5,4.41,4.41,0,0,0-.48.82Z"/><path class="cls-1" d="M101.57,204.94a51.73,51.73,0,0,0,3-9.47c.37-1.55.9-3.06,1.38-4.58.58-1.82,1.18-3.64,1.78-5.46.19-.61,1.1-1,1.54-.65.25.2.57.31.8.51.48.43.93.88,1.37,1.34a2.68,2.68,0,0,1,.64,2.68c-1.64,5.83-3.2,11.7-6.07,17.1a5,5,0,0,1-.85,1.14,1.31,1.31,0,0,1-.85.33,4.85,4.85,0,0,1-2.22-.8C101.44,206.74,101.15,206.08,101.57,204.94Z"/><path class="cls-1" d="M120,214.91l-1.32.38a2.1,2.1,0,0,1-.9.16,5.75,5.75,0,0,1-3.22-1.69,1,1,0,0,1-.23-.87,9.75,9.75,0,0,1,1.06-2.56,8.86,8.86,0,0,0,.78-2.18l-.12.17a3.77,3.77,0,0,0,1.08-2.11l-.13.14a27.6,27.6,0,0,0,3.73-6.52,18.92,18.92,0,0,1,1.46-3,3.53,3.53,0,0,1,.7-.62.58.58,0,0,1,.84,0,9.05,9.05,0,0,1,2.08,2.53,3.32,3.32,0,0,1,.36,3.14,22.52,22.52,0,0,1-1.31,3c-.59,1.11-1.17,2.23-1.67,3.38a12.1,12.1,0,0,0-.45,1.82l.14-.16a6.28,6.28,0,0,0-1.07,2.11l.1-.16-1,2.09.12-.14a2.24,2.24,0,0,0-1.12,1.11Z"/><path class="cls-1" d="M84.37,174.71a1.88,1.88,0,0,0-1,.93,27.31,27.31,0,0,0-2.84,6.56,74.52,74.52,0,0,0-2,8.85,6.14,6.14,0,0,1-.48,1.34,1.1,1.1,0,0,1-1.18.56,5.4,5.4,0,0,1-2.34-1.6,1.93,1.93,0,0,1-.44-1.78,3.43,3.43,0,0,1,.11-.46c1-2.71,1.69-5.49,2.44-8.25a29.61,29.61,0,0,1,2.86-7.08c1-1.79,2-3.6,3.09-5.38a1.63,1.63,0,0,1,2.49-.34,3.47,3.47,0,0,1,.37.3,1.81,1.81,0,0,1,.64,2.12c-.4.87-.82,1.73-1.25,2.58a5.58,5.58,0,0,0-.59,1.81Z"/><path class="cls-1" d="M122.74,210.18c.27-.15.64-.23.77-.46.81-1.35,1.54-2.74,2.32-4.11.47-.82,1-1.63,1.45-2.42a1.22,1.22,0,0,1,1.16-.61,1.75,1.75,0,0,1,1.25,1.27,4.13,4.13,0,0,1-1.27,3.39,1.53,1.53,0,0,1-.42.22,2.77,2.77,0,0,1,.05.9,7.35,7.35,0,0,1-1.62,2.78c-.09.11-.28.12-.41.2a5.13,5.13,0,0,1-.1,1.71,2.94,2.94,0,0,0,.41,1.61,1.42,1.42,0,0,0-2,.38c-.09.12-.21.22-.3.35-.21.31-.22.6,0,.78.08.05.3,0,.43-.12.65-.41,1-1.19,1.78-1.48.16-1.14.39-2.26-.31-3.29l.95-.06a1.61,1.61,0,0,0,1.52-1.46,14.86,14.86,0,0,0-.39-2.31c.31,0,.62-.12.94-.14a1.53,1.53,0,0,0,1.15-.73c.37-.51.49-1.19,1-1.58a1.94,1.94,0,0,1,.84-.38,1.26,1.26,0,0,1,1.27,1.55,28,28,0,0,1-2.92,5.45c-1,1.41-2.08,2.81-3.11,4.23-.28.39-.53.94-.32,1.33.68,1.31.17,2.45-.33,3.62a1,1,0,0,1-1.24.26,7.32,7.32,0,0,1-1-.95,4.47,4.47,0,0,0-2.74-1.76,2.26,2.26,0,0,1-.81-.48,1.9,1.9,0,0,1-.9-2c.07-.31.12-.62.18-.93l-.14.12,1.12-1.11-.12.14,1-2.09-.1.16c.82-.47.9-1.31,1.07-2.11Z"/><path class="cls-1" d="M67.6,191.66c.19.13.4.2.42.3a1.59,1.59,0,0,1,0,.89,90.32,90.32,0,0,1-5.58,10,.64.64,0,0,1-1.12,0,43.77,43.77,0,0,1-3.2-5.86c-.56-1.14-1.06-2.31-1.52-3.5a2,2,0,0,1,.08-.92.86.86,0,0,1,.18-.44c1.52-2,3-4.14,4.68-6a1.33,1.33,0,0,1,1.33-.09,3.56,3.56,0,0,1,1.31,1.36,2.64,2.64,0,0,1,.26,1.38,7.89,7.89,0,0,1-.56,1.81,40.68,40.68,0,0,0-2,4.84.67.67,0,0,0,.09.43.55.55,0,0,0,.8.26,4.75,4.75,0,0,0,1.12-.87c.85-.95,1.63-2,2.5-2.88A4.12,4.12,0,0,1,67.6,191.66Z"/><path class="cls-1" d="M98.81,239a4.08,4.08,0,0,1,.11-.93,9,9,0,0,1,.54-1.33c1.2-2.43,2.46-4.83,3.59-7.29a45.54,45.54,0,0,1,5.33-8.49,4.25,4.25,0,0,1,.67-.67c.74-.61,1.74-.79,2.38-1.56a7.18,7.18,0,0,1,2.16-1.87.85.85,0,0,1,.45,0c.54.06.91.57.72,1a8.47,8.47,0,0,1-.38.87c-.58,1-1.17,1.9-1.81,2.81-2.26,3.29-4.37,6.66-6.43,10.08a54.61,54.61,0,0,0-4,7.09,7,7,0,0,1-.77,1.2,1.36,1.36,0,0,1-1.73.21A2.15,2.15,0,0,1,98.81,239Z"/><path class="cls-1" d="M54,175.45l.4-.26c2.89-2.05,3.46-2.66,4.77-5.71a44.59,44.59,0,0,0,2.31-6.25,26.32,26.32,0,0,1,1.23-3.6,2.07,2.07,0,0,1,3.2-.82c.33.23.67.95.54,1.23a26.84,26.84,0,0,0-1.83,6.39,30.79,30.79,0,0,1-2,6.34c-.83,1.89-1.58,3.81-2.38,5.7a.55.55,0,0,1-.79.26A6.22,6.22,0,0,1,58.2,178c-1-.8-1.91-1.67-2.89-2.48a1.21,1.21,0,0,0-1.33-.07Z"/><path class="cls-1" d="M87.28,221.78c0,.44-.06.92-.13,1.39a1.57,1.57,0,0,1-.76,1.14.67.67,0,0,1-.41.08c-.14,0-.36-.16-.38-.26-.11-.95-.15-1.9-.3-2.84a.51.51,0,0,0-.68-.4.72.72,0,0,0-.39.24,2.24,2.24,0,0,0-.4.84c-.29,3.28-1.8,6.07-3.46,8.8a4.18,4.18,0,0,1-.58.75,16.9,16.9,0,0,1-4.56,3.41,1.22,1.22,0,0,1-.92,0,11.23,11.23,0,0,1-1.71-.83.91.91,0,0,1,0-1.55,5.59,5.59,0,0,1,.86-.4,3.9,3.9,0,0,0,2.2-1.72A19.91,19.91,0,0,0,77.18,228c.93-2.06,2.53-3.67,3.57-5.64a2.71,2.71,0,0,1,.62-.73,9.8,9.8,0,0,0,2.17-3.11,6,6,0,0,1,1.85-2.15,1,1,0,0,1,.88-.11.76.76,0,0,1,.58.69c.09.95.19,1.9.27,2.85C87.18,220.47,87.22,221.11,87.28,221.78Z"/><path class="cls-1" d="M86.33,202.19c.15.06.31.1.45.17a1.2,1.2,0,0,1,.69,1.54c-1,1.79-2,3.59-3.09,5.37a12.63,12.63,0,0,1-1.35,2A59.48,59.48,0,0,0,78.81,217c-1.26,1.83-2.54,3.65-3.85,5.44a56.91,56.91,0,0,0-3.25,5.27.63.63,0,0,1-.82.3,1,1,0,0,1-.67-1.07,7.18,7.18,0,0,1,.2-.92A20.82,20.82,0,0,1,72,222.56c.42-.67.86-1.33,1.3-2,1.9-2.92,3.83-5.84,5.71-8.78,1.36-2.15,2.64-4.34,4-6.49a10.8,10.8,0,0,1,2.4-2.94A1,1,0,0,1,86.33,202.19Z"/><path class="cls-1" d="M58.68,218.58a2.1,2.1,0,0,1-1.83-.1,5.48,5.48,0,0,1-1.77-1.58,2.72,2.72,0,0,1-.47-2.27,28.9,28.9,0,0,0,1-3.67,8,8,0,0,1,3.42-4.41.53.53,0,0,1,.43.07c.09.07.21.26.18.35-.36,1.26-1.32,2.17-1.9,3.3a2.2,2.2,0,0,0-.16,1.84l-.21.11.09-.22c.3-.07.68,0,.88-.2a39.37,39.37,0,0,0,5-5.61c1.86-2.53,3.64-5.13,5.29-7.8.66-1.07,1.35-2.12,2-3.18l-.17.09a2.42,2.42,0,0,1,.06,2.29q-.64,1.28-1.41,2.49c-3.5,5.51-6.7,11.2-9.94,16.87a6,6,0,0,0-.7,1.76Z"/><path class="cls-1" d="M84.21,174.87a2.8,2.8,0,0,0,.82-.45c.62-.73,1.17-1.51,1.75-2.27l.59-.76a1.43,1.43,0,0,1,2.38.29.65.65,0,0,1,.09.46c-.23.59-.47,1.18-.76,1.75-.57,1.14-1.18,2.26-1.76,3.4a38.13,38.13,0,0,0-2.78,8.65c-.29,1.25-.59,2.49-.9,3.73a18.62,18.62,0,0,1-2.08,4.83c-.26.45-.87.67-1.19.43a1.28,1.28,0,0,1-.6-1.2A77,77,0,0,1,83.92,177a4.66,4.66,0,0,0,.45-2.32S84.21,174.87,84.21,174.87Z"/><path class="cls-1" d="M98.31,195.08a2.12,2.12,0,0,1-.2-1.84,81.91,81.91,0,0,1,4.83-9.87,5.6,5.6,0,0,1,1-1,1,1,0,0,1,.9-.21.72.72,0,0,1,.62.61,2.54,2.54,0,0,1,0,.95c-.49,2.17-1,4.35-1.63,6.49-1.05,3.35-2.06,6.71-3.08,10.06a13.91,13.91,0,0,1-1.43,3.53,1.45,1.45,0,0,1-1.19.67,3.67,3.67,0,0,1-.94-.12c-.57-.14-.89-.6-.71-1A53,53,0,0,0,99,195.63c.15-.54-.12-.75-.83-.63Z"/><path class="cls-1" d="M116.17,208.15a3.41,3.41,0,0,0-.75.51c-.77,1-1.48,2-2.26,3a1.54,1.54,0,0,1-.79.41c-.51.14-.87-.18-1.22-.49a1.34,1.34,0,0,1-.51-1.22,7.84,7.84,0,0,1,.46-1.31,3.75,3.75,0,0,0,.31-1.81l-.17.18a1.27,1.27,0,0,0,.84-.87c.12-.41.17-.84.25-1.26l-.12.2a3.53,3.53,0,0,0,1.08-2.11l-.11.19a4.15,4.15,0,0,0,1.06-3.1l-.14.15a2.49,2.49,0,0,0,.78-.47,26.32,26.32,0,0,0,2.22-4.2c.4-.86.85-1.7,1.28-2.54a1.17,1.17,0,0,1,1.27-.41,2.48,2.48,0,0,1,1.49,1.08,1,1,0,0,1,.21.9,8.79,8.79,0,0,1-.45,1.34,10.91,10.91,0,0,1-1,1.65,17.54,17.54,0,0,0-2.91,8c0,.16,0,.32,0,.48l.13-.14a1.39,1.39,0,0,0-.8.89c-.12.4-.19.81-.28,1.22Z"/><path class="cls-1" d="M91.83,172.86a1.59,1.59,0,0,1,1.25,1.24,3.83,3.83,0,0,1,0,.47,4.84,4.84,0,0,1-.22.93c-2.18,5.32-3.55,10.91-5.31,16.36-.4,1.22-.64,2.47-1,3.7a10.68,10.68,0,0,1-.55,1.31,1.6,1.6,0,0,1-1.71.52,1.25,1.25,0,0,1-.82-1.06,6.55,6.55,0,0,1,.13-1.41,21.72,21.72,0,0,1,1-2.7A33.94,33.94,0,0,0,87,184.46c.31-1.57.74-3.1,1.15-4.64a28.49,28.49,0,0,1,2.56-6.17A1.66,1.66,0,0,1,91.83,172.86Z"/><path class="cls-1" d="M111.41,207.19a1,1,0,0,0-.84.34c-.61.71-1.07,1.57-2,2a.9.9,0,0,1-.91-.06,1.14,1.14,0,0,1-.57-1.17c.43-1.19.85-2.39,1.31-3.56,1.5-3.83,2.89-7.7,4.08-11.63.28-.91.65-1.79,1-2.67a1.31,1.31,0,0,1,1.63-.52,3.51,3.51,0,0,1,1.41,1.23,1.74,1.74,0,0,1,.22.9,2.66,2.66,0,0,1-.2.91c-.65,1.79-1.31,3.56-2,5.34a6.11,6.11,0,0,0-.43,2.31l.14-.15a2,2,0,0,0-.86,1.4c-.08.57-.13,1.14-.2,1.7l.11-.19a1.44,1.44,0,0,0-.8.89c-.13.4-.19.82-.28,1.22l.12-.2a2,2,0,0,0-1.09,2.13Z"/><path class="cls-1" d="M23.09,149c1.11.06,2.22.13,3.33.16a8.38,8.38,0,0,1,2.81.48,5.44,5.44,0,0,0,1.88.25,14.46,14.46,0,0,1,4.64.93.5.5,0,0,1,.24.34.51.51,0,0,1-.11.43c-.37.29-.8.51-1.17.8A6.59,6.59,0,0,0,32.64,155a8.33,8.33,0,0,1-.65,1.26.82.82,0,0,1-.84.34,1.88,1.88,0,0,1-1.2-.68.77.77,0,0,1-.12-.46c0-.95.08-1.9.13-2.85,0-.63-.26-1.18-.6-1.16a.85.85,0,0,0-.73.44,9,9,0,0,1-.55.78c-.31.4-.58.35-1.11-.19s-.57-.57-1.11,0c-.34.35-.66.78-1.16.67a12.59,12.59,0,0,1-6.26-3.26.76.76,0,0,1-.17-.4c-.05-.41.14-.63.53-.62l4.29,0Z"/><path class="cls-1" d="M119.79,223.52c.4.17.7.26,1,.41a1.13,1.13,0,0,1,.4,1.25,8,8,0,0,1-1.34,1.95,13.31,13.31,0,0,1-3.8,3.56,6.42,6.42,0,0,0-2.26,2.42c-1.06,1.77-2.23,3.46-3.4,5.16-.81,1.17-1.39,2.5-2.15,3.7a5.5,5.5,0,0,1-1.32,1.36,1.11,1.11,0,0,1-1.31,0,.52.52,0,0,1-.24-.34.69.69,0,0,1,.11-.46c1.13-1.72,2.12-3.53,3.21-5.28a94.5,94.5,0,0,1,7-10.24,15.71,15.71,0,0,1,3-3.06A4.73,4.73,0,0,1,119.79,223.52Z"/><path class="cls-1" d="M10.17,149.39c.07-.11.12-.27.22-.32a.54.54,0,0,1,.43,0,62.13,62.13,0,0,1,8.8,4.65,6.21,6.21,0,0,1,1,.95,1.22,1.22,0,0,1-.32,1.63c-.44.18-.89.3-1.33.48a1.39,1.39,0,0,0-.82,1.06c-.36,1.54,0,3.17-.59,4.68a.58.58,0,0,1-.75.31.75.75,0,0,1-.39-.26,27.37,27.37,0,0,1-2.18-4.73,2.35,2.35,0,0,1,0-1.39,11.09,11.09,0,0,1,.74-1.74.87.87,0,0,0,0-.91.73.73,0,0,0-.81-.24c-.31.07-.61.16-.91.25a.78.78,0,0,1-.86-.27A8.94,8.94,0,0,1,10.17,149.39Z"/><path class="cls-1" d="M71.38,161.7a2.78,2.78,0,0,1-.32.85,15.63,15.63,0,0,0-2.69,5.51c-.27.91-.48,1.84-.73,2.76a56,56,0,0,1-2.47,7.69,9.7,9.7,0,0,0-.57,3.24.94.94,0,0,1-1.48.53,9.2,9.2,0,0,1-1-.95.76.76,0,0,1-.17-.88,7.94,7.94,0,0,0,.8-2.71,9.11,9.11,0,0,1,.91-3.67c1.73-3.57,3-7.33,4.58-11a9.44,9.44,0,0,1,.94-1.63,1.5,1.5,0,0,1,1.7-.51A.89.89,0,0,1,71.38,161.7Z"/><path class="cls-1" d="M115.2,244.74a2.82,2.82,0,0,0-.78.44,4,4,0,0,0-1.13,3.4,2.63,2.63,0,0,0-.85.38c-.56.56-1,1.19-1.59,1.77a2.06,2.06,0,0,1-3-.28,14.06,14.06,0,0,1-.92-1.66,1,1,0,0,1,.52-1.17c.44-.21.88-.39,1.32-.59a4.14,4.14,0,0,0,1.54-1.11c1.13-1.34,2.26-2.69,3.36-4.06,2.19-2.75,4.36-5.52,6.54-8.27a1.7,1.7,0,0,1,2.12-.56h0a2.42,2.42,0,0,0-1.06.86,6.38,6.38,0,0,0-.74,1.19,35.3,35.3,0,0,1-4.8,7.94A2.61,2.61,0,0,0,115.2,244.74Z"/><path class="cls-1" d="M38.41,156.82c.29-1.62.44-2.56.62-3.49a2.23,2.23,0,0,1,3.19-1.78,3.29,3.29,0,0,1,.44.16,1.26,1.26,0,0,1,.74,1.1c-.53,2.47-1,4.94-1.61,7.4a6.16,6.16,0,0,1-.58,1.29,1.37,1.37,0,0,1-1.25.44,4.85,4.85,0,0,1-1.63-.95,1.62,1.62,0,0,1-.64-1.66C38,158.26,38.3,157.21,38.41,156.82Z"/><path class="cls-1" d="M28.15,162.84a12.94,12.94,0,0,0-.15-1.35,1.29,1.29,0,0,0-.89-1,4.19,4.19,0,0,0-.94-.15,1.42,1.42,0,0,0-1.39,1.06c-.16.78-.34,1.55-.43,2.34-.19,1.57-.32,3.16-.51,4.73a1.41,1.41,0,0,1-.37.85,2,2,0,0,1-.87.3.68.68,0,0,1-.81-.37c-.07-.13-.2-.28-.18-.39.56-3.13.73-6.31,1.22-9.45.1-.62.26-1.24.38-1.86a1.15,1.15,0,0,1,1.1-.69,7.41,7.41,0,0,1,1.79.61c1.22.75,2.36,1.59,3.53,2.41a.72.72,0,0,1-.09,1.16C28.73,161.38,28.53,162.15,28.15,162.84Z"/><path class="cls-1" d="M85.3,164a9.37,9.37,0,0,1,5.77,1.77c1.86,1.19,3.66,2.45,5.5,3.68a2,2,0,0,0,1.34.31,1.21,1.21,0,0,0,.23.89,18.07,18.07,0,0,1,1,1.59.86.86,0,0,1-1,1.15,3,3,0,0,1-.45-.13c-1.19-.48-2-1.63-3.32-1.84-1.2-.77-2.41-1.54-3.61-2.33s-2.06-1.5-3.15-2.17A6.46,6.46,0,0,1,85.3,164Z"/><path class="cls-1" d="M94,229.22a6.75,6.75,0,0,1,.48-3.27c.63-1.64,1.32-3.24,2.1-4.81s1.65-3.44,2.39-5.2a52.31,52.31,0,0,1,2.42-4.64,2.4,2.4,0,0,1,.7-.64.9.9,0,0,1,1.39.67,1.5,1.5,0,0,1,0,.47,1.05,1.05,0,0,1-.18.44,56.45,56.45,0,0,0-5,9.2,60.43,60.43,0,0,1-3.63,7.24,1,1,0,0,1-.81.43Z"/><path class="cls-1" d="M46.88,152.88a2.4,2.4,0,0,1,1.91,1.21,2.16,2.16,0,0,1,.14.93,9.7,9.7,0,0,1-.49,1.83c-.64,1.63-1.41,3.21-1.94,4.88-.2.63-.9.79-1.6.54a2.12,2.12,0,0,1-1.19-1.92,28.3,28.3,0,0,1,1.67-6.46A1.9,1.9,0,0,1,46.88,152.88Z"/><path class="cls-1" d="M90.66,225.72a3.52,3.52,0,0,0,.55-.75c.36-.88.69-1.76,1-2.67.77-2.4,1.49-4.83,2.25-7.23A19.7,19.7,0,0,1,96.85,210a2.76,2.76,0,0,1,.65-.67.74.74,0,0,1,.85-.08.7.7,0,0,1,.33.83,4.63,4.63,0,0,1-.21.91q-2.79,6.27-5.62,12.54c-.2.43-.46.82-.67,1.25a1.79,1.79,0,0,1-1.5,1Z"/><path class="cls-1" d="M87.63,226.61c.12.1.33.19.35.3a6.86,6.86,0,0,1-.31,2.34,2.75,2.75,0,0,0,.61,2.22,1.71,1.71,0,0,0,.77.51c.78.31,1,.69.89,1.39a16.25,16.25,0,0,1-.44,1.83c-.14.5-.68.87-1.06.74a13.39,13.39,0,0,0-3.17-.85c-.17-.25-.44-.48-.49-.75a3.2,3.2,0,0,1,0-1.41,29.94,29.94,0,0,1,2.16-5.77C87,226.92,87.38,226.79,87.63,226.61Z"/><path class="cls-1" d="M98.8,226.33a4.88,4.88,0,0,1,.21-1.4,102.13,102.13,0,0,1,4.83-9.36,6.86,6.86,0,0,1,2.79-2.55,1,1,0,0,1,.9,0c.35.14.57.43.4.76a6,6,0,0,1-1,1.6,27.58,27.58,0,0,0-4.9,7,13.23,13.23,0,0,1-2.11,3.18,1.57,1.57,0,0,1-1.21.63Z"/><path class="cls-1" d="M108.78,230.44a1,1,0,0,0,.81-.42c.34-.53.68-1.07,1-1.63a45.56,45.56,0,0,1,5.62-8.28,7.28,7.28,0,0,1,1.06-.93.9.9,0,0,1,.91-.08,1,1,0,0,1,.55,1.52c-.2.25-.36.53-.57.77-2.28,2.65-4.58,5.29-6.87,7.94-.61.71-.67.74-2,.95a2.38,2.38,0,0,0-.45.15Z"/><path class="cls-1" d="M123.66,192.11a1.65,1.65,0,0,1,1.77.15,2.12,2.12,0,0,1,.38.29,25.92,25.92,0,0,0,2.65,2.69,23.14,23.14,0,0,1,3,3c.86.93,1.75,1.83,2.58,2.78a1.9,1.9,0,0,1,.27.88.8.8,0,0,1-.08.45.59.59,0,0,1-.78.32,5.51,5.51,0,0,1-2.39-1.49,10.56,10.56,0,0,1-1.81-2.2,18.3,18.3,0,0,0-4.26-5.05,3,3,0,0,1-.67-.67,13.43,13.43,0,0,1-.57-1.28Z"/><path class="cls-1" d="M90.55,204.49a1.71,1.71,0,0,1,1.28.54c.44.42.55.87.23,1.22a10,10,0,0,0-1.63,2.34c-.41.86-.83,1.72-1.29,2.55a1.24,1.24,0,0,1-.69.6,9.44,9.44,0,0,0-3,1.43c-.37.2-.62.12-.72-.27a.6.6,0,0,1,.07-.46,42.81,42.81,0,0,0,4.57-7.26A1.42,1.42,0,0,1,90.55,204.49Z"/><path class="cls-1" d="M94.29,206.88a4.24,4.24,0,0,1,.84.38.92.92,0,0,1,.36.82,1,1,0,0,1-.11.46c-.28.57-.55,1.15-.88,1.69A36.65,36.65,0,0,0,91,218.05a2.44,2.44,0,0,1-.52.77A.74.74,0,0,1,90,219a.55.55,0,0,1-.62-.52,3.06,3.06,0,0,1,0-1.41c1.21-3.28,2.63-6.48,4.14-9.63C93.65,207.17,94,207.05,94.29,206.88Z"/><path class="cls-1" d="M28.17,176c-2.43,0-4.52.09-6.48-.77a.59.59,0,0,1-.18-.81,1.47,1.47,0,0,1,.68-.57,2.5,2.5,0,0,1,.94-.18,38.49,38.49,0,0,1,9,1,2.67,2.67,0,0,1,1.18.76.57.57,0,0,1,.09.79.69.69,0,0,1-.4.26,5.22,5.22,0,0,1-1.42,0A23.93,23.93,0,0,0,28.17,176Z"/><path class="cls-1" d="M74.92,226.51a2.25,2.25,0,0,1,.11-1.38,5.4,5.4,0,0,1,.44-.82,71.36,71.36,0,0,1,5.32-7.16,1.9,1.9,0,0,1,2.08-.71l.11-.11a3.81,3.81,0,0,0-1,1.56,3.88,3.88,0,0,1-.7,1.23,17.47,17.47,0,0,0-2.57,3.37c-.84,1.15-1.71,2.27-2.61,3.37a1.58,1.58,0,0,1-1.26.53Z"/><path class="cls-1" d="M112.89,184.6a1.86,1.86,0,0,1,1.39,0c1.14.58,2.23,1.22,3.34,1.84a39.88,39.88,0,0,0,5.28,4,2.26,2.26,0,0,1,.76,1.66l.1-.12a5.48,5.48,0,0,1-2.64-1c-2.08-1.69-4.41-3.07-6.27-5a15.78,15.78,0,0,0-1.85-1.48Z"/><path class="cls-1" d="M41.85,172.49a4.4,4.4,0,0,1,1.81-2,1.06,1.06,0,0,1,.87,0,6.09,6.09,0,0,1,2.36,2.2.56.56,0,0,1-.16.82l-1.5,1.12c-.5.37-.91.43-1.23.06a5.77,5.77,0,0,0-1.87-1.35A.6.6,0,0,1,41.85,172.49Z"/><path class="cls-1" d="M45.88,189.74C47,188,48,186.2,49.14,184.45a6.7,6.7,0,0,1,1.58-1.78,1.14,1.14,0,0,1,1.32,0,.6.6,0,0,1,.21.82,3.5,3.5,0,0,1-.54.78c-1.42,1.52-2.82,3-4.28,4.52a2.06,2.06,0,0,1-1.66.79Z"/><path class="cls-1" d="M37.38,171.13a2.37,2.37,0,0,1,0-.46,15.22,15.22,0,0,1,1.5-3.38,1,1,0,0,1,1.23-.36,9.93,9.93,0,0,1,1.08.86c.4.38.44.92,0,1.19A2.9,2.9,0,0,0,40,171.35c-.09.91-.88,1.23-1.69.75a3.87,3.87,0,0,1-.72-.56A1.34,1.34,0,0,1,37.38,171.13Z"/><path class="cls-1" d="M88.74,239c0,.24,0,.44-.08.55-.37.47-1,.73-1,1.47,0,.47-.56.71-1.1.61a4.2,4.2,0,0,1-3-2.19,1.17,1.17,0,0,1-.07-.9,2.45,2.45,0,0,1,1.44-1.19,1,1,0,0,1,.47,0,9.09,9.09,0,0,1,2.66,1A4.44,4.44,0,0,1,88.74,239Z"/><path class="cls-1" d="M32.87,169.79c0-.16-.1-.34,0-.47q1.09-2.59,2.21-5.19c.18-.43.88-.7,1.17-.46a1.26,1.26,0,0,1,.59,1.18,17.53,17.53,0,0,1-1.49,4.45,2.66,2.66,0,0,1-.95,1,.78.78,0,0,1-.88.11A3.67,3.67,0,0,1,32.87,169.79Z"/><path class="cls-1" d="M92.72,194.48c.6-1.74,1.22-3.47,1.81-5.22a6.07,6.07,0,0,1,2.28-3.35,5.62,5.62,0,0,0,.92-1l-.13.11a4.44,4.44,0,0,1-.27,2.31A40.4,40.4,0,0,1,93.86,194a1.23,1.23,0,0,1-1.25.45Z"/><path class="cls-1" d="M36.38,156.16c0,.31-.08.93-.13,1.55-.08.89-.74,1.16-1.73.71a1,1,0,0,1-.39-.25,1.78,1.78,0,0,1-.35-.82,7.29,7.29,0,0,1,1.2-3.47,1.4,1.4,0,0,1,.79-.41c.29-.08.5.14.56.52a2.49,2.49,0,0,1,0,.47C36.38,154.92,36.38,155.39,36.38,156.16Z"/><path class="cls-1" d="M96.1,197.86a13.42,13.42,0,0,1-1.36,4,1.32,1.32,0,0,1-2,.27.72.72,0,0,1-.18-.84,12.54,12.54,0,0,1,2.79-3.2.83.83,0,0,1,.42-.17,3.53,3.53,0,0,1,.46,0Z"/><path class="cls-1" d="M128,225a2.54,2.54,0,0,1,.87.28,10,10,0,0,1,1.29,1.31,1.54,1.54,0,0,1,.24,1.32.66.66,0,0,1-1,.44,6.25,6.25,0,0,1-2.1-2.43.64.64,0,0,1,0-.45A.73.73,0,0,1,128,225Z"/><path class="cls-1" d="M130.63,192.82a4.5,4.5,0,0,1-.13.5.68.68,0,0,1-.64.53.92.92,0,0,1-.8-.46,3.53,3.53,0,0,1-.2-3.18.62.62,0,0,1,.82-.31,1,1,0,0,1,.65.61A5.94,5.94,0,0,1,130.63,192.82Z"/><path class="cls-1" d="M80.56,203.4a2.82,2.82,0,0,1,0,.92,18.54,18.54,0,0,1-2.64,4.45,1.65,1.65,0,0,1-.79.44c-.29.1-.61.11-.91.19l.06.1a4,4,0,0,0,1.38-1.77,28.44,28.44,0,0,1,1.9-3.63,1.27,1.27,0,0,1,1.13-.61Z"/><path class="cls-1" d="M125.62,187.48a.81.81,0,0,1,.86.37,3,3,0,0,1,.18,2.25.56.56,0,0,1-.69.48,3.19,3.19,0,0,1-1.93-1.16.84.84,0,0,1,.36-1.47C124.82,187.76,125.26,187.62,125.62,187.48Z"/><path class="cls-1" d="M110.3,181.34a7.89,7.89,0,0,1-2.47-1.25,8.77,8.77,0,0,0-2.14-.85.47.47,0,0,1-.32-.71.85.85,0,0,1,.79-.42,3,3,0,0,1,2.11.8,6.25,6.25,0,0,1,1.91,2.57Z"/><path class="cls-1" d="M88.87,198.92c-.15.45-.38.65-.73.64a.58.58,0,0,1-.58-.57,1,1,0,0,1,0-.46c.18-.42.42-.83.6-1.25s.32-.59.52-.52.14.27.15.41C88.88,197.79,88.87,198.42,88.87,198.92Z"/><path class="cls-1" d="M115.47,236.26a1.82,1.82,0,0,1-.17-1.35,3.82,3.82,0,0,1,1.5-2.28.51.51,0,0,1,.43,0,.39.39,0,0,1,.09.34,8.91,8.91,0,0,1-2,3.16Z"/><path class="cls-1" d="M122.36,233a23.1,23.1,0,0,1-.24-4.23.61.61,0,0,1,.59-.57.54.54,0,0,1,.39.24.63.63,0,0,1,.12.44,7.37,7.37,0,0,1-.22.9c-.22.75-.47,1.5-.65,2.26a3.7,3.7,0,0,0,0,.94Z"/><path class="cls-1" d="M91.65,187.86a1.15,1.15,0,0,0-.55.74,5.57,5.57,0,0,1-.78,2.22c-.24.32-.39.55-.58.42a.45.45,0,0,1-.09-.41c.2-.6.48-1.18.63-1.79s.88-.82,1.37-1.16Z"/><path class="cls-1" d="M80.67,203.49a1.35,1.35,0,0,1-.16-.45,3.27,3.27,0,0,1,1.23-2.47.54.54,0,0,1,.83.13.61.61,0,0,1,.1.43A4.62,4.62,0,0,1,81,203.38c-.09.08-.31,0-.47,0Z"/><path class="cls-1" d="M54.34,221.35c.42.19.84.36,1.25.57a.47.47,0,0,1,.23.34.42.42,0,0,1-.57.45,5.93,5.93,0,0,1-1.28-.46.73.73,0,0,1-.42-.76C53.66,221.16,54,221.15,54.34,221.35Z"/><path class="cls-1" d="M113,184.48c-.57-.53-1.14-1.06-1.7-1.6a2.91,2.91,0,0,1-1-1.54l-.12.14a7.3,7.3,0,0,1,2.14-.1l-.14-.13a1.64,1.64,0,0,0,1.14,1.14l-.12-.15a9.41,9.41,0,0,1-.3,2.35Z"/><path class="cls-1" d="M29.77,192.78c-.16,0-.34.08-.47,0a2.24,2.24,0,0,1-1.42-2.19.8.8,0,0,1,.16-.41c.2-.26.46-.2.69.16a15.34,15.34,0,0,1,.94,1.61,2.33,2.33,0,0,1,0,.91Z"/><path class="cls-1" d="M51.17,217.81c.09.09.24.17.27.28.15.58-.09,1-.45.9a.71.71,0,0,1-.33-.26.51.51,0,0,1,.13-.75A1.9,1.9,0,0,1,51.17,217.81Z"/><path class="cls-1" d="M94.05,177.45a2.78,2.78,0,0,1,.32-2.2.69.69,0,0,1,.8-.2c.31.1.41.36.23.72s-.45.79-.69,1.18a.88.88,0,0,1-.78.39Z"/><path class="cls-1" d="M108.9,233.76c-.48.08-.67.52-1,.79a.48.48,0,0,1-.39.14c-.29-.1-.28-.33,0-.63s.35-.45,1.07-.23a1.5,1.5,0,0,0,.41,0A.72.72,0,0,0,108.9,233.76Z"/><path class="cls-1" d="M44.32,193.13a1.84,1.84,0,0,1,.31-1.62c.43-.58.85-1.17,1.26-1.76l-.12-.15a2.46,2.46,0,0,1-.26,1.68,6.19,6.19,0,0,1-1.3,1.74Z"/><path class="cls-1" d="M33.06,161.89a6.47,6.47,0,0,1,.8.36.51.51,0,0,1,.21.38c0,.32-.71.86-1,.76a.71.71,0,0,1-.42-.75A.88.88,0,0,1,33.06,161.89Z"/><path class="cls-1" d="M90.68,225.7c0,.31.11.62.16.94a1.84,1.84,0,0,1,.06.47.88.88,0,0,1-.16.32c-.15-.15-.1-.4,0-.78a3.68,3.68,0,0,0,0-.93Z"/><polygon class="cls-1" points="91.61 236.99 91.91 236.99 91.82 237.26 91.61 236.99"/><path class="cls-1" d="M91.65,187.88c-.1-.47-.21-.93-.29-1.4,0-.16,0-.41,0-.46.36-.24.47-.08.36.42a2.34,2.34,0,0,0-.1,1.41Z"/><path class="cls-1" d="M92.72,181.94a.94.94,0,0,1-.27,0,2.06,2.06,0,0,1,0-.43c.1,0,.27,0,.28,0A3.17,3.17,0,0,1,92.72,181.94Z"/><path class="cls-1" d="M108.78,230.43a6.62,6.62,0,0,1,.1,3.31.6.6,0,0,1,.09.13,3.1,3.1,0,0,1-.27-1.68,6,6,0,0,0,.08-1.75Z"/><path class="cls-1" d="M98.7,226.23a2.58,2.58,0,0,1-.56,1.7,4.33,4.33,0,0,0-.39.81l.19-.07.21-1.27a1.55,1.55,0,0,1,.65-1.06Z"/><path class="cls-1" d="M96.31,195.31c0,.14.09.29.14.43a1.92,1.92,0,0,1-.36,2.11l.11.11a2.45,2.45,0,0,1-.07-1.29c.1-.43.19-.87.28-1.3Z"/><path class="cls-1" d="M93.93,177.34a.9.9,0,0,1-.2.86s-.28-.12-.28-.16a.65.65,0,0,1,.6-.59Z"/><path class="cls-1" d="M93.85,229.11a.81.81,0,0,1,0,.86s-.31,0-.31-.05a.78.78,0,0,1,.48-.7Z"/><path class="cls-1" d="M92.61,194.41a.62.62,0,0,1,.34.77c0,.1-.23.14-.35.21.05-.29.11-.59.14-.9Z"/><polygon class="cls-1" points="91.84 243.16 92.12 243.3 91.83 243.41 91.84 243.16"/><path class="cls-1" d="M76.2,202.07a8.32,8.32,0,0,0,.15.87,1.56,1.56,0,0,1-.48,1.6l.12.13c0-.45,0-.91.07-1.37s.17-.9.26-1.35Z"/><path class="cls-1" d="M76.31,212.79c-.47-1.08-.11-2.15,0-3.26l-.08-.13c.49,1.06.14,2.16,0,3.29Z"/><path class="cls-1" d="M43.34,164.27c.06-.12.1-.33.18-.36.3-.07.45.13.36.51a.36.36,0,0,1-.32.18C43.46,164.56,43.41,164.39,43.34,164.27Z"/><polygon class="cls-1" points="24.89 187.14 24.81 186.91 24.84 187.06 24.89 187.14"/><path class="cls-1" d="M24.84,187.06l.21.15-.17-.08Z"/><path class="cls-1" d="M29.66,192.88c.33,0,.45.07.34.31,0,0-.22,0-.24-.07a.79.79,0,0,1,0-.34Z"/><path class="cls-1" d="M41.34,178.59l0-.41c.38,0,.35.11-.1.31Z"/><path class="cls-1" d="M46.34,183.74a2,2,0,0,0,0-.29c-.26,0-.23.05.11.17A1.06,1.06,0,0,1,46.34,183.74Z"/><path class="cls-1" d="M70.69,195.21l0,.28q.4-.08-.12-.18Z"/><polygon class="cls-1" points="74.81 226.38 74.66 226.61 74.92 226.51 74.81 226.38"/><path class="cls-1" d="M76.32,202l0,.27c.22-.13.17-.17-.16-.15Z"/><path class="cls-1" d="M82.87,216.44c0-.11,0-.31,0-.31-.27,0-.24.07.12.2A1,1,0,0,1,82.87,216.44Z"/><polygon class="cls-1" points="95.57 237.77 95.59 237.94 95.7 237.78 95.57 237.77"/><path class="cls-1" d="M95.7,237.77l.19.16-.31-.15S95.7,237.77,95.7,237.77Z"/><path class="cls-1" d="M97.75,228.74l.14-.21c-.28.07-.26.1,0,.13Z"/><path class="cls-1" d="M96.41,195.37c.62-.13,1.2-.49,1.88-.3l-.1-.07a1.91,1.91,0,0,1-1.85.32S96.41,195.37,96.41,195.37Z"/><path class="cls-1" d="M97.73,184.89l.15.15a2.85,2.85,0,0,1-.29,0Z"/><path class="cls-1" d="M113.65,236.7l-.12.26c.3.11.37,0,.22-.21Z"/><path class="cls-1" d="M115.35,236.16a1.84,1.84,0,0,1-1.68.55l.08,0c.55-.19,1-.62,1.72-.49Z"/><path class="cls-1" d="M75.67,107.73a7.43,7.43,0,0,1-4.22.42c-.78-.18-1.56-.35-2.33-.56a2.17,2.17,0,0,1-.83-.45A6,6,0,0,1,66.18,103c0-.16,0-.32,0-.48a1,1,0,0,1,1.06-.7,2.78,2.78,0,0,1,.86.38c1.15.92,1.35,1.54,1.15,3.31a.68.68,0,0,0,.41.77,24.06,24.06,0,0,0,4.54,1.47,3.77,3.77,0,0,0,1.42,0Z"/><path class="cls-1" d="M71.72,80.74c-.33.11-.63.19-.91.31s-.54.06-.62-.35a2.41,2.41,0,0,1,.34-1.81,1.24,1.24,0,0,1,1.6-.54,8.58,8.58,0,0,1,1.21.72,1.44,1.44,0,0,1,.57,1.23c0,.51-.45,1-.87.84S72.14,80.87,71.72,80.74Z"/><path class="cls-1" d="M68.43,97.38c-.43.91-.17,1.29.16,1.65a1.13,1.13,0,0,1,.33.85c0,.27-.64.19-1.3-.16C66.27,99,66,98,66.91,96.61a.71.71,0,0,1,.79-.35.81.81,0,0,1,.61.6C68.41,97.17,68.39,97.48,68.43,97.38Z"/><path class="cls-1" d="M70.18,92.78a1.48,1.48,0,0,1-.47,0,3.81,3.81,0,0,1-2-2A2,2,0,0,1,68,88.58a.78.78,0,0,1,.39-.21c.33-.06.65.13.61.49A4.08,4.08,0,0,0,69.79,92a2.88,2.88,0,0,1,.29.9Z"/><path class="cls-1" d="M70.08,92.89a11.26,11.26,0,0,0,2.67,1.92,1.39,1.39,0,0,1,.67,1.59l.08-.1-2.27-.68a1.53,1.53,0,0,1-1.07-1.4c0-.48,0-1,0-1.43A.94.94,0,0,0,70.08,92.89Z"/><path class="cls-1" d="M69.44,84.52a1.32,1.32,0,0,1,1.23.48.61.61,0,0,1,.1.83c-.21.24-.53.2-.82,0a8,8,0,0,1-.71-.6.48.48,0,0,1-.12-.39C69.16,84.69,69.33,84.61,69.44,84.52Z"/><path class="cls-1" d="M73.5,76.05a.49.49,0,0,1-.74.27.54.54,0,0,1-.31-.75.5.5,0,0,1,.74-.28A.61.61,0,0,1,73.5,76.05Z"/><path class="cls-1" d="M73.42,96.4c.77-.52,1-.57,1.11-.24,0,.06-.1.27-.14.26-.29,0-.57-.1-.88-.14Z"/><path class="cls-1" d="M73.93,71.76c-.34.12-.51,0-.47-.26,0,0,.24,0,.27,0a1,1,0,0,1,.1.36Z"/><path class="cls-1" d="M75,72.79a1,1,0,0,1-1-1l-.1.1a1.25,1.25,0,0,1,1,1Z"/><polygon class="cls-1" points="75.93 90.03 75.66 90.06 75.82 90.17 75.93 90.03"/><path class="cls-1" d="M108.49,24.93c-.24-1-1.19-1.42-1.72-2.18a2.38,2.38,0,0,1-.31-.87c0-.07.2-.26.33-.29a.7.7,0,0,1,.45.12,18,18,0,0,1,7.66,8.69.78.78,0,0,1,0,.45c-.1.37-.36.45-.69.18-.49-.4-.93-.84-1.42-1.23-.09-.08-.31,0-.46,0l0-.07a2.28,2.28,0,0,0-.37-1.35,10,10,0,0,0-1.84-2.2,4.94,4.94,0,0,0-.82-.45l.16.19a1.31,1.31,0,0,0-1.13-1.14Z"/><path class="cls-1" d="M109.35,29.72c0-.66-.35-.95-1-1,0-.63-.31-1-1-1-.14-.82-.14-.82-1-1-.15-.81-.15-.81-1-1,0-.81-.62-1.3-1.06-1.86a.8.8,0,0,1-.23-.81c.08-.28.13-.57.19-.86h0c.56.51,1.16,1,1.68,1.55a3.12,3.12,0,0,0,2.44,1l-.15-.15a1.31,1.31,0,0,0,1.13,1.14l-.16-.19a3.32,3.32,0,0,0,.54,1.7l1.41,2.3h0A4,4,0,0,0,109.35,29.72Z"/><path class="cls-1" d="M106.76,16.08a6.55,6.55,0,0,1,4,1.21,2.48,2.48,0,0,1,.57.71.62.62,0,0,1,0,.46.72.72,0,0,1-.7.51,1.41,1.41,0,0,1-.46,0,6.52,6.52,0,0,1-2.45-1.34,2.08,2.08,0,0,1-.86-1.59Z"/><path class="cls-1" d="M108.71,19.84a4.51,4.51,0,0,1,2.12,1,13.41,13.41,0,0,1,2.27,2.37,1,1,0,0,1,.15.86c-.1.41-.63.35-1.2-.07a21.53,21.53,0,0,1-3.06-2.9,1.16,1.16,0,0,1-.17-1.3Z"/><path class="cls-1" d="M109.2,14.51c-.1.1-.2.3-.29.3a2.46,2.46,0,0,1-1.93-1,.49.49,0,0,1,0-.43.58.58,0,0,1,.32-.3,1.76,1.76,0,0,1,1.86,1A1,1,0,0,1,109.2,14.51Z"/><path class="cls-1" d="M103.88,15.87c.38,1,1.27,1.59,1.81,2.45a1.8,1.8,0,0,1,.18,1.24l.12-.06-1.58-1.07a1.13,1.13,0,0,1-.57-1.2,2.39,2.39,0,0,0,.07-1.4Z"/><path class="cls-1" d="M104.4,22.35a4.13,4.13,0,0,1-1.72.4c-.15,0-.36-.07-.4-.17-.16-.34,0-.53.35-.44.56.14,1.08.51,1.72.21Z"/><path class="cls-1" d="M111,5.63c0,.12.17.25.15.36-.07.39-.29.45-.53.13,0-.08,0-.28.07-.39S110.86,5.66,111,5.63Z"/><path class="cls-1" d="M108.82,19.76c-1,.33-1.85-.17-2.8-.28l-.15.08a3.44,3.44,0,0,1,2.83.29Z"/><path class="cls-1" d="M103.91,15.83c.26.07.53.26.77.21a5.54,5.54,0,0,1,2.07.05l.14-.08-3-.14Z"/><path class="cls-1" d="M112.3,29.8a.5.5,0,0,0-.66-.23l-.36.14s0,0,0,0h1.08Z"/><path class="cls-1" d="M119.19,108.21a.7.7,0,0,1-.86-.06s0-.33.08-.33a.67.67,0,0,1,.67.52Z"/><path class="cls-1" d="M108,105.92l.07.18-.18-.08Z"/><path class="cls-1" d="M120.24,111l-.26.15.16,0Z"/><path class="cls-1" d="M124,118.74c.09.05.05-.07.11-.09Z"/><path class="cls-1" d="M114.11,120.79l1.1,1.11Z"/><path d="M107.82,155.94a1.18,1.18,0,0,1-.46,0c-1.46-.7-2.6-1.66-2.57-3.47l-.13.12c1,1.15,2,2.31,3.08,3.47Z"/><path d="M104.79,152.46c-.26-.11-.6-.14-.78-.33a7,7,0,0,1-1.49-3.22l-.09.1c.23.16.55.27.69.49a11.69,11.69,0,0,1,1.54,3.08Z"/><path d="M99.21,144.68a3,3,0,0,1,2.37,1c.17.2.52.25.78.37l.06,0a3.9,3.9,0,0,1-1.33-.06,4.54,4.54,0,0,1-1.08-.86,1.88,1.88,0,0,0-.36-.27c-.13-.08-.29-.11-.42-.19Z"/><path d="M113.44,171.43a6.76,6.76,0,0,1-.74-.55.48.48,0,0,1-.1-.44c.19-.41.37-.34.49.17.07.31.17.61.26.93Z"/><path d="M98.05,138.84a1.28,1.28,0,0,1-1-.92.67.67,0,0,1,.17-.83c.22-.16.43,0,.51.44s.14.94.2,1.42A1,1,0,0,1,98.05,138.84Z"/><path d="M99.3,141.19A1.58,1.58,0,0,1,98,139.28l.06-.44a1,1,0,0,0-.1.11,1.68,1.68,0,0,1,.72,1.09,2.18,2.18,0,0,0,.63,1.16Z"/><path d="M110.72,165.76a.64.64,0,0,0,.78.14c.09,0,.28.06.35.15a.39.39,0,0,1,0,.37c-.14.19-.33.08-.49-.28a.59.59,0,0,0-.66-.42S110.72,165.76,110.72,165.76Z"/><path d="M117,179.6a3.3,3.3,0,0,1-.88-2l-.11.12a1.26,1.26,0,0,1,.85,1,4.18,4.18,0,0,1,0,.94Z"/><path d="M116.09,177.63a2.81,2.81,0,0,1-.94-1.92,1.14,1.14,0,0,0-.11.11,2.06,2.06,0,0,1,.94,1.92Z"/><path d="M113.76,174.16a1.53,1.53,0,0,1,1.28,1.66,1.14,1.14,0,0,1,.11-.11c-.65-.38-.85-1.13-1.31-1.65Z"/><path d="M113.84,174.06a5,5,0,0,1-.4-2.62l-.09.1a2.23,2.23,0,0,1,.42,2.6Z"/><path d="M109.9,163.82c1.21.6,1.21.61.84,1.91,0,0,0,0,0,0a1.76,1.76,0,0,0-.86-1.94Z"/><path d="M109.88,163.78a.8.8,0,0,0,.06-.83c0-.08,0-.19,0-.28.26.39-.11.75-.07,1.14Z"/><path d="M107.8,159.07c.1.08.2.22.3.23s.3-.15.29-.2-.26-.19-.55-.06C107.86,159,107.8,159.07,107.8,159.07Z"/><path d="M107.74,156.05a3,3,0,0,1,.08,3s0,0,0,0c0-.42,0-.87-.11-1.31a3.59,3.59,0,0,1,.08-1.78Z"/><path d="M102.36,146.07a10.38,10.38,0,0,0,0,1.25,4.13,4.13,0,0,1,0,1.68l.08-.09a2.09,2.09,0,0,1-.12-2.86S102.36,146.07,102.36,146.07Z"/><path d="M99.3,141.2a5.86,5.86,0,0,0,.13,1.72,3.17,3.17,0,0,1-.2,1.74s0,0,0,0a15.43,15.43,0,0,1,.07-3.46Z"/><path d="M77,99.49c.23-.16.45-.33.7-.47s.32-.12.38-.07c.35.3.26.43-.22.31a.81.81,0,0,0-.8.21A.1.1,0,0,1,77,99.49Z"/><path d="M113.32,182.39a1.64,1.64,0,0,1-1.14-1.14A1.94,1.94,0,0,1,113.32,182.39Z"/><path d="M52.49,205.15a2.55,2.55,0,0,1-.26,1.81c-.77,1.56-2.31,2-3.73,2.67a.38.38,0,0,1-.48-.46,2,2,0,0,1,.61-.66,12.16,12.16,0,0,0,4-3.27Z"/><path d="M52.59,205.24l.14,0-.23-.12S52.59,205.24,52.59,205.24Z"/><path d="M36,180.7a.73.73,0,0,1,.6.58,1.68,1.68,0,0,1,0,.92,14.19,14.19,0,0,1-2.06,3.71,3.2,3.2,0,0,1-.74.56c-.13.08-.34.16-.44.1a.7.7,0,0,1-.38-.79,14.93,14.93,0,0,1,2.24-4.65A1,1,0,0,1,36,180.7Z"/><path d="M122.88,210c-.17.8-.25,1.64-1.07,2.11A6.28,6.28,0,0,1,122.88,210Z"/><path d="M121.91,212l-1,2.09Z"/><path d="M116.05,208.32c.09-.41.16-.82.28-1.22a1.39,1.39,0,0,1,.8-.89A3.77,3.77,0,0,1,116.05,208.32Z"/><path d="M121,213.92,119.86,215A2.24,2.24,0,0,1,121,213.92Z"/><path d="M126.26,214.6c-.79.26-1.15,1-1.8,1.45-.13.08-.35.17-.43.12-.24-.18-.23-.47,0-.78.09-.13.21-.23.3-.35a1.42,1.42,0,0,1,2-.38Z"/><path d="M128,207.45a14.86,14.86,0,0,1,.39,2.31,1.61,1.61,0,0,1-1.52,1.46l-.93.06.06,0c.14-.06.33-.07.42-.18a7.35,7.35,0,0,0,1.62-2.78,2.77,2.77,0,0,0-.05-.9Z"/><path d="M126.33,214.66a2.94,2.94,0,0,1-.41-1.61,5.13,5.13,0,0,0,.1-1.71s-.06-.05-.07-.06c.68,1,.45,2.15.29,3.29Z"/><polygon points="57.48 212 57.39 212.22 57.6 212.11 57.48 212"/><path d="M113.18,203.52c.07-.56.12-1.13.2-1.7a2,2,0,0,1,.86-1.4A4.15,4.15,0,0,1,113.18,203.52Z"/><path d="M112.21,205.44c.09-.4.15-.82.28-1.22a1.44,1.44,0,0,1,.8-.89A3.53,3.53,0,0,1,112.21,205.44Z"/><path d="M111.24,207.37a2,2,0,0,1,1.09-2.13c-.08.42-.13.85-.25,1.26A1.27,1.27,0,0,1,111.24,207.37Z"/><path d="M112.34,29.73h-1.08l-1.41-2.3a3.32,3.32,0,0,1-.54-1.7,4.94,4.94,0,0,1,.82.45,10,10,0,0,1,1.84,2.2A2.28,2.28,0,0,1,112.34,29.73Z"/><path d="M109.47,25.92a1.31,1.31,0,0,1-1.13-1.14A1.31,1.31,0,0,1,109.47,25.92Z"/></g></g></svg>