<svg xmlns="http://www.w3.org/2000/svg" viewBox="0 0 111.75 74.49"><defs><style>.cls-1{fill:#fff;}</style></defs><title>Zeeplant9</title><g id="Laag_2" data-name="Laag 2"><g id="Laag_1-2" data-name="Laag 1"><path d="M87.65,55.44c.13-.85,1-1.22,1.25-2a.84.84,0,0,0-.19-.86,4.4,4.4,0,0,0-2.14-1,10.39,10.39,0,0,0-5.66.39c-.74.28-1.48.59-2.24.84a8.08,8.08,0,0,1-1.84.49,31.78,31.78,0,0,0-6,1.42,28.48,28.48,0,0,1-3.25.79,15.51,15.51,0,0,0-2.34.52,37.72,37.72,0,0,1-9.91,1.42A23.49,23.49,0,0,0,51,58a11.59,11.59,0,0,1-3.81.22l.05.12a2.7,2.7,0,0,1,.27-.39.81.81,0,0,1,.34-.3,24,24,0,0,1,8-1.25,8.09,8.09,0,0,0,1.9-.16c1.72-.31,3.45-.62,5.15-1a20.54,20.54,0,0,0,2.69-1,.45.45,0,0,0,.19-.41.86.86,0,0,0-.74-.46c-2.2-.31-4.45-.16-6.62-.78a5.88,5.88,0,0,0-2.85.13,14.11,14.11,0,0,1-3.29.52,10.59,10.59,0,0,0-4.18.85,5.11,5.11,0,0,1-2.82.28l.12.1c.2-.23.35-.61.6-.68a26.72,26.72,0,0,1,5.07-1.28,30.64,30.64,0,0,0,3.29-.59,12.64,12.64,0,0,1,4.74-.27c1.9.32,3.82.18,5.71.47a23,23,0,0,0,7.59-.3c1.72-.31,3.51-.36,5.07-1.25a.49.49,0,0,0,.15-.78,2.74,2.74,0,0,0-.71-.61,4.42,4.42,0,0,0-2.3-.55c-2.53.12-5.09-.09-7.59.58a6.2,6.2,0,0,1-1.41.23c-3.66.08-7.31.49-11-.12a8.55,8.55,0,0,0-2.37,0,37.72,37.72,0,0,0-7.41,1.77c-.75.23-1.53.41-2.31.57a4.43,4.43,0,0,1-1.88-.13A1.06,1.06,0,0,1,40.11,50a5.14,5.14,0,0,1,1.74-1.61c1.69-.87,3.42-1.67,5.16-2.46a11,11,0,0,1,1.82-.57c1.23-.31,2.47-.6,3.69-.89a2.57,2.57,0,0,1-1,1.05,8.74,8.74,0,0,1-2.16.94,14.65,14.65,0,0,0-6,2.74.51.51,0,0,0-.09.45c0,.11.23.29.33.27,2.64-.47,5.16-1.43,7.8-1.9a8.94,8.94,0,0,1,3.3-.05,11.88,11.88,0,0,0,2.34.33c2.21-.09,4.42-.27,6.63-.44.12,0,.27-.18.34-.31a.59.59,0,0,0-.19-.77,2.1,2.1,0,0,0-.85-.41,29.27,29.27,0,0,0-6.13-.56,8,8,0,0,1-4.5-1.24,1.66,1.66,0,0,1,1.32-.42,3.3,3.3,0,0,1,.93.21,6.13,6.13,0,0,0,2.8.52c1.12-.05,2.23-.14,3.35-.2.44,0,.6-.23.45-.64a.76.76,0,0,0-.25-.37c-1.22-.76-2.44-1.51-3.68-2.23a2.46,2.46,0,0,0-1.86-.25c-.62.14-1.22.35-1.83.54a14.91,14.91,0,0,1-5.18.82,9.11,9.11,0,0,0-3.75.68,18.93,18.93,0,0,0-3.14,1.19,9.24,9.24,0,0,1-1.33.54,11.09,11.09,0,0,1-5.15.85,8.86,8.86,0,0,0-3.79.37,2.53,2.53,0,0,1-.93.19,49.73,49.73,0,0,0-6.21.44,2,2,0,0,1-.93-.18,1.86,1.86,0,0,1-.73-.54,1.67,1.67,0,0,1,.38-2.14,6.41,6.41,0,0,1,1.26-.68,49.79,49.79,0,0,0,5.9-2,12.81,12.81,0,0,1,2.79-.59c2.13.41,4.09-.52,6.14-.76a15,15,0,0,0,2.24-.8A3.42,3.42,0,0,1,42.62,39c.79.09,1.56.35,2.35.45a6.14,6.14,0,0,0,3.71-.7,2.5,2.5,0,0,0,.64-.69.48.48,0,0,0,0-.39.75.75,0,0,0-.32-.34.68.68,0,0,0-.46-.07c-1.39.38-2.85.32-4.24.75a8,8,0,0,1-3.79.26,14.75,14.75,0,0,0-4.3-.11,11.24,11.24,0,0,1-2.39.05A31.37,31.37,0,0,0,28.12,38a5,5,0,0,1-1.89-.24,22.94,22.94,0,0,0-4.7-.83c-.35,0-.52-.33-.63-.64a.87.87,0,0,1,.14-.89,3.56,3.56,0,0,1,.65-.69,7.4,7.4,0,0,1,3.09-1.25A30.67,30.67,0,0,0,29,32.72a5.62,5.62,0,0,1,2.85.06c2.79.73,5.68.9,8.5,1.44a5.79,5.79,0,0,0,2.38-.06A.75.75,0,0,0,43.15,33a3.15,3.15,0,0,0-1.89-1.34,1.37,1.37,0,0,0-.93.13,3.07,3.07,0,0,1-1.87.18,23.11,23.11,0,0,0-2.81-.61,19,19,0,0,1-3.74-.81c-.76-.25-1.54-.42-2.29-.68a5.93,5.93,0,0,0-3.31-.15c-.31.07-.62.15-.94.19a4.67,4.67,0,0,1-1.9-.05,13.5,13.5,0,0,0-4.72-.71,1.93,1.93,0,0,1-.48,0,3.58,3.58,0,0,1-.93-.2c-1-.51-2.18-.48-3.17-1A1.25,1.25,0,0,1,14,26.25a2,2,0,0,1,.78-.54c1.7-.41,3.41-.83,5.14-1.12a3.24,3.24,0,0,1,3.08.95l-1.88.08c-.47,0-.95,0-1.42.07a4.36,4.36,0,0,0-.9.26c-.33.11-.92,1-.76,1.11a1.54,1.54,0,0,0,.74.46A15.7,15.7,0,0,1,22,28.2a5.73,5.73,0,0,0,2.8.37,20.36,20.36,0,0,1,8.43.85,1.49,1.49,0,0,0,.47,0,1.29,1.29,0,0,0,.45-.1c.13-.06.31-.15.33-.26a.53.53,0,0,0-.12-.44c-1.65-1.3-3.69-1.73-5.59-2.47a5.67,5.67,0,0,0-3.69-.33,2.93,2.93,0,0,1-2.27-.39c.61-.21,1.21-.39,1.81-.62a.52.52,0,0,0,.31-.78.68.68,0,0,0-.28-.32,3.08,3.08,0,0,0-.89-.32,4,4,0,0,0-1.89.18,4.6,4.6,0,0,1-2.82.08c-.15-.05-.31-.08-.46-.12a6.94,6.94,0,0,0-3.78,0,11,11,0,0,1-1.4.33,5.78,5.78,0,0,1-3.25-.5,1.25,1.25,0,0,1-.27-2,6.08,6.08,0,0,1,3-1.48c1.42-.24,2.81-.58,4.21-.88,1.24-.26,2.53-.27,3.79-.44A1.93,1.93,0,0,0,22,17.87a.67.67,0,0,0,0-.84c-.08-.12-.21-.29-.34-.31a9.65,9.65,0,0,0-2.81.45,14.82,14.82,0,0,1-5.23.06,7.77,7.77,0,0,0-3.3.36,2.41,2.41,0,0,1-2.18-.69,1.41,1.41,0,0,1-.17-1.33,3,3,0,0,1,1.42-1.23c1.19-.46,2.41-.82,3.61-1.26a5.86,5.86,0,0,0,1.28-.63,1.18,1.18,0,0,0,.54-.72c0-.26-.28-.55-.49-.78a2.37,2.37,0,0,0-.76-.57c-.72-.33-1.48-.59-2.21-.9a20.22,20.22,0,0,1-2.18-1,28.15,28.15,0,0,0-6.6-2.77A3.69,3.69,0,0,1,.25,3.59,2.07,2.07,0,0,1,1.12.73,8.43,8.43,0,0,1,2.42.15a.83.83,0,0,1,.47,0A3,3,0,0,1,5.12,1.72c-.63-.1-1.25-.22-1.88-.28a3.23,3.23,0,0,0-.93.09,1.33,1.33,0,0,0-.9,1.83A3.25,3.25,0,0,0,2.3,4.44a5.31,5.31,0,0,0,3.12,1c.56,0,1-.41.83-.84a6.67,6.67,0,0,0-.86-1.68A2.4,2.4,0,0,1,5,1.56a4.13,4.13,0,0,1,.86.37,5.51,5.51,0,0,1,1,1,17.09,17.09,0,0,0,6.4,4.76,1,1,0,0,0,.86,0,1,1,0,0,0,.29-.84A17.19,17.19,0,0,0,14,5,8.1,8.1,0,0,1,14,2.18,5.09,5.09,0,0,1,14.57.4a.69.69,0,0,1,.8-.38.54.54,0,0,1,.45.72,2.87,2.87,0,0,1-.28,1.82,3.68,3.68,0,0,0-.24,2.29,19.39,19.39,0,0,0,.59,2.27c.08.27.37.48.59.68a.54.54,0,0,0,.42.1.59.59,0,0,0,.29-.35,4,4,0,0,0,0-1.86,27,27,0,0,0-1.43-5A3.37,3.37,0,0,1,17.16,2c.16.27.26.57.4.85a7,7,0,0,1,.89,3.6,24.41,24.41,0,0,0,.24,4.68,1.74,1.74,0,0,0,.69,1.19,31.19,31.19,0,0,1,2.88,2.39,2.82,2.82,0,0,0,.83.42h.11l-.21.14a2.51,2.51,0,0,0-.1-1.81,6.29,6.29,0,0,1-.54-2.25l-.14.06a2.33,2.33,0,0,1,1,.87A19.83,19.83,0,0,0,25.4,15a1.78,1.78,0,0,0,2.06.47l-.1.21.16-.12a8.87,8.87,0,0,1-.79-3.07,10.51,10.51,0,0,0-1.21-3.89,4.94,4.94,0,0,1-.31-1.3l-.1.11a11,11,0,0,0,2.54-1.12,1.08,1.08,0,0,1,.88,0,5.79,5.79,0,0,1,2.29,1.58,24.55,24.55,0,0,0,2.69,2.61,14.35,14.35,0,0,1,2.4,2.87,4.39,4.39,0,0,1,.68,2.67l.15-.09a1.79,1.79,0,0,1-.36-.3A24.61,24.61,0,0,0,30.7,9.42a1.08,1.08,0,0,0-.39-.25c-.3-.08-.66-.25-.89-.15a1,1,0,0,0-.43.76c0,.78.05,1.57.08,2.35-.2.25-.42.48-.61.73a1.61,1.61,0,0,0-.28,1.36A35.25,35.25,0,0,0,30,19.63,11.42,11.42,0,0,0,35.24,25a7,7,0,0,0,1.37.4,4,4,0,0,1,1.15,1.28l.12.19-.21-.08-1.15-1.31A11.33,11.33,0,0,0,35.17,23a2.71,2.71,0,0,1-.48-1.32,1.46,1.46,0,0,1,.42.19c1.45,1.34,2.9,2.69,4.33,4.05a4.34,4.34,0,0,1,.56.72,3.85,3.85,0,0,1,.23.38c0-.35.07-.4.16-.14l-.3,0a3,3,0,0,0,.11-2.27,22.66,22.66,0,0,0-.93-2.14,7,7,0,0,1-.61-2.72l-.12.14a1.53,1.53,0,0,1,.37.29c.43.67.84,1.34,1.24,2,.89,1.51,1.78,3,2.63,4.54s1,3,1.63,4.49a2.5,2.5,0,0,0,.55.75.59.59,0,0,0,.44.13.57.57,0,0,0,.56-.58,6.1,6.1,0,0,0-.58-2.3c-.43-1.2-1-2.36-1.42-3.55-.69-1.78-1.42-3.55-2-5.37-1-3-1.9-6.08-3-9.07A5.21,5.21,0,0,1,38.8,8a4.14,4.14,0,0,1,.39-.86,1.36,1.36,0,0,1,1.29-.38,3,3,0,0,1,1.9,2.54l.12-.08c-.66,0-1.16-.48-1.78-.55a.75.75,0,0,0-.76.4,2.28,2.28,0,0,0-.08,1.84c1,3,2,6,2.91,9a44.5,44.5,0,0,0,1.74,4.39,2.56,2.56,0,0,0,.59.73.85.85,0,0,0,.41.18c.31.08.55-.1.59-.5a4.46,4.46,0,0,0,0-1.41c-.57-2.62-.72-5.32-1.64-7.87a5,5,0,0,1-.09-1.4l-.12.12c.25.18.59.3.74.54a6.84,6.84,0,0,1,1.09,2.61c.16,1.1.38,2.18.55,3.28a26.27,26.27,0,0,1,.45,3.29,60.29,60.29,0,0,0,1.15,8.47,7.28,7.28,0,0,0,.23.92,5,5,0,0,0,3.55,3.5,1.37,1.37,0,0,0,1.46-.9,3,3,0,0,0,.09-.94c-.26-1.56-.4-3.14-.64-4.7a42.35,42.35,0,0,0-1.59-6.44c-.63-2-1.26-3.92-1.87-5.88a10,10,0,0,1-.59-3.25,2,2,0,0,1,1,1c.35,1.05.68,2.11,1,3.17,1.06,3.33,2,6.69,3.13,10,.11.34.22.62.59.65.07,0,.2-.25.22-.39a12.16,12.16,0,0,0-.22-5.2c-.64-2.62-1.36-5.22-2-7.85A16.13,16.13,0,0,0,50,10.51a.81.81,0,0,0-.35-.31c-.29-.11-.63-.3-.87-.22s-.41.45-.49.72a2.31,2.31,0,0,0,.18,1.39,5,5,0,0,1,.54,2.76,6.69,6.69,0,0,1-1.76-2.75c-.18-.61-.28-1.25-.41-1.87a1.49,1.49,0,0,1,.48-1.29,2.43,2.43,0,0,1,2.2-.57,2.14,2.14,0,0,1,.75.57c.57.78,1.07,1.6,1.62,2.37a11.32,11.32,0,0,1,1.76,3.91c.57,2.33,1.14,4.65,1.74,7a33,33,0,0,1,.83,5.68c.21,2.55.41,5.1.64,7.64.1,1.11.27,2.22.42,3.33a2.18,2.18,0,0,0,1,1.53,8,8,0,0,0,4.33,1.85.88.88,0,0,0,.83-.38,5.2,5.2,0,0,0,.65-1.26,9.94,9.94,0,0,0,.3-3.8,29.15,29.15,0,0,0-1.77-8.4c-.66-1.63-1.24-3.29-2-4.85a30.21,30.21,0,0,1-2.33-5.76,33.57,33.57,0,0,0-3-7,7.17,7.17,0,0,1-.49-1.34.7.7,0,0,1,.32-.8.65.65,0,0,1,.47-.07,5,5,0,0,1,2.08,1.13,2.3,2.3,0,0,1,.94,1.6l.12-.11c-.11.12-.22.23-.32.35A1.83,1.83,0,0,0,58,13.24c.55,1.81,1.09,3.62,1.71,5.41a20.9,20.9,0,0,0,2.67,5.5c.19.27.52.49.8.35a1.07,1.07,0,0,0,.41-.77,3.29,3.29,0,0,0-.05-1.4c-.77-2.24-.9-4.64-1.72-6.87a5,5,0,0,1-.13-1.4l-.11.12a2.75,2.75,0,0,1,.74.53,5.53,5.53,0,0,1,.88,1.68c.57,2.47,1.58,4.84,1.84,7.37a21.83,21.83,0,0,0,1.44,6,16.08,16.08,0,0,1,1,6.06,27.89,27.89,0,0,0,1.17,8,.91.91,0,0,0,1.18.43A9.5,9.5,0,0,0,71,43.38a2,2,0,0,0,.67-1.71A12.32,12.32,0,0,0,71,38.43a9.28,9.28,0,0,1-.62-4.2l-.12.06c.22.22.56.4.63.66.87,3,2.05,6,2.4,9.13a.59.59,0,0,0,.66.52c.16,0,.39,0,.46,0a3.27,3.27,0,0,0,.48-.78.8.8,0,0,0,0-.46,17.45,17.45,0,0,1-.65-3.73,7,7,0,0,0-.31-1.86,18.76,18.76,0,0,1-.63-5.16,21.4,21.4,0,0,0-.19-3.31,69.41,69.41,0,0,1-.84-9.44l-.12.15a2,2,0,0,1,.73,1.19A13.75,13.75,0,0,1,73,23.08a9.5,9.5,0,0,0,.49,3.78,7.58,7.58,0,0,1,.43,2.83c-.05,4.2,1,8.23,1.83,12.31a3.8,3.8,0,0,0,1.17,2.06,2.63,2.63,0,0,0,2.63.68,2,2,0,0,0,.82-.48,3.62,3.62,0,0,0,1.11-2.57,19.56,19.56,0,0,0-1.12-7.54,5,5,0,0,1-.43-2.8l-.12.06a3.21,3.21,0,0,1,.72.58,20.51,20.51,0,0,1,1.93,4.88,3.78,3.78,0,0,1,.16.94,18.82,18.82,0,0,1-.1,5.25,4.29,4.29,0,0,1-2.88,3.52c-.3.1-.62.14-.92.25s-.35.16-.37.28a.65.65,0,0,0,.46.69,8.86,8.86,0,0,0,1.33.5,2,2,0,0,0,2.12-.76,6.39,6.39,0,0,0,1.48-4q0-5,0-10a9.83,9.83,0,0,0-.43-2.84c-.73-2.45-.83-5-1.39-7.52a9.36,9.36,0,0,1-.11-3.34l-.11.13c.21.22.57.41.63.66.41,1.86.78,3.73,1.14,5.6A23.74,23.74,0,0,0,84,29a22.86,22.86,0,0,1,.78,7.08c0,2.23-.12,4.45,0,6.68A11.64,11.64,0,0,1,84,47.46a1.57,1.57,0,0,0,0,.93,1.71,1.71,0,0,0,2.08.54,3.38,3.38,0,0,0,1.26-2,4.9,4.9,0,0,0,.18-1.42,101.82,101.82,0,0,1,.47-10.48,41,41,0,0,0-.8-10.42c-.12-.63-.33-1.24-.39-1.87a70,70,0,0,0-2.72-12.56,4.42,4.42,0,0,1-.2-.93,11.37,11.37,0,0,1,0-1.43.83.83,0,0,1,.48-.72.64.64,0,0,1,.87.17,15.2,15.2,0,0,1,2.93,5.4,8.28,8.28,0,0,1,.22,1.41l.13,0a1.19,1.19,0,0,1-.69-.63,4.5,4.5,0,0,0-1-1.61c-.28-.23-.55-.34-.82-.18a.48.48,0,0,0-.16.43c.54,2.65,1.12,5.3,1.64,8,.42,2.19.65,4.43,1.16,6.6a28.77,28.77,0,0,1,.59,6.66A35.47,35.47,0,0,1,89,38.56a36.75,36.75,0,0,0-.38,6.2A13.33,13.33,0,0,1,88,49c-.28.88.18,1.49,1.15,1.72.77.18,1.41-.19,1.42-.83,0-.48,0-1,0-1.43a16.56,16.56,0,0,1,.3-4.77c.76-2.69.31-5.39.17-8.09a21.06,21.06,0,0,1-.49-5.71c0-2.39,0-4.78,0-7.18l-.12.14A1.83,1.83,0,0,1,91.17,24a15.59,15.59,0,0,1,.23,2.36,50.74,50.74,0,0,0,.48,7.59,74.14,74.14,0,0,1,.36,7.61A8.92,8.92,0,0,1,92,43.91a11.65,11.65,0,0,0,.22,5.66,8.11,8.11,0,0,0,.71,1.76,2.16,2.16,0,0,0,2.34,1.24.77.77,0,0,0,.74-.51,3.66,3.66,0,0,0,.32-.87,25.08,25.08,0,0,1,1.28-5.56,14.12,14.12,0,0,0,.7-3.73,80.35,80.35,0,0,0-.07-9A10.8,10.8,0,0,0,97.92,31c-.39-1.7-.82-3.39-1.23-5.09a9.67,9.67,0,0,1-.29-1.4,41.05,41.05,0,0,0-1-5.62A13.37,13.37,0,0,1,95.3,17l-.12.05a1.78,1.78,0,0,1,.35.32,9.4,9.4,0,0,1,1.34,4c.13,2.57,1.07,5,1.49,7.46a13,13,0,0,1,.87,4.66,11.85,11.85,0,0,0,.13,1.89,12.15,12.15,0,0,1,0,4.73c-.2,1.1-.18,2.23-.39,3.31-.24,1.24-.63,2.46-.94,3.68s-.54,2.16-.75,3.25a4.78,4.78,0,0,0,.31,2.79c.15.36.86.88,1.08.74a4.6,4.6,0,0,0,.73-.59,1.14,1.14,0,0,0,.28-.38,17.41,17.41,0,0,0,1.41-5.51c.11-2,0-4.14.65-6.13a8.42,8.42,0,0,0-.16-1.89,14.06,14.06,0,0,1-.51-4.23c0-3.18,0-6.36,0-9.54l-.13.14a4.78,4.78,0,0,1,.64,1.25,28.19,28.19,0,0,1,.35,3.3c.06,1.26,0,2.53,0,3.8a13.73,13.73,0,0,0,.48,4.23,8.74,8.74,0,0,1,.17,3.77c-.34,2.2-.53,4.4-.7,6.61a15.58,15.58,0,0,1-.41,2.33c-.34,1.38-.72,2.76-1.06,4.11l.07-.1a.78.78,0,0,0,.2.86,16.29,16.29,0,0,0,2,1.18,1.25,1.25,0,0,0,1.31-.13c.49-.37.94-.79,1.4-1.19s.62-.49,1.66-.54c.16,0,.31-.05.46-.07l-.07,0a1.4,1.4,0,0,0-.43.19,9.3,9.3,0,0,0-1.64,2.29,1.33,1.33,0,0,0,0,1.34,11.81,11.81,0,0,0,1,1,21.11,21.11,0,0,1,5.14,6.75,1.65,1.65,0,0,1,.19,1.34.49.49,0,0,1-.31.25.56.56,0,0,1-.44-.14c-.73-1.22-1.4-2.47-2.14-3.69a12.94,12.94,0,0,0-3.94-4.06c-1.19-.77-2.42-1.5-3.66-2.18a1.68,1.68,0,0,0-1.8.11,4.48,4.48,0,0,1-2.13,1l.1.1c-.18-.87.63-1.42.73-2.19a1.68,1.68,0,0,0-.1-.92A2.17,2.17,0,0,0,96.09,55a1.82,1.82,0,0,0-.92.16C94,55.77,93,56.43,91.8,57a5.19,5.19,0,0,1-1.39.26l.08.12a.94.94,0,0,1,.31-.82c.57-.52,1.15-1,1.7-1.56a.49.49,0,0,0,.08-.42.51.51,0,0,0-.64-.43,8.74,8.74,0,0,0-2.62.85,3.25,3.25,0,0,1-1.79.34ZM32.59,25.8a1,1,0,0,0-.72-1,4.63,4.63,0,0,0-.92-.12c-.35,0-.7.09-.76.42s.27.47.62.5c.62.06,1.25.09,1.89.1l.11,0Zm7.48,10.81a2,2,0,0,0-1.68-1.46,10.85,10.85,0,0,1-3.21-.78,6,6,0,0,0-1.83-.46,13.9,13.9,0,0,0-6.12.16,21.79,21.79,0,0,1-2.33.43.84.84,0,0,0-.36.3.76.76,0,0,0-.16.83.71.71,0,0,0,.29.36,9.26,9.26,0,0,0,5.12.63,3.86,3.86,0,0,1,1.88,0,11.74,11.74,0,0,0,5.65.11,11.36,11.36,0,0,1,2.86-.23c.22-.16.63.45.71-.19A1.09,1.09,0,0,0,40.07,36.61Zm-6.91,5.07a5.34,5.34,0,0,0-3.33.56A24.92,24.92,0,0,1,25,44.09a.86.86,0,0,0-.36.3.93.93,0,0,0-.18.42c0,.31.2.61.52.52a11.69,11.69,0,0,1,3.28-.39,14.67,14.67,0,0,0,4.71-.35,5.48,5.48,0,0,1,2.35,0,6.81,6.81,0,0,0,2.8-.33A42.43,42.43,0,0,0,43.8,42a.7.7,0,0,0,.33-.33.52.52,0,0,0-.06-.38.78.78,0,0,0-.33-.32,3.3,3.3,0,0,0-1.34-.37c-1.88.23-3.82.12-5.63.71A8,8,0,0,1,33.16,41.68ZM19.89,22.08c.36,0,.84,0,1.31-.12a12.4,12.4,0,0,1,4.25.22c.46.1.93.16,1.4.22a.76.76,0,0,0,.83-.35.67.67,0,0,0-.22-.82,6,6,0,0,0-3-1.3,18.46,18.46,0,0,0-8.45.55,21.68,21.68,0,0,1-2.81.47,1.45,1.45,0,0,0-.78.48.65.65,0,0,0-.05.82.67.67,0,0,0,.4.25,2.08,2.08,0,0,0,.93,0A10.11,10.11,0,0,1,18.83,22C19.15,22,19.46,22,19.89,22.08Zm-6-6.14c1.06,0,1.85,0,2.62,0a2.65,2.65,0,0,0,.88-.31.63.63,0,0,0,.27-.31.58.58,0,0,0-.3-.79,4.13,4.13,0,0,0-2.25-.5,4.87,4.87,0,0,0-3.36,1.38s0,.29.1.29C12.59,15.8,13.37,15.88,13.86,15.94ZM51.58,39.23a4.77,4.77,0,0,0-1.11.42,1,1,0,0,0-.46.76c0,.3.43.41.77.42a1.73,1.73,0,0,0,1.31-.38c.22-.21.48-.54.45-.78S52.11,39.25,51.58,39.23Zm13.91,3c0,.26,0,.42,0,.58,0,.38.24.65.62.59a.62.62,0,0,0,.46-.72c0-.47-.08-.94-.13-1.41a.8.8,0,0,0-.54-.72s-.22.23-.25.37C65.59,41.35,65.54,41.82,65.49,42.19Zm.28-7.5.17.33c.06-.11.16-.22.16-.33s-.1-.21-.16-.32Z"/><path d="M90.41,57.24a3.19,3.19,0,0,1-.5.77,5.26,5.26,0,0,1-2.11,1.06,38.68,38.68,0,0,0-5.44,1.74,16.68,16.68,0,0,1-7,1.28L71.57,62a7.22,7.22,0,0,0-2.79.47c-1.18.46-2.41.8-3.6,1.24a37.38,37.38,0,0,1-7.9,1.65,8.05,8.05,0,0,1-1.89-.1,3.85,3.85,0,0,0-1.87.25,12.42,12.42,0,0,1-3.18,1,1,1,0,0,1-1-.77,1.75,1.75,0,0,1,.46-1.74,10.14,10.14,0,0,1,1.88-1.45,4.57,4.57,0,0,1,1.37-.3L53,62c-.1.86-1,1.18-1.25,2a.65.65,0,0,0,.08.45.49.49,0,0,0,.33.21c.81.06,1.5-.48,2.3-.48s1.58,0,2.37,0A26.51,26.51,0,0,0,62,63.44a41.47,41.47,0,0,0,5.9-1.81,7.73,7.73,0,0,1,3.25-.54c.63,0,1.27,0,1.9.11a11.4,11.4,0,0,0,3.77-.29,20.5,20.5,0,0,1,2.34-.43,14,14,0,0,0,3.65-1c2.19-.92,4.54-1.36,6.79-2.13a3,3,0,0,1,.94,0Z"/><path d="M70.34,34.23c-.22-.21-.56-.39-.65-.65A28.51,28.51,0,0,1,68.62,30q-1.07-5.35-2-10.74a41.91,41.91,0,0,0-2-7.8,4,4,0,0,1-.09-.93c0-.39.59-.88,1-.8a2.37,2.37,0,0,1,1.26.61,4.37,4.37,0,0,1,1.45,2.9l.14-.1a3.55,3.55,0,0,0-.47-.08c-.87,0-1.16.28-1.06,1.08.43,3.48,1.32,6.87,1.69,10.35a7.43,7.43,0,0,0,.23.93c.47,1.85.63,3.76,1.15,5.6a9.26,9.26,0,0,1,.28,3.32Z"/><path d="M83.12,64.44A1.54,1.54,0,0,1,82,65.84a6.92,6.92,0,0,0-.91.3,18.8,18.8,0,0,1-7.89,1.57c-.63,0-1.27.11-1.91.14a26.79,26.79,0,0,0-3.81.18c-2,.4-4,1-6,1.56a1.55,1.55,0,0,0-1,.93s0,0,0,0a1.51,1.51,0,0,0,.18-.44,1.77,1.77,0,0,1,1.42-1.68c1.69-.48,3.4-.87,5.11-1.27a3.74,3.74,0,0,1,1-.08c.64,0,1.28,0,1.92,0,4.26,0,4.38.07,8.5-1.15a25,25,0,0,0,4.57-1.44Z"/><path d="M71.45,72.12l-.87,1.1c-1.39.33-2.78.67-4.18,1a3,3,0,0,1-.94.06,26.87,26.87,0,0,0-5.23.15c-1.74.13-3.5.06-5.25,0a8.46,8.46,0,0,1-1.41-.16.76.76,0,0,1-.6-.66.89.89,0,0,1,.27-.85,3.83,3.83,0,0,1,2.56-1.11l-.1-.1a12.29,12.29,0,0,0,.68,1.24,1.41,1.41,0,0,0,.75.51,11.51,11.51,0,0,0,2.33.23,13.19,13.19,0,0,0,2.33-.32A7.08,7.08,0,0,1,64.12,73a24,24,0,0,0,6.55-.46,3.25,3.25,0,0,0,.85-.39Z"/><path d="M106.82,9.09c-.62-.19-.95-.89-1.65-.91a.65.65,0,0,0-.68.53,10,10,0,0,0,.26,2.83,11.22,11.22,0,0,1,0,1.42c0,.12-.17.25-.29.33s-.24-.09-.26-.17c-.31-1.07-.41-2.18-.77-3.25A9.56,9.56,0,0,1,103,7.05a7,7,0,0,0-1.47-4,2.37,2.37,0,0,1-.59-1.28.56.56,0,0,1,.18-.42.43.43,0,0,1,.4,0,2.14,2.14,0,0,1,.76.54c1.37,2,2.72,3.94,4,5.94a4.63,4.63,0,0,1,.39,1.37Z"/><path d="M95.3,17a1.91,1.91,0,0,1-.75-1.18c-.33-3.5-1.3-6.87-2-10.31a.63.63,0,0,1,.34-.76.75.75,0,0,1,.82.39,20.43,20.43,0,0,0,2.55,3.44,4.1,4.1,0,0,1,.79,2.69l.12,0c-.13-.09-.27-.17-.39-.27s-.47-.42-.72-.61a.59.59,0,0,0-.4-.15.67.67,0,0,0-.56.68q0,3.08,0,6.17Z"/><path d="M103.62,51.23a18.86,18.86,0,0,0,.43-2.34,59.25,59.25,0,0,1,.75-6.63,33.73,33.73,0,0,0,.17-6.2,27.15,27.15,0,0,1,.06-4.77,1.56,1.56,0,0,1,.79-1.11c.13-.09.28-.15.41-.24l-.08-.1a17.18,17.18,0,0,0-.49,5.67c0,.32,0,.63.06,1a46.52,46.52,0,0,1-1,13.26,2.1,2.1,0,0,1-1.18,1.4Z"/><path d="M72.3,58.31a4.35,4.35,0,0,1,2.21-.84l2.4-.1a5.84,5.84,0,0,0,2.32-.54c.57-.27,1.16-.52,1.76-.76a2.62,2.62,0,0,1,.92-.24c1.92,0,3.81-.52,5.74-.39l-.12-.12c-.21.23-.38.58-.63.65a25,25,0,0,1-4.6,1,5.25,5.25,0,0,0-2.27.56,7.44,7.44,0,0,1-4.57.75c-1.09-.12-2.2,0-3.3-.07Z"/><path d="M107.27,47.38c.31-1.07.57-2.16.94-3.21a11.55,11.55,0,0,0,.58-3.29,20.14,20.14,0,0,1,.54-3.78,22.89,22.89,0,0,0,.44-3.31,2,2,0,0,1,1.34-1.8l-.06-.07a6.37,6.37,0,0,0-.6,2.71,15.83,15.83,0,0,1-.67,5.07,4.31,4.31,0,0,0-.17,1.39,13.32,13.32,0,0,1-1.15,5c-.26.66-.8.91-1.31,1.24Z"/><path d="M79.94,31.35c-.25-.19-.59-.32-.73-.56a14.26,14.26,0,0,1-2.14-7.18V17L77,17a4.29,4.29,0,0,1,.7,1.7A14,14,0,0,1,77.88,21a17,17,0,0,0,1.32,6.8c.16.44.38.85.5,1.3a5.11,5.11,0,0,1,.12,2.3Z"/><path d="M77,9.33a7.06,7.06,0,0,1,2.6,3.34A39.37,39.37,0,0,1,81.72,19a4.37,4.37,0,0,1,0,1l.11-.13a3,3,0,0,1-.7-.6,13.18,13.18,0,0,1-1.61-3.44A16.26,16.26,0,0,0,77.46,11,3.63,3.63,0,0,1,77,9.19Z"/><path d="M111.11,32a4.51,4.51,0,0,1-.41-1.8c0-.92,0-1.86.14-2.78a22.7,22.7,0,0,0-.19-6.48,5.94,5.94,0,0,0-.48-1.29v0a2.18,2.18,0,0,1,1.21,1.88c0,2.51,0,5,0,7.53,0,.94-.23,1.87-.33,2.82A.53.53,0,0,0,111.11,32Z"/><path d="M21.37,9.21c-.13-.08-.32-.14-.39-.26a25.26,25.26,0,0,1-1.36-2.5,3.28,3.28,0,0,1-.08-2.35,2.41,2.41,0,0,1,.52-.75.54.54,0,0,1,.44-.17A3,3,0,0,1,23.17,5.5l.11-.1a3,3,0,0,1-1.4-.12c-.51-.07-1,.34-1,.75.11,1.1.23,2.21.35,3.32Z"/><path d="M43.29,59.17a2.19,2.19,0,0,1-1.23.66,1,1,0,0,1-.89-.25A2.15,2.15,0,0,1,41,57a6.24,6.24,0,0,1,4.42-2.49l-.12-.1a2.93,2.93,0,0,1-.45.75c-.81.67-1.67,1.29-2.5,2a3.49,3.49,0,0,0-.57.69,1,1,0,0,0,.38,1.16c.42.14.86.26,1.29.39Z"/><path d="M58.87,60.24a2.85,2.85,0,0,1,1.64-.79c.62-.06,1.24-.13,1.86-.14,2.32,0,4.65,0,7,0l0-.13a2.1,2.1,0,0,1-1.62.8l-8.94.16Z"/><path d="M88.45,14.12a1.72,1.72,0,0,1,.35.3,8.67,8.67,0,0,1,1.55,4.74l0,3.7.12-.14a2.14,2.14,0,0,1-.68-1.21A45.9,45.9,0,0,0,88.63,15a4.21,4.21,0,0,1,0-.94Z"/><path d="M91.75,66.2c.15-.26.24-.61.47-.76a19.53,19.53,0,0,1,4.59-2.24,3.94,3.94,0,0,1,1.37,0l-.11-.12c-.2.21-.35.51-.59.64a33.26,33.26,0,0,1-5.83,2.4Z"/><path d="M90.14,62.82a2.71,2.71,0,0,1-.49.75A7.29,7.29,0,0,1,84,64.83a3.77,3.77,0,0,1-.86-.38l0,0a25,25,0,0,0,6.18-1.37,6.38,6.38,0,0,1,.89-.19Z"/><path d="M69.29,14.19a3.52,3.52,0,0,1,1.6,1.52A8.08,8.08,0,0,1,72.14,20l.12-.15a8,8,0,0,1-.84-1.1c-.64-1.24-1.24-2.51-1.83-3.77a3.89,3.89,0,0,1-.21-.91Z"/><path d="M106.41,21.92l-.84-.37a.74.74,0,0,1-.49-.69c0-.6,0-1.21,0-1.82,0-.31-.08-.7.08-.9.67-.81.49.22.51.32.13.9.17,1.82.31,2.72,0,.27.31.5.47.75Z"/><path d="M106.4,21.93a6.45,6.45,0,0,0,0,1.86,15.53,15.53,0,0,1-.31,6l.09.12a4.87,4.87,0,0,1-.41-1.73c0-1.06,0-2.12,0-3.18a9,9,0,0,1,.61-3.11Z"/><path d="M107.46,52.2a3.4,3.4,0,0,0-.13-2.18,3.89,3.89,0,0,1,0-2.63l-.14-.09a4.54,4.54,0,0,1,1.23,2.92,1.64,1.64,0,0,1-1,1.86Z"/><path d="M103.52,51.12a3.56,3.56,0,0,1-.84,3.76,1.16,1.16,0,0,1-.81.26c-.45,0-.9-.11-1.37-.15l-.09.13a10.94,10.94,0,0,0,3.22-3.88Z"/><path d="M76.1,12a4.1,4.1,0,0,1-.55-.71,4.9,4.9,0,0,1-.36-2.24.75.75,0,0,1,.44-.7.67.67,0,0,1,.82.2,8.21,8.21,0,0,1,.51.75L77,9.19a4.2,4.2,0,0,0-1.06,3Z"/><path d="M77.07,17a5.54,5.54,0,0,1-.8-2.63c0-.77-.11-1.54-.17-2.31l-.12.16a6.1,6.1,0,0,1,.85,3c0,.6.08,1.2.12,1.8Z"/><path d="M79.49,70.4a1.36,1.36,0,0,1-1.19,1.08,12.52,12.52,0,0,0-1.71.31c-.25.07-.45.34-.67.51h0c.09-.3.18-.6.26-.9a.69.69,0,0,1,.64-.56l2.77-.37Z"/><path d="M58.66,11.25a2.46,2.46,0,0,1,2.06.86,2.59,2.59,0,0,1,.87,2.07l.11-.12a3.21,3.21,0,0,1-.83-.41A22.32,22.32,0,0,1,59.19,12a3.15,3.15,0,0,1-.41-.82Z"/><path d="M55.8,71.67a3.43,3.43,0,0,1,.91-1,2.82,2.82,0,0,1,3.39-.38c.13.07.27.14.41.23s0,0,0,0a2.3,2.3,0,0,0-1.35,0c-.71.31-1.39.68-2.12.92a5,5,0,0,1-1.35.14Z"/><path d="M97.1,11.23a3.14,3.14,0,0,1,.73,1.64c.09,1.06.14,2.12.21,3.18l.14-.05a1.73,1.73,0,0,1-.74-1.13c-.1-1.22-.15-2.45-.22-3.68Z"/><path d="M88.74,66.28a3.4,3.4,0,0,0,0,.45,1.67,1.67,0,0,1-1.12,1.74,14,14,0,0,1-1.71.51l.11.09a3.4,3.4,0,0,1,1.19-1.28c.6-.41,1.31-.72,1.63-1.45Z"/><path d="M97.26,59.27a3.5,3.5,0,0,1-.55.65c-.7.51-1.44,1-2.17,1.45l.1.09A1.28,1.28,0,0,1,95,60.23a2.35,2.35,0,0,1,2.39-.86Z"/><path d="M100.49,60.67c.32.85-.07,1.37-.78,1.8a4.68,4.68,0,0,1-1.65.6l.12.13a.86.86,0,0,1,.28-.82l2.11-1.75Z"/><path d="M99,19a3,3,0,0,1,.82,1.55,6.16,6.16,0,0,1,.11,2.22l.14-.06a2.3,2.3,0,0,1-.86-1.57c0-.76-.06-1.52-.09-2.28Z"/><path d="M55,61.19a1.94,1.94,0,0,1,1.11-.75,9.7,9.7,0,0,1,2.74-.2l-.14-.12a1.78,1.78,0,0,1-1.09.77,8,8,0,0,1-2.76.18Z"/><path d="M47.22,58.2a2.41,2.41,0,0,1-1.61.84c-.77.06-1.54.09-2.32.13l.14.13a1.31,1.31,0,0,1,1-.86c.94-.08,1.88-.08,2.82-.12Z"/><path d="M110.17,19.64c0-1.51-.39-3-.46-4.49l-.12.12a4.11,4.11,0,0,1,.71,2.57c0,.6-.08,1.21-.13,1.81Z"/><path d="M43.33,11.3a1.49,1.49,0,0,1,.78,1.07c.11.61.13,1.22.19,1.83l.12-.12A1.63,1.63,0,0,1,43.66,13c-.11-.59-.14-1.2-.2-1.81Z"/><path d="M79.59,70.48l1.54-.58a1.12,1.12,0,0,0,.79-.84s0,0,0,0a2.56,2.56,0,0,0-.33.77c0,.59-.44.71-.83.75a5,5,0,0,1-1.26-.15Z"/><path d="M100,22.78a1.46,1.46,0,0,1,.82,1.07c.09.62.11,1.25.15,1.87l.13-.14a1.27,1.27,0,0,1-.85-1c-.09-.61-.08-1.23-.11-1.85Z"/><path d="M71.52,72.15a4.43,4.43,0,0,0,.89,0,6.26,6.26,0,0,1,3.51.2h0a5.32,5.32,0,0,0-1.78.06,5.09,5.09,0,0,1-2.67-.23Z"/><path d="M98,16.05a2,2,0,0,1,.87,1.57c.06.46.08.92.12,1.39l.12-.14a1.43,1.43,0,0,1-.8-1.05c-.1-.6-.12-1.22-.17-1.82Z"/><path d="M85.88,69a3.55,3.55,0,0,1-3.95.07s0,0,0,0a4.49,4.49,0,0,0,1.79,0,6.41,6.41,0,0,1,2.27,0Z"/><path d="M69.34,59.29a2.55,2.55,0,0,1,1.59-.83l1.37-.15-.14-.12a1.28,1.28,0,0,1-1,.82c-.61.09-1.23.1-1.85.15Z"/><path d="M109.71,15.15c-.46-.5-.92-1-1.36-1.52a.92.92,0,0,1,0,.09c1,.48,1,.53,1.27,1.54Z"/><path d="M107.29,12c1,.62,1.07.67,1,1.7a.42.42,0,0,0,0-.06c-.15-.37-.28-.77-.43-1.16a.78.78,0,0,0-.65-.49Z"/><path d="M106.7,9.2a1.89,1.89,0,0,1,.59,1.52c0,.42,0,.85,0,1.27h0a2.89,2.89,0,0,0,0-1.24c-.17-.54-.28-1.09-.42-1.64Z"/><path d="M107.48,55.13a2.29,2.29,0,0,1,0-2.91l-.12-.14a2.72,2.72,0,0,1,.15,1.67,9.4,9.4,0,0,0-.11,1.32Z"/><path d="M92.61,62.28a1.38,1.38,0,0,1,2-.83l-.09-.08a3.86,3.86,0,0,1-2,.81Z"/><path d="M90.25,62.93a2.49,2.49,0,0,1,2.35-.65.94.94,0,0,0-.1-.1,2.08,2.08,0,0,1-2.36.65Z"/><path d="M88.81,66.34c.42,0,.84,0,1.25-.11a4.13,4.13,0,0,1,1.68,0l-.09-.07a2.53,2.53,0,0,1-2.88.18S88.81,66.34,88.81,66.34Z"/><path d="M22.35,11.2a2.17,2.17,0,0,1-1-2l-.12.14a.81.81,0,0,1,.71.54c.11.45.17.91.25,1.37Z"/><path d="M36.59,16.08a.75.75,0,0,1,.73.51c.12.45.17.92.26,1.38l.12-.07a.79.79,0,0,1-.71-.53c-.11-.45-.17-.92-.25-1.38Z"/><path d="M53,62.17a.89.89,0,0,1,.59-.69c.46-.12.93-.2,1.4-.29l-.14-.12A1.88,1.88,0,0,1,53,62Z"/><path d="M37.58,18a1.31,1.31,0,0,1,.85,1c.07.31.07.63.11.95l.12-.14c-.89-.36-1-1.09-1-1.92Z"/><path d="M42.38,9.33c.95.35,1.06,1.11.95,2l.13-.12a1.21,1.21,0,0,1-1-1.13,4.3,4.3,0,0,1,0-.8Z"/><path d="M68.26,13.19a1.33,1.33,0,0,1,1,1l.09-.14a1.34,1.34,0,0,1-1-1Z"/><path d="M24.15,6.49c.81.16.81.16,1,1l.1-.11a.91.91,0,0,1-1-1Z"/><path d="M23.17,5.5a.88.88,0,0,1,1,1l.1-.12a.9.9,0,0,1-1-1Z"/><path d="M100.57,60.63l.16.22-.23-.18Z"/><path class="cls-1" d="M98.18,16c0,.6.07,1.22.17,1.82a1.43,1.43,0,0,0,.8,1.05c0,.76,0,1.52.09,2.28a2.3,2.3,0,0,0,.86,1.57c0,.62,0,1.24.11,1.85a1.27,1.27,0,0,0,.85,1c0,3.18,0,6.36,0,9.54a14.06,14.06,0,0,0,.51,4.23,8.42,8.42,0,0,1,.16,1.89c-.67,2-.54,4.08-.65,6.13a17.41,17.41,0,0,1-1.41,5.51,1.14,1.14,0,0,1-.28.38,4.6,4.6,0,0,1-.73.59c-.22.14-.93-.38-1.08-.74a4.78,4.78,0,0,1-.31-2.79c.21-1.09.48-2.17.75-3.25s.7-2.44.94-3.68c.21-1.08.19-2.21.39-3.31a12.15,12.15,0,0,0,0-4.73,11.85,11.85,0,0,1-.13-1.89,13,13,0,0,0-.87-4.66c-.42-2.5-1.36-4.89-1.49-7.46a9.4,9.4,0,0,0-1.34-4,1.78,1.78,0,0,0-.35-.32q0-3.09,0-6.17a.67.67,0,0,1,.56-.68.59.59,0,0,1,.4.15c.25.19.47.41.72.61s.26.18.39.27c.07,1.23.12,2.46.22,3.68A1.73,1.73,0,0,0,98.18,16Z"/><path class="cls-1" d="M53,62a1.88,1.88,0,0,0,1.93-1,8,8,0,0,0,2.76-.18,1.78,1.78,0,0,0,1.09-.77L67.67,60a2.1,2.1,0,0,0,1.62-.8c.62,0,1.24-.06,1.85-.15a1.28,1.28,0,0,0,1-.82c1.1,0,2.21,0,3.3.07A7.44,7.44,0,0,0,80,57.51,5.25,5.25,0,0,1,82.3,57a25,25,0,0,0,4.6-1c.25-.07.42-.42.63-.65A3.25,3.25,0,0,0,89.32,55a8.74,8.74,0,0,1,2.62-.85.51.51,0,0,1,.64.43.49.49,0,0,1-.08.42c-.55.54-1.13,1-1.7,1.56a.94.94,0,0,0-.31.82,3,3,0,0,0-.94,0c-2.25.77-4.6,1.21-6.79,2.13a14,14,0,0,1-3.65,1,20.5,20.5,0,0,0-2.34.43A11.4,11.4,0,0,1,73,61.2c-.63-.06-1.27-.09-1.9-.11a7.73,7.73,0,0,0-3.25.54A41.47,41.47,0,0,1,62,63.44a26.51,26.51,0,0,1-5.17.73c-.79,0-1.58,0-2.37,0s-1.49.54-2.3.48a.49.49,0,0,1-.33-.21A.65.65,0,0,1,51.7,64C51.92,63.22,52.85,62.9,53,62Z"/><path class="cls-1" d="M77,17c0-.6-.12-1.2-.12-1.8a6.1,6.1,0,0,0-.85-3,4.2,4.2,0,0,1,1.06-3A3.52,3.52,0,0,0,77.46,11a16.26,16.26,0,0,1,2.09,4.77,13.18,13.18,0,0,0,1.61,3.44,3,3,0,0,0,.7.6A9.36,9.36,0,0,0,82,23.17c.56,2.49.66,5.07,1.39,7.52a9.83,9.83,0,0,1,.43,2.84q0,5,0,10a6.39,6.39,0,0,1-1.48,4,2,2,0,0,1-2.12.76,8.86,8.86,0,0,1-1.33-.5.65.65,0,0,1-.46-.69c0-.12.22-.23.37-.28s.62-.15.92-.25a4.29,4.29,0,0,0,2.88-3.52,18.82,18.82,0,0,0,.1-5.25,3.78,3.78,0,0,0-.16-.94A20.51,20.51,0,0,0,80.54,32a3.21,3.21,0,0,0-.72-.58,5.11,5.11,0,0,0-.12-2.3c-.12-.45-.34-.86-.5-1.3A17,17,0,0,1,77.88,21a14,14,0,0,0-.23-2.31A4.29,4.29,0,0,0,77,17Z"/><path class="cls-1" d="M68.4,13.09a1.34,1.34,0,0,0,1,1,3.89,3.89,0,0,0,.21.91c.59,1.26,1.19,2.53,1.83,3.77a8,8,0,0,0,.84,1.1,69.41,69.41,0,0,0,.84,9.44,21.4,21.4,0,0,1,.19,3.31,18.76,18.76,0,0,0,.63,5.16,7,7,0,0,1,.31,1.86,17.45,17.45,0,0,0,.65,3.73.8.8,0,0,1,0,.46,3.27,3.27,0,0,1-.48.78c-.07.08-.3,0-.46,0a.59.59,0,0,1-.66-.52C72.9,40.92,71.72,38,70.85,35c-.07-.26-.41-.44-.63-.66A9.26,9.26,0,0,0,69.94,31c-.52-1.84-.68-3.75-1.15-5.6a7.43,7.43,0,0,1-.23-.93c-.37-3.48-1.26-6.87-1.69-10.35-.1-.8.19-1.13,1.06-1.08A3.55,3.55,0,0,1,68.4,13.09Z"/><path class="cls-1" d="M88.58,14.07a4.21,4.21,0,0,0,0,.94,45.9,45.9,0,0,1,1.19,6.5,2.14,2.14,0,0,0,.68,1.21c0,2.4,0,4.79,0,7.18A21.06,21.06,0,0,0,91,35.61c.14,2.7.59,5.4-.17,8.09a16.56,16.56,0,0,0-.3,4.77c0,.47,0,1,0,1.43,0,.64-.65,1-1.42.83-1-.23-1.43-.84-1.15-1.72a13.33,13.33,0,0,0,.6-4.25,36.75,36.75,0,0,1,.38-6.2,35.47,35.47,0,0,0,.32-5.26,28.77,28.77,0,0,0-.59-6.66c-.51-2.17-.74-4.41-1.16-6.6-.52-2.66-1.1-5.31-1.64-8a.48.48,0,0,1,.16-.43c.27-.16.54-.05.82.18a4.5,4.5,0,0,1,1,1.61A1.19,1.19,0,0,0,88.58,14.07Z"/><path class="cls-1" d="M47.27,58.32c-.94,0-1.88,0-2.82.12a1.31,1.31,0,0,0-1,.86c-.43-.13-.87-.25-1.29-.39a1,1,0,0,1-.38-1.16,3.49,3.49,0,0,1,.57-.69c.83-.66,1.69-1.28,2.5-2a2.93,2.93,0,0,0,.45-.75,5.11,5.11,0,0,0,2.82-.28,10.59,10.59,0,0,1,4.18-.85,14.11,14.11,0,0,0,3.29-.52,5.88,5.88,0,0,1,2.85-.13c2.17.62,4.42.47,6.62.78a.86.86,0,0,1,.74.46.45.45,0,0,1-.19.41,20.54,20.54,0,0,1-2.69,1c-1.7.41-3.43.72-5.15,1a8.09,8.09,0,0,1-1.9.16,24,24,0,0,0-8,1.25.81.81,0,0,0-.34.3A2.7,2.7,0,0,0,47.27,58.32Z"/><path class="cls-1" d="M37.7,17.9c-.06.83.07,1.56,1,1.92a7,7,0,0,0,.61,2.72,22.66,22.66,0,0,1,.93,2.14A3,3,0,0,1,40.09,27l.14.11a3.07,3.07,0,0,0-.23-.39,4.34,4.34,0,0,0-.56-.72c-1.43-1.36-2.88-2.71-4.33-4.05a1.46,1.46,0,0,0-.42-.19l.16.16a1.46,1.46,0,0,0-1.14-1.13l.15.19a5.32,5.32,0,0,0-.57-1.77c-1-1.78-1.91-3.57-2.87-5.35a7.84,7.84,0,0,0-.78-1.16,3.55,3.55,0,0,0-.71-.57l.14.05c0-.78-.1-1.57-.08-2.35A1,1,0,0,1,29.42,9c.23-.1.59.07.89.15a1.08,1.08,0,0,1,.39.25,24.61,24.61,0,0,1,5.68,6.27,1.79,1.79,0,0,0,.36.3c.08.46.14.93.25,1.38A.79.79,0,0,0,37.7,17.9Z"/><path class="cls-1" d="M33.16,41.68a8,8,0,0,0,3.61-.42c1.81-.59,3.75-.48,5.63-.71a3.3,3.3,0,0,1,1.34.37.78.78,0,0,1,.33.32.52.52,0,0,1,.06.38.7.7,0,0,1-.33.33,42.43,42.43,0,0,1-5.72,2.3,6.81,6.81,0,0,1-2.8.33,5.48,5.48,0,0,0-2.35,0,14.67,14.67,0,0,1-4.71.35,11.69,11.69,0,0,0-3.28.39c-.32.09-.55-.21-.52-.52a.93.93,0,0,1,.18-.42.86.86,0,0,1,.36-.3,24.92,24.92,0,0,0,4.87-1.85A5.34,5.34,0,0,1,33.16,41.68Z"/><path class="cls-1" d="M42.5,9.25a4.3,4.3,0,0,0,0,.8,1.21,1.21,0,0,0,1,1.13c.06.61.09,1.22.2,1.81a1.63,1.63,0,0,0,.76,1.09,5,5,0,0,0,.09,1.4c.92,2.55,1.07,5.25,1.64,7.87a4.46,4.46,0,0,1,0,1.41c0,.4-.28.58-.59.5a.85.85,0,0,1-.41-.18,2.56,2.56,0,0,1-.59-.73A44.5,44.5,0,0,1,42.79,20c-.9-3-1.87-6-2.91-9A2.28,2.28,0,0,1,40,9.1a.75.75,0,0,1,.76-.4C41.34,8.77,41.84,9.29,42.5,9.25Z"/><path class="cls-1" d="M49.05,14.85a5,5,0,0,0-.54-2.76,2.31,2.31,0,0,1-.18-1.39c.08-.27.27-.64.49-.72s.58.11.87.22a.81.81,0,0,1,.35.31,16.13,16.13,0,0,1,2.59,5.57c.62,2.63,1.34,5.23,2,7.85a12.16,12.16,0,0,1,.22,5.2c0,.14-.15.39-.22.39-.37,0-.48-.31-.59-.65-1.15-3.3-2.07-6.66-3.13-10-.33-1.06-.66-2.12-1-3.17a2,2,0,0,0-1-1Z"/><path class="cls-1" d="M52.4,44.54a8,8,0,0,0,4.5,1.24,29.27,29.27,0,0,1,6.13.56,2.1,2.1,0,0,1,.85.41.59.59,0,0,1,.19.77c-.07.13-.22.3-.34.31-2.21.17-4.42.35-6.63.44a11.88,11.88,0,0,1-2.34-.33,8.94,8.94,0,0,0-3.3.05c-2.64.47-5.16,1.43-7.8,1.9-.1,0-.29-.16-.33-.27a.51.51,0,0,1,.09-.45,14.65,14.65,0,0,1,6-2.74,8.74,8.74,0,0,0,2.16-.94,2.57,2.57,0,0,0,1-1.05Z"/><path class="cls-1" d="M40.15,36.54a10,10,0,0,0-2.83.2,11.74,11.74,0,0,1-5.65-.11,3.86,3.86,0,0,0-1.88,0A9.26,9.26,0,0,1,24.67,36a.71.71,0,0,1-.29-.36.76.76,0,0,1,.16-.83.84.84,0,0,1,.36-.3,21.79,21.79,0,0,0,2.33-.43,13.9,13.9,0,0,1,6.12-.16,6,6,0,0,1,1.83.46,10.85,10.85,0,0,0,3.21.78,2,2,0,0,1,1.68,1.46Z"/><path class="cls-1" d="M22.78,25.45a2.93,2.93,0,0,0,2.27.39,5.67,5.67,0,0,1,3.69.33c1.9.74,3.94,1.17,5.59,2.47a.53.53,0,0,1,.12.44c0,.11-.2.2-.33.26a1.29,1.29,0,0,1-.45.1,1.49,1.49,0,0,1-.47,0,20.36,20.36,0,0,0-8.43-.85A5.73,5.73,0,0,1,22,28.2a15.7,15.7,0,0,0-3.24-.68,1.54,1.54,0,0,1-.74-.46c-.16-.15.43-1,.76-1.11a4.36,4.36,0,0,1,.9-.26c.47-.06,1-.05,1.42-.07L23,25.54Z"/><path class="cls-1" d="M23.28,5.4a.9.9,0,0,0,1,1,.91.91,0,0,0,1,1,4.94,4.94,0,0,0,.31,1.3,10.51,10.51,0,0,1,1.21,3.89,8.87,8.87,0,0,0,.79,3.07l-.06-.09A1.78,1.78,0,0,1,25.4,15a19.83,19.83,0,0,1-2.17-2.91,2.33,2.33,0,0,0-1-.87c-.08-.46-.14-.92-.25-1.37a.81.81,0,0,0-.71-.54C21.13,8.24,21,7.13,20.9,6c0-.41.47-.82,1-.75A3,3,0,0,0,23.28,5.4Z"/><path class="cls-1" d="M58.78,11.14a3.15,3.15,0,0,0,.41.82,22.32,22.32,0,0,0,1.68,1.69,3.21,3.21,0,0,0,.83.41,5,5,0,0,0,.13,1.4c.82,2.23,1,4.63,1.72,6.87a3.29,3.29,0,0,1,.05,1.4,1.07,1.07,0,0,1-.41.77c-.28.14-.61-.08-.8-.35a20.9,20.9,0,0,1-2.67-5.5c-.62-1.79-1.16-3.6-1.71-5.41a1.83,1.83,0,0,1,.45-1.75C58.56,11.37,58.67,11.26,58.78,11.14Z"/><path class="cls-1" d="M19.89,22.08c-.43,0-.74-.06-1.06-.11a10.11,10.11,0,0,0-5.14.52,2.08,2.08,0,0,1-.93,0,.67.67,0,0,1-.4-.25.65.65,0,0,1,.05-.82,1.45,1.45,0,0,1,.78-.48A21.68,21.68,0,0,0,16,20.48a18.46,18.46,0,0,1,8.45-.55,6,6,0,0,1,3,1.3.67.67,0,0,1,.22.82.76.76,0,0,1-.83.35c-.47-.06-.94-.12-1.4-.22A12.4,12.4,0,0,0,21.2,22C20.73,22,20.25,22.05,19.89,22.08Z"/><path class="cls-1" d="M34.69,21.71A2.71,2.71,0,0,0,35.17,23a11.17,11.17,0,0,1,1.35,2.5l.09-.1A6.33,6.33,0,0,1,35.24,25,11.42,11.42,0,0,1,30,19.63a35.25,35.25,0,0,1-1.86-5.41,1.61,1.61,0,0,1,.28-1.36c.19-.25.41-.48.61-.73l-.14-.05a3.27,3.27,0,0,0,.19.9q1.72,3.3,3.52,6.57a3.59,3.59,0,0,0,1.22,1.38l-.15-.19a1.5,1.5,0,0,0,1.14,1.13Z"/><path class="cls-1" d="M5,1.56a2.4,2.4,0,0,0,.44,1.32,6.67,6.67,0,0,1,.86,1.68c.13.43-.27.83-.83.84a5.31,5.31,0,0,1-3.12-1,3.25,3.25,0,0,1-.89-1.08,1.33,1.33,0,0,1,.9-1.83,3.23,3.23,0,0,1,.93-.09c.63.06,1.25.18,1.88.28Z"/><path class="cls-1" d="M13.86,15.94c-.49-.06-1.27-.14-2-.25-.05,0-.14-.26-.1-.29A4.87,4.87,0,0,1,15.08,14a4.13,4.13,0,0,1,2.25.5.58.58,0,0,1,.3.79.63.63,0,0,1-.27.31,2.65,2.65,0,0,1-.88.31C15.71,16,14.92,15.94,13.86,15.94Z"/><path class="cls-1" d="M15.8.73a27,27,0,0,1,1.43,5,4,4,0,0,1,0,1.86.59.59,0,0,1-.29.35.54.54,0,0,1-.42-.1c-.22-.2-.51-.41-.59-.68a19.39,19.39,0,0,1-.59-2.27,3.68,3.68,0,0,1,.24-2.29A2.87,2.87,0,0,0,15.82.74Z"/><path class="cls-1" d="M51.58,39.23c.53,0,.92.14,1,.44s-.23.57-.45.78a1.73,1.73,0,0,1-1.31.38c-.34,0-.73-.12-.77-.42a1,1,0,0,1,.46-.76A4.77,4.77,0,0,1,51.58,39.23Z"/><path class="cls-1" d="M65.49,42.19c.05-.37.1-.84.2-1.31,0-.14.21-.38.25-.37a.8.8,0,0,1,.54.72c0,.47.1.94.13,1.41a.62.62,0,0,1-.46.72c-.38.06-.59-.21-.62-.59C65.52,42.61,65.51,42.45,65.49,42.19Z"/><path class="cls-1" d="M32.68,25.69c-.62,0-1.25-.07-1.87-.13-.35,0-.66-.23-.62-.5s.41-.46.76-.42a4.63,4.63,0,0,1,.92.12,1,1,0,0,1,.72,1Z"/><path class="cls-1" d="M65.77,34.69l.17-.32c.06.11.16.21.16.32s-.1.22-.16.33Z"/><path class="cls-1" d="M40.07,36.61a1.09,1.09,0,0,1,.82-.29c-.08.64-.49,0-.72.2Z"/><path class="cls-1" d="M40.09,27l.3,0c-.09-.26-.15-.21-.16.14Z"/><polygon class="cls-1" points="37.67 26.83 37.88 26.91 37.76 26.72 37.67 26.83"/><path class="cls-1" d="M37.76,26.72a4,4,0,0,0-1.15-1.28l-.09.09c.38.43.77.86,1.15,1.3Z"/><path class="cls-1" d="M32.59,25.8l.22-.11s-.11,0-.12,0Z"/><path class="cls-1" d="M27.52,15.6l-.16.12.1-.21Z"/><path class="cls-1" d="M23,15.26l.21-.14h-.11Z"/><path d="M33.86,20.93a3.59,3.59,0,0,1-1.22-1.38q-1.8-3.27-3.52-6.57a3.27,3.27,0,0,1-.19-.9,3.55,3.55,0,0,1,.71.57,7.84,7.84,0,0,1,.78,1.16c1,1.78,1.9,3.57,2.87,5.35A5.32,5.32,0,0,1,33.86,20.93Z"/><path d="M34.85,21.87a1.5,1.5,0,0,1-1.14-1.13A1.46,1.46,0,0,1,34.85,21.87Z"/></g></g></svg>