<svg xmlns="http://www.w3.org/2000/svg" viewBox="0 0 189.72 188.68"><defs><style>.cls-1{fill:#fff;}</style></defs><title>Zeeplant14</title><g id="Laag_2" data-name="Laag 2"><g id="Laag_1-2" data-name="Laag 1"><path d="M66.38,45a1.79,1.79,0,0,1-1.18-.73c-.9-1.12-1.75-2.28-2.66-3.39a1.63,1.63,0,0,0-.79-.47.51.51,0,0,0-.72.45,2.49,2.49,0,0,0,0,.94,80.59,80.59,0,0,1,1.63,8,11.87,11.87,0,0,0,.65,2.31c.51,1.51,1,3,1.62,4.51a19.62,19.62,0,0,1,1.45,5c.12.94.48,1.85.69,2.78a7.56,7.56,0,0,1,.18,1.42,3,3,0,0,1-1.54,2.79A9.27,9.27,0,0,1,63,69.76,16.79,16.79,0,0,0,57.76,72a13.35,13.35,0,0,1-2.07,1.19,8.82,8.82,0,0,0-3.68,3c-1.61,2-3.29,3.93-4.84,6a13.86,13.86,0,0,1-4.66,4.06,26.4,26.4,0,0,0-6.23,4.42,4.1,4.1,0,0,1-3.07,1.1.69.69,0,0,1-.62-.62,3.22,3.22,0,0,1,.55-2.73,6.69,6.69,0,0,0,1.47-4,52.27,52.27,0,0,0-.77-16.22c-.21-.94-.35-1.89-.59-2.82a12.79,12.79,0,0,0-.68-1.78,1.79,1.79,0,0,0-2.52-.43,4.28,4.28,0,0,0-.64.71c-1,1.79-2.07,3.6-3.08,5.4a1.06,1.06,0,0,0,.82,1.42l.47,0c2,.12,2.09.25,2.35,2.21a37.94,37.94,0,0,1,.41,5.74c-.07,3,0,6.07,0,9.11a31.93,31.93,0,0,1-.92,7.6,12.06,12.06,0,0,1-.66,1.79,1.74,1.74,0,0,1-2,1,9.83,9.83,0,0,0-1.41-.22,2.51,2.51,0,0,0-.89.29,1,1,0,0,0-.38.3A9.64,9.64,0,0,1,21,101.25a2.48,2.48,0,0,0-1.11,1.51,6.68,6.68,0,0,1-.37.87,1,1,0,0,1-1.23.42c-.55-.31-1.09-.66-1.65-1a.63.63,0,0,0-.47,0c-1.24.38-2.11,1.42-3.3,1.9a3.45,3.45,0,0,1-.91.21.7.7,0,0,1-.41-.17.64.64,0,0,1-.16-.85,10,10,0,0,1,4.21-3.8,1.5,1.5,0,0,0,.69-1.19,6.15,6.15,0,0,0-.13-2.38c-.22-.93-.53-1.84-.76-2.77a2.76,2.76,0,0,1,0-1,.8.8,0,0,1,.58-.66.82.82,0,0,1,.91.09c.63.7,1.19,1.47,1.81,2.18.25.28.57.21.82-.12a1.63,1.63,0,0,0,.24-.4,3.43,3.43,0,0,0,.26-.92c.09-2.57,1-5,1.1-7.58a1.91,1.91,0,0,0-.37-1.35,4.54,4.54,0,0,0-1.08-.92.71.71,0,0,0-.88.11,4.93,4.93,0,0,0-.9,1.09,34,34,0,0,0-2.38,5.75,11.5,11.5,0,0,1-1.57,3.48,6.42,6.42,0,0,0-.77,1.75c-.8,2.44-2.21,4.6-3.18,7a12.26,12.26,0,0,1-1.25,2,.48.48,0,0,1-.41.2c-1.89-.28-3.81-.24-5.69-.67a2.17,2.17,0,0,1-1.3-1.28,7.08,7.08,0,0,1-.18-2.38q.28-3.35.6-6.69a12.85,12.85,0,0,0-.27-4.28,24.76,24.76,0,0,1-.52-3.31C.72,84.1.6,82,.44,80a3.83,3.83,0,0,1,0-.47C.6,76,.2,72.45,0,68.94a35,35,0,0,1,.47-7.65,17.88,17.88,0,0,1,.91-3.72A9,9,0,0,0,2,55.74C3.15,48.93,5.6,42.5,7.77,36c.65-2,1.6-3.83,2.17-5.83a3.6,3.6,0,0,1,.4-.87,39.39,39.39,0,0,1,4.27-5.76c1.28-.72,2.12-1.94,3.24-2.84a3.27,3.27,0,0,1,1.73-.76,32.25,32.25,0,0,1,11,.64,18,18,0,0,0,1.88.4c3.33.41,6,2.17,8.34,4.38a8.7,8.7,0,0,1,.67.69,20.42,20.42,0,0,0,4.78,4c1.22.77,2.41,1.58,3.62,2.36a3.78,3.78,0,0,0,.86.41,1.41,1.41,0,0,0,1.37-.08,8.09,8.09,0,0,1,3.89-1.74,1.87,1.87,0,0,1,.94,0c1.06.35,2.12.71,3.14,1.16,1.47.64,2.89,1.36,4.34,2a16.29,16.29,0,0,1,6.46,5.58c1.28,1.83,2.57,3.66,3.83,5.51a23.61,23.61,0,0,1,1.5,2.45c1.47,2.84,2.9,5.7,4.34,8.55a23.26,23.26,0,0,1,2,5.4c.55,2.51,1.38,4.93,2.09,7.38.41,1.38.92,2.72,1.42,4.07.33.9.73,1.78,1.1,2.66a33.9,33.9,0,0,1,2,6.39c.33,1.57.68,3.12,1.16,4.65A20.73,20.73,0,0,1,91.16,92a82.73,82.73,0,0,1,.25,11,12.72,12.72,0,0,0,0,2.39,51.22,51.22,0,0,1-.06,9.1,6.29,6.29,0,0,0,.11,1,.54.54,0,0,0,.65.54.7.7,0,0,0,.41-.18,2.75,2.75,0,0,0,.59-.73c.84-1.72,1.66-3.45,2.49-5.18,1.85-3.9,3.32-8,5.2-11.85.42-.86.69-1.79,1-2.68.6-1.49,1.12-3,1.82-4.44,1.56-3.16,2.77-6.46,4-9.75a33.56,33.56,0,0,1,2.68-5.61c.83-1.36,1.5-2.82,2.23-4.25a2.39,2.39,0,0,0-.12-2.29c-.37-.7-.8-1.38-1.18-2.08a12.93,12.93,0,0,1-1.55-4.51,17,17,0,0,0-1-3.7c-.47-1.36-.85-2.75-1.29-4.12a17.43,17.43,0,0,1-.89-5.17,40.48,40.48,0,0,0-.44-5.73,36.38,36.38,0,0,1,0-9.09c0-.63.26-1.26.29-1.89a20.19,20.19,0,0,1,2.83-9.07,21,21,0,0,0,1.85-4.41,16,16,0,0,1,1.53-3.5,58.24,58.24,0,0,0,4.68-9.95c.22-.6.47-1.19.73-1.77a6.36,6.36,0,0,1,1.38-1.94,4.49,4.49,0,0,1,2-1.21A30.34,30.34,0,0,1,127.17,0a9.08,9.08,0,0,1,2.38.18,17.74,17.74,0,0,1,5,1.62A28.37,28.37,0,0,0,139.37,4a3.09,3.09,0,0,1,.86.41,26.6,26.6,0,0,1,6,4.77,39.61,39.61,0,0,0,3.67,3.77,11.52,11.52,0,0,1,2.57,3.43q1.19,2.36,2.42,4.68a.75.75,0,0,0,.83.36,4.14,4.14,0,0,0,.93-.18,6.73,6.73,0,0,0,1.31-.59,21.26,21.26,0,0,1,8-3.09,17.22,17.22,0,0,0,2.31-.64c1.53-.51,6.61-1.84,7.8-2.12a11,11,0,0,1,3.8-.21c1.58.18,3.18-.19,4.78,0a4.51,4.51,0,0,1,2.58,1.14,5.37,5.37,0,0,1,1.46,1.88,12.32,12.32,0,0,1,1.05,4.14.94.94,0,0,1-.41.83,6.29,6.29,0,0,1-3.12,1.08,2.77,2.77,0,0,1-1-.1c-2-.59-4-1.16-6-1.81a14.78,14.78,0,0,0-6.16-.61c-1.43.14-2.86.23-4.29.38-.8.09-1.58.24-2.37.39a7,7,0,0,0-3,1.51,5.39,5.39,0,0,0-.7.65A20.35,20.35,0,0,1,158,27.85a3.33,3.33,0,0,0-1.55,1.77.76.76,0,0,0,0,.47.65.65,0,0,0,.7.46,2.24,2.24,0,0,0,.89-.3,9.11,9.11,0,0,1,3.61-1.19,29.13,29.13,0,0,0,5.65-1,8.57,8.57,0,0,1,2.38-.28,25,25,0,0,1,3.35.1c2.22.23,4.44.53,6.66.84a27.11,27.11,0,0,1,5.09,1.36,18.65,18.65,0,0,1,2.08,1.17,1,1,0,0,0,1.39-.81c.13-.63.25-1.25.4-1.87,0-.08.21-.21.28-.19a.59.59,0,0,1,.36.27,4.36,4.36,0,0,1,.44,1.35,21.14,21.14,0,0,1-.14,2.87c-.15,1.27-.34,2.54-.6,3.79a22.43,22.43,0,0,0-.61,5.22,18.77,18.77,0,0,1-.43,3.81c-.52,3-1.07,6-1.46,9a29.54,29.54,0,0,1-2.67,9.13,1.8,1.8,0,0,1-.32.36l.09.16a11.24,11.24,0,0,0,.06-1.42,1.45,1.45,0,0,0-1-1.45,2.3,2.3,0,0,1-1.43-1.19,20.33,20.33,0,0,0-3.7-5c-.78-.79-1.54-1.61-2.25-2.47a28.9,28.9,0,0,0-3.75-3.67c-.73-.61-1.46-1.22-2.17-1.86A18.29,18.29,0,0,0,160,42.68c-.47-.08-.95-.12-1.42-.16a1,1,0,0,0-.46.06c-.15.05-.36.13-.39.25a.73.73,0,0,0,.25.86c.66.43,1.35.82,2,1.19a34.09,34.09,0,0,1,6.64,4.64,51.65,51.65,0,0,1,6.66,6.81,31.94,31.94,0,0,1,5.49,9.44,7.72,7.72,0,0,0,.68,1.26,1.32,1.32,0,0,0,.31.36,1,1,0,0,0,.42.17,3.17,3.17,0,0,0,1.35-.34l-.15-.06A27.2,27.2,0,0,1,180,71.72a7.26,7.26,0,0,1-1.77,2.81,10.2,10.2,0,0,0-2.28,3.06,15.16,15.16,0,0,1-7.09,6.88c-1.29.65-2.54,1.37-3.83,2a23.42,23.42,0,0,1-2.65,1.09,48.6,48.6,0,0,0-7.82,3.61c-1.26.7-2.54,1.37-3.8,2.06a24.77,24.77,0,0,1-4.41,1.85,18.78,18.78,0,0,0-4,1.52,3.56,3.56,0,0,1-1.37.4,17.08,17.08,0,0,0-3.2,1,6.67,6.67,0,0,0-2.09,1.15c-.89.68-1.77,1.37-2.63,2.09a11.66,11.66,0,0,1-4.24,2.15c-.31.09-.64.06-.95.14a1.26,1.26,0,0,1-1.44-.94,17.85,17.85,0,0,0-2.26-8.23,61.05,61.05,0,0,1-3-6.53,11.85,11.85,0,0,0-.83-1.72c-1.27-2.23-2.48-4.47-3.54-6.81-.12-.26-.45-.43-.7-.62s-.86.11-1.12.59-.65,1.1-.92,1.68c-.8,1.74-1.66,3.46-2.33,5.25-2.66,7-5.72,13.89-8.77,20.75a42.47,42.47,0,0,0-1.72,4.47c-.76,2.44-1.68,4.83-2.65,7.19A47.6,47.6,0,0,0,96,126.31c-.33,1.56-.8,3.09-1.26,4.62a13.49,13.49,0,0,1-.77,1.75c-.06.13-.23.21-.35.31-.07-.15-.21-.3-.2-.43a37.37,37.37,0,0,1,2.06-9.81c.65-1.8,1.32-3.6,1.94-5.41.47-1.36.91-2.73,1.3-4.11a5.6,5.6,0,0,0,.08-1.42.54.54,0,0,0-.21-.42.67.67,0,0,0-.8.24,19.9,19.9,0,0,0-2.62,5.08c-1.12,3-2.11,6-3.15,9.06a7.94,7.94,0,0,0-.45,2.82,56.32,56.32,0,0,1-.23,6.23,10.39,10.39,0,0,1-.65,2.79A4,4,0,0,1,89,139.79a2.64,2.64,0,0,0-1.24,2c-.31,1.73-.63,3.45-.93,5.19a5,5,0,0,0,.6,4.14,4.87,4.87,0,0,1,.49,1.34,6.39,6.39,0,0,1,.22,3.79,24.1,24.1,0,0,0-.73,7.12,26.84,26.84,0,0,1-.47,5.72c-.51,2.66-.63,5.39-1.33,8,0,2.91-1,5.67-1.34,8.52a7.18,7.18,0,0,1-1,2.68.71.71,0,0,1-.79.41.68.68,0,0,1-.53-.63,3.45,3.45,0,0,1,0-1c.19-1.1.4-2.2.6-3.3a48.32,48.32,0,0,0,1.14-7.58,11.91,11.91,0,0,1,.48-2.33,13.19,13.19,0,0,0,.46-3.8,1.4,1.4,0,0,0-.65-1.21,3.85,3.85,0,0,1-.75-.58,2.62,2.62,0,0,1-.74-1.21,7,7,0,0,1-.19-2.85,18.12,18.12,0,0,1,.91-3.71,11.34,11.34,0,0,0,.69-5.65,5.41,5.41,0,0,1,.35-2.35,4.39,4.39,0,0,0-.35-3.69,2.81,2.81,0,0,1,.07-3.18c1.31-1.95,1.57-4.16,1.92-6.36a3.64,3.64,0,0,0-.08-1.43,22.71,22.71,0,0,1,.08-10c.27-1.25.34-2.54.49-3.81.25-2.22.5-4.44.71-6.67.17-1.75.26-3.5.4-5.26a4,4,0,0,0-.75-2.7,2.49,2.49,0,0,1-.36-1.83,12.53,12.53,0,0,1,.75-2.76,12.59,12.59,0,0,0,.57-4.73A53.75,53.75,0,0,0,85.09,86a86.14,86.14,0,0,0-3.43-9.46,36.47,36.47,0,0,1-2.36-6.77,17.41,17.41,0,0,0-2.18-5.3c-.67-1.08-1.18-2.26-1.76-3.4A17.78,17.78,0,0,0,74.27,59a45.64,45.64,0,0,1-3.66-6.73,22,22,0,0,0-2.82-4.43,2.12,2.12,0,0,1-.42-1.8l-.11.1a1.76,1.76,0,0,1,1.21.63,31.84,31.84,0,0,1,4,5.73,2.39,2.39,0,0,1,.07.9c0-.38.1-.42.22-.13l-.33,0a4.72,4.72,0,0,0-.26-4.11,23.39,23.39,0,0,1-1.38-3,26.06,26.06,0,0,0-3.67-6.07,6.81,6.81,0,0,0-1-1A17.7,17.7,0,0,0,61,35.8c-.1,0-.29.05-.4.12a.54.54,0,0,0-.15.82c1,1.22,2,2.42,3.09,3.59A20.23,20.23,0,0,1,66,43.78a2.2,2.2,0,0,1,.26,1.36Zm-28-2.62a3.11,3.11,0,0,1-.5-1.87c-.3-.06-.69,0-.9-.19a20.1,20.1,0,0,1-2-2,30.86,30.86,0,0,0-4.18-3.9,17,17,0,0,0-5.93-3,10,10,0,0,0-6.56,0c-.74.28-1.53.42-2.29.65a.7.7,0,0,0-.36.3,1.92,1.92,0,0,0-.37.8.79.79,0,0,0,.62.66,16.51,16.51,0,0,0,1.86.36,39.26,39.26,0,0,1,14.45,4.59c1.26.68,2.53,1.32,3.82,1.93a1.71,1.71,0,0,0,.93,0,7.92,7.92,0,0,0,.92-.26c.22.65.45,1.31.66,2,0-.29,0-.31.12-.05Zm2.75,2.07.84.23.07-.3-.82.18.09-.34Zm90.06,46.41.32.12-.21-.21a5.18,5.18,0,0,0-.4,2.58,1.12,1.12,0,0,0-.45,0,2.2,2.2,0,0,0-1.24,1.23.53.53,0,0,0,.38.73.55.55,0,0,0,.43-.08c.67-.51.67-1.3.75-2.05A1.94,1.94,0,0,0,131.14,90.89ZM8.08,91.41l-.21-.19.34.28a5,5,0,0,0-.91-.21,1.23,1.23,0,0,0-1.4,1,3,3,0,0,0,0,.94.54.54,0,0,0,.22.41.63.63,0,0,0,.83-.17A7.56,7.56,0,0,0,8.08,91.41Zm9.11-26.72c-.44,0-.88,0-1.33,0a3.93,3.93,0,0,0-1.72.35L10,66a6,6,0,0,1-.94.11,3,3,0,0,1-2.18-.72,1.31,1.31,0,0,1-.41-1.27c.1-.3.26-.57.38-.86a1.23,1.23,0,0,0-.34-1.65C5.78,61,5,61.16,4.68,62a14.46,14.46,0,0,0-.77,6,1.24,1.24,0,0,0,1.57,1.24c1.95-.61,3.93-1.17,5.84-1.89A4.54,4.54,0,0,0,14.08,65l1.78-.19c.44,0,.88-.06,1.33-.09a1.52,1.52,0,0,1,.34-.33,7.42,7.42,0,0,1,3.59-1,26,26,0,0,1,4.23.42.69.69,0,0,0,.76-.47c.13-.4-.3-.91-.76-.94l-.47,0a21.94,21.94,0,0,0-4.72.27A3.83,3.83,0,0,0,17.19,64.69Zm123.8,18c0,.15,0,.31.07.47a41.33,41.33,0,0,0,.89,4.67c.39,1.53.16,3.16.63,4.69,0,.12.23.22.37.28.83.3,1.3,0,1.32-.76a10.44,10.44,0,0,0-.71-4.65c-.39-.86-.57-1.82-.89-2.71a6.58,6.58,0,0,0-.62-1.28,1.42,1.42,0,0,0-1.17-.64,2.65,2.65,0,0,0,.84-2.57.85.85,0,0,0-.55-.69c-.13-.06-.33-.12-.43-.06-1.21.73-1.43,1.84-.53,2.72A5.34,5.34,0,0,0,141,82.65Zm3.46-36.83c-1.74-.78-3.34-1.9-5.23-2.33a32.44,32.44,0,0,1-4.08-1.34,11.88,11.88,0,0,0-3.72-.78,22.2,22.2,0,0,1-5.67-.71,9.79,9.79,0,0,0-2.37-.15,1.3,1.3,0,0,0-.45.14c0,.08.07.24.13.25,1.39.3,2.78.62,4.15,1a33.86,33.86,0,0,0,6.07,1.32,13.69,13.69,0,0,1,2.76.72c2,.59,4,1.23,5.94,1.82a3.89,3.89,0,0,0,2.34-.09l-.08.31ZM129.67,88.36c-.13-.46-.26-.91-.38-1.38-.21-.85-.08-1.27.54-1.62,2.07-1.17,4-2.61,6.29-3.36.28-.09.49-.4.7-.64a.65.65,0,0,0,.11-.44c0-.32-.25-.64-.55-.54a54.1,54.1,0,0,0-7,3,5.16,5.16,0,0,0-.8.51c-1,.77-2,1.54-3,2.35a1.07,1.07,0,0,0-.35.82,3.12,3.12,0,0,0,1.32,2.42,10.13,10.13,0,0,0,1.27.65c0,.16,0,.32,0,.48a.83.83,0,0,0,.4.79c.26.14.53,0,.8-.23.69-.66,1.37-1.35,2.1-2s1.53-1.13,2.29-1.71c.33-.26.34-.56,0-.77a.77.77,0,0,0-.86,0A14.4,14.4,0,0,1,129.67,88.36ZM39.91,28.65A20.25,20.25,0,0,1,37,26.14a11,11,0,0,0-4.58-2.48,24.87,24.87,0,0,0-12.3-.13,7.13,7.13,0,0,0-1.31.55.77.77,0,0,0-.32.35.65.65,0,0,0,.22.8,4.37,4.37,0,0,0,2.31.44,25.11,25.11,0,0,1,7.57.87,3.72,3.72,0,0,0,.94.18,26.48,26.48,0,0,1,5.13,1.09c1.08.29,2.16.57,3.24.81a3.5,3.5,0,0,0,1.87-.17c0,.36-.08.4-.16.12ZM34.33,45.17c-.17-.26-.28-.6-.52-.77-1.55-1.1-3.11-2.19-4.71-3.22a21.06,21.06,0,0,0-4.72-2.24,11.44,11.44,0,0,0-7-.47,16.68,16.68,0,0,1-5.62.86,3.12,3.12,0,0,0-.9.25c-.42.12-.51.34-.34.72s.29.56.63.63a5.2,5.2,0,0,0,1.41.18,26.46,26.46,0,0,1,7.09.67c.77.17,1.56.27,2.34.42,3,.59,5.92,1.14,8.83,1.93a24.45,24.45,0,0,0,3.68,1l.18,0ZM14,76.81c-.29.13-.34.09-.14-.11l.07.28h-1a2.94,2.94,0,0,0-1.77.63c-.86.7-1.65,1.5-2.53,2.18a3.14,3.14,0,0,1-1.32.49,1.49,1.49,0,0,1-1.61-.73,1.3,1.3,0,0,1,.17-1.33,10.42,10.42,0,0,1,2.9-3.15c1.59-1.06,3.1-2.22,4.63-3.37a15,15,0,0,1,2.9-1.64,8,8,0,0,1,4.19-.78c.47,0,.95.07,1.43.11a2.61,2.61,0,0,0,2.1-.94,2.83,2.83,0,0,0,1-2,.67.67,0,0,0-.54-.7,4,4,0,0,0-1.42,0A20.85,20.85,0,0,0,17.35,68,16.46,16.46,0,0,1,13,69.85a21.54,21.54,0,0,0-6.88,3.21,2.11,2.11,0,0,0-.36.31,4.11,4.11,0,0,0-1.49,2.89c0,1.92,0,3.82-.18,5.73a11.62,11.62,0,0,0,.63,4.71,1.24,1.24,0,0,0,.65.6A.85.85,0,0,0,6.19,87c.34-.34.7-.66,1-1a47.82,47.82,0,0,0,4.43-6.23A9.4,9.4,0,0,1,14,76.81ZM33.08,50.42A1.64,1.64,0,0,0,33.17,49a3.26,3.26,0,0,0-1-1,6.44,6.44,0,0,0-1.26-.7,24.18,24.18,0,0,0-2.68-1c-4-1.17-7.94-2.5-12.19-2.29a7.75,7.75,0,0,1-3.27-.66,5.93,5.93,0,0,0-.92-.24,2.34,2.34,0,0,0-1.82.43,4.69,4.69,0,0,0-2,3.12c-.22,1.26-.35,2.53-.52,3.8a1,1,0,0,0,1.24,1.06,11.73,11.73,0,0,0,4.82-2,8.58,8.58,0,0,1,4.52-1.44,15.75,15.75,0,0,1,3.82.15c3.32.52,6.64,1,10,1.6.45.08.88.35,1.36.49.14,0,.29-.16.41-.13.49.1.61,0,.28-.13S33.34,50.3,33.08,50.42Zm151.84,4.66a9.66,9.66,0,0,0-.36-4.79c-.49-1.53-1.18-3-1.76-4.45a6.57,6.57,0,0,0-1.33-2A13.13,13.13,0,0,0,179,41.67q-2-1.32-4-2.6a4.52,4.52,0,0,0-1.3-.6,56.11,56.11,0,0,1-6.82-2.25,11.61,11.61,0,0,0-4.71-.66,17.26,17.26,0,0,0-2.85.38,2.92,2.92,0,0,1-.93,0c-.15,0-.35-.15-.38-.27a4.23,4.23,0,0,1-.11-.87A4.44,4.44,0,0,1,159,34a18.56,18.56,0,0,1,9-.23c2.83.61,5.33,2.15,8.13,2.83a6.38,6.38,0,0,1,1.32.56,17.12,17.12,0,0,1,1.69.91,22.25,22.25,0,0,1,4.59,3.43,2.84,2.84,0,0,0,.83.43.65.65,0,0,0,.86-.21,2.87,2.87,0,0,0,.72-1.22c.33-1.56.65-3.12,1-4.69a1.39,1.39,0,0,0-.42-1.3c-.34-.33-.81-.53-1.13-.87a8.74,8.74,0,0,0-5.07-2.48,20.31,20.31,0,0,0-3.79-.51A41.49,41.49,0,0,1,170,30a11,11,0,0,0-4.74.31,38.3,38.3,0,0,1-3.71,1,24.16,24.16,0,0,0-5,1.66,1.91,1.91,0,0,0-1,1,9.66,9.66,0,0,0-1,4.15,1.33,1.33,0,0,0,.82,1.06c2.2.36,4.32,1.13,6.56,1.33a17.2,17.2,0,0,1,3.25.82,5.62,5.62,0,0,1,1.31.56,33.7,33.7,0,0,1,7.27,5.43c2.76,2.89,5.69,5.61,8.57,8.38a6.89,6.89,0,0,0,1.19.76,1,1,0,0,0,1.15-.53C184.88,55.3,185,54.68,184.92,55.08ZM124,9a3.46,3.46,0,0,1-2.16-.2.72.72,0,0,1-.43-.77.62.62,0,0,1,.26-.34A2.58,2.58,0,0,1,123,7.22a11.75,11.75,0,0,1,6.53,1,82.72,82.72,0,0,1,12.3,7.37c2.41,2.09,5.05,3.9,7.38,6.09,1,1,2.19,1.85,3.33,2.73a1,1,0,0,0,.84,0,.91.91,0,0,0,.34-.85,2.34,2.34,0,0,0-.32-1.37c-1.43-2.12-2.86-4.23-4.27-6.36a7.16,7.16,0,0,0-2-2,19.71,19.71,0,0,1-4-3.45,6.38,6.38,0,0,0-1.44-1.25c-2.31-1.38-4.35-3.28-7.13-3.79-1.31-.6-2.6-1.22-3.92-1.78a9.45,9.45,0,0,0-7-.47c-2.39.81-2.56.6-3.64,3.31a8.53,8.53,0,0,1-.39.87c-1.31,2.38-2.35,4.89-3.69,7.25a2,2,0,0,0-.27.89.7.7,0,0,0,.47.72,7,7,0,0,0,2.85,0,27.14,27.14,0,0,1,4.77-.09A26.12,26.12,0,0,1,131.19,18a76.1,76.1,0,0,1,9,4.45c2.88,1.69,5.79,3.35,8.7,5a2.81,2.81,0,0,0,.91.26.63.63,0,0,0,.41-.16.46.46,0,0,0,.14-.37,6.85,6.85,0,0,0-2.17-3.08c-1.4-1.3-2.84-2.57-4.27-3.84A17.26,17.26,0,0,0,142.46,19c-2.34-1.67-4.57-3.47-7-5.08A39.7,39.7,0,0,0,127,9.57,6.92,6.92,0,0,0,124,9ZM108.48,36.81c0,.8,0,1.12,0,1.44,0,.16,0,.31.07.47a1,1,0,0,0,1.37.83,20.44,20.44,0,0,1,6.88-1.89,33.72,33.72,0,0,1,10,.12c2.36.38,4.71.86,7.07,1.26a22.87,22.87,0,0,1,4.15,1.1,100.69,100.69,0,0,1,9.73,4,2.59,2.59,0,0,0,1.35.42.75.75,0,0,0,.66-.56,1.22,1.22,0,0,0-.69-1.56,9.36,9.36,0,0,1-2.64-1.08,19.81,19.81,0,0,0-3.85-1.93c-3.89-1.42-7.8-2.82-11.7-4.23a10.4,10.4,0,0,0-2.77-.73c-2.24-.17-4.43-.63-6.63-1a18.65,18.65,0,0,0-6.19.17,5.09,5.09,0,0,0-1.35.49c-.57.27-1.12.61-1.69.9-.28.14-.58.24-.88.36a1.6,1.6,0,0,1-1.64-.61,1.44,1.44,0,0,1,.32-1.32A9.47,9.47,0,0,1,116,30.72a21,21,0,0,1,7.62.34c2,.47,4,1,6.06,1.42a37.89,37.89,0,0,1,6.39,2c2.21.9,4.44,1.79,6.69,2.61,1.95.71,3.87,1.49,5.74,2.38a7.89,7.89,0,0,0,1.35.44.61.61,0,0,0,.78-.38,2.55,2.55,0,0,0,.36-1.82,1.37,1.37,0,0,0-.43-.81,25.54,25.54,0,0,0-6.36-3.27,56.87,56.87,0,0,1-5.32-2.15c-.87-.4-1.77-.74-2.65-1.12a69.47,69.47,0,0,0-10.06-3.07c-1.72-.45-3.5-.06-5.25-.22a17.34,17.34,0,0,0-1.91-.14,7.91,7.91,0,0,0-1.88.28,13.17,13.17,0,0,0-4.33,2,1.52,1.52,0,0,1-.91.16,5.26,5.26,0,0,1-.94-.2,1.6,1.6,0,0,0-1.66.66,2.88,2.88,0,0,0-.44.83,3.33,3.33,0,0,0-.13.94A21,21,0,0,1,108.48,36.81Zm23.24,14.41c-4.15-.28-8.3-.38-12.27,1.2a1.89,1.89,0,0,1-.47.11,10.76,10.76,0,0,0-3.64,1.11c-1.12.63-2.42.74-3.54,1.34a1.67,1.67,0,0,0-.34,1.33c.51,2.34,1,4.68,1.54,7a11.64,11.64,0,0,0,.63,1.8,2.57,2.57,0,0,0,.58.74.75.75,0,0,0,.86.21c1-.5,2-1.06,3-1.55s2-.89,3-1.39a18.73,18.73,0,0,1,6.38-1.94c4.92-.53,9.82-1.3,14.79-.73a4.34,4.34,0,0,0,1-.06,3.47,3.47,0,0,0,.46-.13,1.38,1.38,0,0,0,.74-1.55,3.69,3.69,0,0,0-2.87-2.26c-1.1-.16-2.23-.14-3.34-.29a14.79,14.79,0,0,0-5.22.23,47.41,47.41,0,0,1-8,1.19,4.75,4.75,0,0,0-1.41.25c-2.42.84-5,1.08-7.38,2a2,2,0,0,1-.93,0,.65.65,0,0,1-.39-.26.72.72,0,0,1,0-.85A6.13,6.13,0,0,1,118,56.82c1.86-.46,3.67-1.08,5.52-1.58a13.29,13.29,0,0,1,2.34-.47,27.59,27.59,0,0,0,5.17-.91,15.67,15.67,0,0,1,7.11-.4,27,27,0,0,0,2.85.35,11,11,0,0,1,4.54,1.37,1.23,1.23,0,0,0,1.82-.9.9.9,0,0,0-.53-1.15c-2.47-.63-5-1.22-7.48-1.6a27.27,27.27,0,0,0-2.86-.17Zm-9.17-32.81a11,11,0,0,0-5.28.65c-.89.35-1.79.65-2.67,1a1.46,1.46,0,0,0-.85,1.09c-.21.92-.35,1.87-.5,2.81-.1.58.62,1.16,1.23,1a7.12,7.12,0,0,0,.94-.2,14.39,14.39,0,0,1,7.53-.53c2,.32,4.12.49,6.13,1S133,26.54,135,27.2c.45.15.9.32,1.35.49A26.66,26.66,0,0,1,139,28.76c3.81,2,7.91,3.33,11.8,5.16a.77.77,0,0,0,.47.07.63.63,0,0,0,.34-.29,1.36,1.36,0,0,0,0-1.72c-.46-.44-.92-.87-1.41-1.27a45.26,45.26,0,0,0-4.89-3,83.84,83.84,0,0,0-11-5.7c-2.17-1-4.4-1.83-6.63-2.67A13.11,13.11,0,0,0,122.55,18.41Zm14,44.22a16.38,16.38,0,0,0-2.2.16,28.65,28.65,0,0,1-5.21.57,13.55,13.55,0,0,0-5.53,1.3c-.86.41-1.75.76-2.61,1.17a5.53,5.53,0,0,0-1.21.74c-1.08.93-2.13,1.9-3.18,2.87a.94.94,0,0,0-.22.89,17,17,0,0,0,1.28,4.07,1.31,1.31,0,0,0,2,.29,2.19,2.19,0,0,0,.34-.34,8,8,0,0,1,4.27-2.89,23.42,23.42,0,0,0,5.59-2.63A19.4,19.4,0,0,1,137,66.41c.94-.15,1.9-.19,2.84-.36,1.25-.22,2.48-.52,3.72-.8.13,0,.23-.2.34-.31a.67.67,0,0,0,.12-.86.66.66,0,0,0-.32-.3c-1.83-.58-3.77-.53-5.62-1A12.11,12.11,0,0,0,136.53,62.63Zm-73.08,3h0c0-.64,0-1.28,0-1.91a20.84,20.84,0,0,0-1.3-6.55,12.6,12.6,0,0,1-1-3.67,30.78,30.78,0,0,0-.63-3.29c-.39-1.87-.73-3.76-1.23-5.61s-.59-3.77-1-5.63a1.29,1.29,0,0,0-1.11-.77,1.87,1.87,0,0,0-1.65,2.37,11,11,0,0,1,1,2.67A60.35,60.35,0,0,0,59.11,53a14.18,14.18,0,0,1,.67,3.27c.08,1.12.2,2.23.24,3.35A13.54,13.54,0,0,1,59.93,62a33.36,33.36,0,0,1-.65,3.28A7,7,0,0,1,58.59,67a5.49,5.49,0,0,1-.92,1.08.68.68,0,0,1-.88.15.67.67,0,0,1-.4-.75,21.45,21.45,0,0,0-.11-10,2.09,2.09,0,0,0-.48-.82c-.08-.11-.28-.14-.42-.2a3.78,3.78,0,0,0-.26.85,85.67,85.67,0,0,1-1.07,11.42,6.22,6.22,0,0,0,0,1.43,1.73,1.73,0,0,0,.14.44.63.63,0,0,0,.75.44c1.31-.1,2.36-.94,3.6-1.23s2.47-.65,3.7-1a1.23,1.23,0,0,0,.41-.24c.36-.31.79-.58.8-1.12S63.45,66.28,63.45,65.64Zm67-17.15c1.11.06,2.06.13,3,.16q1.68.06,3.36.06a3,3,0,0,0,.93-.18c.08,0,.13-.25.13-.38a.64.64,0,0,0-.13-.42,3.06,3.06,0,0,0-.75-.56,18.6,18.6,0,0,0-5.47-1.75c-2.37-.34-4.73-.71-7.09-1.17a15.64,15.64,0,0,0-8.06.26,16.24,16.24,0,0,1-4.27.54,2.2,2.2,0,0,1-1.73-.68c-.08-.09-.29-.19-.34-.16a.88.88,0,0,0-.31.85l.69,6.19a1,1,0,0,0,1.07.67c.59-.25,1.18-.49,1.75-.77a27.72,27.72,0,0,1,9.2-2.51A56.65,56.65,0,0,1,130.48,48.49Zm23-2.6a1.54,1.54,0,0,0-.39.23,1.09,1.09,0,0,0,.11,1.65,37.8,37.8,0,0,0,3.35,1.85,27.38,27.38,0,0,1,4.51,2.71,10.18,10.18,0,0,1,1.46,1.24c1.23,1.25,2.43,2.54,3.66,3.8a16.8,16.8,0,0,1,2.33,3c1.14,1.92,2.32,3.83,3.46,5.75A14.84,14.84,0,0,1,174.05,72c.09.79.27,1.57.43,2.34a1,1,0,0,0,1.52.43,2.69,2.69,0,0,0,.37-.3A7,7,0,0,0,177.84,72a1.61,1.61,0,0,0,0-.92c-.66-1.8-1.31-3.61-2.06-5.37a24.89,24.89,0,0,0-6.57-9.33c-.85-.73-1.67-1.5-2.46-2.28A57.67,57.67,0,0,0,160.46,49a7.14,7.14,0,0,0-1.22-.77q-2.37-1.12-4.79-2.19A3.62,3.62,0,0,0,153.51,45.89Zm15.28,33.17c0,.64-.1,1.27-.12,1.91a1.47,1.47,0,0,0,.13.44.59.59,0,0,0,.77.41A3.34,3.34,0,0,0,171.84,79a10.53,10.53,0,0,0,.09-2.86c-.16-1.58-.4-3.17-.69-4.74A12.3,12.3,0,0,0,169,66.18a46.7,46.7,0,0,1-3.17-4.79,11,11,0,0,0-1.74-2.27q-2.37-2.37-4.87-4.62a13.33,13.33,0,0,0-2.36-1.62,9,9,0,0,0-1.77-.67.76.76,0,0,0-.44.07.49.49,0,0,0-.24.79,45.9,45.9,0,0,0,6.76,8,26.75,26.75,0,0,1,4.78,6.55c.45.84.87,1.71,1.25,2.58A17.15,17.15,0,0,1,168.79,79.06ZM160.18,82H160V80.08a8.28,8.28,0,0,0-.66-3.25c-.3-.73-.55-1.49-.79-2.24a18.87,18.87,0,0,0-4.28-7.37,30,30,0,0,1-3.55-4.47,6.76,6.76,0,0,0-2.05-2,1.07,1.07,0,0,0-1.28.21,5.66,5.66,0,0,0-1,2.15,1,1,0,0,0,.52,1.19,4.58,4.58,0,0,1,2.69,2.54,47.87,47.87,0,0,0,2.71,5,65.78,65.78,0,0,1,3.5,6.78,10.48,10.48,0,0,1,.85,2.72c.26,1.56.54,3.13.82,4.69a.93.93,0,0,0,1.13.55,1.77,1.77,0,0,0,1.21-1.34C160,84.21,160.08,83.1,160.18,82Zm5.93-3.31c0,.33,0-.31,0-.94a12.44,12.44,0,0,0-1.26-5.53A55.27,55.27,0,0,0,161.39,66a6.78,6.78,0,0,0-.88-1.12,32.06,32.06,0,0,0-3.06-3,45.44,45.44,0,0,1-5.14-5,.53.53,0,0,0-.44-.1c-.41.09-.49.35-.26.7,2.17,3.32,4.17,6.77,6.87,9.71a9.12,9.12,0,0,1,1.64,2.89,57.3,57.3,0,0,1,2.22,6.29c.55,2.16.23,4.42.24,6.64,0,.32,0,.64,0,1a1.59,1.59,0,0,0,.15.45.68.68,0,0,0,.73.45A2.56,2.56,0,0,0,166,82.51C166,81.56,166.05,80.61,166.11,78.69ZM46.1,65.5a46.47,46.47,0,0,0-1.18-11.87,22.2,22.2,0,0,0-.9-2.72A1.67,1.67,0,0,0,42.45,50a1.81,1.81,0,0,0-1.29.49,3.82,3.82,0,0,0-.61.73c-.26.4-.48.88-.15,1.31a8.41,8.41,0,0,1,1.37,2.49,26.81,26.81,0,0,1,1.31,6.55c.17,2.23.24,4.46.32,6.69.05,1.6,0,3.19.06,4.79,0,.64.06,1.27.12,1.91a5.83,5.83,0,0,0,.21.92.69.69,0,0,0,.69.57.63.63,0,0,0,.64-.52C45.93,72.52,45.89,69,46.1,65.5ZM5.79,57.12A7,7,0,0,0,6,58.21a.56.56,0,0,0,.74.39c1-.4,2-.86,3.07-1.26s2.07-.78,3.13-1.12a22.69,22.69,0,0,1,2.28-.64c.93-.2,1.88-.28,2.8-.52a28.81,28.81,0,0,1,4.69-.75q3.07-.29,6.15-.62a.48.48,0,0,0,.08-.95,4.78,4.78,0,0,0-1.3-.56c-1.71-.36-3.42-.67-5.14-1-.94-.16-1.89-.24-2.84-.32a4.19,4.19,0,0,0-2.76.52,18.8,18.8,0,0,1-6.67,2.39c-1.08.24-2.18.38-3.26.57a1.21,1.21,0,0,0-.88,1C6,56,5.86,56.65,5.79,57.12ZM140,68.65c-1.66.16-2.45.27-3.25.3a9.09,9.09,0,0,0-4.1,1.25,47.08,47.08,0,0,1-7.33,3.53,3.48,3.48,0,0,0-1.2.77c-1.28,1.2-2.54,2.43-3.79,3.67-.08.08-.06.3-.06.45a2.9,2.9,0,0,0,.75,1.72c.46.6,1.21.67,1.58.06a9.47,9.47,0,0,1,3.9-3.44c1.71-.88,3.39-1.8,5.08-2.71a19.9,19.9,0,0,1,7.67-2.6,6,6,0,0,0,1.38-.36,3.79,3.79,0,0,0,.82-.49,2.19,2.19,0,0,0,.34-.34c.23-.25.3-1.16.06-1.35a1.72,1.72,0,0,0-.8-.44A5.21,5.21,0,0,0,140,68.65ZM49.1,65.78c0,3,.08,5.85.14,8.72,0,.1.19.24.32.3a.45.45,0,0,0,.65-.37c.06-.79-.09-1.59,0-2.37s.35-1.56.5-2.34c.32-1.73.65-3.45.92-5.19a25.09,25.09,0,0,0,.1-7.64c-.38-2.53-.75-5-1.21-7.57a14,14,0,0,0-.87-2.73,9,9,0,0,0-1-1.61.59.59,0,0,0-.4-.17,1.63,1.63,0,0,0-1.56.88.86.86,0,0,0-.11.91,18.58,18.58,0,0,1,1.8,5.91,49.46,49.46,0,0,1,.74,8.58C49.08,62.69,49.1,64.29,49.1,65.78Zm-22,17c-.14-3.56-.25-6.27-.38-9a1.83,1.83,0,0,0-.24-.9,1.19,1.19,0,0,0-.7-.56,1.91,1.91,0,0,0-1.77.49,6.33,6.33,0,0,0-.92,1.08c-.76,1.22-1.47,2.46-2.2,3.69a1.52,1.52,0,0,0,.41,2.1.82.82,0,0,1,.22.87,1.7,1.7,0,0,0,.75,2c.26.18.48.42.74.6A5.15,5.15,0,0,1,24.82,86c.49,1.52.76,3.1,1.3,4.6.14.37.32.54.64.38.1,0,.15-.28.16-.43C27,87.68,27.06,84.81,27.11,82.8Zm127.54,3h-.05V83.9a6,6,0,0,0-.62-2.76c-.77-1.56-1.53-3.13-2.32-4.69a4.65,4.65,0,0,0-.81-1.16A19.07,19.07,0,0,1,148,70.94c-.45-.83-.89-1.68-1.41-2.47-.13-.21-.54-.3-.83-.32-.57,0-1.17.87-1.17,1.32a.75.75,0,0,0,.12.44,19.61,19.61,0,0,1,1.36,1.92c.37.69.52,1.5.89,2.19,1.12,2.11,1.77,4.42,2.79,6.56a21.71,21.71,0,0,1,2.32,8.18c0,.33.8.73,1.15.62a2,2,0,0,0,1.45-1.68Zm-5.82,3c0-.26,0-.58,0-.89-.16-3.43-1-6.62-3.5-9.14a5,5,0,0,1-.84-1.15,2.48,2.48,0,0,1-.36-1.83,2.13,2.13,0,0,0,0-.94.62.62,0,0,0-.64-.53.84.84,0,0,0-.45.12,1.55,1.55,0,0,0-.61,1.69A50.71,50.71,0,0,1,145,87.77a14.74,14.74,0,0,0,.31,1.88A8.37,8.37,0,0,0,146,91.4a1.27,1.27,0,0,0,.75.52,1.66,1.66,0,0,0,1.83-1.14C148.68,90.15,148.75,89.52,148.83,88.82ZM39.93,74.18c0-.83.12-1.78.17-2.73a29.94,29.94,0,0,0-.37-6.62,5.32,5.32,0,0,0-.4-1.36,1.52,1.52,0,0,0-.67-.57c-.29-.16-1,.38-1,.73a9.72,9.72,0,0,0-.07,1.42q.27,3.08.59,6.14a25.38,25.38,0,0,1,0,6.63A25,25,0,0,0,38,81.6a1.67,1.67,0,0,0,.25.9,1.83,1.83,0,0,0,.73.5s.25-.17.34-.3a3.73,3.73,0,0,0,.65-2.23C40,78.41,39.93,76.35,39.93,74.18Zm86.72,7c.14.09.28.25.41.25a2.68,2.68,0,0,0,.93-.16A29.33,29.33,0,0,0,133.84,78a6.75,6.75,0,0,1,3.55-1.29c.32,0,.63-.08,1-.11a1.58,1.58,0,0,0,1.12-.79,1,1,0,0,0,0-1.29.93.93,0,0,0-.85-.32,8.2,8.2,0,0,0-1.85.45A79.23,79.23,0,0,0,128.23,79a7,7,0,0,0-1.39,1.29A.82.82,0,0,0,126.65,81.14ZM28.06,56.92a20.87,20.87,0,0,0-7.74,1.23,3.46,3.46,0,0,0-.82.45.62.62,0,0,0-.18.4c0,.06.19.2.29.2,2.82,0,5.64,0,8.47,0a3.62,3.62,0,0,0,.46-.06,1.82,1.82,0,0,0,1.16-.72.61.61,0,0,0,.1-.85,1.51,1.51,0,0,0-.69-.55A5.39,5.39,0,0,0,28.06,56.92Zm109.46,34.5c0,.45-.07,1.24-.06,2a3.72,3.72,0,0,0,.2.91c.1.39.35.47.74.42a1.55,1.55,0,0,0,1.14-.73,6.43,6.43,0,0,0,.84-3.66,8.47,8.47,0,0,0-2-5.24.55.55,0,0,0-.82,0,1.8,1.8,0,0,0-.34,2.18,3,3,0,0,1,.49,1.8C137.68,89.81,137.62,90.44,137.52,91.42ZM44.93,38.32a5.14,5.14,0,0,0-.43-1.23A23.46,23.46,0,0,0,38,31a11.8,11.8,0,0,0-2.13-1,.72.72,0,0,0-.46,0,.69.69,0,0,0-.39.22.38.38,0,0,0,0,.36,10.34,10.34,0,0,0,1.37,1.28,35.42,35.42,0,0,1,6.95,6.33,2.59,2.59,0,0,0,.76.53.51.51,0,0,0,.43.05C44.69,38.69,44.77,38.52,44.93,38.32ZM155.57,24.75v.44a1,1,0,0,0,1.17,1,4.37,4.37,0,0,0,1.67-.83c1.51-1.36,3-2.72,4.51-4.1a.56.56,0,0,0,.1-.79,1,1,0,0,0-.87-.25,1.44,1.44,0,0,0-.46.08c-1.69.79-3.39,1.58-5.08,2.4a1.8,1.8,0,0,0-.84,1.08A8.17,8.17,0,0,0,155.57,24.75Zm30.06-5.13h1.26a.75.75,0,0,0,.7-1,2.28,2.28,0,0,0-.78-1.17,5,5,0,0,0-4.09-.86,2.76,2.76,0,0,0-1.58,1c-.32.38-.24,1.09.15,1.24A8.42,8.42,0,0,0,185.63,19.62ZM33.77,58.85c.07.12.11.31.21.35,1.05.38,2.19.19,3.26.52.62.2,1.13-.51,1-1.23a3.19,3.19,0,0,0-.83-1.68.88.88,0,0,0-.88-.24A4.87,4.87,0,0,0,34.09,58C33.89,58.19,33.87,58.56,33.77,58.85Zm22-22.92a1.16,1.16,0,0,0-.77-1.1.86.86,0,0,0-.89,0,.63.63,0,0,0-.19.84c.12.32.3.58.63.61a2.48,2.48,0,0,0,.9-.08C55.56,36.17,55.66,36,55.75,35.93ZM23.13,94.73c-.15,0-.33,0-.43.06a1.26,1.26,0,0,0-.16,1.7.61.61,0,0,0,.83.09.82.82,0,0,0,.45-.78A1,1,0,0,0,23.13,94.73ZM6.15,102c.11-.38,0-.66-.38-.74s-.58.11-.69.48a.93.93,0,0,0,.12.89C5.43,102.89,6,102.54,6.15,102Zm5.41-68a.8.8,0,0,0-.61,1,.66.66,0,0,0,.72.4.67.67,0,0,0,.58-.94A.66.66,0,0,0,11.56,34ZM44.74,82.08a4.09,4.09,0,0,0-.16-.42.67.67,0,0,0-.78-.35c-.28.11-.36.46-.38.78a.8.8,0,0,0,.33.8C44,83,44.64,82.47,44.74,82.08ZM147.55,48.74a1.37,1.37,0,0,0-.28.32.49.49,0,0,0,.32.71.62.62,0,0,0,.77-.25c0-.08,0-.29-.08-.4A.79.79,0,0,0,147.55,48.74ZM19.26,73.52a1.21,1.21,0,0,0,.41.12s.07-.21.11-.32a1,1,0,0,0-.4-.09C19.33,73.23,19.3,73.42,19.26,73.52ZM11.52,61.1l.37-.16-.37-.14Z"/><path d="M88.46,175.69v-2.52A25.15,25.15,0,0,1,89,167a13.65,13.65,0,0,0,.31-3.32,104.67,104.67,0,0,1,1.12-12.38,41.28,41.28,0,0,1,1.17-4.63c.38-1.55.23-3.18.74-4.71a16.85,16.85,0,0,1,3.2-6.33.6.6,0,0,1,1,.49,4.18,4.18,0,0,1-.21.93,12.84,12.84,0,0,1-.5,1.35,44.24,44.24,0,0,0-3.06,9.52,28.65,28.65,0,0,0-.52,3.3c-.21,2.22-.45,4.44-.69,6.66a51.13,51.13,0,0,0-.41,5.24,26.67,26.67,0,0,1-.25,3.34c-.36,2.85-.71,5.69-.87,8.56a4,4,0,0,1-.75,2.23.7.7,0,0,1-.37.22.46.46,0,0,1-.62-.49A8,8,0,0,1,88.46,175.69Z"/><path d="M183.42,64.14l-.93,1.94.06.16,1-1.94Z"/><path d="M67.37,46c-.7.06-.94-.35-1-1l-.1.11c.67,0,.93.35,1,1Z"/><path d="M182.49,66.08l-1.07,1.08.15.06c.33-.33.65-.66,1-1Z"/><path class="cls-1" d="M184.92,55.08c.08-.4,0,.22-.18.84a1,1,0,0,1-1.15.53,6.89,6.89,0,0,1-1.19-.76c-2.88-2.77-5.81-5.49-8.57-8.38a33.7,33.7,0,0,0-7.27-5.43,5.62,5.62,0,0,0-1.31-.56A17.2,17.2,0,0,0,162,40.5c-2.24-.2-4.36-1-6.56-1.33a1.33,1.33,0,0,1-.82-1.06,9.66,9.66,0,0,1,1-4.15,1.91,1.91,0,0,1,1-1,24.16,24.16,0,0,1,5-1.66,38.3,38.3,0,0,0,3.71-1A11,11,0,0,1,170,30a41.49,41.49,0,0,0,6.68.62,20.31,20.31,0,0,1,3.79.51,8.74,8.74,0,0,1,5.07,2.48c.32.34.79.54,1.13.87a1.39,1.39,0,0,1,.42,1.3c-.31,1.57-.63,3.13-1,4.69a2.87,2.87,0,0,1-.72,1.22.65.65,0,0,1-.86.21,2.84,2.84,0,0,1-.83-.43,22.25,22.25,0,0,0-4.59-3.43,17.12,17.12,0,0,0-1.69-.91,6.38,6.38,0,0,0-1.32-.56c-2.8-.68-5.3-2.22-8.13-2.83a18.56,18.56,0,0,0-9,.23,4.44,4.44,0,0,0-1.19.78,4.23,4.23,0,0,0,.11.87c0,.12.23.24.38.27a2.92,2.92,0,0,0,.93,0,17.26,17.26,0,0,1,2.85-.38,11.61,11.61,0,0,1,4.71.66,56.11,56.11,0,0,0,6.82,2.25,4.52,4.52,0,0,1,1.3.6q2,1.27,4,2.6a13.13,13.13,0,0,1,2.52,2.19,6.57,6.57,0,0,1,1.33,2c.58,1.48,1.27,2.92,1.76,4.45A9.66,9.66,0,0,1,184.92,55.08Z"/><path class="cls-1" d="M124,9a6.92,6.92,0,0,1,3,.53A39.7,39.7,0,0,1,135.51,14c2.38,1.61,4.61,3.41,7,5.08a17.26,17.26,0,0,1,1.46,1.23c1.43,1.27,2.87,2.54,4.27,3.84a6.85,6.85,0,0,1,2.17,3.08.46.46,0,0,1-.14.37.63.63,0,0,1-.41.16,2.81,2.81,0,0,1-.91-.26c-2.91-1.67-5.82-3.33-8.7-5a76.1,76.1,0,0,0-9-4.45A26.12,26.12,0,0,0,123.81,16a27.14,27.14,0,0,0-4.77.09,7,7,0,0,1-2.85,0,.7.7,0,0,1-.47-.72,2,2,0,0,1,.27-.89c1.34-2.36,2.38-4.87,3.69-7.25a8.53,8.53,0,0,0,.39-.87c1.08-2.71,1.25-2.5,3.64-3.31a9.45,9.45,0,0,1,7,.47c1.32.56,2.61,1.18,3.92,1.78,2.78.51,4.82,2.41,7.13,3.79a6.38,6.38,0,0,1,1.44,1.25,19.71,19.71,0,0,0,4,3.45,7.16,7.16,0,0,1,2,2c1.41,2.13,2.84,4.24,4.27,6.36a2.34,2.34,0,0,1,.32,1.37.91.91,0,0,1-.34.85,1,1,0,0,1-.84,0c-1.14-.88-2.29-1.75-3.33-2.73-2.33-2.19-5-4-7.38-6.09a82.72,82.72,0,0,0-12.3-7.37,11.75,11.75,0,0,0-6.53-1,2.58,2.58,0,0,0-1.31.51.62.62,0,0,0-.26.34.72.72,0,0,0,.43.77A3.46,3.46,0,0,0,124,9Z"/><path class="cls-1" d="M108.48,36.81a21,21,0,0,0,.26-5.23,3.33,3.33,0,0,1,.13-.94,2.88,2.88,0,0,1,.44-.83,1.6,1.6,0,0,1,1.66-.66,5.26,5.26,0,0,0,.94.2,1.52,1.52,0,0,0,.91-.16,13.17,13.17,0,0,1,4.33-2,7.91,7.91,0,0,1,1.88-.28,17.34,17.34,0,0,1,1.91.14c1.75.16,3.53-.23,5.25.22a69.47,69.47,0,0,1,10.06,3.07c.88.38,1.78.72,2.65,1.12a56.87,56.87,0,0,0,5.32,2.15,25.54,25.54,0,0,1,6.36,3.27,1.37,1.37,0,0,1,.43.81,2.55,2.55,0,0,1-.36,1.82.61.61,0,0,1-.78.38,7.89,7.89,0,0,1-1.35-.44c-1.87-.89-3.79-1.67-5.74-2.38-2.25-.82-4.48-1.71-6.69-2.61a37.89,37.89,0,0,0-6.39-2c-2-.44-4-.95-6.06-1.42a21,21,0,0,0-7.62-.34,9.47,9.47,0,0,0-5.94,2.78,1.44,1.44,0,0,0-.32,1.32,1.6,1.6,0,0,0,1.64.61c.3-.12.6-.22.88-.36.57-.29,1.12-.63,1.69-.9a5.09,5.09,0,0,1,1.35-.49,18.65,18.65,0,0,1,6.19-.17c2.2.37,4.39.83,6.63,1a10.4,10.4,0,0,1,2.77.73c3.9,1.41,7.81,2.81,11.7,4.23a19.81,19.81,0,0,1,3.85,1.93,9.36,9.36,0,0,0,2.64,1.08,1.22,1.22,0,0,1,.69,1.56.75.75,0,0,1-.66.56,2.59,2.59,0,0,1-1.35-.42,100.69,100.69,0,0,0-9.73-4A22.87,22.87,0,0,0,133.9,39c-2.36-.4-4.71-.88-7.07-1.26a33.72,33.72,0,0,0-10-.12,20.44,20.44,0,0,0-6.88,1.89,1,1,0,0,1-1.37-.83c0-.16-.06-.31-.07-.47C108.47,37.93,108.48,37.61,108.48,36.81Z"/><path class="cls-1" d="M131.72,51.22l4.79.14a27.27,27.27,0,0,1,2.86.17c2.52.38,5,1,7.48,1.6a.9.9,0,0,1,.53,1.15,1.23,1.23,0,0,1-1.82.9A11,11,0,0,0,141,53.81a27,27,0,0,1-2.85-.35,15.67,15.67,0,0,0-7.11.4,27.59,27.59,0,0,1-5.17.91,13.29,13.29,0,0,0-2.34.47c-1.85.5-3.66,1.12-5.52,1.58a6.13,6.13,0,0,0-3.26,1.91.72.72,0,0,0,0,.85.65.65,0,0,0,.39.26,2,2,0,0,0,.93,0c2.39-.95,5-1.19,7.38-2a4.75,4.75,0,0,1,1.41-.25,47.41,47.41,0,0,0,8-1.19,14.79,14.79,0,0,1,5.22-.23c1.11.15,2.24.13,3.34.29a3.69,3.69,0,0,1,2.87,2.26,1.38,1.38,0,0,1-.74,1.55,3.47,3.47,0,0,1-.46.13,4.34,4.34,0,0,1-1,.06c-5-.57-9.87.2-14.79.73a18.73,18.73,0,0,0-6.38,1.94c-1,.5-2,.9-3,1.39s-2,1-3,1.55a.75.75,0,0,1-.86-.21,2.57,2.57,0,0,1-.58-.74,11.64,11.64,0,0,1-.63-1.8c-.53-2.33-1-4.67-1.54-7A1.67,1.67,0,0,1,111.8,55c1.12-.6,2.42-.71,3.54-1.34A10.76,10.76,0,0,1,119,52.53a1.89,1.89,0,0,0,.47-.11C123.42,50.84,127.57,50.94,131.72,51.22Z"/><path class="cls-1" d="M122.55,18.41a13.11,13.11,0,0,1,5,.95c2.23.84,4.46,1.7,6.63,2.67a83.84,83.84,0,0,1,11,5.7,45.26,45.26,0,0,1,4.89,3c.49.4.95.83,1.41,1.27a1.36,1.36,0,0,1,0,1.72.63.63,0,0,1-.34.29.77.77,0,0,1-.47-.07c-3.89-1.83-8-3.16-11.8-5.16a26.66,26.66,0,0,0-2.65-1.07c-.45-.17-.9-.34-1.35-.49-2-.66-3.88-1.46-5.88-1.95s-4.09-.65-6.13-1a14.39,14.39,0,0,0-7.53.53,7.12,7.12,0,0,1-.94.2c-.61.12-1.33-.46-1.23-1,.15-.94.29-1.89.5-2.81a1.46,1.46,0,0,1,.85-1.09c.88-.36,1.78-.66,2.67-1A11,11,0,0,1,122.55,18.41Z"/><path class="cls-1" d="M136.53,62.63a12.11,12.11,0,0,1,1.59.16c1.85.46,3.79.41,5.62,1a.66.66,0,0,1,.32.3.67.67,0,0,1-.12.86c-.11.11-.21.28-.34.31-1.24.28-2.47.58-3.72.8-.94.17-1.9.21-2.84.36a19.4,19.4,0,0,0-7.18,2.42,23.42,23.42,0,0,1-5.59,2.63A8,8,0,0,0,120,74.35a2.19,2.19,0,0,1-.34.34,1.31,1.31,0,0,1-2-.29,17,17,0,0,1-1.28-4.07.94.94,0,0,1,.22-.89c1-1,2.1-1.94,3.18-2.87a5.53,5.53,0,0,1,1.21-.74c.86-.41,1.75-.76,2.61-1.17a13.55,13.55,0,0,1,5.53-1.3,28.65,28.65,0,0,0,5.21-.57A16.38,16.38,0,0,1,136.53,62.63Z"/><path class="cls-1" d="M63.45,65.64c0,.64,0,1.27,0,1.91s-.44.81-.8,1.12a1.23,1.23,0,0,1-.41.24c-1.23.33-2.46.68-3.7,1s-2.29,1.13-3.6,1.23a.63.63,0,0,1-.75-.44,1.73,1.73,0,0,1-.14-.44,6.22,6.22,0,0,1,0-1.43,85.67,85.67,0,0,0,1.07-11.42,3.78,3.78,0,0,1,.26-.85c.14.06.34.09.42.2a2.09,2.09,0,0,1,.48.82,21.45,21.45,0,0,1,.11,10,.67.67,0,0,0,.4.75.68.68,0,0,0,.88-.15A5.49,5.49,0,0,0,58.59,67a7,7,0,0,0,.69-1.78A33.36,33.36,0,0,0,59.93,62,13.54,13.54,0,0,0,60,59.59c0-1.12-.16-2.23-.24-3.35A14.18,14.18,0,0,0,59.11,53a60.35,60.35,0,0,1-2.52-9.72,11,11,0,0,0-1-2.67,1.87,1.87,0,0,1,1.65-2.37,1.29,1.29,0,0,1,1.11.77c.42,1.86.51,3.78,1,5.63s.84,3.74,1.23,5.61a30.78,30.78,0,0,1,.63,3.29,12.6,12.6,0,0,0,1,3.67,20.84,20.84,0,0,1,1.3,6.55c0,.63,0,1.27,0,1.91Z"/><path class="cls-1" d="M182.55,66.24c-.33.32-.65.65-1,1a3.17,3.17,0,0,1-1.35.34,1,1,0,0,1-.42-.17,1.32,1.32,0,0,1-.31-.36,7.72,7.72,0,0,1-.68-1.26,31.94,31.94,0,0,0-5.49-9.44,51.65,51.65,0,0,0-6.66-6.81A34.09,34.09,0,0,0,160,44.88c-.69-.37-1.38-.76-2-1.19a.73.73,0,0,1-.25-.86c0-.12.24-.2.39-.25a1,1,0,0,1,.46-.06c.47,0,.95.08,1.42.16a18.29,18.29,0,0,1,9.27,4.61c.71.64,1.44,1.25,2.17,1.86a28.9,28.9,0,0,1,3.75,3.67c.71.86,1.47,1.68,2.25,2.47a20.33,20.33,0,0,1,3.7,5,2.3,2.3,0,0,0,1.43,1.19,1.45,1.45,0,0,1,1,1.45,11.24,11.24,0,0,1-.06,1.42Z"/><path class="cls-1" d="M130.48,48.49a56.65,56.65,0,0,0-8,.15,27.72,27.72,0,0,0-9.2,2.51c-.57.28-1.16.52-1.75.77a1,1,0,0,1-1.07-.67l-.69-6.19a.88.88,0,0,1,.31-.85s.26.07.34.16a2.2,2.2,0,0,0,1.73.68,16.24,16.24,0,0,0,4.27-.54,15.64,15.64,0,0,1,8.06-.26c2.36.46,4.72.83,7.09,1.17A18.6,18.6,0,0,1,137,47.17a3.06,3.06,0,0,1,.75.56.64.64,0,0,1,.13.42c0,.13,0,.35-.13.38a3,3,0,0,1-.93.18q-1.68,0-3.36-.06C132.54,48.62,131.59,48.55,130.48,48.49Z"/><path class="cls-1" d="M153.51,45.89a3.62,3.62,0,0,1,.94.14q2.42,1.06,4.79,2.19a7.14,7.14,0,0,1,1.22.77,57.67,57.67,0,0,1,6.33,5.13c.79.78,1.61,1.55,2.46,2.28a24.89,24.89,0,0,1,6.57,9.33c.75,1.76,1.4,3.57,2.06,5.37a1.61,1.61,0,0,1,0,.92,7,7,0,0,1-1.47,2.45,2.69,2.69,0,0,1-.37.3,1,1,0,0,1-1.52-.43c-.16-.77-.34-1.55-.43-2.34A14.84,14.84,0,0,0,172,66.16c-1.14-1.92-2.32-3.83-3.46-5.75a16.8,16.8,0,0,0-2.33-3c-1.23-1.26-2.43-2.55-3.66-3.8a10.18,10.18,0,0,0-1.46-1.24,27.38,27.38,0,0,0-4.51-2.71,37.8,37.8,0,0,1-3.35-1.85,1.09,1.09,0,0,1-.11-1.65A1.54,1.54,0,0,1,153.51,45.89Z"/><path class="cls-1" d="M33.14,50.41a7,7,0,0,0-1.32-.53c-3.31-.56-6.63-1.08-9.95-1.6a15.75,15.75,0,0,0-3.82-.15,8.58,8.58,0,0,0-4.52,1.44,11.73,11.73,0,0,1-4.82,2,1,1,0,0,1-1.24-1.06c.17-1.27.3-2.54.52-3.8a4.69,4.69,0,0,1,2-3.12,2.34,2.34,0,0,1,1.82-.43,5.93,5.93,0,0,1,.92.24A7.75,7.75,0,0,0,16,44c4.25-.21,8.2,1.12,12.19,2.29a24.18,24.18,0,0,1,2.68,1,6.44,6.44,0,0,1,1.26.7,3.26,3.26,0,0,1,1,1,1.64,1.64,0,0,1-.09,1.38Z"/><path class="cls-1" d="M168.79,79.06a17.15,17.15,0,0,0-1.63-8.83c-.38-.87-.8-1.74-1.25-2.58a26.75,26.75,0,0,0-4.78-6.55,45.9,45.9,0,0,1-6.76-8,.49.49,0,0,1,.24-.79.76.76,0,0,1,.44-.07,9,9,0,0,1,1.77.67,13.33,13.33,0,0,1,2.36,1.62q2.5,2.25,4.87,4.62a11,11,0,0,1,1.74,2.27A46.7,46.7,0,0,0,169,66.18a12.3,12.3,0,0,1,2.28,5.22c.29,1.57.53,3.16.69,4.74a10.53,10.53,0,0,1-.09,2.86,3.34,3.34,0,0,1-2.27,2.82.59.59,0,0,1-.77-.41,1.47,1.47,0,0,1-.13-.44C168.69,80.33,168.74,79.7,168.79,79.06Z"/><path class="cls-1" d="M14,76.79a9.59,9.59,0,0,0-2.34,3A47.82,47.82,0,0,1,7.19,86c-.3.36-.66.68-1,1a.85.85,0,0,1-.87.27,1.24,1.24,0,0,1-.65-.6A11.62,11.62,0,0,1,4,82c.13-1.91.21-3.81.18-5.73a4.11,4.11,0,0,1,1.49-2.89,2.11,2.11,0,0,1,.36-.31A21.54,21.54,0,0,1,13,69.85,16.46,16.46,0,0,0,17.35,68a20.85,20.85,0,0,1,5.75-2.3,4,4,0,0,1,1.42,0,.67.67,0,0,1,.54.7,2.83,2.83,0,0,1-1,2,2.61,2.61,0,0,1-2.1.94c-.48,0-1-.06-1.43-.11a8,8,0,0,0-4.19.78,15,15,0,0,0-2.9,1.64c-1.53,1.15-3,2.31-4.63,3.37a10.42,10.42,0,0,0-2.9,3.15,1.3,1.3,0,0,0-.17,1.33,1.49,1.49,0,0,0,1.61.73,3.14,3.14,0,0,0,1.32-.49c.88-.68,1.67-1.48,2.53-2.18A2.94,2.94,0,0,1,12.92,77h1Z"/><path class="cls-1" d="M160.18,82c-.1,1.1-.16,2.21-.31,3.31a1.77,1.77,0,0,1-1.21,1.34.93.93,0,0,1-1.13-.55c-.28-1.56-.56-3.13-.82-4.69a10.48,10.48,0,0,0-.85-2.72,65.78,65.78,0,0,0-3.5-6.78,47.87,47.87,0,0,1-2.71-5A4.58,4.58,0,0,0,147,64.33a1,1,0,0,1-.52-1.19,5.66,5.66,0,0,1,1-2.15,1.07,1.07,0,0,1,1.28-.21,6.76,6.76,0,0,1,2.05,2,30,30,0,0,0,3.55,4.47,18.87,18.87,0,0,1,4.28,7.37c.24.75.49,1.51.79,2.24a8.28,8.28,0,0,1,.66,3.25V82Z"/><path class="cls-1" d="M166.11,78.69c-.06,1.92-.11,2.87-.12,3.82a2.56,2.56,0,0,1-2.52,2.36.68.68,0,0,1-.73-.45,1.59,1.59,0,0,1-.15-.45c0-.32,0-.64,0-1,0-2.22.31-4.48-.24-6.64a57.3,57.3,0,0,0-2.22-6.29,9.12,9.12,0,0,0-1.64-2.89c-2.7-2.94-4.7-6.39-6.87-9.71-.23-.35-.15-.61.26-.7a.53.53,0,0,1,.44.1,45.44,45.44,0,0,0,5.14,5,32.06,32.06,0,0,1,3.06,3,6.78,6.78,0,0,1,.88,1.12,55.27,55.27,0,0,1,3.46,6.26,12.44,12.44,0,0,1,1.26,5.53C166.1,78.38,166.11,79,166.11,78.69Z"/><path class="cls-1" d="M46.1,65.5c-.21,3.5-.17,7-1,10.46a.63.63,0,0,1-.64.52.69.69,0,0,1-.69-.57,5.83,5.83,0,0,1-.21-.92c-.06-.64-.11-1.27-.12-1.91,0-1.6,0-3.19-.06-4.79-.08-2.23-.15-4.46-.32-6.69a26.81,26.81,0,0,0-1.31-6.55,8.41,8.41,0,0,0-1.37-2.49c-.33-.43-.11-.91.15-1.31a3.82,3.82,0,0,1,.61-.73A1.81,1.81,0,0,1,42.45,50a1.67,1.67,0,0,1,1.57.88,22.2,22.2,0,0,1,.9,2.72A46.47,46.47,0,0,1,46.1,65.5Z"/><path class="cls-1" d="M37.79,40.53a5.92,5.92,0,0,1-.91.27,1.71,1.71,0,0,1-.93,0c-1.29-.61-2.56-1.25-3.82-1.93a39.26,39.26,0,0,0-14.45-4.59,16.51,16.51,0,0,1-1.86-.36.79.79,0,0,1-.62-.66,1.92,1.92,0,0,1,.37-.8.7.7,0,0,1,.36-.3c.76-.23,1.55-.37,2.29-.65a10,10,0,0,1,6.56,0,17,17,0,0,1,5.93,3,30.86,30.86,0,0,1,4.18,3.9,20.1,20.1,0,0,0,2,2c.21.17.6.13.9.19Z"/><path class="cls-1" d="M5.79,57.12c.07-.47.16-1.09.26-1.72a1.21,1.21,0,0,1,.88-1c1.08-.19,2.18-.33,3.26-.57a18.8,18.8,0,0,0,6.67-2.39,4.19,4.19,0,0,1,2.76-.52c.95.08,1.9.16,2.84.32,1.72.28,3.43.59,5.14,1a4.78,4.78,0,0,1,1.3.56.48.48,0,0,1-.08.95q-3.08.33-6.15.62a28.81,28.81,0,0,0-4.69.75c-.92.24-1.87.32-2.8.52a22.69,22.69,0,0,0-2.28.64c-1.06.34-2.1.72-3.13,1.12s-2,.86-3.07,1.26A.56.56,0,0,1,6,58.21,7,7,0,0,1,5.79,57.12Z"/><path class="cls-1" d="M140,68.65a5.21,5.21,0,0,1,1,0,1.72,1.72,0,0,1,.8.44c.24.19.17,1.1-.06,1.35a2.19,2.19,0,0,1-.34.34,3.79,3.79,0,0,1-.82.49,6,6,0,0,1-1.38.36,19.9,19.9,0,0,0-7.67,2.6c-1.69.91-3.37,1.83-5.08,2.71a9.47,9.47,0,0,0-3.9,3.44c-.37.61-1.12.54-1.58-.06a2.9,2.9,0,0,1-.75-1.72c0-.15,0-.37.06-.45,1.25-1.24,2.51-2.47,3.79-3.67a3.48,3.48,0,0,1,1.2-.77,47.08,47.08,0,0,0,7.33-3.53,9.09,9.09,0,0,1,4.1-1.25C137.57,68.92,138.36,68.81,140,68.65Z"/><path class="cls-1" d="M49.1,65.78c0-1.49,0-3.09,0-4.69a49.46,49.46,0,0,0-.74-8.58,18.58,18.58,0,0,0-1.8-5.91.86.86,0,0,1,.11-.91,1.63,1.63,0,0,1,1.56-.88.59.59,0,0,1,.4.17,9,9,0,0,1,1,1.61,14,14,0,0,1,.87,2.73c.46,2.52.83,5,1.21,7.57a25.09,25.09,0,0,1-.1,7.64c-.27,1.74-.6,3.46-.92,5.19-.15.78-.42,1.55-.5,2.34s.07,1.58,0,2.37a.45.45,0,0,1-.65.37c-.13-.06-.32-.2-.32-.3C49.18,71.63,49.14,68.76,49.1,65.78Z"/><path class="cls-1" d="M27.11,82.8c-.05,2-.11,4.88-.19,7.75,0,.15-.06.38-.16.43-.32.16-.5,0-.64-.38-.54-1.5-.81-3.08-1.3-4.6A5.15,5.15,0,0,0,23,83.24c-.26-.18-.48-.42-.74-.6a1.7,1.7,0,0,1-.75-2,.82.82,0,0,0-.22-.87,1.52,1.52,0,0,1-.41-2.1c.73-1.23,1.44-2.47,2.2-3.69A6.33,6.33,0,0,1,24,72.85a1.91,1.91,0,0,1,1.77-.49,1.19,1.19,0,0,1,.7.56,1.83,1.83,0,0,1,.24.9C26.86,76.53,27,79.24,27.11,82.8Z"/><path class="cls-1" d="M154.65,85.8v1.9a2,2,0,0,1-1.45,1.68c-.35.11-1.13-.29-1.15-.62a21.71,21.71,0,0,0-2.32-8.18c-1-2.14-1.67-4.45-2.79-6.56-.37-.69-.52-1.5-.89-2.19a19.61,19.61,0,0,0-1.36-1.92.75.75,0,0,1-.12-.44c0-.45.6-1.36,1.17-1.32.29,0,.7.11.83.32.52.79,1,1.64,1.41,2.47a19.07,19.07,0,0,0,2.87,4.35,4.65,4.65,0,0,1,.81,1.16c.79,1.56,1.55,3.13,2.32,4.69a6,6,0,0,1,.62,2.76v1.9Z"/><path class="cls-1" d="M34.47,45.17a27.69,27.69,0,0,1-3.66-1c-2.91-.79-5.87-1.34-8.83-1.93-.78-.15-1.57-.25-2.34-.42a26.46,26.46,0,0,0-7.09-.67,5.2,5.2,0,0,1-1.41-.18c-.34-.07-.5-.35-.63-.63s-.08-.6.34-.72a3.12,3.12,0,0,1,.9-.25,16.68,16.68,0,0,0,5.62-.86,11.44,11.44,0,0,1,7,.47,21.06,21.06,0,0,1,4.72,2.24c1.6,1,3.16,2.12,4.71,3.22.24.17.35.51.52.77Z"/><path class="cls-1" d="M39.82,28.46a3.69,3.69,0,0,1-1.89.16c-1.08-.24-2.16-.52-3.24-.81a26.48,26.48,0,0,0-5.13-1.09,3.72,3.72,0,0,1-.94-.18,25.11,25.11,0,0,0-7.57-.87,4.37,4.37,0,0,1-2.31-.44.65.65,0,0,1-.22-.8.77.77,0,0,1,.32-.35,7.13,7.13,0,0,1,1.31-.55,24.87,24.87,0,0,1,12.3.13A11,11,0,0,1,37,26.14a20.25,20.25,0,0,0,2.88,2.51Z"/><path class="cls-1" d="M148.83,88.82c-.08.7-.15,1.33-.23,2a1.66,1.66,0,0,1-1.83,1.14,1.27,1.27,0,0,1-.75-.52,8.37,8.37,0,0,1-.72-1.75,14.74,14.74,0,0,1-.31-1.88,50.71,50.71,0,0,0-2.56-11.62,1.55,1.55,0,0,1,.61-1.69.84.84,0,0,1,.45-.12.62.62,0,0,1,.64.53,2.13,2.13,0,0,1,0,.94,2.48,2.48,0,0,0,.36,1.83,5,5,0,0,0,.84,1.15c2.55,2.52,3.34,5.71,3.5,9.14C148.85,88.24,148.83,88.56,148.83,88.82Z"/><path class="cls-1" d="M67.26,46.09c-.05-.6-.31-1-1-1A2.2,2.2,0,0,0,66,43.78a20.23,20.23,0,0,0-2.5-3.45c-1.06-1.17-2.08-2.37-3.09-3.59a.54.54,0,0,1,.15-.82c.11-.07.3-.16.4-.12A17.7,17.7,0,0,1,66.17,39a6.81,6.81,0,0,1,1,1,26.06,26.06,0,0,1,3.67,6.07,23.39,23.39,0,0,0,1.38,3,4.72,4.72,0,0,1,.26,4.11l.11.1a2.39,2.39,0,0,0-.07-.9,31.84,31.84,0,0,0-4-5.73A1.76,1.76,0,0,0,67.26,46.09Z"/><path class="cls-1" d="M39.93,74.18c0,2.17,0,4.23,0,6.29a3.73,3.73,0,0,1-.65,2.23c-.09.13-.29.33-.34.3a1.83,1.83,0,0,1-.73-.5,1.67,1.67,0,0,1-.25-.9,25,25,0,0,1,.14-3.78,25.38,25.38,0,0,0,0-6.63q-.31-3.06-.59-6.14a9.72,9.72,0,0,1,.07-1.42c0-.35.75-.89,1-.73a1.52,1.52,0,0,1,.67.57,5.32,5.32,0,0,1,.4,1.36,29.94,29.94,0,0,1,.37,6.62C40.05,72.4,40,73.35,39.93,74.18Z"/><path class="cls-1" d="M14.05,65a4.4,4.4,0,0,1-2.73,2.44c-1.91.72-3.89,1.28-5.84,1.89a1.24,1.24,0,0,1-1.57-1.24,14.46,14.46,0,0,1,.77-6c.3-.86,1.1-1,1.85-.37a1.23,1.23,0,0,1,.34,1.65c-.12.29-.28.56-.38.86a1.31,1.31,0,0,0,.41,1.27,3,3,0,0,0,2.18.72A6,6,0,0,0,10,66l4.13-1Z"/><path class="cls-1" d="M127.82,90.17a10.13,10.13,0,0,1-1.27-.65,3.12,3.12,0,0,1-1.32-2.42,1.07,1.07,0,0,1,.35-.82c1-.81,2-1.58,3-2.35a5.16,5.16,0,0,1,.8-.51,54.1,54.1,0,0,1,7-3c.3-.1.55.22.55.54a.65.65,0,0,1-.11.44c-.21.24-.42.55-.7.64-2.29.75-4.22,2.19-6.29,3.36-.62.35-.75.77-.54,1.62.12.47.25.92.38,1.38l.12-.15a1.68,1.68,0,0,0-1.11,1.12l.15-.15a2.21,2.21,0,0,0-1.13,1.12Z"/><path class="cls-1" d="M144.33,45.68a4,4,0,0,1-2.35.08c-2-.59-4-1.23-5.94-1.82a13.69,13.69,0,0,0-2.76-.72,33.86,33.86,0,0,1-6.07-1.32c-1.37-.38-2.76-.7-4.15-1-.06,0-.09-.17-.13-.25a1.3,1.3,0,0,1,.45-.14,9.79,9.79,0,0,1,2.37.15,22.2,22.2,0,0,0,5.67.71,11.88,11.88,0,0,1,3.72.78,32.44,32.44,0,0,0,4.08,1.34c1.89.43,3.49,1.55,5.23,2.33Z"/><path class="cls-1" d="M126.65,81.14a.82.82,0,0,1,.19-.82A7,7,0,0,1,128.23,79a79.23,79.23,0,0,1,8.49-4.39,8.2,8.2,0,0,1,1.85-.45.93.93,0,0,1,.85.32,1,1,0,0,1,0,1.29,1.58,1.58,0,0,1-1.12.79c-.32,0-.63.09-1,.11A6.75,6.75,0,0,0,133.84,78,29.33,29.33,0,0,1,128,81.23a2.68,2.68,0,0,1-.93.16C126.93,81.39,126.79,81.23,126.65,81.14Z"/><path class="cls-1" d="M28.06,56.92a5.39,5.39,0,0,1,1.05.11,1.51,1.51,0,0,1,.69.55.61.61,0,0,1-.1.85,1.82,1.82,0,0,1-1.16.72,3.62,3.62,0,0,1-.46.06c-2.83,0-5.65,0-8.47,0-.1,0-.29-.14-.29-.2a.62.62,0,0,1,.18-.4,3.46,3.46,0,0,1,.82-.45A20.87,20.87,0,0,1,28.06,56.92Z"/><path class="cls-1" d="M137.52,91.42c.1-1,.16-1.61.22-2.25a3,3,0,0,0-.49-1.8,1.8,1.8,0,0,1,.34-2.18.55.55,0,0,1,.82,0,8.47,8.47,0,0,1,2,5.24,6.43,6.43,0,0,1-.84,3.66,1.55,1.55,0,0,1-1.14.73c-.39,0-.64,0-.74-.42a3.72,3.72,0,0,1-.2-.91C137.45,92.66,137.51,91.87,137.52,91.42Z"/><path class="cls-1" d="M44.93,38.32c-.16.2-.24.37-.37.42a.51.51,0,0,1-.43-.05,2.59,2.59,0,0,1-.76-.53,35.42,35.42,0,0,0-6.95-6.33,10.34,10.34,0,0,1-1.37-1.28.38.38,0,0,1,0-.36.69.69,0,0,1,.39-.22.72.72,0,0,1,.46,0A11.8,11.8,0,0,1,38,31a23.46,23.46,0,0,1,6.48,6.12A5.14,5.14,0,0,1,44.93,38.32Z"/><path class="cls-1" d="M155.57,24.75a8.17,8.17,0,0,1,.2-.94,1.8,1.8,0,0,1,.84-1.08c1.69-.82,3.39-1.61,5.08-2.4a1.44,1.44,0,0,1,.46-.08,1,1,0,0,1,.87.25.56.56,0,0,1-.1.79c-1.49,1.38-3,2.74-4.51,4.1a4.37,4.37,0,0,1-1.67.83,1,1,0,0,1-1.17-1Z"/><path class="cls-1" d="M185.63,19.62a8.42,8.42,0,0,1-4.34-.79c-.39-.15-.47-.86-.15-1.24a2.76,2.76,0,0,1,1.58-1,5,5,0,0,1,4.09.86,2.28,2.28,0,0,1,.78,1.17.75.75,0,0,1-.7,1h-1.26Z"/><path class="cls-1" d="M140.86,82.73a1.4,1.4,0,0,1,1.19.63,6.58,6.58,0,0,1,.62,1.28c.32.89.5,1.85.89,2.71a10.44,10.44,0,0,1,.71,4.65c0,.79-.49,1.06-1.32.76-.14-.06-.33-.16-.37-.28-.47-1.53-.24-3.16-.63-4.69a41.33,41.33,0,0,1-.89-4.67c0-.16,0-.32-.07-.47Z"/><path class="cls-1" d="M33.77,58.85c.1-.29.12-.66.32-.86a4.87,4.87,0,0,1,2.44-1.42.88.88,0,0,1,.88.24,3.19,3.19,0,0,1,.83,1.68c.13.72-.38,1.43-1,1.23-1.07-.33-2.21-.14-3.26-.52C33.88,59.16,33.84,59,33.77,58.85Z"/><path class="cls-1" d="M17.2,64.69a3.79,3.79,0,0,1,3-2.1,21.94,21.94,0,0,1,4.72-.27l.47,0c.46,0,.89.54.76.94a.69.69,0,0,1-.76.47,26,26,0,0,0-4.23-.42,7.42,7.42,0,0,0-3.59,1,1.52,1.52,0,0,0-.34.33Z"/><path class="cls-1" d="M129.67,88.36a14.4,14.4,0,0,0,3-1.57.77.77,0,0,1,.86,0c.29.21.28.51,0,.77-.76.58-1.56,1.1-2.29,1.71s-1.41,1.31-2.1,2c-.27.26-.54.37-.8.23a.83.83,0,0,1-.4-.79c0-.16,0-.32,0-.48l-.12.13,1.13-1.12-.15.15a3.06,3.06,0,0,0,1.11-1.12Z"/><path class="cls-1" d="M141,82.65a5.34,5.34,0,0,1-.78-.53c-.9-.88-.68-2,.53-2.72.1-.06.3,0,.43.06a.85.85,0,0,1,.55.69,2.63,2.63,0,0,1-.85,2.57Z"/><path class="cls-1" d="M55.75,35.93c-.09.07-.19.24-.32.26a2.48,2.48,0,0,1-.9.08c-.33,0-.51-.29-.63-.61a.63.63,0,0,1,.19-.84.86.86,0,0,1,.89,0A1.16,1.16,0,0,1,55.75,35.93Z"/><path class="cls-1" d="M8.13,91.43a9.64,9.64,0,0,1-1.2,2.06.63.63,0,0,1-.83.17.54.54,0,0,1-.22-.41,3,3,0,0,1,0-.94,1.23,1.23,0,0,1,1.4-1,5,5,0,0,1,.91.21Z"/><path class="cls-1" d="M23.13,94.73a1,1,0,0,1,.69,1.07.82.82,0,0,1-.45.78.61.61,0,0,1-.83-.09,1.26,1.26,0,0,1,.16-1.7C22.8,94.71,23,94.75,23.13,94.73Z"/><path class="cls-1" d="M130.73,93.25c-.09.74-.09,1.53-.76,2a.55.55,0,0,1-.43.08.53.53,0,0,1-.38-.73,2.2,2.2,0,0,1,1.24-1.23,1.29,1.29,0,0,1,.44,0A1.31,1.31,0,0,0,130.73,93.25Z"/><path class="cls-1" d="M6.15,102c-.18.59-.72.94-1,.63a.93.93,0,0,1-.12-.89c.11-.37.33-.57.69-.48S6.26,101.57,6.15,102Z"/><path class="cls-1" d="M11.56,34a.66.66,0,0,1,.69.43.67.67,0,0,1-.58.94.66.66,0,0,1-.72-.4A.8.8,0,0,1,11.56,34Z"/><path class="cls-1" d="M44.74,82.08c-.1.39-.74,1-1,.81a.8.8,0,0,1-.33-.8c0-.32.1-.67.38-.78a.67.67,0,0,1,.78.35A4.09,4.09,0,0,1,44.74,82.08Z"/><path class="cls-1" d="M147.55,48.74a.79.79,0,0,1,.73.38c.07.11.13.32.08.4a.62.62,0,0,1-.77.25.49.49,0,0,1-.32-.71A1.37,1.37,0,0,1,147.55,48.74Z"/><path class="cls-1" d="M131.13,90.89a1.93,1.93,0,0,1-.4,2.35s.11.12.11.13a5.28,5.28,0,0,1,.41-2.57Z"/><path class="cls-1" d="M41.17,44.59l.82-.18-.07.3-.84-.23Z"/><path class="cls-1" d="M33.08,50.42c.26-.12.58-.38.79-.31s.21.23-.28.13c-.12,0-.27.09-.43.15A.2.2,0,0,1,33.08,50.42Z"/><path class="cls-1" d="M19.26,73.52c0-.1.07-.29.12-.29a1,1,0,0,1,.4.09c0,.11-.08.32-.11.32A1.21,1.21,0,0,1,19.26,73.52Z"/><path class="cls-1" d="M17.19,64.71c-.45,0-.89.05-1.33.09-.6.06-1.19.13-1.79.18,0,0,.1.06.08,0a3.73,3.73,0,0,1,1.71-.36c.45,0,.89,0,1.34,0Z"/><polygon class="cls-1" points="11.52 61.1 11.52 60.8 11.88 60.94 11.52 61.1"/><path class="cls-1" d="M8.21,91.5l-.34-.28.23.2A.63.63,0,0,1,8.21,91.5Z"/><path class="cls-1" d="M13.88,77l-.07-.28c-.2.2-.15.24.14.1C14,76.79,13.88,77,13.88,77Z"/><path class="cls-1" d="M34.33,45.17l.34,0-.19,0Z"/><path class="cls-1" d="M37.83,40.54a3.11,3.11,0,0,0,.5,1.87l.14.1c-.22-.66-.45-1.32-.68-2Z"/><path class="cls-1" d="M38.33,42.41l.25,0q-.11-.39-.12.06Z"/><path class="cls-1" d="M39.91,28.65l-.27-.08c.08.28.14.24.17-.12Z"/><polygon class="cls-1" points="41.08 44.48 41.26 44.25 41.17 44.59 41.08 44.48"/><path class="cls-1" d="M72.47,53.25l.33,0c-.12-.29-.2-.25-.22.13Z"/><polygon class="cls-1" points="131.25 90.8 131.46 91.01 131.14 90.89 131.25 90.8"/><path class="cls-1" d="M144.45,45.82l-.21.16.08-.3A1.66,1.66,0,0,1,144.45,45.82Z"/><path d="M128.83,89.18,127.7,90.3A2.21,2.21,0,0,1,128.83,89.18Z"/><path d="M129.79,88.21a3.06,3.06,0,0,1-1.11,1.12A1.68,1.68,0,0,1,129.79,88.21Z"/></g></g></svg>