<svg xmlns="http://www.w3.org/2000/svg" viewBox="0 0 106.69 79.28"><defs><style>.cls-1{fill:#fff;}</style></defs><title>Zeeplant11</title><g id="Laag_2" data-name="Laag 2"><g id="Laag_1-2" data-name="Laag 1"><path d="M104.19,19.46a1.93,1.93,0,0,1,0,1.4A14.55,14.55,0,0,1,101.79,25a41.87,41.87,0,0,0-3.87,5.47,30.4,30.4,0,0,1-4.15,5.26,1.08,1.08,0,0,0,.38,1.6,4.25,4.25,0,0,0,.43.21,15.84,15.84,0,0,0,2.72.92,7.9,7.9,0,0,1,4.19,2.15,5.08,5.08,0,0,0,3,1.31,11.12,11.12,0,0,1,1.4.26,1,1,0,0,1,.42.23.76.76,0,0,1,.34.8,3.62,3.62,0,0,1-1.59,2.32c-4.49,2.75-9,5.55-14,7.17-2,.64-3.91,1.4-5.87,2.09a31.16,31.16,0,0,0-8.11,4.07,14.57,14.57,0,0,1-4.71,2.31,10,10,0,0,0-3,1.45c-.53.35-1.11.62-1.66.95a9.1,9.1,0,0,1-4.09,1.26c-.47,0-1,0-1.43.07-2.07.2-4.06.91-6.17.83a45.8,45.8,0,0,0-5.74.13,19.22,19.22,0,0,1-2.4,0l-7.65-.39a11.53,11.53,0,0,0-1.44,0c-2.71.18-5.43.07-8.14.14a12.66,12.66,0,0,1-5.18-.69,2.13,2.13,0,0,0-.93-.16,6.66,6.66,0,0,0-1.4.27,3.13,3.13,0,0,0-.82.49,42.06,42.06,0,0,1-6.55,4A23.75,23.75,0,0,0,9.61,74c-1.15,1.11-2.25,2.27-3.43,3.35a7.53,7.53,0,0,1-3.31,1.87A2.39,2.39,0,0,1,1,79c-.25-.16-.57-.39-.64-.65A17,17,0,0,1,0,76,2.07,2.07,0,0,1,.36,74.6a5.52,5.52,0,0,1,.56-.78,23.71,23.71,0,0,0,3.49-4.55,5.56,5.56,0,0,1,2-2c.41-.24.81-.52,1.24-.73a6.09,6.09,0,0,0,2.21-1.81c1-1.3,2.24-2.27,3.3-3.46a2.86,2.86,0,0,0,.37-.87,1.25,1.25,0,0,0,.07-.47c-.17-2.56,0-5.11,0-7.66,0-2.24.16-4.47.23-6.71.05-1.59.11-3.19.1-4.79a15,15,0,0,1,.81-4.7c.2-.61.34-1.23.56-1.83.95-2.55,1.57-5.2,2.27-7.82.21-.78.34-1.57.54-2.34a24.35,24.35,0,0,1,2.63-6.66c.58-.95,1.1-1.95,1.67-2.91a64.94,64.94,0,0,0,3.88-7.15C26.91,6,27.69,4.8,28.39,3.55a10.43,10.43,0,0,1,.8-1.2C30.83.21,31.5.23,33.65,1.22a1.76,1.76,0,0,1,.9,1.05,4.94,4.94,0,0,1,.36,1.38C35,5.09,35,6.53,35.12,8a16.75,16.75,0,0,1-.57,6.64,12.77,12.77,0,0,0-.44,3.32c-.11,2.55-.24,5.1-.41,7.65a22.72,22.72,0,0,1-.4,2.85c-.21,1.09-.5,2.18-.73,3.27a13.27,13.27,0,0,0,.1,6.17.52.52,0,0,0,.31.27.58.58,0,0,0,.43,0,6.28,6.28,0,0,0,1.65-1.72,67.51,67.51,0,0,1,5.12-5.71c1-1,1.9-2.15,2.86-3.22S45.1,25,46.26,23.94a35.32,35.32,0,0,0,4.61-4.86,1.78,1.78,0,0,1,.32-.35c2.29-2,4.36-4.22,6.48-6.4A6.63,6.63,0,0,1,59.61,11c2-1,3.92-2.15,5.84-3.29s3.91-2.18,5.92-3.16a12.77,12.77,0,0,0,3.88-2.74A6,6,0,0,1,77.71.32,6.47,6.47,0,0,1,79.11,0a6.41,6.41,0,0,1,4.56,2.28,2.6,2.6,0,0,1,.44,1.34,17.89,17.89,0,0,1-1.27,6.05,16.46,16.46,0,0,1-3.44,5.13,2.22,2.22,0,0,0-.58,1.28c0,.38.45,1.06.79,1.05A7.54,7.54,0,0,0,81,17.07c1.72-.35,3.44-.74,5.15-1.14a16.22,16.22,0,0,1,4.28-.39c.8,0,1.6.06,2.39.14,3,.29,6,.58,9.06.9a5.26,5.26,0,0,1,2.65,1,.92.92,0,0,1,.32,1.24,7.81,7.81,0,0,1-.57.75,1.92,1.92,0,0,0,0-.24ZM38,37.71l1.16-1.17c.29.12.59.38.86.36a8.81,8.81,0,0,0,4.55-1.12,2.48,2.48,0,0,1,1.32-.47.63.63,0,0,0,.65-.57c.12-.94.15-1.9.33-2.83s.51-1.83.76-2.74a1.12,1.12,0,0,0,0-.48,1,1,0,0,0-.18-.42.58.58,0,0,0-.81-.1c-.68.54-6.5,6.49-7,7.12a2.08,2.08,0,0,0-.39,1.35L38.1,37.81ZM29.29,59.43c.38,0,.41.09.11.17l.1-.27c-.15.26-.29.53-.45.8s-.36.51-.5.79a.58.58,0,0,0,0,.43.46.46,0,0,0,.72.22.75.75,0,0,0,.26-.35C29.75,60.58,29.34,60,29.29,59.43Zm-2.8-10.49c.31,0,.35,0,.11.12l.07-.24c-.37.73-1.09,1.1-1.65,1.63a1.73,1.73,0,0,0-.34,2.14.67.67,0,0,0,.3.34c.37.14.58,0,.74-.37A8,8,0,0,0,26.49,48.94ZM73.13,8.25c0-.53-.13-.61-.15-.24,0,.11.18.24.28.36l-.45-.16A2.39,2.39,0,0,0,71,8.28a15,15,0,0,0-3.21,2,1.58,1.58,0,0,0-.33.86c0,.1.09.29.2.37a.44.44,0,0,0,.39.09C69.78,10.54,71.31,9.14,73.13,8.25ZM59.29,15.37a2.68,2.68,0,0,1-1.17,1.16L55.24,19a1.11,1.11,0,0,0-.3,1.27,7.83,7.83,0,0,1,.82,2.7c0,.14.18.25.28.37a2.32,2.32,0,0,0,.22-.41c.24-.8.92-1.26,1.4-1.87a1.92,1.92,0,0,0,.4-.84A7.76,7.76,0,0,0,58,16.47a3.77,3.77,0,0,0,1.21-1.27,4.25,4.25,0,0,1,1.37,2.94,6.29,6.29,0,0,0,.23,1.41.49.49,0,0,0,.31.32c.37,0,.5-.21.55-.6a9.06,9.06,0,0,0-.4-4.23.64.64,0,0,0-.78-.41A2,2,0,0,0,59.29,15.37ZM50.13,25.62l-.23-.23.18.24a1.32,1.32,0,0,1,1.68.25,1,1,0,0,0,.79.34c.33,0,.63-.48.63-1.12A5.43,5.43,0,0,0,53,22.8a.64.64,0,0,0-.77-.36,3.92,3.92,0,0,0-1.49,1.09A1.87,1.87,0,0,0,50.13,25.62ZM61.48,53.14a2.2,2.2,0,0,0-.44,0,1.42,1.42,0,0,0-.29.21l.63-.36a10.53,10.53,0,0,0,3.72-.69,38.5,38.5,0,0,1,4-1.47c2.28-.67,4.47-1.58,6.68-2.45A55.21,55.21,0,0,1,89,44.79c.63-.08,1.25-.22,1.88-.31a14,14,0,0,0,3.66-1,34.4,34.4,0,0,1,4.53-1.41l.09.47c0,.16.08.31.13.47a1.7,1.7,0,0,1-.75,2,15.79,15.79,0,0,1-7.23,2.27,31.66,31.66,0,0,0-7.51,1.44c-2.15.63-4.28,1.3-6.37,2.08A16.1,16.1,0,0,1,72.82,52a7.14,7.14,0,0,0-1.85.45,32.92,32.92,0,0,0-3.56,1.41A40.29,40.29,0,0,1,63,55.67a28.15,28.15,0,0,0-6.1,2.75,14.41,14.41,0,0,1-5.39,1.89c-1.26.21-2.52.41-3.77.69a5,5,0,0,0-1.27.63.83.83,0,0,0-.27.38c-.11.27,0,.54.38.69a10.05,10.05,0,0,0,3.76.6l6.71,0a4.86,4.86,0,0,0,1.43-.12,40.07,40.07,0,0,1,5.67-.9,5,5,0,0,0,1.81-.58,37.54,37.54,0,0,1,5.63-2.65,4.64,4.64,0,0,0,1.59-1,12,12,0,0,1,3.46-2.54c2.92-1.29,5.79-2.69,8.82-3.71,3.18-1.08,6.28-2.37,9.39-3.62A28,28,0,0,0,101,44.61a1.08,1.08,0,0,0,0-1.3,1.52,1.52,0,0,0-.34-.33q-.85-.4-1.77-.75a10,10,0,0,0-4.47-1.55c-2.38-.27-4.77,0-7.15-.34a1.52,1.52,0,0,0-.89.29c-1.86,1.22-3.7,2.47-5.57,3.69a18.25,18.25,0,0,1-7.83,3.32,6.68,6.68,0,0,0-2.25.77c-2.68,1.4-5.42,2.68-8.2,3.88A6,6,0,0,0,61.48,53.14Zm.8-27.93-.13-.12A3.78,3.78,0,0,0,64,24.8a35.82,35.82,0,0,0,6.35-3.24c1.18-.79,2.56-1.3,3.48-2.46.43-1.19.92-2.36,1.27-3.57a24,24,0,0,1,2-4.82,4.29,4.29,0,0,0,.56-2.28.7.7,0,0,0-.2-.4.5.5,0,0,0-.4-.13c-1.31.56-2.3,1.65-3.57,2.29A11.85,11.85,0,0,0,72,11.31,8.57,8.57,0,0,0,70.28,13,124.22,124.22,0,0,0,62.6,23.85,4.44,4.44,0,0,0,62.28,25.21ZM21.64,45.42h0c0-.48,0-1,0-1.44A1.5,1.5,0,0,0,21,42.75a4.33,4.33,0,0,1-1.84-3.2,7.67,7.67,0,0,0-.47-2.33.48.48,0,0,0-.36-.15.6.6,0,0,0-.39.18,3,3,0,0,0-.09,3.17c1.08,1.95,2.17,3.89,3.11,5.92.06.12.25.27.36.25s.35-.31.34-.7ZM26.83,15.6A10.59,10.59,0,0,0,27,14.48a.56.56,0,0,0-.17-.41.51.51,0,0,0-.78,0,13.91,13.91,0,0,0-2.41,4,1.81,1.81,0,0,0,0,1.37c.16.44.32.89.51,1.31a.65.65,0,0,0,.36.29.61.61,0,0,0,.78-.27A17.35,17.35,0,0,0,26.83,15.6ZM21.54,33.41c-.33-1-.31-2.17-1-3.07,0-.06-.3,0-.4,0a1.73,1.73,0,0,0-.57,2.41,6,6,0,0,1,1.62,3.28.67.67,0,0,0,.22.4.59.59,0,0,0,.39.13.54.54,0,0,0,.56-.56C22.4,35.07,21.61,34.35,21.54,33.41ZM17,51.23c0,.88,0,1.35,0,1.82s.22.6.52.59a.55.55,0,0,0,.37-.22,2.93,2.93,0,0,0,.19-3.13c-.17-.33-.37-.54-.73-.44-.11,0-.21.24-.24.38C17.08,50.7,17,51.17,17,51.23ZM30.17,16.78a1.14,1.14,0,0,0-1,.86c-.11.37,0,.66.39.72a2.13,2.13,0,0,0,.9-.08.78.78,0,0,0,.48-1.1A.88.88,0,0,0,30.17,16.78ZM27.4,26.36a1.1,1.1,0,0,0-.41,0,.57.57,0,0,0-.36.69c.08.33.34.41.64.25a.71.71,0,0,0,.4-.69C27.66,26.52,27.49,26.44,27.4,26.36Zm-1.33,12.1c-.07-.12-.13-.32-.22-.33a.49.49,0,0,0-.61.49c0,.12.12.34.2.35A.57.57,0,0,0,26.07,38.46ZM51.58,57.3c0-.12-.06-.3-.15-.35a.5.5,0,0,0-.74.2.36.36,0,0,0,.14.34A.53.53,0,0,0,51.58,57.3ZM30.87,11.66,31,12l.13-.34Z"/><path class="cls-1" d="M99,42.21c.59.25,1.18.5,1.75.77a1.52,1.52,0,0,1,.34.33,1.08,1.08,0,0,1,0,1.3,28,28,0,0,1-6.21,3.57c-3.11,1.25-6.21,2.54-9.39,3.62-3,1-5.9,2.42-8.82,3.71a12,12,0,0,0-3.46,2.54,4.64,4.64,0,0,1-1.59,1,37.54,37.54,0,0,0-5.63,2.65,5,5,0,0,1-1.81.58,40.07,40.07,0,0,0-5.67.9,4.86,4.86,0,0,1-1.43.12l-6.71,0a10.05,10.05,0,0,1-3.76-.6c-.36-.15-.49-.42-.38-.69a.83.83,0,0,1,.27-.38A5,5,0,0,1,47.72,61c1.25-.28,2.51-.48,3.77-.69a14.41,14.41,0,0,0,5.39-1.89A28.15,28.15,0,0,1,63,55.67a40.29,40.29,0,0,0,4.43-1.8A32.92,32.92,0,0,1,71,52.46,7.14,7.14,0,0,1,72.82,52a16.1,16.1,0,0,0,4.64-1.14c2.09-.78,4.22-1.45,6.37-2.08a31.66,31.66,0,0,1,7.51-1.44,15.79,15.79,0,0,0,7.23-2.27,1.7,1.7,0,0,0,.75-2c0-.16-.09-.31-.13-.47l-.09-.47Z"/><path class="cls-1" d="M62.28,25.21a4.44,4.44,0,0,1,.32-1.36A124.22,124.22,0,0,1,70.28,13,8.57,8.57,0,0,1,72,11.31a11.85,11.85,0,0,1,1.54-1.12c1.27-.64,2.26-1.73,3.57-2.29a.5.5,0,0,1,.4.13.7.7,0,0,1,.2.4,4.29,4.29,0,0,1-.56,2.28,24,24,0,0,0-2,4.82c-.35,1.21-.84,2.38-1.27,3.57-.92,1.16-2.3,1.67-3.48,2.46A35.82,35.82,0,0,1,64,24.8a3.78,3.78,0,0,1-1.85.29Z"/><path class="cls-1" d="M99.1,42.11a34.4,34.4,0,0,0-4.53,1.41,14,14,0,0,1-3.66,1c-.63.09-1.25.23-1.88.31a55.21,55.21,0,0,0-13.24,3.64c-2.21.87-4.4,1.78-6.68,2.45a38.5,38.5,0,0,0-4,1.47,10.53,10.53,0,0,1-3.72.69l.11.1a5.61,5.61,0,0,1,1.12-.85c2.78-1.2,5.52-2.48,8.2-3.88a6.68,6.68,0,0,1,2.25-.77,18.25,18.25,0,0,0,7.83-3.32c1.87-1.22,3.71-2.47,5.57-3.69a1.52,1.52,0,0,1,.89-.29c2.38.34,4.77.07,7.15.34A10.16,10.16,0,0,1,99,42.22Z"/><path class="cls-1" d="M39.25,36.63a2.07,2.07,0,0,1,.39-1.34c.48-.63,6.3-6.58,7-7.12a.58.58,0,0,1,.81.1,1,1,0,0,1,.18.42,1.12,1.12,0,0,1,0,.48c-.25.91-.58,1.81-.76,2.74s-.21,1.89-.33,2.83a.63.63,0,0,1-.65.57,2.48,2.48,0,0,0-1.32.47A8.81,8.81,0,0,1,40,36.9c-.27,0-.57-.24-.86-.36Z"/><path class="cls-1" d="M21.64,45.42v.47c0,.39-.1.67-.34.7s-.3-.13-.36-.25c-.94-2-2-4-3.11-5.92a3,3,0,0,1,.09-3.17.6.6,0,0,1,.39-.18.48.48,0,0,1,.36.15,7.67,7.67,0,0,1,.47,2.33A4.33,4.33,0,0,0,21,42.75,1.5,1.5,0,0,1,21.6,44c0,.48,0,1,0,1.44Z"/><path class="cls-1" d="M26.83,15.6a17.35,17.35,0,0,1-1.52,5.21.61.61,0,0,1-.78.27.65.65,0,0,1-.36-.29c-.19-.42-.35-.87-.51-1.31a1.81,1.81,0,0,1,0-1.37,13.91,13.91,0,0,1,2.41-4,.51.51,0,0,1,.78,0,.56.56,0,0,1,.17.41A10.59,10.59,0,0,1,26.83,15.6Z"/><path class="cls-1" d="M58,16.47a7.64,7.64,0,0,1,.07,3.74,1.92,1.92,0,0,1-.4.84c-.48.61-1.16,1.07-1.4,1.87a2.32,2.32,0,0,1-.22.41c-.1-.12-.25-.23-.28-.37a7.83,7.83,0,0,0-.82-2.7,1.11,1.11,0,0,1,.3-1.27l2.88-2.46Z"/><path class="cls-1" d="M21.54,33.41c.07.94.86,1.66.82,2.63a.54.54,0,0,1-.56.56.59.59,0,0,1-.39-.13.67.67,0,0,1-.22-.4,6,6,0,0,0-1.62-3.28,1.73,1.73,0,0,1,.57-2.41c.1-.07.36-.1.4,0C21.23,31.24,21.21,32.38,21.54,33.41Z"/><path class="cls-1" d="M50.15,25.63a1.85,1.85,0,0,1,.56-2.1,3.92,3.92,0,0,1,1.49-1.09.64.64,0,0,1,.77.36,5.43,5.43,0,0,1,.21,2.3c0,.64-.3,1.12-.63,1.12a1,1,0,0,1-.79-.34,1.32,1.32,0,0,0-1.68-.25Z"/><path class="cls-1" d="M59.28,15.35a2.14,2.14,0,0,1,1.21-.72.64.64,0,0,1,.78.41,9.06,9.06,0,0,1,.4,4.23c-.05.39-.18.63-.55.6a.49.49,0,0,1-.31-.32,6.29,6.29,0,0,1-.23-1.41,4.2,4.2,0,0,0-1.37-2.93Z"/><path class="cls-1" d="M73.19,8.29c-1.88.85-3.41,2.25-5.17,3.3a.44.44,0,0,1-.39-.09c-.11-.08-.23-.27-.2-.37a1.58,1.58,0,0,1,.33-.86,15,15,0,0,1,3.21-2,2.39,2.39,0,0,1,1.84-.07l.45.16Z"/><path class="cls-1" d="M17,51.23c0-.06,0-.53.12-1,0-.14.13-.36.24-.38.36-.1.56.11.73.44a2.93,2.93,0,0,1-.19,3.13.55.55,0,0,1-.37.22c-.3,0-.5-.21-.52-.59S17,52.11,17,51.23Z"/><path class="cls-1" d="M26.5,48.92a8.2,8.2,0,0,1-.78,3.64c-.16.34-.37.51-.74.37a.67.67,0,0,1-.3-.34A1.73,1.73,0,0,1,25,50.45c.56-.53,1.28-.9,1.65-1.63Z"/><path class="cls-1" d="M30.17,16.78a.88.88,0,0,1,.77.4.78.78,0,0,1-.48,1.1,2.13,2.13,0,0,1-.9.08c-.37-.06-.5-.35-.39-.72A1.14,1.14,0,0,1,30.17,16.78Z"/><path class="cls-1" d="M27.4,26.36c.09.08.26.16.27.26a.71.71,0,0,1-.4.69c-.3.16-.56.08-.64-.25a.57.57,0,0,1,.36-.69A1.1,1.1,0,0,1,27.4,26.36Z"/><path class="cls-1" d="M29.3,59.4c0,.62.45,1.18.25,1.82a.75.75,0,0,1-.26.35.46.46,0,0,1-.72-.22.58.58,0,0,1,0-.43c.14-.28.34-.53.5-.79s.3-.54.45-.8Z"/><path class="cls-1" d="M26.07,38.46a.57.57,0,0,1-.63.51c-.08,0-.2-.23-.2-.35a.49.49,0,0,1,.61-.49C25.94,38.14,26,38.34,26.07,38.46Z"/><path class="cls-1" d="M51.58,57.3a.53.53,0,0,1-.75.19.36.36,0,0,1-.14-.34.5.5,0,0,1,.74-.2C51.52,57,51.53,57.18,51.58,57.3Z"/><path class="cls-1" d="M61.38,53l-.63.36a1.42,1.42,0,0,1,.29-.21,2.22,2.22,0,0,1,.45,0Z"/><polygon class="cls-1" points="30.87 11.66 31.13 11.66 31 12 30.87 11.66"/><path class="cls-1" d="M26.67,48.82l-.07.24c.24-.13.2-.17-.11-.13Z"/><path class="cls-1" d="M29.5,59.33l-.1.27c.3-.08.27-.14-.1-.18C29.3,59.4,29.5,59.33,29.5,59.33Z"/><path class="cls-1" d="M38,37.71l.1.1Z"/><path class="cls-1" d="M39.16,36.54,38,37.71l.1.1,1.15-1.17Z"/><path class="cls-1" d="M50.08,25.63l-.18-.24.24.23S50.08,25.63,50.08,25.63Z"/><path class="cls-1" d="M58.12,16.53a2.65,2.65,0,0,0,1.17-1.17l-.08-.15A3.77,3.77,0,0,1,58,16.47Z"/><path class="cls-1" d="M62.15,25.09l.13.12Z"/><path class="cls-1" d="M73.26,8.37C73.16,8.25,73,8.12,73,8c0-.37.11-.29.18.26Z"/><path class="cls-1" d="M104.19,19.46l.13-.1a1.92,1.92,0,0,1,0,.24Z"/></g></g></svg>