<svg xmlns="http://www.w3.org/2000/svg" viewBox="0 0 59.7 180.8"><defs><style>.cls-1{fill:#fff;}</style></defs><title>Zeeplant8</title><g id="Laag_2" data-name="Laag 2"><g id="Laag_1-2" data-name="Laag 1"><path d="M52,34.52a4,4,0,0,1,.58.73,1.75,1.75,0,0,1-.37,2.17,11.86,11.86,0,0,1-1.15.86,2.28,2.28,0,0,0-.92,1,10.48,10.48,0,0,1-3,3.65,19.69,19.69,0,0,1-3.57,2.39c-1.28.64-2.5,1.39-3.75,2.1a.66.66,0,0,0-.32.83.63.63,0,0,0,.26.35c.43.19.88.35,1.33.5a3.08,3.08,0,0,1,2.29,2.2,1.27,1.27,0,0,0,1.08.84c.62.12,1.26.11,1.89.18a3.45,3.45,0,0,1,2.11,1,1,1,0,0,1,.07,1.28A41,41,0,0,1,43.88,58a5.49,5.49,0,0,1-1.32.55c-.76.25-1.53.46-2.29.68a12.91,12.91,0,0,0-5,2.77.67.67,0,0,0,0,1.15c.42.2,1,.3,1.14.75a22,22,0,0,1,.55,2.8,2.76,2.76,0,0,1,0,1,13.2,13.2,0,0,1-2,4.83,5.77,5.77,0,0,1-2.94,2.33c-1.35.49-2.75.84-4.09,1.34a8.63,8.63,0,0,0-2.07,1.17,3.31,3.31,0,0,0-1.49,3.3c0,.32.09.63.16.94a1.08,1.08,0,0,0,1.51.64,23.12,23.12,0,0,0,5.12-4.28,13.1,13.1,0,0,1,4.6-3.36,2,2,0,0,1,2.21.32,2.71,2.71,0,0,1,1.14,2.48c-.07.47,0,1-.08,1.43A4.38,4.38,0,0,0,39.69,81a1.21,1.21,0,0,1-.1-.14c-.28.39-.54.8-.85,1.16a8,8,0,0,1-6.15,3.22,19.12,19.12,0,0,0-2.38.21,1.94,1.94,0,0,0-.84.38c-.27.21-.16.53-.1.87a1.42,1.42,0,0,1-.89,1.54c-1,.51-2,.93-3,1.47a1.55,1.55,0,0,0-.7,1.19.73.73,0,0,0,.38.81,1.76,1.76,0,0,0,.88.21,1.89,1.89,0,0,0,.84-.41c1-.83,1.91-1.7,2.88-2.53a3.24,3.24,0,0,1,1.73-.76l5.69-.76a1.75,1.75,0,0,1,1.64,1.44,7.73,7.73,0,0,1-1.53,5.86,11,11,0,0,1-2.61,2.09c-.33.25-.45.48-.27.66a.61.61,0,0,0,.43.15c.8-.07,1.59-.17,2.38-.23a3.42,3.42,0,0,1,1,0,2.3,2.3,0,0,1,1.56,1,5.36,5.36,0,0,1,.73,3.68,3.81,3.81,0,0,1-.47,1.35,12.84,12.84,0,0,1-4.56,4.81c-2.05,1.23-4.1,2.45-6.14,3.71a.49.49,0,0,0-.16.76.54.54,0,0,0,.43.13,17.32,17.32,0,0,0,6.4-1.84,6.27,6.27,0,0,1,.88-.37,2.12,2.12,0,0,1,2.46,1,1.31,1.31,0,0,1-.25,1.7c-.54.34-1.08.68-1.64,1-1.55.82-3.13,1.6-4.66,2.45a3.82,3.82,0,0,0-1,1c-.08.09,0,.31,0,.46a.67.67,0,0,0,.63.56,2,2,0,0,0,.92-.18,15.34,15.34,0,0,1,3.61-1.27,5.91,5.91,0,0,1,2.37-.16,1.52,1.52,0,0,1,1.16.74A3.87,3.87,0,0,1,41,120.7c-.22,1.25-.42,2.51-.62,3.76a1.81,1.81,0,0,1-.68,1.21,6.16,6.16,0,0,0-2.23,2.44.92.92,0,0,0,.48,1.18c.46.09.93.2,1.39.28s1,.12,1.42.25a2.76,2.76,0,0,1,1.82,1.43c.22.42.42.86.63,1.29a1.73,1.73,0,0,1,0,1.39,9.5,9.5,0,0,1-2.35,3.57c-.34.34-.74.61-1.1.92a20.63,20.63,0,0,1-6.93,4.18c-1.2.42-2.33,1.08-3.54,1.42a25.69,25.69,0,0,1-3.3.46c-.37.05-.52.31-.6.66a3.35,3.35,0,0,0,0,1.41,1.33,1.33,0,0,0,1.79,1,5.66,5.66,0,0,0,.9-.32,15,15,0,0,0,1.65-1,14,14,0,0,1,3.86-1.89c2.74-.87,5.42-1.92,8.22-2.58a12.48,12.48,0,0,1,2.84-.41,1.88,1.88,0,0,1,1.72,1.38,13.51,13.51,0,0,1,0,1.91,2,2,0,0,1-.85,1.64,25.62,25.62,0,0,0-4.73,4c-1.44,1.49-3,2.88-4.44,4.36a22.85,22.85,0,0,1-6.64,4.64c-1,.48-2.05.9-3,1.4a1.46,1.46,0,0,0-.54.77,4.43,4.43,0,0,0-.08,2.81,1.73,1.73,0,0,0,.91,1,.94.94,0,0,0,1.23-.34c.45-.85.9-1.69,1.33-2.54a7.3,7.3,0,0,1,1.8-2.22A54.1,54.1,0,0,0,36.51,156a3.92,3.92,0,0,1,.76-.58c1.5-.92,3-1.84,4.5-2.73a3,3,0,0,1,.92-.21,2.45,2.45,0,0,1-.72,1.19,6.33,6.33,0,0,0-1.53,1.77,2.8,2.8,0,0,1,0,.29l-.14-.38a5.08,5.08,0,0,0,5.59-1.28,13.48,13.48,0,0,0,2.53-3.36.51.51,0,0,0-.22-.79.55.55,0,0,0-.43,0c-1.16.8-2.28,1.63-3.44,2.41a2.29,2.29,0,0,1-1.79.33,2.87,2.87,0,0,1,.51-.77c1.44-1,2.79-2.12,4.2-3.17a11,11,0,0,0,2.87-3.16.52.52,0,0,1,.77-.15.59.59,0,0,1,.21.42c0,.48,0,1,0,1.43a5.71,5.71,0,0,1-1,3.16,36.54,36.54,0,0,0-2.68,3.95,1.19,1.19,0,0,0,.26,1.29,11,11,0,0,0,1.26.68c.74.28,1.52.47,2.27.74a2.73,2.73,0,0,1,.84.45,1.78,1.78,0,0,1,.6.71,3.48,3.48,0,0,1-1,3.91c-.5.4-1,.75-1.55,1.12l-2.74,1.92a.77.77,0,0,0,0,1.21c.37.31.76.59,1.12.9a4.28,4.28,0,0,1,1.26,2,2.74,2.74,0,0,1-1.34,3.25,22.29,22.29,0,0,1-2.2.93c-2.57.86-5.17,1.64-7.72,2.53a12.14,12.14,0,0,1-3.76.66c-2.39.05-4.78.06-7.18.11a9.93,9.93,0,0,0-1.89.19,1.65,1.65,0,0,0-1.15.8c-.43.85-.78,1.74-1.17,2.61a.65.65,0,0,1-.72.44.84.84,0,0,1-.7-.56,4.18,4.18,0,0,1-.21-.93c-.05-.47,0-1-.07-1.43a1.44,1.44,0,0,0-1.23-1.26,5.1,5.1,0,0,0-2.36.2,13.63,13.63,0,0,0-2.19.94,16.57,16.57,0,0,1-4.07,1.38,9.66,9.66,0,0,1-5.65-.31,8.65,8.65,0,0,1-2.93-1.57,4.28,4.28,0,0,1-.58-.75,1.46,1.46,0,0,1,.22-1.74,2.41,2.41,0,0,1,1.63-.89c.79-.06,1.59-.07,2.38-.12a13.52,13.52,0,0,0,2.39-.17,47.17,47.17,0,0,1,10.47-.86,2.55,2.55,0,0,0,.86-.28.67.67,0,0,0-.12-.43,2.85,2.85,0,0,0-.84-.41,38.46,38.46,0,0,0-7.06-1.28,10.46,10.46,0,0,1-5-1.56A40.48,40.48,0,0,0,3,166.38a15.78,15.78,0,0,1-2.06-1.2,3.23,3.23,0,0,1-.65-.68,1.56,1.56,0,0,1,.35-2.11,4.21,4.21,0,0,1,3.17-.78,36.15,36.15,0,0,1,6.08,1.29,5.09,5.09,0,0,0,1.41.17.6.6,0,0,0,.43-.2c.16-.22.1-.51-.11-.81A4.1,4.1,0,0,0,10,161c-1.24-.72-2.52-1.38-3.73-2.14a2.49,2.49,0,0,1-1.21-1.43c1.32.55,2.64,1.11,4,1.64a6.51,6.51,0,0,0,.92.21c.44.12.93-.41.83-.9a5.71,5.71,0,0,0-.21-.93,13.19,13.19,0,0,0-6.42-6.82,2.78,2.78,0,0,0-.92-.17.76.76,0,0,0-.79.45,2.14,2.14,0,0,0-.24,1.38,7.58,7.58,0,0,0,2,4.24c.34.34.66.69,1,1a3.1,3.1,0,0,1-2.39-1.41,7.68,7.68,0,0,1-1.62-4.89,4.83,4.83,0,0,1,.31-1.38A1.61,1.61,0,0,1,3.1,149a6.83,6.83,0,0,1,.92.2c.72.32,1.43.69,2.14,1a1,1,0,0,0,.92,0,1.3,1.3,0,0,0,.45-1.24c-.09-.46-.17-.93-.28-1.4-.14-.62-.32-1.23-.47-1.85a11.53,11.53,0,0,1-.16-3.32c.1-2.3,1.93-3.33,3.91-3.17a9.62,9.62,0,0,1,1.38.35.75.75,0,0,0,1-.64,2.22,2.22,0,0,1,1.36-1.8.71.71,0,0,0,.09-1.17c-2-1.86-4-3.59-6.13-5.3-.61-.5-1.24-1-1.8-1.55a4.19,4.19,0,0,1-1.24-3,1.49,1.49,0,0,1,.21-.9,1.19,1.19,0,0,1,.81-.43c2.72-.1,5.41,0,7.89,1.35a4.43,4.43,0,0,1,1.31.56c1.36,1.11,2.93,1.87,4.35,2.87a.85.85,0,0,0,1.32-.74,7.8,7.8,0,0,0-.09-2.36,1.57,1.57,0,0,0-1.39-1.08,41.17,41.17,0,0,0-5.62.83,5,5,0,0,0,.05-.94,3.27,3.27,0,0,0-.25-.9,4.41,4.41,0,0,1,0-3.66c.13-.26-.17-.61-.46-.73a2.58,2.58,0,0,0-.89-.25c-.94,0-1.89,0-2.83,0a5.2,5.2,0,0,1-3.1-1c-.23-.16-.33-.5-.5-.76l-.1.1a8.06,8.06,0,0,1,1.39.11,9,9,0,0,0,3.72.15c.77-.13,1.56-.2,2.32-.35a.56.56,0,0,0,.49-.61.72.72,0,0,0-.2-.42,2.27,2.27,0,0,0-.74-.55c-1.34-.43-2.69-.84-4.05-1.19A10.5,10.5,0,0,0,7,115.14a1.58,1.58,0,0,0-1.72,1.21c-.1.3-.21.59-.32.89l.1-.11a1.25,1.25,0,0,1-.92-1,2,2,0,0,1,.34-1.81,1.86,1.86,0,0,1,1.71-.67c1.89.3,3.77.67,5.65,1a.6.6,0,0,0,.42-.15.56.56,0,0,0,.13-.81,51.83,51.83,0,0,1-5.48-7.85,14,14,0,0,1-1.52-3.51,7.13,7.13,0,0,1-.17-3.78,1.19,1.19,0,0,1,.56-.74A2.88,2.88,0,0,1,9,97.71c1.88,1.2,3.72,2.47,5.55,3.75a9.17,9.17,0,0,1,2.24,2.48,7.59,7.59,0,0,0,1.84,2.19,1.3,1.3,0,0,0,.9.16.62.62,0,0,0,.65-.59c0-.16.1-.31.12-.46a9.37,9.37,0,0,0-.1-3.34A2.15,2.15,0,0,0,19,100.42c-.84-.46-1.74-.82-2.55-1.33a8.39,8.39,0,0,1-1.85-1.5,24,24,0,0,1-4.52-7.3,38.57,38.57,0,0,1-1.85-6.44,11.36,11.36,0,0,1-.15-1.43A3.56,3.56,0,0,1,10.33,79c.3-.12.61-.2.92-.29s.91-.25,1.37-.4a.85.85,0,0,0,.43-1.17c-.58-1.14-1.16-2.28-1.75-3.41a15.21,15.21,0,0,1-1.08-3.17,3.06,3.06,0,0,1,.89-3.07c.45-.46,1-.84,1.45-1.26A.84.84,0,0,0,12.65,65a17,17,0,0,1-1.39-1.29,3.87,3.87,0,0,1-.69-1.24,1.88,1.88,0,0,1,1.66-2.4,5,5,0,0,1,.95,0c1,.13,1.89.31,2.84.43a2.62,2.62,0,0,0,1.8-.48l-.12.29.21-.2a6.08,6.08,0,0,1-1.1-.9c-1.06-1.4-2.1-2.8-3.06-4.26-1.4-2.13-2.74-4.3-4.08-6.46A10.13,10.13,0,0,1,9,47.25,2.45,2.45,0,0,1,10.19,44a3.11,3.11,0,0,1,.89-.33,3,3,0,0,0,2.74-2.28,1.24,1.24,0,0,1,1.12-.76c.47,0,1-.1,1.42-.18a.84.84,0,0,0,.67-1c-.71-1.78-1.32-3.58-1.86-5.41A3.3,3.3,0,0,1,15,31.71,5.63,5.63,0,0,1,16.92,29a5.6,5.6,0,0,1,3.15-.92.89.89,0,0,0,.84-1,21.78,21.78,0,0,1-.54-4.25,17.33,17.33,0,0,1,.1-1.91,1.87,1.87,0,0,1,1.33-1.78,3,3,0,0,0,2.09-1.79l.39-.87a2.46,2.46,0,0,1,.23-.42,2.28,2.28,0,0,1,1.52-1,3.78,3.78,0,0,0,.46-.1,1.44,1.44,0,0,0,1.09-.84A6.78,6.78,0,0,1,30,10.68a7.43,7.43,0,0,0,1-1l-.1.08.86-.2c.61-.1.75-.34.6-.94A32.09,32.09,0,0,1,31,2.87l0,.14A6,6,0,0,1,32.6,5.85,93.39,93.39,0,0,0,36.85,16a1,1,0,0,0,1.6.13,7,7,0,0,0,.78-1.2c.36-.88.63-1.8,1-2.7A49.51,49.51,0,0,1,45.12,1.88l.25-.41A3.14,3.14,0,0,1,48.2,0a2.1,2.1,0,0,1,2,1c-.46.06-.93.11-1.39.18a.71.71,0,0,0-.48,1.06,5.84,5.84,0,0,0,.48.8.76.76,0,0,0,.8.34.61.61,0,0,0,.51-.66c0-.62-.05-1.25-.07-1.87a3.79,3.79,0,0,1,1.68,2.77,6.79,6.79,0,0,1,.16,1.42c0,1.44,0,2.88.05,4.32a26.61,26.61,0,0,1-.64,3.76,1.82,1.82,0,0,0,.22.9,5.74,5.74,0,0,0,1.52,1.84,1.77,1.77,0,0,0,1.31.5c1.11-.11,2.21-.27,3.32-.38a3.77,3.77,0,0,1,.94.11,1.46,1.46,0,0,1,1,1,5.51,5.51,0,0,1-1.73,5.21,9.71,9.71,0,0,1-2.69,2c-.86.43-1.74.82-2.6,1.24-1.42.71-2.84,1.45-4.27,2.16a4.94,4.94,0,0,1-1.31.55c-1.93.28-2.59,1.63-2.92,3.29A2,2,0,0,0,44,32a.83.83,0,0,0,.5.72,8,8,0,0,0,3.75.58c.79,0,1.58-.16,2.38-.19a1.32,1.32,0,0,1,1.18.69,6.15,6.15,0,0,1,.37.87c-2.54-.12-5.07-.25-7.6-.35a7.53,7.53,0,0,0-1.42.09,3.36,3.36,0,0,0-2.56,1.9.89.89,0,0,0,.55,1.1,14.8,14.8,0,0,0,1.88.2,65.11,65.11,0,0,0,7.12-.19,2.25,2.25,0,0,0,1.68-1.49C51.91,35.47,52,35,52,34.52ZM37.53,157.45l.24-.07-.12-.07-.08.34S37.55,157.43,37.53,157.45ZM29.44,69.51c-.37-.06-.41-.13-.12-.2v.33c-.34.1-.4,0-.16-.3A.91.91,0,0,1,29.44,69.51ZM11.08,106.74c-.32.2-.46.13-.4-.21l.24.11c.22.15.2.19-.06.11Zm18.53-8,.39,0s.12,0,.07,0a1,1,0,0,0-.37.07c-1.39,0-2.78,0-4.16.11-.65,0-1,.54-1,1.31s.45,1.17,1.2.93A12.29,12.29,0,0,0,29,99.45,5.25,5.25,0,0,0,29.61,98.74Zm.76,77.2a17.7,17.7,0,0,0,8.47-1c2.57-.83,5.1-1.76,7.64-2.66.45-.16.87-.38,1.3-.58a2,2,0,0,0,.84-2A2.2,2.2,0,0,0,46.56,168a10.4,10.4,0,0,0-3.76.46,15.82,15.82,0,0,0-1.77.69,84.61,84.61,0,0,1-13.32,5.13,1.39,1.39,0,0,0-.41.23,1.06,1.06,0,0,0-.35.31.57.57,0,0,0-.08.42.45.45,0,0,0,.23.32A14.58,14.58,0,0,0,30.37,175.94ZM16,173.9a14,14,0,0,0-2.54.15,47.32,47.32,0,0,1-7.13.71,7.37,7.37,0,0,0-1.38.29.74.74,0,0,0-.57.69,1.77,1.77,0,0,0,.15.89,1.86,1.86,0,0,0,.71.62,7.37,7.37,0,0,0,4.13,1,14,14,0,0,0,8.32-3.18.71.71,0,0,0,.15-.42c0-.36-.18-.57-.57-.62ZM21.14,47l.58,0c.38-.06.59-.25.57-.54a.78.78,0,0,0-.12-.45,9.4,9.4,0,0,0-5-3.43,3.41,3.41,0,0,0-.46-.1,2.42,2.42,0,0,0-.47,0,1.69,1.69,0,0,0-1.24.52c-.19.21.08,1,.36,1.3a10.74,10.74,0,0,0,4.44,2.6A8.57,8.57,0,0,0,21.14,47Zm-5,93.19a1.37,1.37,0,0,0-.36.3,1.39,1.39,0,0,0,0,1.34,6.82,6.82,0,0,0,4.18,3.63,1.75,1.75,0,0,0,.46,0c.4,0,.89-.53.85-.94a2.28,2.28,0,0,0-.45-1.32,9.76,9.76,0,0,0-3.73-2.85A4,4,0,0,0,16.14,140.14ZM23.72,27.72a1.46,1.46,0,0,0,.64-1.16,13.1,13.1,0,0,0-.49-3.3A5.45,5.45,0,0,0,23.22,22a.89.89,0,0,0-.78-.41.72.72,0,0,0-.76.47,3,3,0,0,0-.24,1.86,9.31,9.31,0,0,0,1.42,3.5A.79.79,0,0,0,23.72,27.72Zm9.45,86.1a1.39,1.39,0,0,0-.44-.07c-1.38.27-2.76.55-4.14.85a3.91,3.91,0,0,0-1.65.86.74.74,0,0,0-.28.83.89.89,0,0,0,.55.68,3.08,3.08,0,0,0,2.29-.16A14,14,0,0,0,33,114.52a.87.87,0,0,0,.25-.38C33.31,114.05,33.22,113.93,33.17,113.82Zm-15,7.47a5.14,5.14,0,0,0-2.92,1,.91.91,0,0,0-.13,1.25,1.8,1.8,0,0,0,1.57.85,6.69,6.69,0,0,0,2.71-.67,3.37,3.37,0,0,0,.37-.29,1,1,0,0,0,.15-1.24A2.18,2.18,0,0,0,18.22,121.29Zm-.65-53.63c.51.51.94,1,1.4,1.39.23.21.51.34.76.53s.93,0,1.1-.52A3.11,3.11,0,0,0,21,67.23a1.22,1.22,0,0,0-.46-.76,10.08,10.08,0,0,0-4.09-.53.46.46,0,0,0,0,.35C16.83,66.79,17.23,67.26,17.57,67.66Zm-.26-3.27a6.75,6.75,0,0,0,.91-.24.44.44,0,0,0,.19-.32.66.66,0,0,0-.11-.45,7.48,7.48,0,0,0-4.73-2,3,3,0,0,0-.91.23c-.4.13-.46.37-.33.77A2.59,2.59,0,0,0,14,63.93,8.55,8.55,0,0,0,17.31,64.39ZM27.07,21.5a10.82,10.82,0,0,0-.68-2.74c-.16-.29-.41-.56-.72-.46s-.44.37-.55.62a2.53,2.53,0,0,0-.17.91,6.34,6.34,0,0,0,.57,2.71,1.39,1.39,0,0,0,1.13.6C26.94,23.08,27.19,22.44,27.07,21.5Zm-6.5,27.15c-.11.11-.26.21-.31.34a.64.64,0,0,0,0,.47,4.22,4.22,0,0,0,2.16,1.81.93.93,0,0,0,.44,0,1.24,1.24,0,0,0,.7-1.57,1,1,0,0,0-.3-.35A4.15,4.15,0,0,0,20.57,48.65ZM37.8,51.76c.35,0,.66,0,1,0s.58-.24.57-.55a.72.72,0,0,0-.53-.67,2.77,2.77,0,0,0-.9-.14,3.6,3.6,0,0,0-2.18.71c-.37.28-.24.51.25.53.16,0,.31,0,.47,0ZM26.91,132.69c-.23.08-.68.2-1.1.38a1.08,1.08,0,0,0-.32,1.26,1,1,0,0,0,1.2.48,4.55,4.55,0,0,0,1.18-.72,1.67,1.67,0,0,0,.34-.84C28.28,132.92,27.72,132.64,26.91,132.69ZM25.7,106.06a13.61,13.61,0,0,0,2.73-1.9.6.6,0,0,0,.2-.41.66.66,0,0,0-.2-.38,6.48,6.48,0,0,0-2.74,1.85A.56.56,0,0,0,25.7,106.06Zm-9.25,55.49a1.29,1.29,0,0,0-.11-.45,9.82,9.82,0,0,0-2-1.93.5.5,0,0,0-.44,0,.57.57,0,0,0-.19.83,5,5,0,0,0,2,1.91.62.62,0,0,0,.46,0C16.28,161.86,16.36,161.68,16.45,161.55ZM37,112.76l-.21-.28-.19.34ZM20.82,147.59a1.87,1.87,0,0,0-.38.28.82.82,0,0,0-.12.45c0,.35.24.69.56.69s.51-.34.48-.71A.73.73,0,0,0,20.82,147.59ZM28.56,64.7c-.46.12-.47.26,0,.37.1,0,.23-.12.34-.18Zm-.51,55.59c-.47.09-.5.25-.05.4.09,0,.24-.1.36-.15ZM26.45,153l.25,0-.11-.3Zm-6.51-34.22-.08-.32-.38.1c0,.1.05.28.1.28A.94.94,0,0,0,19.94,118.75Z"/><path d="M29.06,6.71c-.22-.2-.54-.36-.65-.61a3.94,3.94,0,0,1-.07-2.75,1.38,1.38,0,0,1,1.86-.89,1.6,1.6,0,0,1,.4.23,3.4,3.4,0,0,1,.34.32l0-.14-.86.31A1.61,1.61,0,0,0,29,4.54C29,5.3,29,6.07,29,6.84Z"/><path d="M31,9.66a3.07,3.07,0,0,1-.8-.43,3.39,3.39,0,0,1-1.13-2.52L29,6.84a3.55,3.55,0,0,1,1.95,2.9Z"/><path d="M41.23,80.06c.39-.14.45-.37.13-.62a.45.45,0,0,0-.4.07c-.28.34-.19.54.2.57Z"/><path d="M6,118.11a.88.88,0,0,1-1-1l-.1.11c.83.14.83.14,1,1Z"/><path d="M41.16,80.08a2.15,2.15,0,0,0-1.57.81,1.21,1.21,0,0,0,.1.14c.24-.71.87-.85,1.52-1C41.23,80.06,41.16,80.08,41.16,80.08Z"/><path class="cls-1" d="M30.37,175.94a14.58,14.58,0,0,1-3.27-.37.45.45,0,0,1-.23-.32.57.57,0,0,1,.08-.42,1.06,1.06,0,0,1,.35-.31,1.39,1.39,0,0,1,.41-.23A84.61,84.61,0,0,0,41,169.16a15.82,15.82,0,0,1,1.77-.69,10.4,10.4,0,0,1,3.76-.46,2.2,2.2,0,0,1,2.06,1.67,2,2,0,0,1-.84,2c-.43.2-.85.42-1.3.58-2.54.9-5.07,1.83-7.64,2.66A17.7,17.7,0,0,1,30.37,175.94Z"/><path class="cls-1" d="M5.24,157.58c-.33-.35-.65-.7-1-1a7.58,7.58,0,0,1-2-4.24,2.14,2.14,0,0,1,.24-1.38.76.76,0,0,1,.79-.45,2.78,2.78,0,0,1,.92.17,13.19,13.19,0,0,1,6.42,6.82,5.71,5.71,0,0,1,.21.93c.1.49-.39,1-.83.9a6.51,6.51,0,0,1-.92-.21c-1.34-.53-2.66-1.09-4-1.64Z"/><path class="cls-1" d="M16,173.9l1.27.11c.39.05.6.26.57.62a.71.71,0,0,1-.15.42,14,14,0,0,1-8.32,3.18,7.37,7.37,0,0,1-4.13-1,1.86,1.86,0,0,1-.71-.62,1.77,1.77,0,0,1-.15-.89.74.74,0,0,1,.57-.69,7.37,7.37,0,0,1,1.38-.29,47.32,47.32,0,0,0,7.13-.71A14,14,0,0,1,16,173.9Z"/><path class="cls-1" d="M52,34.52c-.07.47-.11.95-.21,1.41a2.25,2.25,0,0,1-1.68,1.49,65.11,65.11,0,0,1-7.12.19,14.8,14.8,0,0,1-1.88-.2.89.89,0,0,1-.55-1.1,3.36,3.36,0,0,1,2.56-1.9,7.53,7.53,0,0,1,1.42-.09c2.53.1,5.06.23,7.6.35Z"/><path class="cls-1" d="M21.14,47a8.57,8.57,0,0,1-1.29-.19,10.74,10.74,0,0,1-4.44-2.6c-.28-.28-.55-1.09-.36-1.3a1.69,1.69,0,0,1,1.24-.52,2.42,2.42,0,0,1,.47,0,3.41,3.41,0,0,1,.46.1,9.4,9.4,0,0,1,5,3.43.78.78,0,0,1,.12.45c0,.29-.19.48-.57.54Z"/><path class="cls-1" d="M5.93,118.21c-.15-.83-.15-.83-1-1,.11-.3.22-.59.32-.89A1.58,1.58,0,0,1,7,115.14a10.5,10.5,0,0,1,1.87.21c1.36.35,2.71.76,4.05,1.19a2.27,2.27,0,0,1,.74.55.72.72,0,0,1,.2.42.56.56,0,0,1-.49.61c-.76.15-1.55.22-2.32.35a9,9,0,0,1-3.72-.15A8.06,8.06,0,0,0,5.93,118.21Z"/><path class="cls-1" d="M42.54,152.64a2.29,2.29,0,0,0,1.79-.33c1.16-.78,2.28-1.61,3.44-2.41a.55.55,0,0,1,.43,0,.51.51,0,0,1,.22.79,13.48,13.48,0,0,1-2.53,3.36,5.08,5.08,0,0,1-5.59,1.28l.13.09A6.53,6.53,0,0,1,42,153.68a2.45,2.45,0,0,0,.72-1.19Z"/><path class="cls-1" d="M16.14,140.14a4,4,0,0,1,.92.19,9.76,9.76,0,0,1,3.73,2.85,2.28,2.28,0,0,1,.45,1.32c0,.41-.45,1-.85.94a1.75,1.75,0,0,1-.46,0,6.82,6.82,0,0,1-4.18-3.63,1.39,1.39,0,0,1,0-1.34A1.37,1.37,0,0,1,16.14,140.14Z"/><path class="cls-1" d="M14,126.29a41.17,41.17,0,0,1,5.62-.83A1.57,1.57,0,0,1,21,126.54a7.8,7.8,0,0,1,.09,2.36.85.85,0,0,1-1.32.74c-1.42-1-3-1.76-4.35-2.87a4.43,4.43,0,0,0-1.31-.56Z"/><path class="cls-1" d="M23.72,27.72a.79.79,0,0,1-.86-.31,9.31,9.31,0,0,1-1.42-3.5,3,3,0,0,1,.24-1.86.72.72,0,0,1,.76-.47.89.89,0,0,1,.78.41,5.45,5.45,0,0,1,.65,1.27,13.1,13.1,0,0,1,.49,3.3A1.46,1.46,0,0,1,23.72,27.72Z"/><path class="cls-1" d="M33.17,113.82c0,.11.14.23.12.32a.87.87,0,0,1-.25.38,14,14,0,0,1-3.54,2.29,3.08,3.08,0,0,1-2.29.16.89.89,0,0,1-.55-.68.74.74,0,0,1,.28-.83,3.91,3.91,0,0,1,1.65-.86c1.38-.3,2.76-.58,4.14-.85A1.39,1.39,0,0,1,33.17,113.82Z"/><path class="cls-1" d="M18.22,121.29a2.18,2.18,0,0,1,1.75.86,1,1,0,0,1-.15,1.24,3.37,3.37,0,0,1-.37.29,6.69,6.69,0,0,1-2.71.67,1.8,1.8,0,0,1-1.57-.85.91.91,0,0,1,.13-1.25A5.14,5.14,0,0,1,18.22,121.29Z"/><path class="cls-1" d="M17.57,67.66c-.34-.4-.74-.87-1.12-1.37a.46.46,0,0,1,0-.35,10.08,10.08,0,0,1,4.09.53,1.22,1.22,0,0,1,.46.76,3.11,3.11,0,0,1-.17,1.83c-.17.49-.75.77-1.1.52s-.53-.32-.76-.53C18.51,68.63,18.08,68.17,17.57,67.66Z"/><path class="cls-1" d="M17.31,64.39A8.55,8.55,0,0,1,14,63.93a2.59,2.59,0,0,1-1.69-1.54c-.13-.4-.07-.64.33-.77a3,3,0,0,1,.91-.23,7.48,7.48,0,0,1,4.73,2,.66.66,0,0,1,.11.45.44.44,0,0,1-.19.32A6.75,6.75,0,0,1,17.31,64.39Z"/><path class="cls-1" d="M30.9,9.74A3.55,3.55,0,0,0,29,6.84c0-.77,0-1.54.09-2.3a1.61,1.61,0,0,1,1.09-1.36L31,2.87A32.09,32.09,0,0,0,32.36,8.6c.15.6,0,.84-.6.94Z"/><path class="cls-1" d="M27.07,21.5c.12.94-.13,1.58-.42,1.64a1.39,1.39,0,0,1-1.13-.6A6.34,6.34,0,0,1,25,19.83a2.53,2.53,0,0,1,.17-.91c.11-.25.32-.56.55-.62s.56.17.72.46A10.82,10.82,0,0,1,27.07,21.5Z"/><path class="cls-1" d="M29.58,98.72a3.18,3.18,0,0,1-.55.73,12.29,12.29,0,0,1-3.28,1.69c-.75.24-1.15-.1-1.2-.93s.34-1.29,1-1.31c1.38-.06,2.77-.08,4.16-.11Z"/><path class="cls-1" d="M20.57,48.65a4.15,4.15,0,0,1,2.69.71,1,1,0,0,1,.3.35,1.24,1.24,0,0,1-.7,1.57.93.93,0,0,1-.44,0,4.22,4.22,0,0,1-2.16-1.81.64.64,0,0,1,0-.47C20.31,48.86,20.46,48.76,20.57,48.65Z"/><path class="cls-1" d="M37.8,51.76l-1.35-.13c-.16,0-.31,0-.47,0-.49,0-.62-.25-.25-.53a3.6,3.6,0,0,1,2.18-.71,2.77,2.77,0,0,1,.9.14.72.72,0,0,1,.53.67c0,.31-.2.51-.57.55S38.15,51.74,37.8,51.76Z"/><path class="cls-1" d="M26.91,132.69c.81-.05,1.37.23,1.3.56a1.67,1.67,0,0,1-.34.84,4.55,4.55,0,0,1-1.18.72,1,1,0,0,1-1.2-.48,1.08,1.08,0,0,1,.32-1.26C26.23,132.89,26.68,132.77,26.91,132.69Z"/><path class="cls-1" d="M25.7,106.06a.56.56,0,0,1,0-.84,6.48,6.48,0,0,1,2.74-1.85.66.66,0,0,1,.2.38.6.6,0,0,1-.2.41A13.61,13.61,0,0,1,25.7,106.06Z"/><path class="cls-1" d="M16.45,161.55c-.09.13-.17.31-.29.36a.62.62,0,0,1-.46,0,5,5,0,0,1-2-1.91.57.57,0,0,1,.19-.83.5.5,0,0,1,.44,0,9.82,9.82,0,0,1,2,1.93A1.29,1.29,0,0,1,16.45,161.55Z"/><path class="cls-1" d="M50.06.88c0,.62.06,1.25.07,1.87a.61.61,0,0,1-.51.66.76.76,0,0,1-.8-.34,5.84,5.84,0,0,1-.48-.8.71.71,0,0,1,.48-1.06c.46-.07.93-.12,1.39-.18Z"/><polygon class="cls-1" points="36.99 112.76 36.59 112.82 36.78 112.48 36.99 112.76"/><path class="cls-1" d="M20.82,147.59a.73.73,0,0,1,.54.71c0,.37-.13.71-.48.71s-.52-.34-.56-.69a.82.82,0,0,1,.12-.45A1.87,1.87,0,0,1,20.82,147.59Z"/><path class="cls-1" d="M28.56,64.7l.34.19c-.11.06-.24.2-.34.18C28.09,65,28.1,64.82,28.56,64.7Z"/><path class="cls-1" d="M29.7,98.79a1,1,0,0,1,.37-.07c.05,0-.06,0-.07,0l-.4,0Z"/><path class="cls-1" d="M28.05,120.29l.31.25c-.12,0-.27.18-.36.15C27.55,120.54,27.58,120.38,28.05,120.29Z"/><polygon class="cls-1" points="26.45 152.97 26.59 152.69 26.7 152.99 26.45 152.97"/><path class="cls-1" d="M19.94,118.75a.94.94,0,0,1-.36.06s-.07-.18-.1-.28l.38-.1Z"/><path class="cls-1" d="M11,106.66l-.27-.13c-.06.34.08.41.4.21Z"/><path class="cls-1" d="M11.08,106.74h-.22c.26.08.28,0,.08-.1Z"/><polygon class="cls-1" points="17.91 60.14 17.7 60.34 17.82 60.05 17.91 60.14"/><path class="cls-1" d="M29.45,69.5a1.27,1.27,0,0,0-.28-.16c-.24.3-.18.4.16.3Z"/><path class="cls-1" d="M29.33,69.64v-.33c-.29.07-.25.14.12.19A1.34,1.34,0,0,1,29.33,69.64Z"/><polygon class="cls-1" points="37.55 157.43 37.57 157.65 37.65 157.31 37.55 157.43"/><path class="cls-1" d="M37.65,157.31l.12.07-.23.06Z"/><path class="cls-1" d="M40.3,155.36l.14.38a2.8,2.8,0,0,0,0-.29Z"/></g></g></svg>